M48
; DRILL file {KiCad 7.0.1} date Thu Oct 19 22:58:36 2023
; FORMAT={-:-/ absolute / metric / decimal}
; #@! TF.CreationDate,2023-10-19T22:58:36+03:00
; #@! TF.GenerationSoftware,Kicad,Pcbnew,7.0.1
; #@! TF.FileFunction,Plated,1,2,PTH
FMAT,2
METRIC
; #@! TA.AperFunction,Plated,PTH,ViaDrill
T1C0.500
; #@! TA.AperFunction,Plated,PTH,ComponentDrill
T2C1.000
; #@! TA.AperFunction,Plated,PTH,ComponentDrill
T3C1.500
%
G90
G05
T1
X71.986Y-75.428
X136.364Y-64.57
X203.477Y-8.58
X205.442Y-6.966
X205.444Y-8.484
X205.676Y-9.837
X208.597Y-3.799
X212.961Y-10.945
X219.998Y-16.978
X221.662Y-35.189
X223.44Y-18.474
X228.495Y-13.273
X241.064Y-75.935
X244.738Y-2.534
X255.476Y-7.13
T2
X211.75Y-4.59
X211.75Y-7.13
X214.29Y-4.59
X214.29Y-7.13
X216.83Y-4.59
X216.83Y-7.13
X219.37Y-4.59
X219.37Y-7.13
X221.91Y-4.59
X221.91Y-7.13
X224.45Y-4.59
X224.45Y-7.13
X226.99Y-4.59
X226.99Y-7.13
X229.53Y-4.59
X229.53Y-7.13
X232.07Y-4.59
X232.07Y-7.13
X234.61Y-4.59
X234.61Y-7.13
X237.15Y-4.59
X237.15Y-7.13
X239.69Y-4.59
X239.69Y-7.13
T3
X13.643Y-20.84
X18.405Y-39.89
X18.405Y-77.99
X19.993Y-18.3
X23.168Y-58.94
X24.755Y-37.35
X24.755Y-75.45
X25.549Y-97.04
X29.518Y-56.4
X31.899Y-94.5
X32.693Y-20.84
X39.043Y-18.3
X42.218Y-39.89
X42.218Y-77.99
X48.568Y-37.35
X48.568Y-75.45
X51.743Y-20.84
X51.743Y-58.94
X58.093Y-18.3
X58.093Y-56.4
X61.268Y-39.89
X61.268Y-77.99
X66.03Y-97.04
X67.618Y-37.35
X67.618Y-75.45
X70.793Y-20.84
X70.793Y-58.94
X72.38Y-94.5
X77.143Y-18.3
X77.143Y-56.4
X80.318Y-39.89
X80.318Y-77.99
X86.668Y-37.35
X86.668Y-75.45
X89.843Y-20.84
X89.843Y-58.94
X96.193Y-18.3
X96.193Y-56.4
X99.368Y-39.89
X99.368Y-77.99
X105.718Y-37.35
X105.718Y-75.45
X108.893Y-20.84
X108.893Y-58.94
X115.243Y-18.3
X115.243Y-56.4
X118.418Y-39.89
X118.418Y-77.99
X124.768Y-37.35
X124.768Y-75.45
X127.943Y-20.84
X127.943Y-58.94
X134.293Y-18.3
X134.293Y-56.4
X137.468Y-39.89
X137.468Y-77.99
X143.818Y-37.35
X143.818Y-75.45
X144.612Y-97.04
X146.993Y-20.84
X146.993Y-58.94
X150.962Y-94.5
X153.343Y-18.3
X153.343Y-56.4
X156.518Y-39.89
X156.518Y-77.99
X162.868Y-37.35
X162.868Y-75.45
X166.043Y-20.84
X166.043Y-58.94
X172.393Y-18.3
X172.393Y-56.4
X175.568Y-39.89
X175.568Y-77.99
X181.918Y-37.35
X181.918Y-75.45
X185.093Y-20.84
X185.093Y-58.94
X191.443Y-18.3
X191.443Y-56.4
X194.618Y-39.89
X194.618Y-77.99
X200.968Y-37.35
X200.968Y-75.45
X204.143Y-20.84
X204.143Y-58.94
X210.493Y-18.3
X210.493Y-56.4
X213.668Y-39.89
X213.668Y-77.99
X213.668Y-97.04
X220.018Y-37.35
X220.018Y-75.45
X220.018Y-94.5
X223.193Y-58.94
X225.574Y-20.84
X229.543Y-56.4
X231.924Y-18.3
X232.718Y-77.99
X232.718Y-97.04
X237.48Y-39.89
X239.068Y-75.45
X239.068Y-94.5
X242.243Y-58.94
X243.83Y-37.35
X248.593Y-56.4
X251.768Y-97.04
X258.118Y-94.5
X258.912Y-20.84
X261.293Y-77.99
X265.262Y-18.3
X266.055Y-39.89
X266.055Y-58.94
X267.643Y-75.45
X270.818Y-97.04
X272.405Y-37.35
X272.405Y-56.4
X277.168Y-94.5
T0
M30
