%TF.GenerationSoftware,KiCad,Pcbnew,7.0.1*%
%TF.CreationDate,2023-10-19T22:58:37+03:00*%
%TF.ProjectId,keyboard_cherry,6b657962-6f61-4726-945f-636865727279,rev?*%
%TF.SameCoordinates,Original*%
%TF.FileFunction,Drillmap*%
%TF.FilePolarity,Positive*%
%FSLAX45Y45*%
G04 Gerber Fmt 4.5, Leading zero omitted, Abs format (unit mm)*
G04 Created by KiCad (PCBNEW 7.0.1) date 2023-10-19 22:58:37*
%MOMM*%
%LPD*%
G01*
G04 APERTURE LIST*
%ADD10C,0.100000*%
%ADD11C,0.200000*%
%ADD12C,0.050000*%
%ADD13C,0.150000*%
G04 APERTURE END LIST*
D10*
X0Y0D02*
X29310000Y0D01*
X29310000Y-11700000D01*
X0Y-11700000D01*
X0Y0D01*
D11*
D12*
X7173640Y-7517810D02*
X7223640Y-7567810D01*
X7223640Y-7517810D02*
X7173640Y-7567810D01*
X13611390Y-6432000D02*
X13661390Y-6482000D01*
X13661390Y-6432000D02*
X13611390Y-6482000D01*
X20322740Y-833010D02*
X20372740Y-883010D01*
X20372740Y-833010D02*
X20322740Y-883010D01*
X20519230Y-671620D02*
X20569230Y-721620D01*
X20569230Y-671620D02*
X20519230Y-721620D01*
X20519390Y-823420D02*
X20569390Y-873420D01*
X20569390Y-823420D02*
X20519390Y-873420D01*
X20542620Y-958730D02*
X20592620Y-1008730D01*
X20592620Y-958730D02*
X20542620Y-1008730D01*
X20834730Y-354910D02*
X20884730Y-404910D01*
X20884730Y-354910D02*
X20834730Y-404910D01*
X21271120Y-1069480D02*
X21321120Y-1119480D01*
X21321120Y-1069480D02*
X21271120Y-1119480D01*
X21974800Y-1672790D02*
X22024800Y-1722790D01*
X22024800Y-1672790D02*
X21974800Y-1722790D01*
X22141190Y-3493920D02*
X22191190Y-3543920D01*
X22191190Y-3493920D02*
X22141190Y-3543920D01*
X22319010Y-1822440D02*
X22369010Y-1872440D01*
X22369010Y-1822440D02*
X22319010Y-1872440D01*
X22824510Y-1302350D02*
X22874510Y-1352350D01*
X22874510Y-1302350D02*
X22824510Y-1352350D01*
X24081430Y-7568540D02*
X24131430Y-7618540D01*
X24131430Y-7568540D02*
X24081430Y-7618540D01*
X24448810Y-228410D02*
X24498810Y-278410D01*
X24498810Y-228410D02*
X24448810Y-278410D01*
X25522640Y-688000D02*
X25572640Y-738000D01*
X25572640Y-688000D02*
X25522640Y-738000D01*
D10*
X21225000Y-459000D02*
G75*
G03*
X21225000Y-459000I-50000J0D01*
G01*
X21225000Y-713000D02*
G75*
G03*
X21225000Y-713000I-50000J0D01*
G01*
X21479000Y-459000D02*
G75*
G03*
X21479000Y-459000I-50000J0D01*
G01*
X21479000Y-713000D02*
G75*
G03*
X21479000Y-713000I-50000J0D01*
G01*
X21733000Y-459000D02*
G75*
G03*
X21733000Y-459000I-50000J0D01*
G01*
X21733000Y-713000D02*
G75*
G03*
X21733000Y-713000I-50000J0D01*
G01*
X21987000Y-459000D02*
G75*
G03*
X21987000Y-459000I-50000J0D01*
G01*
X21987000Y-713000D02*
G75*
G03*
X21987000Y-713000I-50000J0D01*
G01*
X22241000Y-459000D02*
G75*
G03*
X22241000Y-459000I-50000J0D01*
G01*
X22241000Y-713000D02*
G75*
G03*
X22241000Y-713000I-50000J0D01*
G01*
X22495000Y-459000D02*
G75*
G03*
X22495000Y-459000I-50000J0D01*
G01*
X22495000Y-713000D02*
G75*
G03*
X22495000Y-713000I-50000J0D01*
G01*
X22749000Y-459000D02*
G75*
G03*
X22749000Y-459000I-50000J0D01*
G01*
X22749000Y-713000D02*
G75*
G03*
X22749000Y-713000I-50000J0D01*
G01*
X23003000Y-459000D02*
G75*
G03*
X23003000Y-459000I-50000J0D01*
G01*
X23003000Y-713000D02*
G75*
G03*
X23003000Y-713000I-50000J0D01*
G01*
X23257000Y-459000D02*
G75*
G03*
X23257000Y-459000I-50000J0D01*
G01*
X23257000Y-713000D02*
G75*
G03*
X23257000Y-713000I-50000J0D01*
G01*
X23511000Y-459000D02*
G75*
G03*
X23511000Y-459000I-50000J0D01*
G01*
X23511000Y-713000D02*
G75*
G03*
X23511000Y-713000I-50000J0D01*
G01*
X23765000Y-459000D02*
G75*
G03*
X23765000Y-459000I-50000J0D01*
G01*
X23765000Y-713000D02*
G75*
G03*
X23765000Y-713000I-50000J0D01*
G01*
X24019000Y-459000D02*
G75*
G03*
X24019000Y-459000I-50000J0D01*
G01*
X24019000Y-713000D02*
G75*
G03*
X24019000Y-713000I-50000J0D01*
G01*
D13*
X1364290Y-2009000D02*
X1364290Y-2159000D01*
X1289290Y-2084000D02*
X1439290Y-2084000D01*
X1840540Y-3914000D02*
X1840540Y-4064000D01*
X1765540Y-3989000D02*
X1915540Y-3989000D01*
X1840540Y-7724000D02*
X1840540Y-7874000D01*
X1765540Y-7799000D02*
X1915540Y-7799000D01*
X1999290Y-1755000D02*
X1999290Y-1905000D01*
X1924290Y-1830000D02*
X2074290Y-1830000D01*
X2316790Y-5819000D02*
X2316790Y-5969000D01*
X2241790Y-5894000D02*
X2391790Y-5894000D01*
X2475540Y-3660000D02*
X2475540Y-3810000D01*
X2400540Y-3735000D02*
X2550540Y-3735000D01*
X2475540Y-7470000D02*
X2475540Y-7620000D01*
X2400540Y-7545000D02*
X2550540Y-7545000D01*
X2554920Y-9629000D02*
X2554920Y-9779000D01*
X2479920Y-9704000D02*
X2629920Y-9704000D01*
X2951790Y-5565000D02*
X2951790Y-5715000D01*
X2876790Y-5640000D02*
X3026790Y-5640000D01*
X3189920Y-9375000D02*
X3189920Y-9525000D01*
X3114920Y-9450000D02*
X3264920Y-9450000D01*
X3269290Y-2009000D02*
X3269290Y-2159000D01*
X3194290Y-2084000D02*
X3344290Y-2084000D01*
X3904290Y-1755000D02*
X3904290Y-1905000D01*
X3829290Y-1830000D02*
X3979290Y-1830000D01*
X4221790Y-3914000D02*
X4221790Y-4064000D01*
X4146790Y-3989000D02*
X4296790Y-3989000D01*
X4221790Y-7724000D02*
X4221790Y-7874000D01*
X4146790Y-7799000D02*
X4296790Y-7799000D01*
X4856790Y-3660000D02*
X4856790Y-3810000D01*
X4781790Y-3735000D02*
X4931790Y-3735000D01*
X4856790Y-7470000D02*
X4856790Y-7620000D01*
X4781790Y-7545000D02*
X4931790Y-7545000D01*
X5174290Y-2009000D02*
X5174290Y-2159000D01*
X5099290Y-2084000D02*
X5249290Y-2084000D01*
X5174290Y-5819000D02*
X5174290Y-5969000D01*
X5099290Y-5894000D02*
X5249290Y-5894000D01*
X5809290Y-1755000D02*
X5809290Y-1905000D01*
X5734290Y-1830000D02*
X5884290Y-1830000D01*
X5809290Y-5565000D02*
X5809290Y-5715000D01*
X5734290Y-5640000D02*
X5884290Y-5640000D01*
X6126790Y-3914000D02*
X6126790Y-4064000D01*
X6051790Y-3989000D02*
X6201790Y-3989000D01*
X6126790Y-7724000D02*
X6126790Y-7874000D01*
X6051790Y-7799000D02*
X6201790Y-7799000D01*
X6603040Y-9629000D02*
X6603040Y-9779000D01*
X6528040Y-9704000D02*
X6678040Y-9704000D01*
X6761790Y-3660000D02*
X6761790Y-3810000D01*
X6686790Y-3735000D02*
X6836790Y-3735000D01*
X6761790Y-7470000D02*
X6761790Y-7620000D01*
X6686790Y-7545000D02*
X6836790Y-7545000D01*
X7079290Y-2009000D02*
X7079290Y-2159000D01*
X7004290Y-2084000D02*
X7154290Y-2084000D01*
X7079290Y-5819000D02*
X7079290Y-5969000D01*
X7004290Y-5894000D02*
X7154290Y-5894000D01*
X7238040Y-9375000D02*
X7238040Y-9525000D01*
X7163040Y-9450000D02*
X7313040Y-9450000D01*
X7714290Y-1755000D02*
X7714290Y-1905000D01*
X7639290Y-1830000D02*
X7789290Y-1830000D01*
X7714290Y-5565000D02*
X7714290Y-5715000D01*
X7639290Y-5640000D02*
X7789290Y-5640000D01*
X8031790Y-3914000D02*
X8031790Y-4064000D01*
X7956790Y-3989000D02*
X8106790Y-3989000D01*
X8031790Y-7724000D02*
X8031790Y-7874000D01*
X7956790Y-7799000D02*
X8106790Y-7799000D01*
X8666790Y-3660000D02*
X8666790Y-3810000D01*
X8591790Y-3735000D02*
X8741790Y-3735000D01*
X8666790Y-7470000D02*
X8666790Y-7620000D01*
X8591790Y-7545000D02*
X8741790Y-7545000D01*
X8984290Y-2009000D02*
X8984290Y-2159000D01*
X8909290Y-2084000D02*
X9059290Y-2084000D01*
X8984290Y-5819000D02*
X8984290Y-5969000D01*
X8909290Y-5894000D02*
X9059290Y-5894000D01*
X9619290Y-1755000D02*
X9619290Y-1905000D01*
X9544290Y-1830000D02*
X9694290Y-1830000D01*
X9619290Y-5565000D02*
X9619290Y-5715000D01*
X9544290Y-5640000D02*
X9694290Y-5640000D01*
X9936790Y-3914000D02*
X9936790Y-4064000D01*
X9861790Y-3989000D02*
X10011790Y-3989000D01*
X9936790Y-7724000D02*
X9936790Y-7874000D01*
X9861790Y-7799000D02*
X10011790Y-7799000D01*
X10571790Y-3660000D02*
X10571790Y-3810000D01*
X10496790Y-3735000D02*
X10646790Y-3735000D01*
X10571790Y-7470000D02*
X10571790Y-7620000D01*
X10496790Y-7545000D02*
X10646790Y-7545000D01*
X10889290Y-2009000D02*
X10889290Y-2159000D01*
X10814290Y-2084000D02*
X10964290Y-2084000D01*
X10889290Y-5819000D02*
X10889290Y-5969000D01*
X10814290Y-5894000D02*
X10964290Y-5894000D01*
X11524290Y-1755000D02*
X11524290Y-1905000D01*
X11449290Y-1830000D02*
X11599290Y-1830000D01*
X11524290Y-5565000D02*
X11524290Y-5715000D01*
X11449290Y-5640000D02*
X11599290Y-5640000D01*
X11841790Y-3914000D02*
X11841790Y-4064000D01*
X11766790Y-3989000D02*
X11916790Y-3989000D01*
X11841790Y-7724000D02*
X11841790Y-7874000D01*
X11766790Y-7799000D02*
X11916790Y-7799000D01*
X12476790Y-3660000D02*
X12476790Y-3810000D01*
X12401790Y-3735000D02*
X12551790Y-3735000D01*
X12476790Y-7470000D02*
X12476790Y-7620000D01*
X12401790Y-7545000D02*
X12551790Y-7545000D01*
X12794290Y-2009000D02*
X12794290Y-2159000D01*
X12719290Y-2084000D02*
X12869290Y-2084000D01*
X12794290Y-5819000D02*
X12794290Y-5969000D01*
X12719290Y-5894000D02*
X12869290Y-5894000D01*
X13429290Y-1755000D02*
X13429290Y-1905000D01*
X13354290Y-1830000D02*
X13504290Y-1830000D01*
X13429290Y-5565000D02*
X13429290Y-5715000D01*
X13354290Y-5640000D02*
X13504290Y-5640000D01*
X13746790Y-3914000D02*
X13746790Y-4064000D01*
X13671790Y-3989000D02*
X13821790Y-3989000D01*
X13746790Y-7724000D02*
X13746790Y-7874000D01*
X13671790Y-7799000D02*
X13821790Y-7799000D01*
X14381790Y-3660000D02*
X14381790Y-3810000D01*
X14306790Y-3735000D02*
X14456790Y-3735000D01*
X14381790Y-7470000D02*
X14381790Y-7620000D01*
X14306790Y-7545000D02*
X14456790Y-7545000D01*
X14461170Y-9629000D02*
X14461170Y-9779000D01*
X14386170Y-9704000D02*
X14536170Y-9704000D01*
X14699290Y-2009000D02*
X14699290Y-2159000D01*
X14624290Y-2084000D02*
X14774290Y-2084000D01*
X14699290Y-5819000D02*
X14699290Y-5969000D01*
X14624290Y-5894000D02*
X14774290Y-5894000D01*
X15096170Y-9375000D02*
X15096170Y-9525000D01*
X15021170Y-9450000D02*
X15171170Y-9450000D01*
X15334290Y-1755000D02*
X15334290Y-1905000D01*
X15259290Y-1830000D02*
X15409290Y-1830000D01*
X15334290Y-5565000D02*
X15334290Y-5715000D01*
X15259290Y-5640000D02*
X15409290Y-5640000D01*
X15651790Y-3914000D02*
X15651790Y-4064000D01*
X15576790Y-3989000D02*
X15726790Y-3989000D01*
X15651790Y-7724000D02*
X15651790Y-7874000D01*
X15576790Y-7799000D02*
X15726790Y-7799000D01*
X16286790Y-3660000D02*
X16286790Y-3810000D01*
X16211790Y-3735000D02*
X16361790Y-3735000D01*
X16286790Y-7470000D02*
X16286790Y-7620000D01*
X16211790Y-7545000D02*
X16361790Y-7545000D01*
X16604290Y-2009000D02*
X16604290Y-2159000D01*
X16529290Y-2084000D02*
X16679290Y-2084000D01*
X16604290Y-5819000D02*
X16604290Y-5969000D01*
X16529290Y-5894000D02*
X16679290Y-5894000D01*
X17239290Y-1755000D02*
X17239290Y-1905000D01*
X17164290Y-1830000D02*
X17314290Y-1830000D01*
X17239290Y-5565000D02*
X17239290Y-5715000D01*
X17164290Y-5640000D02*
X17314290Y-5640000D01*
X17556790Y-3914000D02*
X17556790Y-4064000D01*
X17481790Y-3989000D02*
X17631790Y-3989000D01*
X17556790Y-7724000D02*
X17556790Y-7874000D01*
X17481790Y-7799000D02*
X17631790Y-7799000D01*
X18191790Y-3660000D02*
X18191790Y-3810000D01*
X18116790Y-3735000D02*
X18266790Y-3735000D01*
X18191790Y-7470000D02*
X18191790Y-7620000D01*
X18116790Y-7545000D02*
X18266790Y-7545000D01*
X18509290Y-2009000D02*
X18509290Y-2159000D01*
X18434290Y-2084000D02*
X18584290Y-2084000D01*
X18509290Y-5819000D02*
X18509290Y-5969000D01*
X18434290Y-5894000D02*
X18584290Y-5894000D01*
X19144290Y-1755000D02*
X19144290Y-1905000D01*
X19069290Y-1830000D02*
X19219290Y-1830000D01*
X19144290Y-5565000D02*
X19144290Y-5715000D01*
X19069290Y-5640000D02*
X19219290Y-5640000D01*
X19461790Y-3914000D02*
X19461790Y-4064000D01*
X19386790Y-3989000D02*
X19536790Y-3989000D01*
X19461790Y-7724000D02*
X19461790Y-7874000D01*
X19386790Y-7799000D02*
X19536790Y-7799000D01*
X20096790Y-3660000D02*
X20096790Y-3810000D01*
X20021790Y-3735000D02*
X20171790Y-3735000D01*
X20096790Y-7470000D02*
X20096790Y-7620000D01*
X20021790Y-7545000D02*
X20171790Y-7545000D01*
X20414290Y-2009000D02*
X20414290Y-2159000D01*
X20339290Y-2084000D02*
X20489290Y-2084000D01*
X20414290Y-5819000D02*
X20414290Y-5969000D01*
X20339290Y-5894000D02*
X20489290Y-5894000D01*
X21049290Y-1755000D02*
X21049290Y-1905000D01*
X20974290Y-1830000D02*
X21124290Y-1830000D01*
X21049290Y-5565000D02*
X21049290Y-5715000D01*
X20974290Y-5640000D02*
X21124290Y-5640000D01*
X21366790Y-3914000D02*
X21366790Y-4064000D01*
X21291790Y-3989000D02*
X21441790Y-3989000D01*
X21366790Y-7724000D02*
X21366790Y-7874000D01*
X21291790Y-7799000D02*
X21441790Y-7799000D01*
X21366790Y-9629000D02*
X21366790Y-9779000D01*
X21291790Y-9704000D02*
X21441790Y-9704000D01*
X22001790Y-3660000D02*
X22001790Y-3810000D01*
X21926790Y-3735000D02*
X22076790Y-3735000D01*
X22001790Y-7470000D02*
X22001790Y-7620000D01*
X21926790Y-7545000D02*
X22076790Y-7545000D01*
X22001790Y-9375000D02*
X22001790Y-9525000D01*
X21926790Y-9450000D02*
X22076790Y-9450000D01*
X22319290Y-5819000D02*
X22319290Y-5969000D01*
X22244290Y-5894000D02*
X22394290Y-5894000D01*
X22557420Y-2009000D02*
X22557420Y-2159000D01*
X22482420Y-2084000D02*
X22632420Y-2084000D01*
X22954290Y-5565000D02*
X22954290Y-5715000D01*
X22879290Y-5640000D02*
X23029290Y-5640000D01*
X23192420Y-1755000D02*
X23192420Y-1905000D01*
X23117420Y-1830000D02*
X23267420Y-1830000D01*
X23271790Y-7724000D02*
X23271790Y-7874000D01*
X23196790Y-7799000D02*
X23346790Y-7799000D01*
X23271790Y-9629000D02*
X23271790Y-9779000D01*
X23196790Y-9704000D02*
X23346790Y-9704000D01*
X23748040Y-3914000D02*
X23748040Y-4064000D01*
X23673040Y-3989000D02*
X23823040Y-3989000D01*
X23906790Y-7470000D02*
X23906790Y-7620000D01*
X23831790Y-7545000D02*
X23981790Y-7545000D01*
X23906790Y-9375000D02*
X23906790Y-9525000D01*
X23831790Y-9450000D02*
X23981790Y-9450000D01*
X24224290Y-5819000D02*
X24224290Y-5969000D01*
X24149290Y-5894000D02*
X24299290Y-5894000D01*
X24383040Y-3660000D02*
X24383040Y-3810000D01*
X24308040Y-3735000D02*
X24458040Y-3735000D01*
X24859290Y-5565000D02*
X24859290Y-5715000D01*
X24784290Y-5640000D02*
X24934290Y-5640000D01*
X25176790Y-9629000D02*
X25176790Y-9779000D01*
X25101790Y-9704000D02*
X25251790Y-9704000D01*
X25811790Y-9375000D02*
X25811790Y-9525000D01*
X25736790Y-9450000D02*
X25886790Y-9450000D01*
X25891170Y-2009000D02*
X25891170Y-2159000D01*
X25816170Y-2084000D02*
X25966170Y-2084000D01*
X26129290Y-7724000D02*
X26129290Y-7874000D01*
X26054290Y-7799000D02*
X26204290Y-7799000D01*
X26526170Y-1755000D02*
X26526170Y-1905000D01*
X26451170Y-1830000D02*
X26601170Y-1830000D01*
X26605540Y-3914000D02*
X26605540Y-4064000D01*
X26530540Y-3989000D02*
X26680540Y-3989000D01*
X26605540Y-5819000D02*
X26605540Y-5969000D01*
X26530540Y-5894000D02*
X26680540Y-5894000D01*
X26764290Y-7470000D02*
X26764290Y-7620000D01*
X26689290Y-7545000D02*
X26839290Y-7545000D01*
X27081790Y-9629000D02*
X27081790Y-9779000D01*
X27006790Y-9704000D02*
X27156790Y-9704000D01*
X27240540Y-3660000D02*
X27240540Y-3810000D01*
X27165540Y-3735000D02*
X27315540Y-3735000D01*
X27240540Y-5565000D02*
X27240540Y-5715000D01*
X27165540Y-5640000D02*
X27315540Y-5640000D01*
X27716790Y-9375000D02*
X27716790Y-9525000D01*
X27641790Y-9450000D02*
X27791790Y-9450000D01*
D11*
X242619Y-12017524D02*
X242619Y-11817524D01*
X242619Y-11817524D02*
X290238Y-11817524D01*
X290238Y-11817524D02*
X318810Y-11827048D01*
X318810Y-11827048D02*
X337857Y-11846095D01*
X337857Y-11846095D02*
X347381Y-11865143D01*
X347381Y-11865143D02*
X356905Y-11903238D01*
X356905Y-11903238D02*
X356905Y-11931809D01*
X356905Y-11931809D02*
X347381Y-11969905D01*
X347381Y-11969905D02*
X337857Y-11988952D01*
X337857Y-11988952D02*
X318810Y-12008000D01*
X318810Y-12008000D02*
X290238Y-12017524D01*
X290238Y-12017524D02*
X242619Y-12017524D01*
X442619Y-12017524D02*
X442619Y-11884190D01*
X442619Y-11922286D02*
X452143Y-11903238D01*
X452143Y-11903238D02*
X461667Y-11893714D01*
X461667Y-11893714D02*
X480714Y-11884190D01*
X480714Y-11884190D02*
X499762Y-11884190D01*
X566429Y-12017524D02*
X566429Y-11884190D01*
X566429Y-11817524D02*
X556905Y-11827048D01*
X556905Y-11827048D02*
X566429Y-11836571D01*
X566429Y-11836571D02*
X575952Y-11827048D01*
X575952Y-11827048D02*
X566429Y-11817524D01*
X566429Y-11817524D02*
X566429Y-11836571D01*
X690238Y-12017524D02*
X671190Y-12008000D01*
X671190Y-12008000D02*
X661667Y-11988952D01*
X661667Y-11988952D02*
X661667Y-11817524D01*
X795000Y-12017524D02*
X775952Y-12008000D01*
X775952Y-12008000D02*
X766428Y-11988952D01*
X766428Y-11988952D02*
X766428Y-11817524D01*
X1023571Y-12017524D02*
X1023571Y-11817524D01*
X1023571Y-11817524D02*
X1090238Y-11960381D01*
X1090238Y-11960381D02*
X1156905Y-11817524D01*
X1156905Y-11817524D02*
X1156905Y-12017524D01*
X1337857Y-12017524D02*
X1337857Y-11912762D01*
X1337857Y-11912762D02*
X1328333Y-11893714D01*
X1328333Y-11893714D02*
X1309286Y-11884190D01*
X1309286Y-11884190D02*
X1271190Y-11884190D01*
X1271190Y-11884190D02*
X1252143Y-11893714D01*
X1337857Y-12008000D02*
X1318810Y-12017524D01*
X1318810Y-12017524D02*
X1271190Y-12017524D01*
X1271190Y-12017524D02*
X1252143Y-12008000D01*
X1252143Y-12008000D02*
X1242619Y-11988952D01*
X1242619Y-11988952D02*
X1242619Y-11969905D01*
X1242619Y-11969905D02*
X1252143Y-11950857D01*
X1252143Y-11950857D02*
X1271190Y-11941333D01*
X1271190Y-11941333D02*
X1318810Y-11941333D01*
X1318810Y-11941333D02*
X1337857Y-11931809D01*
X1433095Y-11884190D02*
X1433095Y-12084190D01*
X1433095Y-11893714D02*
X1452143Y-11884190D01*
X1452143Y-11884190D02*
X1490238Y-11884190D01*
X1490238Y-11884190D02*
X1509286Y-11893714D01*
X1509286Y-11893714D02*
X1518809Y-11903238D01*
X1518809Y-11903238D02*
X1528333Y-11922286D01*
X1528333Y-11922286D02*
X1528333Y-11979428D01*
X1528333Y-11979428D02*
X1518809Y-11998476D01*
X1518809Y-11998476D02*
X1509286Y-12008000D01*
X1509286Y-12008000D02*
X1490238Y-12017524D01*
X1490238Y-12017524D02*
X1452143Y-12017524D01*
X1452143Y-12017524D02*
X1433095Y-12008000D01*
X1614048Y-11998476D02*
X1623571Y-12008000D01*
X1623571Y-12008000D02*
X1614048Y-12017524D01*
X1614048Y-12017524D02*
X1604524Y-12008000D01*
X1604524Y-12008000D02*
X1614048Y-11998476D01*
X1614048Y-11998476D02*
X1614048Y-12017524D01*
X1614048Y-11893714D02*
X1623571Y-11903238D01*
X1623571Y-11903238D02*
X1614048Y-11912762D01*
X1614048Y-11912762D02*
X1604524Y-11903238D01*
X1604524Y-11903238D02*
X1614048Y-11893714D01*
X1614048Y-11893714D02*
X1614048Y-11912762D01*
D12*
X-55000Y-12320000D02*
X-5000Y-12370000D01*
X-5000Y-12320000D02*
X-55000Y-12370000D01*
D11*
X280714Y-12237524D02*
X299762Y-12237524D01*
X299762Y-12237524D02*
X318810Y-12247048D01*
X318810Y-12247048D02*
X328333Y-12256571D01*
X328333Y-12256571D02*
X337857Y-12275619D01*
X337857Y-12275619D02*
X347381Y-12313714D01*
X347381Y-12313714D02*
X347381Y-12361333D01*
X347381Y-12361333D02*
X337857Y-12399428D01*
X337857Y-12399428D02*
X328333Y-12418476D01*
X328333Y-12418476D02*
X318810Y-12428000D01*
X318810Y-12428000D02*
X299762Y-12437524D01*
X299762Y-12437524D02*
X280714Y-12437524D01*
X280714Y-12437524D02*
X261667Y-12428000D01*
X261667Y-12428000D02*
X252143Y-12418476D01*
X252143Y-12418476D02*
X242619Y-12399428D01*
X242619Y-12399428D02*
X233095Y-12361333D01*
X233095Y-12361333D02*
X233095Y-12313714D01*
X233095Y-12313714D02*
X242619Y-12275619D01*
X242619Y-12275619D02*
X252143Y-12256571D01*
X252143Y-12256571D02*
X261667Y-12247048D01*
X261667Y-12247048D02*
X280714Y-12237524D01*
X433095Y-12418476D02*
X442619Y-12428000D01*
X442619Y-12428000D02*
X433095Y-12437524D01*
X433095Y-12437524D02*
X423571Y-12428000D01*
X423571Y-12428000D02*
X433095Y-12418476D01*
X433095Y-12418476D02*
X433095Y-12437524D01*
X623571Y-12237524D02*
X528333Y-12237524D01*
X528333Y-12237524D02*
X518809Y-12332762D01*
X518809Y-12332762D02*
X528333Y-12323238D01*
X528333Y-12323238D02*
X547381Y-12313714D01*
X547381Y-12313714D02*
X595000Y-12313714D01*
X595000Y-12313714D02*
X614048Y-12323238D01*
X614048Y-12323238D02*
X623571Y-12332762D01*
X623571Y-12332762D02*
X633095Y-12351809D01*
X633095Y-12351809D02*
X633095Y-12399428D01*
X633095Y-12399428D02*
X623571Y-12418476D01*
X623571Y-12418476D02*
X614048Y-12428000D01*
X614048Y-12428000D02*
X595000Y-12437524D01*
X595000Y-12437524D02*
X547381Y-12437524D01*
X547381Y-12437524D02*
X528333Y-12428000D01*
X528333Y-12428000D02*
X518809Y-12418476D01*
X756905Y-12237524D02*
X775952Y-12237524D01*
X775952Y-12237524D02*
X795000Y-12247048D01*
X795000Y-12247048D02*
X804524Y-12256571D01*
X804524Y-12256571D02*
X814048Y-12275619D01*
X814048Y-12275619D02*
X823571Y-12313714D01*
X823571Y-12313714D02*
X823571Y-12361333D01*
X823571Y-12361333D02*
X814048Y-12399428D01*
X814048Y-12399428D02*
X804524Y-12418476D01*
X804524Y-12418476D02*
X795000Y-12428000D01*
X795000Y-12428000D02*
X775952Y-12437524D01*
X775952Y-12437524D02*
X756905Y-12437524D01*
X756905Y-12437524D02*
X737857Y-12428000D01*
X737857Y-12428000D02*
X728333Y-12418476D01*
X728333Y-12418476D02*
X718809Y-12399428D01*
X718809Y-12399428D02*
X709286Y-12361333D01*
X709286Y-12361333D02*
X709286Y-12313714D01*
X709286Y-12313714D02*
X718809Y-12275619D01*
X718809Y-12275619D02*
X728333Y-12256571D01*
X728333Y-12256571D02*
X737857Y-12247048D01*
X737857Y-12247048D02*
X756905Y-12237524D01*
X947381Y-12237524D02*
X966429Y-12237524D01*
X966429Y-12237524D02*
X985476Y-12247048D01*
X985476Y-12247048D02*
X995000Y-12256571D01*
X995000Y-12256571D02*
X1004524Y-12275619D01*
X1004524Y-12275619D02*
X1014048Y-12313714D01*
X1014048Y-12313714D02*
X1014048Y-12361333D01*
X1014048Y-12361333D02*
X1004524Y-12399428D01*
X1004524Y-12399428D02*
X995000Y-12418476D01*
X995000Y-12418476D02*
X985476Y-12428000D01*
X985476Y-12428000D02*
X966429Y-12437524D01*
X966429Y-12437524D02*
X947381Y-12437524D01*
X947381Y-12437524D02*
X928333Y-12428000D01*
X928333Y-12428000D02*
X918809Y-12418476D01*
X918809Y-12418476D02*
X909286Y-12399428D01*
X909286Y-12399428D02*
X899762Y-12361333D01*
X899762Y-12361333D02*
X899762Y-12313714D01*
X899762Y-12313714D02*
X909286Y-12275619D01*
X909286Y-12275619D02*
X918809Y-12256571D01*
X918809Y-12256571D02*
X928333Y-12247048D01*
X928333Y-12247048D02*
X947381Y-12237524D01*
X1099762Y-12437524D02*
X1099762Y-12304190D01*
X1099762Y-12323238D02*
X1109286Y-12313714D01*
X1109286Y-12313714D02*
X1128333Y-12304190D01*
X1128333Y-12304190D02*
X1156905Y-12304190D01*
X1156905Y-12304190D02*
X1175952Y-12313714D01*
X1175952Y-12313714D02*
X1185476Y-12332762D01*
X1185476Y-12332762D02*
X1185476Y-12437524D01*
X1185476Y-12332762D02*
X1195000Y-12313714D01*
X1195000Y-12313714D02*
X1214048Y-12304190D01*
X1214048Y-12304190D02*
X1242619Y-12304190D01*
X1242619Y-12304190D02*
X1261667Y-12313714D01*
X1261667Y-12313714D02*
X1271191Y-12332762D01*
X1271191Y-12332762D02*
X1271191Y-12437524D01*
X1366429Y-12437524D02*
X1366429Y-12304190D01*
X1366429Y-12323238D02*
X1375952Y-12313714D01*
X1375952Y-12313714D02*
X1395000Y-12304190D01*
X1395000Y-12304190D02*
X1423571Y-12304190D01*
X1423571Y-12304190D02*
X1442619Y-12313714D01*
X1442619Y-12313714D02*
X1452143Y-12332762D01*
X1452143Y-12332762D02*
X1452143Y-12437524D01*
X1452143Y-12332762D02*
X1461667Y-12313714D01*
X1461667Y-12313714D02*
X1480714Y-12304190D01*
X1480714Y-12304190D02*
X1509286Y-12304190D01*
X1509286Y-12304190D02*
X1528333Y-12313714D01*
X1528333Y-12313714D02*
X1537857Y-12332762D01*
X1537857Y-12332762D02*
X1537857Y-12437524D01*
X1928333Y-12228000D02*
X1756905Y-12485143D01*
X2185476Y-12237524D02*
X2204524Y-12237524D01*
X2204524Y-12237524D02*
X2223572Y-12247048D01*
X2223572Y-12247048D02*
X2233095Y-12256571D01*
X2233095Y-12256571D02*
X2242619Y-12275619D01*
X2242619Y-12275619D02*
X2252143Y-12313714D01*
X2252143Y-12313714D02*
X2252143Y-12361333D01*
X2252143Y-12361333D02*
X2242619Y-12399428D01*
X2242619Y-12399428D02*
X2233095Y-12418476D01*
X2233095Y-12418476D02*
X2223572Y-12428000D01*
X2223572Y-12428000D02*
X2204524Y-12437524D01*
X2204524Y-12437524D02*
X2185476Y-12437524D01*
X2185476Y-12437524D02*
X2166429Y-12428000D01*
X2166429Y-12428000D02*
X2156905Y-12418476D01*
X2156905Y-12418476D02*
X2147381Y-12399428D01*
X2147381Y-12399428D02*
X2137857Y-12361333D01*
X2137857Y-12361333D02*
X2137857Y-12313714D01*
X2137857Y-12313714D02*
X2147381Y-12275619D01*
X2147381Y-12275619D02*
X2156905Y-12256571D01*
X2156905Y-12256571D02*
X2166429Y-12247048D01*
X2166429Y-12247048D02*
X2185476Y-12237524D01*
X2337857Y-12418476D02*
X2347381Y-12428000D01*
X2347381Y-12428000D02*
X2337857Y-12437524D01*
X2337857Y-12437524D02*
X2328334Y-12428000D01*
X2328334Y-12428000D02*
X2337857Y-12418476D01*
X2337857Y-12418476D02*
X2337857Y-12437524D01*
X2471191Y-12237524D02*
X2490238Y-12237524D01*
X2490238Y-12237524D02*
X2509286Y-12247048D01*
X2509286Y-12247048D02*
X2518810Y-12256571D01*
X2518810Y-12256571D02*
X2528334Y-12275619D01*
X2528334Y-12275619D02*
X2537857Y-12313714D01*
X2537857Y-12313714D02*
X2537857Y-12361333D01*
X2537857Y-12361333D02*
X2528334Y-12399428D01*
X2528334Y-12399428D02*
X2518810Y-12418476D01*
X2518810Y-12418476D02*
X2509286Y-12428000D01*
X2509286Y-12428000D02*
X2490238Y-12437524D01*
X2490238Y-12437524D02*
X2471191Y-12437524D01*
X2471191Y-12437524D02*
X2452143Y-12428000D01*
X2452143Y-12428000D02*
X2442619Y-12418476D01*
X2442619Y-12418476D02*
X2433095Y-12399428D01*
X2433095Y-12399428D02*
X2423572Y-12361333D01*
X2423572Y-12361333D02*
X2423572Y-12313714D01*
X2423572Y-12313714D02*
X2433095Y-12275619D01*
X2433095Y-12275619D02*
X2442619Y-12256571D01*
X2442619Y-12256571D02*
X2452143Y-12247048D01*
X2452143Y-12247048D02*
X2471191Y-12237524D01*
X2728334Y-12437524D02*
X2614048Y-12437524D01*
X2671191Y-12437524D02*
X2671191Y-12237524D01*
X2671191Y-12237524D02*
X2652143Y-12266095D01*
X2652143Y-12266095D02*
X2633095Y-12285143D01*
X2633095Y-12285143D02*
X2614048Y-12294667D01*
X2823572Y-12437524D02*
X2861667Y-12437524D01*
X2861667Y-12437524D02*
X2880714Y-12428000D01*
X2880714Y-12428000D02*
X2890238Y-12418476D01*
X2890238Y-12418476D02*
X2909286Y-12389905D01*
X2909286Y-12389905D02*
X2918810Y-12351809D01*
X2918810Y-12351809D02*
X2918810Y-12275619D01*
X2918810Y-12275619D02*
X2909286Y-12256571D01*
X2909286Y-12256571D02*
X2899762Y-12247048D01*
X2899762Y-12247048D02*
X2880714Y-12237524D01*
X2880714Y-12237524D02*
X2842619Y-12237524D01*
X2842619Y-12237524D02*
X2823572Y-12247048D01*
X2823572Y-12247048D02*
X2814048Y-12256571D01*
X2814048Y-12256571D02*
X2804524Y-12275619D01*
X2804524Y-12275619D02*
X2804524Y-12323238D01*
X2804524Y-12323238D02*
X2814048Y-12342286D01*
X2814048Y-12342286D02*
X2823572Y-12351809D01*
X2823572Y-12351809D02*
X2842619Y-12361333D01*
X2842619Y-12361333D02*
X2880714Y-12361333D01*
X2880714Y-12361333D02*
X2899762Y-12351809D01*
X2899762Y-12351809D02*
X2909286Y-12342286D01*
X2909286Y-12342286D02*
X2918810Y-12323238D01*
X2985476Y-12237524D02*
X3118810Y-12237524D01*
X3118810Y-12237524D02*
X3033095Y-12437524D01*
X3185476Y-12237524D02*
X3185476Y-12275619D01*
X3261667Y-12237524D02*
X3261667Y-12275619D01*
X3556905Y-12513714D02*
X3547381Y-12504190D01*
X3547381Y-12504190D02*
X3528334Y-12475619D01*
X3528334Y-12475619D02*
X3518810Y-12456571D01*
X3518810Y-12456571D02*
X3509286Y-12428000D01*
X3509286Y-12428000D02*
X3499762Y-12380381D01*
X3499762Y-12380381D02*
X3499762Y-12342286D01*
X3499762Y-12342286D02*
X3509286Y-12294667D01*
X3509286Y-12294667D02*
X3518810Y-12266095D01*
X3518810Y-12266095D02*
X3528334Y-12247048D01*
X3528334Y-12247048D02*
X3547381Y-12218476D01*
X3547381Y-12218476D02*
X3556905Y-12208952D01*
X3737857Y-12437524D02*
X3623572Y-12437524D01*
X3680714Y-12437524D02*
X3680714Y-12237524D01*
X3680714Y-12237524D02*
X3661667Y-12266095D01*
X3661667Y-12266095D02*
X3642619Y-12285143D01*
X3642619Y-12285143D02*
X3623572Y-12294667D01*
X3918810Y-12237524D02*
X3823572Y-12237524D01*
X3823572Y-12237524D02*
X3814048Y-12332762D01*
X3814048Y-12332762D02*
X3823572Y-12323238D01*
X3823572Y-12323238D02*
X3842619Y-12313714D01*
X3842619Y-12313714D02*
X3890238Y-12313714D01*
X3890238Y-12313714D02*
X3909286Y-12323238D01*
X3909286Y-12323238D02*
X3918810Y-12332762D01*
X3918810Y-12332762D02*
X3928334Y-12351809D01*
X3928334Y-12351809D02*
X3928334Y-12399428D01*
X3928334Y-12399428D02*
X3918810Y-12418476D01*
X3918810Y-12418476D02*
X3909286Y-12428000D01*
X3909286Y-12428000D02*
X3890238Y-12437524D01*
X3890238Y-12437524D02*
X3842619Y-12437524D01*
X3842619Y-12437524D02*
X3823572Y-12428000D01*
X3823572Y-12428000D02*
X3814048Y-12418476D01*
X4166429Y-12437524D02*
X4166429Y-12237524D01*
X4252143Y-12437524D02*
X4252143Y-12332762D01*
X4252143Y-12332762D02*
X4242619Y-12313714D01*
X4242619Y-12313714D02*
X4223572Y-12304190D01*
X4223572Y-12304190D02*
X4195000Y-12304190D01*
X4195000Y-12304190D02*
X4175953Y-12313714D01*
X4175953Y-12313714D02*
X4166429Y-12323238D01*
X4375953Y-12437524D02*
X4356905Y-12428000D01*
X4356905Y-12428000D02*
X4347381Y-12418476D01*
X4347381Y-12418476D02*
X4337858Y-12399428D01*
X4337858Y-12399428D02*
X4337858Y-12342286D01*
X4337858Y-12342286D02*
X4347381Y-12323238D01*
X4347381Y-12323238D02*
X4356905Y-12313714D01*
X4356905Y-12313714D02*
X4375953Y-12304190D01*
X4375953Y-12304190D02*
X4404524Y-12304190D01*
X4404524Y-12304190D02*
X4423572Y-12313714D01*
X4423572Y-12313714D02*
X4433096Y-12323238D01*
X4433096Y-12323238D02*
X4442619Y-12342286D01*
X4442619Y-12342286D02*
X4442619Y-12399428D01*
X4442619Y-12399428D02*
X4433096Y-12418476D01*
X4433096Y-12418476D02*
X4423572Y-12428000D01*
X4423572Y-12428000D02*
X4404524Y-12437524D01*
X4404524Y-12437524D02*
X4375953Y-12437524D01*
X4556905Y-12437524D02*
X4537858Y-12428000D01*
X4537858Y-12428000D02*
X4528334Y-12408952D01*
X4528334Y-12408952D02*
X4528334Y-12237524D01*
X4709286Y-12428000D02*
X4690239Y-12437524D01*
X4690239Y-12437524D02*
X4652143Y-12437524D01*
X4652143Y-12437524D02*
X4633096Y-12428000D01*
X4633096Y-12428000D02*
X4623572Y-12408952D01*
X4623572Y-12408952D02*
X4623572Y-12332762D01*
X4623572Y-12332762D02*
X4633096Y-12313714D01*
X4633096Y-12313714D02*
X4652143Y-12304190D01*
X4652143Y-12304190D02*
X4690239Y-12304190D01*
X4690239Y-12304190D02*
X4709286Y-12313714D01*
X4709286Y-12313714D02*
X4718810Y-12332762D01*
X4718810Y-12332762D02*
X4718810Y-12351809D01*
X4718810Y-12351809D02*
X4623572Y-12370857D01*
X4795000Y-12428000D02*
X4814048Y-12437524D01*
X4814048Y-12437524D02*
X4852143Y-12437524D01*
X4852143Y-12437524D02*
X4871191Y-12428000D01*
X4871191Y-12428000D02*
X4880715Y-12408952D01*
X4880715Y-12408952D02*
X4880715Y-12399428D01*
X4880715Y-12399428D02*
X4871191Y-12380381D01*
X4871191Y-12380381D02*
X4852143Y-12370857D01*
X4852143Y-12370857D02*
X4823572Y-12370857D01*
X4823572Y-12370857D02*
X4804524Y-12361333D01*
X4804524Y-12361333D02*
X4795000Y-12342286D01*
X4795000Y-12342286D02*
X4795000Y-12332762D01*
X4795000Y-12332762D02*
X4804524Y-12313714D01*
X4804524Y-12313714D02*
X4823572Y-12304190D01*
X4823572Y-12304190D02*
X4852143Y-12304190D01*
X4852143Y-12304190D02*
X4871191Y-12313714D01*
X4947381Y-12513714D02*
X4956905Y-12504190D01*
X4956905Y-12504190D02*
X4975953Y-12475619D01*
X4975953Y-12475619D02*
X4985477Y-12456571D01*
X4985477Y-12456571D02*
X4995000Y-12428000D01*
X4995000Y-12428000D02*
X5004524Y-12380381D01*
X5004524Y-12380381D02*
X5004524Y-12342286D01*
X5004524Y-12342286D02*
X4995000Y-12294667D01*
X4995000Y-12294667D02*
X4985477Y-12266095D01*
X4985477Y-12266095D02*
X4975953Y-12247048D01*
X4975953Y-12247048D02*
X4956905Y-12218476D01*
X4956905Y-12218476D02*
X4947381Y-12208952D01*
D10*
X-5000Y-12609000D02*
G75*
G03*
X-5000Y-12609000I-50000J0D01*
G01*
D11*
X347381Y-12701524D02*
X233095Y-12701524D01*
X290238Y-12701524D02*
X290238Y-12501524D01*
X290238Y-12501524D02*
X271190Y-12530095D01*
X271190Y-12530095D02*
X252143Y-12549143D01*
X252143Y-12549143D02*
X233095Y-12558667D01*
X433095Y-12682476D02*
X442619Y-12692000D01*
X442619Y-12692000D02*
X433095Y-12701524D01*
X433095Y-12701524D02*
X423571Y-12692000D01*
X423571Y-12692000D02*
X433095Y-12682476D01*
X433095Y-12682476D02*
X433095Y-12701524D01*
X566429Y-12501524D02*
X585476Y-12501524D01*
X585476Y-12501524D02*
X604524Y-12511048D01*
X604524Y-12511048D02*
X614048Y-12520571D01*
X614048Y-12520571D02*
X623571Y-12539619D01*
X623571Y-12539619D02*
X633095Y-12577714D01*
X633095Y-12577714D02*
X633095Y-12625333D01*
X633095Y-12625333D02*
X623571Y-12663428D01*
X623571Y-12663428D02*
X614048Y-12682476D01*
X614048Y-12682476D02*
X604524Y-12692000D01*
X604524Y-12692000D02*
X585476Y-12701524D01*
X585476Y-12701524D02*
X566429Y-12701524D01*
X566429Y-12701524D02*
X547381Y-12692000D01*
X547381Y-12692000D02*
X537857Y-12682476D01*
X537857Y-12682476D02*
X528333Y-12663428D01*
X528333Y-12663428D02*
X518809Y-12625333D01*
X518809Y-12625333D02*
X518809Y-12577714D01*
X518809Y-12577714D02*
X528333Y-12539619D01*
X528333Y-12539619D02*
X537857Y-12520571D01*
X537857Y-12520571D02*
X547381Y-12511048D01*
X547381Y-12511048D02*
X566429Y-12501524D01*
X756905Y-12501524D02*
X775952Y-12501524D01*
X775952Y-12501524D02*
X795000Y-12511048D01*
X795000Y-12511048D02*
X804524Y-12520571D01*
X804524Y-12520571D02*
X814048Y-12539619D01*
X814048Y-12539619D02*
X823571Y-12577714D01*
X823571Y-12577714D02*
X823571Y-12625333D01*
X823571Y-12625333D02*
X814048Y-12663428D01*
X814048Y-12663428D02*
X804524Y-12682476D01*
X804524Y-12682476D02*
X795000Y-12692000D01*
X795000Y-12692000D02*
X775952Y-12701524D01*
X775952Y-12701524D02*
X756905Y-12701524D01*
X756905Y-12701524D02*
X737857Y-12692000D01*
X737857Y-12692000D02*
X728333Y-12682476D01*
X728333Y-12682476D02*
X718809Y-12663428D01*
X718809Y-12663428D02*
X709286Y-12625333D01*
X709286Y-12625333D02*
X709286Y-12577714D01*
X709286Y-12577714D02*
X718809Y-12539619D01*
X718809Y-12539619D02*
X728333Y-12520571D01*
X728333Y-12520571D02*
X737857Y-12511048D01*
X737857Y-12511048D02*
X756905Y-12501524D01*
X947381Y-12501524D02*
X966429Y-12501524D01*
X966429Y-12501524D02*
X985476Y-12511048D01*
X985476Y-12511048D02*
X995000Y-12520571D01*
X995000Y-12520571D02*
X1004524Y-12539619D01*
X1004524Y-12539619D02*
X1014048Y-12577714D01*
X1014048Y-12577714D02*
X1014048Y-12625333D01*
X1014048Y-12625333D02*
X1004524Y-12663428D01*
X1004524Y-12663428D02*
X995000Y-12682476D01*
X995000Y-12682476D02*
X985476Y-12692000D01*
X985476Y-12692000D02*
X966429Y-12701524D01*
X966429Y-12701524D02*
X947381Y-12701524D01*
X947381Y-12701524D02*
X928333Y-12692000D01*
X928333Y-12692000D02*
X918809Y-12682476D01*
X918809Y-12682476D02*
X909286Y-12663428D01*
X909286Y-12663428D02*
X899762Y-12625333D01*
X899762Y-12625333D02*
X899762Y-12577714D01*
X899762Y-12577714D02*
X909286Y-12539619D01*
X909286Y-12539619D02*
X918809Y-12520571D01*
X918809Y-12520571D02*
X928333Y-12511048D01*
X928333Y-12511048D02*
X947381Y-12501524D01*
X1099762Y-12701524D02*
X1099762Y-12568190D01*
X1099762Y-12587238D02*
X1109286Y-12577714D01*
X1109286Y-12577714D02*
X1128333Y-12568190D01*
X1128333Y-12568190D02*
X1156905Y-12568190D01*
X1156905Y-12568190D02*
X1175952Y-12577714D01*
X1175952Y-12577714D02*
X1185476Y-12596762D01*
X1185476Y-12596762D02*
X1185476Y-12701524D01*
X1185476Y-12596762D02*
X1195000Y-12577714D01*
X1195000Y-12577714D02*
X1214048Y-12568190D01*
X1214048Y-12568190D02*
X1242619Y-12568190D01*
X1242619Y-12568190D02*
X1261667Y-12577714D01*
X1261667Y-12577714D02*
X1271191Y-12596762D01*
X1271191Y-12596762D02*
X1271191Y-12701524D01*
X1366429Y-12701524D02*
X1366429Y-12568190D01*
X1366429Y-12587238D02*
X1375952Y-12577714D01*
X1375952Y-12577714D02*
X1395000Y-12568190D01*
X1395000Y-12568190D02*
X1423571Y-12568190D01*
X1423571Y-12568190D02*
X1442619Y-12577714D01*
X1442619Y-12577714D02*
X1452143Y-12596762D01*
X1452143Y-12596762D02*
X1452143Y-12701524D01*
X1452143Y-12596762D02*
X1461667Y-12577714D01*
X1461667Y-12577714D02*
X1480714Y-12568190D01*
X1480714Y-12568190D02*
X1509286Y-12568190D01*
X1509286Y-12568190D02*
X1528333Y-12577714D01*
X1528333Y-12577714D02*
X1537857Y-12596762D01*
X1537857Y-12596762D02*
X1537857Y-12701524D01*
X1928333Y-12492000D02*
X1756905Y-12749143D01*
X2185476Y-12501524D02*
X2204524Y-12501524D01*
X2204524Y-12501524D02*
X2223572Y-12511048D01*
X2223572Y-12511048D02*
X2233095Y-12520571D01*
X2233095Y-12520571D02*
X2242619Y-12539619D01*
X2242619Y-12539619D02*
X2252143Y-12577714D01*
X2252143Y-12577714D02*
X2252143Y-12625333D01*
X2252143Y-12625333D02*
X2242619Y-12663428D01*
X2242619Y-12663428D02*
X2233095Y-12682476D01*
X2233095Y-12682476D02*
X2223572Y-12692000D01*
X2223572Y-12692000D02*
X2204524Y-12701524D01*
X2204524Y-12701524D02*
X2185476Y-12701524D01*
X2185476Y-12701524D02*
X2166429Y-12692000D01*
X2166429Y-12692000D02*
X2156905Y-12682476D01*
X2156905Y-12682476D02*
X2147381Y-12663428D01*
X2147381Y-12663428D02*
X2137857Y-12625333D01*
X2137857Y-12625333D02*
X2137857Y-12577714D01*
X2137857Y-12577714D02*
X2147381Y-12539619D01*
X2147381Y-12539619D02*
X2156905Y-12520571D01*
X2156905Y-12520571D02*
X2166429Y-12511048D01*
X2166429Y-12511048D02*
X2185476Y-12501524D01*
X2337857Y-12682476D02*
X2347381Y-12692000D01*
X2347381Y-12692000D02*
X2337857Y-12701524D01*
X2337857Y-12701524D02*
X2328334Y-12692000D01*
X2328334Y-12692000D02*
X2337857Y-12682476D01*
X2337857Y-12682476D02*
X2337857Y-12701524D01*
X2471191Y-12501524D02*
X2490238Y-12501524D01*
X2490238Y-12501524D02*
X2509286Y-12511048D01*
X2509286Y-12511048D02*
X2518810Y-12520571D01*
X2518810Y-12520571D02*
X2528334Y-12539619D01*
X2528334Y-12539619D02*
X2537857Y-12577714D01*
X2537857Y-12577714D02*
X2537857Y-12625333D01*
X2537857Y-12625333D02*
X2528334Y-12663428D01*
X2528334Y-12663428D02*
X2518810Y-12682476D01*
X2518810Y-12682476D02*
X2509286Y-12692000D01*
X2509286Y-12692000D02*
X2490238Y-12701524D01*
X2490238Y-12701524D02*
X2471191Y-12701524D01*
X2471191Y-12701524D02*
X2452143Y-12692000D01*
X2452143Y-12692000D02*
X2442619Y-12682476D01*
X2442619Y-12682476D02*
X2433095Y-12663428D01*
X2433095Y-12663428D02*
X2423572Y-12625333D01*
X2423572Y-12625333D02*
X2423572Y-12577714D01*
X2423572Y-12577714D02*
X2433095Y-12539619D01*
X2433095Y-12539619D02*
X2442619Y-12520571D01*
X2442619Y-12520571D02*
X2452143Y-12511048D01*
X2452143Y-12511048D02*
X2471191Y-12501524D01*
X2604524Y-12501524D02*
X2728334Y-12501524D01*
X2728334Y-12501524D02*
X2661667Y-12577714D01*
X2661667Y-12577714D02*
X2690238Y-12577714D01*
X2690238Y-12577714D02*
X2709286Y-12587238D01*
X2709286Y-12587238D02*
X2718810Y-12596762D01*
X2718810Y-12596762D02*
X2728334Y-12615809D01*
X2728334Y-12615809D02*
X2728334Y-12663428D01*
X2728334Y-12663428D02*
X2718810Y-12682476D01*
X2718810Y-12682476D02*
X2709286Y-12692000D01*
X2709286Y-12692000D02*
X2690238Y-12701524D01*
X2690238Y-12701524D02*
X2633095Y-12701524D01*
X2633095Y-12701524D02*
X2614048Y-12692000D01*
X2614048Y-12692000D02*
X2604524Y-12682476D01*
X2823572Y-12701524D02*
X2861667Y-12701524D01*
X2861667Y-12701524D02*
X2880714Y-12692000D01*
X2880714Y-12692000D02*
X2890238Y-12682476D01*
X2890238Y-12682476D02*
X2909286Y-12653905D01*
X2909286Y-12653905D02*
X2918810Y-12615809D01*
X2918810Y-12615809D02*
X2918810Y-12539619D01*
X2918810Y-12539619D02*
X2909286Y-12520571D01*
X2909286Y-12520571D02*
X2899762Y-12511048D01*
X2899762Y-12511048D02*
X2880714Y-12501524D01*
X2880714Y-12501524D02*
X2842619Y-12501524D01*
X2842619Y-12501524D02*
X2823572Y-12511048D01*
X2823572Y-12511048D02*
X2814048Y-12520571D01*
X2814048Y-12520571D02*
X2804524Y-12539619D01*
X2804524Y-12539619D02*
X2804524Y-12587238D01*
X2804524Y-12587238D02*
X2814048Y-12606286D01*
X2814048Y-12606286D02*
X2823572Y-12615809D01*
X2823572Y-12615809D02*
X2842619Y-12625333D01*
X2842619Y-12625333D02*
X2880714Y-12625333D01*
X2880714Y-12625333D02*
X2899762Y-12615809D01*
X2899762Y-12615809D02*
X2909286Y-12606286D01*
X2909286Y-12606286D02*
X2918810Y-12587238D01*
X3090238Y-12568190D02*
X3090238Y-12701524D01*
X3042619Y-12492000D02*
X2995000Y-12634857D01*
X2995000Y-12634857D02*
X3118810Y-12634857D01*
X3185476Y-12501524D02*
X3185476Y-12539619D01*
X3261667Y-12501524D02*
X3261667Y-12539619D01*
X3556905Y-12777714D02*
X3547381Y-12768190D01*
X3547381Y-12768190D02*
X3528334Y-12739619D01*
X3528334Y-12739619D02*
X3518810Y-12720571D01*
X3518810Y-12720571D02*
X3509286Y-12692000D01*
X3509286Y-12692000D02*
X3499762Y-12644381D01*
X3499762Y-12644381D02*
X3499762Y-12606286D01*
X3499762Y-12606286D02*
X3509286Y-12558667D01*
X3509286Y-12558667D02*
X3518810Y-12530095D01*
X3518810Y-12530095D02*
X3528334Y-12511048D01*
X3528334Y-12511048D02*
X3547381Y-12482476D01*
X3547381Y-12482476D02*
X3556905Y-12472952D01*
X3623572Y-12520571D02*
X3633095Y-12511048D01*
X3633095Y-12511048D02*
X3652143Y-12501524D01*
X3652143Y-12501524D02*
X3699762Y-12501524D01*
X3699762Y-12501524D02*
X3718810Y-12511048D01*
X3718810Y-12511048D02*
X3728334Y-12520571D01*
X3728334Y-12520571D02*
X3737857Y-12539619D01*
X3737857Y-12539619D02*
X3737857Y-12558667D01*
X3737857Y-12558667D02*
X3728334Y-12587238D01*
X3728334Y-12587238D02*
X3614048Y-12701524D01*
X3614048Y-12701524D02*
X3737857Y-12701524D01*
X3909286Y-12568190D02*
X3909286Y-12701524D01*
X3861667Y-12492000D02*
X3814048Y-12634857D01*
X3814048Y-12634857D02*
X3937857Y-12634857D01*
X4166429Y-12701524D02*
X4166429Y-12501524D01*
X4252143Y-12701524D02*
X4252143Y-12596762D01*
X4252143Y-12596762D02*
X4242619Y-12577714D01*
X4242619Y-12577714D02*
X4223572Y-12568190D01*
X4223572Y-12568190D02*
X4195000Y-12568190D01*
X4195000Y-12568190D02*
X4175953Y-12577714D01*
X4175953Y-12577714D02*
X4166429Y-12587238D01*
X4375953Y-12701524D02*
X4356905Y-12692000D01*
X4356905Y-12692000D02*
X4347381Y-12682476D01*
X4347381Y-12682476D02*
X4337858Y-12663428D01*
X4337858Y-12663428D02*
X4337858Y-12606286D01*
X4337858Y-12606286D02*
X4347381Y-12587238D01*
X4347381Y-12587238D02*
X4356905Y-12577714D01*
X4356905Y-12577714D02*
X4375953Y-12568190D01*
X4375953Y-12568190D02*
X4404524Y-12568190D01*
X4404524Y-12568190D02*
X4423572Y-12577714D01*
X4423572Y-12577714D02*
X4433096Y-12587238D01*
X4433096Y-12587238D02*
X4442619Y-12606286D01*
X4442619Y-12606286D02*
X4442619Y-12663428D01*
X4442619Y-12663428D02*
X4433096Y-12682476D01*
X4433096Y-12682476D02*
X4423572Y-12692000D01*
X4423572Y-12692000D02*
X4404524Y-12701524D01*
X4404524Y-12701524D02*
X4375953Y-12701524D01*
X4556905Y-12701524D02*
X4537858Y-12692000D01*
X4537858Y-12692000D02*
X4528334Y-12672952D01*
X4528334Y-12672952D02*
X4528334Y-12501524D01*
X4709286Y-12692000D02*
X4690239Y-12701524D01*
X4690239Y-12701524D02*
X4652143Y-12701524D01*
X4652143Y-12701524D02*
X4633096Y-12692000D01*
X4633096Y-12692000D02*
X4623572Y-12672952D01*
X4623572Y-12672952D02*
X4623572Y-12596762D01*
X4623572Y-12596762D02*
X4633096Y-12577714D01*
X4633096Y-12577714D02*
X4652143Y-12568190D01*
X4652143Y-12568190D02*
X4690239Y-12568190D01*
X4690239Y-12568190D02*
X4709286Y-12577714D01*
X4709286Y-12577714D02*
X4718810Y-12596762D01*
X4718810Y-12596762D02*
X4718810Y-12615809D01*
X4718810Y-12615809D02*
X4623572Y-12634857D01*
X4795000Y-12692000D02*
X4814048Y-12701524D01*
X4814048Y-12701524D02*
X4852143Y-12701524D01*
X4852143Y-12701524D02*
X4871191Y-12692000D01*
X4871191Y-12692000D02*
X4880715Y-12672952D01*
X4880715Y-12672952D02*
X4880715Y-12663428D01*
X4880715Y-12663428D02*
X4871191Y-12644381D01*
X4871191Y-12644381D02*
X4852143Y-12634857D01*
X4852143Y-12634857D02*
X4823572Y-12634857D01*
X4823572Y-12634857D02*
X4804524Y-12625333D01*
X4804524Y-12625333D02*
X4795000Y-12606286D01*
X4795000Y-12606286D02*
X4795000Y-12596762D01*
X4795000Y-12596762D02*
X4804524Y-12577714D01*
X4804524Y-12577714D02*
X4823572Y-12568190D01*
X4823572Y-12568190D02*
X4852143Y-12568190D01*
X4852143Y-12568190D02*
X4871191Y-12577714D01*
X4947381Y-12777714D02*
X4956905Y-12768190D01*
X4956905Y-12768190D02*
X4975953Y-12739619D01*
X4975953Y-12739619D02*
X4985477Y-12720571D01*
X4985477Y-12720571D02*
X4995000Y-12692000D01*
X4995000Y-12692000D02*
X5004524Y-12644381D01*
X5004524Y-12644381D02*
X5004524Y-12606286D01*
X5004524Y-12606286D02*
X4995000Y-12558667D01*
X4995000Y-12558667D02*
X4985477Y-12530095D01*
X4985477Y-12530095D02*
X4975953Y-12511048D01*
X4975953Y-12511048D02*
X4956905Y-12482476D01*
X4956905Y-12482476D02*
X4947381Y-12472952D01*
D13*
X-80000Y-12798000D02*
X-80000Y-12948000D01*
X-155000Y-12873000D02*
X-5000Y-12873000D01*
D11*
X347381Y-12965524D02*
X233095Y-12965524D01*
X290238Y-12965524D02*
X290238Y-12765524D01*
X290238Y-12765524D02*
X271190Y-12794095D01*
X271190Y-12794095D02*
X252143Y-12813143D01*
X252143Y-12813143D02*
X233095Y-12822667D01*
X433095Y-12946476D02*
X442619Y-12956000D01*
X442619Y-12956000D02*
X433095Y-12965524D01*
X433095Y-12965524D02*
X423571Y-12956000D01*
X423571Y-12956000D02*
X433095Y-12946476D01*
X433095Y-12946476D02*
X433095Y-12965524D01*
X623571Y-12765524D02*
X528333Y-12765524D01*
X528333Y-12765524D02*
X518809Y-12860762D01*
X518809Y-12860762D02*
X528333Y-12851238D01*
X528333Y-12851238D02*
X547381Y-12841714D01*
X547381Y-12841714D02*
X595000Y-12841714D01*
X595000Y-12841714D02*
X614048Y-12851238D01*
X614048Y-12851238D02*
X623571Y-12860762D01*
X623571Y-12860762D02*
X633095Y-12879809D01*
X633095Y-12879809D02*
X633095Y-12927428D01*
X633095Y-12927428D02*
X623571Y-12946476D01*
X623571Y-12946476D02*
X614048Y-12956000D01*
X614048Y-12956000D02*
X595000Y-12965524D01*
X595000Y-12965524D02*
X547381Y-12965524D01*
X547381Y-12965524D02*
X528333Y-12956000D01*
X528333Y-12956000D02*
X518809Y-12946476D01*
X756905Y-12765524D02*
X775952Y-12765524D01*
X775952Y-12765524D02*
X795000Y-12775048D01*
X795000Y-12775048D02*
X804524Y-12784571D01*
X804524Y-12784571D02*
X814048Y-12803619D01*
X814048Y-12803619D02*
X823571Y-12841714D01*
X823571Y-12841714D02*
X823571Y-12889333D01*
X823571Y-12889333D02*
X814048Y-12927428D01*
X814048Y-12927428D02*
X804524Y-12946476D01*
X804524Y-12946476D02*
X795000Y-12956000D01*
X795000Y-12956000D02*
X775952Y-12965524D01*
X775952Y-12965524D02*
X756905Y-12965524D01*
X756905Y-12965524D02*
X737857Y-12956000D01*
X737857Y-12956000D02*
X728333Y-12946476D01*
X728333Y-12946476D02*
X718809Y-12927428D01*
X718809Y-12927428D02*
X709286Y-12889333D01*
X709286Y-12889333D02*
X709286Y-12841714D01*
X709286Y-12841714D02*
X718809Y-12803619D01*
X718809Y-12803619D02*
X728333Y-12784571D01*
X728333Y-12784571D02*
X737857Y-12775048D01*
X737857Y-12775048D02*
X756905Y-12765524D01*
X947381Y-12765524D02*
X966429Y-12765524D01*
X966429Y-12765524D02*
X985476Y-12775048D01*
X985476Y-12775048D02*
X995000Y-12784571D01*
X995000Y-12784571D02*
X1004524Y-12803619D01*
X1004524Y-12803619D02*
X1014048Y-12841714D01*
X1014048Y-12841714D02*
X1014048Y-12889333D01*
X1014048Y-12889333D02*
X1004524Y-12927428D01*
X1004524Y-12927428D02*
X995000Y-12946476D01*
X995000Y-12946476D02*
X985476Y-12956000D01*
X985476Y-12956000D02*
X966429Y-12965524D01*
X966429Y-12965524D02*
X947381Y-12965524D01*
X947381Y-12965524D02*
X928333Y-12956000D01*
X928333Y-12956000D02*
X918809Y-12946476D01*
X918809Y-12946476D02*
X909286Y-12927428D01*
X909286Y-12927428D02*
X899762Y-12889333D01*
X899762Y-12889333D02*
X899762Y-12841714D01*
X899762Y-12841714D02*
X909286Y-12803619D01*
X909286Y-12803619D02*
X918809Y-12784571D01*
X918809Y-12784571D02*
X928333Y-12775048D01*
X928333Y-12775048D02*
X947381Y-12765524D01*
X1099762Y-12965524D02*
X1099762Y-12832190D01*
X1099762Y-12851238D02*
X1109286Y-12841714D01*
X1109286Y-12841714D02*
X1128333Y-12832190D01*
X1128333Y-12832190D02*
X1156905Y-12832190D01*
X1156905Y-12832190D02*
X1175952Y-12841714D01*
X1175952Y-12841714D02*
X1185476Y-12860762D01*
X1185476Y-12860762D02*
X1185476Y-12965524D01*
X1185476Y-12860762D02*
X1195000Y-12841714D01*
X1195000Y-12841714D02*
X1214048Y-12832190D01*
X1214048Y-12832190D02*
X1242619Y-12832190D01*
X1242619Y-12832190D02*
X1261667Y-12841714D01*
X1261667Y-12841714D02*
X1271191Y-12860762D01*
X1271191Y-12860762D02*
X1271191Y-12965524D01*
X1366429Y-12965524D02*
X1366429Y-12832190D01*
X1366429Y-12851238D02*
X1375952Y-12841714D01*
X1375952Y-12841714D02*
X1395000Y-12832190D01*
X1395000Y-12832190D02*
X1423571Y-12832190D01*
X1423571Y-12832190D02*
X1442619Y-12841714D01*
X1442619Y-12841714D02*
X1452143Y-12860762D01*
X1452143Y-12860762D02*
X1452143Y-12965524D01*
X1452143Y-12860762D02*
X1461667Y-12841714D01*
X1461667Y-12841714D02*
X1480714Y-12832190D01*
X1480714Y-12832190D02*
X1509286Y-12832190D01*
X1509286Y-12832190D02*
X1528333Y-12841714D01*
X1528333Y-12841714D02*
X1537857Y-12860762D01*
X1537857Y-12860762D02*
X1537857Y-12965524D01*
X1928333Y-12756000D02*
X1756905Y-13013143D01*
X2185476Y-12765524D02*
X2204524Y-12765524D01*
X2204524Y-12765524D02*
X2223572Y-12775048D01*
X2223572Y-12775048D02*
X2233095Y-12784571D01*
X2233095Y-12784571D02*
X2242619Y-12803619D01*
X2242619Y-12803619D02*
X2252143Y-12841714D01*
X2252143Y-12841714D02*
X2252143Y-12889333D01*
X2252143Y-12889333D02*
X2242619Y-12927428D01*
X2242619Y-12927428D02*
X2233095Y-12946476D01*
X2233095Y-12946476D02*
X2223572Y-12956000D01*
X2223572Y-12956000D02*
X2204524Y-12965524D01*
X2204524Y-12965524D02*
X2185476Y-12965524D01*
X2185476Y-12965524D02*
X2166429Y-12956000D01*
X2166429Y-12956000D02*
X2156905Y-12946476D01*
X2156905Y-12946476D02*
X2147381Y-12927428D01*
X2147381Y-12927428D02*
X2137857Y-12889333D01*
X2137857Y-12889333D02*
X2137857Y-12841714D01*
X2137857Y-12841714D02*
X2147381Y-12803619D01*
X2147381Y-12803619D02*
X2156905Y-12784571D01*
X2156905Y-12784571D02*
X2166429Y-12775048D01*
X2166429Y-12775048D02*
X2185476Y-12765524D01*
X2337857Y-12946476D02*
X2347381Y-12956000D01*
X2347381Y-12956000D02*
X2337857Y-12965524D01*
X2337857Y-12965524D02*
X2328334Y-12956000D01*
X2328334Y-12956000D02*
X2337857Y-12946476D01*
X2337857Y-12946476D02*
X2337857Y-12965524D01*
X2471191Y-12765524D02*
X2490238Y-12765524D01*
X2490238Y-12765524D02*
X2509286Y-12775048D01*
X2509286Y-12775048D02*
X2518810Y-12784571D01*
X2518810Y-12784571D02*
X2528334Y-12803619D01*
X2528334Y-12803619D02*
X2537857Y-12841714D01*
X2537857Y-12841714D02*
X2537857Y-12889333D01*
X2537857Y-12889333D02*
X2528334Y-12927428D01*
X2528334Y-12927428D02*
X2518810Y-12946476D01*
X2518810Y-12946476D02*
X2509286Y-12956000D01*
X2509286Y-12956000D02*
X2490238Y-12965524D01*
X2490238Y-12965524D02*
X2471191Y-12965524D01*
X2471191Y-12965524D02*
X2452143Y-12956000D01*
X2452143Y-12956000D02*
X2442619Y-12946476D01*
X2442619Y-12946476D02*
X2433095Y-12927428D01*
X2433095Y-12927428D02*
X2423572Y-12889333D01*
X2423572Y-12889333D02*
X2423572Y-12841714D01*
X2423572Y-12841714D02*
X2433095Y-12803619D01*
X2433095Y-12803619D02*
X2442619Y-12784571D01*
X2442619Y-12784571D02*
X2452143Y-12775048D01*
X2452143Y-12775048D02*
X2471191Y-12765524D01*
X2718810Y-12765524D02*
X2623572Y-12765524D01*
X2623572Y-12765524D02*
X2614048Y-12860762D01*
X2614048Y-12860762D02*
X2623572Y-12851238D01*
X2623572Y-12851238D02*
X2642619Y-12841714D01*
X2642619Y-12841714D02*
X2690238Y-12841714D01*
X2690238Y-12841714D02*
X2709286Y-12851238D01*
X2709286Y-12851238D02*
X2718810Y-12860762D01*
X2718810Y-12860762D02*
X2728334Y-12879809D01*
X2728334Y-12879809D02*
X2728334Y-12927428D01*
X2728334Y-12927428D02*
X2718810Y-12946476D01*
X2718810Y-12946476D02*
X2709286Y-12956000D01*
X2709286Y-12956000D02*
X2690238Y-12965524D01*
X2690238Y-12965524D02*
X2642619Y-12965524D01*
X2642619Y-12965524D02*
X2623572Y-12956000D01*
X2623572Y-12956000D02*
X2614048Y-12946476D01*
X2823572Y-12965524D02*
X2861667Y-12965524D01*
X2861667Y-12965524D02*
X2880714Y-12956000D01*
X2880714Y-12956000D02*
X2890238Y-12946476D01*
X2890238Y-12946476D02*
X2909286Y-12917905D01*
X2909286Y-12917905D02*
X2918810Y-12879809D01*
X2918810Y-12879809D02*
X2918810Y-12803619D01*
X2918810Y-12803619D02*
X2909286Y-12784571D01*
X2909286Y-12784571D02*
X2899762Y-12775048D01*
X2899762Y-12775048D02*
X2880714Y-12765524D01*
X2880714Y-12765524D02*
X2842619Y-12765524D01*
X2842619Y-12765524D02*
X2823572Y-12775048D01*
X2823572Y-12775048D02*
X2814048Y-12784571D01*
X2814048Y-12784571D02*
X2804524Y-12803619D01*
X2804524Y-12803619D02*
X2804524Y-12851238D01*
X2804524Y-12851238D02*
X2814048Y-12870286D01*
X2814048Y-12870286D02*
X2823572Y-12879809D01*
X2823572Y-12879809D02*
X2842619Y-12889333D01*
X2842619Y-12889333D02*
X2880714Y-12889333D01*
X2880714Y-12889333D02*
X2899762Y-12879809D01*
X2899762Y-12879809D02*
X2909286Y-12870286D01*
X2909286Y-12870286D02*
X2918810Y-12851238D01*
X3109286Y-12965524D02*
X2995000Y-12965524D01*
X3052143Y-12965524D02*
X3052143Y-12765524D01*
X3052143Y-12765524D02*
X3033095Y-12794095D01*
X3033095Y-12794095D02*
X3014048Y-12813143D01*
X3014048Y-12813143D02*
X2995000Y-12822667D01*
X3185476Y-12765524D02*
X3185476Y-12803619D01*
X3261667Y-12765524D02*
X3261667Y-12803619D01*
X3556905Y-13041714D02*
X3547381Y-13032190D01*
X3547381Y-13032190D02*
X3528334Y-13003619D01*
X3528334Y-13003619D02*
X3518810Y-12984571D01*
X3518810Y-12984571D02*
X3509286Y-12956000D01*
X3509286Y-12956000D02*
X3499762Y-12908381D01*
X3499762Y-12908381D02*
X3499762Y-12870286D01*
X3499762Y-12870286D02*
X3509286Y-12822667D01*
X3509286Y-12822667D02*
X3518810Y-12794095D01*
X3518810Y-12794095D02*
X3528334Y-12775048D01*
X3528334Y-12775048D02*
X3547381Y-12746476D01*
X3547381Y-12746476D02*
X3556905Y-12736952D01*
X3737857Y-12965524D02*
X3623572Y-12965524D01*
X3680714Y-12965524D02*
X3680714Y-12765524D01*
X3680714Y-12765524D02*
X3661667Y-12794095D01*
X3661667Y-12794095D02*
X3642619Y-12813143D01*
X3642619Y-12813143D02*
X3623572Y-12822667D01*
X3928334Y-12965524D02*
X3814048Y-12965524D01*
X3871191Y-12965524D02*
X3871191Y-12765524D01*
X3871191Y-12765524D02*
X3852143Y-12794095D01*
X3852143Y-12794095D02*
X3833095Y-12813143D01*
X3833095Y-12813143D02*
X3814048Y-12822667D01*
X4042619Y-12851238D02*
X4023572Y-12841714D01*
X4023572Y-12841714D02*
X4014048Y-12832190D01*
X4014048Y-12832190D02*
X4004524Y-12813143D01*
X4004524Y-12813143D02*
X4004524Y-12803619D01*
X4004524Y-12803619D02*
X4014048Y-12784571D01*
X4014048Y-12784571D02*
X4023572Y-12775048D01*
X4023572Y-12775048D02*
X4042619Y-12765524D01*
X4042619Y-12765524D02*
X4080715Y-12765524D01*
X4080715Y-12765524D02*
X4099762Y-12775048D01*
X4099762Y-12775048D02*
X4109286Y-12784571D01*
X4109286Y-12784571D02*
X4118810Y-12803619D01*
X4118810Y-12803619D02*
X4118810Y-12813143D01*
X4118810Y-12813143D02*
X4109286Y-12832190D01*
X4109286Y-12832190D02*
X4099762Y-12841714D01*
X4099762Y-12841714D02*
X4080715Y-12851238D01*
X4080715Y-12851238D02*
X4042619Y-12851238D01*
X4042619Y-12851238D02*
X4023572Y-12860762D01*
X4023572Y-12860762D02*
X4014048Y-12870286D01*
X4014048Y-12870286D02*
X4004524Y-12889333D01*
X4004524Y-12889333D02*
X4004524Y-12927428D01*
X4004524Y-12927428D02*
X4014048Y-12946476D01*
X4014048Y-12946476D02*
X4023572Y-12956000D01*
X4023572Y-12956000D02*
X4042619Y-12965524D01*
X4042619Y-12965524D02*
X4080715Y-12965524D01*
X4080715Y-12965524D02*
X4099762Y-12956000D01*
X4099762Y-12956000D02*
X4109286Y-12946476D01*
X4109286Y-12946476D02*
X4118810Y-12927428D01*
X4118810Y-12927428D02*
X4118810Y-12889333D01*
X4118810Y-12889333D02*
X4109286Y-12870286D01*
X4109286Y-12870286D02*
X4099762Y-12860762D01*
X4099762Y-12860762D02*
X4080715Y-12851238D01*
X4356905Y-12965524D02*
X4356905Y-12765524D01*
X4442619Y-12965524D02*
X4442619Y-12860762D01*
X4442619Y-12860762D02*
X4433096Y-12841714D01*
X4433096Y-12841714D02*
X4414048Y-12832190D01*
X4414048Y-12832190D02*
X4385477Y-12832190D01*
X4385477Y-12832190D02*
X4366429Y-12841714D01*
X4366429Y-12841714D02*
X4356905Y-12851238D01*
X4566429Y-12965524D02*
X4547381Y-12956000D01*
X4547381Y-12956000D02*
X4537858Y-12946476D01*
X4537858Y-12946476D02*
X4528334Y-12927428D01*
X4528334Y-12927428D02*
X4528334Y-12870286D01*
X4528334Y-12870286D02*
X4537858Y-12851238D01*
X4537858Y-12851238D02*
X4547381Y-12841714D01*
X4547381Y-12841714D02*
X4566429Y-12832190D01*
X4566429Y-12832190D02*
X4595000Y-12832190D01*
X4595000Y-12832190D02*
X4614048Y-12841714D01*
X4614048Y-12841714D02*
X4623572Y-12851238D01*
X4623572Y-12851238D02*
X4633096Y-12870286D01*
X4633096Y-12870286D02*
X4633096Y-12927428D01*
X4633096Y-12927428D02*
X4623572Y-12946476D01*
X4623572Y-12946476D02*
X4614048Y-12956000D01*
X4614048Y-12956000D02*
X4595000Y-12965524D01*
X4595000Y-12965524D02*
X4566429Y-12965524D01*
X4747381Y-12965524D02*
X4728334Y-12956000D01*
X4728334Y-12956000D02*
X4718810Y-12936952D01*
X4718810Y-12936952D02*
X4718810Y-12765524D01*
X4899762Y-12956000D02*
X4880715Y-12965524D01*
X4880715Y-12965524D02*
X4842619Y-12965524D01*
X4842619Y-12965524D02*
X4823572Y-12956000D01*
X4823572Y-12956000D02*
X4814048Y-12936952D01*
X4814048Y-12936952D02*
X4814048Y-12860762D01*
X4814048Y-12860762D02*
X4823572Y-12841714D01*
X4823572Y-12841714D02*
X4842619Y-12832190D01*
X4842619Y-12832190D02*
X4880715Y-12832190D01*
X4880715Y-12832190D02*
X4899762Y-12841714D01*
X4899762Y-12841714D02*
X4909286Y-12860762D01*
X4909286Y-12860762D02*
X4909286Y-12879809D01*
X4909286Y-12879809D02*
X4814048Y-12898857D01*
X4985477Y-12956000D02*
X5004524Y-12965524D01*
X5004524Y-12965524D02*
X5042619Y-12965524D01*
X5042619Y-12965524D02*
X5061667Y-12956000D01*
X5061667Y-12956000D02*
X5071191Y-12936952D01*
X5071191Y-12936952D02*
X5071191Y-12927428D01*
X5071191Y-12927428D02*
X5061667Y-12908381D01*
X5061667Y-12908381D02*
X5042619Y-12898857D01*
X5042619Y-12898857D02*
X5014048Y-12898857D01*
X5014048Y-12898857D02*
X4995000Y-12889333D01*
X4995000Y-12889333D02*
X4985477Y-12870286D01*
X4985477Y-12870286D02*
X4985477Y-12860762D01*
X4985477Y-12860762D02*
X4995000Y-12841714D01*
X4995000Y-12841714D02*
X5014048Y-12832190D01*
X5014048Y-12832190D02*
X5042619Y-12832190D01*
X5042619Y-12832190D02*
X5061667Y-12841714D01*
X5137858Y-13041714D02*
X5147381Y-13032190D01*
X5147381Y-13032190D02*
X5166429Y-13003619D01*
X5166429Y-13003619D02*
X5175953Y-12984571D01*
X5175953Y-12984571D02*
X5185477Y-12956000D01*
X5185477Y-12956000D02*
X5195000Y-12908381D01*
X5195000Y-12908381D02*
X5195000Y-12870286D01*
X5195000Y-12870286D02*
X5185477Y-12822667D01*
X5185477Y-12822667D02*
X5175953Y-12794095D01*
X5175953Y-12794095D02*
X5166429Y-12775048D01*
X5166429Y-12775048D02*
X5147381Y-12746476D01*
X5147381Y-12746476D02*
X5137858Y-12736952D01*
M02*
