M48
; DRILL file {KiCad 7.0.1} date Thu Oct 19 22:58:36 2023
; FORMAT={-:-/ absolute / metric / decimal}
; #@! TF.CreationDate,2023-10-19T22:58:36+03:00
; #@! TF.GenerationSoftware,Kicad,Pcbnew,7.0.1
; #@! TF.FileFunction,NonPlated,1,2,NPTH
FMAT,2
METRIC
; #@! TA.AperFunction,NonPlated,NPTH,ComponentDrill
T1C1.700
; #@! TA.AperFunction,NonPlated,NPTH,ComponentDrill
T2C3.050
; #@! TA.AperFunction,NonPlated,NPTH,ComponentDrill
T3C3.200
; #@! TA.AperFunction,NonPlated,NPTH,ComponentDrill
T4C4.000
%
G90
G05
T1
X12.373Y-23.38
X17.135Y-42.43
X17.135Y-80.53
X21.898Y-61.48
X22.533Y-23.38
X24.279Y-99.58
X27.295Y-42.43
X27.295Y-80.53
X31.423Y-23.38
X32.058Y-61.48
X34.439Y-99.58
X40.948Y-42.43
X40.948Y-80.53
X41.583Y-23.38
X50.473Y-23.38
X50.473Y-61.48
X51.108Y-42.43
X51.108Y-80.53
X59.998Y-42.43
X59.998Y-80.53
X60.633Y-23.38
X60.633Y-61.48
X64.76Y-99.58
X69.523Y-23.38
X69.523Y-61.48
X70.158Y-42.43
X70.158Y-80.53
X74.92Y-99.58
X79.048Y-42.43
X79.048Y-80.53
X79.683Y-23.38
X79.683Y-61.48
X88.573Y-23.38
X88.573Y-61.48
X89.208Y-42.43
X89.208Y-80.53
X98.098Y-42.43
X98.098Y-80.53
X98.733Y-23.38
X98.733Y-61.48
X107.623Y-23.38
X107.623Y-61.48
X108.258Y-42.43
X108.258Y-80.53
X117.148Y-42.43
X117.148Y-80.53
X117.783Y-23.38
X117.783Y-61.48
X126.673Y-23.38
X126.673Y-61.48
X127.308Y-42.43
X127.308Y-80.53
X136.198Y-42.43
X136.198Y-80.53
X136.833Y-23.38
X136.833Y-61.48
X143.342Y-99.58
X145.723Y-23.38
X145.723Y-61.48
X146.358Y-42.43
X146.358Y-80.53
X153.502Y-99.58
X155.248Y-42.43
X155.248Y-80.53
X155.883Y-23.38
X155.883Y-61.48
X164.773Y-23.38
X164.773Y-61.48
X165.408Y-42.43
X165.408Y-80.53
X174.298Y-42.43
X174.298Y-80.53
X174.933Y-23.38
X174.933Y-61.48
X183.823Y-23.38
X183.823Y-61.48
X184.458Y-42.43
X184.458Y-80.53
X193.348Y-42.43
X193.348Y-80.53
X193.983Y-23.38
X193.983Y-61.48
X202.873Y-23.38
X202.873Y-61.48
X203.508Y-42.43
X203.508Y-80.53
X212.398Y-42.43
X212.398Y-80.53
X212.398Y-99.58
X213.033Y-23.38
X213.033Y-61.48
X221.923Y-61.48
X222.558Y-42.43
X222.558Y-80.53
X222.558Y-99.58
X224.304Y-23.38
X231.448Y-80.53
X231.448Y-99.58
X232.083Y-61.48
X234.464Y-23.38
X236.21Y-42.43
X240.973Y-61.48
X241.608Y-80.53
X241.608Y-99.58
X246.37Y-42.43
X250.498Y-99.58
X251.133Y-61.48
X257.642Y-23.38
X260.023Y-80.53
X260.658Y-99.58
X264.785Y-42.43
X264.785Y-61.48
X267.802Y-23.38
X269.548Y-99.58
X270.183Y-80.53
X274.945Y-42.43
X274.945Y-61.48
X279.708Y-99.58
T2
X15.078Y-54.48
X17.459Y-92.58
X38.878Y-54.48
X41.259Y-92.58
X57.94Y-92.58
X81.74Y-92.58
X98.422Y-92.58
X198.422Y-92.58
X250.822Y-16.38
X253.203Y-73.53
X274.622Y-16.38
X277.003Y-73.53
T3
X3.441Y-13.46
X3.441Y-109.96
X106.638Y-8.7
X106.638Y-113.259
X186.628Y-8.7
X186.628Y-113.259
X289.493Y-13.46
X289.493Y-109.96
T4
X15.078Y-69.72
X17.453Y-23.38
X17.459Y-107.82
X22.215Y-42.43
X22.215Y-80.53
X26.978Y-61.48
X29.359Y-99.58
X36.503Y-23.38
X38.878Y-69.72
X41.259Y-107.82
X46.028Y-42.43
X46.028Y-80.53
X55.553Y-23.38
X55.553Y-61.48
X57.94Y-107.82
X65.078Y-42.43
X65.078Y-80.53
X69.84Y-99.58
X74.603Y-23.38
X74.603Y-61.48
X81.74Y-107.82
X84.128Y-42.43
X84.128Y-80.53
X93.653Y-23.38
X93.653Y-61.48
X98.422Y-107.82
X103.178Y-42.43
X103.178Y-80.53
X112.703Y-23.38
X112.703Y-61.48
X122.228Y-42.43
X122.228Y-80.53
X131.753Y-23.38
X131.753Y-61.48
X141.278Y-42.43
X141.278Y-80.53
X148.422Y-99.58
X150.803Y-23.38
X150.803Y-61.48
X160.328Y-42.43
X160.328Y-80.53
X169.853Y-23.38
X169.853Y-61.48
X179.378Y-42.43
X179.378Y-80.53
X188.903Y-23.38
X188.903Y-61.48
X198.422Y-107.82
X198.428Y-42.43
X198.428Y-80.53
X207.953Y-23.38
X207.953Y-61.48
X217.478Y-42.43
X217.478Y-80.53
X217.478Y-99.58
X227.003Y-61.48
X229.384Y-23.38
X236.528Y-80.53
X236.528Y-99.58
X241.29Y-42.43
X246.053Y-61.48
X250.822Y-31.62
X253.203Y-88.77
X255.578Y-99.58
X262.722Y-23.38
X265.103Y-80.53
X269.865Y-42.43
X269.865Y-61.48
X274.622Y-31.62
X274.628Y-99.58
X277.003Y-88.77
T0
M30
