%TF.GenerationSoftware,KiCad,Pcbnew,7.0.1*%
%TF.CreationDate,2023-10-19T22:58:37+03:00*%
%TF.ProjectId,keyboard_cherry,6b657962-6f61-4726-945f-636865727279,rev?*%
%TF.SameCoordinates,Original*%
%TF.FileFunction,Drillmap*%
%TF.FilePolarity,Positive*%
%FSLAX45Y45*%
G04 Gerber Fmt 4.5, Leading zero omitted, Abs format (unit mm)*
G04 Created by KiCad (PCBNEW 7.0.1) date 2023-10-19 22:58:37*
%MOMM*%
%LPD*%
G01*
G04 APERTURE LIST*
%ADD10C,0.100000*%
%ADD11C,0.200000*%
%ADD12C,0.170000*%
%ADD13C,0.305000*%
%ADD14C,0.320000*%
%ADD15C,0.400000*%
G04 APERTURE END LIST*
D10*
X0Y0D02*
X29310000Y0D01*
X29310000Y-11700000D01*
X0Y-11700000D01*
X0Y0D01*
D11*
D12*
X1152290Y-2253000D02*
X1322290Y-2423000D01*
X1322290Y-2253000D02*
X1152290Y-2423000D01*
X1628540Y-4158000D02*
X1798540Y-4328000D01*
X1798540Y-4158000D02*
X1628540Y-4328000D01*
X1628540Y-7968000D02*
X1798540Y-8138000D01*
X1798540Y-7968000D02*
X1628540Y-8138000D01*
X2104790Y-6063000D02*
X2274790Y-6233000D01*
X2274790Y-6063000D02*
X2104790Y-6233000D01*
X2168290Y-2253000D02*
X2338290Y-2423000D01*
X2338290Y-2253000D02*
X2168290Y-2423000D01*
X2342920Y-9873000D02*
X2512920Y-10043000D01*
X2512920Y-9873000D02*
X2342920Y-10043000D01*
X2644540Y-4158000D02*
X2814540Y-4328000D01*
X2814540Y-4158000D02*
X2644540Y-4328000D01*
X2644540Y-7968000D02*
X2814540Y-8138000D01*
X2814540Y-7968000D02*
X2644540Y-8138000D01*
X3057290Y-2253000D02*
X3227290Y-2423000D01*
X3227290Y-2253000D02*
X3057290Y-2423000D01*
X3120790Y-6063000D02*
X3290790Y-6233000D01*
X3290790Y-6063000D02*
X3120790Y-6233000D01*
X3358920Y-9873000D02*
X3528920Y-10043000D01*
X3528920Y-9873000D02*
X3358920Y-10043000D01*
X4009790Y-4158000D02*
X4179790Y-4328000D01*
X4179790Y-4158000D02*
X4009790Y-4328000D01*
X4009790Y-7968000D02*
X4179790Y-8138000D01*
X4179790Y-7968000D02*
X4009790Y-8138000D01*
X4073290Y-2253000D02*
X4243290Y-2423000D01*
X4243290Y-2253000D02*
X4073290Y-2423000D01*
X4962290Y-2253000D02*
X5132290Y-2423000D01*
X5132290Y-2253000D02*
X4962290Y-2423000D01*
X4962290Y-6063000D02*
X5132290Y-6233000D01*
X5132290Y-6063000D02*
X4962290Y-6233000D01*
X5025790Y-4158000D02*
X5195790Y-4328000D01*
X5195790Y-4158000D02*
X5025790Y-4328000D01*
X5025790Y-7968000D02*
X5195790Y-8138000D01*
X5195790Y-7968000D02*
X5025790Y-8138000D01*
X5914790Y-4158000D02*
X6084790Y-4328000D01*
X6084790Y-4158000D02*
X5914790Y-4328000D01*
X5914790Y-7968000D02*
X6084790Y-8138000D01*
X6084790Y-7968000D02*
X5914790Y-8138000D01*
X5978290Y-2253000D02*
X6148290Y-2423000D01*
X6148290Y-2253000D02*
X5978290Y-2423000D01*
X5978290Y-6063000D02*
X6148290Y-6233000D01*
X6148290Y-6063000D02*
X5978290Y-6233000D01*
X6391040Y-9873000D02*
X6561040Y-10043000D01*
X6561040Y-9873000D02*
X6391040Y-10043000D01*
X6867290Y-2253000D02*
X7037290Y-2423000D01*
X7037290Y-2253000D02*
X6867290Y-2423000D01*
X6867290Y-6063000D02*
X7037290Y-6233000D01*
X7037290Y-6063000D02*
X6867290Y-6233000D01*
X6930790Y-4158000D02*
X7100790Y-4328000D01*
X7100790Y-4158000D02*
X6930790Y-4328000D01*
X6930790Y-7968000D02*
X7100790Y-8138000D01*
X7100790Y-7968000D02*
X6930790Y-8138000D01*
X7407040Y-9873000D02*
X7577040Y-10043000D01*
X7577040Y-9873000D02*
X7407040Y-10043000D01*
X7819790Y-4158000D02*
X7989790Y-4328000D01*
X7989790Y-4158000D02*
X7819790Y-4328000D01*
X7819790Y-7968000D02*
X7989790Y-8138000D01*
X7989790Y-7968000D02*
X7819790Y-8138000D01*
X7883290Y-2253000D02*
X8053290Y-2423000D01*
X8053290Y-2253000D02*
X7883290Y-2423000D01*
X7883290Y-6063000D02*
X8053290Y-6233000D01*
X8053290Y-6063000D02*
X7883290Y-6233000D01*
X8772290Y-2253000D02*
X8942290Y-2423000D01*
X8942290Y-2253000D02*
X8772290Y-2423000D01*
X8772290Y-6063000D02*
X8942290Y-6233000D01*
X8942290Y-6063000D02*
X8772290Y-6233000D01*
X8835790Y-4158000D02*
X9005790Y-4328000D01*
X9005790Y-4158000D02*
X8835790Y-4328000D01*
X8835790Y-7968000D02*
X9005790Y-8138000D01*
X9005790Y-7968000D02*
X8835790Y-8138000D01*
X9724790Y-4158000D02*
X9894790Y-4328000D01*
X9894790Y-4158000D02*
X9724790Y-4328000D01*
X9724790Y-7968000D02*
X9894790Y-8138000D01*
X9894790Y-7968000D02*
X9724790Y-8138000D01*
X9788290Y-2253000D02*
X9958290Y-2423000D01*
X9958290Y-2253000D02*
X9788290Y-2423000D01*
X9788290Y-6063000D02*
X9958290Y-6233000D01*
X9958290Y-6063000D02*
X9788290Y-6233000D01*
X10677290Y-2253000D02*
X10847290Y-2423000D01*
X10847290Y-2253000D02*
X10677290Y-2423000D01*
X10677290Y-6063000D02*
X10847290Y-6233000D01*
X10847290Y-6063000D02*
X10677290Y-6233000D01*
X10740790Y-4158000D02*
X10910790Y-4328000D01*
X10910790Y-4158000D02*
X10740790Y-4328000D01*
X10740790Y-7968000D02*
X10910790Y-8138000D01*
X10910790Y-7968000D02*
X10740790Y-8138000D01*
X11629790Y-4158000D02*
X11799790Y-4328000D01*
X11799790Y-4158000D02*
X11629790Y-4328000D01*
X11629790Y-7968000D02*
X11799790Y-8138000D01*
X11799790Y-7968000D02*
X11629790Y-8138000D01*
X11693290Y-2253000D02*
X11863290Y-2423000D01*
X11863290Y-2253000D02*
X11693290Y-2423000D01*
X11693290Y-6063000D02*
X11863290Y-6233000D01*
X11863290Y-6063000D02*
X11693290Y-6233000D01*
X12582290Y-2253000D02*
X12752290Y-2423000D01*
X12752290Y-2253000D02*
X12582290Y-2423000D01*
X12582290Y-6063000D02*
X12752290Y-6233000D01*
X12752290Y-6063000D02*
X12582290Y-6233000D01*
X12645790Y-4158000D02*
X12815790Y-4328000D01*
X12815790Y-4158000D02*
X12645790Y-4328000D01*
X12645790Y-7968000D02*
X12815790Y-8138000D01*
X12815790Y-7968000D02*
X12645790Y-8138000D01*
X13534790Y-4158000D02*
X13704790Y-4328000D01*
X13704790Y-4158000D02*
X13534790Y-4328000D01*
X13534790Y-7968000D02*
X13704790Y-8138000D01*
X13704790Y-7968000D02*
X13534790Y-8138000D01*
X13598290Y-2253000D02*
X13768290Y-2423000D01*
X13768290Y-2253000D02*
X13598290Y-2423000D01*
X13598290Y-6063000D02*
X13768290Y-6233000D01*
X13768290Y-6063000D02*
X13598290Y-6233000D01*
X14249170Y-9873000D02*
X14419170Y-10043000D01*
X14419170Y-9873000D02*
X14249170Y-10043000D01*
X14487290Y-2253000D02*
X14657290Y-2423000D01*
X14657290Y-2253000D02*
X14487290Y-2423000D01*
X14487290Y-6063000D02*
X14657290Y-6233000D01*
X14657290Y-6063000D02*
X14487290Y-6233000D01*
X14550790Y-4158000D02*
X14720790Y-4328000D01*
X14720790Y-4158000D02*
X14550790Y-4328000D01*
X14550790Y-7968000D02*
X14720790Y-8138000D01*
X14720790Y-7968000D02*
X14550790Y-8138000D01*
X15265170Y-9873000D02*
X15435170Y-10043000D01*
X15435170Y-9873000D02*
X15265170Y-10043000D01*
X15439790Y-4158000D02*
X15609790Y-4328000D01*
X15609790Y-4158000D02*
X15439790Y-4328000D01*
X15439790Y-7968000D02*
X15609790Y-8138000D01*
X15609790Y-7968000D02*
X15439790Y-8138000D01*
X15503290Y-2253000D02*
X15673290Y-2423000D01*
X15673290Y-2253000D02*
X15503290Y-2423000D01*
X15503290Y-6063000D02*
X15673290Y-6233000D01*
X15673290Y-6063000D02*
X15503290Y-6233000D01*
X16392290Y-2253000D02*
X16562290Y-2423000D01*
X16562290Y-2253000D02*
X16392290Y-2423000D01*
X16392290Y-6063000D02*
X16562290Y-6233000D01*
X16562290Y-6063000D02*
X16392290Y-6233000D01*
X16455790Y-4158000D02*
X16625790Y-4328000D01*
X16625790Y-4158000D02*
X16455790Y-4328000D01*
X16455790Y-7968000D02*
X16625790Y-8138000D01*
X16625790Y-7968000D02*
X16455790Y-8138000D01*
X17344790Y-4158000D02*
X17514790Y-4328000D01*
X17514790Y-4158000D02*
X17344790Y-4328000D01*
X17344790Y-7968000D02*
X17514790Y-8138000D01*
X17514790Y-7968000D02*
X17344790Y-8138000D01*
X17408290Y-2253000D02*
X17578290Y-2423000D01*
X17578290Y-2253000D02*
X17408290Y-2423000D01*
X17408290Y-6063000D02*
X17578290Y-6233000D01*
X17578290Y-6063000D02*
X17408290Y-6233000D01*
X18297290Y-2253000D02*
X18467290Y-2423000D01*
X18467290Y-2253000D02*
X18297290Y-2423000D01*
X18297290Y-6063000D02*
X18467290Y-6233000D01*
X18467290Y-6063000D02*
X18297290Y-6233000D01*
X18360790Y-4158000D02*
X18530790Y-4328000D01*
X18530790Y-4158000D02*
X18360790Y-4328000D01*
X18360790Y-7968000D02*
X18530790Y-8138000D01*
X18530790Y-7968000D02*
X18360790Y-8138000D01*
X19249790Y-4158000D02*
X19419790Y-4328000D01*
X19419790Y-4158000D02*
X19249790Y-4328000D01*
X19249790Y-7968000D02*
X19419790Y-8138000D01*
X19419790Y-7968000D02*
X19249790Y-8138000D01*
X19313290Y-2253000D02*
X19483290Y-2423000D01*
X19483290Y-2253000D02*
X19313290Y-2423000D01*
X19313290Y-6063000D02*
X19483290Y-6233000D01*
X19483290Y-6063000D02*
X19313290Y-6233000D01*
X20202290Y-2253000D02*
X20372290Y-2423000D01*
X20372290Y-2253000D02*
X20202290Y-2423000D01*
X20202290Y-6063000D02*
X20372290Y-6233000D01*
X20372290Y-6063000D02*
X20202290Y-6233000D01*
X20265790Y-4158000D02*
X20435790Y-4328000D01*
X20435790Y-4158000D02*
X20265790Y-4328000D01*
X20265790Y-7968000D02*
X20435790Y-8138000D01*
X20435790Y-7968000D02*
X20265790Y-8138000D01*
X21154790Y-4158000D02*
X21324790Y-4328000D01*
X21324790Y-4158000D02*
X21154790Y-4328000D01*
X21154790Y-7968000D02*
X21324790Y-8138000D01*
X21324790Y-7968000D02*
X21154790Y-8138000D01*
X21154790Y-9873000D02*
X21324790Y-10043000D01*
X21324790Y-9873000D02*
X21154790Y-10043000D01*
X21218290Y-2253000D02*
X21388290Y-2423000D01*
X21388290Y-2253000D02*
X21218290Y-2423000D01*
X21218290Y-6063000D02*
X21388290Y-6233000D01*
X21388290Y-6063000D02*
X21218290Y-6233000D01*
X22107290Y-6063000D02*
X22277290Y-6233000D01*
X22277290Y-6063000D02*
X22107290Y-6233000D01*
X22170790Y-4158000D02*
X22340790Y-4328000D01*
X22340790Y-4158000D02*
X22170790Y-4328000D01*
X22170790Y-7968000D02*
X22340790Y-8138000D01*
X22340790Y-7968000D02*
X22170790Y-8138000D01*
X22170790Y-9873000D02*
X22340790Y-10043000D01*
X22340790Y-9873000D02*
X22170790Y-10043000D01*
X22345420Y-2253000D02*
X22515420Y-2423000D01*
X22515420Y-2253000D02*
X22345420Y-2423000D01*
X23059790Y-7968000D02*
X23229790Y-8138000D01*
X23229790Y-7968000D02*
X23059790Y-8138000D01*
X23059790Y-9873000D02*
X23229790Y-10043000D01*
X23229790Y-9873000D02*
X23059790Y-10043000D01*
X23123290Y-6063000D02*
X23293290Y-6233000D01*
X23293290Y-6063000D02*
X23123290Y-6233000D01*
X23361420Y-2253000D02*
X23531420Y-2423000D01*
X23531420Y-2253000D02*
X23361420Y-2423000D01*
X23536040Y-4158000D02*
X23706040Y-4328000D01*
X23706040Y-4158000D02*
X23536040Y-4328000D01*
X24012290Y-6063000D02*
X24182290Y-6233000D01*
X24182290Y-6063000D02*
X24012290Y-6233000D01*
X24075790Y-7968000D02*
X24245790Y-8138000D01*
X24245790Y-7968000D02*
X24075790Y-8138000D01*
X24075790Y-9873000D02*
X24245790Y-10043000D01*
X24245790Y-9873000D02*
X24075790Y-10043000D01*
X24552040Y-4158000D02*
X24722040Y-4328000D01*
X24722040Y-4158000D02*
X24552040Y-4328000D01*
X24964790Y-9873000D02*
X25134790Y-10043000D01*
X25134790Y-9873000D02*
X24964790Y-10043000D01*
X25028290Y-6063000D02*
X25198290Y-6233000D01*
X25198290Y-6063000D02*
X25028290Y-6233000D01*
X25679170Y-2253000D02*
X25849170Y-2423000D01*
X25849170Y-2253000D02*
X25679170Y-2423000D01*
X25917290Y-7968000D02*
X26087290Y-8138000D01*
X26087290Y-7968000D02*
X25917290Y-8138000D01*
X25980790Y-9873000D02*
X26150790Y-10043000D01*
X26150790Y-9873000D02*
X25980790Y-10043000D01*
X26393540Y-4158000D02*
X26563540Y-4328000D01*
X26563540Y-4158000D02*
X26393540Y-4328000D01*
X26393540Y-6063000D02*
X26563540Y-6233000D01*
X26563540Y-6063000D02*
X26393540Y-6233000D01*
X26695170Y-2253000D02*
X26865170Y-2423000D01*
X26865170Y-2253000D02*
X26695170Y-2423000D01*
X26869790Y-9873000D02*
X27039790Y-10043000D01*
X27039790Y-9873000D02*
X26869790Y-10043000D01*
X26933290Y-7968000D02*
X27103290Y-8138000D01*
X27103290Y-7968000D02*
X26933290Y-8138000D01*
X27409540Y-4158000D02*
X27579540Y-4328000D01*
X27579540Y-4158000D02*
X27409540Y-4328000D01*
X27409540Y-6063000D02*
X27579540Y-6233000D01*
X27579540Y-6063000D02*
X27409540Y-6233000D01*
X27885790Y-9873000D02*
X28055790Y-10043000D01*
X28055790Y-9873000D02*
X27885790Y-10043000D01*
D13*
X1660290Y-5448000D02*
G75*
G03*
X1660290Y-5448000I-152500J0D01*
G01*
X1898420Y-9258000D02*
G75*
G03*
X1898420Y-9258000I-152500J0D01*
G01*
X4040290Y-5448000D02*
G75*
G03*
X4040290Y-5448000I-152500J0D01*
G01*
X4278420Y-9258000D02*
G75*
G03*
X4278420Y-9258000I-152500J0D01*
G01*
X5946540Y-9258000D02*
G75*
G03*
X5946540Y-9258000I-152500J0D01*
G01*
X8326540Y-9258000D02*
G75*
G03*
X8326540Y-9258000I-152500J0D01*
G01*
X9994670Y-9258000D02*
G75*
G03*
X9994670Y-9258000I-152500J0D01*
G01*
X19994670Y-9258000D02*
G75*
G03*
X19994670Y-9258000I-152500J0D01*
G01*
X25234670Y-1638000D02*
G75*
G03*
X25234670Y-1638000I-152500J0D01*
G01*
X25472790Y-7353000D02*
G75*
G03*
X25472790Y-7353000I-152500J0D01*
G01*
X27614670Y-1638000D02*
G75*
G03*
X27614670Y-1638000I-152500J0D01*
G01*
X27852790Y-7353000D02*
G75*
G03*
X27852790Y-7353000I-152500J0D01*
G01*
D14*
X344080Y-1186020D02*
X344080Y-1506020D01*
X184080Y-1346020D02*
X504080Y-1346020D01*
X344080Y-10836020D02*
X344080Y-11156020D01*
X184080Y-10996020D02*
X504080Y-10996020D01*
X10663760Y-710020D02*
X10663760Y-1030020D01*
X10503760Y-870020D02*
X10823760Y-870020D01*
X10663760Y-11165910D02*
X10663760Y-11485910D01*
X10503760Y-11325910D02*
X10823760Y-11325910D01*
X18662800Y-710020D02*
X18662800Y-1030020D01*
X18502800Y-870020D02*
X18822800Y-870020D01*
X18662800Y-11165910D02*
X18662800Y-11485910D01*
X18502800Y-11325910D02*
X18822800Y-11325910D01*
X28949330Y-1186020D02*
X28949330Y-1506020D01*
X28789330Y-1346020D02*
X29109330Y-1346020D01*
X28949330Y-10836020D02*
X28949330Y-11156020D01*
X28789330Y-10996020D02*
X29109330Y-10996020D01*
D15*
X1649213Y-7113423D02*
X1649213Y-6830577D01*
X1366367Y-6830577D01*
X1366367Y-7113423D01*
X1649213Y-7113423D01*
X1886713Y-2479423D02*
X1886713Y-2196577D01*
X1603867Y-2196577D01*
X1603867Y-2479423D01*
X1886713Y-2479423D01*
X1887343Y-10923423D02*
X1887343Y-10640577D01*
X1604497Y-10640577D01*
X1604497Y-10923423D01*
X1887343Y-10923423D01*
X2362963Y-4384423D02*
X2362963Y-4101577D01*
X2080117Y-4101577D01*
X2080117Y-4384423D01*
X2362963Y-4384423D01*
X2362963Y-8194423D02*
X2362963Y-7911577D01*
X2080117Y-7911577D01*
X2080117Y-8194423D01*
X2362963Y-8194423D01*
X2839213Y-6289423D02*
X2839213Y-6006577D01*
X2556367Y-6006577D01*
X2556367Y-6289423D01*
X2839213Y-6289423D01*
X3077343Y-10099423D02*
X3077343Y-9816577D01*
X2794497Y-9816577D01*
X2794497Y-10099423D01*
X3077343Y-10099423D01*
X3791713Y-2479423D02*
X3791713Y-2196577D01*
X3508867Y-2196577D01*
X3508867Y-2479423D01*
X3791713Y-2479423D01*
X4029213Y-7113423D02*
X4029213Y-6830577D01*
X3746367Y-6830577D01*
X3746367Y-7113423D01*
X4029213Y-7113423D01*
X4267343Y-10923423D02*
X4267343Y-10640577D01*
X3984497Y-10640577D01*
X3984497Y-10923423D01*
X4267343Y-10923423D01*
X4744213Y-4384423D02*
X4744213Y-4101577D01*
X4461367Y-4101577D01*
X4461367Y-4384423D01*
X4744213Y-4384423D01*
X4744213Y-8194423D02*
X4744213Y-7911577D01*
X4461367Y-7911577D01*
X4461367Y-8194423D01*
X4744213Y-8194423D01*
X5696713Y-2479423D02*
X5696713Y-2196577D01*
X5413867Y-2196577D01*
X5413867Y-2479423D01*
X5696713Y-2479423D01*
X5696713Y-6289423D02*
X5696713Y-6006577D01*
X5413867Y-6006577D01*
X5413867Y-6289423D01*
X5696713Y-6289423D01*
X5935463Y-10923423D02*
X5935463Y-10640577D01*
X5652617Y-10640577D01*
X5652617Y-10923423D01*
X5935463Y-10923423D01*
X6649213Y-4384423D02*
X6649213Y-4101577D01*
X6366367Y-4101577D01*
X6366367Y-4384423D01*
X6649213Y-4384423D01*
X6649213Y-8194423D02*
X6649213Y-7911577D01*
X6366367Y-7911577D01*
X6366367Y-8194423D01*
X6649213Y-8194423D01*
X7125463Y-10099423D02*
X7125463Y-9816577D01*
X6842617Y-9816577D01*
X6842617Y-10099423D01*
X7125463Y-10099423D01*
X7601713Y-2479423D02*
X7601713Y-2196577D01*
X7318867Y-2196577D01*
X7318867Y-2479423D01*
X7601713Y-2479423D01*
X7601713Y-6289423D02*
X7601713Y-6006577D01*
X7318867Y-6006577D01*
X7318867Y-6289423D01*
X7601713Y-6289423D01*
X8315463Y-10923423D02*
X8315463Y-10640577D01*
X8032617Y-10640577D01*
X8032617Y-10923423D01*
X8315463Y-10923423D01*
X8554213Y-4384423D02*
X8554213Y-4101577D01*
X8271367Y-4101577D01*
X8271367Y-4384423D01*
X8554213Y-4384423D01*
X8554213Y-8194423D02*
X8554213Y-7911577D01*
X8271367Y-7911577D01*
X8271367Y-8194423D01*
X8554213Y-8194423D01*
X9506713Y-2479423D02*
X9506713Y-2196577D01*
X9223867Y-2196577D01*
X9223867Y-2479423D01*
X9506713Y-2479423D01*
X9506713Y-6289423D02*
X9506713Y-6006577D01*
X9223867Y-6006577D01*
X9223867Y-6289423D01*
X9506713Y-6289423D01*
X9983593Y-10923423D02*
X9983593Y-10640577D01*
X9700747Y-10640577D01*
X9700747Y-10923423D01*
X9983593Y-10923423D01*
X10459213Y-4384423D02*
X10459213Y-4101577D01*
X10176367Y-4101577D01*
X10176367Y-4384423D01*
X10459213Y-4384423D01*
X10459213Y-8194423D02*
X10459213Y-7911577D01*
X10176367Y-7911577D01*
X10176367Y-8194423D01*
X10459213Y-8194423D01*
X11411713Y-2479423D02*
X11411713Y-2196577D01*
X11128867Y-2196577D01*
X11128867Y-2479423D01*
X11411713Y-2479423D01*
X11411713Y-6289423D02*
X11411713Y-6006577D01*
X11128867Y-6006577D01*
X11128867Y-6289423D01*
X11411713Y-6289423D01*
X12364213Y-4384423D02*
X12364213Y-4101577D01*
X12081367Y-4101577D01*
X12081367Y-4384423D01*
X12364213Y-4384423D01*
X12364213Y-8194423D02*
X12364213Y-7911577D01*
X12081367Y-7911577D01*
X12081367Y-8194423D01*
X12364213Y-8194423D01*
X13316713Y-2479423D02*
X13316713Y-2196577D01*
X13033867Y-2196577D01*
X13033867Y-2479423D01*
X13316713Y-2479423D01*
X13316713Y-6289423D02*
X13316713Y-6006577D01*
X13033867Y-6006577D01*
X13033867Y-6289423D01*
X13316713Y-6289423D01*
X14269213Y-4384423D02*
X14269213Y-4101577D01*
X13986367Y-4101577D01*
X13986367Y-4384423D01*
X14269213Y-4384423D01*
X14269213Y-8194423D02*
X14269213Y-7911577D01*
X13986367Y-7911577D01*
X13986367Y-8194423D01*
X14269213Y-8194423D01*
X14983593Y-10099423D02*
X14983593Y-9816577D01*
X14700747Y-9816577D01*
X14700747Y-10099423D01*
X14983593Y-10099423D01*
X15221713Y-2479423D02*
X15221713Y-2196577D01*
X14938867Y-2196577D01*
X14938867Y-2479423D01*
X15221713Y-2479423D01*
X15221713Y-6289423D02*
X15221713Y-6006577D01*
X14938867Y-6006577D01*
X14938867Y-6289423D01*
X15221713Y-6289423D01*
X16174213Y-4384423D02*
X16174213Y-4101577D01*
X15891367Y-4101577D01*
X15891367Y-4384423D01*
X16174213Y-4384423D01*
X16174213Y-8194423D02*
X16174213Y-7911577D01*
X15891367Y-7911577D01*
X15891367Y-8194423D01*
X16174213Y-8194423D01*
X17126713Y-2479423D02*
X17126713Y-2196577D01*
X16843867Y-2196577D01*
X16843867Y-2479423D01*
X17126713Y-2479423D01*
X17126713Y-6289423D02*
X17126713Y-6006577D01*
X16843867Y-6006577D01*
X16843867Y-6289423D01*
X17126713Y-6289423D01*
X18079213Y-4384423D02*
X18079213Y-4101577D01*
X17796367Y-4101577D01*
X17796367Y-4384423D01*
X18079213Y-4384423D01*
X18079213Y-8194423D02*
X18079213Y-7911577D01*
X17796367Y-7911577D01*
X17796367Y-8194423D01*
X18079213Y-8194423D01*
X19031713Y-2479423D02*
X19031713Y-2196577D01*
X18748867Y-2196577D01*
X18748867Y-2479423D01*
X19031713Y-2479423D01*
X19031713Y-6289423D02*
X19031713Y-6006577D01*
X18748867Y-6006577D01*
X18748867Y-6289423D01*
X19031713Y-6289423D01*
X19983593Y-10923423D02*
X19983593Y-10640577D01*
X19700747Y-10640577D01*
X19700747Y-10923423D01*
X19983593Y-10923423D01*
X19984213Y-4384423D02*
X19984213Y-4101577D01*
X19701367Y-4101577D01*
X19701367Y-4384423D01*
X19984213Y-4384423D01*
X19984213Y-8194423D02*
X19984213Y-7911577D01*
X19701367Y-7911577D01*
X19701367Y-8194423D01*
X19984213Y-8194423D01*
X20936713Y-2479423D02*
X20936713Y-2196577D01*
X20653867Y-2196577D01*
X20653867Y-2479423D01*
X20936713Y-2479423D01*
X20936713Y-6289423D02*
X20936713Y-6006577D01*
X20653867Y-6006577D01*
X20653867Y-6289423D01*
X20936713Y-6289423D01*
X21889213Y-4384423D02*
X21889213Y-4101577D01*
X21606367Y-4101577D01*
X21606367Y-4384423D01*
X21889213Y-4384423D01*
X21889213Y-8194423D02*
X21889213Y-7911577D01*
X21606367Y-7911577D01*
X21606367Y-8194423D01*
X21889213Y-8194423D01*
X21889213Y-10099423D02*
X21889213Y-9816577D01*
X21606367Y-9816577D01*
X21606367Y-10099423D01*
X21889213Y-10099423D01*
X22841713Y-6289423D02*
X22841713Y-6006577D01*
X22558867Y-6006577D01*
X22558867Y-6289423D01*
X22841713Y-6289423D01*
X23079843Y-2479423D02*
X23079843Y-2196577D01*
X22796997Y-2196577D01*
X22796997Y-2479423D01*
X23079843Y-2479423D01*
X23794213Y-8194423D02*
X23794213Y-7911577D01*
X23511367Y-7911577D01*
X23511367Y-8194423D01*
X23794213Y-8194423D01*
X23794213Y-10099423D02*
X23794213Y-9816577D01*
X23511367Y-9816577D01*
X23511367Y-10099423D01*
X23794213Y-10099423D01*
X24270463Y-4384423D02*
X24270463Y-4101577D01*
X23987617Y-4101577D01*
X23987617Y-4384423D01*
X24270463Y-4384423D01*
X24746713Y-6289423D02*
X24746713Y-6006577D01*
X24463867Y-6006577D01*
X24463867Y-6289423D01*
X24746713Y-6289423D01*
X25223593Y-3303423D02*
X25223593Y-3020577D01*
X24940747Y-3020577D01*
X24940747Y-3303423D01*
X25223593Y-3303423D01*
X25461713Y-9018423D02*
X25461713Y-8735577D01*
X25178867Y-8735577D01*
X25178867Y-9018423D01*
X25461713Y-9018423D01*
X25699213Y-10099423D02*
X25699213Y-9816577D01*
X25416367Y-9816577D01*
X25416367Y-10099423D01*
X25699213Y-10099423D01*
X26413593Y-2479423D02*
X26413593Y-2196577D01*
X26130747Y-2196577D01*
X26130747Y-2479423D01*
X26413593Y-2479423D01*
X26651713Y-8194423D02*
X26651713Y-7911577D01*
X26368867Y-7911577D01*
X26368867Y-8194423D01*
X26651713Y-8194423D01*
X27127963Y-4384423D02*
X27127963Y-4101577D01*
X26845117Y-4101577D01*
X26845117Y-4384423D01*
X27127963Y-4384423D01*
X27127963Y-6289423D02*
X27127963Y-6006577D01*
X26845117Y-6006577D01*
X26845117Y-6289423D01*
X27127963Y-6289423D01*
X27603593Y-3303423D02*
X27603593Y-3020577D01*
X27320747Y-3020577D01*
X27320747Y-3303423D01*
X27603593Y-3303423D01*
X27604213Y-10099423D02*
X27604213Y-9816577D01*
X27321367Y-9816577D01*
X27321367Y-10099423D01*
X27604213Y-10099423D01*
X27841713Y-9018423D02*
X27841713Y-8735577D01*
X27558867Y-8735577D01*
X27558867Y-9018423D01*
X27841713Y-9018423D01*
D11*
X242619Y-12017524D02*
X242619Y-11817524D01*
X242619Y-11817524D02*
X290238Y-11817524D01*
X290238Y-11817524D02*
X318810Y-11827048D01*
X318810Y-11827048D02*
X337857Y-11846095D01*
X337857Y-11846095D02*
X347381Y-11865143D01*
X347381Y-11865143D02*
X356905Y-11903238D01*
X356905Y-11903238D02*
X356905Y-11931809D01*
X356905Y-11931809D02*
X347381Y-11969905D01*
X347381Y-11969905D02*
X337857Y-11988952D01*
X337857Y-11988952D02*
X318810Y-12008000D01*
X318810Y-12008000D02*
X290238Y-12017524D01*
X290238Y-12017524D02*
X242619Y-12017524D01*
X442619Y-12017524D02*
X442619Y-11884190D01*
X442619Y-11922286D02*
X452143Y-11903238D01*
X452143Y-11903238D02*
X461667Y-11893714D01*
X461667Y-11893714D02*
X480714Y-11884190D01*
X480714Y-11884190D02*
X499762Y-11884190D01*
X566429Y-12017524D02*
X566429Y-11884190D01*
X566429Y-11817524D02*
X556905Y-11827048D01*
X556905Y-11827048D02*
X566429Y-11836571D01*
X566429Y-11836571D02*
X575952Y-11827048D01*
X575952Y-11827048D02*
X566429Y-11817524D01*
X566429Y-11817524D02*
X566429Y-11836571D01*
X690238Y-12017524D02*
X671190Y-12008000D01*
X671190Y-12008000D02*
X661667Y-11988952D01*
X661667Y-11988952D02*
X661667Y-11817524D01*
X795000Y-12017524D02*
X775952Y-12008000D01*
X775952Y-12008000D02*
X766428Y-11988952D01*
X766428Y-11988952D02*
X766428Y-11817524D01*
X1023571Y-12017524D02*
X1023571Y-11817524D01*
X1023571Y-11817524D02*
X1090238Y-11960381D01*
X1090238Y-11960381D02*
X1156905Y-11817524D01*
X1156905Y-11817524D02*
X1156905Y-12017524D01*
X1337857Y-12017524D02*
X1337857Y-11912762D01*
X1337857Y-11912762D02*
X1328333Y-11893714D01*
X1328333Y-11893714D02*
X1309286Y-11884190D01*
X1309286Y-11884190D02*
X1271190Y-11884190D01*
X1271190Y-11884190D02*
X1252143Y-11893714D01*
X1337857Y-12008000D02*
X1318810Y-12017524D01*
X1318810Y-12017524D02*
X1271190Y-12017524D01*
X1271190Y-12017524D02*
X1252143Y-12008000D01*
X1252143Y-12008000D02*
X1242619Y-11988952D01*
X1242619Y-11988952D02*
X1242619Y-11969905D01*
X1242619Y-11969905D02*
X1252143Y-11950857D01*
X1252143Y-11950857D02*
X1271190Y-11941333D01*
X1271190Y-11941333D02*
X1318810Y-11941333D01*
X1318810Y-11941333D02*
X1337857Y-11931809D01*
X1433095Y-11884190D02*
X1433095Y-12084190D01*
X1433095Y-11893714D02*
X1452143Y-11884190D01*
X1452143Y-11884190D02*
X1490238Y-11884190D01*
X1490238Y-11884190D02*
X1509286Y-11893714D01*
X1509286Y-11893714D02*
X1518809Y-11903238D01*
X1518809Y-11903238D02*
X1528333Y-11922286D01*
X1528333Y-11922286D02*
X1528333Y-11979428D01*
X1528333Y-11979428D02*
X1518809Y-11998476D01*
X1518809Y-11998476D02*
X1509286Y-12008000D01*
X1509286Y-12008000D02*
X1490238Y-12017524D01*
X1490238Y-12017524D02*
X1452143Y-12017524D01*
X1452143Y-12017524D02*
X1433095Y-12008000D01*
X1614048Y-11998476D02*
X1623571Y-12008000D01*
X1623571Y-12008000D02*
X1614048Y-12017524D01*
X1614048Y-12017524D02*
X1604524Y-12008000D01*
X1604524Y-12008000D02*
X1614048Y-11998476D01*
X1614048Y-11998476D02*
X1614048Y-12017524D01*
X1614048Y-11893714D02*
X1623571Y-11903238D01*
X1623571Y-11903238D02*
X1614048Y-11912762D01*
X1614048Y-11912762D02*
X1604524Y-11903238D01*
X1604524Y-11903238D02*
X1614048Y-11893714D01*
X1614048Y-11893714D02*
X1614048Y-11912762D01*
D12*
X-175000Y-12260000D02*
X-5000Y-12430000D01*
X-5000Y-12260000D02*
X-175000Y-12430000D01*
D11*
X347381Y-12437524D02*
X233095Y-12437524D01*
X290238Y-12437524D02*
X290238Y-12237524D01*
X290238Y-12237524D02*
X271190Y-12266095D01*
X271190Y-12266095D02*
X252143Y-12285143D01*
X252143Y-12285143D02*
X233095Y-12294667D01*
X433095Y-12418476D02*
X442619Y-12428000D01*
X442619Y-12428000D02*
X433095Y-12437524D01*
X433095Y-12437524D02*
X423571Y-12428000D01*
X423571Y-12428000D02*
X433095Y-12418476D01*
X433095Y-12418476D02*
X433095Y-12437524D01*
X509286Y-12237524D02*
X642619Y-12237524D01*
X642619Y-12237524D02*
X556905Y-12437524D01*
X756905Y-12237524D02*
X775952Y-12237524D01*
X775952Y-12237524D02*
X795000Y-12247048D01*
X795000Y-12247048D02*
X804524Y-12256571D01*
X804524Y-12256571D02*
X814048Y-12275619D01*
X814048Y-12275619D02*
X823571Y-12313714D01*
X823571Y-12313714D02*
X823571Y-12361333D01*
X823571Y-12361333D02*
X814048Y-12399428D01*
X814048Y-12399428D02*
X804524Y-12418476D01*
X804524Y-12418476D02*
X795000Y-12428000D01*
X795000Y-12428000D02*
X775952Y-12437524D01*
X775952Y-12437524D02*
X756905Y-12437524D01*
X756905Y-12437524D02*
X737857Y-12428000D01*
X737857Y-12428000D02*
X728333Y-12418476D01*
X728333Y-12418476D02*
X718809Y-12399428D01*
X718809Y-12399428D02*
X709286Y-12361333D01*
X709286Y-12361333D02*
X709286Y-12313714D01*
X709286Y-12313714D02*
X718809Y-12275619D01*
X718809Y-12275619D02*
X728333Y-12256571D01*
X728333Y-12256571D02*
X737857Y-12247048D01*
X737857Y-12247048D02*
X756905Y-12237524D01*
X947381Y-12237524D02*
X966429Y-12237524D01*
X966429Y-12237524D02*
X985476Y-12247048D01*
X985476Y-12247048D02*
X995000Y-12256571D01*
X995000Y-12256571D02*
X1004524Y-12275619D01*
X1004524Y-12275619D02*
X1014048Y-12313714D01*
X1014048Y-12313714D02*
X1014048Y-12361333D01*
X1014048Y-12361333D02*
X1004524Y-12399428D01*
X1004524Y-12399428D02*
X995000Y-12418476D01*
X995000Y-12418476D02*
X985476Y-12428000D01*
X985476Y-12428000D02*
X966429Y-12437524D01*
X966429Y-12437524D02*
X947381Y-12437524D01*
X947381Y-12437524D02*
X928333Y-12428000D01*
X928333Y-12428000D02*
X918809Y-12418476D01*
X918809Y-12418476D02*
X909286Y-12399428D01*
X909286Y-12399428D02*
X899762Y-12361333D01*
X899762Y-12361333D02*
X899762Y-12313714D01*
X899762Y-12313714D02*
X909286Y-12275619D01*
X909286Y-12275619D02*
X918809Y-12256571D01*
X918809Y-12256571D02*
X928333Y-12247048D01*
X928333Y-12247048D02*
X947381Y-12237524D01*
X1099762Y-12437524D02*
X1099762Y-12304190D01*
X1099762Y-12323238D02*
X1109286Y-12313714D01*
X1109286Y-12313714D02*
X1128333Y-12304190D01*
X1128333Y-12304190D02*
X1156905Y-12304190D01*
X1156905Y-12304190D02*
X1175952Y-12313714D01*
X1175952Y-12313714D02*
X1185476Y-12332762D01*
X1185476Y-12332762D02*
X1185476Y-12437524D01*
X1185476Y-12332762D02*
X1195000Y-12313714D01*
X1195000Y-12313714D02*
X1214048Y-12304190D01*
X1214048Y-12304190D02*
X1242619Y-12304190D01*
X1242619Y-12304190D02*
X1261667Y-12313714D01*
X1261667Y-12313714D02*
X1271191Y-12332762D01*
X1271191Y-12332762D02*
X1271191Y-12437524D01*
X1366429Y-12437524D02*
X1366429Y-12304190D01*
X1366429Y-12323238D02*
X1375952Y-12313714D01*
X1375952Y-12313714D02*
X1395000Y-12304190D01*
X1395000Y-12304190D02*
X1423571Y-12304190D01*
X1423571Y-12304190D02*
X1442619Y-12313714D01*
X1442619Y-12313714D02*
X1452143Y-12332762D01*
X1452143Y-12332762D02*
X1452143Y-12437524D01*
X1452143Y-12332762D02*
X1461667Y-12313714D01*
X1461667Y-12313714D02*
X1480714Y-12304190D01*
X1480714Y-12304190D02*
X1509286Y-12304190D01*
X1509286Y-12304190D02*
X1528333Y-12313714D01*
X1528333Y-12313714D02*
X1537857Y-12332762D01*
X1537857Y-12332762D02*
X1537857Y-12437524D01*
X1928333Y-12228000D02*
X1756905Y-12485143D01*
X2185476Y-12237524D02*
X2204524Y-12237524D01*
X2204524Y-12237524D02*
X2223572Y-12247048D01*
X2223572Y-12247048D02*
X2233095Y-12256571D01*
X2233095Y-12256571D02*
X2242619Y-12275619D01*
X2242619Y-12275619D02*
X2252143Y-12313714D01*
X2252143Y-12313714D02*
X2252143Y-12361333D01*
X2252143Y-12361333D02*
X2242619Y-12399428D01*
X2242619Y-12399428D02*
X2233095Y-12418476D01*
X2233095Y-12418476D02*
X2223572Y-12428000D01*
X2223572Y-12428000D02*
X2204524Y-12437524D01*
X2204524Y-12437524D02*
X2185476Y-12437524D01*
X2185476Y-12437524D02*
X2166429Y-12428000D01*
X2166429Y-12428000D02*
X2156905Y-12418476D01*
X2156905Y-12418476D02*
X2147381Y-12399428D01*
X2147381Y-12399428D02*
X2137857Y-12361333D01*
X2137857Y-12361333D02*
X2137857Y-12313714D01*
X2137857Y-12313714D02*
X2147381Y-12275619D01*
X2147381Y-12275619D02*
X2156905Y-12256571D01*
X2156905Y-12256571D02*
X2166429Y-12247048D01*
X2166429Y-12247048D02*
X2185476Y-12237524D01*
X2337857Y-12418476D02*
X2347381Y-12428000D01*
X2347381Y-12428000D02*
X2337857Y-12437524D01*
X2337857Y-12437524D02*
X2328334Y-12428000D01*
X2328334Y-12428000D02*
X2337857Y-12418476D01*
X2337857Y-12418476D02*
X2337857Y-12437524D01*
X2471191Y-12237524D02*
X2490238Y-12237524D01*
X2490238Y-12237524D02*
X2509286Y-12247048D01*
X2509286Y-12247048D02*
X2518810Y-12256571D01*
X2518810Y-12256571D02*
X2528334Y-12275619D01*
X2528334Y-12275619D02*
X2537857Y-12313714D01*
X2537857Y-12313714D02*
X2537857Y-12361333D01*
X2537857Y-12361333D02*
X2528334Y-12399428D01*
X2528334Y-12399428D02*
X2518810Y-12418476D01*
X2518810Y-12418476D02*
X2509286Y-12428000D01*
X2509286Y-12428000D02*
X2490238Y-12437524D01*
X2490238Y-12437524D02*
X2471191Y-12437524D01*
X2471191Y-12437524D02*
X2452143Y-12428000D01*
X2452143Y-12428000D02*
X2442619Y-12418476D01*
X2442619Y-12418476D02*
X2433095Y-12399428D01*
X2433095Y-12399428D02*
X2423572Y-12361333D01*
X2423572Y-12361333D02*
X2423572Y-12313714D01*
X2423572Y-12313714D02*
X2433095Y-12275619D01*
X2433095Y-12275619D02*
X2442619Y-12256571D01*
X2442619Y-12256571D02*
X2452143Y-12247048D01*
X2452143Y-12247048D02*
X2471191Y-12237524D01*
X2709286Y-12237524D02*
X2671191Y-12237524D01*
X2671191Y-12237524D02*
X2652143Y-12247048D01*
X2652143Y-12247048D02*
X2642619Y-12256571D01*
X2642619Y-12256571D02*
X2623572Y-12285143D01*
X2623572Y-12285143D02*
X2614048Y-12323238D01*
X2614048Y-12323238D02*
X2614048Y-12399428D01*
X2614048Y-12399428D02*
X2623572Y-12418476D01*
X2623572Y-12418476D02*
X2633095Y-12428000D01*
X2633095Y-12428000D02*
X2652143Y-12437524D01*
X2652143Y-12437524D02*
X2690238Y-12437524D01*
X2690238Y-12437524D02*
X2709286Y-12428000D01*
X2709286Y-12428000D02*
X2718810Y-12418476D01*
X2718810Y-12418476D02*
X2728334Y-12399428D01*
X2728334Y-12399428D02*
X2728334Y-12351809D01*
X2728334Y-12351809D02*
X2718810Y-12332762D01*
X2718810Y-12332762D02*
X2709286Y-12323238D01*
X2709286Y-12323238D02*
X2690238Y-12313714D01*
X2690238Y-12313714D02*
X2652143Y-12313714D01*
X2652143Y-12313714D02*
X2633095Y-12323238D01*
X2633095Y-12323238D02*
X2623572Y-12332762D01*
X2623572Y-12332762D02*
X2614048Y-12351809D01*
X2899762Y-12237524D02*
X2861667Y-12237524D01*
X2861667Y-12237524D02*
X2842619Y-12247048D01*
X2842619Y-12247048D02*
X2833095Y-12256571D01*
X2833095Y-12256571D02*
X2814048Y-12285143D01*
X2814048Y-12285143D02*
X2804524Y-12323238D01*
X2804524Y-12323238D02*
X2804524Y-12399428D01*
X2804524Y-12399428D02*
X2814048Y-12418476D01*
X2814048Y-12418476D02*
X2823572Y-12428000D01*
X2823572Y-12428000D02*
X2842619Y-12437524D01*
X2842619Y-12437524D02*
X2880714Y-12437524D01*
X2880714Y-12437524D02*
X2899762Y-12428000D01*
X2899762Y-12428000D02*
X2909286Y-12418476D01*
X2909286Y-12418476D02*
X2918810Y-12399428D01*
X2918810Y-12399428D02*
X2918810Y-12351809D01*
X2918810Y-12351809D02*
X2909286Y-12332762D01*
X2909286Y-12332762D02*
X2899762Y-12323238D01*
X2899762Y-12323238D02*
X2880714Y-12313714D01*
X2880714Y-12313714D02*
X2842619Y-12313714D01*
X2842619Y-12313714D02*
X2823572Y-12323238D01*
X2823572Y-12323238D02*
X2814048Y-12332762D01*
X2814048Y-12332762D02*
X2804524Y-12351809D01*
X3014048Y-12437524D02*
X3052143Y-12437524D01*
X3052143Y-12437524D02*
X3071191Y-12428000D01*
X3071191Y-12428000D02*
X3080714Y-12418476D01*
X3080714Y-12418476D02*
X3099762Y-12389905D01*
X3099762Y-12389905D02*
X3109286Y-12351809D01*
X3109286Y-12351809D02*
X3109286Y-12275619D01*
X3109286Y-12275619D02*
X3099762Y-12256571D01*
X3099762Y-12256571D02*
X3090238Y-12247048D01*
X3090238Y-12247048D02*
X3071191Y-12237524D01*
X3071191Y-12237524D02*
X3033095Y-12237524D01*
X3033095Y-12237524D02*
X3014048Y-12247048D01*
X3014048Y-12247048D02*
X3004524Y-12256571D01*
X3004524Y-12256571D02*
X2995000Y-12275619D01*
X2995000Y-12275619D02*
X2995000Y-12323238D01*
X2995000Y-12323238D02*
X3004524Y-12342286D01*
X3004524Y-12342286D02*
X3014048Y-12351809D01*
X3014048Y-12351809D02*
X3033095Y-12361333D01*
X3033095Y-12361333D02*
X3071191Y-12361333D01*
X3071191Y-12361333D02*
X3090238Y-12351809D01*
X3090238Y-12351809D02*
X3099762Y-12342286D01*
X3099762Y-12342286D02*
X3109286Y-12323238D01*
X3185476Y-12237524D02*
X3185476Y-12275619D01*
X3261667Y-12237524D02*
X3261667Y-12275619D01*
X3556905Y-12513714D02*
X3547381Y-12504190D01*
X3547381Y-12504190D02*
X3528334Y-12475619D01*
X3528334Y-12475619D02*
X3518810Y-12456571D01*
X3518810Y-12456571D02*
X3509286Y-12428000D01*
X3509286Y-12428000D02*
X3499762Y-12380381D01*
X3499762Y-12380381D02*
X3499762Y-12342286D01*
X3499762Y-12342286D02*
X3509286Y-12294667D01*
X3509286Y-12294667D02*
X3518810Y-12266095D01*
X3518810Y-12266095D02*
X3528334Y-12247048D01*
X3528334Y-12247048D02*
X3547381Y-12218476D01*
X3547381Y-12218476D02*
X3556905Y-12208952D01*
X3737857Y-12437524D02*
X3623572Y-12437524D01*
X3680714Y-12437524D02*
X3680714Y-12237524D01*
X3680714Y-12237524D02*
X3661667Y-12266095D01*
X3661667Y-12266095D02*
X3642619Y-12285143D01*
X3642619Y-12285143D02*
X3623572Y-12294667D01*
X3928334Y-12437524D02*
X3814048Y-12437524D01*
X3871191Y-12437524D02*
X3871191Y-12237524D01*
X3871191Y-12237524D02*
X3852143Y-12266095D01*
X3852143Y-12266095D02*
X3833095Y-12285143D01*
X3833095Y-12285143D02*
X3814048Y-12294667D01*
X4042619Y-12323238D02*
X4023572Y-12313714D01*
X4023572Y-12313714D02*
X4014048Y-12304190D01*
X4014048Y-12304190D02*
X4004524Y-12285143D01*
X4004524Y-12285143D02*
X4004524Y-12275619D01*
X4004524Y-12275619D02*
X4014048Y-12256571D01*
X4014048Y-12256571D02*
X4023572Y-12247048D01*
X4023572Y-12247048D02*
X4042619Y-12237524D01*
X4042619Y-12237524D02*
X4080715Y-12237524D01*
X4080715Y-12237524D02*
X4099762Y-12247048D01*
X4099762Y-12247048D02*
X4109286Y-12256571D01*
X4109286Y-12256571D02*
X4118810Y-12275619D01*
X4118810Y-12275619D02*
X4118810Y-12285143D01*
X4118810Y-12285143D02*
X4109286Y-12304190D01*
X4109286Y-12304190D02*
X4099762Y-12313714D01*
X4099762Y-12313714D02*
X4080715Y-12323238D01*
X4080715Y-12323238D02*
X4042619Y-12323238D01*
X4042619Y-12323238D02*
X4023572Y-12332762D01*
X4023572Y-12332762D02*
X4014048Y-12342286D01*
X4014048Y-12342286D02*
X4004524Y-12361333D01*
X4004524Y-12361333D02*
X4004524Y-12399428D01*
X4004524Y-12399428D02*
X4014048Y-12418476D01*
X4014048Y-12418476D02*
X4023572Y-12428000D01*
X4023572Y-12428000D02*
X4042619Y-12437524D01*
X4042619Y-12437524D02*
X4080715Y-12437524D01*
X4080715Y-12437524D02*
X4099762Y-12428000D01*
X4099762Y-12428000D02*
X4109286Y-12418476D01*
X4109286Y-12418476D02*
X4118810Y-12399428D01*
X4118810Y-12399428D02*
X4118810Y-12361333D01*
X4118810Y-12361333D02*
X4109286Y-12342286D01*
X4109286Y-12342286D02*
X4099762Y-12332762D01*
X4099762Y-12332762D02*
X4080715Y-12323238D01*
X4356905Y-12437524D02*
X4356905Y-12237524D01*
X4442619Y-12437524D02*
X4442619Y-12332762D01*
X4442619Y-12332762D02*
X4433096Y-12313714D01*
X4433096Y-12313714D02*
X4414048Y-12304190D01*
X4414048Y-12304190D02*
X4385477Y-12304190D01*
X4385477Y-12304190D02*
X4366429Y-12313714D01*
X4366429Y-12313714D02*
X4356905Y-12323238D01*
X4566429Y-12437524D02*
X4547381Y-12428000D01*
X4547381Y-12428000D02*
X4537858Y-12418476D01*
X4537858Y-12418476D02*
X4528334Y-12399428D01*
X4528334Y-12399428D02*
X4528334Y-12342286D01*
X4528334Y-12342286D02*
X4537858Y-12323238D01*
X4537858Y-12323238D02*
X4547381Y-12313714D01*
X4547381Y-12313714D02*
X4566429Y-12304190D01*
X4566429Y-12304190D02*
X4595000Y-12304190D01*
X4595000Y-12304190D02*
X4614048Y-12313714D01*
X4614048Y-12313714D02*
X4623572Y-12323238D01*
X4623572Y-12323238D02*
X4633096Y-12342286D01*
X4633096Y-12342286D02*
X4633096Y-12399428D01*
X4633096Y-12399428D02*
X4623572Y-12418476D01*
X4623572Y-12418476D02*
X4614048Y-12428000D01*
X4614048Y-12428000D02*
X4595000Y-12437524D01*
X4595000Y-12437524D02*
X4566429Y-12437524D01*
X4747381Y-12437524D02*
X4728334Y-12428000D01*
X4728334Y-12428000D02*
X4718810Y-12408952D01*
X4718810Y-12408952D02*
X4718810Y-12237524D01*
X4899762Y-12428000D02*
X4880715Y-12437524D01*
X4880715Y-12437524D02*
X4842619Y-12437524D01*
X4842619Y-12437524D02*
X4823572Y-12428000D01*
X4823572Y-12428000D02*
X4814048Y-12408952D01*
X4814048Y-12408952D02*
X4814048Y-12332762D01*
X4814048Y-12332762D02*
X4823572Y-12313714D01*
X4823572Y-12313714D02*
X4842619Y-12304190D01*
X4842619Y-12304190D02*
X4880715Y-12304190D01*
X4880715Y-12304190D02*
X4899762Y-12313714D01*
X4899762Y-12313714D02*
X4909286Y-12332762D01*
X4909286Y-12332762D02*
X4909286Y-12351809D01*
X4909286Y-12351809D02*
X4814048Y-12370857D01*
X4985477Y-12428000D02*
X5004524Y-12437524D01*
X5004524Y-12437524D02*
X5042619Y-12437524D01*
X5042619Y-12437524D02*
X5061667Y-12428000D01*
X5061667Y-12428000D02*
X5071191Y-12408952D01*
X5071191Y-12408952D02*
X5071191Y-12399428D01*
X5071191Y-12399428D02*
X5061667Y-12380381D01*
X5061667Y-12380381D02*
X5042619Y-12370857D01*
X5042619Y-12370857D02*
X5014048Y-12370857D01*
X5014048Y-12370857D02*
X4995000Y-12361333D01*
X4995000Y-12361333D02*
X4985477Y-12342286D01*
X4985477Y-12342286D02*
X4985477Y-12332762D01*
X4985477Y-12332762D02*
X4995000Y-12313714D01*
X4995000Y-12313714D02*
X5014048Y-12304190D01*
X5014048Y-12304190D02*
X5042619Y-12304190D01*
X5042619Y-12304190D02*
X5061667Y-12313714D01*
X5137858Y-12513714D02*
X5147381Y-12504190D01*
X5147381Y-12504190D02*
X5166429Y-12475619D01*
X5166429Y-12475619D02*
X5175953Y-12456571D01*
X5175953Y-12456571D02*
X5185477Y-12428000D01*
X5185477Y-12428000D02*
X5195000Y-12380381D01*
X5195000Y-12380381D02*
X5195000Y-12342286D01*
X5195000Y-12342286D02*
X5185477Y-12294667D01*
X5185477Y-12294667D02*
X5175953Y-12266095D01*
X5175953Y-12266095D02*
X5166429Y-12247048D01*
X5166429Y-12247048D02*
X5147381Y-12218476D01*
X5147381Y-12218476D02*
X5137858Y-12208952D01*
X5499762Y-12513714D02*
X5490239Y-12504190D01*
X5490239Y-12504190D02*
X5471191Y-12475619D01*
X5471191Y-12475619D02*
X5461667Y-12456571D01*
X5461667Y-12456571D02*
X5452143Y-12428000D01*
X5452143Y-12428000D02*
X5442620Y-12380381D01*
X5442620Y-12380381D02*
X5442620Y-12342286D01*
X5442620Y-12342286D02*
X5452143Y-12294667D01*
X5452143Y-12294667D02*
X5461667Y-12266095D01*
X5461667Y-12266095D02*
X5471191Y-12247048D01*
X5471191Y-12247048D02*
X5490239Y-12218476D01*
X5490239Y-12218476D02*
X5499762Y-12208952D01*
X5575953Y-12304190D02*
X5575953Y-12437524D01*
X5575953Y-12323238D02*
X5585477Y-12313714D01*
X5585477Y-12313714D02*
X5604524Y-12304190D01*
X5604524Y-12304190D02*
X5633096Y-12304190D01*
X5633096Y-12304190D02*
X5652143Y-12313714D01*
X5652143Y-12313714D02*
X5661667Y-12332762D01*
X5661667Y-12332762D02*
X5661667Y-12437524D01*
X5785477Y-12437524D02*
X5766429Y-12428000D01*
X5766429Y-12428000D02*
X5756905Y-12418476D01*
X5756905Y-12418476D02*
X5747381Y-12399428D01*
X5747381Y-12399428D02*
X5747381Y-12342286D01*
X5747381Y-12342286D02*
X5756905Y-12323238D01*
X5756905Y-12323238D02*
X5766429Y-12313714D01*
X5766429Y-12313714D02*
X5785477Y-12304190D01*
X5785477Y-12304190D02*
X5814048Y-12304190D01*
X5814048Y-12304190D02*
X5833096Y-12313714D01*
X5833096Y-12313714D02*
X5842619Y-12323238D01*
X5842619Y-12323238D02*
X5852143Y-12342286D01*
X5852143Y-12342286D02*
X5852143Y-12399428D01*
X5852143Y-12399428D02*
X5842619Y-12418476D01*
X5842619Y-12418476D02*
X5833096Y-12428000D01*
X5833096Y-12428000D02*
X5814048Y-12437524D01*
X5814048Y-12437524D02*
X5785477Y-12437524D01*
X5909286Y-12304190D02*
X5985477Y-12304190D01*
X5937858Y-12237524D02*
X5937858Y-12408952D01*
X5937858Y-12408952D02*
X5947381Y-12428000D01*
X5947381Y-12428000D02*
X5966429Y-12437524D01*
X5966429Y-12437524D02*
X5985477Y-12437524D01*
X6204524Y-12304190D02*
X6204524Y-12504190D01*
X6204524Y-12313714D02*
X6223572Y-12304190D01*
X6223572Y-12304190D02*
X6261667Y-12304190D01*
X6261667Y-12304190D02*
X6280715Y-12313714D01*
X6280715Y-12313714D02*
X6290239Y-12323238D01*
X6290239Y-12323238D02*
X6299762Y-12342286D01*
X6299762Y-12342286D02*
X6299762Y-12399428D01*
X6299762Y-12399428D02*
X6290239Y-12418476D01*
X6290239Y-12418476D02*
X6280715Y-12428000D01*
X6280715Y-12428000D02*
X6261667Y-12437524D01*
X6261667Y-12437524D02*
X6223572Y-12437524D01*
X6223572Y-12437524D02*
X6204524Y-12428000D01*
X6414048Y-12437524D02*
X6395000Y-12428000D01*
X6395000Y-12428000D02*
X6385477Y-12408952D01*
X6385477Y-12408952D02*
X6385477Y-12237524D01*
X6575953Y-12437524D02*
X6575953Y-12332762D01*
X6575953Y-12332762D02*
X6566429Y-12313714D01*
X6566429Y-12313714D02*
X6547381Y-12304190D01*
X6547381Y-12304190D02*
X6509286Y-12304190D01*
X6509286Y-12304190D02*
X6490239Y-12313714D01*
X6575953Y-12428000D02*
X6556905Y-12437524D01*
X6556905Y-12437524D02*
X6509286Y-12437524D01*
X6509286Y-12437524D02*
X6490239Y-12428000D01*
X6490239Y-12428000D02*
X6480715Y-12408952D01*
X6480715Y-12408952D02*
X6480715Y-12389905D01*
X6480715Y-12389905D02*
X6490239Y-12370857D01*
X6490239Y-12370857D02*
X6509286Y-12361333D01*
X6509286Y-12361333D02*
X6556905Y-12361333D01*
X6556905Y-12361333D02*
X6575953Y-12351809D01*
X6642620Y-12304190D02*
X6718810Y-12304190D01*
X6671191Y-12237524D02*
X6671191Y-12408952D01*
X6671191Y-12408952D02*
X6680715Y-12428000D01*
X6680715Y-12428000D02*
X6699762Y-12437524D01*
X6699762Y-12437524D02*
X6718810Y-12437524D01*
X6861667Y-12428000D02*
X6842620Y-12437524D01*
X6842620Y-12437524D02*
X6804524Y-12437524D01*
X6804524Y-12437524D02*
X6785477Y-12428000D01*
X6785477Y-12428000D02*
X6775953Y-12408952D01*
X6775953Y-12408952D02*
X6775953Y-12332762D01*
X6775953Y-12332762D02*
X6785477Y-12313714D01*
X6785477Y-12313714D02*
X6804524Y-12304190D01*
X6804524Y-12304190D02*
X6842620Y-12304190D01*
X6842620Y-12304190D02*
X6861667Y-12313714D01*
X6861667Y-12313714D02*
X6871191Y-12332762D01*
X6871191Y-12332762D02*
X6871191Y-12351809D01*
X6871191Y-12351809D02*
X6775953Y-12370857D01*
X7042620Y-12437524D02*
X7042620Y-12237524D01*
X7042620Y-12428000D02*
X7023572Y-12437524D01*
X7023572Y-12437524D02*
X6985477Y-12437524D01*
X6985477Y-12437524D02*
X6966429Y-12428000D01*
X6966429Y-12428000D02*
X6956905Y-12418476D01*
X6956905Y-12418476D02*
X6947381Y-12399428D01*
X6947381Y-12399428D02*
X6947381Y-12342286D01*
X6947381Y-12342286D02*
X6956905Y-12323238D01*
X6956905Y-12323238D02*
X6966429Y-12313714D01*
X6966429Y-12313714D02*
X6985477Y-12304190D01*
X6985477Y-12304190D02*
X7023572Y-12304190D01*
X7023572Y-12304190D02*
X7042620Y-12313714D01*
X7118810Y-12513714D02*
X7128334Y-12504190D01*
X7128334Y-12504190D02*
X7147381Y-12475619D01*
X7147381Y-12475619D02*
X7156905Y-12456571D01*
X7156905Y-12456571D02*
X7166429Y-12428000D01*
X7166429Y-12428000D02*
X7175953Y-12380381D01*
X7175953Y-12380381D02*
X7175953Y-12342286D01*
X7175953Y-12342286D02*
X7166429Y-12294667D01*
X7166429Y-12294667D02*
X7156905Y-12266095D01*
X7156905Y-12266095D02*
X7147381Y-12247048D01*
X7147381Y-12247048D02*
X7128334Y-12218476D01*
X7128334Y-12218476D02*
X7118810Y-12208952D01*
X-5000Y-12635000D02*
G75*
G03*
X-5000Y-12635000I-100000J0D01*
G01*
X223571Y-12527524D02*
X347381Y-12527524D01*
X347381Y-12527524D02*
X280714Y-12603714D01*
X280714Y-12603714D02*
X309286Y-12603714D01*
X309286Y-12603714D02*
X328333Y-12613238D01*
X328333Y-12613238D02*
X337857Y-12622762D01*
X337857Y-12622762D02*
X347381Y-12641809D01*
X347381Y-12641809D02*
X347381Y-12689428D01*
X347381Y-12689428D02*
X337857Y-12708476D01*
X337857Y-12708476D02*
X328333Y-12718000D01*
X328333Y-12718000D02*
X309286Y-12727524D01*
X309286Y-12727524D02*
X252143Y-12727524D01*
X252143Y-12727524D02*
X233095Y-12718000D01*
X233095Y-12718000D02*
X223571Y-12708476D01*
X433095Y-12708476D02*
X442619Y-12718000D01*
X442619Y-12718000D02*
X433095Y-12727524D01*
X433095Y-12727524D02*
X423571Y-12718000D01*
X423571Y-12718000D02*
X433095Y-12708476D01*
X433095Y-12708476D02*
X433095Y-12727524D01*
X566429Y-12527524D02*
X585476Y-12527524D01*
X585476Y-12527524D02*
X604524Y-12537048D01*
X604524Y-12537048D02*
X614048Y-12546571D01*
X614048Y-12546571D02*
X623571Y-12565619D01*
X623571Y-12565619D02*
X633095Y-12603714D01*
X633095Y-12603714D02*
X633095Y-12651333D01*
X633095Y-12651333D02*
X623571Y-12689428D01*
X623571Y-12689428D02*
X614048Y-12708476D01*
X614048Y-12708476D02*
X604524Y-12718000D01*
X604524Y-12718000D02*
X585476Y-12727524D01*
X585476Y-12727524D02*
X566429Y-12727524D01*
X566429Y-12727524D02*
X547381Y-12718000D01*
X547381Y-12718000D02*
X537857Y-12708476D01*
X537857Y-12708476D02*
X528333Y-12689428D01*
X528333Y-12689428D02*
X518809Y-12651333D01*
X518809Y-12651333D02*
X518809Y-12603714D01*
X518809Y-12603714D02*
X528333Y-12565619D01*
X528333Y-12565619D02*
X537857Y-12546571D01*
X537857Y-12546571D02*
X547381Y-12537048D01*
X547381Y-12537048D02*
X566429Y-12527524D01*
X814048Y-12527524D02*
X718809Y-12527524D01*
X718809Y-12527524D02*
X709286Y-12622762D01*
X709286Y-12622762D02*
X718809Y-12613238D01*
X718809Y-12613238D02*
X737857Y-12603714D01*
X737857Y-12603714D02*
X785476Y-12603714D01*
X785476Y-12603714D02*
X804524Y-12613238D01*
X804524Y-12613238D02*
X814048Y-12622762D01*
X814048Y-12622762D02*
X823571Y-12641809D01*
X823571Y-12641809D02*
X823571Y-12689428D01*
X823571Y-12689428D02*
X814048Y-12708476D01*
X814048Y-12708476D02*
X804524Y-12718000D01*
X804524Y-12718000D02*
X785476Y-12727524D01*
X785476Y-12727524D02*
X737857Y-12727524D01*
X737857Y-12727524D02*
X718809Y-12718000D01*
X718809Y-12718000D02*
X709286Y-12708476D01*
X947381Y-12527524D02*
X966429Y-12527524D01*
X966429Y-12527524D02*
X985476Y-12537048D01*
X985476Y-12537048D02*
X995000Y-12546571D01*
X995000Y-12546571D02*
X1004524Y-12565619D01*
X1004524Y-12565619D02*
X1014048Y-12603714D01*
X1014048Y-12603714D02*
X1014048Y-12651333D01*
X1014048Y-12651333D02*
X1004524Y-12689428D01*
X1004524Y-12689428D02*
X995000Y-12708476D01*
X995000Y-12708476D02*
X985476Y-12718000D01*
X985476Y-12718000D02*
X966429Y-12727524D01*
X966429Y-12727524D02*
X947381Y-12727524D01*
X947381Y-12727524D02*
X928333Y-12718000D01*
X928333Y-12718000D02*
X918809Y-12708476D01*
X918809Y-12708476D02*
X909286Y-12689428D01*
X909286Y-12689428D02*
X899762Y-12651333D01*
X899762Y-12651333D02*
X899762Y-12603714D01*
X899762Y-12603714D02*
X909286Y-12565619D01*
X909286Y-12565619D02*
X918809Y-12546571D01*
X918809Y-12546571D02*
X928333Y-12537048D01*
X928333Y-12537048D02*
X947381Y-12527524D01*
X1099762Y-12727524D02*
X1099762Y-12594190D01*
X1099762Y-12613238D02*
X1109286Y-12603714D01*
X1109286Y-12603714D02*
X1128333Y-12594190D01*
X1128333Y-12594190D02*
X1156905Y-12594190D01*
X1156905Y-12594190D02*
X1175952Y-12603714D01*
X1175952Y-12603714D02*
X1185476Y-12622762D01*
X1185476Y-12622762D02*
X1185476Y-12727524D01*
X1185476Y-12622762D02*
X1195000Y-12603714D01*
X1195000Y-12603714D02*
X1214048Y-12594190D01*
X1214048Y-12594190D02*
X1242619Y-12594190D01*
X1242619Y-12594190D02*
X1261667Y-12603714D01*
X1261667Y-12603714D02*
X1271191Y-12622762D01*
X1271191Y-12622762D02*
X1271191Y-12727524D01*
X1366429Y-12727524D02*
X1366429Y-12594190D01*
X1366429Y-12613238D02*
X1375952Y-12603714D01*
X1375952Y-12603714D02*
X1395000Y-12594190D01*
X1395000Y-12594190D02*
X1423571Y-12594190D01*
X1423571Y-12594190D02*
X1442619Y-12603714D01*
X1442619Y-12603714D02*
X1452143Y-12622762D01*
X1452143Y-12622762D02*
X1452143Y-12727524D01*
X1452143Y-12622762D02*
X1461667Y-12603714D01*
X1461667Y-12603714D02*
X1480714Y-12594190D01*
X1480714Y-12594190D02*
X1509286Y-12594190D01*
X1509286Y-12594190D02*
X1528333Y-12603714D01*
X1528333Y-12603714D02*
X1537857Y-12622762D01*
X1537857Y-12622762D02*
X1537857Y-12727524D01*
X1928333Y-12518000D02*
X1756905Y-12775143D01*
X2185476Y-12527524D02*
X2204524Y-12527524D01*
X2204524Y-12527524D02*
X2223572Y-12537048D01*
X2223572Y-12537048D02*
X2233095Y-12546571D01*
X2233095Y-12546571D02*
X2242619Y-12565619D01*
X2242619Y-12565619D02*
X2252143Y-12603714D01*
X2252143Y-12603714D02*
X2252143Y-12651333D01*
X2252143Y-12651333D02*
X2242619Y-12689428D01*
X2242619Y-12689428D02*
X2233095Y-12708476D01*
X2233095Y-12708476D02*
X2223572Y-12718000D01*
X2223572Y-12718000D02*
X2204524Y-12727524D01*
X2204524Y-12727524D02*
X2185476Y-12727524D01*
X2185476Y-12727524D02*
X2166429Y-12718000D01*
X2166429Y-12718000D02*
X2156905Y-12708476D01*
X2156905Y-12708476D02*
X2147381Y-12689428D01*
X2147381Y-12689428D02*
X2137857Y-12651333D01*
X2137857Y-12651333D02*
X2137857Y-12603714D01*
X2137857Y-12603714D02*
X2147381Y-12565619D01*
X2147381Y-12565619D02*
X2156905Y-12546571D01*
X2156905Y-12546571D02*
X2166429Y-12537048D01*
X2166429Y-12537048D02*
X2185476Y-12527524D01*
X2337857Y-12708476D02*
X2347381Y-12718000D01*
X2347381Y-12718000D02*
X2337857Y-12727524D01*
X2337857Y-12727524D02*
X2328334Y-12718000D01*
X2328334Y-12718000D02*
X2337857Y-12708476D01*
X2337857Y-12708476D02*
X2337857Y-12727524D01*
X2537857Y-12727524D02*
X2423572Y-12727524D01*
X2480714Y-12727524D02*
X2480714Y-12527524D01*
X2480714Y-12527524D02*
X2461667Y-12556095D01*
X2461667Y-12556095D02*
X2442619Y-12575143D01*
X2442619Y-12575143D02*
X2423572Y-12584667D01*
X2614048Y-12546571D02*
X2623572Y-12537048D01*
X2623572Y-12537048D02*
X2642619Y-12527524D01*
X2642619Y-12527524D02*
X2690238Y-12527524D01*
X2690238Y-12527524D02*
X2709286Y-12537048D01*
X2709286Y-12537048D02*
X2718810Y-12546571D01*
X2718810Y-12546571D02*
X2728334Y-12565619D01*
X2728334Y-12565619D02*
X2728334Y-12584667D01*
X2728334Y-12584667D02*
X2718810Y-12613238D01*
X2718810Y-12613238D02*
X2604524Y-12727524D01*
X2604524Y-12727524D02*
X2728334Y-12727524D01*
X2852143Y-12527524D02*
X2871191Y-12527524D01*
X2871191Y-12527524D02*
X2890238Y-12537048D01*
X2890238Y-12537048D02*
X2899762Y-12546571D01*
X2899762Y-12546571D02*
X2909286Y-12565619D01*
X2909286Y-12565619D02*
X2918810Y-12603714D01*
X2918810Y-12603714D02*
X2918810Y-12651333D01*
X2918810Y-12651333D02*
X2909286Y-12689428D01*
X2909286Y-12689428D02*
X2899762Y-12708476D01*
X2899762Y-12708476D02*
X2890238Y-12718000D01*
X2890238Y-12718000D02*
X2871191Y-12727524D01*
X2871191Y-12727524D02*
X2852143Y-12727524D01*
X2852143Y-12727524D02*
X2833095Y-12718000D01*
X2833095Y-12718000D02*
X2823572Y-12708476D01*
X2823572Y-12708476D02*
X2814048Y-12689428D01*
X2814048Y-12689428D02*
X2804524Y-12651333D01*
X2804524Y-12651333D02*
X2804524Y-12603714D01*
X2804524Y-12603714D02*
X2814048Y-12565619D01*
X2814048Y-12565619D02*
X2823572Y-12546571D01*
X2823572Y-12546571D02*
X2833095Y-12537048D01*
X2833095Y-12537048D02*
X2852143Y-12527524D01*
X3109286Y-12727524D02*
X2995000Y-12727524D01*
X3052143Y-12727524D02*
X3052143Y-12527524D01*
X3052143Y-12527524D02*
X3033095Y-12556095D01*
X3033095Y-12556095D02*
X3014048Y-12575143D01*
X3014048Y-12575143D02*
X2995000Y-12584667D01*
X3185476Y-12527524D02*
X3185476Y-12565619D01*
X3261667Y-12527524D02*
X3261667Y-12565619D01*
X3556905Y-12803714D02*
X3547381Y-12794190D01*
X3547381Y-12794190D02*
X3528334Y-12765619D01*
X3528334Y-12765619D02*
X3518810Y-12746571D01*
X3518810Y-12746571D02*
X3509286Y-12718000D01*
X3509286Y-12718000D02*
X3499762Y-12670381D01*
X3499762Y-12670381D02*
X3499762Y-12632286D01*
X3499762Y-12632286D02*
X3509286Y-12584667D01*
X3509286Y-12584667D02*
X3518810Y-12556095D01*
X3518810Y-12556095D02*
X3528334Y-12537048D01*
X3528334Y-12537048D02*
X3547381Y-12508476D01*
X3547381Y-12508476D02*
X3556905Y-12498952D01*
X3737857Y-12727524D02*
X3623572Y-12727524D01*
X3680714Y-12727524D02*
X3680714Y-12527524D01*
X3680714Y-12527524D02*
X3661667Y-12556095D01*
X3661667Y-12556095D02*
X3642619Y-12575143D01*
X3642619Y-12575143D02*
X3623572Y-12584667D01*
X3814048Y-12546571D02*
X3823572Y-12537048D01*
X3823572Y-12537048D02*
X3842619Y-12527524D01*
X3842619Y-12527524D02*
X3890238Y-12527524D01*
X3890238Y-12527524D02*
X3909286Y-12537048D01*
X3909286Y-12537048D02*
X3918810Y-12546571D01*
X3918810Y-12546571D02*
X3928334Y-12565619D01*
X3928334Y-12565619D02*
X3928334Y-12584667D01*
X3928334Y-12584667D02*
X3918810Y-12613238D01*
X3918810Y-12613238D02*
X3804524Y-12727524D01*
X3804524Y-12727524D02*
X3928334Y-12727524D01*
X4166429Y-12727524D02*
X4166429Y-12527524D01*
X4252143Y-12727524D02*
X4252143Y-12622762D01*
X4252143Y-12622762D02*
X4242619Y-12603714D01*
X4242619Y-12603714D02*
X4223572Y-12594190D01*
X4223572Y-12594190D02*
X4195000Y-12594190D01*
X4195000Y-12594190D02*
X4175953Y-12603714D01*
X4175953Y-12603714D02*
X4166429Y-12613238D01*
X4375953Y-12727524D02*
X4356905Y-12718000D01*
X4356905Y-12718000D02*
X4347381Y-12708476D01*
X4347381Y-12708476D02*
X4337858Y-12689428D01*
X4337858Y-12689428D02*
X4337858Y-12632286D01*
X4337858Y-12632286D02*
X4347381Y-12613238D01*
X4347381Y-12613238D02*
X4356905Y-12603714D01*
X4356905Y-12603714D02*
X4375953Y-12594190D01*
X4375953Y-12594190D02*
X4404524Y-12594190D01*
X4404524Y-12594190D02*
X4423572Y-12603714D01*
X4423572Y-12603714D02*
X4433096Y-12613238D01*
X4433096Y-12613238D02*
X4442619Y-12632286D01*
X4442619Y-12632286D02*
X4442619Y-12689428D01*
X4442619Y-12689428D02*
X4433096Y-12708476D01*
X4433096Y-12708476D02*
X4423572Y-12718000D01*
X4423572Y-12718000D02*
X4404524Y-12727524D01*
X4404524Y-12727524D02*
X4375953Y-12727524D01*
X4556905Y-12727524D02*
X4537858Y-12718000D01*
X4537858Y-12718000D02*
X4528334Y-12698952D01*
X4528334Y-12698952D02*
X4528334Y-12527524D01*
X4709286Y-12718000D02*
X4690239Y-12727524D01*
X4690239Y-12727524D02*
X4652143Y-12727524D01*
X4652143Y-12727524D02*
X4633096Y-12718000D01*
X4633096Y-12718000D02*
X4623572Y-12698952D01*
X4623572Y-12698952D02*
X4623572Y-12622762D01*
X4623572Y-12622762D02*
X4633096Y-12603714D01*
X4633096Y-12603714D02*
X4652143Y-12594190D01*
X4652143Y-12594190D02*
X4690239Y-12594190D01*
X4690239Y-12594190D02*
X4709286Y-12603714D01*
X4709286Y-12603714D02*
X4718810Y-12622762D01*
X4718810Y-12622762D02*
X4718810Y-12641809D01*
X4718810Y-12641809D02*
X4623572Y-12660857D01*
X4795000Y-12718000D02*
X4814048Y-12727524D01*
X4814048Y-12727524D02*
X4852143Y-12727524D01*
X4852143Y-12727524D02*
X4871191Y-12718000D01*
X4871191Y-12718000D02*
X4880715Y-12698952D01*
X4880715Y-12698952D02*
X4880715Y-12689428D01*
X4880715Y-12689428D02*
X4871191Y-12670381D01*
X4871191Y-12670381D02*
X4852143Y-12660857D01*
X4852143Y-12660857D02*
X4823572Y-12660857D01*
X4823572Y-12660857D02*
X4804524Y-12651333D01*
X4804524Y-12651333D02*
X4795000Y-12632286D01*
X4795000Y-12632286D02*
X4795000Y-12622762D01*
X4795000Y-12622762D02*
X4804524Y-12603714D01*
X4804524Y-12603714D02*
X4823572Y-12594190D01*
X4823572Y-12594190D02*
X4852143Y-12594190D01*
X4852143Y-12594190D02*
X4871191Y-12603714D01*
X4947381Y-12803714D02*
X4956905Y-12794190D01*
X4956905Y-12794190D02*
X4975953Y-12765619D01*
X4975953Y-12765619D02*
X4985477Y-12746571D01*
X4985477Y-12746571D02*
X4995000Y-12718000D01*
X4995000Y-12718000D02*
X5004524Y-12670381D01*
X5004524Y-12670381D02*
X5004524Y-12632286D01*
X5004524Y-12632286D02*
X4995000Y-12584667D01*
X4995000Y-12584667D02*
X4985477Y-12556095D01*
X4985477Y-12556095D02*
X4975953Y-12537048D01*
X4975953Y-12537048D02*
X4956905Y-12508476D01*
X4956905Y-12508476D02*
X4947381Y-12498952D01*
X5309286Y-12803714D02*
X5299762Y-12794190D01*
X5299762Y-12794190D02*
X5280715Y-12765619D01*
X5280715Y-12765619D02*
X5271191Y-12746571D01*
X5271191Y-12746571D02*
X5261667Y-12718000D01*
X5261667Y-12718000D02*
X5252143Y-12670381D01*
X5252143Y-12670381D02*
X5252143Y-12632286D01*
X5252143Y-12632286D02*
X5261667Y-12584667D01*
X5261667Y-12584667D02*
X5271191Y-12556095D01*
X5271191Y-12556095D02*
X5280715Y-12537048D01*
X5280715Y-12537048D02*
X5299762Y-12508476D01*
X5299762Y-12508476D02*
X5309286Y-12498952D01*
X5385477Y-12594190D02*
X5385477Y-12727524D01*
X5385477Y-12613238D02*
X5395000Y-12603714D01*
X5395000Y-12603714D02*
X5414048Y-12594190D01*
X5414048Y-12594190D02*
X5442620Y-12594190D01*
X5442620Y-12594190D02*
X5461667Y-12603714D01*
X5461667Y-12603714D02*
X5471191Y-12622762D01*
X5471191Y-12622762D02*
X5471191Y-12727524D01*
X5595000Y-12727524D02*
X5575953Y-12718000D01*
X5575953Y-12718000D02*
X5566429Y-12708476D01*
X5566429Y-12708476D02*
X5556905Y-12689428D01*
X5556905Y-12689428D02*
X5556905Y-12632286D01*
X5556905Y-12632286D02*
X5566429Y-12613238D01*
X5566429Y-12613238D02*
X5575953Y-12603714D01*
X5575953Y-12603714D02*
X5595000Y-12594190D01*
X5595000Y-12594190D02*
X5623572Y-12594190D01*
X5623572Y-12594190D02*
X5642619Y-12603714D01*
X5642619Y-12603714D02*
X5652143Y-12613238D01*
X5652143Y-12613238D02*
X5661667Y-12632286D01*
X5661667Y-12632286D02*
X5661667Y-12689428D01*
X5661667Y-12689428D02*
X5652143Y-12708476D01*
X5652143Y-12708476D02*
X5642619Y-12718000D01*
X5642619Y-12718000D02*
X5623572Y-12727524D01*
X5623572Y-12727524D02*
X5595000Y-12727524D01*
X5718810Y-12594190D02*
X5795000Y-12594190D01*
X5747381Y-12527524D02*
X5747381Y-12698952D01*
X5747381Y-12698952D02*
X5756905Y-12718000D01*
X5756905Y-12718000D02*
X5775953Y-12727524D01*
X5775953Y-12727524D02*
X5795000Y-12727524D01*
X6014048Y-12594190D02*
X6014048Y-12794190D01*
X6014048Y-12603714D02*
X6033096Y-12594190D01*
X6033096Y-12594190D02*
X6071191Y-12594190D01*
X6071191Y-12594190D02*
X6090239Y-12603714D01*
X6090239Y-12603714D02*
X6099762Y-12613238D01*
X6099762Y-12613238D02*
X6109286Y-12632286D01*
X6109286Y-12632286D02*
X6109286Y-12689428D01*
X6109286Y-12689428D02*
X6099762Y-12708476D01*
X6099762Y-12708476D02*
X6090239Y-12718000D01*
X6090239Y-12718000D02*
X6071191Y-12727524D01*
X6071191Y-12727524D02*
X6033096Y-12727524D01*
X6033096Y-12727524D02*
X6014048Y-12718000D01*
X6223572Y-12727524D02*
X6204524Y-12718000D01*
X6204524Y-12718000D02*
X6195000Y-12698952D01*
X6195000Y-12698952D02*
X6195000Y-12527524D01*
X6385477Y-12727524D02*
X6385477Y-12622762D01*
X6385477Y-12622762D02*
X6375953Y-12603714D01*
X6375953Y-12603714D02*
X6356905Y-12594190D01*
X6356905Y-12594190D02*
X6318810Y-12594190D01*
X6318810Y-12594190D02*
X6299762Y-12603714D01*
X6385477Y-12718000D02*
X6366429Y-12727524D01*
X6366429Y-12727524D02*
X6318810Y-12727524D01*
X6318810Y-12727524D02*
X6299762Y-12718000D01*
X6299762Y-12718000D02*
X6290239Y-12698952D01*
X6290239Y-12698952D02*
X6290239Y-12679905D01*
X6290239Y-12679905D02*
X6299762Y-12660857D01*
X6299762Y-12660857D02*
X6318810Y-12651333D01*
X6318810Y-12651333D02*
X6366429Y-12651333D01*
X6366429Y-12651333D02*
X6385477Y-12641809D01*
X6452143Y-12594190D02*
X6528334Y-12594190D01*
X6480715Y-12527524D02*
X6480715Y-12698952D01*
X6480715Y-12698952D02*
X6490239Y-12718000D01*
X6490239Y-12718000D02*
X6509286Y-12727524D01*
X6509286Y-12727524D02*
X6528334Y-12727524D01*
X6671191Y-12718000D02*
X6652143Y-12727524D01*
X6652143Y-12727524D02*
X6614048Y-12727524D01*
X6614048Y-12727524D02*
X6595000Y-12718000D01*
X6595000Y-12718000D02*
X6585477Y-12698952D01*
X6585477Y-12698952D02*
X6585477Y-12622762D01*
X6585477Y-12622762D02*
X6595000Y-12603714D01*
X6595000Y-12603714D02*
X6614048Y-12594190D01*
X6614048Y-12594190D02*
X6652143Y-12594190D01*
X6652143Y-12594190D02*
X6671191Y-12603714D01*
X6671191Y-12603714D02*
X6680715Y-12622762D01*
X6680715Y-12622762D02*
X6680715Y-12641809D01*
X6680715Y-12641809D02*
X6585477Y-12660857D01*
X6852143Y-12727524D02*
X6852143Y-12527524D01*
X6852143Y-12718000D02*
X6833096Y-12727524D01*
X6833096Y-12727524D02*
X6795000Y-12727524D01*
X6795000Y-12727524D02*
X6775953Y-12718000D01*
X6775953Y-12718000D02*
X6766429Y-12708476D01*
X6766429Y-12708476D02*
X6756905Y-12689428D01*
X6756905Y-12689428D02*
X6756905Y-12632286D01*
X6756905Y-12632286D02*
X6766429Y-12613238D01*
X6766429Y-12613238D02*
X6775953Y-12603714D01*
X6775953Y-12603714D02*
X6795000Y-12594190D01*
X6795000Y-12594190D02*
X6833096Y-12594190D01*
X6833096Y-12594190D02*
X6852143Y-12603714D01*
X6928334Y-12803714D02*
X6937858Y-12794190D01*
X6937858Y-12794190D02*
X6956905Y-12765619D01*
X6956905Y-12765619D02*
X6966429Y-12746571D01*
X6966429Y-12746571D02*
X6975953Y-12718000D01*
X6975953Y-12718000D02*
X6985477Y-12670381D01*
X6985477Y-12670381D02*
X6985477Y-12632286D01*
X6985477Y-12632286D02*
X6975953Y-12584667D01*
X6975953Y-12584667D02*
X6966429Y-12556095D01*
X6966429Y-12556095D02*
X6956905Y-12537048D01*
X6956905Y-12537048D02*
X6937858Y-12508476D01*
X6937858Y-12508476D02*
X6928334Y-12498952D01*
X-105000Y-12855000D02*
X-105000Y-13055000D01*
X-205000Y-12955000D02*
X-5000Y-12955000D01*
X223571Y-12847524D02*
X347381Y-12847524D01*
X347381Y-12847524D02*
X280714Y-12923714D01*
X280714Y-12923714D02*
X309286Y-12923714D01*
X309286Y-12923714D02*
X328333Y-12933238D01*
X328333Y-12933238D02*
X337857Y-12942762D01*
X337857Y-12942762D02*
X347381Y-12961809D01*
X347381Y-12961809D02*
X347381Y-13009428D01*
X347381Y-13009428D02*
X337857Y-13028476D01*
X337857Y-13028476D02*
X328333Y-13038000D01*
X328333Y-13038000D02*
X309286Y-13047524D01*
X309286Y-13047524D02*
X252143Y-13047524D01*
X252143Y-13047524D02*
X233095Y-13038000D01*
X233095Y-13038000D02*
X223571Y-13028476D01*
X433095Y-13028476D02*
X442619Y-13038000D01*
X442619Y-13038000D02*
X433095Y-13047524D01*
X433095Y-13047524D02*
X423571Y-13038000D01*
X423571Y-13038000D02*
X433095Y-13028476D01*
X433095Y-13028476D02*
X433095Y-13047524D01*
X518809Y-12866571D02*
X528333Y-12857048D01*
X528333Y-12857048D02*
X547381Y-12847524D01*
X547381Y-12847524D02*
X595000Y-12847524D01*
X595000Y-12847524D02*
X614048Y-12857048D01*
X614048Y-12857048D02*
X623571Y-12866571D01*
X623571Y-12866571D02*
X633095Y-12885619D01*
X633095Y-12885619D02*
X633095Y-12904667D01*
X633095Y-12904667D02*
X623571Y-12933238D01*
X623571Y-12933238D02*
X509286Y-13047524D01*
X509286Y-13047524D02*
X633095Y-13047524D01*
X756905Y-12847524D02*
X775952Y-12847524D01*
X775952Y-12847524D02*
X795000Y-12857048D01*
X795000Y-12857048D02*
X804524Y-12866571D01*
X804524Y-12866571D02*
X814048Y-12885619D01*
X814048Y-12885619D02*
X823571Y-12923714D01*
X823571Y-12923714D02*
X823571Y-12971333D01*
X823571Y-12971333D02*
X814048Y-13009428D01*
X814048Y-13009428D02*
X804524Y-13028476D01*
X804524Y-13028476D02*
X795000Y-13038000D01*
X795000Y-13038000D02*
X775952Y-13047524D01*
X775952Y-13047524D02*
X756905Y-13047524D01*
X756905Y-13047524D02*
X737857Y-13038000D01*
X737857Y-13038000D02*
X728333Y-13028476D01*
X728333Y-13028476D02*
X718809Y-13009428D01*
X718809Y-13009428D02*
X709286Y-12971333D01*
X709286Y-12971333D02*
X709286Y-12923714D01*
X709286Y-12923714D02*
X718809Y-12885619D01*
X718809Y-12885619D02*
X728333Y-12866571D01*
X728333Y-12866571D02*
X737857Y-12857048D01*
X737857Y-12857048D02*
X756905Y-12847524D01*
X947381Y-12847524D02*
X966429Y-12847524D01*
X966429Y-12847524D02*
X985476Y-12857048D01*
X985476Y-12857048D02*
X995000Y-12866571D01*
X995000Y-12866571D02*
X1004524Y-12885619D01*
X1004524Y-12885619D02*
X1014048Y-12923714D01*
X1014048Y-12923714D02*
X1014048Y-12971333D01*
X1014048Y-12971333D02*
X1004524Y-13009428D01*
X1004524Y-13009428D02*
X995000Y-13028476D01*
X995000Y-13028476D02*
X985476Y-13038000D01*
X985476Y-13038000D02*
X966429Y-13047524D01*
X966429Y-13047524D02*
X947381Y-13047524D01*
X947381Y-13047524D02*
X928333Y-13038000D01*
X928333Y-13038000D02*
X918809Y-13028476D01*
X918809Y-13028476D02*
X909286Y-13009428D01*
X909286Y-13009428D02*
X899762Y-12971333D01*
X899762Y-12971333D02*
X899762Y-12923714D01*
X899762Y-12923714D02*
X909286Y-12885619D01*
X909286Y-12885619D02*
X918809Y-12866571D01*
X918809Y-12866571D02*
X928333Y-12857048D01*
X928333Y-12857048D02*
X947381Y-12847524D01*
X1099762Y-13047524D02*
X1099762Y-12914190D01*
X1099762Y-12933238D02*
X1109286Y-12923714D01*
X1109286Y-12923714D02*
X1128333Y-12914190D01*
X1128333Y-12914190D02*
X1156905Y-12914190D01*
X1156905Y-12914190D02*
X1175952Y-12923714D01*
X1175952Y-12923714D02*
X1185476Y-12942762D01*
X1185476Y-12942762D02*
X1185476Y-13047524D01*
X1185476Y-12942762D02*
X1195000Y-12923714D01*
X1195000Y-12923714D02*
X1214048Y-12914190D01*
X1214048Y-12914190D02*
X1242619Y-12914190D01*
X1242619Y-12914190D02*
X1261667Y-12923714D01*
X1261667Y-12923714D02*
X1271191Y-12942762D01*
X1271191Y-12942762D02*
X1271191Y-13047524D01*
X1366429Y-13047524D02*
X1366429Y-12914190D01*
X1366429Y-12933238D02*
X1375952Y-12923714D01*
X1375952Y-12923714D02*
X1395000Y-12914190D01*
X1395000Y-12914190D02*
X1423571Y-12914190D01*
X1423571Y-12914190D02*
X1442619Y-12923714D01*
X1442619Y-12923714D02*
X1452143Y-12942762D01*
X1452143Y-12942762D02*
X1452143Y-13047524D01*
X1452143Y-12942762D02*
X1461667Y-12923714D01*
X1461667Y-12923714D02*
X1480714Y-12914190D01*
X1480714Y-12914190D02*
X1509286Y-12914190D01*
X1509286Y-12914190D02*
X1528333Y-12923714D01*
X1528333Y-12923714D02*
X1537857Y-12942762D01*
X1537857Y-12942762D02*
X1537857Y-13047524D01*
X1928333Y-12838000D02*
X1756905Y-13095143D01*
X2185476Y-12847524D02*
X2204524Y-12847524D01*
X2204524Y-12847524D02*
X2223572Y-12857048D01*
X2223572Y-12857048D02*
X2233095Y-12866571D01*
X2233095Y-12866571D02*
X2242619Y-12885619D01*
X2242619Y-12885619D02*
X2252143Y-12923714D01*
X2252143Y-12923714D02*
X2252143Y-12971333D01*
X2252143Y-12971333D02*
X2242619Y-13009428D01*
X2242619Y-13009428D02*
X2233095Y-13028476D01*
X2233095Y-13028476D02*
X2223572Y-13038000D01*
X2223572Y-13038000D02*
X2204524Y-13047524D01*
X2204524Y-13047524D02*
X2185476Y-13047524D01*
X2185476Y-13047524D02*
X2166429Y-13038000D01*
X2166429Y-13038000D02*
X2156905Y-13028476D01*
X2156905Y-13028476D02*
X2147381Y-13009428D01*
X2147381Y-13009428D02*
X2137857Y-12971333D01*
X2137857Y-12971333D02*
X2137857Y-12923714D01*
X2137857Y-12923714D02*
X2147381Y-12885619D01*
X2147381Y-12885619D02*
X2156905Y-12866571D01*
X2156905Y-12866571D02*
X2166429Y-12857048D01*
X2166429Y-12857048D02*
X2185476Y-12847524D01*
X2337857Y-13028476D02*
X2347381Y-13038000D01*
X2347381Y-13038000D02*
X2337857Y-13047524D01*
X2337857Y-13047524D02*
X2328334Y-13038000D01*
X2328334Y-13038000D02*
X2337857Y-13028476D01*
X2337857Y-13028476D02*
X2337857Y-13047524D01*
X2537857Y-13047524D02*
X2423572Y-13047524D01*
X2480714Y-13047524D02*
X2480714Y-12847524D01*
X2480714Y-12847524D02*
X2461667Y-12876095D01*
X2461667Y-12876095D02*
X2442619Y-12895143D01*
X2442619Y-12895143D02*
X2423572Y-12904667D01*
X2614048Y-12866571D02*
X2623572Y-12857048D01*
X2623572Y-12857048D02*
X2642619Y-12847524D01*
X2642619Y-12847524D02*
X2690238Y-12847524D01*
X2690238Y-12847524D02*
X2709286Y-12857048D01*
X2709286Y-12857048D02*
X2718810Y-12866571D01*
X2718810Y-12866571D02*
X2728334Y-12885619D01*
X2728334Y-12885619D02*
X2728334Y-12904667D01*
X2728334Y-12904667D02*
X2718810Y-12933238D01*
X2718810Y-12933238D02*
X2604524Y-13047524D01*
X2604524Y-13047524D02*
X2728334Y-13047524D01*
X2899762Y-12847524D02*
X2861667Y-12847524D01*
X2861667Y-12847524D02*
X2842619Y-12857048D01*
X2842619Y-12857048D02*
X2833095Y-12866571D01*
X2833095Y-12866571D02*
X2814048Y-12895143D01*
X2814048Y-12895143D02*
X2804524Y-12933238D01*
X2804524Y-12933238D02*
X2804524Y-13009428D01*
X2804524Y-13009428D02*
X2814048Y-13028476D01*
X2814048Y-13028476D02*
X2823572Y-13038000D01*
X2823572Y-13038000D02*
X2842619Y-13047524D01*
X2842619Y-13047524D02*
X2880714Y-13047524D01*
X2880714Y-13047524D02*
X2899762Y-13038000D01*
X2899762Y-13038000D02*
X2909286Y-13028476D01*
X2909286Y-13028476D02*
X2918810Y-13009428D01*
X2918810Y-13009428D02*
X2918810Y-12961809D01*
X2918810Y-12961809D02*
X2909286Y-12942762D01*
X2909286Y-12942762D02*
X2899762Y-12933238D01*
X2899762Y-12933238D02*
X2880714Y-12923714D01*
X2880714Y-12923714D02*
X2842619Y-12923714D01*
X2842619Y-12923714D02*
X2823572Y-12933238D01*
X2823572Y-12933238D02*
X2814048Y-12942762D01*
X2814048Y-12942762D02*
X2804524Y-12961809D01*
X3042619Y-12847524D02*
X3061667Y-12847524D01*
X3061667Y-12847524D02*
X3080714Y-12857048D01*
X3080714Y-12857048D02*
X3090238Y-12866571D01*
X3090238Y-12866571D02*
X3099762Y-12885619D01*
X3099762Y-12885619D02*
X3109286Y-12923714D01*
X3109286Y-12923714D02*
X3109286Y-12971333D01*
X3109286Y-12971333D02*
X3099762Y-13009428D01*
X3099762Y-13009428D02*
X3090238Y-13028476D01*
X3090238Y-13028476D02*
X3080714Y-13038000D01*
X3080714Y-13038000D02*
X3061667Y-13047524D01*
X3061667Y-13047524D02*
X3042619Y-13047524D01*
X3042619Y-13047524D02*
X3023572Y-13038000D01*
X3023572Y-13038000D02*
X3014048Y-13028476D01*
X3014048Y-13028476D02*
X3004524Y-13009428D01*
X3004524Y-13009428D02*
X2995000Y-12971333D01*
X2995000Y-12971333D02*
X2995000Y-12923714D01*
X2995000Y-12923714D02*
X3004524Y-12885619D01*
X3004524Y-12885619D02*
X3014048Y-12866571D01*
X3014048Y-12866571D02*
X3023572Y-12857048D01*
X3023572Y-12857048D02*
X3042619Y-12847524D01*
X3185476Y-12847524D02*
X3185476Y-12885619D01*
X3261667Y-12847524D02*
X3261667Y-12885619D01*
X3556905Y-13123714D02*
X3547381Y-13114190D01*
X3547381Y-13114190D02*
X3528334Y-13085619D01*
X3528334Y-13085619D02*
X3518810Y-13066571D01*
X3518810Y-13066571D02*
X3509286Y-13038000D01*
X3509286Y-13038000D02*
X3499762Y-12990381D01*
X3499762Y-12990381D02*
X3499762Y-12952286D01*
X3499762Y-12952286D02*
X3509286Y-12904667D01*
X3509286Y-12904667D02*
X3518810Y-12876095D01*
X3518810Y-12876095D02*
X3528334Y-12857048D01*
X3528334Y-12857048D02*
X3547381Y-12828476D01*
X3547381Y-12828476D02*
X3556905Y-12818952D01*
X3661667Y-12933238D02*
X3642619Y-12923714D01*
X3642619Y-12923714D02*
X3633095Y-12914190D01*
X3633095Y-12914190D02*
X3623572Y-12895143D01*
X3623572Y-12895143D02*
X3623572Y-12885619D01*
X3623572Y-12885619D02*
X3633095Y-12866571D01*
X3633095Y-12866571D02*
X3642619Y-12857048D01*
X3642619Y-12857048D02*
X3661667Y-12847524D01*
X3661667Y-12847524D02*
X3699762Y-12847524D01*
X3699762Y-12847524D02*
X3718810Y-12857048D01*
X3718810Y-12857048D02*
X3728334Y-12866571D01*
X3728334Y-12866571D02*
X3737857Y-12885619D01*
X3737857Y-12885619D02*
X3737857Y-12895143D01*
X3737857Y-12895143D02*
X3728334Y-12914190D01*
X3728334Y-12914190D02*
X3718810Y-12923714D01*
X3718810Y-12923714D02*
X3699762Y-12933238D01*
X3699762Y-12933238D02*
X3661667Y-12933238D01*
X3661667Y-12933238D02*
X3642619Y-12942762D01*
X3642619Y-12942762D02*
X3633095Y-12952286D01*
X3633095Y-12952286D02*
X3623572Y-12971333D01*
X3623572Y-12971333D02*
X3623572Y-13009428D01*
X3623572Y-13009428D02*
X3633095Y-13028476D01*
X3633095Y-13028476D02*
X3642619Y-13038000D01*
X3642619Y-13038000D02*
X3661667Y-13047524D01*
X3661667Y-13047524D02*
X3699762Y-13047524D01*
X3699762Y-13047524D02*
X3718810Y-13038000D01*
X3718810Y-13038000D02*
X3728334Y-13028476D01*
X3728334Y-13028476D02*
X3737857Y-13009428D01*
X3737857Y-13009428D02*
X3737857Y-12971333D01*
X3737857Y-12971333D02*
X3728334Y-12952286D01*
X3728334Y-12952286D02*
X3718810Y-12942762D01*
X3718810Y-12942762D02*
X3699762Y-12933238D01*
X3975953Y-13047524D02*
X3975953Y-12847524D01*
X4061667Y-13047524D02*
X4061667Y-12942762D01*
X4061667Y-12942762D02*
X4052143Y-12923714D01*
X4052143Y-12923714D02*
X4033096Y-12914190D01*
X4033096Y-12914190D02*
X4004524Y-12914190D01*
X4004524Y-12914190D02*
X3985476Y-12923714D01*
X3985476Y-12923714D02*
X3975953Y-12933238D01*
X4185476Y-13047524D02*
X4166429Y-13038000D01*
X4166429Y-13038000D02*
X4156905Y-13028476D01*
X4156905Y-13028476D02*
X4147381Y-13009428D01*
X4147381Y-13009428D02*
X4147381Y-12952286D01*
X4147381Y-12952286D02*
X4156905Y-12933238D01*
X4156905Y-12933238D02*
X4166429Y-12923714D01*
X4166429Y-12923714D02*
X4185476Y-12914190D01*
X4185476Y-12914190D02*
X4214048Y-12914190D01*
X4214048Y-12914190D02*
X4233096Y-12923714D01*
X4233096Y-12923714D02*
X4242619Y-12933238D01*
X4242619Y-12933238D02*
X4252143Y-12952286D01*
X4252143Y-12952286D02*
X4252143Y-13009428D01*
X4252143Y-13009428D02*
X4242619Y-13028476D01*
X4242619Y-13028476D02*
X4233096Y-13038000D01*
X4233096Y-13038000D02*
X4214048Y-13047524D01*
X4214048Y-13047524D02*
X4185476Y-13047524D01*
X4366429Y-13047524D02*
X4347381Y-13038000D01*
X4347381Y-13038000D02*
X4337858Y-13018952D01*
X4337858Y-13018952D02*
X4337858Y-12847524D01*
X4518810Y-13038000D02*
X4499762Y-13047524D01*
X4499762Y-13047524D02*
X4461667Y-13047524D01*
X4461667Y-13047524D02*
X4442619Y-13038000D01*
X4442619Y-13038000D02*
X4433096Y-13018952D01*
X4433096Y-13018952D02*
X4433096Y-12942762D01*
X4433096Y-12942762D02*
X4442619Y-12923714D01*
X4442619Y-12923714D02*
X4461667Y-12914190D01*
X4461667Y-12914190D02*
X4499762Y-12914190D01*
X4499762Y-12914190D02*
X4518810Y-12923714D01*
X4518810Y-12923714D02*
X4528334Y-12942762D01*
X4528334Y-12942762D02*
X4528334Y-12961809D01*
X4528334Y-12961809D02*
X4433096Y-12980857D01*
X4604524Y-13038000D02*
X4623572Y-13047524D01*
X4623572Y-13047524D02*
X4661667Y-13047524D01*
X4661667Y-13047524D02*
X4680715Y-13038000D01*
X4680715Y-13038000D02*
X4690239Y-13018952D01*
X4690239Y-13018952D02*
X4690239Y-13009428D01*
X4690239Y-13009428D02*
X4680715Y-12990381D01*
X4680715Y-12990381D02*
X4661667Y-12980857D01*
X4661667Y-12980857D02*
X4633096Y-12980857D01*
X4633096Y-12980857D02*
X4614048Y-12971333D01*
X4614048Y-12971333D02*
X4604524Y-12952286D01*
X4604524Y-12952286D02*
X4604524Y-12942762D01*
X4604524Y-12942762D02*
X4614048Y-12923714D01*
X4614048Y-12923714D02*
X4633096Y-12914190D01*
X4633096Y-12914190D02*
X4661667Y-12914190D01*
X4661667Y-12914190D02*
X4680715Y-12923714D01*
X4756905Y-13123714D02*
X4766429Y-13114190D01*
X4766429Y-13114190D02*
X4785477Y-13085619D01*
X4785477Y-13085619D02*
X4795000Y-13066571D01*
X4795000Y-13066571D02*
X4804524Y-13038000D01*
X4804524Y-13038000D02*
X4814048Y-12990381D01*
X4814048Y-12990381D02*
X4814048Y-12952286D01*
X4814048Y-12952286D02*
X4804524Y-12904667D01*
X4804524Y-12904667D02*
X4795000Y-12876095D01*
X4795000Y-12876095D02*
X4785477Y-12857048D01*
X4785477Y-12857048D02*
X4766429Y-12828476D01*
X4766429Y-12828476D02*
X4756905Y-12818952D01*
X5118810Y-13123714D02*
X5109286Y-13114190D01*
X5109286Y-13114190D02*
X5090239Y-13085619D01*
X5090239Y-13085619D02*
X5080715Y-13066571D01*
X5080715Y-13066571D02*
X5071191Y-13038000D01*
X5071191Y-13038000D02*
X5061667Y-12990381D01*
X5061667Y-12990381D02*
X5061667Y-12952286D01*
X5061667Y-12952286D02*
X5071191Y-12904667D01*
X5071191Y-12904667D02*
X5080715Y-12876095D01*
X5080715Y-12876095D02*
X5090239Y-12857048D01*
X5090239Y-12857048D02*
X5109286Y-12828476D01*
X5109286Y-12828476D02*
X5118810Y-12818952D01*
X5195000Y-12914190D02*
X5195000Y-13047524D01*
X5195000Y-12933238D02*
X5204524Y-12923714D01*
X5204524Y-12923714D02*
X5223572Y-12914190D01*
X5223572Y-12914190D02*
X5252143Y-12914190D01*
X5252143Y-12914190D02*
X5271191Y-12923714D01*
X5271191Y-12923714D02*
X5280715Y-12942762D01*
X5280715Y-12942762D02*
X5280715Y-13047524D01*
X5404524Y-13047524D02*
X5385477Y-13038000D01*
X5385477Y-13038000D02*
X5375953Y-13028476D01*
X5375953Y-13028476D02*
X5366429Y-13009428D01*
X5366429Y-13009428D02*
X5366429Y-12952286D01*
X5366429Y-12952286D02*
X5375953Y-12933238D01*
X5375953Y-12933238D02*
X5385477Y-12923714D01*
X5385477Y-12923714D02*
X5404524Y-12914190D01*
X5404524Y-12914190D02*
X5433096Y-12914190D01*
X5433096Y-12914190D02*
X5452143Y-12923714D01*
X5452143Y-12923714D02*
X5461667Y-12933238D01*
X5461667Y-12933238D02*
X5471191Y-12952286D01*
X5471191Y-12952286D02*
X5471191Y-13009428D01*
X5471191Y-13009428D02*
X5461667Y-13028476D01*
X5461667Y-13028476D02*
X5452143Y-13038000D01*
X5452143Y-13038000D02*
X5433096Y-13047524D01*
X5433096Y-13047524D02*
X5404524Y-13047524D01*
X5528334Y-12914190D02*
X5604524Y-12914190D01*
X5556905Y-12847524D02*
X5556905Y-13018952D01*
X5556905Y-13018952D02*
X5566429Y-13038000D01*
X5566429Y-13038000D02*
X5585477Y-13047524D01*
X5585477Y-13047524D02*
X5604524Y-13047524D01*
X5823572Y-12914190D02*
X5823572Y-13114190D01*
X5823572Y-12923714D02*
X5842619Y-12914190D01*
X5842619Y-12914190D02*
X5880715Y-12914190D01*
X5880715Y-12914190D02*
X5899762Y-12923714D01*
X5899762Y-12923714D02*
X5909286Y-12933238D01*
X5909286Y-12933238D02*
X5918810Y-12952286D01*
X5918810Y-12952286D02*
X5918810Y-13009428D01*
X5918810Y-13009428D02*
X5909286Y-13028476D01*
X5909286Y-13028476D02*
X5899762Y-13038000D01*
X5899762Y-13038000D02*
X5880715Y-13047524D01*
X5880715Y-13047524D02*
X5842619Y-13047524D01*
X5842619Y-13047524D02*
X5823572Y-13038000D01*
X6033096Y-13047524D02*
X6014048Y-13038000D01*
X6014048Y-13038000D02*
X6004524Y-13018952D01*
X6004524Y-13018952D02*
X6004524Y-12847524D01*
X6195000Y-13047524D02*
X6195000Y-12942762D01*
X6195000Y-12942762D02*
X6185477Y-12923714D01*
X6185477Y-12923714D02*
X6166429Y-12914190D01*
X6166429Y-12914190D02*
X6128334Y-12914190D01*
X6128334Y-12914190D02*
X6109286Y-12923714D01*
X6195000Y-13038000D02*
X6175953Y-13047524D01*
X6175953Y-13047524D02*
X6128334Y-13047524D01*
X6128334Y-13047524D02*
X6109286Y-13038000D01*
X6109286Y-13038000D02*
X6099762Y-13018952D01*
X6099762Y-13018952D02*
X6099762Y-12999905D01*
X6099762Y-12999905D02*
X6109286Y-12980857D01*
X6109286Y-12980857D02*
X6128334Y-12971333D01*
X6128334Y-12971333D02*
X6175953Y-12971333D01*
X6175953Y-12971333D02*
X6195000Y-12961809D01*
X6261667Y-12914190D02*
X6337858Y-12914190D01*
X6290239Y-12847524D02*
X6290239Y-13018952D01*
X6290239Y-13018952D02*
X6299762Y-13038000D01*
X6299762Y-13038000D02*
X6318810Y-13047524D01*
X6318810Y-13047524D02*
X6337858Y-13047524D01*
X6480715Y-13038000D02*
X6461667Y-13047524D01*
X6461667Y-13047524D02*
X6423572Y-13047524D01*
X6423572Y-13047524D02*
X6404524Y-13038000D01*
X6404524Y-13038000D02*
X6395000Y-13018952D01*
X6395000Y-13018952D02*
X6395000Y-12942762D01*
X6395000Y-12942762D02*
X6404524Y-12923714D01*
X6404524Y-12923714D02*
X6423572Y-12914190D01*
X6423572Y-12914190D02*
X6461667Y-12914190D01*
X6461667Y-12914190D02*
X6480715Y-12923714D01*
X6480715Y-12923714D02*
X6490239Y-12942762D01*
X6490239Y-12942762D02*
X6490239Y-12961809D01*
X6490239Y-12961809D02*
X6395000Y-12980857D01*
X6661667Y-13047524D02*
X6661667Y-12847524D01*
X6661667Y-13038000D02*
X6642620Y-13047524D01*
X6642620Y-13047524D02*
X6604524Y-13047524D01*
X6604524Y-13047524D02*
X6585477Y-13038000D01*
X6585477Y-13038000D02*
X6575953Y-13028476D01*
X6575953Y-13028476D02*
X6566429Y-13009428D01*
X6566429Y-13009428D02*
X6566429Y-12952286D01*
X6566429Y-12952286D02*
X6575953Y-12933238D01*
X6575953Y-12933238D02*
X6585477Y-12923714D01*
X6585477Y-12923714D02*
X6604524Y-12914190D01*
X6604524Y-12914190D02*
X6642620Y-12914190D01*
X6642620Y-12914190D02*
X6661667Y-12923714D01*
X6737858Y-13123714D02*
X6747381Y-13114190D01*
X6747381Y-13114190D02*
X6766429Y-13085619D01*
X6766429Y-13085619D02*
X6775953Y-13066571D01*
X6775953Y-13066571D02*
X6785477Y-13038000D01*
X6785477Y-13038000D02*
X6795000Y-12990381D01*
X6795000Y-12990381D02*
X6795000Y-12952286D01*
X6795000Y-12952286D02*
X6785477Y-12904667D01*
X6785477Y-12904667D02*
X6775953Y-12876095D01*
X6775953Y-12876095D02*
X6766429Y-12857048D01*
X6766429Y-12857048D02*
X6747381Y-12828476D01*
X6747381Y-12828476D02*
X6737858Y-12818952D01*
X-34289Y-13345711D02*
X-34289Y-13204289D01*
X-175711Y-13204289D01*
X-175711Y-13345711D01*
X-34289Y-13345711D01*
X328333Y-13234190D02*
X328333Y-13367524D01*
X280714Y-13158000D02*
X233095Y-13300857D01*
X233095Y-13300857D02*
X356905Y-13300857D01*
X433095Y-13348476D02*
X442619Y-13358000D01*
X442619Y-13358000D02*
X433095Y-13367524D01*
X433095Y-13367524D02*
X423571Y-13358000D01*
X423571Y-13358000D02*
X433095Y-13348476D01*
X433095Y-13348476D02*
X433095Y-13367524D01*
X566429Y-13167524D02*
X585476Y-13167524D01*
X585476Y-13167524D02*
X604524Y-13177048D01*
X604524Y-13177048D02*
X614048Y-13186571D01*
X614048Y-13186571D02*
X623571Y-13205619D01*
X623571Y-13205619D02*
X633095Y-13243714D01*
X633095Y-13243714D02*
X633095Y-13291333D01*
X633095Y-13291333D02*
X623571Y-13329428D01*
X623571Y-13329428D02*
X614048Y-13348476D01*
X614048Y-13348476D02*
X604524Y-13358000D01*
X604524Y-13358000D02*
X585476Y-13367524D01*
X585476Y-13367524D02*
X566429Y-13367524D01*
X566429Y-13367524D02*
X547381Y-13358000D01*
X547381Y-13358000D02*
X537857Y-13348476D01*
X537857Y-13348476D02*
X528333Y-13329428D01*
X528333Y-13329428D02*
X518809Y-13291333D01*
X518809Y-13291333D02*
X518809Y-13243714D01*
X518809Y-13243714D02*
X528333Y-13205619D01*
X528333Y-13205619D02*
X537857Y-13186571D01*
X537857Y-13186571D02*
X547381Y-13177048D01*
X547381Y-13177048D02*
X566429Y-13167524D01*
X756905Y-13167524D02*
X775952Y-13167524D01*
X775952Y-13167524D02*
X795000Y-13177048D01*
X795000Y-13177048D02*
X804524Y-13186571D01*
X804524Y-13186571D02*
X814048Y-13205619D01*
X814048Y-13205619D02*
X823571Y-13243714D01*
X823571Y-13243714D02*
X823571Y-13291333D01*
X823571Y-13291333D02*
X814048Y-13329428D01*
X814048Y-13329428D02*
X804524Y-13348476D01*
X804524Y-13348476D02*
X795000Y-13358000D01*
X795000Y-13358000D02*
X775952Y-13367524D01*
X775952Y-13367524D02*
X756905Y-13367524D01*
X756905Y-13367524D02*
X737857Y-13358000D01*
X737857Y-13358000D02*
X728333Y-13348476D01*
X728333Y-13348476D02*
X718809Y-13329428D01*
X718809Y-13329428D02*
X709286Y-13291333D01*
X709286Y-13291333D02*
X709286Y-13243714D01*
X709286Y-13243714D02*
X718809Y-13205619D01*
X718809Y-13205619D02*
X728333Y-13186571D01*
X728333Y-13186571D02*
X737857Y-13177048D01*
X737857Y-13177048D02*
X756905Y-13167524D01*
X947381Y-13167524D02*
X966429Y-13167524D01*
X966429Y-13167524D02*
X985476Y-13177048D01*
X985476Y-13177048D02*
X995000Y-13186571D01*
X995000Y-13186571D02*
X1004524Y-13205619D01*
X1004524Y-13205619D02*
X1014048Y-13243714D01*
X1014048Y-13243714D02*
X1014048Y-13291333D01*
X1014048Y-13291333D02*
X1004524Y-13329428D01*
X1004524Y-13329428D02*
X995000Y-13348476D01*
X995000Y-13348476D02*
X985476Y-13358000D01*
X985476Y-13358000D02*
X966429Y-13367524D01*
X966429Y-13367524D02*
X947381Y-13367524D01*
X947381Y-13367524D02*
X928333Y-13358000D01*
X928333Y-13358000D02*
X918809Y-13348476D01*
X918809Y-13348476D02*
X909286Y-13329428D01*
X909286Y-13329428D02*
X899762Y-13291333D01*
X899762Y-13291333D02*
X899762Y-13243714D01*
X899762Y-13243714D02*
X909286Y-13205619D01*
X909286Y-13205619D02*
X918809Y-13186571D01*
X918809Y-13186571D02*
X928333Y-13177048D01*
X928333Y-13177048D02*
X947381Y-13167524D01*
X1099762Y-13367524D02*
X1099762Y-13234190D01*
X1099762Y-13253238D02*
X1109286Y-13243714D01*
X1109286Y-13243714D02*
X1128333Y-13234190D01*
X1128333Y-13234190D02*
X1156905Y-13234190D01*
X1156905Y-13234190D02*
X1175952Y-13243714D01*
X1175952Y-13243714D02*
X1185476Y-13262762D01*
X1185476Y-13262762D02*
X1185476Y-13367524D01*
X1185476Y-13262762D02*
X1195000Y-13243714D01*
X1195000Y-13243714D02*
X1214048Y-13234190D01*
X1214048Y-13234190D02*
X1242619Y-13234190D01*
X1242619Y-13234190D02*
X1261667Y-13243714D01*
X1261667Y-13243714D02*
X1271191Y-13262762D01*
X1271191Y-13262762D02*
X1271191Y-13367524D01*
X1366429Y-13367524D02*
X1366429Y-13234190D01*
X1366429Y-13253238D02*
X1375952Y-13243714D01*
X1375952Y-13243714D02*
X1395000Y-13234190D01*
X1395000Y-13234190D02*
X1423571Y-13234190D01*
X1423571Y-13234190D02*
X1442619Y-13243714D01*
X1442619Y-13243714D02*
X1452143Y-13262762D01*
X1452143Y-13262762D02*
X1452143Y-13367524D01*
X1452143Y-13262762D02*
X1461667Y-13243714D01*
X1461667Y-13243714D02*
X1480714Y-13234190D01*
X1480714Y-13234190D02*
X1509286Y-13234190D01*
X1509286Y-13234190D02*
X1528333Y-13243714D01*
X1528333Y-13243714D02*
X1537857Y-13262762D01*
X1537857Y-13262762D02*
X1537857Y-13367524D01*
X1928333Y-13158000D02*
X1756905Y-13415143D01*
X2185476Y-13167524D02*
X2204524Y-13167524D01*
X2204524Y-13167524D02*
X2223572Y-13177048D01*
X2223572Y-13177048D02*
X2233095Y-13186571D01*
X2233095Y-13186571D02*
X2242619Y-13205619D01*
X2242619Y-13205619D02*
X2252143Y-13243714D01*
X2252143Y-13243714D02*
X2252143Y-13291333D01*
X2252143Y-13291333D02*
X2242619Y-13329428D01*
X2242619Y-13329428D02*
X2233095Y-13348476D01*
X2233095Y-13348476D02*
X2223572Y-13358000D01*
X2223572Y-13358000D02*
X2204524Y-13367524D01*
X2204524Y-13367524D02*
X2185476Y-13367524D01*
X2185476Y-13367524D02*
X2166429Y-13358000D01*
X2166429Y-13358000D02*
X2156905Y-13348476D01*
X2156905Y-13348476D02*
X2147381Y-13329428D01*
X2147381Y-13329428D02*
X2137857Y-13291333D01*
X2137857Y-13291333D02*
X2137857Y-13243714D01*
X2137857Y-13243714D02*
X2147381Y-13205619D01*
X2147381Y-13205619D02*
X2156905Y-13186571D01*
X2156905Y-13186571D02*
X2166429Y-13177048D01*
X2166429Y-13177048D02*
X2185476Y-13167524D01*
X2337857Y-13348476D02*
X2347381Y-13358000D01*
X2347381Y-13358000D02*
X2337857Y-13367524D01*
X2337857Y-13367524D02*
X2328334Y-13358000D01*
X2328334Y-13358000D02*
X2337857Y-13348476D01*
X2337857Y-13348476D02*
X2337857Y-13367524D01*
X2537857Y-13367524D02*
X2423572Y-13367524D01*
X2480714Y-13367524D02*
X2480714Y-13167524D01*
X2480714Y-13167524D02*
X2461667Y-13196095D01*
X2461667Y-13196095D02*
X2442619Y-13215143D01*
X2442619Y-13215143D02*
X2423572Y-13224667D01*
X2718810Y-13167524D02*
X2623572Y-13167524D01*
X2623572Y-13167524D02*
X2614048Y-13262762D01*
X2614048Y-13262762D02*
X2623572Y-13253238D01*
X2623572Y-13253238D02*
X2642619Y-13243714D01*
X2642619Y-13243714D02*
X2690238Y-13243714D01*
X2690238Y-13243714D02*
X2709286Y-13253238D01*
X2709286Y-13253238D02*
X2718810Y-13262762D01*
X2718810Y-13262762D02*
X2728334Y-13281809D01*
X2728334Y-13281809D02*
X2728334Y-13329428D01*
X2728334Y-13329428D02*
X2718810Y-13348476D01*
X2718810Y-13348476D02*
X2709286Y-13358000D01*
X2709286Y-13358000D02*
X2690238Y-13367524D01*
X2690238Y-13367524D02*
X2642619Y-13367524D01*
X2642619Y-13367524D02*
X2623572Y-13358000D01*
X2623572Y-13358000D02*
X2614048Y-13348476D01*
X2795000Y-13167524D02*
X2928333Y-13167524D01*
X2928333Y-13167524D02*
X2842619Y-13367524D01*
X3099762Y-13167524D02*
X3004524Y-13167524D01*
X3004524Y-13167524D02*
X2995000Y-13262762D01*
X2995000Y-13262762D02*
X3004524Y-13253238D01*
X3004524Y-13253238D02*
X3023572Y-13243714D01*
X3023572Y-13243714D02*
X3071191Y-13243714D01*
X3071191Y-13243714D02*
X3090238Y-13253238D01*
X3090238Y-13253238D02*
X3099762Y-13262762D01*
X3099762Y-13262762D02*
X3109286Y-13281809D01*
X3109286Y-13281809D02*
X3109286Y-13329428D01*
X3109286Y-13329428D02*
X3099762Y-13348476D01*
X3099762Y-13348476D02*
X3090238Y-13358000D01*
X3090238Y-13358000D02*
X3071191Y-13367524D01*
X3071191Y-13367524D02*
X3023572Y-13367524D01*
X3023572Y-13367524D02*
X3004524Y-13358000D01*
X3004524Y-13358000D02*
X2995000Y-13348476D01*
X3185476Y-13167524D02*
X3185476Y-13205619D01*
X3261667Y-13167524D02*
X3261667Y-13205619D01*
X3556905Y-13443714D02*
X3547381Y-13434190D01*
X3547381Y-13434190D02*
X3528334Y-13405619D01*
X3528334Y-13405619D02*
X3518810Y-13386571D01*
X3518810Y-13386571D02*
X3509286Y-13358000D01*
X3509286Y-13358000D02*
X3499762Y-13310381D01*
X3499762Y-13310381D02*
X3499762Y-13272286D01*
X3499762Y-13272286D02*
X3509286Y-13224667D01*
X3509286Y-13224667D02*
X3518810Y-13196095D01*
X3518810Y-13196095D02*
X3528334Y-13177048D01*
X3528334Y-13177048D02*
X3547381Y-13148476D01*
X3547381Y-13148476D02*
X3556905Y-13138952D01*
X3614048Y-13167524D02*
X3747381Y-13167524D01*
X3747381Y-13167524D02*
X3661667Y-13367524D01*
X3928334Y-13367524D02*
X3814048Y-13367524D01*
X3871191Y-13367524D02*
X3871191Y-13167524D01*
X3871191Y-13167524D02*
X3852143Y-13196095D01*
X3852143Y-13196095D02*
X3833095Y-13215143D01*
X3833095Y-13215143D02*
X3814048Y-13224667D01*
X4166429Y-13367524D02*
X4166429Y-13167524D01*
X4252143Y-13367524D02*
X4252143Y-13262762D01*
X4252143Y-13262762D02*
X4242619Y-13243714D01*
X4242619Y-13243714D02*
X4223572Y-13234190D01*
X4223572Y-13234190D02*
X4195000Y-13234190D01*
X4195000Y-13234190D02*
X4175953Y-13243714D01*
X4175953Y-13243714D02*
X4166429Y-13253238D01*
X4375953Y-13367524D02*
X4356905Y-13358000D01*
X4356905Y-13358000D02*
X4347381Y-13348476D01*
X4347381Y-13348476D02*
X4337858Y-13329428D01*
X4337858Y-13329428D02*
X4337858Y-13272286D01*
X4337858Y-13272286D02*
X4347381Y-13253238D01*
X4347381Y-13253238D02*
X4356905Y-13243714D01*
X4356905Y-13243714D02*
X4375953Y-13234190D01*
X4375953Y-13234190D02*
X4404524Y-13234190D01*
X4404524Y-13234190D02*
X4423572Y-13243714D01*
X4423572Y-13243714D02*
X4433096Y-13253238D01*
X4433096Y-13253238D02*
X4442619Y-13272286D01*
X4442619Y-13272286D02*
X4442619Y-13329428D01*
X4442619Y-13329428D02*
X4433096Y-13348476D01*
X4433096Y-13348476D02*
X4423572Y-13358000D01*
X4423572Y-13358000D02*
X4404524Y-13367524D01*
X4404524Y-13367524D02*
X4375953Y-13367524D01*
X4556905Y-13367524D02*
X4537858Y-13358000D01*
X4537858Y-13358000D02*
X4528334Y-13338952D01*
X4528334Y-13338952D02*
X4528334Y-13167524D01*
X4709286Y-13358000D02*
X4690239Y-13367524D01*
X4690239Y-13367524D02*
X4652143Y-13367524D01*
X4652143Y-13367524D02*
X4633096Y-13358000D01*
X4633096Y-13358000D02*
X4623572Y-13338952D01*
X4623572Y-13338952D02*
X4623572Y-13262762D01*
X4623572Y-13262762D02*
X4633096Y-13243714D01*
X4633096Y-13243714D02*
X4652143Y-13234190D01*
X4652143Y-13234190D02*
X4690239Y-13234190D01*
X4690239Y-13234190D02*
X4709286Y-13243714D01*
X4709286Y-13243714D02*
X4718810Y-13262762D01*
X4718810Y-13262762D02*
X4718810Y-13281809D01*
X4718810Y-13281809D02*
X4623572Y-13300857D01*
X4795000Y-13358000D02*
X4814048Y-13367524D01*
X4814048Y-13367524D02*
X4852143Y-13367524D01*
X4852143Y-13367524D02*
X4871191Y-13358000D01*
X4871191Y-13358000D02*
X4880715Y-13338952D01*
X4880715Y-13338952D02*
X4880715Y-13329428D01*
X4880715Y-13329428D02*
X4871191Y-13310381D01*
X4871191Y-13310381D02*
X4852143Y-13300857D01*
X4852143Y-13300857D02*
X4823572Y-13300857D01*
X4823572Y-13300857D02*
X4804524Y-13291333D01*
X4804524Y-13291333D02*
X4795000Y-13272286D01*
X4795000Y-13272286D02*
X4795000Y-13262762D01*
X4795000Y-13262762D02*
X4804524Y-13243714D01*
X4804524Y-13243714D02*
X4823572Y-13234190D01*
X4823572Y-13234190D02*
X4852143Y-13234190D01*
X4852143Y-13234190D02*
X4871191Y-13243714D01*
X4947381Y-13443714D02*
X4956905Y-13434190D01*
X4956905Y-13434190D02*
X4975953Y-13405619D01*
X4975953Y-13405619D02*
X4985477Y-13386571D01*
X4985477Y-13386571D02*
X4995000Y-13358000D01*
X4995000Y-13358000D02*
X5004524Y-13310381D01*
X5004524Y-13310381D02*
X5004524Y-13272286D01*
X5004524Y-13272286D02*
X4995000Y-13224667D01*
X4995000Y-13224667D02*
X4985477Y-13196095D01*
X4985477Y-13196095D02*
X4975953Y-13177048D01*
X4975953Y-13177048D02*
X4956905Y-13148476D01*
X4956905Y-13148476D02*
X4947381Y-13138952D01*
X5309286Y-13443714D02*
X5299762Y-13434190D01*
X5299762Y-13434190D02*
X5280715Y-13405619D01*
X5280715Y-13405619D02*
X5271191Y-13386571D01*
X5271191Y-13386571D02*
X5261667Y-13358000D01*
X5261667Y-13358000D02*
X5252143Y-13310381D01*
X5252143Y-13310381D02*
X5252143Y-13272286D01*
X5252143Y-13272286D02*
X5261667Y-13224667D01*
X5261667Y-13224667D02*
X5271191Y-13196095D01*
X5271191Y-13196095D02*
X5280715Y-13177048D01*
X5280715Y-13177048D02*
X5299762Y-13148476D01*
X5299762Y-13148476D02*
X5309286Y-13138952D01*
X5385477Y-13234190D02*
X5385477Y-13367524D01*
X5385477Y-13253238D02*
X5395000Y-13243714D01*
X5395000Y-13243714D02*
X5414048Y-13234190D01*
X5414048Y-13234190D02*
X5442620Y-13234190D01*
X5442620Y-13234190D02*
X5461667Y-13243714D01*
X5461667Y-13243714D02*
X5471191Y-13262762D01*
X5471191Y-13262762D02*
X5471191Y-13367524D01*
X5595000Y-13367524D02*
X5575953Y-13358000D01*
X5575953Y-13358000D02*
X5566429Y-13348476D01*
X5566429Y-13348476D02*
X5556905Y-13329428D01*
X5556905Y-13329428D02*
X5556905Y-13272286D01*
X5556905Y-13272286D02*
X5566429Y-13253238D01*
X5566429Y-13253238D02*
X5575953Y-13243714D01*
X5575953Y-13243714D02*
X5595000Y-13234190D01*
X5595000Y-13234190D02*
X5623572Y-13234190D01*
X5623572Y-13234190D02*
X5642619Y-13243714D01*
X5642619Y-13243714D02*
X5652143Y-13253238D01*
X5652143Y-13253238D02*
X5661667Y-13272286D01*
X5661667Y-13272286D02*
X5661667Y-13329428D01*
X5661667Y-13329428D02*
X5652143Y-13348476D01*
X5652143Y-13348476D02*
X5642619Y-13358000D01*
X5642619Y-13358000D02*
X5623572Y-13367524D01*
X5623572Y-13367524D02*
X5595000Y-13367524D01*
X5718810Y-13234190D02*
X5795000Y-13234190D01*
X5747381Y-13167524D02*
X5747381Y-13338952D01*
X5747381Y-13338952D02*
X5756905Y-13358000D01*
X5756905Y-13358000D02*
X5775953Y-13367524D01*
X5775953Y-13367524D02*
X5795000Y-13367524D01*
X6014048Y-13234190D02*
X6014048Y-13434190D01*
X6014048Y-13243714D02*
X6033096Y-13234190D01*
X6033096Y-13234190D02*
X6071191Y-13234190D01*
X6071191Y-13234190D02*
X6090239Y-13243714D01*
X6090239Y-13243714D02*
X6099762Y-13253238D01*
X6099762Y-13253238D02*
X6109286Y-13272286D01*
X6109286Y-13272286D02*
X6109286Y-13329428D01*
X6109286Y-13329428D02*
X6099762Y-13348476D01*
X6099762Y-13348476D02*
X6090239Y-13358000D01*
X6090239Y-13358000D02*
X6071191Y-13367524D01*
X6071191Y-13367524D02*
X6033096Y-13367524D01*
X6033096Y-13367524D02*
X6014048Y-13358000D01*
X6223572Y-13367524D02*
X6204524Y-13358000D01*
X6204524Y-13358000D02*
X6195000Y-13338952D01*
X6195000Y-13338952D02*
X6195000Y-13167524D01*
X6385477Y-13367524D02*
X6385477Y-13262762D01*
X6385477Y-13262762D02*
X6375953Y-13243714D01*
X6375953Y-13243714D02*
X6356905Y-13234190D01*
X6356905Y-13234190D02*
X6318810Y-13234190D01*
X6318810Y-13234190D02*
X6299762Y-13243714D01*
X6385477Y-13358000D02*
X6366429Y-13367524D01*
X6366429Y-13367524D02*
X6318810Y-13367524D01*
X6318810Y-13367524D02*
X6299762Y-13358000D01*
X6299762Y-13358000D02*
X6290239Y-13338952D01*
X6290239Y-13338952D02*
X6290239Y-13319905D01*
X6290239Y-13319905D02*
X6299762Y-13300857D01*
X6299762Y-13300857D02*
X6318810Y-13291333D01*
X6318810Y-13291333D02*
X6366429Y-13291333D01*
X6366429Y-13291333D02*
X6385477Y-13281809D01*
X6452143Y-13234190D02*
X6528334Y-13234190D01*
X6480715Y-13167524D02*
X6480715Y-13338952D01*
X6480715Y-13338952D02*
X6490239Y-13358000D01*
X6490239Y-13358000D02*
X6509286Y-13367524D01*
X6509286Y-13367524D02*
X6528334Y-13367524D01*
X6671191Y-13358000D02*
X6652143Y-13367524D01*
X6652143Y-13367524D02*
X6614048Y-13367524D01*
X6614048Y-13367524D02*
X6595000Y-13358000D01*
X6595000Y-13358000D02*
X6585477Y-13338952D01*
X6585477Y-13338952D02*
X6585477Y-13262762D01*
X6585477Y-13262762D02*
X6595000Y-13243714D01*
X6595000Y-13243714D02*
X6614048Y-13234190D01*
X6614048Y-13234190D02*
X6652143Y-13234190D01*
X6652143Y-13234190D02*
X6671191Y-13243714D01*
X6671191Y-13243714D02*
X6680715Y-13262762D01*
X6680715Y-13262762D02*
X6680715Y-13281809D01*
X6680715Y-13281809D02*
X6585477Y-13300857D01*
X6852143Y-13367524D02*
X6852143Y-13167524D01*
X6852143Y-13358000D02*
X6833096Y-13367524D01*
X6833096Y-13367524D02*
X6795000Y-13367524D01*
X6795000Y-13367524D02*
X6775953Y-13358000D01*
X6775953Y-13358000D02*
X6766429Y-13348476D01*
X6766429Y-13348476D02*
X6756905Y-13329428D01*
X6756905Y-13329428D02*
X6756905Y-13272286D01*
X6756905Y-13272286D02*
X6766429Y-13253238D01*
X6766429Y-13253238D02*
X6775953Y-13243714D01*
X6775953Y-13243714D02*
X6795000Y-13234190D01*
X6795000Y-13234190D02*
X6833096Y-13234190D01*
X6833096Y-13234190D02*
X6852143Y-13243714D01*
X6928334Y-13443714D02*
X6937858Y-13434190D01*
X6937858Y-13434190D02*
X6956905Y-13405619D01*
X6956905Y-13405619D02*
X6966429Y-13386571D01*
X6966429Y-13386571D02*
X6975953Y-13358000D01*
X6975953Y-13358000D02*
X6985477Y-13310381D01*
X6985477Y-13310381D02*
X6985477Y-13272286D01*
X6985477Y-13272286D02*
X6975953Y-13224667D01*
X6975953Y-13224667D02*
X6966429Y-13196095D01*
X6966429Y-13196095D02*
X6956905Y-13177048D01*
X6956905Y-13177048D02*
X6937858Y-13148476D01*
X6937858Y-13148476D02*
X6928334Y-13138952D01*
M02*
