%TF.GenerationSoftware,KiCad,Pcbnew,7.0.1*%
%TF.CreationDate,2023-10-19T22:58:34+03:00*%
%TF.ProjectId,keyboard_cherry,6b657962-6f61-4726-945f-636865727279,rev?*%
%TF.SameCoordinates,Original*%
%TF.FileFunction,Copper,L1,Top*%
%TF.FilePolarity,Positive*%
%FSLAX46Y46*%
G04 Gerber Fmt 4.6, Leading zero omitted, Abs format (unit mm)*
G04 Created by KiCad (PCBNEW 7.0.1) date 2023-10-19 22:58:34*
%MOMM*%
%LPD*%
G01*
G04 APERTURE LIST*
G04 Aperture macros list*
%AMRoundRect*
0 Rectangle with rounded corners*
0 $1 Rounding radius*
0 $2 $3 $4 $5 $6 $7 $8 $9 X,Y pos of 4 corners*
0 Add a 4 corners polygon primitive as box body*
4,1,4,$2,$3,$4,$5,$6,$7,$8,$9,$2,$3,0*
0 Add four circle primitives for the rounded corners*
1,1,$1+$1,$2,$3*
1,1,$1+$1,$4,$5*
1,1,$1+$1,$6,$7*
1,1,$1+$1,$8,$9*
0 Add four rect primitives between the rounded corners*
20,1,$1+$1,$2,$3,$4,$5,0*
20,1,$1+$1,$4,$5,$6,$7,0*
20,1,$1+$1,$6,$7,$8,$9,0*
20,1,$1+$1,$8,$9,$2,$3,0*%
G04 Aperture macros list end*
%TA.AperFunction,ComponentPad*%
%ADD10RoundRect,0.250000X0.600000X-0.600000X0.600000X0.600000X-0.600000X0.600000X-0.600000X-0.600000X0*%
%TD*%
%TA.AperFunction,ComponentPad*%
%ADD11C,1.700000*%
%TD*%
%TA.AperFunction,ComponentPad*%
%ADD12C,2.200000*%
%TD*%
%TA.AperFunction,ViaPad*%
%ADD13C,1.000000*%
%TD*%
%TA.AperFunction,Conductor*%
%ADD14C,0.400000*%
%TD*%
G04 APERTURE END LIST*
D10*
%TO.P,J1,1,Pin_1*%
%TO.N,Net-(J1-Pin_1)*%
X211750000Y-4590000D03*
D11*
%TO.P,J1,2,Pin_2*%
%TO.N,Net-(J1-Pin_2)*%
X211750000Y-7130000D03*
%TO.P,J1,3,Pin_3*%
%TO.N,Net-(J1-Pin_3)*%
X214290000Y-4590000D03*
%TO.P,J1,4,Pin_4*%
%TO.N,Net-(J1-Pin_4)*%
X214290000Y-7130000D03*
%TO.P,J1,5,Pin_5*%
%TO.N,Net-(J1-Pin_5)*%
X216830000Y-4590000D03*
%TO.P,J1,6,Pin_6*%
%TO.N,Net-(J1-Pin_6)*%
X216830000Y-7130000D03*
%TO.P,J1,7,Pin_7*%
%TO.N,Net-(J1-Pin_7)*%
X219370000Y-4590000D03*
%TO.P,J1,8,Pin_8*%
%TO.N,Net-(J1-Pin_8)*%
X219370000Y-7130000D03*
%TO.P,J1,9,Pin_9*%
%TO.N,Net-(J1-Pin_9)*%
X221910000Y-4590000D03*
%TO.P,J1,10,Pin_10*%
%TO.N,Net-(J1-Pin_10)*%
X221910000Y-7130000D03*
%TO.P,J1,11,Pin_11*%
%TO.N,Net-(J1-Pin_11)*%
X224450000Y-4590000D03*
%TO.P,J1,12,Pin_12*%
%TO.N,Net-(J1-Pin_12)*%
X224450000Y-7130000D03*
%TO.P,J1,13,Pin_13*%
%TO.N,Net-(J1-Pin_13)*%
X226990000Y-4590000D03*
%TO.P,J1,14,Pin_14*%
%TO.N,Net-(J1-Pin_14)*%
X226990000Y-7130000D03*
%TO.P,J1,15,Pin_15*%
%TO.N,Net-(J1-Pin_15)*%
X229530000Y-4590000D03*
%TO.P,J1,16,Pin_16*%
%TO.N,Net-(J1-Pin_16)*%
X229530000Y-7130000D03*
%TO.P,J1,17,Pin_17*%
%TO.N,Net-(J1-Pin_17)*%
X232070000Y-4590000D03*
%TO.P,J1,18,Pin_18*%
%TO.N,Net-(J1-Pin_18)*%
X232070000Y-7130000D03*
%TO.P,J1,19,Pin_19*%
%TO.N,Net-(J1-Pin_19)*%
X234610000Y-4590000D03*
%TO.P,J1,20,Pin_20*%
%TO.N,Net-(J1-Pin_20)*%
X234610000Y-7130000D03*
%TO.P,J1,21,Pin_21*%
%TO.N,Net-(J1-Pin_21)*%
X237150000Y-4590000D03*
%TO.P,J1,22,Pin_22*%
%TO.N,Net-(J1-Pin_22)*%
X237150000Y-7130000D03*
%TO.P,J1,23,Pin_23*%
%TO.N,Net-(J1-Pin_23)*%
X239690000Y-4590000D03*
%TO.P,J1,24,Pin_24*%
%TO.N,Net-(J1-Pin_24)*%
X239690000Y-7130000D03*
%TD*%
D12*
%TO.P,SW21,1,1*%
%TO.N,Net-(J1-Pin_4)*%
X162867900Y-37350000D03*
%TO.P,SW21,2,2*%
%TO.N,Net-(J1-Pin_17)*%
X156517900Y-39890000D03*
%TD*%
%TO.P,SW59,1,1*%
%TO.N,Net-(J1-Pin_6)*%
X277167900Y-94500000D03*
%TO.P,SW59,2,2*%
%TO.N,Net-(J1-Pin_13)*%
X270817900Y-97040000D03*
%TD*%
%TO.P,SW33,1,1*%
%TO.N,Net-(J1-Pin_3)*%
X153342900Y-56400000D03*
%TO.P,SW33,2,2*%
%TO.N,Net-(J1-Pin_15)*%
X146992900Y-58940000D03*
%TD*%
%TO.P,SW60,1,1*%
%TO.N,Net-(J1-Pin_1)*%
X231924200Y-18300000D03*
%TO.P,SW60,2,2*%
%TO.N,Net-(J1-Pin_2)*%
X225574200Y-20840000D03*
%TD*%
%TO.P,SW2,1,1*%
%TO.N,Net-(J1-Pin_9)*%
X272405400Y-37350000D03*
%TO.P,SW2,2,2*%
%TO.N,Net-(J1-Pin_20)*%
X266055400Y-39890000D03*
%TD*%
%TO.P,SW23,1,1*%
%TO.N,Net-(J1-Pin_6)*%
X200967900Y-37350000D03*
%TO.P,SW23,2,2*%
%TO.N,Net-(J1-Pin_17)*%
X194617900Y-39890000D03*
%TD*%
%TO.P,SW25,1,1*%
%TO.N,Net-(J1-Pin_11)*%
X72380400Y-94500000D03*
%TO.P,SW25,2,2*%
%TO.N,Net-(J1-Pin_18)*%
X66030400Y-97040000D03*
%TD*%
%TO.P,SW46,1,1*%
%TO.N,Net-(J1-Pin_5)*%
X181917900Y-75450000D03*
%TO.P,SW46,2,2*%
%TO.N,Net-(J1-Pin_13)*%
X175567900Y-77990000D03*
%TD*%
%TO.P,SW29,1,1*%
%TO.N,Net-(J1-Pin_6)*%
X77142900Y-56400000D03*
%TO.P,SW29,2,2*%
%TO.N,Net-(J1-Pin_23)*%
X70792900Y-58940000D03*
%TD*%
%TO.P,SW32,1,1*%
%TO.N,Net-(J1-Pin_3)*%
X134292900Y-56400000D03*
%TO.P,SW32,2,2*%
%TO.N,Net-(J1-Pin_23)*%
X127942900Y-58940000D03*
%TD*%
%TO.P,SW17,1,1*%
%TO.N,Net-(J1-Pin_5)*%
X86667900Y-37350000D03*
%TO.P,SW17,2,2*%
%TO.N,Net-(J1-Pin_22)*%
X80317900Y-39890000D03*
%TD*%
%TO.P,SW49,1,1*%
%TO.N,Net-(J1-Pin_13)*%
X31899200Y-94500000D03*
%TO.P,SW49,2,2*%
%TO.N,Net-(J1-Pin_6)*%
X25549200Y-97040000D03*
%TD*%
%TO.P,SW37,1,1*%
%TO.N,Net-(J1-Pin_7)*%
X272405400Y-56400000D03*
%TO.P,SW37,2,2*%
%TO.N,Net-(J1-Pin_15)*%
X266055400Y-58940000D03*
%TD*%
%TO.P,SW13,1,1*%
%TO.N,Net-(J1-Pin_14)*%
X19992900Y-18300000D03*
%TO.P,SW13,2,2*%
%TO.N,Net-(J1-Pin_12)*%
X13642900Y-20840000D03*
%TD*%
%TO.P,SW39,1,1*%
%TO.N,Net-(J1-Pin_11)*%
X48567900Y-75450000D03*
%TO.P,SW39,2,2*%
%TO.N,Net-(J1-Pin_20)*%
X42217900Y-77990000D03*
%TD*%
%TO.P,SW19,1,1*%
%TO.N,Net-(J1-Pin_3)*%
X124767900Y-37350000D03*
%TO.P,SW19,2,2*%
%TO.N,Net-(J1-Pin_22)*%
X118417900Y-39890000D03*
%TD*%
%TO.P,SW28,1,1*%
%TO.N,Net-(J1-Pin_7)*%
X58092900Y-56400000D03*
%TO.P,SW28,2,2*%
%TO.N,Net-(J1-Pin_23)*%
X51742900Y-58940000D03*
%TD*%
%TO.P,SW24,1,1*%
%TO.N,Net-(J1-Pin_7)*%
X220017900Y-37350000D03*
%TO.P,SW24,2,2*%
%TO.N,Net-(J1-Pin_17)*%
X213667900Y-39890000D03*
%TD*%
%TO.P,SW9,1,1*%
%TO.N,Net-(J1-Pin_4)*%
X153342900Y-18300000D03*
%TO.P,SW9,2,2*%
%TO.N,Net-(J1-Pin_19)*%
X146992900Y-20840000D03*
%TD*%
%TO.P,SW34,1,1*%
%TO.N,Net-(J1-Pin_4)*%
X172392900Y-56400000D03*
%TO.P,SW34,2,2*%
%TO.N,Net-(J1-Pin_15)*%
X166042900Y-58940000D03*
%TD*%
%TO.P,SW6,1,1*%
%TO.N,Net-(J1-Pin_4)*%
X96192900Y-18300000D03*
%TO.P,SW6,2,2*%
%TO.N,Net-(J1-Pin_21)*%
X89842900Y-20840000D03*
%TD*%
%TO.P,SW12,1,1*%
%TO.N,Net-(J1-Pin_7)*%
X210492900Y-18300000D03*
%TO.P,SW12,2,2*%
%TO.N,Net-(J1-Pin_19)*%
X204142900Y-20840000D03*
%TD*%
%TO.P,SW22,1,1*%
%TO.N,Net-(J1-Pin_5)*%
X181917900Y-37350000D03*
%TO.P,SW22,2,2*%
%TO.N,Net-(J1-Pin_17)*%
X175567900Y-39890000D03*
%TD*%
%TO.P,SW45,1,1*%
%TO.N,Net-(J1-Pin_4)*%
X162867900Y-75450000D03*
%TO.P,SW45,2,2*%
%TO.N,Net-(J1-Pin_13)*%
X156517900Y-77990000D03*
%TD*%
%TO.P,SW57,1,1*%
%TO.N,Net-(J1-Pin_18)*%
X239067900Y-94500000D03*
%TO.P,SW57,2,2*%
%TO.N,Net-(J1-Pin_8)*%
X232717900Y-97040000D03*
%TD*%
%TO.P,SW58,1,1*%
%TO.N,Net-(J1-Pin_9)*%
X200967900Y-75450000D03*
%TO.P,SW58,2,2*%
%TO.N,Net-(J1-Pin_13)*%
X194617900Y-77990000D03*
%TD*%
%TO.P,SW41,1,1*%
%TO.N,Net-(J1-Pin_5)*%
X86667900Y-75450000D03*
%TO.P,SW41,2,2*%
%TO.N,Net-(J1-Pin_24)*%
X80317900Y-77990000D03*
%TD*%
%TO.P,SW51,1,1*%
%TO.N,Net-(J1-Pin_8)*%
X248592900Y-56400000D03*
%TO.P,SW51,2,2*%
%TO.N,Net-(J1-Pin_16)*%
X242242900Y-58940000D03*
%TD*%
%TO.P,SW36,1,1*%
%TO.N,Net-(J1-Pin_6)*%
X210492900Y-56400000D03*
%TO.P,SW36,2,2*%
%TO.N,Net-(J1-Pin_15)*%
X204142900Y-58940000D03*
%TD*%
%TO.P,SW48,1,1*%
%TO.N,Net-(J1-Pin_24)*%
X267642900Y-75450000D03*
%TO.P,SW48,2,2*%
%TO.N,Net-(J1-Pin_7)*%
X261292900Y-77990000D03*
%TD*%
%TO.P,SW10,1,1*%
%TO.N,Net-(J1-Pin_5)*%
X172392900Y-18300000D03*
%TO.P,SW10,2,2*%
%TO.N,Net-(J1-Pin_19)*%
X166042900Y-20840000D03*
%TD*%
%TO.P,SW4,1,1*%
%TO.N,Net-(J1-Pin_6)*%
X58092900Y-18300000D03*
%TO.P,SW4,2,2*%
%TO.N,Net-(J1-Pin_21)*%
X51742900Y-20840000D03*
%TD*%
%TO.P,SW31,1,1*%
%TO.N,Net-(J1-Pin_4)*%
X115242900Y-56400000D03*
%TO.P,SW31,2,2*%
%TO.N,Net-(J1-Pin_23)*%
X108892900Y-58940000D03*
%TD*%
%TO.P,SW5,1,1*%
%TO.N,Net-(J1-Pin_5)*%
X77142900Y-18300000D03*
%TO.P,SW5,2,2*%
%TO.N,Net-(J1-Pin_21)*%
X70792900Y-20840000D03*
%TD*%
%TO.P,SW1,1,1*%
%TO.N,Net-(J1-Pin_10)*%
X243830400Y-37350000D03*
%TO.P,SW1,2,2*%
%TO.N,Net-(J1-Pin_20)*%
X237480400Y-39890000D03*
%TD*%
%TO.P,SW7,1,1*%
%TO.N,Net-(J1-Pin_3)*%
X115242900Y-18300000D03*
%TO.P,SW7,2,2*%
%TO.N,Net-(J1-Pin_21)*%
X108892900Y-20840000D03*
%TD*%
%TO.P,SW53,1,1*%
%TO.N,Net-(J1-Pin_18)*%
X258117900Y-94500000D03*
%TO.P,SW53,2,2*%
%TO.N,Net-(J1-Pin_10)*%
X251767900Y-97040000D03*
%TD*%
%TO.P,SW56,1,1*%
%TO.N,Net-(J1-Pin_18)*%
X239067900Y-75450000D03*
%TO.P,SW56,2,2*%
%TO.N,Net-(J1-Pin_9)*%
X232717900Y-77990000D03*
%TD*%
%TO.P,SW16,1,1*%
%TO.N,Net-(J1-Pin_6)*%
X67617900Y-37350000D03*
%TO.P,SW16,2,2*%
%TO.N,Net-(J1-Pin_22)*%
X61267900Y-39890000D03*
%TD*%
%TO.P,SW40,1,1*%
%TO.N,Net-(J1-Pin_6)*%
X67617900Y-75450000D03*
%TO.P,SW40,2,2*%
%TO.N,Net-(J1-Pin_24)*%
X61267900Y-77990000D03*
%TD*%
%TO.P,SW18,1,1*%
%TO.N,Net-(J1-Pin_4)*%
X105717900Y-37350000D03*
%TO.P,SW18,2,2*%
%TO.N,Net-(J1-Pin_22)*%
X99367900Y-39890000D03*
%TD*%
%TO.P,SW42,1,1*%
%TO.N,Net-(J1-Pin_4)*%
X105717900Y-75450000D03*
%TO.P,SW42,2,2*%
%TO.N,Net-(J1-Pin_24)*%
X99367900Y-77990000D03*
%TD*%
%TO.P,SW54,1,1*%
%TO.N,Net-(J1-Pin_7)*%
X150961700Y-94500000D03*
%TO.P,SW54,2,2*%
%TO.N,Net-(J1-Pin_13)*%
X144611700Y-97040000D03*
%TD*%
%TO.P,SW52,1,1*%
%TO.N,Net-(J1-Pin_8)*%
X220017900Y-94500000D03*
%TO.P,SW52,2,2*%
%TO.N,Net-(J1-Pin_20)*%
X213667900Y-97040000D03*
%TD*%
%TO.P,SW43,1,1*%
%TO.N,Net-(J1-Pin_3)*%
X124767900Y-75450000D03*
%TO.P,SW43,2,2*%
%TO.N,Net-(J1-Pin_24)*%
X118417900Y-77990000D03*
%TD*%
%TO.P,SW27,1,1*%
%TO.N,Net-(J1-Pin_20)*%
X24755400Y-37350000D03*
%TO.P,SW27,2,2*%
%TO.N,Net-(J1-Pin_12)*%
X18405400Y-39890000D03*
%TD*%
%TO.P,SW26,1,1*%
%TO.N,Net-(J1-Pin_11)*%
X29517900Y-56400000D03*
%TO.P,SW26,2,2*%
%TO.N,Net-(J1-Pin_14)*%
X23167900Y-58940000D03*
%TD*%
%TO.P,SW44,1,1*%
%TO.N,Net-(J1-Pin_3)*%
X143817900Y-75450000D03*
%TO.P,SW44,2,2*%
%TO.N,Net-(J1-Pin_13)*%
X137467900Y-77990000D03*
%TD*%
%TO.P,SW47,1,1*%
%TO.N,Net-(J1-Pin_10)*%
X220017900Y-75450000D03*
%TO.P,SW47,2,2*%
%TO.N,Net-(J1-Pin_13)*%
X213667900Y-77990000D03*
%TD*%
%TO.P,SW15,1,1*%
%TO.N,Net-(J1-Pin_7)*%
X48567900Y-37350000D03*
%TO.P,SW15,2,2*%
%TO.N,Net-(J1-Pin_22)*%
X42217900Y-39890000D03*
%TD*%
%TO.P,SW35,1,1*%
%TO.N,Net-(J1-Pin_5)*%
X191442900Y-56400000D03*
%TO.P,SW35,2,2*%
%TO.N,Net-(J1-Pin_15)*%
X185092900Y-58940000D03*
%TD*%
%TO.P,SW3,1,1*%
%TO.N,Net-(J1-Pin_7)*%
X39042900Y-18300000D03*
%TO.P,SW3,2,2*%
%TO.N,Net-(J1-Pin_21)*%
X32692900Y-20840000D03*
%TD*%
%TO.P,SW11,1,1*%
%TO.N,Net-(J1-Pin_6)*%
X191442900Y-18300000D03*
%TO.P,SW11,2,2*%
%TO.N,Net-(J1-Pin_19)*%
X185092900Y-20840000D03*
%TD*%
%TO.P,SW38,1,1*%
%TO.N,Net-(J1-Pin_7)*%
X24755400Y-75450000D03*
%TO.P,SW38,2,2*%
%TO.N,Net-(J1-Pin_24)*%
X18405400Y-77990000D03*
%TD*%
%TO.P,SW30,1,1*%
%TO.N,Net-(J1-Pin_5)*%
X96192900Y-56400000D03*
%TO.P,SW30,2,2*%
%TO.N,Net-(J1-Pin_23)*%
X89842900Y-58940000D03*
%TD*%
%TO.P,SW50,1,1*%
%TO.N,Net-(J1-Pin_11)*%
X229542900Y-56400000D03*
%TO.P,SW50,2,2*%
%TO.N,Net-(J1-Pin_16)*%
X223192900Y-58940000D03*
%TD*%
%TO.P,SW14,1,1*%
%TO.N,Net-(J1-Pin_18)*%
X265261700Y-18300000D03*
%TO.P,SW14,2,2*%
%TO.N,Net-(J1-Pin_12)*%
X258911700Y-20840000D03*
%TD*%
%TO.P,SW8,1,1*%
%TO.N,Net-(J1-Pin_3)*%
X134292900Y-18300000D03*
%TO.P,SW8,2,2*%
%TO.N,Net-(J1-Pin_19)*%
X127942900Y-20840000D03*
%TD*%
%TO.P,SW20,1,1*%
%TO.N,Net-(J1-Pin_3)*%
X143817900Y-37350000D03*
%TO.P,SW20,2,2*%
%TO.N,Net-(J1-Pin_17)*%
X137467900Y-39890000D03*
%TD*%
D13*
%TO.N,Net-(J1-Pin_1)*%
X223440100Y-18474400D03*
%TO.N,Net-(J1-Pin_3)*%
X205442300Y-6966200D03*
%TO.N,Net-(J1-Pin_4)*%
X205443900Y-8484200D03*
%TO.N,Net-(J1-Pin_5)*%
X203477400Y-8580100D03*
%TO.N,Net-(J1-Pin_6)*%
X205676200Y-9837300D03*
%TO.N,Net-(J1-Pin_7)*%
X136363900Y-64570000D03*
X208597300Y-3799100D03*
%TO.N,Net-(J1-Pin_9)*%
X221661900Y-35189200D03*
%TO.N,Net-(J1-Pin_11)*%
X71986400Y-75428100D03*
X212961200Y-10944800D03*
%TO.N,Net-(J1-Pin_12)*%
X228495100Y-13273500D03*
%TO.N,Net-(J1-Pin_15)*%
X244738100Y-2534100D03*
%TO.N,Net-(J1-Pin_16)*%
X219998000Y-16977900D03*
%TO.N,Net-(J1-Pin_20)*%
X241064300Y-75935400D03*
%TO.N,Net-(J1-Pin_24)*%
X255476400Y-7130000D03*
%TD*%
D14*
%TO.N,Net-(J1-Pin_14)*%
X24542900Y-13750000D02*
X19992900Y-18300000D01*
X202040351Y-13750000D02*
X24542900Y-13750000D01*
X214034450Y-11944800D02*
X203845551Y-11944800D01*
X218104825Y-16015175D02*
X214034450Y-11944800D01*
X203845551Y-11944800D02*
X202040351Y-13750000D01*
X226990000Y-7130000D02*
X218104825Y-16015175D01*
%TO.N,Net-(J1-Pin_12)*%
X225187400Y-13273500D02*
X228495100Y-13273500D01*
X219123500Y-18023800D02*
X220437100Y-18023800D01*
X213744500Y-12644800D02*
X219123500Y-18023800D01*
X204135501Y-12644800D02*
X213744500Y-12644800D01*
X202030301Y-14750000D02*
X204135501Y-12644800D01*
X116530158Y-14750000D02*
X202030301Y-14750000D01*
X112740158Y-18540000D02*
X116530158Y-14750000D01*
X107940209Y-18540000D02*
X112740158Y-18540000D01*
X98905642Y-18750000D02*
X107730208Y-18750000D01*
X96855642Y-16700000D02*
X98905642Y-18750000D01*
X107730208Y-18750000D02*
X107940209Y-18540000D01*
X24124400Y-16700000D02*
X96855642Y-16700000D01*
X220437100Y-18023800D02*
X225187400Y-13273500D01*
X19984400Y-20840000D02*
X24124400Y-16700000D01*
%TO.N,Net-(J1-Pin_4)*%
X97642900Y-19750000D02*
X96192900Y-18300000D01*
X107720158Y-19750000D02*
X97642900Y-19750000D01*
X108230158Y-19240000D02*
X107720158Y-19750000D01*
X113920158Y-19240000D02*
X108230158Y-19240000D01*
X114580158Y-19900000D02*
X113920158Y-19240000D01*
X115905642Y-19900000D02*
X114580158Y-19900000D01*
X116805642Y-19000000D02*
X115905642Y-19900000D01*
X136105642Y-18750000D02*
X134955642Y-19900000D01*
X134955642Y-19900000D02*
X133630158Y-19900000D01*
X132730158Y-19000000D02*
X116805642Y-19000000D01*
X152892900Y-18750000D02*
X136105642Y-18750000D01*
X153342900Y-18300000D02*
X152892900Y-18750000D01*
X133630158Y-19900000D02*
X132730158Y-19000000D01*
%TO.N,Net-(J1-Pin_1)*%
X231749800Y-18474400D02*
X231924200Y-18300000D01*
X223440100Y-18474400D02*
X231749800Y-18474400D01*
%TO.N,Net-(J1-Pin_3)*%
X212905200Y-3205200D02*
X214290000Y-4590000D01*
X153342900Y-56400000D02*
X134292900Y-56400000D01*
X134292900Y-18300000D02*
X115242900Y-18300000D01*
X143817900Y-37350000D02*
X124767900Y-37350000D01*
X205442300Y-6966200D02*
X207864400Y-6966200D01*
X210301100Y-3728100D02*
X210824000Y-3205200D01*
X210301100Y-4529500D02*
X210301100Y-3728100D01*
X207864400Y-6966200D02*
X210301100Y-4529500D01*
X210824000Y-3205200D02*
X212905200Y-3205200D01*
%TO.N,Net-(J1-Pin_4)*%
X212935800Y-8484200D02*
X205443900Y-8484200D01*
X214290000Y-7130000D02*
X212935800Y-8484200D01*
%TO.N,Net-(J1-Pin_5)*%
X209599200Y-3435300D02*
X210531200Y-2503300D01*
X189830400Y-54787500D02*
X97805400Y-54787500D01*
X214743300Y-2503300D02*
X216830000Y-4590000D01*
X210531200Y-2503300D02*
X214743300Y-2503300D01*
X191442900Y-56400000D02*
X189830400Y-54787500D01*
X203477400Y-7514200D02*
X205901500Y-5090100D01*
X203477400Y-8580100D02*
X203477400Y-7514200D01*
X208746900Y-5090100D02*
X209599200Y-4237800D01*
X205901500Y-5090100D02*
X208746900Y-5090100D01*
X97805400Y-54787500D02*
X96192900Y-56400000D01*
X209599200Y-4237800D02*
X209599200Y-3435300D01*
%TO.N,Net-(J1-Pin_6)*%
X200967900Y-46875000D02*
X210492900Y-56400000D01*
X216830000Y-7130000D02*
X214122700Y-9837300D01*
X200967900Y-37350000D02*
X200967900Y-46875000D01*
X200967900Y-46875000D02*
X86667900Y-46875000D01*
X214122700Y-9837300D02*
X205676200Y-9837300D01*
X86667900Y-46875000D02*
X77142900Y-56400000D01*
%TO.N,Net-(J1-Pin_7)*%
X216581400Y-1801400D02*
X210238400Y-1801400D01*
X208597300Y-3442500D02*
X208597300Y-3799100D01*
X93142100Y-57300400D02*
X88942500Y-57300400D01*
X107273900Y-58019000D02*
X93860700Y-58019000D01*
X110983500Y-58022400D02*
X110273500Y-57312400D01*
X237328400Y-54660500D02*
X270665900Y-54660500D01*
X88942500Y-57300400D02*
X88220500Y-58022400D01*
X88220500Y-58022400D02*
X72140800Y-58022400D01*
X126320500Y-58022400D02*
X110983500Y-58022400D01*
X127028100Y-57314800D02*
X126320500Y-58022400D01*
X220017900Y-37350000D02*
X237328400Y-54660500D01*
X136363900Y-64570000D02*
X134332500Y-62538600D01*
X131128800Y-57314800D02*
X127028100Y-57314800D01*
X58092900Y-56400000D02*
X43805400Y-56400000D01*
X43805400Y-56400000D02*
X24755400Y-75450000D01*
X219370000Y-4590000D02*
X216581400Y-1801400D01*
X134332500Y-60518500D02*
X131128800Y-57314800D01*
X72140800Y-58022400D02*
X70518400Y-56400000D01*
X210238400Y-1801400D02*
X208597300Y-3442500D01*
X134332500Y-62538600D02*
X134332500Y-60518500D01*
X270665900Y-54660500D02*
X272405400Y-56400000D01*
X93860700Y-58019000D02*
X93142100Y-57300400D01*
X110273500Y-57312400D02*
X107980500Y-57312400D01*
X70518400Y-56400000D02*
X58092900Y-56400000D01*
X107980500Y-57312400D02*
X107273900Y-58019000D01*
%TO.N,Net-(J1-Pin_9)*%
X232717900Y-77990000D02*
X217054700Y-77990000D01*
X272405400Y-37350000D02*
X270244600Y-35189200D01*
X214514700Y-75450000D02*
X200967900Y-75450000D01*
X270244600Y-35189200D02*
X221661900Y-35189200D01*
X217054700Y-77990000D02*
X214514700Y-75450000D01*
%TO.N,Net-(J1-Pin_10)*%
X245998300Y-91270400D02*
X251767900Y-97040000D01*
X221660200Y-73807700D02*
X240358500Y-73807700D01*
X245998300Y-79447500D02*
X245998300Y-91270400D01*
X220017900Y-75450000D02*
X221660200Y-73807700D01*
X240358500Y-73807700D02*
X245998300Y-79447500D01*
%TO.N,Net-(J1-Pin_11)*%
X202453100Y-8982500D02*
X204415400Y-10944800D01*
X224450000Y-4590000D02*
X220909400Y-1049400D01*
X204806500Y-57338100D02*
X192770300Y-57338100D01*
X148959600Y-58001900D02*
X148275400Y-57317700D01*
X220909400Y-1049400D02*
X208949600Y-1049400D01*
X134042700Y-69158700D02*
X76642500Y-69158700D01*
X205528600Y-58060200D02*
X204806500Y-57338100D01*
X204415400Y-10944800D02*
X212961200Y-10944800D01*
X192106500Y-58001900D02*
X188776700Y-58001900D01*
X211944700Y-58060200D02*
X205528600Y-58060200D01*
X76642500Y-69158700D02*
X71986400Y-73814800D01*
X145883700Y-57317700D02*
X134042700Y-69158700D01*
X188074600Y-57299800D02*
X173758600Y-57299800D01*
X202453100Y-7545900D02*
X202453100Y-8982500D01*
X71986400Y-73814800D02*
X71986400Y-75428100D01*
X50203100Y-73814800D02*
X48567900Y-75450000D01*
X166942700Y-57299800D02*
X154708600Y-57299800D01*
X167644800Y-58001900D02*
X166942700Y-57299800D01*
X229542900Y-56400000D02*
X213604900Y-56400000D01*
X154708600Y-57299800D02*
X154006500Y-58001900D01*
X188776700Y-58001900D02*
X188074600Y-57299800D01*
X192770300Y-57338100D02*
X192106500Y-58001900D01*
X71986400Y-73814800D02*
X50203100Y-73814800D01*
X208949600Y-1049400D02*
X202453100Y-7545900D01*
X148275400Y-57317700D02*
X145883700Y-57317700D01*
X213604900Y-56400000D02*
X211944700Y-58060200D01*
X154006500Y-58001900D02*
X148959600Y-58001900D01*
X173758600Y-57299800D02*
X173056500Y-58001900D01*
X173056500Y-58001900D02*
X167644800Y-58001900D01*
%TO.N,Net-(J1-Pin_12)*%
X229196900Y-13975300D02*
X252047000Y-13975300D01*
X252047000Y-13975300D02*
X258911700Y-20840000D01*
X19984400Y-22740688D02*
X19984400Y-20840000D01*
X24200000Y-34095400D02*
X24200000Y-26956288D01*
X228495100Y-13273500D02*
X229196900Y-13975300D01*
X19984400Y-20840000D02*
X13642900Y-20840000D01*
X18405400Y-39890000D02*
X24200000Y-34095400D01*
X24200000Y-26956288D02*
X19984400Y-22740688D01*
%TO.N,Net-(J1-Pin_13)*%
X274023300Y-35309100D02*
X270253100Y-31538900D01*
X274041900Y-59703700D02*
X274041900Y-55306500D01*
X156517900Y-77990000D02*
X137467900Y-77990000D01*
X175567900Y-77990000D02*
X156517900Y-77990000D01*
X273560700Y-41134900D02*
X274023300Y-40672300D01*
X213667900Y-77990000D02*
X194617900Y-77990000D01*
X230095500Y-1484500D02*
X226990000Y-4590000D01*
X273560700Y-54825300D02*
X273560700Y-41134900D01*
X270253100Y-31538900D02*
X270253100Y-19482000D01*
X273578100Y-94279800D02*
X273578100Y-60167500D01*
X270253100Y-19482000D02*
X252255600Y-1484500D01*
X273578100Y-60167500D02*
X274041900Y-59703700D01*
X274041900Y-55306500D02*
X273560700Y-54825300D01*
X274023300Y-40672300D02*
X274023300Y-35309100D01*
X270817900Y-97040000D02*
X273578100Y-94279800D01*
X252255600Y-1484500D02*
X230095500Y-1484500D01*
X194617900Y-77990000D02*
X175567900Y-77990000D01*
%TO.N,Net-(J1-Pin_15)*%
X214829800Y-57306100D02*
X226773400Y-57306100D01*
X213195900Y-58940000D02*
X214829800Y-57306100D01*
X185092900Y-58940000D02*
X166042900Y-58940000D01*
X243908900Y-57322400D02*
X245526500Y-58940000D01*
X231585900Y-2534100D02*
X244738100Y-2534100D01*
X245526500Y-58940000D02*
X266055400Y-58940000D01*
X204142900Y-58940000D02*
X213195900Y-58940000D01*
X204142900Y-58940000D02*
X185092900Y-58940000D01*
X166042900Y-58940000D02*
X146992900Y-58940000D01*
X226773400Y-57306100D02*
X227489500Y-58022200D01*
X241320500Y-57322400D02*
X243908900Y-57322400D01*
X240620700Y-58022200D02*
X241320500Y-57322400D01*
X227489500Y-58022200D02*
X240620700Y-58022200D01*
X229530000Y-4590000D02*
X231585900Y-2534100D01*
%TO.N,Net-(J1-Pin_16)*%
X229530000Y-7130000D02*
X219998000Y-16662000D01*
X219998000Y-16662000D02*
X219998000Y-16977900D01*
X223192900Y-58940000D02*
X242242900Y-58940000D01*
%TO.N,Net-(J1-Pin_17)*%
X175567900Y-39890000D02*
X156517900Y-39890000D01*
X137467900Y-39890000D02*
X156517900Y-39890000D01*
X194617900Y-39890000D02*
X175567900Y-39890000D01*
%TO.N,Net-(J1-Pin_18)*%
X232070000Y-7130000D02*
X237863400Y-12923400D01*
X232206500Y-94500000D02*
X224617100Y-102089400D01*
X74292300Y-97040000D02*
X66030400Y-97040000D01*
X259885100Y-12923400D02*
X265261700Y-18300000D01*
X79341700Y-102089400D02*
X74292300Y-97040000D01*
X239067900Y-94500000D02*
X232206500Y-94500000D01*
X224617100Y-102089400D02*
X79341700Y-102089400D01*
X237863400Y-12923400D02*
X259885100Y-12923400D01*
%TO.N,Net-(J1-Pin_19)*%
X185092900Y-20840000D02*
X204142900Y-20840000D01*
X166042900Y-20840000D02*
X185092900Y-20840000D01*
X127942900Y-20840000D02*
X146992900Y-20840000D01*
X146992900Y-20840000D02*
X166042900Y-20840000D01*
%TO.N,Net-(J1-Pin_20)*%
X202336000Y-85708100D02*
X58676500Y-85708100D01*
X237480400Y-39890000D02*
X266055400Y-39890000D01*
X222678400Y-91255200D02*
X219452700Y-91255200D01*
X213667900Y-97040000D02*
X202336000Y-85708100D01*
X233443200Y-80004000D02*
X233443200Y-80490400D01*
X219452700Y-91255200D02*
X213667900Y-97040000D01*
X233443200Y-80490400D02*
X222678400Y-91255200D01*
X241064300Y-75935400D02*
X239920800Y-77078900D01*
X58676500Y-85708100D02*
X50958400Y-77990000D01*
X236368300Y-77078900D02*
X233443200Y-80004000D01*
X239920800Y-77078900D02*
X236368300Y-77078900D01*
X50958400Y-77990000D02*
X42217900Y-77990000D01*
%TO.N,Net-(J1-Pin_21)*%
X265920400Y-19928900D02*
X262562100Y-19928900D01*
X119811500Y-20840000D02*
X108892900Y-20840000D01*
X51742900Y-20840000D02*
X32692900Y-20840000D01*
X124886800Y-25915300D02*
X119811500Y-20840000D01*
X89842900Y-20840000D02*
X70792900Y-20840000D01*
X259637000Y-23323100D02*
X257044800Y-25915300D01*
X241222200Y-3238100D02*
X243413300Y-5429200D01*
X70792900Y-20840000D02*
X51742900Y-20840000D01*
X259637000Y-22854000D02*
X259637000Y-23323100D01*
X255201000Y-5429200D02*
X266876000Y-17104200D01*
X238501900Y-3238100D02*
X241222200Y-3238100D01*
X266876000Y-18973300D02*
X265920400Y-19928900D01*
X266876000Y-17104200D02*
X266876000Y-18973300D01*
X108892900Y-20840000D02*
X89842900Y-20840000D01*
X257044800Y-25915300D02*
X124886800Y-25915300D01*
X237150000Y-4590000D02*
X238501900Y-3238100D01*
X243413300Y-5429200D02*
X255201000Y-5429200D01*
X262562100Y-19928900D02*
X259637000Y-22854000D01*
%TO.N,Net-(J1-Pin_22)*%
X61267900Y-39890000D02*
X42217900Y-39890000D01*
X118417900Y-39890000D02*
X99367900Y-39890000D01*
X99367900Y-39890000D02*
X80317900Y-39890000D01*
X80317900Y-39890000D02*
X61267900Y-39890000D01*
%TO.N,Net-(J1-Pin_23)*%
X108892900Y-58940000D02*
X127942900Y-58940000D01*
X70792900Y-58940000D02*
X51742900Y-58940000D01*
X89842900Y-58940000D02*
X108892900Y-58940000D01*
X70792900Y-58940000D02*
X89842900Y-58940000D01*
%TO.N,Net-(J1-Pin_24)*%
X267642900Y-75450000D02*
X263687200Y-71494300D01*
X80317900Y-77990000D02*
X99367900Y-77990000D01*
X46007000Y-76603600D02*
X46004900Y-76603600D01*
X26723500Y-76377800D02*
X25111300Y-77990000D01*
X25111300Y-77990000D02*
X18405400Y-77990000D01*
X45779100Y-76377800D02*
X26723500Y-76377800D01*
X61267900Y-77990000D02*
X80317900Y-77990000D01*
X46004900Y-76603600D02*
X45779100Y-76377800D01*
X124913600Y-71494300D02*
X118417900Y-77990000D01*
X46633300Y-77229900D02*
X46007000Y-76603600D01*
X99367900Y-77990000D02*
X118417900Y-77990000D01*
X239690000Y-7130000D02*
X255476400Y-7130000D01*
X60507800Y-77229900D02*
X46633300Y-77229900D01*
X263687200Y-71494300D02*
X124913600Y-71494300D01*
X61267900Y-77990000D02*
X60507800Y-77229900D01*
%TD*%
M02*
