%TF.GenerationSoftware,KiCad,Pcbnew,7.0.1*%
%TF.CreationDate,2023-10-19T22:58:34+03:00*%
%TF.ProjectId,keyboard_cherry,6b657962-6f61-4726-945f-636865727279,rev?*%
%TF.SameCoordinates,Original*%
%TF.FileFunction,Legend,Bot*%
%TF.FilePolarity,Positive*%
%FSLAX46Y46*%
G04 Gerber Fmt 4.6, Leading zero omitted, Abs format (unit mm)*
G04 Created by KiCad (PCBNEW 7.0.1) date 2023-10-19 22:58:34*
%MOMM*%
%LPD*%
G01*
G04 APERTURE LIST*
%ADD10C,0.300000*%
%ADD11C,0.200000*%
%ADD12C,0.150000*%
%ADD13C,0.120000*%
G04 APERTURE END LIST*
D10*
X250014285Y-1259285D02*
X249942857Y-1187857D01*
X249942857Y-1187857D02*
X249800000Y-1116428D01*
X249800000Y-1116428D02*
X249442857Y-1116428D01*
X249442857Y-1116428D02*
X249300000Y-1187857D01*
X249300000Y-1187857D02*
X249228571Y-1259285D01*
X249228571Y-1259285D02*
X249157142Y-1402142D01*
X249157142Y-1402142D02*
X249157142Y-1545000D01*
X249157142Y-1545000D02*
X249228571Y-1759285D01*
X249228571Y-1759285D02*
X250085714Y-2616428D01*
X250085714Y-2616428D02*
X249157142Y-2616428D01*
X248657143Y-1116428D02*
X247728571Y-1116428D01*
X247728571Y-1116428D02*
X248228571Y-1687857D01*
X248228571Y-1687857D02*
X248014286Y-1687857D01*
X248014286Y-1687857D02*
X247871429Y-1759285D01*
X247871429Y-1759285D02*
X247800000Y-1830714D01*
X247800000Y-1830714D02*
X247728571Y-1973571D01*
X247728571Y-1973571D02*
X247728571Y-2330714D01*
X247728571Y-2330714D02*
X247800000Y-2473571D01*
X247800000Y-2473571D02*
X247871429Y-2545000D01*
X247871429Y-2545000D02*
X248014286Y-2616428D01*
X248014286Y-2616428D02*
X248442857Y-2616428D01*
X248442857Y-2616428D02*
X248585714Y-2545000D01*
X248585714Y-2545000D02*
X248657143Y-2473571D01*
X203757142Y-4416428D02*
X204614285Y-4416428D01*
X204185714Y-4416428D02*
X204185714Y-2916428D01*
X204185714Y-2916428D02*
X204328571Y-3130714D01*
X204328571Y-3130714D02*
X204471428Y-3273571D01*
X204471428Y-3273571D02*
X204614285Y-3345000D01*
D11*
X101142857Y-2166428D02*
X101142857Y-666428D01*
X100285714Y-2166428D02*
X100928571Y-1309285D01*
X100285714Y-666428D02*
X101142857Y-1523571D01*
X99071428Y-2166428D02*
X99071428Y-1166428D01*
X99071428Y-1166428D02*
X99285714Y-1166428D01*
X99285714Y-1166428D02*
X99428571Y-1237857D01*
X99428571Y-1237857D02*
X99500000Y-1380714D01*
X99500000Y-1380714D02*
X99571428Y-1952142D01*
X99571428Y-1952142D02*
X99642857Y-2095000D01*
X99642857Y-2095000D02*
X99785714Y-2166428D01*
X97714286Y-2166428D02*
X97714286Y-1380714D01*
X97714286Y-1380714D02*
X97785714Y-1237857D01*
X97785714Y-1237857D02*
X97928571Y-1166428D01*
X97928571Y-1166428D02*
X98214286Y-1166428D01*
X98214286Y-1166428D02*
X98357143Y-1237857D01*
X97714286Y-2095000D02*
X97857143Y-2166428D01*
X97857143Y-2166428D02*
X98214286Y-2166428D01*
X98214286Y-2166428D02*
X98357143Y-2095000D01*
X98357143Y-2095000D02*
X98428571Y-1952142D01*
X98428571Y-1952142D02*
X98428571Y-1809285D01*
X98428571Y-1809285D02*
X98357143Y-1666428D01*
X98357143Y-1666428D02*
X98214286Y-1595000D01*
X98214286Y-1595000D02*
X97857143Y-1595000D01*
X97857143Y-1595000D02*
X97714286Y-1523571D01*
X96642857Y-1666428D02*
X96428571Y-1737857D01*
X96428571Y-1737857D02*
X96357143Y-1880714D01*
X96357143Y-1880714D02*
X96357143Y-1952142D01*
X96357143Y-1952142D02*
X96428571Y-2095000D01*
X96428571Y-2095000D02*
X96571428Y-2166428D01*
X96571428Y-2166428D02*
X97000000Y-2166428D01*
X97000000Y-2166428D02*
X97000000Y-1166428D01*
X97000000Y-1166428D02*
X96642857Y-1166428D01*
X96642857Y-1166428D02*
X96500000Y-1237857D01*
X96500000Y-1237857D02*
X96428571Y-1380714D01*
X96428571Y-1380714D02*
X96428571Y-1452142D01*
X96428571Y-1452142D02*
X96500000Y-1595000D01*
X96500000Y-1595000D02*
X96642857Y-1666428D01*
X96642857Y-1666428D02*
X97000000Y-1666428D01*
X95714286Y-1166428D02*
X95714286Y-2166428D01*
X95714286Y-2166428D02*
X95000000Y-1166428D01*
X95000000Y-1166428D02*
X95000000Y-2166428D01*
X93642858Y-2166428D02*
X93642858Y-1380714D01*
X93642858Y-1380714D02*
X93714286Y-1237857D01*
X93714286Y-1237857D02*
X93857143Y-1166428D01*
X93857143Y-1166428D02*
X94142858Y-1166428D01*
X94142858Y-1166428D02*
X94285715Y-1237857D01*
X93642858Y-2095000D02*
X93785715Y-2166428D01*
X93785715Y-2166428D02*
X94142858Y-2166428D01*
X94142858Y-2166428D02*
X94285715Y-2095000D01*
X94285715Y-2095000D02*
X94357143Y-1952142D01*
X94357143Y-1952142D02*
X94357143Y-1809285D01*
X94357143Y-1809285D02*
X94285715Y-1666428D01*
X94285715Y-1666428D02*
X94142858Y-1595000D01*
X94142858Y-1595000D02*
X93785715Y-1595000D01*
X93785715Y-1595000D02*
X93642858Y-1523571D01*
X93142857Y-1166428D02*
X92428572Y-1166428D01*
X92785715Y-1166428D02*
X92785715Y-2166428D01*
X92071429Y-1166428D02*
X91714286Y-2166428D01*
X91357143Y-1166428D02*
X91714286Y-2166428D01*
X91714286Y-2166428D02*
X91857143Y-2523571D01*
X91857143Y-2523571D02*
X91928572Y-2595000D01*
X91928572Y-2595000D02*
X92071429Y-2666428D01*
X90785715Y-1166428D02*
X90785715Y-2666428D01*
X90785715Y-1237857D02*
X90642858Y-1166428D01*
X90642858Y-1166428D02*
X90357143Y-1166428D01*
X90357143Y-1166428D02*
X90214286Y-1237857D01*
X90214286Y-1237857D02*
X90142858Y-1309285D01*
X90142858Y-1309285D02*
X90071429Y-1452142D01*
X90071429Y-1452142D02*
X90071429Y-1880714D01*
X90071429Y-1880714D02*
X90142858Y-2023571D01*
X90142858Y-2023571D02*
X90214286Y-2095000D01*
X90214286Y-2095000D02*
X90357143Y-2166428D01*
X90357143Y-2166428D02*
X90642858Y-2166428D01*
X90642858Y-2166428D02*
X90785715Y-2095000D01*
X88785715Y-2166428D02*
X88785715Y-1380714D01*
X88785715Y-1380714D02*
X88857143Y-1237857D01*
X88857143Y-1237857D02*
X89000000Y-1166428D01*
X89000000Y-1166428D02*
X89285715Y-1166428D01*
X89285715Y-1166428D02*
X89428572Y-1237857D01*
X88785715Y-2095000D02*
X88928572Y-2166428D01*
X88928572Y-2166428D02*
X89285715Y-2166428D01*
X89285715Y-2166428D02*
X89428572Y-2095000D01*
X89428572Y-2095000D02*
X89500000Y-1952142D01*
X89500000Y-1952142D02*
X89500000Y-1809285D01*
X89500000Y-1809285D02*
X89428572Y-1666428D01*
X89428572Y-1666428D02*
X89285715Y-1595000D01*
X89285715Y-1595000D02*
X88928572Y-1595000D01*
X88928572Y-1595000D02*
X88785715Y-1523571D01*
X86214286Y-666428D02*
X86928572Y-666428D01*
X86928572Y-666428D02*
X86928572Y-2166428D01*
X86928572Y-2166428D02*
X86500000Y-2166428D01*
X86500000Y-2166428D02*
X86285715Y-2095000D01*
X86285715Y-2095000D02*
X86142857Y-1952142D01*
X86142857Y-1952142D02*
X86071429Y-1809285D01*
X86071429Y-1809285D02*
X86071429Y-1595000D01*
X86071429Y-1595000D02*
X86142857Y-1452142D01*
X86142857Y-1452142D02*
X86285715Y-1309285D01*
X86285715Y-1309285D02*
X86500000Y-1237857D01*
X86500000Y-1237857D02*
X86928572Y-1237857D01*
X85428572Y-2166428D02*
X85428572Y-666428D01*
X85428572Y-666428D02*
X84571429Y-666428D01*
X84571429Y-666428D02*
X84571429Y-2166428D01*
X83857143Y-2166428D02*
X83857143Y-666428D01*
X83000000Y-2166428D02*
X83642857Y-1309285D01*
X83000000Y-666428D02*
X83857143Y-1523571D01*
X81285714Y-666428D02*
X81285714Y-952142D01*
X80714286Y-666428D02*
X80714286Y-952142D01*
X78928572Y-2523571D02*
X78928572Y-2166428D01*
X78928572Y-2166428D02*
X80214286Y-2166428D01*
X80214286Y-2166428D02*
X80214286Y-2523571D01*
X79214286Y-2166428D02*
X79214286Y-666428D01*
X79214286Y-666428D02*
X79571429Y-666428D01*
X79571429Y-666428D02*
X79714286Y-737857D01*
X79714286Y-737857D02*
X79785714Y-809285D01*
X79785714Y-809285D02*
X79857143Y-952142D01*
X79857143Y-952142D02*
X80000000Y-2166428D01*
X77785714Y-2095000D02*
X77928571Y-2166428D01*
X77928571Y-2166428D02*
X78214286Y-2166428D01*
X78214286Y-2166428D02*
X78357143Y-2095000D01*
X78357143Y-2095000D02*
X78428571Y-1952142D01*
X78428571Y-1952142D02*
X78428571Y-1380714D01*
X78428571Y-1380714D02*
X78357143Y-1237857D01*
X78357143Y-1237857D02*
X78214286Y-1166428D01*
X78214286Y-1166428D02*
X77928571Y-1166428D01*
X77928571Y-1166428D02*
X77785714Y-1237857D01*
X77785714Y-1237857D02*
X77714286Y-1380714D01*
X77714286Y-1380714D02*
X77714286Y-1523571D01*
X77714286Y-1523571D02*
X78428571Y-1666428D01*
X76500000Y-2166428D02*
X76500000Y-1166428D01*
X76500000Y-1166428D02*
X76714286Y-1166428D01*
X76714286Y-1166428D02*
X76857143Y-1237857D01*
X76857143Y-1237857D02*
X76928572Y-1380714D01*
X76928572Y-1380714D02*
X77000000Y-1952142D01*
X77000000Y-1952142D02*
X77071429Y-2095000D01*
X77071429Y-2095000D02*
X77214286Y-2166428D01*
X75785715Y-1166428D02*
X75785715Y-2166428D01*
X75785715Y-2166428D02*
X75428572Y-2166428D01*
X75428572Y-2166428D02*
X75285715Y-2095000D01*
X75285715Y-2095000D02*
X75214286Y-1952142D01*
X75214286Y-1952142D02*
X75214286Y-1737857D01*
X75214286Y-1737857D02*
X75285715Y-1595000D01*
X75285715Y-1595000D02*
X75428572Y-1523571D01*
X75428572Y-1523571D02*
X75785715Y-1523571D01*
X74785714Y-1166428D02*
X74071429Y-1166428D01*
X74428572Y-1166428D02*
X74428572Y-2166428D01*
X72928572Y-2166428D02*
X72928572Y-1380714D01*
X72928572Y-1380714D02*
X73000000Y-1237857D01*
X73000000Y-1237857D02*
X73142857Y-1166428D01*
X73142857Y-1166428D02*
X73428572Y-1166428D01*
X73428572Y-1166428D02*
X73571429Y-1237857D01*
X72928572Y-2095000D02*
X73071429Y-2166428D01*
X73071429Y-2166428D02*
X73428572Y-2166428D01*
X73428572Y-2166428D02*
X73571429Y-2095000D01*
X73571429Y-2095000D02*
X73642857Y-1952142D01*
X73642857Y-1952142D02*
X73642857Y-1809285D01*
X73642857Y-1809285D02*
X73571429Y-1666428D01*
X73571429Y-1666428D02*
X73428572Y-1595000D01*
X73428572Y-1595000D02*
X73071429Y-1595000D01*
X73071429Y-1595000D02*
X72928572Y-1523571D01*
X72214286Y-1595000D02*
X71071429Y-1595000D01*
X69500000Y-2023571D02*
X69571428Y-2095000D01*
X69571428Y-2095000D02*
X69785714Y-2166428D01*
X69785714Y-2166428D02*
X69928571Y-2166428D01*
X69928571Y-2166428D02*
X70142857Y-2095000D01*
X70142857Y-2095000D02*
X70285714Y-1952142D01*
X70285714Y-1952142D02*
X70357143Y-1809285D01*
X70357143Y-1809285D02*
X70428571Y-1523571D01*
X70428571Y-1523571D02*
X70428571Y-1309285D01*
X70428571Y-1309285D02*
X70357143Y-1023571D01*
X70357143Y-1023571D02*
X70285714Y-880714D01*
X70285714Y-880714D02*
X70142857Y-737857D01*
X70142857Y-737857D02*
X69928571Y-666428D01*
X69928571Y-666428D02*
X69785714Y-666428D01*
X69785714Y-666428D02*
X69571428Y-737857D01*
X69571428Y-737857D02*
X69500000Y-809285D01*
X68928571Y-666428D02*
X68928571Y-952142D01*
X68357143Y-666428D02*
X68357143Y-952142D01*
X65500000Y-595000D02*
X66785714Y-2523571D01*
X63857143Y-2166428D02*
X63857143Y-666428D01*
X63857143Y-666428D02*
X63500000Y-666428D01*
X63500000Y-666428D02*
X63285714Y-737857D01*
X63285714Y-737857D02*
X63142857Y-880714D01*
X63142857Y-880714D02*
X63071428Y-1023571D01*
X63071428Y-1023571D02*
X63000000Y-1309285D01*
X63000000Y-1309285D02*
X63000000Y-1523571D01*
X63000000Y-1523571D02*
X63071428Y-1809285D01*
X63071428Y-1809285D02*
X63142857Y-1952142D01*
X63142857Y-1952142D02*
X63285714Y-2095000D01*
X63285714Y-2095000D02*
X63500000Y-2166428D01*
X63500000Y-2166428D02*
X63857143Y-2166428D01*
X61785714Y-2095000D02*
X61928571Y-2166428D01*
X61928571Y-2166428D02*
X62214286Y-2166428D01*
X62214286Y-2166428D02*
X62357143Y-2095000D01*
X62357143Y-2095000D02*
X62428571Y-1952142D01*
X62428571Y-1952142D02*
X62428571Y-1380714D01*
X62428571Y-1380714D02*
X62357143Y-1237857D01*
X62357143Y-1237857D02*
X62214286Y-1166428D01*
X62214286Y-1166428D02*
X61928571Y-1166428D01*
X61928571Y-1166428D02*
X61785714Y-1237857D01*
X61785714Y-1237857D02*
X61714286Y-1380714D01*
X61714286Y-1380714D02*
X61714286Y-1523571D01*
X61714286Y-1523571D02*
X62428571Y-1666428D01*
X60857143Y-2166428D02*
X61000000Y-2095000D01*
X61000000Y-2095000D02*
X61071429Y-1952142D01*
X61071429Y-1952142D02*
X61071429Y-666428D01*
X60500000Y-1166428D02*
X59928572Y-1166428D01*
X60285715Y-666428D02*
X60285715Y-1952142D01*
X60285715Y-1952142D02*
X60214286Y-2095000D01*
X60214286Y-2095000D02*
X60071429Y-2166428D01*
X60071429Y-2166428D02*
X59928572Y-2166428D01*
X58785715Y-2166428D02*
X58785715Y-1380714D01*
X58785715Y-1380714D02*
X58857143Y-1237857D01*
X58857143Y-1237857D02*
X59000000Y-1166428D01*
X59000000Y-1166428D02*
X59285715Y-1166428D01*
X59285715Y-1166428D02*
X59428572Y-1237857D01*
X58785715Y-2095000D02*
X58928572Y-2166428D01*
X58928572Y-2166428D02*
X59285715Y-2166428D01*
X59285715Y-2166428D02*
X59428572Y-2095000D01*
X59428572Y-2095000D02*
X59500000Y-1952142D01*
X59500000Y-1952142D02*
X59500000Y-1809285D01*
X59500000Y-1809285D02*
X59428572Y-1666428D01*
X59428572Y-1666428D02*
X59285715Y-1595000D01*
X59285715Y-1595000D02*
X58928572Y-1595000D01*
X58928572Y-1595000D02*
X58785715Y-1523571D01*
X58071429Y-1595000D02*
X56928572Y-1595000D01*
X56285714Y-2095000D02*
X56071429Y-2166428D01*
X56071429Y-2166428D02*
X55714286Y-2166428D01*
X55714286Y-2166428D02*
X55571429Y-2095000D01*
X55571429Y-2095000D02*
X55500000Y-2023571D01*
X55500000Y-2023571D02*
X55428571Y-1880714D01*
X55428571Y-1880714D02*
X55428571Y-1737857D01*
X55428571Y-1737857D02*
X55500000Y-1595000D01*
X55500000Y-1595000D02*
X55571429Y-1523571D01*
X55571429Y-1523571D02*
X55714286Y-1452142D01*
X55714286Y-1452142D02*
X56000000Y-1380714D01*
X56000000Y-1380714D02*
X56142857Y-1309285D01*
X56142857Y-1309285D02*
X56214286Y-1237857D01*
X56214286Y-1237857D02*
X56285714Y-1095000D01*
X56285714Y-1095000D02*
X56285714Y-952142D01*
X56285714Y-952142D02*
X56214286Y-809285D01*
X56214286Y-809285D02*
X56142857Y-737857D01*
X56142857Y-737857D02*
X56000000Y-666428D01*
X56000000Y-666428D02*
X55642857Y-666428D01*
X55642857Y-666428D02*
X55428571Y-737857D01*
X53642858Y-2166428D02*
X53642858Y-666428D01*
X52785715Y-2166428D02*
X53428572Y-1309285D01*
X52785715Y-666428D02*
X53642858Y-1523571D01*
X51571429Y-2095000D02*
X51714286Y-2166428D01*
X51714286Y-2166428D02*
X52000001Y-2166428D01*
X52000001Y-2166428D02*
X52142858Y-2095000D01*
X52142858Y-2095000D02*
X52214286Y-1952142D01*
X52214286Y-1952142D02*
X52214286Y-1380714D01*
X52214286Y-1380714D02*
X52142858Y-1237857D01*
X52142858Y-1237857D02*
X52000001Y-1166428D01*
X52000001Y-1166428D02*
X51714286Y-1166428D01*
X51714286Y-1166428D02*
X51571429Y-1237857D01*
X51571429Y-1237857D02*
X51500001Y-1380714D01*
X51500001Y-1380714D02*
X51500001Y-1523571D01*
X51500001Y-1523571D02*
X52214286Y-1666428D01*
X51000001Y-1166428D02*
X50642858Y-2166428D01*
X50285715Y-1166428D02*
X50642858Y-2166428D01*
X50642858Y-2166428D02*
X50785715Y-2523571D01*
X50785715Y-2523571D02*
X50857144Y-2595000D01*
X50857144Y-2595000D02*
X51000001Y-2666428D01*
X49714287Y-2166428D02*
X49714287Y-666428D01*
X49714287Y-1237857D02*
X49571430Y-1166428D01*
X49571430Y-1166428D02*
X49285715Y-1166428D01*
X49285715Y-1166428D02*
X49142858Y-1237857D01*
X49142858Y-1237857D02*
X49071430Y-1309285D01*
X49071430Y-1309285D02*
X49000001Y-1452142D01*
X49000001Y-1452142D02*
X49000001Y-1880714D01*
X49000001Y-1880714D02*
X49071430Y-2023571D01*
X49071430Y-2023571D02*
X49142858Y-2095000D01*
X49142858Y-2095000D02*
X49285715Y-2166428D01*
X49285715Y-2166428D02*
X49571430Y-2166428D01*
X49571430Y-2166428D02*
X49714287Y-2095000D01*
X48142858Y-2166428D02*
X48285715Y-2095000D01*
X48285715Y-2095000D02*
X48357144Y-2023571D01*
X48357144Y-2023571D02*
X48428572Y-1880714D01*
X48428572Y-1880714D02*
X48428572Y-1452142D01*
X48428572Y-1452142D02*
X48357144Y-1309285D01*
X48357144Y-1309285D02*
X48285715Y-1237857D01*
X48285715Y-1237857D02*
X48142858Y-1166428D01*
X48142858Y-1166428D02*
X47928572Y-1166428D01*
X47928572Y-1166428D02*
X47785715Y-1237857D01*
X47785715Y-1237857D02*
X47714287Y-1309285D01*
X47714287Y-1309285D02*
X47642858Y-1452142D01*
X47642858Y-1452142D02*
X47642858Y-1880714D01*
X47642858Y-1880714D02*
X47714287Y-2023571D01*
X47714287Y-2023571D02*
X47785715Y-2095000D01*
X47785715Y-2095000D02*
X47928572Y-2166428D01*
X47928572Y-2166428D02*
X48142858Y-2166428D01*
X46357144Y-2166428D02*
X46357144Y-1380714D01*
X46357144Y-1380714D02*
X46428572Y-1237857D01*
X46428572Y-1237857D02*
X46571429Y-1166428D01*
X46571429Y-1166428D02*
X46857144Y-1166428D01*
X46857144Y-1166428D02*
X47000001Y-1237857D01*
X46357144Y-2095000D02*
X46500001Y-2166428D01*
X46500001Y-2166428D02*
X46857144Y-2166428D01*
X46857144Y-2166428D02*
X47000001Y-2095000D01*
X47000001Y-2095000D02*
X47071429Y-1952142D01*
X47071429Y-1952142D02*
X47071429Y-1809285D01*
X47071429Y-1809285D02*
X47000001Y-1666428D01*
X47000001Y-1666428D02*
X46857144Y-1595000D01*
X46857144Y-1595000D02*
X46500001Y-1595000D01*
X46500001Y-1595000D02*
X46357144Y-1523571D01*
X45642858Y-2166428D02*
X45642858Y-1166428D01*
X45642858Y-1452142D02*
X45571429Y-1309285D01*
X45571429Y-1309285D02*
X45500001Y-1237857D01*
X45500001Y-1237857D02*
X45357143Y-1166428D01*
X45357143Y-1166428D02*
X45214286Y-1166428D01*
X44071430Y-2166428D02*
X44071430Y-666428D01*
X44071430Y-2095000D02*
X44214287Y-2166428D01*
X44214287Y-2166428D02*
X44500001Y-2166428D01*
X44500001Y-2166428D02*
X44642858Y-2095000D01*
X44642858Y-2095000D02*
X44714287Y-2023571D01*
X44714287Y-2023571D02*
X44785715Y-1880714D01*
X44785715Y-1880714D02*
X44785715Y-1452142D01*
X44785715Y-1452142D02*
X44714287Y-1309285D01*
X44714287Y-1309285D02*
X44642858Y-1237857D01*
X44642858Y-1237857D02*
X44500001Y-1166428D01*
X44500001Y-1166428D02*
X44214287Y-1166428D01*
X44214287Y-1166428D02*
X44071430Y-1237857D01*
X41785715Y-2737857D02*
X41857144Y-2666428D01*
X41857144Y-2666428D02*
X42000001Y-2452142D01*
X42000001Y-2452142D02*
X42071430Y-2309285D01*
X42071430Y-2309285D02*
X42142858Y-2095000D01*
X42142858Y-2095000D02*
X42214287Y-1737857D01*
X42214287Y-1737857D02*
X42214287Y-1452142D01*
X42214287Y-1452142D02*
X42142858Y-1095000D01*
X42142858Y-1095000D02*
X42071430Y-880714D01*
X42071430Y-880714D02*
X42000001Y-737857D01*
X42000001Y-737857D02*
X41857144Y-523571D01*
X41857144Y-523571D02*
X41785715Y-452142D01*
X41214287Y-2166428D02*
X41214287Y-666428D01*
X41214287Y-666428D02*
X40642858Y-666428D01*
X40642858Y-666428D02*
X40500001Y-737857D01*
X40500001Y-737857D02*
X40428572Y-809285D01*
X40428572Y-809285D02*
X40357144Y-952142D01*
X40357144Y-952142D02*
X40357144Y-1166428D01*
X40357144Y-1166428D02*
X40428572Y-1309285D01*
X40428572Y-1309285D02*
X40500001Y-1380714D01*
X40500001Y-1380714D02*
X40642858Y-1452142D01*
X40642858Y-1452142D02*
X41214287Y-1452142D01*
X38857144Y-2023571D02*
X38928572Y-2095000D01*
X38928572Y-2095000D02*
X39142858Y-2166428D01*
X39142858Y-2166428D02*
X39285715Y-2166428D01*
X39285715Y-2166428D02*
X39500001Y-2095000D01*
X39500001Y-2095000D02*
X39642858Y-1952142D01*
X39642858Y-1952142D02*
X39714287Y-1809285D01*
X39714287Y-1809285D02*
X39785715Y-1523571D01*
X39785715Y-1523571D02*
X39785715Y-1309285D01*
X39785715Y-1309285D02*
X39714287Y-1023571D01*
X39714287Y-1023571D02*
X39642858Y-880714D01*
X39642858Y-880714D02*
X39500001Y-737857D01*
X39500001Y-737857D02*
X39285715Y-666428D01*
X39285715Y-666428D02*
X39142858Y-666428D01*
X39142858Y-666428D02*
X38928572Y-737857D01*
X38928572Y-737857D02*
X38857144Y-809285D01*
X37714287Y-1380714D02*
X37500001Y-1452142D01*
X37500001Y-1452142D02*
X37428572Y-1523571D01*
X37428572Y-1523571D02*
X37357144Y-1666428D01*
X37357144Y-1666428D02*
X37357144Y-1880714D01*
X37357144Y-1880714D02*
X37428572Y-2023571D01*
X37428572Y-2023571D02*
X37500001Y-2095000D01*
X37500001Y-2095000D02*
X37642858Y-2166428D01*
X37642858Y-2166428D02*
X38214287Y-2166428D01*
X38214287Y-2166428D02*
X38214287Y-666428D01*
X38214287Y-666428D02*
X37714287Y-666428D01*
X37714287Y-666428D02*
X37571430Y-737857D01*
X37571430Y-737857D02*
X37500001Y-809285D01*
X37500001Y-809285D02*
X37428572Y-952142D01*
X37428572Y-952142D02*
X37428572Y-1095000D01*
X37428572Y-1095000D02*
X37500001Y-1237857D01*
X37500001Y-1237857D02*
X37571430Y-1309285D01*
X37571430Y-1309285D02*
X37714287Y-1380714D01*
X37714287Y-1380714D02*
X38214287Y-1380714D01*
X36857144Y-2737857D02*
X36785715Y-2666428D01*
X36785715Y-2666428D02*
X36642858Y-2452142D01*
X36642858Y-2452142D02*
X36571430Y-2309285D01*
X36571430Y-2309285D02*
X36500001Y-2095000D01*
X36500001Y-2095000D02*
X36428572Y-1737857D01*
X36428572Y-1737857D02*
X36428572Y-1452142D01*
X36428572Y-1452142D02*
X36500001Y-1095000D01*
X36500001Y-1095000D02*
X36571430Y-880714D01*
X36571430Y-880714D02*
X36642858Y-737857D01*
X36642858Y-737857D02*
X36785715Y-523571D01*
X36785715Y-523571D02*
X36857144Y-452142D01*
X101357142Y-3096428D02*
X100857142Y-4596428D01*
X100857142Y-4596428D02*
X100357142Y-3096428D01*
X99285714Y-4525000D02*
X99428571Y-4596428D01*
X99428571Y-4596428D02*
X99714286Y-4596428D01*
X99714286Y-4596428D02*
X99857143Y-4525000D01*
X99857143Y-4525000D02*
X99928571Y-4382142D01*
X99928571Y-4382142D02*
X99928571Y-3810714D01*
X99928571Y-3810714D02*
X99857143Y-3667857D01*
X99857143Y-3667857D02*
X99714286Y-3596428D01*
X99714286Y-3596428D02*
X99428571Y-3596428D01*
X99428571Y-3596428D02*
X99285714Y-3667857D01*
X99285714Y-3667857D02*
X99214286Y-3810714D01*
X99214286Y-3810714D02*
X99214286Y-3953571D01*
X99214286Y-3953571D02*
X99928571Y-4096428D01*
X98571429Y-4596428D02*
X98571429Y-3596428D01*
X98571429Y-3882142D02*
X98500000Y-3739285D01*
X98500000Y-3739285D02*
X98428572Y-3667857D01*
X98428572Y-3667857D02*
X98285714Y-3596428D01*
X98285714Y-3596428D02*
X98142857Y-3596428D01*
X97714286Y-4525000D02*
X97571429Y-4596428D01*
X97571429Y-4596428D02*
X97285715Y-4596428D01*
X97285715Y-4596428D02*
X97142858Y-4525000D01*
X97142858Y-4525000D02*
X97071429Y-4382142D01*
X97071429Y-4382142D02*
X97071429Y-4310714D01*
X97071429Y-4310714D02*
X97142858Y-4167857D01*
X97142858Y-4167857D02*
X97285715Y-4096428D01*
X97285715Y-4096428D02*
X97500001Y-4096428D01*
X97500001Y-4096428D02*
X97642858Y-4025000D01*
X97642858Y-4025000D02*
X97714286Y-3882142D01*
X97714286Y-3882142D02*
X97714286Y-3810714D01*
X97714286Y-3810714D02*
X97642858Y-3667857D01*
X97642858Y-3667857D02*
X97500001Y-3596428D01*
X97500001Y-3596428D02*
X97285715Y-3596428D01*
X97285715Y-3596428D02*
X97142858Y-3667857D01*
X96428572Y-4596428D02*
X96428572Y-3596428D01*
X96428572Y-3096428D02*
X96500000Y-3167857D01*
X96500000Y-3167857D02*
X96428572Y-3239285D01*
X96428572Y-3239285D02*
X96357143Y-3167857D01*
X96357143Y-3167857D02*
X96428572Y-3096428D01*
X96428572Y-3096428D02*
X96428572Y-3239285D01*
X95500000Y-4596428D02*
X95642857Y-4525000D01*
X95642857Y-4525000D02*
X95714286Y-4453571D01*
X95714286Y-4453571D02*
X95785714Y-4310714D01*
X95785714Y-4310714D02*
X95785714Y-3882142D01*
X95785714Y-3882142D02*
X95714286Y-3739285D01*
X95714286Y-3739285D02*
X95642857Y-3667857D01*
X95642857Y-3667857D02*
X95500000Y-3596428D01*
X95500000Y-3596428D02*
X95285714Y-3596428D01*
X95285714Y-3596428D02*
X95142857Y-3667857D01*
X95142857Y-3667857D02*
X95071429Y-3739285D01*
X95071429Y-3739285D02*
X95000000Y-3882142D01*
X95000000Y-3882142D02*
X95000000Y-4310714D01*
X95000000Y-4310714D02*
X95071429Y-4453571D01*
X95071429Y-4453571D02*
X95142857Y-4525000D01*
X95142857Y-4525000D02*
X95285714Y-4596428D01*
X95285714Y-4596428D02*
X95500000Y-4596428D01*
X94357143Y-3596428D02*
X94357143Y-4596428D01*
X94357143Y-3739285D02*
X94285714Y-3667857D01*
X94285714Y-3667857D02*
X94142857Y-3596428D01*
X94142857Y-3596428D02*
X93928571Y-3596428D01*
X93928571Y-3596428D02*
X93785714Y-3667857D01*
X93785714Y-3667857D02*
X93714286Y-3810714D01*
X93714286Y-3810714D02*
X93714286Y-4596428D01*
X91571428Y-3096428D02*
X91428571Y-3096428D01*
X91428571Y-3096428D02*
X91285714Y-3167857D01*
X91285714Y-3167857D02*
X91214286Y-3239285D01*
X91214286Y-3239285D02*
X91142857Y-3382142D01*
X91142857Y-3382142D02*
X91071428Y-3667857D01*
X91071428Y-3667857D02*
X91071428Y-4025000D01*
X91071428Y-4025000D02*
X91142857Y-4310714D01*
X91142857Y-4310714D02*
X91214286Y-4453571D01*
X91214286Y-4453571D02*
X91285714Y-4525000D01*
X91285714Y-4525000D02*
X91428571Y-4596428D01*
X91428571Y-4596428D02*
X91571428Y-4596428D01*
X91571428Y-4596428D02*
X91714286Y-4525000D01*
X91714286Y-4525000D02*
X91785714Y-4453571D01*
X91785714Y-4453571D02*
X91857143Y-4310714D01*
X91857143Y-4310714D02*
X91928571Y-4025000D01*
X91928571Y-4025000D02*
X91928571Y-3667857D01*
X91928571Y-3667857D02*
X91857143Y-3382142D01*
X91857143Y-3382142D02*
X91785714Y-3239285D01*
X91785714Y-3239285D02*
X91714286Y-3167857D01*
X91714286Y-3167857D02*
X91571428Y-3096428D01*
X90428572Y-4453571D02*
X90357143Y-4525000D01*
X90357143Y-4525000D02*
X90428572Y-4596428D01*
X90428572Y-4596428D02*
X90500000Y-4525000D01*
X90500000Y-4525000D02*
X90428572Y-4453571D01*
X90428572Y-4453571D02*
X90428572Y-4596428D01*
X88928571Y-4596428D02*
X89785714Y-4596428D01*
X89357143Y-4596428D02*
X89357143Y-3096428D01*
X89357143Y-3096428D02*
X89500000Y-3310714D01*
X89500000Y-3310714D02*
X89642857Y-3453571D01*
X89642857Y-3453571D02*
X89785714Y-3525000D01*
X100642857Y-6240714D02*
X100428571Y-6312142D01*
X100428571Y-6312142D02*
X100357142Y-6383571D01*
X100357142Y-6383571D02*
X100285714Y-6526428D01*
X100285714Y-6526428D02*
X100285714Y-6740714D01*
X100285714Y-6740714D02*
X100357142Y-6883571D01*
X100357142Y-6883571D02*
X100428571Y-6955000D01*
X100428571Y-6955000D02*
X100571428Y-7026428D01*
X100571428Y-7026428D02*
X101142857Y-7026428D01*
X101142857Y-7026428D02*
X101142857Y-5526428D01*
X101142857Y-5526428D02*
X100642857Y-5526428D01*
X100642857Y-5526428D02*
X100500000Y-5597857D01*
X100500000Y-5597857D02*
X100428571Y-5669285D01*
X100428571Y-5669285D02*
X100357142Y-5812142D01*
X100357142Y-5812142D02*
X100357142Y-5955000D01*
X100357142Y-5955000D02*
X100428571Y-6097857D01*
X100428571Y-6097857D02*
X100500000Y-6169285D01*
X100500000Y-6169285D02*
X100642857Y-6240714D01*
X100642857Y-6240714D02*
X101142857Y-6240714D01*
X99428571Y-7026428D02*
X99571428Y-6955000D01*
X99571428Y-6955000D02*
X99642857Y-6883571D01*
X99642857Y-6883571D02*
X99714285Y-6740714D01*
X99714285Y-6740714D02*
X99714285Y-6312142D01*
X99714285Y-6312142D02*
X99642857Y-6169285D01*
X99642857Y-6169285D02*
X99571428Y-6097857D01*
X99571428Y-6097857D02*
X99428571Y-6026428D01*
X99428571Y-6026428D02*
X99214285Y-6026428D01*
X99214285Y-6026428D02*
X99071428Y-6097857D01*
X99071428Y-6097857D02*
X99000000Y-6169285D01*
X99000000Y-6169285D02*
X98928571Y-6312142D01*
X98928571Y-6312142D02*
X98928571Y-6740714D01*
X98928571Y-6740714D02*
X99000000Y-6883571D01*
X99000000Y-6883571D02*
X99071428Y-6955000D01*
X99071428Y-6955000D02*
X99214285Y-7026428D01*
X99214285Y-7026428D02*
X99428571Y-7026428D01*
X97642857Y-7026428D02*
X97642857Y-6240714D01*
X97642857Y-6240714D02*
X97714285Y-6097857D01*
X97714285Y-6097857D02*
X97857142Y-6026428D01*
X97857142Y-6026428D02*
X98142857Y-6026428D01*
X98142857Y-6026428D02*
X98285714Y-6097857D01*
X97642857Y-6955000D02*
X97785714Y-7026428D01*
X97785714Y-7026428D02*
X98142857Y-7026428D01*
X98142857Y-7026428D02*
X98285714Y-6955000D01*
X98285714Y-6955000D02*
X98357142Y-6812142D01*
X98357142Y-6812142D02*
X98357142Y-6669285D01*
X98357142Y-6669285D02*
X98285714Y-6526428D01*
X98285714Y-6526428D02*
X98142857Y-6455000D01*
X98142857Y-6455000D02*
X97785714Y-6455000D01*
X97785714Y-6455000D02*
X97642857Y-6383571D01*
X96928571Y-7026428D02*
X96928571Y-6026428D01*
X96928571Y-6312142D02*
X96857142Y-6169285D01*
X96857142Y-6169285D02*
X96785714Y-6097857D01*
X96785714Y-6097857D02*
X96642856Y-6026428D01*
X96642856Y-6026428D02*
X96499999Y-6026428D01*
X95357143Y-7026428D02*
X95357143Y-5526428D01*
X95357143Y-6955000D02*
X95500000Y-7026428D01*
X95500000Y-7026428D02*
X95785714Y-7026428D01*
X95785714Y-7026428D02*
X95928571Y-6955000D01*
X95928571Y-6955000D02*
X96000000Y-6883571D01*
X96000000Y-6883571D02*
X96071428Y-6740714D01*
X96071428Y-6740714D02*
X96071428Y-6312142D01*
X96071428Y-6312142D02*
X96000000Y-6169285D01*
X96000000Y-6169285D02*
X95928571Y-6097857D01*
X95928571Y-6097857D02*
X95785714Y-6026428D01*
X95785714Y-6026428D02*
X95500000Y-6026428D01*
X95500000Y-6026428D02*
X95357143Y-6097857D01*
X93500000Y-7026428D02*
X93500000Y-5526428D01*
X93500000Y-5526428D02*
X93142857Y-5526428D01*
X93142857Y-5526428D02*
X92928571Y-5597857D01*
X92928571Y-5597857D02*
X92785714Y-5740714D01*
X92785714Y-5740714D02*
X92714285Y-5883571D01*
X92714285Y-5883571D02*
X92642857Y-6169285D01*
X92642857Y-6169285D02*
X92642857Y-6383571D01*
X92642857Y-6383571D02*
X92714285Y-6669285D01*
X92714285Y-6669285D02*
X92785714Y-6812142D01*
X92785714Y-6812142D02*
X92928571Y-6955000D01*
X92928571Y-6955000D02*
X93142857Y-7026428D01*
X93142857Y-7026428D02*
X93500000Y-7026428D01*
X91428571Y-6955000D02*
X91571428Y-7026428D01*
X91571428Y-7026428D02*
X91857143Y-7026428D01*
X91857143Y-7026428D02*
X92000000Y-6955000D01*
X92000000Y-6955000D02*
X92071428Y-6812142D01*
X92071428Y-6812142D02*
X92071428Y-6240714D01*
X92071428Y-6240714D02*
X92000000Y-6097857D01*
X92000000Y-6097857D02*
X91857143Y-6026428D01*
X91857143Y-6026428D02*
X91571428Y-6026428D01*
X91571428Y-6026428D02*
X91428571Y-6097857D01*
X91428571Y-6097857D02*
X91357143Y-6240714D01*
X91357143Y-6240714D02*
X91357143Y-6383571D01*
X91357143Y-6383571D02*
X92071428Y-6526428D01*
X90785714Y-6955000D02*
X90642857Y-7026428D01*
X90642857Y-7026428D02*
X90357143Y-7026428D01*
X90357143Y-7026428D02*
X90214286Y-6955000D01*
X90214286Y-6955000D02*
X90142857Y-6812142D01*
X90142857Y-6812142D02*
X90142857Y-6740714D01*
X90142857Y-6740714D02*
X90214286Y-6597857D01*
X90214286Y-6597857D02*
X90357143Y-6526428D01*
X90357143Y-6526428D02*
X90571429Y-6526428D01*
X90571429Y-6526428D02*
X90714286Y-6455000D01*
X90714286Y-6455000D02*
X90785714Y-6312142D01*
X90785714Y-6312142D02*
X90785714Y-6240714D01*
X90785714Y-6240714D02*
X90714286Y-6097857D01*
X90714286Y-6097857D02*
X90571429Y-6026428D01*
X90571429Y-6026428D02*
X90357143Y-6026428D01*
X90357143Y-6026428D02*
X90214286Y-6097857D01*
X89500000Y-7026428D02*
X89500000Y-6026428D01*
X89500000Y-5526428D02*
X89571428Y-5597857D01*
X89571428Y-5597857D02*
X89500000Y-5669285D01*
X89500000Y-5669285D02*
X89428571Y-5597857D01*
X89428571Y-5597857D02*
X89500000Y-5526428D01*
X89500000Y-5526428D02*
X89500000Y-5669285D01*
X88142857Y-6026428D02*
X88142857Y-7240714D01*
X88142857Y-7240714D02*
X88214285Y-7383571D01*
X88214285Y-7383571D02*
X88285714Y-7455000D01*
X88285714Y-7455000D02*
X88428571Y-7526428D01*
X88428571Y-7526428D02*
X88642857Y-7526428D01*
X88642857Y-7526428D02*
X88785714Y-7455000D01*
X88142857Y-6955000D02*
X88285714Y-7026428D01*
X88285714Y-7026428D02*
X88571428Y-7026428D01*
X88571428Y-7026428D02*
X88714285Y-6955000D01*
X88714285Y-6955000D02*
X88785714Y-6883571D01*
X88785714Y-6883571D02*
X88857142Y-6740714D01*
X88857142Y-6740714D02*
X88857142Y-6312142D01*
X88857142Y-6312142D02*
X88785714Y-6169285D01*
X88785714Y-6169285D02*
X88714285Y-6097857D01*
X88714285Y-6097857D02*
X88571428Y-6026428D01*
X88571428Y-6026428D02*
X88285714Y-6026428D01*
X88285714Y-6026428D02*
X88142857Y-6097857D01*
X87428571Y-6026428D02*
X87428571Y-7026428D01*
X87428571Y-6169285D02*
X87357142Y-6097857D01*
X87357142Y-6097857D02*
X87214285Y-6026428D01*
X87214285Y-6026428D02*
X86999999Y-6026428D01*
X86999999Y-6026428D02*
X86857142Y-6097857D01*
X86857142Y-6097857D02*
X86785714Y-6240714D01*
X86785714Y-6240714D02*
X86785714Y-7026428D01*
X84928571Y-7026428D02*
X84928571Y-5526428D01*
X84928571Y-6097857D02*
X84785714Y-6026428D01*
X84785714Y-6026428D02*
X84499999Y-6026428D01*
X84499999Y-6026428D02*
X84357142Y-6097857D01*
X84357142Y-6097857D02*
X84285714Y-6169285D01*
X84285714Y-6169285D02*
X84214285Y-6312142D01*
X84214285Y-6312142D02*
X84214285Y-6740714D01*
X84214285Y-6740714D02*
X84285714Y-6883571D01*
X84285714Y-6883571D02*
X84357142Y-6955000D01*
X84357142Y-6955000D02*
X84499999Y-7026428D01*
X84499999Y-7026428D02*
X84785714Y-7026428D01*
X84785714Y-7026428D02*
X84928571Y-6955000D01*
X83714285Y-6026428D02*
X83357142Y-7026428D01*
X82999999Y-6026428D02*
X83357142Y-7026428D01*
X83357142Y-7026428D02*
X83499999Y-7383571D01*
X83499999Y-7383571D02*
X83571428Y-7455000D01*
X83571428Y-7455000D02*
X83714285Y-7526428D01*
X81285714Y-7026428D02*
X81285714Y-5526428D01*
X81285714Y-5526428D02*
X80785714Y-6597857D01*
X80785714Y-6597857D02*
X80285714Y-5526428D01*
X80285714Y-5526428D02*
X80285714Y-7026428D01*
X78928571Y-7026428D02*
X78928571Y-6240714D01*
X78928571Y-6240714D02*
X78999999Y-6097857D01*
X78999999Y-6097857D02*
X79142856Y-6026428D01*
X79142856Y-6026428D02*
X79428571Y-6026428D01*
X79428571Y-6026428D02*
X79571428Y-6097857D01*
X78928571Y-6955000D02*
X79071428Y-7026428D01*
X79071428Y-7026428D02*
X79428571Y-7026428D01*
X79428571Y-7026428D02*
X79571428Y-6955000D01*
X79571428Y-6955000D02*
X79642856Y-6812142D01*
X79642856Y-6812142D02*
X79642856Y-6669285D01*
X79642856Y-6669285D02*
X79571428Y-6526428D01*
X79571428Y-6526428D02*
X79428571Y-6455000D01*
X79428571Y-6455000D02*
X79071428Y-6455000D01*
X79071428Y-6455000D02*
X78928571Y-6383571D01*
X77571428Y-7026428D02*
X77571428Y-5526428D01*
X77571428Y-6955000D02*
X77714285Y-7026428D01*
X77714285Y-7026428D02*
X77999999Y-7026428D01*
X77999999Y-7026428D02*
X78142856Y-6955000D01*
X78142856Y-6955000D02*
X78214285Y-6883571D01*
X78214285Y-6883571D02*
X78285713Y-6740714D01*
X78285713Y-6740714D02*
X78285713Y-6312142D01*
X78285713Y-6312142D02*
X78214285Y-6169285D01*
X78214285Y-6169285D02*
X78142856Y-6097857D01*
X78142856Y-6097857D02*
X77999999Y-6026428D01*
X77999999Y-6026428D02*
X77714285Y-6026428D01*
X77714285Y-6026428D02*
X77571428Y-6097857D01*
X75999999Y-6883571D02*
X76071427Y-6955000D01*
X76071427Y-6955000D02*
X76285713Y-7026428D01*
X76285713Y-7026428D02*
X76428570Y-7026428D01*
X76428570Y-7026428D02*
X76642856Y-6955000D01*
X76642856Y-6955000D02*
X76785713Y-6812142D01*
X76785713Y-6812142D02*
X76857142Y-6669285D01*
X76857142Y-6669285D02*
X76928570Y-6383571D01*
X76928570Y-6383571D02*
X76928570Y-6169285D01*
X76928570Y-6169285D02*
X76857142Y-5883571D01*
X76857142Y-5883571D02*
X76785713Y-5740714D01*
X76785713Y-5740714D02*
X76642856Y-5597857D01*
X76642856Y-5597857D02*
X76428570Y-5526428D01*
X76428570Y-5526428D02*
X76285713Y-5526428D01*
X76285713Y-5526428D02*
X76071427Y-5597857D01*
X76071427Y-5597857D02*
X75999999Y-5669285D01*
X74714285Y-7026428D02*
X74714285Y-6240714D01*
X74714285Y-6240714D02*
X74785713Y-6097857D01*
X74785713Y-6097857D02*
X74928570Y-6026428D01*
X74928570Y-6026428D02*
X75214285Y-6026428D01*
X75214285Y-6026428D02*
X75357142Y-6097857D01*
X74714285Y-6955000D02*
X74857142Y-7026428D01*
X74857142Y-7026428D02*
X75214285Y-7026428D01*
X75214285Y-7026428D02*
X75357142Y-6955000D01*
X75357142Y-6955000D02*
X75428570Y-6812142D01*
X75428570Y-6812142D02*
X75428570Y-6669285D01*
X75428570Y-6669285D02*
X75357142Y-6526428D01*
X75357142Y-6526428D02*
X75214285Y-6455000D01*
X75214285Y-6455000D02*
X74857142Y-6455000D01*
X74857142Y-6455000D02*
X74714285Y-6383571D01*
X74214284Y-6026428D02*
X73642856Y-6026428D01*
X73999999Y-5526428D02*
X73999999Y-6812142D01*
X73999999Y-6812142D02*
X73928570Y-6955000D01*
X73928570Y-6955000D02*
X73785713Y-7026428D01*
X73785713Y-7026428D02*
X73642856Y-7026428D01*
X73071427Y-6955000D02*
X73071427Y-7026428D01*
X73071427Y-7026428D02*
X73142856Y-7169285D01*
X73142856Y-7169285D02*
X73214284Y-7240714D01*
X71357141Y-5669285D02*
X71285713Y-5597857D01*
X71285713Y-5597857D02*
X71142856Y-5526428D01*
X71142856Y-5526428D02*
X70785713Y-5526428D01*
X70785713Y-5526428D02*
X70642856Y-5597857D01*
X70642856Y-5597857D02*
X70571427Y-5669285D01*
X70571427Y-5669285D02*
X70499998Y-5812142D01*
X70499998Y-5812142D02*
X70499998Y-5955000D01*
X70499998Y-5955000D02*
X70571427Y-6169285D01*
X70571427Y-6169285D02*
X71428570Y-7026428D01*
X71428570Y-7026428D02*
X70499998Y-7026428D01*
X69571427Y-5526428D02*
X69428570Y-5526428D01*
X69428570Y-5526428D02*
X69285713Y-5597857D01*
X69285713Y-5597857D02*
X69214285Y-5669285D01*
X69214285Y-5669285D02*
X69142856Y-5812142D01*
X69142856Y-5812142D02*
X69071427Y-6097857D01*
X69071427Y-6097857D02*
X69071427Y-6455000D01*
X69071427Y-6455000D02*
X69142856Y-6740714D01*
X69142856Y-6740714D02*
X69214285Y-6883571D01*
X69214285Y-6883571D02*
X69285713Y-6955000D01*
X69285713Y-6955000D02*
X69428570Y-7026428D01*
X69428570Y-7026428D02*
X69571427Y-7026428D01*
X69571427Y-7026428D02*
X69714285Y-6955000D01*
X69714285Y-6955000D02*
X69785713Y-6883571D01*
X69785713Y-6883571D02*
X69857142Y-6740714D01*
X69857142Y-6740714D02*
X69928570Y-6455000D01*
X69928570Y-6455000D02*
X69928570Y-6097857D01*
X69928570Y-6097857D02*
X69857142Y-5812142D01*
X69857142Y-5812142D02*
X69785713Y-5669285D01*
X69785713Y-5669285D02*
X69714285Y-5597857D01*
X69714285Y-5597857D02*
X69571427Y-5526428D01*
X68499999Y-5669285D02*
X68428571Y-5597857D01*
X68428571Y-5597857D02*
X68285714Y-5526428D01*
X68285714Y-5526428D02*
X67928571Y-5526428D01*
X67928571Y-5526428D02*
X67785714Y-5597857D01*
X67785714Y-5597857D02*
X67714285Y-5669285D01*
X67714285Y-5669285D02*
X67642856Y-5812142D01*
X67642856Y-5812142D02*
X67642856Y-5955000D01*
X67642856Y-5955000D02*
X67714285Y-6169285D01*
X67714285Y-6169285D02*
X68571428Y-7026428D01*
X68571428Y-7026428D02*
X67642856Y-7026428D01*
X67142857Y-5526428D02*
X66214285Y-5526428D01*
X66214285Y-5526428D02*
X66714285Y-6097857D01*
X66714285Y-6097857D02*
X66500000Y-6097857D01*
X66500000Y-6097857D02*
X66357143Y-6169285D01*
X66357143Y-6169285D02*
X66285714Y-6240714D01*
X66285714Y-6240714D02*
X66214285Y-6383571D01*
X66214285Y-6383571D02*
X66214285Y-6740714D01*
X66214285Y-6740714D02*
X66285714Y-6883571D01*
X66285714Y-6883571D02*
X66357143Y-6955000D01*
X66357143Y-6955000D02*
X66500000Y-7026428D01*
X66500000Y-7026428D02*
X66928571Y-7026428D01*
X66928571Y-7026428D02*
X67071428Y-6955000D01*
X67071428Y-6955000D02*
X67142857Y-6883571D01*
X101142857Y-9456428D02*
X101142857Y-7956428D01*
X100500000Y-9456428D02*
X100500000Y-8670714D01*
X100500000Y-8670714D02*
X100571428Y-8527857D01*
X100571428Y-8527857D02*
X100714285Y-8456428D01*
X100714285Y-8456428D02*
X100928571Y-8456428D01*
X100928571Y-8456428D02*
X101071428Y-8527857D01*
X101071428Y-8527857D02*
X101142857Y-8599285D01*
X99999999Y-8456428D02*
X99428571Y-8456428D01*
X99785714Y-7956428D02*
X99785714Y-9242142D01*
X99785714Y-9242142D02*
X99714285Y-9385000D01*
X99714285Y-9385000D02*
X99571428Y-9456428D01*
X99571428Y-9456428D02*
X99428571Y-9456428D01*
X99142856Y-8456428D02*
X98571428Y-8456428D01*
X98928571Y-7956428D02*
X98928571Y-9242142D01*
X98928571Y-9242142D02*
X98857142Y-9385000D01*
X98857142Y-9385000D02*
X98714285Y-9456428D01*
X98714285Y-9456428D02*
X98571428Y-9456428D01*
X98071428Y-8456428D02*
X98071428Y-9956428D01*
X98071428Y-8527857D02*
X97928571Y-8456428D01*
X97928571Y-8456428D02*
X97642856Y-8456428D01*
X97642856Y-8456428D02*
X97499999Y-8527857D01*
X97499999Y-8527857D02*
X97428571Y-8599285D01*
X97428571Y-8599285D02*
X97357142Y-8742142D01*
X97357142Y-8742142D02*
X97357142Y-9170714D01*
X97357142Y-9170714D02*
X97428571Y-9313571D01*
X97428571Y-9313571D02*
X97499999Y-9385000D01*
X97499999Y-9385000D02*
X97642856Y-9456428D01*
X97642856Y-9456428D02*
X97928571Y-9456428D01*
X97928571Y-9456428D02*
X98071428Y-9385000D01*
X96785713Y-9385000D02*
X96642856Y-9456428D01*
X96642856Y-9456428D02*
X96357142Y-9456428D01*
X96357142Y-9456428D02*
X96214285Y-9385000D01*
X96214285Y-9385000D02*
X96142856Y-9242142D01*
X96142856Y-9242142D02*
X96142856Y-9170714D01*
X96142856Y-9170714D02*
X96214285Y-9027857D01*
X96214285Y-9027857D02*
X96357142Y-8956428D01*
X96357142Y-8956428D02*
X96571428Y-8956428D01*
X96571428Y-8956428D02*
X96714285Y-8885000D01*
X96714285Y-8885000D02*
X96785713Y-8742142D01*
X96785713Y-8742142D02*
X96785713Y-8670714D01*
X96785713Y-8670714D02*
X96714285Y-8527857D01*
X96714285Y-8527857D02*
X96571428Y-8456428D01*
X96571428Y-8456428D02*
X96357142Y-8456428D01*
X96357142Y-8456428D02*
X96214285Y-8527857D01*
X95499999Y-9313571D02*
X95428570Y-9385000D01*
X95428570Y-9385000D02*
X95499999Y-9456428D01*
X95499999Y-9456428D02*
X95571427Y-9385000D01*
X95571427Y-9385000D02*
X95499999Y-9313571D01*
X95499999Y-9313571D02*
X95499999Y-9456428D01*
X95499999Y-8527857D02*
X95428570Y-8599285D01*
X95428570Y-8599285D02*
X95499999Y-8670714D01*
X95499999Y-8670714D02*
X95571427Y-8599285D01*
X95571427Y-8599285D02*
X95499999Y-8527857D01*
X95499999Y-8527857D02*
X95499999Y-8670714D01*
X93714284Y-7885000D02*
X94999998Y-9813571D01*
X92142855Y-7885000D02*
X93428569Y-9813571D01*
X90999998Y-8456428D02*
X90999998Y-9670714D01*
X90999998Y-9670714D02*
X91071426Y-9813571D01*
X91071426Y-9813571D02*
X91142855Y-9885000D01*
X91142855Y-9885000D02*
X91285712Y-9956428D01*
X91285712Y-9956428D02*
X91499998Y-9956428D01*
X91499998Y-9956428D02*
X91642855Y-9885000D01*
X90999998Y-9385000D02*
X91142855Y-9456428D01*
X91142855Y-9456428D02*
X91428569Y-9456428D01*
X91428569Y-9456428D02*
X91571426Y-9385000D01*
X91571426Y-9385000D02*
X91642855Y-9313571D01*
X91642855Y-9313571D02*
X91714283Y-9170714D01*
X91714283Y-9170714D02*
X91714283Y-8742142D01*
X91714283Y-8742142D02*
X91642855Y-8599285D01*
X91642855Y-8599285D02*
X91571426Y-8527857D01*
X91571426Y-8527857D02*
X91428569Y-8456428D01*
X91428569Y-8456428D02*
X91142855Y-8456428D01*
X91142855Y-8456428D02*
X90999998Y-8527857D01*
X90285712Y-9456428D02*
X90285712Y-8456428D01*
X90285712Y-7956428D02*
X90357140Y-8027857D01*
X90357140Y-8027857D02*
X90285712Y-8099285D01*
X90285712Y-8099285D02*
X90214283Y-8027857D01*
X90214283Y-8027857D02*
X90285712Y-7956428D01*
X90285712Y-7956428D02*
X90285712Y-8099285D01*
X89785711Y-8456428D02*
X89214283Y-8456428D01*
X89571426Y-7956428D02*
X89571426Y-9242142D01*
X89571426Y-9242142D02*
X89499997Y-9385000D01*
X89499997Y-9385000D02*
X89357140Y-9456428D01*
X89357140Y-9456428D02*
X89214283Y-9456428D01*
X88714283Y-9456428D02*
X88714283Y-7956428D01*
X88071426Y-9456428D02*
X88071426Y-8670714D01*
X88071426Y-8670714D02*
X88142854Y-8527857D01*
X88142854Y-8527857D02*
X88285711Y-8456428D01*
X88285711Y-8456428D02*
X88499997Y-8456428D01*
X88499997Y-8456428D02*
X88642854Y-8527857D01*
X88642854Y-8527857D02*
X88714283Y-8599285D01*
X86714283Y-8456428D02*
X86714283Y-9456428D01*
X87357140Y-8456428D02*
X87357140Y-9242142D01*
X87357140Y-9242142D02*
X87285711Y-9385000D01*
X87285711Y-9385000D02*
X87142854Y-9456428D01*
X87142854Y-9456428D02*
X86928568Y-9456428D01*
X86928568Y-9456428D02*
X86785711Y-9385000D01*
X86785711Y-9385000D02*
X86714283Y-9313571D01*
X85999997Y-9456428D02*
X85999997Y-7956428D01*
X85999997Y-8527857D02*
X85857140Y-8456428D01*
X85857140Y-8456428D02*
X85571425Y-8456428D01*
X85571425Y-8456428D02*
X85428568Y-8527857D01*
X85428568Y-8527857D02*
X85357140Y-8599285D01*
X85357140Y-8599285D02*
X85285711Y-8742142D01*
X85285711Y-8742142D02*
X85285711Y-9170714D01*
X85285711Y-9170714D02*
X85357140Y-9313571D01*
X85357140Y-9313571D02*
X85428568Y-9385000D01*
X85428568Y-9385000D02*
X85571425Y-9456428D01*
X85571425Y-9456428D02*
X85857140Y-9456428D01*
X85857140Y-9456428D02*
X85999997Y-9385000D01*
X84642854Y-9313571D02*
X84571425Y-9385000D01*
X84571425Y-9385000D02*
X84642854Y-9456428D01*
X84642854Y-9456428D02*
X84714282Y-9385000D01*
X84714282Y-9385000D02*
X84642854Y-9313571D01*
X84642854Y-9313571D02*
X84642854Y-9456428D01*
X83285711Y-9385000D02*
X83428568Y-9456428D01*
X83428568Y-9456428D02*
X83714282Y-9456428D01*
X83714282Y-9456428D02*
X83857139Y-9385000D01*
X83857139Y-9385000D02*
X83928568Y-9313571D01*
X83928568Y-9313571D02*
X83999996Y-9170714D01*
X83999996Y-9170714D02*
X83999996Y-8742142D01*
X83999996Y-8742142D02*
X83928568Y-8599285D01*
X83928568Y-8599285D02*
X83857139Y-8527857D01*
X83857139Y-8527857D02*
X83714282Y-8456428D01*
X83714282Y-8456428D02*
X83428568Y-8456428D01*
X83428568Y-8456428D02*
X83285711Y-8527857D01*
X82428568Y-9456428D02*
X82571425Y-9385000D01*
X82571425Y-9385000D02*
X82642854Y-9313571D01*
X82642854Y-9313571D02*
X82714282Y-9170714D01*
X82714282Y-9170714D02*
X82714282Y-8742142D01*
X82714282Y-8742142D02*
X82642854Y-8599285D01*
X82642854Y-8599285D02*
X82571425Y-8527857D01*
X82571425Y-8527857D02*
X82428568Y-8456428D01*
X82428568Y-8456428D02*
X82214282Y-8456428D01*
X82214282Y-8456428D02*
X82071425Y-8527857D01*
X82071425Y-8527857D02*
X81999997Y-8599285D01*
X81999997Y-8599285D02*
X81928568Y-8742142D01*
X81928568Y-8742142D02*
X81928568Y-9170714D01*
X81928568Y-9170714D02*
X81999997Y-9313571D01*
X81999997Y-9313571D02*
X82071425Y-9385000D01*
X82071425Y-9385000D02*
X82214282Y-9456428D01*
X82214282Y-9456428D02*
X82428568Y-9456428D01*
X81285711Y-9456428D02*
X81285711Y-8456428D01*
X81285711Y-8599285D02*
X81214282Y-8527857D01*
X81214282Y-8527857D02*
X81071425Y-8456428D01*
X81071425Y-8456428D02*
X80857139Y-8456428D01*
X80857139Y-8456428D02*
X80714282Y-8527857D01*
X80714282Y-8527857D02*
X80642854Y-8670714D01*
X80642854Y-8670714D02*
X80642854Y-9456428D01*
X80642854Y-8670714D02*
X80571425Y-8527857D01*
X80571425Y-8527857D02*
X80428568Y-8456428D01*
X80428568Y-8456428D02*
X80214282Y-8456428D01*
X80214282Y-8456428D02*
X80071425Y-8527857D01*
X80071425Y-8527857D02*
X79999996Y-8670714D01*
X79999996Y-8670714D02*
X79999996Y-9456428D01*
X78214282Y-7885000D02*
X79499996Y-9813571D01*
X77714282Y-9456428D02*
X77714282Y-8456428D01*
X77714282Y-8599285D02*
X77642853Y-8527857D01*
X77642853Y-8527857D02*
X77499996Y-8456428D01*
X77499996Y-8456428D02*
X77285710Y-8456428D01*
X77285710Y-8456428D02*
X77142853Y-8527857D01*
X77142853Y-8527857D02*
X77071425Y-8670714D01*
X77071425Y-8670714D02*
X77071425Y-9456428D01*
X77071425Y-8670714D02*
X76999996Y-8527857D01*
X76999996Y-8527857D02*
X76857139Y-8456428D01*
X76857139Y-8456428D02*
X76642853Y-8456428D01*
X76642853Y-8456428D02*
X76499996Y-8527857D01*
X76499996Y-8527857D02*
X76428567Y-8670714D01*
X76428567Y-8670714D02*
X76428567Y-9456428D01*
X75071425Y-9456428D02*
X75071425Y-8670714D01*
X75071425Y-8670714D02*
X75142853Y-8527857D01*
X75142853Y-8527857D02*
X75285710Y-8456428D01*
X75285710Y-8456428D02*
X75571425Y-8456428D01*
X75571425Y-8456428D02*
X75714282Y-8527857D01*
X75071425Y-9385000D02*
X75214282Y-9456428D01*
X75214282Y-9456428D02*
X75571425Y-9456428D01*
X75571425Y-9456428D02*
X75714282Y-9385000D01*
X75714282Y-9385000D02*
X75785710Y-9242142D01*
X75785710Y-9242142D02*
X75785710Y-9099285D01*
X75785710Y-9099285D02*
X75714282Y-8956428D01*
X75714282Y-8956428D02*
X75571425Y-8885000D01*
X75571425Y-8885000D02*
X75214282Y-8885000D01*
X75214282Y-8885000D02*
X75071425Y-8813571D01*
X73714282Y-9456428D02*
X73714282Y-7956428D01*
X73714282Y-9385000D02*
X73857139Y-9456428D01*
X73857139Y-9456428D02*
X74142853Y-9456428D01*
X74142853Y-9456428D02*
X74285710Y-9385000D01*
X74285710Y-9385000D02*
X74357139Y-9313571D01*
X74357139Y-9313571D02*
X74428567Y-9170714D01*
X74428567Y-9170714D02*
X74428567Y-8742142D01*
X74428567Y-8742142D02*
X74357139Y-8599285D01*
X74357139Y-8599285D02*
X74285710Y-8527857D01*
X74285710Y-8527857D02*
X74142853Y-8456428D01*
X74142853Y-8456428D02*
X73857139Y-8456428D01*
X73857139Y-8456428D02*
X73714282Y-8527857D01*
X72357139Y-9385000D02*
X72499996Y-9456428D01*
X72499996Y-9456428D02*
X72785710Y-9456428D01*
X72785710Y-9456428D02*
X72928567Y-9385000D01*
X72928567Y-9385000D02*
X72999996Y-9313571D01*
X72999996Y-9313571D02*
X73071424Y-9170714D01*
X73071424Y-9170714D02*
X73071424Y-8742142D01*
X73071424Y-8742142D02*
X72999996Y-8599285D01*
X72999996Y-8599285D02*
X72928567Y-8527857D01*
X72928567Y-8527857D02*
X72785710Y-8456428D01*
X72785710Y-8456428D02*
X72499996Y-8456428D01*
X72499996Y-8456428D02*
X72357139Y-8527857D01*
X71071425Y-9456428D02*
X71071425Y-8670714D01*
X71071425Y-8670714D02*
X71142853Y-8527857D01*
X71142853Y-8527857D02*
X71285710Y-8456428D01*
X71285710Y-8456428D02*
X71571425Y-8456428D01*
X71571425Y-8456428D02*
X71714282Y-8527857D01*
X71071425Y-9385000D02*
X71214282Y-9456428D01*
X71214282Y-9456428D02*
X71571425Y-9456428D01*
X71571425Y-9456428D02*
X71714282Y-9385000D01*
X71714282Y-9385000D02*
X71785710Y-9242142D01*
X71785710Y-9242142D02*
X71785710Y-9099285D01*
X71785710Y-9099285D02*
X71714282Y-8956428D01*
X71714282Y-8956428D02*
X71571425Y-8885000D01*
X71571425Y-8885000D02*
X71214282Y-8885000D01*
X71214282Y-8885000D02*
X71071425Y-8813571D01*
X70571424Y-8456428D02*
X69999996Y-8456428D01*
X70357139Y-7956428D02*
X70357139Y-9242142D01*
X70357139Y-9242142D02*
X70285710Y-9385000D01*
X70285710Y-9385000D02*
X70142853Y-9456428D01*
X70142853Y-9456428D02*
X69999996Y-9456428D01*
X69571424Y-9385000D02*
X69428567Y-9456428D01*
X69428567Y-9456428D02*
X69142853Y-9456428D01*
X69142853Y-9456428D02*
X68999996Y-9385000D01*
X68999996Y-9385000D02*
X68928567Y-9242142D01*
X68928567Y-9242142D02*
X68928567Y-9170714D01*
X68928567Y-9170714D02*
X68999996Y-9027857D01*
X68999996Y-9027857D02*
X69142853Y-8956428D01*
X69142853Y-8956428D02*
X69357139Y-8956428D01*
X69357139Y-8956428D02*
X69499996Y-8885000D01*
X69499996Y-8885000D02*
X69571424Y-8742142D01*
X69571424Y-8742142D02*
X69571424Y-8670714D01*
X69571424Y-8670714D02*
X69499996Y-8527857D01*
X69499996Y-8527857D02*
X69357139Y-8456428D01*
X69357139Y-8456428D02*
X69142853Y-8456428D01*
X69142853Y-8456428D02*
X68999996Y-8527857D01*
X67714281Y-9385000D02*
X67857138Y-9456428D01*
X67857138Y-9456428D02*
X68142853Y-9456428D01*
X68142853Y-9456428D02*
X68285710Y-9385000D01*
X68285710Y-9385000D02*
X68357138Y-9242142D01*
X68357138Y-9242142D02*
X68357138Y-8670714D01*
X68357138Y-8670714D02*
X68285710Y-8527857D01*
X68285710Y-8527857D02*
X68142853Y-8456428D01*
X68142853Y-8456428D02*
X67857138Y-8456428D01*
X67857138Y-8456428D02*
X67714281Y-8527857D01*
X67714281Y-8527857D02*
X67642853Y-8670714D01*
X67642853Y-8670714D02*
X67642853Y-8813571D01*
X67642853Y-8813571D02*
X68357138Y-8956428D01*
X65928567Y-7885000D02*
X67214281Y-9813571D01*
X65428567Y-9456428D02*
X65428567Y-7956428D01*
X65428567Y-7956428D02*
X65071424Y-7956428D01*
X65071424Y-7956428D02*
X64857138Y-8027857D01*
X64857138Y-8027857D02*
X64714281Y-8170714D01*
X64714281Y-8170714D02*
X64642852Y-8313571D01*
X64642852Y-8313571D02*
X64571424Y-8599285D01*
X64571424Y-8599285D02*
X64571424Y-8813571D01*
X64571424Y-8813571D02*
X64642852Y-9099285D01*
X64642852Y-9099285D02*
X64714281Y-9242142D01*
X64714281Y-9242142D02*
X64857138Y-9385000D01*
X64857138Y-9385000D02*
X65071424Y-9456428D01*
X65071424Y-9456428D02*
X65428567Y-9456428D01*
X63357138Y-9385000D02*
X63499995Y-9456428D01*
X63499995Y-9456428D02*
X63785710Y-9456428D01*
X63785710Y-9456428D02*
X63928567Y-9385000D01*
X63928567Y-9385000D02*
X63999995Y-9242142D01*
X63999995Y-9242142D02*
X63999995Y-8670714D01*
X63999995Y-8670714D02*
X63928567Y-8527857D01*
X63928567Y-8527857D02*
X63785710Y-8456428D01*
X63785710Y-8456428D02*
X63499995Y-8456428D01*
X63499995Y-8456428D02*
X63357138Y-8527857D01*
X63357138Y-8527857D02*
X63285710Y-8670714D01*
X63285710Y-8670714D02*
X63285710Y-8813571D01*
X63285710Y-8813571D02*
X63999995Y-8956428D01*
X62428567Y-9456428D02*
X62571424Y-9385000D01*
X62571424Y-9385000D02*
X62642853Y-9242142D01*
X62642853Y-9242142D02*
X62642853Y-7956428D01*
X62071424Y-8456428D02*
X61499996Y-8456428D01*
X61857139Y-7956428D02*
X61857139Y-9242142D01*
X61857139Y-9242142D02*
X61785710Y-9385000D01*
X61785710Y-9385000D02*
X61642853Y-9456428D01*
X61642853Y-9456428D02*
X61499996Y-9456428D01*
X60357139Y-9456428D02*
X60357139Y-8670714D01*
X60357139Y-8670714D02*
X60428567Y-8527857D01*
X60428567Y-8527857D02*
X60571424Y-8456428D01*
X60571424Y-8456428D02*
X60857139Y-8456428D01*
X60857139Y-8456428D02*
X60999996Y-8527857D01*
X60357139Y-9385000D02*
X60499996Y-9456428D01*
X60499996Y-9456428D02*
X60857139Y-9456428D01*
X60857139Y-9456428D02*
X60999996Y-9385000D01*
X60999996Y-9385000D02*
X61071424Y-9242142D01*
X61071424Y-9242142D02*
X61071424Y-9099285D01*
X61071424Y-9099285D02*
X60999996Y-8956428D01*
X60999996Y-8956428D02*
X60857139Y-8885000D01*
X60857139Y-8885000D02*
X60499996Y-8885000D01*
X60499996Y-8885000D02*
X60357139Y-8813571D01*
X59642853Y-8885000D02*
X58499996Y-8885000D01*
X57857138Y-9385000D02*
X57642853Y-9456428D01*
X57642853Y-9456428D02*
X57285710Y-9456428D01*
X57285710Y-9456428D02*
X57142853Y-9385000D01*
X57142853Y-9385000D02*
X57071424Y-9313571D01*
X57071424Y-9313571D02*
X56999995Y-9170714D01*
X56999995Y-9170714D02*
X56999995Y-9027857D01*
X56999995Y-9027857D02*
X57071424Y-8885000D01*
X57071424Y-8885000D02*
X57142853Y-8813571D01*
X57142853Y-8813571D02*
X57285710Y-8742142D01*
X57285710Y-8742142D02*
X57571424Y-8670714D01*
X57571424Y-8670714D02*
X57714281Y-8599285D01*
X57714281Y-8599285D02*
X57785710Y-8527857D01*
X57785710Y-8527857D02*
X57857138Y-8385000D01*
X57857138Y-8385000D02*
X57857138Y-8242142D01*
X57857138Y-8242142D02*
X57785710Y-8099285D01*
X57785710Y-8099285D02*
X57714281Y-8027857D01*
X57714281Y-8027857D02*
X57571424Y-7956428D01*
X57571424Y-7956428D02*
X57214281Y-7956428D01*
X57214281Y-7956428D02*
X56999995Y-8027857D01*
X56357139Y-8885000D02*
X55214282Y-8885000D01*
X54499996Y-9456428D02*
X54499996Y-7956428D01*
X54499996Y-7956428D02*
X53999996Y-9027857D01*
X53999996Y-9027857D02*
X53499996Y-7956428D01*
X53499996Y-7956428D02*
X53499996Y-9456428D01*
X101357142Y-10886428D02*
X100785714Y-10886428D01*
X101142857Y-10386428D02*
X101142857Y-11672142D01*
X101142857Y-11672142D02*
X101071428Y-11815000D01*
X101071428Y-11815000D02*
X100928571Y-11886428D01*
X100928571Y-11886428D02*
X100785714Y-11886428D01*
X100285714Y-11743571D02*
X100214285Y-11815000D01*
X100214285Y-11815000D02*
X100285714Y-11886428D01*
X100285714Y-11886428D02*
X100357142Y-11815000D01*
X100357142Y-11815000D02*
X100285714Y-11743571D01*
X100285714Y-11743571D02*
X100285714Y-11886428D01*
X99571428Y-11886428D02*
X99571428Y-10886428D01*
X99571428Y-11029285D02*
X99499999Y-10957857D01*
X99499999Y-10957857D02*
X99357142Y-10886428D01*
X99357142Y-10886428D02*
X99142856Y-10886428D01*
X99142856Y-10886428D02*
X98999999Y-10957857D01*
X98999999Y-10957857D02*
X98928571Y-11100714D01*
X98928571Y-11100714D02*
X98928571Y-11886428D01*
X98928571Y-11100714D02*
X98857142Y-10957857D01*
X98857142Y-10957857D02*
X98714285Y-10886428D01*
X98714285Y-10886428D02*
X98499999Y-10886428D01*
X98499999Y-10886428D02*
X98357142Y-10957857D01*
X98357142Y-10957857D02*
X98285713Y-11100714D01*
X98285713Y-11100714D02*
X98285713Y-11886428D01*
X96999999Y-11815000D02*
X97142856Y-11886428D01*
X97142856Y-11886428D02*
X97428571Y-11886428D01*
X97428571Y-11886428D02*
X97571428Y-11815000D01*
X97571428Y-11815000D02*
X97642856Y-11672142D01*
X97642856Y-11672142D02*
X97642856Y-11100714D01*
X97642856Y-11100714D02*
X97571428Y-10957857D01*
X97571428Y-10957857D02*
X97428571Y-10886428D01*
X97428571Y-10886428D02*
X97142856Y-10886428D01*
X97142856Y-10886428D02*
X96999999Y-10957857D01*
X96999999Y-10957857D02*
X96928571Y-11100714D01*
X96928571Y-11100714D02*
X96928571Y-11243571D01*
X96928571Y-11243571D02*
X97642856Y-11386428D01*
X95214285Y-10315000D02*
X96499999Y-12243571D01*
X94857142Y-10886428D02*
X94071428Y-10886428D01*
X94071428Y-10886428D02*
X94857142Y-11886428D01*
X94857142Y-11886428D02*
X94071428Y-11886428D01*
X93642856Y-11886428D02*
X92857142Y-10886428D01*
X93642856Y-10886428D02*
X92857142Y-11886428D01*
X92642856Y-12029285D02*
X91499998Y-12029285D01*
X90499999Y-11886428D02*
X90499999Y-10386428D01*
X90499999Y-11815000D02*
X90642856Y-11886428D01*
X90642856Y-11886428D02*
X90928570Y-11886428D01*
X90928570Y-11886428D02*
X91071427Y-11815000D01*
X91071427Y-11815000D02*
X91142856Y-11743571D01*
X91142856Y-11743571D02*
X91214284Y-11600714D01*
X91214284Y-11600714D02*
X91214284Y-11172142D01*
X91214284Y-11172142D02*
X91142856Y-11029285D01*
X91142856Y-11029285D02*
X91071427Y-10957857D01*
X91071427Y-10957857D02*
X90928570Y-10886428D01*
X90928570Y-10886428D02*
X90642856Y-10886428D01*
X90642856Y-10886428D02*
X90499999Y-10957857D01*
X89214284Y-11815000D02*
X89357141Y-11886428D01*
X89357141Y-11886428D02*
X89642856Y-11886428D01*
X89642856Y-11886428D02*
X89785713Y-11815000D01*
X89785713Y-11815000D02*
X89857141Y-11672142D01*
X89857141Y-11672142D02*
X89857141Y-11100714D01*
X89857141Y-11100714D02*
X89785713Y-10957857D01*
X89785713Y-10957857D02*
X89642856Y-10886428D01*
X89642856Y-10886428D02*
X89357141Y-10886428D01*
X89357141Y-10886428D02*
X89214284Y-10957857D01*
X89214284Y-10957857D02*
X89142856Y-11100714D01*
X89142856Y-11100714D02*
X89142856Y-11243571D01*
X89142856Y-11243571D02*
X89857141Y-11386428D01*
X88285713Y-11886428D02*
X88428570Y-11815000D01*
X88428570Y-11815000D02*
X88499999Y-11672142D01*
X88499999Y-11672142D02*
X88499999Y-10386428D01*
X87928570Y-10886428D02*
X87357142Y-10886428D01*
X87714285Y-10386428D02*
X87714285Y-11672142D01*
X87714285Y-11672142D02*
X87642856Y-11815000D01*
X87642856Y-11815000D02*
X87499999Y-11886428D01*
X87499999Y-11886428D02*
X87357142Y-11886428D01*
X86214285Y-11886428D02*
X86214285Y-11100714D01*
X86214285Y-11100714D02*
X86285713Y-10957857D01*
X86285713Y-10957857D02*
X86428570Y-10886428D01*
X86428570Y-10886428D02*
X86714285Y-10886428D01*
X86714285Y-10886428D02*
X86857142Y-10957857D01*
X86214285Y-11815000D02*
X86357142Y-11886428D01*
X86357142Y-11886428D02*
X86714285Y-11886428D01*
X86714285Y-11886428D02*
X86857142Y-11815000D01*
X86857142Y-11815000D02*
X86928570Y-11672142D01*
X86928570Y-11672142D02*
X86928570Y-11529285D01*
X86928570Y-11529285D02*
X86857142Y-11386428D01*
X86857142Y-11386428D02*
X86714285Y-11315000D01*
X86714285Y-11315000D02*
X86357142Y-11315000D01*
X86357142Y-11315000D02*
X86214285Y-11243571D01*
X85857142Y-12029285D02*
X84714284Y-12029285D01*
X84428570Y-11815000D02*
X84285713Y-11886428D01*
X84285713Y-11886428D02*
X83999999Y-11886428D01*
X83999999Y-11886428D02*
X83857142Y-11815000D01*
X83857142Y-11815000D02*
X83785713Y-11672142D01*
X83785713Y-11672142D02*
X83785713Y-11600714D01*
X83785713Y-11600714D02*
X83857142Y-11457857D01*
X83857142Y-11457857D02*
X83999999Y-11386428D01*
X83999999Y-11386428D02*
X84214285Y-11386428D01*
X84214285Y-11386428D02*
X84357142Y-11315000D01*
X84357142Y-11315000D02*
X84428570Y-11172142D01*
X84428570Y-11172142D02*
X84428570Y-11100714D01*
X84428570Y-11100714D02*
X84357142Y-10957857D01*
X84357142Y-10957857D02*
X84214285Y-10886428D01*
X84214285Y-10886428D02*
X83999999Y-10886428D01*
X83999999Y-10886428D02*
X83857142Y-10957857D01*
X101142857Y-14316428D02*
X101142857Y-12816428D01*
X100500000Y-14316428D02*
X100500000Y-13530714D01*
X100500000Y-13530714D02*
X100571428Y-13387857D01*
X100571428Y-13387857D02*
X100714285Y-13316428D01*
X100714285Y-13316428D02*
X100928571Y-13316428D01*
X100928571Y-13316428D02*
X101071428Y-13387857D01*
X101071428Y-13387857D02*
X101142857Y-13459285D01*
X99999999Y-13316428D02*
X99428571Y-13316428D01*
X99785714Y-12816428D02*
X99785714Y-14102142D01*
X99785714Y-14102142D02*
X99714285Y-14245000D01*
X99714285Y-14245000D02*
X99571428Y-14316428D01*
X99571428Y-14316428D02*
X99428571Y-14316428D01*
X99142856Y-13316428D02*
X98571428Y-13316428D01*
X98928571Y-12816428D02*
X98928571Y-14102142D01*
X98928571Y-14102142D02*
X98857142Y-14245000D01*
X98857142Y-14245000D02*
X98714285Y-14316428D01*
X98714285Y-14316428D02*
X98571428Y-14316428D01*
X98071428Y-13316428D02*
X98071428Y-14816428D01*
X98071428Y-13387857D02*
X97928571Y-13316428D01*
X97928571Y-13316428D02*
X97642856Y-13316428D01*
X97642856Y-13316428D02*
X97499999Y-13387857D01*
X97499999Y-13387857D02*
X97428571Y-13459285D01*
X97428571Y-13459285D02*
X97357142Y-13602142D01*
X97357142Y-13602142D02*
X97357142Y-14030714D01*
X97357142Y-14030714D02*
X97428571Y-14173571D01*
X97428571Y-14173571D02*
X97499999Y-14245000D01*
X97499999Y-14245000D02*
X97642856Y-14316428D01*
X97642856Y-14316428D02*
X97928571Y-14316428D01*
X97928571Y-14316428D02*
X98071428Y-14245000D01*
X96785713Y-14245000D02*
X96642856Y-14316428D01*
X96642856Y-14316428D02*
X96357142Y-14316428D01*
X96357142Y-14316428D02*
X96214285Y-14245000D01*
X96214285Y-14245000D02*
X96142856Y-14102142D01*
X96142856Y-14102142D02*
X96142856Y-14030714D01*
X96142856Y-14030714D02*
X96214285Y-13887857D01*
X96214285Y-13887857D02*
X96357142Y-13816428D01*
X96357142Y-13816428D02*
X96571428Y-13816428D01*
X96571428Y-13816428D02*
X96714285Y-13745000D01*
X96714285Y-13745000D02*
X96785713Y-13602142D01*
X96785713Y-13602142D02*
X96785713Y-13530714D01*
X96785713Y-13530714D02*
X96714285Y-13387857D01*
X96714285Y-13387857D02*
X96571428Y-13316428D01*
X96571428Y-13316428D02*
X96357142Y-13316428D01*
X96357142Y-13316428D02*
X96214285Y-13387857D01*
X95499999Y-14173571D02*
X95428570Y-14245000D01*
X95428570Y-14245000D02*
X95499999Y-14316428D01*
X95499999Y-14316428D02*
X95571427Y-14245000D01*
X95571427Y-14245000D02*
X95499999Y-14173571D01*
X95499999Y-14173571D02*
X95499999Y-14316428D01*
X95499999Y-13387857D02*
X95428570Y-13459285D01*
X95428570Y-13459285D02*
X95499999Y-13530714D01*
X95499999Y-13530714D02*
X95571427Y-13459285D01*
X95571427Y-13459285D02*
X95499999Y-13387857D01*
X95499999Y-13387857D02*
X95499999Y-13530714D01*
X93714284Y-12745000D02*
X94999998Y-14673571D01*
X92142855Y-12745000D02*
X93428569Y-14673571D01*
X91785712Y-13316428D02*
X91499998Y-14316428D01*
X91499998Y-14316428D02*
X91214283Y-13602142D01*
X91214283Y-13602142D02*
X90928569Y-14316428D01*
X90928569Y-14316428D02*
X90642855Y-13316428D01*
X90214283Y-13316428D02*
X89928569Y-14316428D01*
X89928569Y-14316428D02*
X89642854Y-13602142D01*
X89642854Y-13602142D02*
X89357140Y-14316428D01*
X89357140Y-14316428D02*
X89071426Y-13316428D01*
X88642854Y-13316428D02*
X88357140Y-14316428D01*
X88357140Y-14316428D02*
X88071425Y-13602142D01*
X88071425Y-13602142D02*
X87785711Y-14316428D01*
X87785711Y-14316428D02*
X87499997Y-13316428D01*
X86928568Y-14173571D02*
X86857139Y-14245000D01*
X86857139Y-14245000D02*
X86928568Y-14316428D01*
X86928568Y-14316428D02*
X86999996Y-14245000D01*
X86999996Y-14245000D02*
X86928568Y-14173571D01*
X86928568Y-14173571D02*
X86928568Y-14316428D01*
X86357139Y-13316428D02*
X85999996Y-14316428D01*
X85642853Y-13316428D02*
X85999996Y-14316428D01*
X85999996Y-14316428D02*
X86142853Y-14673571D01*
X86142853Y-14673571D02*
X86214282Y-14745000D01*
X86214282Y-14745000D02*
X86357139Y-14816428D01*
X84857139Y-14316428D02*
X84999996Y-14245000D01*
X84999996Y-14245000D02*
X85071425Y-14173571D01*
X85071425Y-14173571D02*
X85142853Y-14030714D01*
X85142853Y-14030714D02*
X85142853Y-13602142D01*
X85142853Y-13602142D02*
X85071425Y-13459285D01*
X85071425Y-13459285D02*
X84999996Y-13387857D01*
X84999996Y-13387857D02*
X84857139Y-13316428D01*
X84857139Y-13316428D02*
X84642853Y-13316428D01*
X84642853Y-13316428D02*
X84499996Y-13387857D01*
X84499996Y-13387857D02*
X84428568Y-13459285D01*
X84428568Y-13459285D02*
X84357139Y-13602142D01*
X84357139Y-13602142D02*
X84357139Y-14030714D01*
X84357139Y-14030714D02*
X84428568Y-14173571D01*
X84428568Y-14173571D02*
X84499996Y-14245000D01*
X84499996Y-14245000D02*
X84642853Y-14316428D01*
X84642853Y-14316428D02*
X84857139Y-14316428D01*
X83071425Y-13316428D02*
X83071425Y-14316428D01*
X83714282Y-13316428D02*
X83714282Y-14102142D01*
X83714282Y-14102142D02*
X83642853Y-14245000D01*
X83642853Y-14245000D02*
X83499996Y-14316428D01*
X83499996Y-14316428D02*
X83285710Y-14316428D01*
X83285710Y-14316428D02*
X83142853Y-14245000D01*
X83142853Y-14245000D02*
X83071425Y-14173571D01*
X82571424Y-13316428D02*
X81999996Y-13316428D01*
X82357139Y-12816428D02*
X82357139Y-14102142D01*
X82357139Y-14102142D02*
X82285710Y-14245000D01*
X82285710Y-14245000D02*
X82142853Y-14316428D01*
X82142853Y-14316428D02*
X81999996Y-14316428D01*
X80857139Y-13316428D02*
X80857139Y-14316428D01*
X81499996Y-13316428D02*
X81499996Y-14102142D01*
X81499996Y-14102142D02*
X81428567Y-14245000D01*
X81428567Y-14245000D02*
X81285710Y-14316428D01*
X81285710Y-14316428D02*
X81071424Y-14316428D01*
X81071424Y-14316428D02*
X80928567Y-14245000D01*
X80928567Y-14245000D02*
X80857139Y-14173571D01*
X80142853Y-14316428D02*
X80142853Y-12816428D01*
X80142853Y-13387857D02*
X79999996Y-13316428D01*
X79999996Y-13316428D02*
X79714281Y-13316428D01*
X79714281Y-13316428D02*
X79571424Y-13387857D01*
X79571424Y-13387857D02*
X79499996Y-13459285D01*
X79499996Y-13459285D02*
X79428567Y-13602142D01*
X79428567Y-13602142D02*
X79428567Y-14030714D01*
X79428567Y-14030714D02*
X79499996Y-14173571D01*
X79499996Y-14173571D02*
X79571424Y-14245000D01*
X79571424Y-14245000D02*
X79714281Y-14316428D01*
X79714281Y-14316428D02*
X79999996Y-14316428D01*
X79999996Y-14316428D02*
X80142853Y-14245000D01*
X78214281Y-14245000D02*
X78357138Y-14316428D01*
X78357138Y-14316428D02*
X78642853Y-14316428D01*
X78642853Y-14316428D02*
X78785710Y-14245000D01*
X78785710Y-14245000D02*
X78857138Y-14102142D01*
X78857138Y-14102142D02*
X78857138Y-13530714D01*
X78857138Y-13530714D02*
X78785710Y-13387857D01*
X78785710Y-13387857D02*
X78642853Y-13316428D01*
X78642853Y-13316428D02*
X78357138Y-13316428D01*
X78357138Y-13316428D02*
X78214281Y-13387857D01*
X78214281Y-13387857D02*
X78142853Y-13530714D01*
X78142853Y-13530714D02*
X78142853Y-13673571D01*
X78142853Y-13673571D02*
X78857138Y-13816428D01*
X77499996Y-14173571D02*
X77428567Y-14245000D01*
X77428567Y-14245000D02*
X77499996Y-14316428D01*
X77499996Y-14316428D02*
X77571424Y-14245000D01*
X77571424Y-14245000D02*
X77499996Y-14173571D01*
X77499996Y-14173571D02*
X77499996Y-14316428D01*
X76142853Y-14245000D02*
X76285710Y-14316428D01*
X76285710Y-14316428D02*
X76571424Y-14316428D01*
X76571424Y-14316428D02*
X76714281Y-14245000D01*
X76714281Y-14245000D02*
X76785710Y-14173571D01*
X76785710Y-14173571D02*
X76857138Y-14030714D01*
X76857138Y-14030714D02*
X76857138Y-13602142D01*
X76857138Y-13602142D02*
X76785710Y-13459285D01*
X76785710Y-13459285D02*
X76714281Y-13387857D01*
X76714281Y-13387857D02*
X76571424Y-13316428D01*
X76571424Y-13316428D02*
X76285710Y-13316428D01*
X76285710Y-13316428D02*
X76142853Y-13387857D01*
X75285710Y-14316428D02*
X75428567Y-14245000D01*
X75428567Y-14245000D02*
X75499996Y-14173571D01*
X75499996Y-14173571D02*
X75571424Y-14030714D01*
X75571424Y-14030714D02*
X75571424Y-13602142D01*
X75571424Y-13602142D02*
X75499996Y-13459285D01*
X75499996Y-13459285D02*
X75428567Y-13387857D01*
X75428567Y-13387857D02*
X75285710Y-13316428D01*
X75285710Y-13316428D02*
X75071424Y-13316428D01*
X75071424Y-13316428D02*
X74928567Y-13387857D01*
X74928567Y-13387857D02*
X74857139Y-13459285D01*
X74857139Y-13459285D02*
X74785710Y-13602142D01*
X74785710Y-13602142D02*
X74785710Y-14030714D01*
X74785710Y-14030714D02*
X74857139Y-14173571D01*
X74857139Y-14173571D02*
X74928567Y-14245000D01*
X74928567Y-14245000D02*
X75071424Y-14316428D01*
X75071424Y-14316428D02*
X75285710Y-14316428D01*
X74142853Y-14316428D02*
X74142853Y-13316428D01*
X74142853Y-13459285D02*
X74071424Y-13387857D01*
X74071424Y-13387857D02*
X73928567Y-13316428D01*
X73928567Y-13316428D02*
X73714281Y-13316428D01*
X73714281Y-13316428D02*
X73571424Y-13387857D01*
X73571424Y-13387857D02*
X73499996Y-13530714D01*
X73499996Y-13530714D02*
X73499996Y-14316428D01*
X73499996Y-13530714D02*
X73428567Y-13387857D01*
X73428567Y-13387857D02*
X73285710Y-13316428D01*
X73285710Y-13316428D02*
X73071424Y-13316428D01*
X73071424Y-13316428D02*
X72928567Y-13387857D01*
X72928567Y-13387857D02*
X72857138Y-13530714D01*
X72857138Y-13530714D02*
X72857138Y-14316428D01*
X71071424Y-12745000D02*
X72357138Y-14673571D01*
X69642852Y-13602142D02*
X69714281Y-13530714D01*
X69714281Y-13530714D02*
X69857138Y-13459285D01*
X69857138Y-13459285D02*
X69999995Y-13459285D01*
X69999995Y-13459285D02*
X70142852Y-13530714D01*
X70142852Y-13530714D02*
X70214281Y-13602142D01*
X70214281Y-13602142D02*
X70285709Y-13745000D01*
X70285709Y-13745000D02*
X70285709Y-13887857D01*
X70285709Y-13887857D02*
X70214281Y-14030714D01*
X70214281Y-14030714D02*
X70142852Y-14102142D01*
X70142852Y-14102142D02*
X69999995Y-14173571D01*
X69999995Y-14173571D02*
X69857138Y-14173571D01*
X69857138Y-14173571D02*
X69714281Y-14102142D01*
X69714281Y-14102142D02*
X69642852Y-14030714D01*
X69642852Y-13459285D02*
X69642852Y-14030714D01*
X69642852Y-14030714D02*
X69571424Y-14102142D01*
X69571424Y-14102142D02*
X69499995Y-14102142D01*
X69499995Y-14102142D02*
X69357138Y-14030714D01*
X69357138Y-14030714D02*
X69285709Y-13887857D01*
X69285709Y-13887857D02*
X69285709Y-13530714D01*
X69285709Y-13530714D02*
X69428567Y-13316428D01*
X69428567Y-13316428D02*
X69642852Y-13173571D01*
X69642852Y-13173571D02*
X69928567Y-13102142D01*
X69928567Y-13102142D02*
X70214281Y-13173571D01*
X70214281Y-13173571D02*
X70428567Y-13316428D01*
X70428567Y-13316428D02*
X70571424Y-13530714D01*
X70571424Y-13530714D02*
X70642852Y-13816428D01*
X70642852Y-13816428D02*
X70571424Y-14102142D01*
X70571424Y-14102142D02*
X70428567Y-14316428D01*
X70428567Y-14316428D02*
X70214281Y-14459285D01*
X70214281Y-14459285D02*
X69928567Y-14530714D01*
X69928567Y-14530714D02*
X69642852Y-14459285D01*
X69642852Y-14459285D02*
X69428567Y-14316428D01*
X68642853Y-14316428D02*
X68642853Y-12816428D01*
X68642853Y-12816428D02*
X68142853Y-13887857D01*
X68142853Y-13887857D02*
X67642853Y-12816428D01*
X67642853Y-12816428D02*
X67642853Y-14316428D01*
X66285710Y-14316428D02*
X66285710Y-13530714D01*
X66285710Y-13530714D02*
X66357138Y-13387857D01*
X66357138Y-13387857D02*
X66499995Y-13316428D01*
X66499995Y-13316428D02*
X66785710Y-13316428D01*
X66785710Y-13316428D02*
X66928567Y-13387857D01*
X66285710Y-14245000D02*
X66428567Y-14316428D01*
X66428567Y-14316428D02*
X66785710Y-14316428D01*
X66785710Y-14316428D02*
X66928567Y-14245000D01*
X66928567Y-14245000D02*
X66999995Y-14102142D01*
X66999995Y-14102142D02*
X66999995Y-13959285D01*
X66999995Y-13959285D02*
X66928567Y-13816428D01*
X66928567Y-13816428D02*
X66785710Y-13745000D01*
X66785710Y-13745000D02*
X66428567Y-13745000D01*
X66428567Y-13745000D02*
X66285710Y-13673571D01*
X64928567Y-14316428D02*
X64928567Y-12816428D01*
X64928567Y-14245000D02*
X65071424Y-14316428D01*
X65071424Y-14316428D02*
X65357138Y-14316428D01*
X65357138Y-14316428D02*
X65499995Y-14245000D01*
X65499995Y-14245000D02*
X65571424Y-14173571D01*
X65571424Y-14173571D02*
X65642852Y-14030714D01*
X65642852Y-14030714D02*
X65642852Y-13602142D01*
X65642852Y-13602142D02*
X65571424Y-13459285D01*
X65571424Y-13459285D02*
X65499995Y-13387857D01*
X65499995Y-13387857D02*
X65357138Y-13316428D01*
X65357138Y-13316428D02*
X65071424Y-13316428D01*
X65071424Y-13316428D02*
X64928567Y-13387857D01*
X63357138Y-14173571D02*
X63428566Y-14245000D01*
X63428566Y-14245000D02*
X63642852Y-14316428D01*
X63642852Y-14316428D02*
X63785709Y-14316428D01*
X63785709Y-14316428D02*
X63999995Y-14245000D01*
X63999995Y-14245000D02*
X64142852Y-14102142D01*
X64142852Y-14102142D02*
X64214281Y-13959285D01*
X64214281Y-13959285D02*
X64285709Y-13673571D01*
X64285709Y-13673571D02*
X64285709Y-13459285D01*
X64285709Y-13459285D02*
X64214281Y-13173571D01*
X64214281Y-13173571D02*
X64142852Y-13030714D01*
X64142852Y-13030714D02*
X63999995Y-12887857D01*
X63999995Y-12887857D02*
X63785709Y-12816428D01*
X63785709Y-12816428D02*
X63642852Y-12816428D01*
X63642852Y-12816428D02*
X63428566Y-12887857D01*
X63428566Y-12887857D02*
X63357138Y-12959285D01*
X62071424Y-14316428D02*
X62071424Y-13530714D01*
X62071424Y-13530714D02*
X62142852Y-13387857D01*
X62142852Y-13387857D02*
X62285709Y-13316428D01*
X62285709Y-13316428D02*
X62571424Y-13316428D01*
X62571424Y-13316428D02*
X62714281Y-13387857D01*
X62071424Y-14245000D02*
X62214281Y-14316428D01*
X62214281Y-14316428D02*
X62571424Y-14316428D01*
X62571424Y-14316428D02*
X62714281Y-14245000D01*
X62714281Y-14245000D02*
X62785709Y-14102142D01*
X62785709Y-14102142D02*
X62785709Y-13959285D01*
X62785709Y-13959285D02*
X62714281Y-13816428D01*
X62714281Y-13816428D02*
X62571424Y-13745000D01*
X62571424Y-13745000D02*
X62214281Y-13745000D01*
X62214281Y-13745000D02*
X62071424Y-13673571D01*
X61571423Y-13316428D02*
X60999995Y-13316428D01*
X61357138Y-12816428D02*
X61357138Y-14102142D01*
X61357138Y-14102142D02*
X61285709Y-14245000D01*
X61285709Y-14245000D02*
X61142852Y-14316428D01*
X61142852Y-14316428D02*
X60999995Y-14316428D01*
X60571423Y-14245000D02*
X60357138Y-14316428D01*
X60357138Y-14316428D02*
X59999995Y-14316428D01*
X59999995Y-14316428D02*
X59857138Y-14245000D01*
X59857138Y-14245000D02*
X59785709Y-14173571D01*
X59785709Y-14173571D02*
X59714280Y-14030714D01*
X59714280Y-14030714D02*
X59714280Y-13887857D01*
X59714280Y-13887857D02*
X59785709Y-13745000D01*
X59785709Y-13745000D02*
X59857138Y-13673571D01*
X59857138Y-13673571D02*
X59999995Y-13602142D01*
X59999995Y-13602142D02*
X60285709Y-13530714D01*
X60285709Y-13530714D02*
X60428566Y-13459285D01*
X60428566Y-13459285D02*
X60499995Y-13387857D01*
X60499995Y-13387857D02*
X60571423Y-13245000D01*
X60571423Y-13245000D02*
X60571423Y-13102142D01*
X60571423Y-13102142D02*
X60499995Y-12959285D01*
X60499995Y-12959285D02*
X60428566Y-12887857D01*
X60428566Y-12887857D02*
X60285709Y-12816428D01*
X60285709Y-12816428D02*
X59928566Y-12816428D01*
X59928566Y-12816428D02*
X59714280Y-12887857D01*
X59071424Y-13530714D02*
X58571424Y-13530714D01*
X58357138Y-14316428D02*
X59071424Y-14316428D01*
X59071424Y-14316428D02*
X59071424Y-12816428D01*
X59071424Y-12816428D02*
X58357138Y-12816428D01*
D10*
X243314285Y-11859285D02*
X243242857Y-11787857D01*
X243242857Y-11787857D02*
X243100000Y-11716428D01*
X243100000Y-11716428D02*
X242742857Y-11716428D01*
X242742857Y-11716428D02*
X242600000Y-11787857D01*
X242600000Y-11787857D02*
X242528571Y-11859285D01*
X242528571Y-11859285D02*
X242457142Y-12002142D01*
X242457142Y-12002142D02*
X242457142Y-12145000D01*
X242457142Y-12145000D02*
X242528571Y-12359285D01*
X242528571Y-12359285D02*
X243385714Y-13216428D01*
X243385714Y-13216428D02*
X242457142Y-13216428D01*
X241171429Y-12216428D02*
X241171429Y-13216428D01*
X241528571Y-11645000D02*
X241885714Y-12716428D01*
X241885714Y-12716428D02*
X240957143Y-12716428D01*
X204614285Y-7959285D02*
X204542857Y-7887857D01*
X204542857Y-7887857D02*
X204400000Y-7816428D01*
X204400000Y-7816428D02*
X204042857Y-7816428D01*
X204042857Y-7816428D02*
X203900000Y-7887857D01*
X203900000Y-7887857D02*
X203828571Y-7959285D01*
X203828571Y-7959285D02*
X203757142Y-8102142D01*
X203757142Y-8102142D02*
X203757142Y-8245000D01*
X203757142Y-8245000D02*
X203828571Y-8459285D01*
X203828571Y-8459285D02*
X204685714Y-9316428D01*
X204685714Y-9316428D02*
X203757142Y-9316428D01*
D12*
%TO.C,J1*%
X205112619Y-5526666D02*
X205826904Y-5526666D01*
X205826904Y-5526666D02*
X205969761Y-5479047D01*
X205969761Y-5479047D02*
X206065000Y-5383809D01*
X206065000Y-5383809D02*
X206112619Y-5240952D01*
X206112619Y-5240952D02*
X206112619Y-5145714D01*
X206112619Y-6526666D02*
X206112619Y-5955238D01*
X206112619Y-6240952D02*
X205112619Y-6240952D01*
X205112619Y-6240952D02*
X205255476Y-6145714D01*
X205255476Y-6145714D02*
X205350714Y-6050476D01*
X205350714Y-6050476D02*
X205398333Y-5955238D01*
D13*
X244900000Y-1300000D02*
X206540000Y-1300000D01*
X223670000Y-1300000D02*
X223670000Y-2610000D01*
X206540000Y-1300000D02*
X206540000Y-10420000D01*
X243600000Y-2610000D02*
X227770000Y-2610000D01*
X227770000Y-2610000D02*
X227770000Y-1300000D01*
X227770000Y-2610000D02*
X227770000Y-2610000D01*
X223670000Y-2610000D02*
X207840000Y-2610000D01*
X207840000Y-2610000D02*
X207840000Y-9110000D01*
X243600000Y-9110000D02*
X243600000Y-2610000D01*
X207840000Y-9110000D02*
X243600000Y-9110000D01*
X244900000Y-10420000D02*
X244900000Y-1300000D01*
X206540000Y-10420000D02*
X244900000Y-10420000D01*
%TD*%
M02*
