%TF.GenerationSoftware,KiCad,Pcbnew,7.0.1*%
%TF.CreationDate,2023-09-25T23:55:44+03:00*%
%TF.ProjectId,keyboard_test,6b657962-6f61-4726-945f-746573742e6b,rev?*%
%TF.SameCoordinates,Original*%
%TF.FileFunction,Legend,Bot*%
%TF.FilePolarity,Positive*%
%FSLAX46Y46*%
G04 Gerber Fmt 4.6, Leading zero omitted, Abs format (unit mm)*
G04 Created by KiCad (PCBNEW 7.0.1) date 2023-09-25 23:55:44*
%MOMM*%
%LPD*%
G01*
G04 APERTURE LIST*
%ADD10C,0.150000*%
%ADD11C,0.120000*%
G04 APERTURE END LIST*
D10*
%TO.C,J1*%
X86565519Y-86723066D02*
X87279804Y-86723066D01*
X87279804Y-86723066D02*
X87422661Y-86675447D01*
X87422661Y-86675447D02*
X87517900Y-86580209D01*
X87517900Y-86580209D02*
X87565519Y-86437352D01*
X87565519Y-86437352D02*
X87565519Y-86342114D01*
X87565519Y-87723066D02*
X87565519Y-87151638D01*
X87565519Y-87437352D02*
X86565519Y-87437352D01*
X86565519Y-87437352D02*
X86708376Y-87342114D01*
X86708376Y-87342114D02*
X86803614Y-87246876D01*
X86803614Y-87246876D02*
X86851233Y-87151638D01*
D11*
X93702900Y-81106400D02*
X93202900Y-82106400D01*
X92702900Y-81106400D02*
X93702900Y-81106400D01*
X93202900Y-82106400D02*
X92702900Y-81106400D01*
X126352900Y-82496400D02*
X87992900Y-82496400D01*
X105122900Y-82496400D02*
X105122900Y-83806400D01*
X87992900Y-82496400D02*
X87992900Y-91616400D01*
X125052900Y-83806400D02*
X109222900Y-83806400D01*
X109222900Y-83806400D02*
X109222900Y-82496400D01*
X109222900Y-83806400D02*
X109222900Y-83806400D01*
X105122900Y-83806400D02*
X89292900Y-83806400D01*
X89292900Y-83806400D02*
X89292900Y-90306400D01*
X125052900Y-90306400D02*
X125052900Y-83806400D01*
X89292900Y-90306400D02*
X125052900Y-90306400D01*
X126352900Y-91616400D02*
X126352900Y-82496400D01*
X87992900Y-91616400D02*
X126352900Y-91616400D01*
%TD*%
M02*
