%TF.GenerationSoftware,KiCad,Pcbnew,7.0.1*%
%TF.CreationDate,2023-09-25T23:55:44+03:00*%
%TF.ProjectId,keyboard_test,6b657962-6f61-4726-945f-746573742e6b,rev?*%
%TF.SameCoordinates,Original*%
%TF.FileFunction,Copper,L2,Bot*%
%TF.FilePolarity,Positive*%
%FSLAX46Y46*%
G04 Gerber Fmt 4.6, Leading zero omitted, Abs format (unit mm)*
G04 Created by KiCad (PCBNEW 7.0.1) date 2023-09-25 23:55:44*
%MOMM*%
%LPD*%
G01*
G04 APERTURE LIST*
G04 Aperture macros list*
%AMRoundRect*
0 Rectangle with rounded corners*
0 $1 Rounding radius*
0 $2 $3 $4 $5 $6 $7 $8 $9 X,Y pos of 4 corners*
0 Add a 4 corners polygon primitive as box body*
4,1,4,$2,$3,$4,$5,$6,$7,$8,$9,$2,$3,0*
0 Add four circle primitives for the rounded corners*
1,1,$1+$1,$2,$3*
1,1,$1+$1,$4,$5*
1,1,$1+$1,$6,$7*
1,1,$1+$1,$8,$9*
0 Add four rect primitives between the rounded corners*
20,1,$1+$1,$2,$3,$4,$5,0*
20,1,$1+$1,$4,$5,$6,$7,0*
20,1,$1+$1,$6,$7,$8,$9,0*
20,1,$1+$1,$8,$9,$2,$3,0*%
G04 Aperture macros list end*
%TA.AperFunction,ComponentPad*%
%ADD10C,2.000000*%
%TD*%
%TA.AperFunction,ComponentPad*%
%ADD11RoundRect,0.250000X-0.600000X0.600000X-0.600000X-0.600000X0.600000X-0.600000X0.600000X0.600000X0*%
%TD*%
%TA.AperFunction,ComponentPad*%
%ADD12C,1.700000*%
%TD*%
%TA.AperFunction,ViaPad*%
%ADD13C,0.800000*%
%TD*%
%TA.AperFunction,Conductor*%
%ADD14C,0.200000*%
%TD*%
G04 APERTURE END LIST*
D10*
%TO.P,SW21,1,1*%
%TO.N,Net-(J1-Pin_4)*%
X118395200Y-106432400D03*
X124895200Y-106432400D03*
%TO.P,SW21,2,2*%
%TO.N,Net-(J1-Pin_17)*%
X118395200Y-110932400D03*
X124895200Y-110932400D03*
%TD*%
%TO.P,SW59,1,1*%
%TO.N,Net-(J1-Pin_6)*%
X153308100Y-138577000D03*
X159808100Y-138577000D03*
%TO.P,SW59,2,2*%
%TO.N,Net-(J1-Pin_13)*%
X153308100Y-143077000D03*
X159808100Y-143077000D03*
%TD*%
%TO.P,SW33,1,1*%
%TO.N,Net-(J1-Pin_3)*%
X112877600Y-116962800D03*
X119377600Y-116962800D03*
%TO.P,SW33,2,2*%
%TO.N,Net-(J1-Pin_15)*%
X112877600Y-121462800D03*
X119377600Y-121462800D03*
%TD*%
%TO.P,SW60,1,1*%
%TO.N,Net-(J1-Pin_1)*%
X163512500Y-138577000D03*
X170012500Y-138577000D03*
%TO.P,SW60,2,2*%
%TO.N,Net-(J1-Pin_2)*%
X163512500Y-143077000D03*
X170012500Y-143077000D03*
%TD*%
%TO.P,SW2,1,1*%
%TO.N,Net-(J1-Pin_9)*%
X72758300Y-85202200D03*
X79258300Y-85202200D03*
%TO.P,SW2,2,2*%
%TO.N,Net-(J1-Pin_20)*%
X72758300Y-89702200D03*
X79258300Y-89702200D03*
%TD*%
%TO.P,SW23,1,1*%
%TO.N,Net-(J1-Pin_6)*%
X138604300Y-106432400D03*
X145104300Y-106432400D03*
%TO.P,SW23,2,2*%
%TO.N,Net-(J1-Pin_17)*%
X138604300Y-110932400D03*
X145104300Y-110932400D03*
%TD*%
%TO.P,SW25,1,1*%
%TO.N,Net-(J1-Pin_11)*%
X158813500Y-106432400D03*
X165313500Y-106432400D03*
%TO.P,SW25,2,2*%
%TO.N,Net-(J1-Pin_18)*%
X158813500Y-110932400D03*
X165313500Y-110932400D03*
%TD*%
%TO.P,SW46,1,1*%
%TO.N,Net-(J1-Pin_5)*%
X128168500Y-127580000D03*
X134668500Y-127580000D03*
%TO.P,SW46,2,2*%
%TO.N,Net-(J1-Pin_13)*%
X128168500Y-132080000D03*
X134668500Y-132080000D03*
%TD*%
%TO.P,SW29,1,1*%
%TO.N,Net-(J1-Pin_6)*%
X72736300Y-116962800D03*
X79236300Y-116962800D03*
%TO.P,SW29,2,2*%
%TO.N,Net-(J1-Pin_23)*%
X72736300Y-121462800D03*
X79236300Y-121462800D03*
%TD*%
%TO.P,SW32,1,1*%
%TO.N,Net-(J1-Pin_3)*%
X102842200Y-116962800D03*
X109342200Y-116962800D03*
%TO.P,SW32,2,2*%
%TO.N,Net-(J1-Pin_23)*%
X102842200Y-121462800D03*
X109342200Y-121462800D03*
%TD*%
%TO.P,SW17,1,1*%
%TO.N,Net-(J1-Pin_5)*%
X77976800Y-106432400D03*
X84476800Y-106432400D03*
%TO.P,SW17,2,2*%
%TO.N,Net-(J1-Pin_22)*%
X77976800Y-110932400D03*
X84476800Y-110932400D03*
%TD*%
%TO.P,SW49,1,1*%
%TO.N,Net-(J1-Pin_13)*%
X42175500Y-138577000D03*
X48675500Y-138577000D03*
%TO.P,SW49,2,2*%
%TO.N,Net-(J1-Pin_6)*%
X42175500Y-143077000D03*
X48675500Y-143077000D03*
%TD*%
%TO.P,SW37,1,1*%
%TO.N,Net-(J1-Pin_7)*%
X163385500Y-116962800D03*
X169885500Y-116962800D03*
%TO.P,SW37,2,2*%
%TO.N,Net-(J1-Pin_15)*%
X163385500Y-121462800D03*
X169885500Y-121462800D03*
%TD*%
%TO.P,SW13,1,1*%
%TO.N,Net-(J1-Pin_14)*%
X163385500Y-95910400D03*
X169885500Y-95910400D03*
%TO.P,SW13,2,2*%
%TO.N,Net-(J1-Pin_12)*%
X163385500Y-100410400D03*
X169885500Y-100410400D03*
%TD*%
%TO.P,SW39,1,1*%
%TO.N,Net-(J1-Pin_11)*%
X57948900Y-127554600D03*
X64448900Y-127554600D03*
%TO.P,SW39,2,2*%
%TO.N,Net-(J1-Pin_20)*%
X57948900Y-132054600D03*
X64448900Y-132054600D03*
%TD*%
%TO.P,SW19,1,1*%
%TO.N,Net-(J1-Pin_3)*%
X98186000Y-106432400D03*
X104686000Y-106432400D03*
%TO.P,SW19,2,2*%
%TO.N,Net-(J1-Pin_22)*%
X98186000Y-110932400D03*
X104686000Y-110932400D03*
%TD*%
%TO.P,SW28,1,1*%
%TO.N,Net-(J1-Pin_7)*%
X62701000Y-116962800D03*
X69201000Y-116962800D03*
%TO.P,SW28,2,2*%
%TO.N,Net-(J1-Pin_23)*%
X62701000Y-121462800D03*
X69201000Y-121462800D03*
%TD*%
%TO.P,SW24,1,1*%
%TO.N,Net-(J1-Pin_7)*%
X148708900Y-106432400D03*
X155208900Y-106432400D03*
%TO.P,SW24,2,2*%
%TO.N,Net-(J1-Pin_17)*%
X148708900Y-110932400D03*
X155208900Y-110932400D03*
%TD*%
%TO.P,SW9,1,1*%
%TO.N,Net-(J1-Pin_4)*%
X113202400Y-95830000D03*
X119702400Y-95830000D03*
%TO.P,SW9,2,2*%
%TO.N,Net-(J1-Pin_19)*%
X113202400Y-100330000D03*
X119702400Y-100330000D03*
%TD*%
%TO.P,SW34,1,1*%
%TO.N,Net-(J1-Pin_4)*%
X122912900Y-116962800D03*
X129412900Y-116962800D03*
%TO.P,SW34,2,2*%
%TO.N,Net-(J1-Pin_15)*%
X122912900Y-121462800D03*
X129412900Y-121462800D03*
%TD*%
%TO.P,SW6,1,1*%
%TO.N,Net-(J1-Pin_4)*%
X82781600Y-95830000D03*
X89281600Y-95830000D03*
%TO.P,SW6,2,2*%
%TO.N,Net-(J1-Pin_21)*%
X82781600Y-100330000D03*
X89281600Y-100330000D03*
%TD*%
%TO.P,SW12,1,1*%
%TO.N,Net-(J1-Pin_7)*%
X143623100Y-95830000D03*
X150123100Y-95830000D03*
%TO.P,SW12,2,2*%
%TO.N,Net-(J1-Pin_19)*%
X143623100Y-100330000D03*
X150123100Y-100330000D03*
%TD*%
%TO.P,SW22,1,1*%
%TO.N,Net-(J1-Pin_5)*%
X128499700Y-106432400D03*
X134999700Y-106432400D03*
%TO.P,SW22,2,2*%
%TO.N,Net-(J1-Pin_17)*%
X128499700Y-110932400D03*
X134999700Y-110932400D03*
%TD*%
%TO.P,SW45,1,1*%
%TO.N,Net-(J1-Pin_4)*%
X118130500Y-127580000D03*
X124630500Y-127580000D03*
%TO.P,SW45,2,2*%
%TO.N,Net-(J1-Pin_13)*%
X118130500Y-132080000D03*
X124630500Y-132080000D03*
%TD*%
%TO.P,SW57,1,1*%
%TO.N,Net-(J1-Pin_18)*%
X132899200Y-138577000D03*
X139399200Y-138577000D03*
%TO.P,SW57,2,2*%
%TO.N,Net-(J1-Pin_8)*%
X132899200Y-143077000D03*
X139399200Y-143077000D03*
%TD*%
%TO.P,SW58,1,1*%
%TO.N,Net-(J1-Pin_9)*%
X143103600Y-138577000D03*
X149603600Y-138577000D03*
%TO.P,SW58,2,2*%
%TO.N,Net-(J1-Pin_13)*%
X143103600Y-143077000D03*
X149603600Y-143077000D03*
%TD*%
%TO.P,SW41,1,1*%
%TO.N,Net-(J1-Pin_5)*%
X77978100Y-127580000D03*
X84478100Y-127580000D03*
%TO.P,SW41,2,2*%
%TO.N,Net-(J1-Pin_24)*%
X77978100Y-132080000D03*
X84478100Y-132080000D03*
%TD*%
%TO.P,SW51,1,1*%
%TO.N,Net-(J1-Pin_8)*%
X62978100Y-138577000D03*
X69478100Y-138577000D03*
%TO.P,SW51,2,2*%
%TO.N,Net-(J1-Pin_16)*%
X62978100Y-143077000D03*
X69478100Y-143077000D03*
%TD*%
%TO.P,SW36,1,1*%
%TO.N,Net-(J1-Pin_6)*%
X142983481Y-116962800D03*
X149483481Y-116962800D03*
%TO.P,SW36,2,2*%
%TO.N,Net-(J1-Pin_15)*%
X142983481Y-121462800D03*
X149483481Y-121462800D03*
%TD*%
%TO.P,SW48,1,1*%
%TO.N,Net-(J1-Pin_24)*%
X153527900Y-127580000D03*
X160027900Y-127580000D03*
%TO.P,SW48,2,2*%
%TO.N,Net-(J1-Pin_7)*%
X153527900Y-132080000D03*
X160027900Y-132080000D03*
%TD*%
%TO.P,SW10,1,1*%
%TO.N,Net-(J1-Pin_5)*%
X123342600Y-95830000D03*
X129842600Y-95830000D03*
%TO.P,SW10,2,2*%
%TO.N,Net-(J1-Pin_19)*%
X123342600Y-100330000D03*
X129842600Y-100330000D03*
%TD*%
%TO.P,SW4,1,1*%
%TO.N,Net-(J1-Pin_6)*%
X62501100Y-95830000D03*
X69001100Y-95830000D03*
%TO.P,SW4,2,2*%
%TO.N,Net-(J1-Pin_21)*%
X62501100Y-100330000D03*
X69001100Y-100330000D03*
%TD*%
%TO.P,SW31,1,1*%
%TO.N,Net-(J1-Pin_4)*%
X92806900Y-116962800D03*
X99306900Y-116962800D03*
%TO.P,SW31,2,2*%
%TO.N,Net-(J1-Pin_23)*%
X92806900Y-121462800D03*
X99306900Y-121462800D03*
%TD*%
%TO.P,SW5,1,1*%
%TO.N,Net-(J1-Pin_5)*%
X72641400Y-95830000D03*
X79141400Y-95830000D03*
%TO.P,SW5,2,2*%
%TO.N,Net-(J1-Pin_21)*%
X72641400Y-100330000D03*
X79141400Y-100330000D03*
%TD*%
%TO.P,SW1,1,1*%
%TO.N,Net-(J1-Pin_10)*%
X62547500Y-85202200D03*
X69047500Y-85202200D03*
%TO.P,SW1,2,2*%
%TO.N,Net-(J1-Pin_20)*%
X62547500Y-89702200D03*
X69047500Y-89702200D03*
%TD*%
%TO.P,SW7,1,1*%
%TO.N,Net-(J1-Pin_3)*%
X92921900Y-95830000D03*
X99421900Y-95830000D03*
%TO.P,SW7,2,2*%
%TO.N,Net-(J1-Pin_21)*%
X92921900Y-100330000D03*
X99421900Y-100330000D03*
%TD*%
%TO.P,SW53,1,1*%
%TO.N,Net-(J1-Pin_18)*%
X83780700Y-138577000D03*
X90280700Y-138577000D03*
%TO.P,SW53,2,2*%
%TO.N,Net-(J1-Pin_10)*%
X83780700Y-143077000D03*
X90280700Y-143077000D03*
%TD*%
%TO.P,SW56,1,1*%
%TO.N,Net-(J1-Pin_18)*%
X122694700Y-138577000D03*
X129194700Y-138577000D03*
%TO.P,SW56,2,2*%
%TO.N,Net-(J1-Pin_9)*%
X122694700Y-143077000D03*
X129194700Y-143077000D03*
%TD*%
%TO.P,SW16,1,1*%
%TO.N,Net-(J1-Pin_6)*%
X67872300Y-106432400D03*
X74372300Y-106432400D03*
%TO.P,SW16,2,2*%
%TO.N,Net-(J1-Pin_22)*%
X67872300Y-110932400D03*
X74372300Y-110932400D03*
%TD*%
%TO.P,SW40,1,1*%
%TO.N,Net-(J1-Pin_6)*%
X67940100Y-127580000D03*
X74440100Y-127580000D03*
%TO.P,SW40,2,2*%
%TO.N,Net-(J1-Pin_24)*%
X67940100Y-132080000D03*
X74440100Y-132080000D03*
%TD*%
%TO.P,SW18,1,1*%
%TO.N,Net-(J1-Pin_4)*%
X88081400Y-106432400D03*
X94581400Y-106432400D03*
%TO.P,SW18,2,2*%
%TO.N,Net-(J1-Pin_22)*%
X88081400Y-110932400D03*
X94581400Y-110932400D03*
%TD*%
%TO.P,SW42,1,1*%
%TO.N,Net-(J1-Pin_4)*%
X88016200Y-127580000D03*
X94516200Y-127580000D03*
%TO.P,SW42,2,2*%
%TO.N,Net-(J1-Pin_24)*%
X88016200Y-132080000D03*
X94516200Y-132080000D03*
%TD*%
%TO.P,SW54,1,1*%
%TO.N,Net-(J1-Pin_7)*%
X97852300Y-138577000D03*
X104352300Y-138577000D03*
%TO.P,SW54,2,2*%
%TO.N,Net-(J1-Pin_13)*%
X97852300Y-143077000D03*
X104352300Y-143077000D03*
%TD*%
%TO.P,SW52,1,1*%
%TO.N,Net-(J1-Pin_8)*%
X73379400Y-138577000D03*
X79879400Y-138577000D03*
%TO.P,SW52,2,2*%
%TO.N,Net-(J1-Pin_20)*%
X73379400Y-143077000D03*
X79879400Y-143077000D03*
%TD*%
%TO.P,SW43,1,1*%
%TO.N,Net-(J1-Pin_3)*%
X98054300Y-127580000D03*
X104554300Y-127580000D03*
%TO.P,SW43,2,2*%
%TO.N,Net-(J1-Pin_24)*%
X98054300Y-132080000D03*
X104554300Y-132080000D03*
%TD*%
%TO.P,SW27,1,1*%
%TO.N,Net-(J1-Pin_20)*%
X52665700Y-116962800D03*
X59165700Y-116962800D03*
%TO.P,SW27,2,2*%
%TO.N,Net-(J1-Pin_12)*%
X52665700Y-121462800D03*
X59165700Y-121462800D03*
%TD*%
%TO.P,SW26,1,1*%
%TO.N,Net-(J1-Pin_11)*%
X42604900Y-116962800D03*
X49104900Y-116962800D03*
%TO.P,SW26,2,2*%
%TO.N,Net-(J1-Pin_14)*%
X42604900Y-121462800D03*
X49104900Y-121462800D03*
%TD*%
%TO.P,SW44,1,1*%
%TO.N,Net-(J1-Pin_3)*%
X108092400Y-127580000D03*
X114592400Y-127580000D03*
%TO.P,SW44,2,2*%
%TO.N,Net-(J1-Pin_13)*%
X108092400Y-132080000D03*
X114592400Y-132080000D03*
%TD*%
%TO.P,SW47,1,1*%
%TO.N,Net-(J1-Pin_10)*%
X138206600Y-127580000D03*
X144706600Y-127580000D03*
%TO.P,SW47,2,2*%
%TO.N,Net-(J1-Pin_13)*%
X138206600Y-132080000D03*
X144706600Y-132080000D03*
%TD*%
%TO.P,SW15,1,1*%
%TO.N,Net-(J1-Pin_7)*%
X57767700Y-106432400D03*
X64267700Y-106432400D03*
%TO.P,SW15,2,2*%
%TO.N,Net-(J1-Pin_22)*%
X57767700Y-110932400D03*
X64267700Y-110932400D03*
%TD*%
%TO.P,SW35,1,1*%
%TO.N,Net-(J1-Pin_5)*%
X132948200Y-116962800D03*
X139448200Y-116962800D03*
%TO.P,SW35,2,2*%
%TO.N,Net-(J1-Pin_15)*%
X132948200Y-121462800D03*
X139448200Y-121462800D03*
%TD*%
%TO.P,SW55,1,1*%
%TO.N,Net-(J1-Pin_7)*%
X108418700Y-138577000D03*
X114918700Y-138577000D03*
%TO.P,SW55,2,2*%
%TO.N,Net-(J1-Pin_13)*%
X108418700Y-143077000D03*
X114918700Y-143077000D03*
%TD*%
%TO.P,SW3,1,1*%
%TO.N,Net-(J1-Pin_7)*%
X52360900Y-95830000D03*
X58860900Y-95830000D03*
%TO.P,SW3,2,2*%
%TO.N,Net-(J1-Pin_21)*%
X52360900Y-100330000D03*
X58860900Y-100330000D03*
%TD*%
%TO.P,SW11,1,1*%
%TO.N,Net-(J1-Pin_6)*%
X133482900Y-95830000D03*
X139982900Y-95830000D03*
%TO.P,SW11,2,2*%
%TO.N,Net-(J1-Pin_19)*%
X133482900Y-100330000D03*
X139982900Y-100330000D03*
%TD*%
%TO.P,SW38,1,1*%
%TO.N,Net-(J1-Pin_7)*%
X47739300Y-127565200D03*
X54239300Y-127565200D03*
%TO.P,SW38,2,2*%
%TO.N,Net-(J1-Pin_24)*%
X47739300Y-132065200D03*
X54239300Y-132065200D03*
%TD*%
%TO.P,SW30,1,1*%
%TO.N,Net-(J1-Pin_5)*%
X82771600Y-116962800D03*
X89271600Y-116962800D03*
%TO.P,SW30,2,2*%
%TO.N,Net-(J1-Pin_23)*%
X82771600Y-121462800D03*
X89271600Y-121462800D03*
%TD*%
%TO.P,SW50,1,1*%
%TO.N,Net-(J1-Pin_11)*%
X52576800Y-138577000D03*
X59076800Y-138577000D03*
%TO.P,SW50,2,2*%
%TO.N,Net-(J1-Pin_16)*%
X52576800Y-143077000D03*
X59076800Y-143077000D03*
%TD*%
%TO.P,SW14,1,1*%
%TO.N,Net-(J1-Pin_18)*%
X42735500Y-106432400D03*
X49235500Y-106432400D03*
%TO.P,SW14,2,2*%
%TO.N,Net-(J1-Pin_12)*%
X42735500Y-110932400D03*
X49235500Y-110932400D03*
%TD*%
%TO.P,SW8,1,1*%
%TO.N,Net-(J1-Pin_3)*%
X103062100Y-95830000D03*
X109562100Y-95830000D03*
%TO.P,SW8,2,2*%
%TO.N,Net-(J1-Pin_19)*%
X103062100Y-100330000D03*
X109562100Y-100330000D03*
%TD*%
%TO.P,SW20,1,1*%
%TO.N,Net-(J1-Pin_3)*%
X108290600Y-106432400D03*
X114790600Y-106432400D03*
%TO.P,SW20,2,2*%
%TO.N,Net-(J1-Pin_17)*%
X108290600Y-110932400D03*
X114790600Y-110932400D03*
%TD*%
D11*
%TO.P,J1,1,Pin_1*%
%TO.N,Net-(J1-Pin_1)*%
X93202900Y-85786400D03*
D12*
%TO.P,J1,2,Pin_2*%
%TO.N,Net-(J1-Pin_2)*%
X93202900Y-88326400D03*
%TO.P,J1,3,Pin_3*%
%TO.N,Net-(J1-Pin_3)*%
X95742900Y-85786400D03*
%TO.P,J1,4,Pin_4*%
%TO.N,Net-(J1-Pin_4)*%
X95742900Y-88326400D03*
%TO.P,J1,5,Pin_5*%
%TO.N,Net-(J1-Pin_5)*%
X98282900Y-85786400D03*
%TO.P,J1,6,Pin_6*%
%TO.N,Net-(J1-Pin_6)*%
X98282900Y-88326400D03*
%TO.P,J1,7,Pin_7*%
%TO.N,Net-(J1-Pin_7)*%
X100822900Y-85786400D03*
%TO.P,J1,8,Pin_8*%
%TO.N,Net-(J1-Pin_8)*%
X100822900Y-88326400D03*
%TO.P,J1,9,Pin_9*%
%TO.N,Net-(J1-Pin_9)*%
X103362900Y-85786400D03*
%TO.P,J1,10,Pin_10*%
%TO.N,Net-(J1-Pin_10)*%
X103362900Y-88326400D03*
%TO.P,J1,11,Pin_11*%
%TO.N,Net-(J1-Pin_11)*%
X105902900Y-85786400D03*
%TO.P,J1,12,Pin_12*%
%TO.N,Net-(J1-Pin_12)*%
X105902900Y-88326400D03*
%TO.P,J1,13,Pin_13*%
%TO.N,Net-(J1-Pin_13)*%
X108442900Y-85786400D03*
%TO.P,J1,14,Pin_14*%
%TO.N,Net-(J1-Pin_14)*%
X108442900Y-88326400D03*
%TO.P,J1,15,Pin_15*%
%TO.N,Net-(J1-Pin_15)*%
X110982900Y-85786400D03*
%TO.P,J1,16,Pin_16*%
%TO.N,Net-(J1-Pin_16)*%
X110982900Y-88326400D03*
%TO.P,J1,17,Pin_17*%
%TO.N,Net-(J1-Pin_17)*%
X113522900Y-85786400D03*
%TO.P,J1,18,Pin_18*%
%TO.N,Net-(J1-Pin_18)*%
X113522900Y-88326400D03*
%TO.P,J1,19,Pin_19*%
%TO.N,Net-(J1-Pin_19)*%
X116062900Y-85786400D03*
%TO.P,J1,20,Pin_20*%
%TO.N,Net-(J1-Pin_20)*%
X116062900Y-88326400D03*
%TO.P,J1,21,Pin_21*%
%TO.N,Net-(J1-Pin_21)*%
X118602900Y-85786400D03*
%TO.P,J1,22,Pin_22*%
%TO.N,Net-(J1-Pin_22)*%
X118602900Y-88326400D03*
%TO.P,J1,23,Pin_23*%
%TO.N,Net-(J1-Pin_23)*%
X121142900Y-85786400D03*
%TO.P,J1,24,Pin_24*%
%TO.N,Net-(J1-Pin_24)*%
X121142900Y-88326400D03*
%TD*%
D13*
%TO.N,Net-(J1-Pin_2)*%
X94281200Y-91516500D03*
X140361600Y-98593600D03*
%TO.N,Net-(J1-Pin_6)*%
X143825100Y-112786600D03*
%TO.N,Net-(J1-Pin_7)*%
X157058500Y-131150800D03*
X158049100Y-120533600D03*
X159293700Y-124927800D03*
%TO.N,Net-(J1-Pin_14)*%
X97086100Y-101164400D03*
%TO.N,Net-(J1-Pin_20)*%
X87852400Y-82332800D03*
%TO.N,Net-(J1-Pin_24)*%
X157845900Y-129195000D03*
X112506900Y-124064200D03*
X101610300Y-125258000D03*
X107579300Y-125054800D03*
X101280100Y-130922200D03*
%TD*%
D14*
%TO.N,Net-(J1-Pin_1)*%
X163512500Y-138577000D02*
X163512500Y-130721400D01*
X128154000Y-82151500D02*
X96837800Y-82151500D01*
X142096500Y-96094000D02*
X128154000Y-82151500D01*
X147252400Y-106913400D02*
X147252400Y-101328000D01*
X147252400Y-101328000D02*
X142096500Y-96172100D01*
X161658800Y-128867700D02*
X161658800Y-121319800D01*
X142096500Y-96172100D02*
X142096500Y-96094000D01*
X163512500Y-130721400D02*
X161658800Y-128867700D01*
X161658800Y-121319800D02*
X147252400Y-106913400D01*
X96837800Y-82151500D02*
X93202900Y-85786400D01*
%TO.N,Net-(J1-Pin_2)*%
X161960700Y-141525200D02*
X161960700Y-131455600D01*
X146494000Y-105693000D02*
X141696100Y-100895100D01*
X161960700Y-131455600D02*
X147053800Y-116548700D01*
X146494000Y-107932300D02*
X146494000Y-105693000D01*
X141696100Y-100895100D02*
X141696100Y-99928100D01*
X147053800Y-108492100D02*
X146494000Y-107932300D01*
X147053800Y-116548700D02*
X147053800Y-108492100D01*
X94281200Y-89404700D02*
X94281200Y-91516500D01*
X141696100Y-99928100D02*
X140361600Y-98593600D01*
X93202900Y-88326400D02*
X94281200Y-89404700D01*
X163512500Y-143077000D02*
X161960700Y-141525200D01*
%TO.N,Net-(J1-Pin_3)*%
X112877600Y-108345400D02*
X114790600Y-106432400D01*
X99421900Y-95830000D02*
X98117300Y-97134600D01*
X98117300Y-97134600D02*
X98117300Y-106363700D01*
X98117300Y-106363700D02*
X98186000Y-106432400D01*
X95742900Y-85786400D02*
X96921400Y-86964900D01*
X96921400Y-86964900D02*
X96921400Y-91830500D01*
X112877600Y-116962800D02*
X112877600Y-108345400D01*
X96921400Y-91830500D02*
X92921900Y-95830000D01*
%TO.N,Net-(J1-Pin_4)*%
X94516200Y-118672100D02*
X92806900Y-116962800D01*
X92806900Y-116962800D02*
X92806900Y-108206900D01*
X87900400Y-97211200D02*
X84162800Y-97211200D01*
X94516200Y-127580000D02*
X94516200Y-118672100D01*
X95742900Y-91047400D02*
X95742900Y-88326400D01*
X92806900Y-108206900D02*
X94581400Y-106432400D01*
X118395200Y-106432400D02*
X118395200Y-97137200D01*
X94516200Y-118672100D02*
X97597600Y-118672100D01*
X118395200Y-97137200D02*
X119702400Y-95830000D01*
X90960300Y-95830000D02*
X95742900Y-91047400D01*
X97597600Y-118672100D02*
X99306900Y-116962800D01*
X87900400Y-97211200D02*
X89281600Y-95830000D01*
X84162800Y-97211200D02*
X82781600Y-95830000D01*
X88081400Y-106432400D02*
X87900400Y-106251400D01*
X124630500Y-118680400D02*
X122912900Y-116962800D01*
X89281600Y-95830000D02*
X90960300Y-95830000D01*
X124630500Y-127580000D02*
X124630500Y-118680400D01*
X87900400Y-106251400D02*
X87900400Y-97211200D01*
%TO.N,Net-(J1-Pin_5)*%
X136388800Y-116962800D02*
X134668500Y-118683100D01*
X97096000Y-84599500D02*
X98282900Y-85786400D01*
X80449600Y-97138200D02*
X80449600Y-106432400D01*
X134668500Y-118683100D02*
X134668500Y-127580000D01*
X82771600Y-116962800D02*
X84478100Y-118669300D01*
X94533000Y-85315600D02*
X95249100Y-84599500D01*
X86184600Y-116962800D02*
X84478100Y-118669300D01*
X79141400Y-95830000D02*
X87796900Y-87174500D01*
X128499700Y-97172900D02*
X128499700Y-106432400D01*
X134999700Y-106432400D02*
X136388800Y-107821500D01*
X80449600Y-106432400D02*
X81066400Y-106432400D01*
X81066400Y-106432400D02*
X82771600Y-108137600D01*
X79141400Y-95830000D02*
X80449600Y-97138200D01*
X136388800Y-107821500D02*
X136388800Y-116962800D01*
X87796900Y-87174500D02*
X93808100Y-87174500D01*
X93808100Y-87174500D02*
X94533000Y-86449600D01*
X129842600Y-95830000D02*
X128499700Y-97172900D01*
X139448200Y-116962800D02*
X136388800Y-116962800D01*
X89271600Y-116962800D02*
X86184600Y-116962800D01*
X132948200Y-116962800D02*
X134668500Y-118683100D01*
X84478100Y-118669300D02*
X84478100Y-127580000D01*
X82771600Y-108137600D02*
X82771600Y-116962800D01*
X95249100Y-84599500D02*
X97096000Y-84599500D01*
X77976800Y-106432400D02*
X80449600Y-106432400D01*
X84476800Y-106432400D02*
X82771600Y-108137600D01*
X94533000Y-86449600D02*
X94533000Y-85315600D01*
%TO.N,Net-(J1-Pin_6)*%
X61027500Y-133041900D02*
X61027500Y-138506400D01*
X143804300Y-111632400D02*
X138604300Y-106432400D01*
X74440100Y-118666600D02*
X77532500Y-118666600D01*
X145104300Y-106432400D02*
X145104300Y-107900700D01*
X72736300Y-108068400D02*
X72736300Y-116962800D01*
X67872300Y-106432400D02*
X67649000Y-106209100D01*
X143825100Y-112786600D02*
X143804300Y-112765800D01*
X67649000Y-97182100D02*
X69001100Y-95830000D01*
X146466400Y-131735300D02*
X153308100Y-138577000D01*
X146466400Y-109262800D02*
X146466400Y-131735300D01*
X61027500Y-138506400D02*
X58706900Y-140827000D01*
X50925500Y-140827000D02*
X48675500Y-143077000D01*
X67940100Y-127580000D02*
X66489400Y-127580000D01*
X138604300Y-97208600D02*
X138604300Y-106432400D01*
X67649000Y-106209100D02*
X67649000Y-97182100D01*
X74440100Y-118666600D02*
X72736300Y-116962800D01*
X77532500Y-118666600D02*
X79236300Y-116962800D01*
X145104300Y-107900700D02*
X146466400Y-109262800D01*
X58706900Y-140827000D02*
X50925500Y-140827000D01*
X74372300Y-106432400D02*
X72736300Y-108068400D01*
X137225700Y-95830000D02*
X138604300Y-97208600D01*
X139982900Y-95830000D02*
X138604300Y-97208600D01*
X74440100Y-127580000D02*
X74440100Y-118666600D01*
X67649000Y-97182100D02*
X63853200Y-97182100D01*
X63853200Y-97182100D02*
X62501100Y-95830000D01*
X66489400Y-127580000D02*
X61027500Y-133041900D01*
X143804300Y-112765800D02*
X143804300Y-111632400D01*
X133482900Y-95830000D02*
X137225700Y-95830000D01*
%TO.N,Net-(J1-Pin_7)*%
X58193200Y-96497700D02*
X57525400Y-96497700D01*
X162974400Y-116962800D02*
X163385500Y-116962800D01*
X57525400Y-96497700D02*
X57525400Y-106190100D01*
X73741600Y-140827000D02*
X85817600Y-140827000D01*
X89397300Y-137247300D02*
X96522600Y-137247300D01*
X68149000Y-143600000D02*
X68956000Y-144407000D01*
X157011300Y-108234800D02*
X157011300Y-110999700D01*
X69201000Y-116962800D02*
X70541600Y-118303400D01*
X150123100Y-95830000D02*
X148708900Y-97244200D01*
X53028600Y-96497700D02*
X52360900Y-95830000D01*
X158049100Y-123683200D02*
X159293700Y-124927800D01*
X58860900Y-95830000D02*
X58193200Y-96497700D01*
X62701000Y-107999100D02*
X62701000Y-116962800D01*
X158049100Y-120533600D02*
X158049100Y-123683200D01*
X157011300Y-110999700D02*
X162974400Y-116962800D01*
X57525400Y-106190100D02*
X57767700Y-106432400D01*
X70161600Y-144407000D02*
X73741600Y-140827000D01*
X70541600Y-135672300D02*
X68149000Y-138064900D01*
X70541600Y-118303400D02*
X70541600Y-135672300D01*
X96522600Y-137247300D02*
X97852300Y-138577000D01*
X57525400Y-96497700D02*
X53028600Y-96497700D01*
X54239300Y-127565200D02*
X54239300Y-124533300D01*
X143623100Y-95830000D02*
X147294700Y-95830000D01*
X148708900Y-97244200D02*
X148708900Y-106432400D01*
X54239300Y-124533300D02*
X61809800Y-116962800D01*
X155208900Y-106432400D02*
X157011300Y-108234800D01*
X85817600Y-140827000D02*
X89397300Y-137247300D01*
X68956000Y-144407000D02*
X70161600Y-144407000D01*
X147294700Y-95830000D02*
X148708900Y-97244200D01*
X157987700Y-132080000D02*
X160027900Y-132080000D01*
X64267700Y-106432400D02*
X62701000Y-107999100D01*
X157058500Y-131150800D02*
X157987700Y-132080000D01*
X61809800Y-116962800D02*
X62701000Y-116962800D01*
X68149000Y-138064900D02*
X68149000Y-143600000D01*
%TO.N,Net-(J1-Pin_8)*%
X85912700Y-132543700D02*
X79879400Y-138577000D01*
X90191300Y-129641100D02*
X93967100Y-133416900D01*
X118712200Y-130755300D02*
X128783900Y-140827000D01*
X90191300Y-129641100D02*
X88589000Y-129641100D01*
X96105900Y-95873500D02*
X96105900Y-103066700D01*
X100822900Y-88326400D02*
X100822900Y-91156500D01*
X107572100Y-130755300D02*
X118712200Y-130755300D01*
X130649200Y-140827000D02*
X132899200Y-143077000D01*
X93967100Y-133416900D02*
X105123600Y-133416900D01*
X91266200Y-107906400D02*
X91266200Y-128566200D01*
X128783900Y-140827000D02*
X130649200Y-140827000D01*
X105856200Y-132471200D02*
X107572100Y-130755300D01*
X91266200Y-128566200D02*
X90191300Y-129641100D01*
X100822900Y-91156500D02*
X96105900Y-95873500D01*
X96105900Y-103066700D02*
X91266200Y-107906400D01*
X105123600Y-133416900D02*
X105856200Y-132684300D01*
X85912700Y-132317400D02*
X85912700Y-132543700D01*
X88589000Y-129641100D02*
X85912700Y-132317400D01*
X105856200Y-132684300D02*
X105856200Y-132471200D01*
%TO.N,Net-(J1-Pin_9)*%
X121836700Y-82577300D02*
X106572000Y-82577300D01*
X146006600Y-128118478D02*
X146006600Y-127041522D01*
X143103600Y-138577000D02*
X144306600Y-137374000D01*
X146006600Y-127041522D02*
X144968100Y-126003022D01*
X137302400Y-102244100D02*
X132082300Y-97024000D01*
X144968100Y-126003022D02*
X144968100Y-115390800D01*
X144968100Y-115390800D02*
X137302400Y-107725100D01*
X144306600Y-137374000D02*
X143406600Y-136474000D01*
X106572000Y-82577300D02*
X103362900Y-85786400D01*
X143406600Y-136474000D02*
X143406600Y-130718478D01*
X143406600Y-130718478D02*
X146006600Y-128118478D01*
X132082300Y-97024000D02*
X132082300Y-92822900D01*
X132082300Y-92822900D02*
X121836700Y-82577300D01*
X137302400Y-107725100D02*
X137302400Y-102244100D01*
%TO.N,Net-(J1-Pin_10)*%
X70370200Y-86524900D02*
X70370200Y-113587600D01*
X67860900Y-125555000D02*
X69300800Y-126994900D01*
X64334300Y-137245300D02*
X64334300Y-141025500D01*
X63114200Y-136025200D02*
X64334300Y-137245300D01*
X64271700Y-130366000D02*
X63114200Y-131523500D01*
X81623800Y-145233900D02*
X83780700Y-143077000D01*
X69300800Y-128128000D02*
X67062800Y-130366000D01*
X67062800Y-130366000D02*
X64271700Y-130366000D01*
X67860900Y-116096900D02*
X67860900Y-125555000D01*
X68542700Y-145233900D02*
X81623800Y-145233900D01*
X64334300Y-141025500D02*
X68542700Y-145233900D01*
X63114200Y-131523500D02*
X63114200Y-136025200D01*
X70370200Y-113587600D02*
X67860900Y-116096900D01*
X69047500Y-85202200D02*
X70370200Y-86524900D01*
X69300800Y-126994900D02*
X69300800Y-128128000D01*
%TO.N,Net-(J1-Pin_11)*%
X55153600Y-131138200D02*
X55153600Y-130349900D01*
X55153700Y-130349800D02*
X50484900Y-125681100D01*
X50484900Y-125681100D02*
X50484900Y-120162400D01*
X55153600Y-130349900D02*
X55153700Y-130349800D01*
X59076800Y-138577000D02*
X59076800Y-135061400D01*
X50484900Y-120162400D02*
X49104900Y-118782400D01*
X59076800Y-135061400D02*
X55153600Y-131138200D01*
X64448900Y-127554600D02*
X57948900Y-127554600D01*
X49104900Y-118782400D02*
X49104900Y-116962800D01*
X55153700Y-130349800D02*
X57948900Y-127554600D01*
%TO.N,Net-(J1-Pin_12)*%
X51306250Y-113003150D02*
X51306250Y-120103350D01*
X51306250Y-120103350D02*
X52665700Y-121462800D01*
X49235500Y-110932400D02*
X51306250Y-113003150D01*
%TO.N,Net-(J1-Pin_13)*%
X131211900Y-129036600D02*
X128168500Y-132080000D01*
X131211900Y-129036600D02*
X131625100Y-129036600D01*
X107065900Y-142400600D02*
X105028700Y-142400600D01*
X144706600Y-141474000D02*
X148000600Y-141474000D01*
X107065900Y-133106500D02*
X108092400Y-132080000D01*
X105028700Y-142400600D02*
X104352300Y-143077000D01*
X144706600Y-141474000D02*
X143103600Y-143077000D01*
X107065900Y-142400600D02*
X107065900Y-133106500D01*
X107742300Y-142400600D02*
X107065900Y-142400600D01*
X144706600Y-132080000D02*
X144706600Y-141474000D01*
X131211900Y-92520800D02*
X131211900Y-129036600D01*
X108442900Y-85786400D02*
X111226200Y-83003100D01*
X111226200Y-83003100D02*
X121694200Y-83003100D01*
X131625100Y-129036600D02*
X134668500Y-132080000D01*
X108418700Y-143077000D02*
X107742300Y-142400600D01*
X121694200Y-83003100D02*
X131211900Y-92520800D01*
X148000600Y-141474000D02*
X149603600Y-143077000D01*
%TO.N,Net-(J1-Pin_14)*%
X100259600Y-93140600D02*
X97086100Y-96314100D01*
X97086100Y-96314100D02*
X97086100Y-101164400D01*
X108442900Y-88326400D02*
X103628700Y-93140600D01*
X103628700Y-93140600D02*
X100259600Y-93140600D01*
%TO.N,Net-(J1-Pin_15)*%
X110982900Y-85786400D02*
X113364300Y-83405000D01*
X127168600Y-89045800D02*
X127168600Y-119218500D01*
X121527800Y-83405000D02*
X127168600Y-89045800D01*
X113364300Y-83405000D02*
X121527800Y-83405000D01*
X127168600Y-119218500D02*
X129412900Y-121462800D01*
%TO.N,Net-(J1-Pin_16)*%
X109772700Y-87116200D02*
X100344600Y-87116200D01*
X85947800Y-127976900D02*
X70847700Y-143077000D01*
X70847700Y-143077000D02*
X69478100Y-143077000D01*
X99625100Y-90968000D02*
X90785900Y-99807200D01*
X99625100Y-87835700D02*
X99625100Y-90968000D01*
X90785900Y-122828100D02*
X85947800Y-127666200D01*
X110982900Y-88326400D02*
X109772700Y-87116200D01*
X100344600Y-87116200D02*
X99625100Y-87835700D01*
X85947800Y-127666200D02*
X85947800Y-127976900D01*
X90785900Y-99807200D02*
X90785900Y-122828100D01*
%TO.N,Net-(J1-Pin_17)*%
X122040700Y-108077900D02*
X121249700Y-108077900D01*
X122040700Y-108077900D02*
X124895200Y-110932400D01*
X113522900Y-85786400D02*
X115097400Y-84211900D01*
X122731200Y-85745000D02*
X122731200Y-93078700D01*
X122731200Y-93078700D02*
X122040700Y-93769200D01*
X121249700Y-108077900D02*
X118395200Y-110932400D01*
X121198100Y-84211900D02*
X122731200Y-85745000D01*
X115097400Y-84211900D02*
X121198100Y-84211900D01*
X122040700Y-93769200D02*
X122040700Y-108077900D01*
%TO.N,Net-(J1-Pin_18)*%
X112357800Y-87161300D02*
X112357800Y-85226400D01*
X96086900Y-144383200D02*
X90280700Y-138577000D01*
X139399200Y-138577000D02*
X132899200Y-138577000D01*
X113777300Y-83806900D02*
X121361400Y-83806900D01*
X126399600Y-135781900D02*
X129194700Y-138577000D01*
X122694700Y-138577000D02*
X116888500Y-144383200D01*
X126399600Y-88845100D02*
X126399600Y-135781900D01*
X116888500Y-144383200D02*
X96086900Y-144383200D01*
X112357800Y-85226400D02*
X113777300Y-83806900D01*
X121361400Y-83806900D02*
X126399600Y-88845100D01*
X113522900Y-88326400D02*
X112357800Y-87161300D01*
%TO.N,Net-(J1-Pin_19)*%
X114809000Y-94007400D02*
X119777200Y-89039200D01*
X114809000Y-98723400D02*
X114809000Y-94007400D01*
X117223100Y-84626200D02*
X116062900Y-85786400D01*
X113202400Y-100330000D02*
X114809000Y-98723400D01*
X119777200Y-89039200D02*
X119777200Y-85296800D01*
X119777200Y-85296800D02*
X119106600Y-84626200D01*
X119106600Y-84626200D02*
X117223100Y-84626200D01*
%TO.N,Net-(J1-Pin_20)*%
X87852400Y-82332800D02*
X80483000Y-89702200D01*
X68751900Y-144819500D02*
X64817200Y-140884800D01*
X73379400Y-143077000D02*
X71636900Y-144819500D01*
X71636900Y-144819500D02*
X68751900Y-144819500D01*
X64817200Y-132422900D02*
X64448900Y-132054600D01*
X62547500Y-89702200D02*
X60826000Y-91423700D01*
X80483000Y-89702200D02*
X79258300Y-89702200D01*
X60826000Y-91423700D02*
X60826000Y-115302500D01*
X79258300Y-89702200D02*
X72758300Y-89702200D01*
X60826000Y-115302500D02*
X59165700Y-116962800D01*
X64817200Y-140884800D02*
X64817200Y-132422900D01*
%TO.N,Net-(J1-Pin_21)*%
X109803300Y-93749700D02*
X107803300Y-93749700D01*
X114674800Y-88878200D02*
X109803300Y-93749700D01*
X107803300Y-93749700D02*
X103473000Y-98080000D01*
X115644400Y-87056400D02*
X114674800Y-88026000D01*
X114674800Y-88026000D02*
X114674800Y-88878200D01*
X118602900Y-85786400D02*
X117332900Y-87056400D01*
X101671900Y-98080000D02*
X99421900Y-100330000D01*
X103473000Y-98080000D02*
X101671900Y-98080000D01*
X117332900Y-87056400D02*
X115644400Y-87056400D01*
%TO.N,Net-(J1-Pin_22)*%
X111161400Y-101636200D02*
X111161400Y-95767900D01*
X106228200Y-109390200D02*
X106228200Y-106569400D01*
X111161400Y-95767900D02*
X118602900Y-88326400D01*
X104686000Y-110932400D02*
X106228200Y-109390200D01*
X106228200Y-106569400D02*
X111161400Y-101636200D01*
%TO.N,Net-(J1-Pin_23)*%
X116191100Y-103190700D02*
X111110000Y-108271800D01*
X111110000Y-119695000D02*
X109342200Y-121462800D01*
X122296000Y-88820600D02*
X116191100Y-94925500D01*
X121142900Y-85786400D02*
X122296000Y-86939500D01*
X116191100Y-94925500D02*
X116191100Y-103190700D01*
X122296000Y-86939500D02*
X122296000Y-88820600D01*
X111110000Y-108271800D02*
X111110000Y-119695000D01*
%TO.N,Net-(J1-Pin_24)*%
X112506900Y-124064200D02*
X108569900Y-124064200D01*
X104554300Y-132080000D02*
X98054300Y-132080000D01*
X115775100Y-93694200D02*
X115775100Y-100806000D01*
X106026400Y-130607900D02*
X104554300Y-132080000D01*
X115775100Y-100806000D02*
X106026400Y-110554700D01*
X101610300Y-125258000D02*
X101610300Y-130592000D01*
X155142900Y-129195000D02*
X153527900Y-127580000D01*
X101610300Y-130592000D02*
X101280100Y-130922200D01*
X121142900Y-88326400D02*
X115775100Y-93694200D01*
X157845900Y-129195000D02*
X155142900Y-129195000D01*
X106026400Y-110554700D02*
X106026400Y-130607900D01*
X108569900Y-124064200D02*
X107579300Y-125054800D01*
%TD*%
M02*
