M48
; DRILL file {KiCad 7.0.1} date Mon Sep 25 23:55:46 2023
; FORMAT={-:-/ absolute / inch / decimal}
; #@! TF.CreationDate,2023-09-25T23:55:46+03:00
; #@! TF.GenerationSoftware,Kicad,Pcbnew,7.0.1
; #@! TF.FileFunction,Plated,1,2,PTH
FMAT,2
INCH
; #@! TA.AperFunction,Plated,PTH,ViaDrill
T1C0.0157
; #@! TA.AperFunction,Plated,PTH,ComponentDrill
T2C0.0394
; #@! TA.AperFunction,Plated,PTH,ComponentDrill
T3C0.0433
%
G90
G05
T1
X3.4588Y-3.2414
X3.7119Y-3.603
X3.8223Y-3.9829
X3.9874Y-5.1544
X4.0004Y-4.9314
X4.2354Y-4.9234
X4.4294Y-4.8844
X5.526Y-3.8816
X5.6624Y-4.4404
X6.1834Y-5.1634
X6.2144Y-5.0864
X6.2224Y-4.7454
X6.2714Y-4.9184
T2
X3.6694Y-3.3774
X3.6694Y-3.4774
X3.7694Y-3.3774
X3.7694Y-3.4774
X3.8694Y-3.3774
X3.8694Y-3.4774
X3.9694Y-3.3774
X3.9694Y-3.4774
X4.0694Y-3.3774
X4.0694Y-3.4774
X4.1694Y-3.3774
X4.1694Y-3.4774
X4.2694Y-3.3774
X4.2694Y-3.4774
X4.3694Y-3.3774
X4.3694Y-3.4774
X4.4694Y-3.3774
X4.4694Y-3.4774
X4.5694Y-3.3774
X4.5694Y-3.4774
X4.6694Y-3.3774
X4.6694Y-3.4774
X4.7694Y-3.3774
X4.7694Y-3.4774
T3
X1.6605Y-5.4558
X1.6605Y-5.633
X1.6774Y-4.6048
X1.6774Y-4.782
X1.6825Y-4.1903
X1.6825Y-4.3674
X1.8795Y-5.0223
X1.8795Y-5.1994
X1.9164Y-5.4558
X1.9164Y-5.633
X1.9333Y-4.6048
X1.9333Y-4.782
X1.9384Y-4.1903
X1.9384Y-4.3674
X2.0615Y-3.7728
X2.0615Y-3.95
X2.07Y-5.4558
X2.07Y-5.633
X2.0735Y-4.6048
X2.0735Y-4.782
X2.1354Y-5.0223
X2.1354Y-5.1994
X2.2743Y-4.1903
X2.2743Y-4.3674
X2.2815Y-5.0218
X2.2815Y-5.199
X2.3174Y-3.7728
X2.3174Y-3.95
X2.3259Y-5.4558
X2.3259Y-5.633
X2.3294Y-4.6048
X2.3294Y-4.782
X2.4607Y-3.7728
X2.4607Y-3.95
X2.4625Y-3.3544
X2.4625Y-3.5316
X2.4685Y-4.6048
X2.4685Y-4.782
X2.4795Y-5.4558
X2.4795Y-5.633
X2.5302Y-4.1903
X2.5302Y-4.3674
X2.5374Y-5.0218
X2.5374Y-5.199
X2.6721Y-4.1903
X2.6721Y-4.3674
X2.6748Y-5.0228
X2.6748Y-5.2
X2.7166Y-3.7728
X2.7166Y-3.95
X2.7184Y-3.3544
X2.7184Y-3.5316
X2.7244Y-4.6048
X2.7244Y-4.782
X2.7354Y-5.4558
X2.7354Y-5.633
X2.8599Y-3.7728
X2.8599Y-3.95
X2.8636Y-4.6048
X2.8636Y-4.782
X2.8645Y-3.3544
X2.8645Y-3.5316
X2.889Y-5.4558
X2.889Y-5.633
X2.928Y-4.1903
X2.928Y-4.3674
X2.9307Y-5.0228
X2.9307Y-5.2
X3.07Y-4.1903
X3.07Y-4.3674
X3.07Y-5.0228
X3.07Y-5.2
X3.1158Y-3.7728
X3.1158Y-3.95
X3.1195Y-4.6048
X3.1195Y-4.782
X3.1204Y-3.3544
X3.1204Y-3.5316
X3.1449Y-5.4558
X3.1449Y-5.633
X3.2587Y-4.6048
X3.2587Y-4.782
X3.2591Y-3.7728
X3.2591Y-3.95
X3.2985Y-5.4558
X3.2985Y-5.633
X3.3259Y-4.1903
X3.3259Y-4.3674
X3.3259Y-5.0228
X3.3259Y-5.2
X3.4652Y-5.0228
X3.4652Y-5.2
X3.4678Y-4.1903
X3.4678Y-4.3674
X3.5146Y-4.6048
X3.5146Y-4.782
X3.515Y-3.7728
X3.515Y-3.95
X3.5544Y-5.4558
X3.5544Y-5.633
X3.6538Y-4.6048
X3.6538Y-4.782
X3.6583Y-3.7728
X3.6583Y-3.95
X3.7211Y-5.0228
X3.7211Y-5.2
X3.7237Y-4.1903
X3.7237Y-4.3674
X3.8525Y-5.4558
X3.8525Y-5.633
X3.8604Y-5.0228
X3.8604Y-5.2
X3.8656Y-4.1903
X3.8656Y-4.3674
X3.9097Y-4.6048
X3.9097Y-4.782
X3.9142Y-3.7728
X3.9142Y-3.95
X4.0489Y-4.6048
X4.0489Y-4.782
X4.0576Y-3.7728
X4.0576Y-3.95
X4.1084Y-5.4558
X4.1084Y-5.633
X4.1163Y-5.0228
X4.1163Y-5.2
X4.1215Y-4.1903
X4.1215Y-4.3674
X4.2556Y-5.0228
X4.2556Y-5.2
X4.2634Y-4.1903
X4.2634Y-4.3674
X4.2685Y-5.4558
X4.2685Y-5.633
X4.3048Y-4.6048
X4.3048Y-4.782
X4.3135Y-3.7728
X4.3135Y-3.95
X4.444Y-4.6048
X4.444Y-4.782
X4.4568Y-3.7728
X4.4568Y-3.95
X4.5115Y-5.0228
X4.5115Y-5.2
X4.5193Y-4.1903
X4.5193Y-4.3674
X4.5244Y-5.4558
X4.5244Y-5.633
X4.6508Y-5.0228
X4.6508Y-5.2
X4.6612Y-4.1903
X4.6612Y-4.3674
X4.6999Y-4.6048
X4.6999Y-4.782
X4.7127Y-3.7728
X4.7127Y-3.95
X4.8305Y-5.4558
X4.8305Y-5.633
X4.8391Y-4.6048
X4.8391Y-4.782
X4.856Y-3.7728
X4.856Y-3.95
X4.9067Y-5.0228
X4.9067Y-5.2
X4.9171Y-4.1903
X4.9171Y-4.3674
X5.046Y-5.0228
X5.046Y-5.2
X5.059Y-4.1903
X5.059Y-4.3674
X5.0864Y-5.4558
X5.0864Y-5.633
X5.095Y-4.6048
X5.095Y-4.782
X5.1119Y-3.7728
X5.1119Y-3.95
X5.2323Y-5.4558
X5.2323Y-5.633
X5.2342Y-4.6048
X5.2342Y-4.782
X5.2552Y-3.7728
X5.2552Y-3.95
X5.3019Y-5.0228
X5.3019Y-5.2
X5.3149Y-4.1903
X5.3149Y-4.3674
X5.4412Y-5.0228
X5.4412Y-5.2
X5.4569Y-4.1903
X5.4569Y-4.3674
X5.4882Y-5.4558
X5.4882Y-5.633
X5.4901Y-4.6048
X5.4901Y-4.782
X5.5111Y-3.7728
X5.5111Y-3.95
X5.6293Y-4.6048
X5.6293Y-4.782
X5.634Y-5.4558
X5.634Y-5.633
X5.6545Y-3.7728
X5.6545Y-3.95
X5.6971Y-5.0228
X5.6971Y-5.2
X5.7128Y-4.1903
X5.7128Y-4.3674
X5.8547Y-4.1903
X5.8547Y-4.3674
X5.8852Y-4.6048
X5.8852Y-4.782
X5.8899Y-5.4558
X5.8899Y-5.633
X5.9104Y-3.7728
X5.9104Y-3.95
X6.0358Y-5.4558
X6.0358Y-5.633
X6.0444Y-5.0228
X6.0444Y-5.2
X6.1106Y-4.1903
X6.1106Y-4.3674
X6.2525Y-4.1903
X6.2525Y-4.3674
X6.2917Y-5.4558
X6.2917Y-5.633
X6.3003Y-5.0228
X6.3003Y-5.2
X6.4325Y-3.776
X6.4325Y-3.9532
X6.4325Y-4.6048
X6.4325Y-4.782
X6.4375Y-5.4558
X6.4375Y-5.633
X6.5084Y-4.1903
X6.5084Y-4.3674
X6.6884Y-3.776
X6.6884Y-3.9532
X6.6884Y-4.6048
X6.6884Y-4.782
X6.6934Y-5.4558
X6.6934Y-5.633
T0
M30
