%TF.GenerationSoftware,KiCad,Pcbnew,7.0.1*%
%TF.CreationDate,2023-09-25T23:55:44+03:00*%
%TF.ProjectId,keyboard_test,6b657962-6f61-4726-945f-746573742e6b,rev?*%
%TF.SameCoordinates,Original*%
%TF.FileFunction,Copper,L1,Top*%
%TF.FilePolarity,Positive*%
%FSLAX46Y46*%
G04 Gerber Fmt 4.6, Leading zero omitted, Abs format (unit mm)*
G04 Created by KiCad (PCBNEW 7.0.1) date 2023-09-25 23:55:44*
%MOMM*%
%LPD*%
G01*
G04 APERTURE LIST*
G04 Aperture macros list*
%AMRoundRect*
0 Rectangle with rounded corners*
0 $1 Rounding radius*
0 $2 $3 $4 $5 $6 $7 $8 $9 X,Y pos of 4 corners*
0 Add a 4 corners polygon primitive as box body*
4,1,4,$2,$3,$4,$5,$6,$7,$8,$9,$2,$3,0*
0 Add four circle primitives for the rounded corners*
1,1,$1+$1,$2,$3*
1,1,$1+$1,$4,$5*
1,1,$1+$1,$6,$7*
1,1,$1+$1,$8,$9*
0 Add four rect primitives between the rounded corners*
20,1,$1+$1,$2,$3,$4,$5,0*
20,1,$1+$1,$4,$5,$6,$7,0*
20,1,$1+$1,$6,$7,$8,$9,0*
20,1,$1+$1,$8,$9,$2,$3,0*%
G04 Aperture macros list end*
%TA.AperFunction,ComponentPad*%
%ADD10C,2.000000*%
%TD*%
%TA.AperFunction,ComponentPad*%
%ADD11RoundRect,0.250000X-0.600000X0.600000X-0.600000X-0.600000X0.600000X-0.600000X0.600000X0.600000X0*%
%TD*%
%TA.AperFunction,ComponentPad*%
%ADD12C,1.700000*%
%TD*%
%TA.AperFunction,ViaPad*%
%ADD13C,0.800000*%
%TD*%
%TA.AperFunction,Conductor*%
%ADD14C,0.200000*%
%TD*%
G04 APERTURE END LIST*
D10*
%TO.P,SW21,1,1*%
%TO.N,Net-(J1-Pin_4)*%
X118395200Y-106432400D03*
X124895200Y-106432400D03*
%TO.P,SW21,2,2*%
%TO.N,Net-(J1-Pin_17)*%
X118395200Y-110932400D03*
X124895200Y-110932400D03*
%TD*%
%TO.P,SW59,1,1*%
%TO.N,Net-(J1-Pin_6)*%
X153308100Y-138577000D03*
X159808100Y-138577000D03*
%TO.P,SW59,2,2*%
%TO.N,Net-(J1-Pin_13)*%
X153308100Y-143077000D03*
X159808100Y-143077000D03*
%TD*%
%TO.P,SW33,1,1*%
%TO.N,Net-(J1-Pin_3)*%
X112877600Y-116962800D03*
X119377600Y-116962800D03*
%TO.P,SW33,2,2*%
%TO.N,Net-(J1-Pin_15)*%
X112877600Y-121462800D03*
X119377600Y-121462800D03*
%TD*%
%TO.P,SW60,1,1*%
%TO.N,Net-(J1-Pin_1)*%
X163512500Y-138577000D03*
X170012500Y-138577000D03*
%TO.P,SW60,2,2*%
%TO.N,Net-(J1-Pin_2)*%
X163512500Y-143077000D03*
X170012500Y-143077000D03*
%TD*%
%TO.P,SW2,1,1*%
%TO.N,Net-(J1-Pin_9)*%
X72758300Y-85202200D03*
X79258300Y-85202200D03*
%TO.P,SW2,2,2*%
%TO.N,Net-(J1-Pin_20)*%
X72758300Y-89702200D03*
X79258300Y-89702200D03*
%TD*%
%TO.P,SW23,1,1*%
%TO.N,Net-(J1-Pin_6)*%
X138604300Y-106432400D03*
X145104300Y-106432400D03*
%TO.P,SW23,2,2*%
%TO.N,Net-(J1-Pin_17)*%
X138604300Y-110932400D03*
X145104300Y-110932400D03*
%TD*%
%TO.P,SW25,1,1*%
%TO.N,Net-(J1-Pin_11)*%
X158813500Y-106432400D03*
X165313500Y-106432400D03*
%TO.P,SW25,2,2*%
%TO.N,Net-(J1-Pin_18)*%
X158813500Y-110932400D03*
X165313500Y-110932400D03*
%TD*%
%TO.P,SW46,1,1*%
%TO.N,Net-(J1-Pin_5)*%
X128168500Y-127580000D03*
X134668500Y-127580000D03*
%TO.P,SW46,2,2*%
%TO.N,Net-(J1-Pin_13)*%
X128168500Y-132080000D03*
X134668500Y-132080000D03*
%TD*%
%TO.P,SW29,1,1*%
%TO.N,Net-(J1-Pin_6)*%
X72736300Y-116962800D03*
X79236300Y-116962800D03*
%TO.P,SW29,2,2*%
%TO.N,Net-(J1-Pin_23)*%
X72736300Y-121462800D03*
X79236300Y-121462800D03*
%TD*%
%TO.P,SW32,1,1*%
%TO.N,Net-(J1-Pin_3)*%
X102842200Y-116962800D03*
X109342200Y-116962800D03*
%TO.P,SW32,2,2*%
%TO.N,Net-(J1-Pin_23)*%
X102842200Y-121462800D03*
X109342200Y-121462800D03*
%TD*%
%TO.P,SW17,1,1*%
%TO.N,Net-(J1-Pin_5)*%
X77976800Y-106432400D03*
X84476800Y-106432400D03*
%TO.P,SW17,2,2*%
%TO.N,Net-(J1-Pin_22)*%
X77976800Y-110932400D03*
X84476800Y-110932400D03*
%TD*%
%TO.P,SW49,1,1*%
%TO.N,Net-(J1-Pin_13)*%
X42175500Y-138577000D03*
X48675500Y-138577000D03*
%TO.P,SW49,2,2*%
%TO.N,Net-(J1-Pin_6)*%
X42175500Y-143077000D03*
X48675500Y-143077000D03*
%TD*%
%TO.P,SW37,1,1*%
%TO.N,Net-(J1-Pin_7)*%
X163385500Y-116962800D03*
X169885500Y-116962800D03*
%TO.P,SW37,2,2*%
%TO.N,Net-(J1-Pin_15)*%
X163385500Y-121462800D03*
X169885500Y-121462800D03*
%TD*%
%TO.P,SW13,1,1*%
%TO.N,Net-(J1-Pin_14)*%
X163385500Y-95910400D03*
X169885500Y-95910400D03*
%TO.P,SW13,2,2*%
%TO.N,Net-(J1-Pin_12)*%
X163385500Y-100410400D03*
X169885500Y-100410400D03*
%TD*%
%TO.P,SW39,1,1*%
%TO.N,Net-(J1-Pin_11)*%
X57948900Y-127554600D03*
X64448900Y-127554600D03*
%TO.P,SW39,2,2*%
%TO.N,Net-(J1-Pin_20)*%
X57948900Y-132054600D03*
X64448900Y-132054600D03*
%TD*%
%TO.P,SW19,1,1*%
%TO.N,Net-(J1-Pin_3)*%
X98186000Y-106432400D03*
X104686000Y-106432400D03*
%TO.P,SW19,2,2*%
%TO.N,Net-(J1-Pin_22)*%
X98186000Y-110932400D03*
X104686000Y-110932400D03*
%TD*%
%TO.P,SW28,1,1*%
%TO.N,Net-(J1-Pin_7)*%
X62701000Y-116962800D03*
X69201000Y-116962800D03*
%TO.P,SW28,2,2*%
%TO.N,Net-(J1-Pin_23)*%
X62701000Y-121462800D03*
X69201000Y-121462800D03*
%TD*%
%TO.P,SW24,1,1*%
%TO.N,Net-(J1-Pin_7)*%
X148708900Y-106432400D03*
X155208900Y-106432400D03*
%TO.P,SW24,2,2*%
%TO.N,Net-(J1-Pin_17)*%
X148708900Y-110932400D03*
X155208900Y-110932400D03*
%TD*%
%TO.P,SW9,1,1*%
%TO.N,Net-(J1-Pin_4)*%
X113202400Y-95830000D03*
X119702400Y-95830000D03*
%TO.P,SW9,2,2*%
%TO.N,Net-(J1-Pin_19)*%
X113202400Y-100330000D03*
X119702400Y-100330000D03*
%TD*%
%TO.P,SW34,1,1*%
%TO.N,Net-(J1-Pin_4)*%
X122912900Y-116962800D03*
X129412900Y-116962800D03*
%TO.P,SW34,2,2*%
%TO.N,Net-(J1-Pin_15)*%
X122912900Y-121462800D03*
X129412900Y-121462800D03*
%TD*%
%TO.P,SW6,1,1*%
%TO.N,Net-(J1-Pin_4)*%
X82781600Y-95830000D03*
X89281600Y-95830000D03*
%TO.P,SW6,2,2*%
%TO.N,Net-(J1-Pin_21)*%
X82781600Y-100330000D03*
X89281600Y-100330000D03*
%TD*%
%TO.P,SW12,1,1*%
%TO.N,Net-(J1-Pin_7)*%
X143623100Y-95830000D03*
X150123100Y-95830000D03*
%TO.P,SW12,2,2*%
%TO.N,Net-(J1-Pin_19)*%
X143623100Y-100330000D03*
X150123100Y-100330000D03*
%TD*%
%TO.P,SW22,1,1*%
%TO.N,Net-(J1-Pin_5)*%
X128499700Y-106432400D03*
X134999700Y-106432400D03*
%TO.P,SW22,2,2*%
%TO.N,Net-(J1-Pin_17)*%
X128499700Y-110932400D03*
X134999700Y-110932400D03*
%TD*%
%TO.P,SW45,1,1*%
%TO.N,Net-(J1-Pin_4)*%
X118130500Y-127580000D03*
X124630500Y-127580000D03*
%TO.P,SW45,2,2*%
%TO.N,Net-(J1-Pin_13)*%
X118130500Y-132080000D03*
X124630500Y-132080000D03*
%TD*%
%TO.P,SW57,1,1*%
%TO.N,Net-(J1-Pin_18)*%
X132899200Y-138577000D03*
X139399200Y-138577000D03*
%TO.P,SW57,2,2*%
%TO.N,Net-(J1-Pin_8)*%
X132899200Y-143077000D03*
X139399200Y-143077000D03*
%TD*%
%TO.P,SW58,1,1*%
%TO.N,Net-(J1-Pin_9)*%
X143103600Y-138577000D03*
X149603600Y-138577000D03*
%TO.P,SW58,2,2*%
%TO.N,Net-(J1-Pin_13)*%
X143103600Y-143077000D03*
X149603600Y-143077000D03*
%TD*%
%TO.P,SW41,1,1*%
%TO.N,Net-(J1-Pin_5)*%
X77978100Y-127580000D03*
X84478100Y-127580000D03*
%TO.P,SW41,2,2*%
%TO.N,Net-(J1-Pin_24)*%
X77978100Y-132080000D03*
X84478100Y-132080000D03*
%TD*%
%TO.P,SW51,1,1*%
%TO.N,Net-(J1-Pin_8)*%
X62978100Y-138577000D03*
X69478100Y-138577000D03*
%TO.P,SW51,2,2*%
%TO.N,Net-(J1-Pin_16)*%
X62978100Y-143077000D03*
X69478100Y-143077000D03*
%TD*%
%TO.P,SW36,1,1*%
%TO.N,Net-(J1-Pin_6)*%
X142983481Y-116962800D03*
X149483481Y-116962800D03*
%TO.P,SW36,2,2*%
%TO.N,Net-(J1-Pin_15)*%
X142983481Y-121462800D03*
X149483481Y-121462800D03*
%TD*%
%TO.P,SW48,1,1*%
%TO.N,Net-(J1-Pin_24)*%
X153527900Y-127580000D03*
X160027900Y-127580000D03*
%TO.P,SW48,2,2*%
%TO.N,Net-(J1-Pin_7)*%
X153527900Y-132080000D03*
X160027900Y-132080000D03*
%TD*%
%TO.P,SW10,1,1*%
%TO.N,Net-(J1-Pin_5)*%
X123342600Y-95830000D03*
X129842600Y-95830000D03*
%TO.P,SW10,2,2*%
%TO.N,Net-(J1-Pin_19)*%
X123342600Y-100330000D03*
X129842600Y-100330000D03*
%TD*%
%TO.P,SW4,1,1*%
%TO.N,Net-(J1-Pin_6)*%
X62501100Y-95830000D03*
X69001100Y-95830000D03*
%TO.P,SW4,2,2*%
%TO.N,Net-(J1-Pin_21)*%
X62501100Y-100330000D03*
X69001100Y-100330000D03*
%TD*%
%TO.P,SW31,1,1*%
%TO.N,Net-(J1-Pin_4)*%
X92806900Y-116962800D03*
X99306900Y-116962800D03*
%TO.P,SW31,2,2*%
%TO.N,Net-(J1-Pin_23)*%
X92806900Y-121462800D03*
X99306900Y-121462800D03*
%TD*%
%TO.P,SW5,1,1*%
%TO.N,Net-(J1-Pin_5)*%
X72641400Y-95830000D03*
X79141400Y-95830000D03*
%TO.P,SW5,2,2*%
%TO.N,Net-(J1-Pin_21)*%
X72641400Y-100330000D03*
X79141400Y-100330000D03*
%TD*%
%TO.P,SW1,1,1*%
%TO.N,Net-(J1-Pin_10)*%
X62547500Y-85202200D03*
X69047500Y-85202200D03*
%TO.P,SW1,2,2*%
%TO.N,Net-(J1-Pin_20)*%
X62547500Y-89702200D03*
X69047500Y-89702200D03*
%TD*%
%TO.P,SW7,1,1*%
%TO.N,Net-(J1-Pin_3)*%
X92921900Y-95830000D03*
X99421900Y-95830000D03*
%TO.P,SW7,2,2*%
%TO.N,Net-(J1-Pin_21)*%
X92921900Y-100330000D03*
X99421900Y-100330000D03*
%TD*%
%TO.P,SW53,1,1*%
%TO.N,Net-(J1-Pin_18)*%
X83780700Y-138577000D03*
X90280700Y-138577000D03*
%TO.P,SW53,2,2*%
%TO.N,Net-(J1-Pin_10)*%
X83780700Y-143077000D03*
X90280700Y-143077000D03*
%TD*%
%TO.P,SW56,1,1*%
%TO.N,Net-(J1-Pin_18)*%
X122694700Y-138577000D03*
X129194700Y-138577000D03*
%TO.P,SW56,2,2*%
%TO.N,Net-(J1-Pin_9)*%
X122694700Y-143077000D03*
X129194700Y-143077000D03*
%TD*%
%TO.P,SW16,1,1*%
%TO.N,Net-(J1-Pin_6)*%
X67872300Y-106432400D03*
X74372300Y-106432400D03*
%TO.P,SW16,2,2*%
%TO.N,Net-(J1-Pin_22)*%
X67872300Y-110932400D03*
X74372300Y-110932400D03*
%TD*%
%TO.P,SW40,1,1*%
%TO.N,Net-(J1-Pin_6)*%
X67940100Y-127580000D03*
X74440100Y-127580000D03*
%TO.P,SW40,2,2*%
%TO.N,Net-(J1-Pin_24)*%
X67940100Y-132080000D03*
X74440100Y-132080000D03*
%TD*%
%TO.P,SW18,1,1*%
%TO.N,Net-(J1-Pin_4)*%
X88081400Y-106432400D03*
X94581400Y-106432400D03*
%TO.P,SW18,2,2*%
%TO.N,Net-(J1-Pin_22)*%
X88081400Y-110932400D03*
X94581400Y-110932400D03*
%TD*%
%TO.P,SW42,1,1*%
%TO.N,Net-(J1-Pin_4)*%
X88016200Y-127580000D03*
X94516200Y-127580000D03*
%TO.P,SW42,2,2*%
%TO.N,Net-(J1-Pin_24)*%
X88016200Y-132080000D03*
X94516200Y-132080000D03*
%TD*%
%TO.P,SW54,1,1*%
%TO.N,Net-(J1-Pin_7)*%
X97852300Y-138577000D03*
X104352300Y-138577000D03*
%TO.P,SW54,2,2*%
%TO.N,Net-(J1-Pin_13)*%
X97852300Y-143077000D03*
X104352300Y-143077000D03*
%TD*%
%TO.P,SW52,1,1*%
%TO.N,Net-(J1-Pin_8)*%
X73379400Y-138577000D03*
X79879400Y-138577000D03*
%TO.P,SW52,2,2*%
%TO.N,Net-(J1-Pin_20)*%
X73379400Y-143077000D03*
X79879400Y-143077000D03*
%TD*%
%TO.P,SW43,1,1*%
%TO.N,Net-(J1-Pin_3)*%
X98054300Y-127580000D03*
X104554300Y-127580000D03*
%TO.P,SW43,2,2*%
%TO.N,Net-(J1-Pin_24)*%
X98054300Y-132080000D03*
X104554300Y-132080000D03*
%TD*%
%TO.P,SW27,1,1*%
%TO.N,Net-(J1-Pin_20)*%
X52665700Y-116962800D03*
X59165700Y-116962800D03*
%TO.P,SW27,2,2*%
%TO.N,Net-(J1-Pin_12)*%
X52665700Y-121462800D03*
X59165700Y-121462800D03*
%TD*%
%TO.P,SW26,1,1*%
%TO.N,Net-(J1-Pin_11)*%
X42604900Y-116962800D03*
X49104900Y-116962800D03*
%TO.P,SW26,2,2*%
%TO.N,Net-(J1-Pin_14)*%
X42604900Y-121462800D03*
X49104900Y-121462800D03*
%TD*%
%TO.P,SW44,1,1*%
%TO.N,Net-(J1-Pin_3)*%
X108092400Y-127580000D03*
X114592400Y-127580000D03*
%TO.P,SW44,2,2*%
%TO.N,Net-(J1-Pin_13)*%
X108092400Y-132080000D03*
X114592400Y-132080000D03*
%TD*%
%TO.P,SW47,1,1*%
%TO.N,Net-(J1-Pin_10)*%
X138206600Y-127580000D03*
X144706600Y-127580000D03*
%TO.P,SW47,2,2*%
%TO.N,Net-(J1-Pin_13)*%
X138206600Y-132080000D03*
X144706600Y-132080000D03*
%TD*%
%TO.P,SW15,1,1*%
%TO.N,Net-(J1-Pin_7)*%
X57767700Y-106432400D03*
X64267700Y-106432400D03*
%TO.P,SW15,2,2*%
%TO.N,Net-(J1-Pin_22)*%
X57767700Y-110932400D03*
X64267700Y-110932400D03*
%TD*%
%TO.P,SW35,1,1*%
%TO.N,Net-(J1-Pin_5)*%
X132948200Y-116962800D03*
X139448200Y-116962800D03*
%TO.P,SW35,2,2*%
%TO.N,Net-(J1-Pin_15)*%
X132948200Y-121462800D03*
X139448200Y-121462800D03*
%TD*%
%TO.P,SW55,1,1*%
%TO.N,Net-(J1-Pin_7)*%
X108418700Y-138577000D03*
X114918700Y-138577000D03*
%TO.P,SW55,2,2*%
%TO.N,Net-(J1-Pin_13)*%
X108418700Y-143077000D03*
X114918700Y-143077000D03*
%TD*%
%TO.P,SW3,1,1*%
%TO.N,Net-(J1-Pin_7)*%
X52360900Y-95830000D03*
X58860900Y-95830000D03*
%TO.P,SW3,2,2*%
%TO.N,Net-(J1-Pin_21)*%
X52360900Y-100330000D03*
X58860900Y-100330000D03*
%TD*%
%TO.P,SW11,1,1*%
%TO.N,Net-(J1-Pin_6)*%
X133482900Y-95830000D03*
X139982900Y-95830000D03*
%TO.P,SW11,2,2*%
%TO.N,Net-(J1-Pin_19)*%
X133482900Y-100330000D03*
X139982900Y-100330000D03*
%TD*%
%TO.P,SW38,1,1*%
%TO.N,Net-(J1-Pin_7)*%
X47739300Y-127565200D03*
X54239300Y-127565200D03*
%TO.P,SW38,2,2*%
%TO.N,Net-(J1-Pin_24)*%
X47739300Y-132065200D03*
X54239300Y-132065200D03*
%TD*%
%TO.P,SW30,1,1*%
%TO.N,Net-(J1-Pin_5)*%
X82771600Y-116962800D03*
X89271600Y-116962800D03*
%TO.P,SW30,2,2*%
%TO.N,Net-(J1-Pin_23)*%
X82771600Y-121462800D03*
X89271600Y-121462800D03*
%TD*%
%TO.P,SW50,1,1*%
%TO.N,Net-(J1-Pin_11)*%
X52576800Y-138577000D03*
X59076800Y-138577000D03*
%TO.P,SW50,2,2*%
%TO.N,Net-(J1-Pin_16)*%
X52576800Y-143077000D03*
X59076800Y-143077000D03*
%TD*%
%TO.P,SW14,1,1*%
%TO.N,Net-(J1-Pin_18)*%
X42735500Y-106432400D03*
X49235500Y-106432400D03*
%TO.P,SW14,2,2*%
%TO.N,Net-(J1-Pin_12)*%
X42735500Y-110932400D03*
X49235500Y-110932400D03*
%TD*%
%TO.P,SW8,1,1*%
%TO.N,Net-(J1-Pin_3)*%
X103062100Y-95830000D03*
X109562100Y-95830000D03*
%TO.P,SW8,2,2*%
%TO.N,Net-(J1-Pin_19)*%
X103062100Y-100330000D03*
X109562100Y-100330000D03*
%TD*%
%TO.P,SW20,1,1*%
%TO.N,Net-(J1-Pin_3)*%
X108290600Y-106432400D03*
X114790600Y-106432400D03*
%TO.P,SW20,2,2*%
%TO.N,Net-(J1-Pin_17)*%
X108290600Y-110932400D03*
X114790600Y-110932400D03*
%TD*%
D11*
%TO.P,J1,1,Pin_1*%
%TO.N,Net-(J1-Pin_1)*%
X93202900Y-85786400D03*
D12*
%TO.P,J1,2,Pin_2*%
%TO.N,Net-(J1-Pin_2)*%
X93202900Y-88326400D03*
%TO.P,J1,3,Pin_3*%
%TO.N,Net-(J1-Pin_3)*%
X95742900Y-85786400D03*
%TO.P,J1,4,Pin_4*%
%TO.N,Net-(J1-Pin_4)*%
X95742900Y-88326400D03*
%TO.P,J1,5,Pin_5*%
%TO.N,Net-(J1-Pin_5)*%
X98282900Y-85786400D03*
%TO.P,J1,6,Pin_6*%
%TO.N,Net-(J1-Pin_6)*%
X98282900Y-88326400D03*
%TO.P,J1,7,Pin_7*%
%TO.N,Net-(J1-Pin_7)*%
X100822900Y-85786400D03*
%TO.P,J1,8,Pin_8*%
%TO.N,Net-(J1-Pin_8)*%
X100822900Y-88326400D03*
%TO.P,J1,9,Pin_9*%
%TO.N,Net-(J1-Pin_9)*%
X103362900Y-85786400D03*
%TO.P,J1,10,Pin_10*%
%TO.N,Net-(J1-Pin_10)*%
X103362900Y-88326400D03*
%TO.P,J1,11,Pin_11*%
%TO.N,Net-(J1-Pin_11)*%
X105902900Y-85786400D03*
%TO.P,J1,12,Pin_12*%
%TO.N,Net-(J1-Pin_12)*%
X105902900Y-88326400D03*
%TO.P,J1,13,Pin_13*%
%TO.N,Net-(J1-Pin_13)*%
X108442900Y-85786400D03*
%TO.P,J1,14,Pin_14*%
%TO.N,Net-(J1-Pin_14)*%
X108442900Y-88326400D03*
%TO.P,J1,15,Pin_15*%
%TO.N,Net-(J1-Pin_15)*%
X110982900Y-85786400D03*
%TO.P,J1,16,Pin_16*%
%TO.N,Net-(J1-Pin_16)*%
X110982900Y-88326400D03*
%TO.P,J1,17,Pin_17*%
%TO.N,Net-(J1-Pin_17)*%
X113522900Y-85786400D03*
%TO.P,J1,18,Pin_18*%
%TO.N,Net-(J1-Pin_18)*%
X113522900Y-88326400D03*
%TO.P,J1,19,Pin_19*%
%TO.N,Net-(J1-Pin_19)*%
X116062900Y-85786400D03*
%TO.P,J1,20,Pin_20*%
%TO.N,Net-(J1-Pin_20)*%
X116062900Y-88326400D03*
%TO.P,J1,21,Pin_21*%
%TO.N,Net-(J1-Pin_21)*%
X118602900Y-85786400D03*
%TO.P,J1,22,Pin_22*%
%TO.N,Net-(J1-Pin_22)*%
X118602900Y-88326400D03*
%TO.P,J1,23,Pin_23*%
%TO.N,Net-(J1-Pin_23)*%
X121142900Y-85786400D03*
%TO.P,J1,24,Pin_24*%
%TO.N,Net-(J1-Pin_24)*%
X121142900Y-88326400D03*
%TD*%
D13*
%TO.N,Net-(J1-Pin_2)*%
X94281200Y-91516500D03*
X140361600Y-98593600D03*
%TO.N,Net-(J1-Pin_6)*%
X143825100Y-112786600D03*
%TO.N,Net-(J1-Pin_7)*%
X157058500Y-131150800D03*
X158049100Y-120533600D03*
X159293700Y-124927800D03*
%TO.N,Net-(J1-Pin_14)*%
X97086100Y-101164400D03*
%TO.N,Net-(J1-Pin_20)*%
X87852400Y-82332800D03*
%TO.N,Net-(J1-Pin_24)*%
X157845900Y-129195000D03*
X112506900Y-124064200D03*
X101610300Y-125258000D03*
X107579300Y-125054800D03*
X101280100Y-130922200D03*
%TD*%
D14*
%TO.N,Net-(J1-Pin_1)*%
X170012500Y-138577000D02*
X163512500Y-138577000D01*
%TO.N,Net-(J1-Pin_2)*%
X170012500Y-143077000D02*
X163512500Y-143077000D01*
X94281200Y-91516500D02*
X96889200Y-94124500D01*
X96889200Y-94124500D02*
X130013900Y-94124500D01*
X131887000Y-96139200D02*
X134341400Y-98593600D01*
X131887000Y-95997600D02*
X131887000Y-96139200D01*
X130013900Y-94124500D02*
X131887000Y-95997600D01*
X134341400Y-98593600D02*
X140361600Y-98593600D01*
%TO.N,Net-(J1-Pin_3)*%
X99421900Y-95830000D02*
X92921900Y-95830000D01*
X112877600Y-116962800D02*
X111109900Y-116962800D01*
X102842200Y-116962800D02*
X109342200Y-116962800D01*
X108290600Y-106432400D02*
X104686000Y-106432400D01*
X108092400Y-127580000D02*
X104554300Y-127580000D01*
X111109900Y-116962800D02*
X109342200Y-116962800D01*
X111109900Y-127580000D02*
X108092400Y-127580000D01*
X111109900Y-127580000D02*
X111109900Y-116962800D01*
X114592400Y-127580000D02*
X111109900Y-127580000D01*
X114790600Y-106432400D02*
X108290600Y-106432400D01*
X104686000Y-106432400D02*
X98186000Y-106432400D01*
X103062100Y-95830000D02*
X99421900Y-95830000D01*
X119377600Y-116962800D02*
X112877600Y-116962800D01*
X109562100Y-95830000D02*
X103062100Y-95830000D01*
X104554300Y-127580000D02*
X98054300Y-127580000D01*
%TO.N,Net-(J1-Pin_4)*%
X129412900Y-116962800D02*
X123576400Y-116962800D01*
X106488400Y-110838800D02*
X108644800Y-108682400D01*
X99306900Y-116962800D02*
X100536800Y-116962800D01*
X119702400Y-95830000D02*
X113202400Y-95830000D01*
X94581400Y-106432400D02*
X88081400Y-106432400D01*
X100536800Y-116962800D02*
X106488400Y-111011200D01*
X124630500Y-127580000D02*
X118130500Y-127580000D01*
X123576400Y-106432400D02*
X124895200Y-106432400D01*
X116145200Y-108682400D02*
X118395200Y-106432400D01*
X123576400Y-116962800D02*
X122912900Y-116962800D01*
X94516200Y-127580000D02*
X88016200Y-127580000D01*
X106488400Y-111011200D02*
X106488400Y-110838800D01*
X108644800Y-108682400D02*
X116145200Y-108682400D01*
X118395200Y-106432400D02*
X123576400Y-106432400D01*
X123576400Y-116962800D02*
X123576400Y-106432400D01*
%TO.N,Net-(J1-Pin_5)*%
X72641400Y-95830000D02*
X79141400Y-95830000D01*
X84478100Y-127580000D02*
X77978100Y-127580000D01*
X84476800Y-106432400D02*
X85847900Y-105061300D01*
X121092600Y-98080000D02*
X123342600Y-95830000D01*
X129842600Y-95830000D02*
X123342600Y-95830000D01*
X96567400Y-105061300D02*
X101701700Y-99927000D01*
X101701700Y-99814800D02*
X103436500Y-98080000D01*
X103436500Y-98080000D02*
X121092600Y-98080000D01*
X85847900Y-105061300D02*
X96567400Y-105061300D01*
X134999700Y-106432400D02*
X128499700Y-106432400D01*
X101701700Y-99927000D02*
X101701700Y-99814800D01*
X134668500Y-127580000D02*
X128168500Y-127580000D01*
%TO.N,Net-(J1-Pin_6)*%
X142983481Y-116962800D02*
X149483481Y-116962800D01*
X69001100Y-95830000D02*
X72287300Y-92543800D01*
X91238100Y-92543800D02*
X92967300Y-90814600D01*
X95794700Y-90814600D02*
X98282900Y-88326400D01*
X131372700Y-93719800D02*
X133482900Y-95830000D01*
X149483481Y-116962800D02*
X148001300Y-116962800D01*
X98282900Y-88326400D02*
X103676300Y-93719800D01*
X92967300Y-90814600D02*
X95794700Y-90814600D01*
X145104300Y-106432400D02*
X138604300Y-106432400D01*
X148001300Y-116962800D02*
X143825100Y-112786600D01*
X74440100Y-127580000D02*
X67940100Y-127580000D01*
X159808100Y-138577000D02*
X153308100Y-138577000D01*
X72287300Y-92543800D02*
X91238100Y-92543800D01*
X74372300Y-106432400D02*
X67872300Y-106432400D01*
X48675500Y-143077000D02*
X42175500Y-143077000D01*
X103676300Y-93719800D02*
X131372700Y-93719800D01*
%TO.N,Net-(J1-Pin_7)*%
X69201000Y-116962800D02*
X62701000Y-116962800D01*
X163385500Y-116962800D02*
X159814700Y-120533600D01*
X169885500Y-116962800D02*
X163385500Y-116962800D01*
X100386500Y-86222800D02*
X99464600Y-87144700D01*
X114918700Y-138577000D02*
X108418700Y-138577000D01*
X104352300Y-138577000D02*
X97852300Y-138577000D01*
X102092900Y-88753200D02*
X106575400Y-93235700D01*
X157058500Y-127163000D02*
X157058500Y-131150800D01*
X141026800Y-93235700D02*
X141793300Y-94002200D01*
X77403300Y-87144700D02*
X72606300Y-91941700D01*
X72606300Y-91941700D02*
X62749200Y-91941700D01*
X159814700Y-120533600D02*
X158049100Y-120533600D01*
X159293700Y-124927800D02*
X157058500Y-127163000D01*
X62749200Y-91941700D02*
X58860900Y-95830000D01*
X64267700Y-106432400D02*
X57767700Y-106432400D01*
X155208900Y-106432400D02*
X148708900Y-106432400D01*
X106575400Y-93235700D02*
X141026800Y-93235700D01*
X100386500Y-86222800D02*
X102092900Y-87929300D01*
X141795300Y-94002200D02*
X143623100Y-95830000D01*
X100822900Y-85786400D02*
X100386500Y-86222800D01*
X141793300Y-94002200D02*
X141795300Y-94002200D01*
X108418700Y-138577000D02*
X104352300Y-138577000D01*
X54239300Y-127565200D02*
X47739300Y-127565200D01*
X156129300Y-132080000D02*
X157058500Y-131150800D01*
X102092900Y-87929300D02*
X102092900Y-88753200D01*
X99464600Y-87144700D02*
X77403300Y-87144700D01*
X153527900Y-132080000D02*
X156129300Y-132080000D01*
%TO.N,Net-(J1-Pin_8)*%
X79879400Y-138577000D02*
X73379400Y-138577000D01*
X73379400Y-138577000D02*
X69478100Y-138577000D01*
X69478100Y-138577000D02*
X62978100Y-138577000D01*
X139399200Y-143077000D02*
X132899200Y-143077000D01*
%TO.N,Net-(J1-Pin_9)*%
X129194700Y-143077000D02*
X131444700Y-140827000D01*
X140853600Y-140827000D02*
X143103600Y-138577000D01*
X149603600Y-138577000D02*
X143103600Y-138577000D01*
X79258300Y-85202200D02*
X80260100Y-84200400D01*
X122694700Y-143077000D02*
X129194700Y-143077000D01*
X101776900Y-84200400D02*
X103362900Y-85786400D01*
X79258300Y-85202200D02*
X72758300Y-85202200D01*
X80260100Y-84200400D02*
X101776900Y-84200400D01*
X131444700Y-140827000D02*
X140853600Y-140827000D01*
%TO.N,Net-(J1-Pin_10)*%
X103362900Y-88326400D02*
X102110700Y-87074200D01*
X70383400Y-86538100D02*
X69047500Y-85202200D01*
X103527700Y-129830000D02*
X90280700Y-143077000D01*
X144706600Y-127580000D02*
X138206600Y-127580000D01*
X84229000Y-86538100D02*
X70383400Y-86538100D01*
X102110700Y-87074200D02*
X102110700Y-85385400D01*
X86160100Y-84607000D02*
X84229000Y-86538100D01*
X90280700Y-143077000D02*
X83780700Y-143077000D01*
X102110700Y-85385400D02*
X101332300Y-84607000D01*
X101332300Y-84607000D02*
X86160100Y-84607000D01*
X62547500Y-85202200D02*
X69047500Y-85202200D01*
X138206600Y-127580000D02*
X135956600Y-129830000D01*
X135956600Y-129830000D02*
X103527700Y-129830000D01*
%TO.N,Net-(J1-Pin_11)*%
X104712200Y-85786400D02*
X104712200Y-85488700D01*
X165313500Y-106432400D02*
X158813500Y-106432400D01*
X104712300Y-85786400D02*
X105902900Y-85786400D01*
X51036700Y-115031000D02*
X49104900Y-116962800D01*
X104712300Y-85786400D02*
X104712200Y-85786400D01*
X51036700Y-94793000D02*
X51036700Y-115031000D01*
X49104900Y-116962800D02*
X42604900Y-116962800D01*
X59076800Y-138577000D02*
X52576800Y-138577000D01*
X104712300Y-85786400D02*
X104712300Y-88829900D01*
X108383200Y-92500800D02*
X144881900Y-92500800D01*
X104712300Y-88829900D02*
X108383200Y-92500800D01*
X103014100Y-83790600D02*
X62039100Y-83790600D01*
X144881900Y-92500800D02*
X158813500Y-106432400D01*
X104712200Y-85488700D02*
X103014100Y-83790600D01*
X62039100Y-83790600D02*
X51036700Y-94793000D01*
%TO.N,Net-(J1-Pin_12)*%
X107093500Y-88326400D02*
X107093500Y-85344700D01*
X169885500Y-100410400D02*
X162929500Y-100410400D01*
X162929500Y-100410400D02*
X153801800Y-91282700D01*
X61872700Y-83388700D02*
X50634800Y-94626600D01*
X42735500Y-110932400D02*
X49235500Y-110932400D01*
X153801800Y-91282700D02*
X109732300Y-91282700D01*
X105137500Y-83388700D02*
X61872700Y-83388700D01*
X107093500Y-88643900D02*
X107093500Y-88326400D01*
X107093500Y-85344700D02*
X105137500Y-83388700D01*
X107093500Y-88326400D02*
X105902900Y-88326400D01*
X59165700Y-121462800D02*
X52665700Y-121462800D01*
X50634800Y-94626600D02*
X50634800Y-109533100D01*
X109732300Y-91282700D02*
X107093500Y-88643900D01*
X50634800Y-109533100D02*
X49235500Y-110932400D01*
%TO.N,Net-(J1-Pin_13)*%
X50076100Y-139977600D02*
X48675500Y-138577000D01*
X138206600Y-132080000D02*
X134668500Y-132080000D01*
X159808100Y-143077000D02*
X153308100Y-143077000D01*
X83532500Y-144714400D02*
X78795700Y-139977600D01*
X124630500Y-132080000D02*
X128168500Y-132080000D01*
X104352300Y-143077000D02*
X97852300Y-143077000D01*
X149603600Y-143077000D02*
X153308100Y-143077000D01*
X108092400Y-132080000D02*
X114592400Y-132080000D01*
X144706600Y-132080000D02*
X138206600Y-132080000D01*
X114592400Y-132080000D02*
X118130500Y-132080000D01*
X97852300Y-143077000D02*
X96214900Y-144714400D01*
X114918700Y-143077000D02*
X108418700Y-143077000D01*
X118130500Y-132080000D02*
X124630500Y-132080000D01*
X78795700Y-139977600D02*
X50076100Y-139977600D01*
X96214900Y-144714400D02*
X83532500Y-144714400D01*
X48675500Y-138577000D02*
X42175500Y-138577000D01*
%TO.N,Net-(J1-Pin_14)*%
X109717800Y-89601300D02*
X108442900Y-88326400D01*
X58110700Y-108682400D02*
X50493450Y-116299650D01*
X50493450Y-116299650D02*
X50493450Y-120074250D01*
X169885500Y-95910400D02*
X162929500Y-95910400D01*
X162929500Y-95910400D02*
X156620400Y-89601300D01*
X85372300Y-101697800D02*
X78387700Y-108682400D01*
X97086100Y-101164400D02*
X96552700Y-101697800D01*
X50493450Y-120074250D02*
X49104900Y-121462800D01*
X156620400Y-89601300D02*
X109717800Y-89601300D01*
X96552700Y-101697800D02*
X85372300Y-101697800D01*
X42604900Y-121462800D02*
X49104900Y-121462800D01*
X78387700Y-108682400D02*
X58110700Y-108682400D01*
%TO.N,Net-(J1-Pin_15)*%
X169885500Y-121462800D02*
X163385500Y-121462800D01*
X122912900Y-121462800D02*
X119377600Y-121462800D01*
X139448200Y-121462800D02*
X132948200Y-121462800D01*
X119377600Y-121462800D02*
X112877600Y-121462800D01*
X129412900Y-121462800D02*
X122912900Y-121462800D01*
X132948200Y-121462800D02*
X129412900Y-121462800D01*
X163385500Y-121462800D02*
X139448200Y-121462800D01*
%TO.N,Net-(J1-Pin_16)*%
X59076800Y-143077000D02*
X62978100Y-143077000D01*
X52576800Y-143077000D02*
X59076800Y-143077000D01*
X69478100Y-143077000D02*
X62978100Y-143077000D01*
%TO.N,Net-(J1-Pin_17)*%
X148708900Y-110932400D02*
X155208900Y-110932400D01*
X145104300Y-110932400D02*
X148708900Y-110932400D01*
X114790600Y-110932400D02*
X118395200Y-110932400D01*
X145104300Y-110932400D02*
X138604300Y-110932400D01*
X134999700Y-110932400D02*
X128499700Y-110932400D01*
X138604300Y-110932400D02*
X134999700Y-110932400D01*
X128499700Y-110932400D02*
X124895200Y-110932400D01*
X108290600Y-110932400D02*
X114790600Y-110932400D01*
%TO.N,Net-(J1-Pin_18)*%
X83780700Y-138577000D02*
X80070100Y-134866400D01*
X48698700Y-134866400D02*
X45984300Y-132152000D01*
X45984300Y-132152000D02*
X45984300Y-126683400D01*
X139399200Y-138577000D02*
X142027200Y-135949000D01*
X165750400Y-110932400D02*
X165313500Y-110932400D01*
X170423978Y-122762800D02*
X171219800Y-121966978D01*
X41260000Y-121959100D02*
X41260000Y-107907900D01*
X158370500Y-135949000D02*
X170423978Y-123895522D01*
X165313500Y-110932400D02*
X158813500Y-110932400D01*
X41260000Y-107907900D02*
X42735500Y-106432400D01*
X122694700Y-138577000D02*
X129194700Y-138577000D01*
X42735500Y-106432400D02*
X49235500Y-106432400D01*
X171219800Y-116401800D02*
X165750400Y-110932400D01*
X90280700Y-138577000D02*
X83780700Y-138577000D01*
X142027200Y-135949000D02*
X158370500Y-135949000D01*
X80070100Y-134866400D02*
X48698700Y-134866400D01*
X170423978Y-123895522D02*
X170423978Y-122762800D01*
X45984300Y-126683400D02*
X41260000Y-121959100D01*
X171219800Y-121966978D02*
X171219800Y-116401800D01*
X129194700Y-138577000D02*
X132899200Y-138577000D01*
%TO.N,Net-(J1-Pin_19)*%
X109562100Y-100330000D02*
X113202400Y-100330000D01*
X103062100Y-100330000D02*
X109562100Y-100330000D01*
X139982900Y-100330000D02*
X143623100Y-100330000D01*
X129842600Y-100330000D02*
X123342600Y-100330000D01*
X150123100Y-100330000D02*
X143623100Y-100330000D01*
X119702400Y-100330000D02*
X113202400Y-100330000D01*
X129842600Y-100330000D02*
X133482900Y-100330000D01*
X123342600Y-100330000D02*
X119702400Y-100330000D01*
X133482900Y-100330000D02*
X139982900Y-100330000D01*
%TO.N,Net-(J1-Pin_20)*%
X62547500Y-89702200D02*
X69047500Y-89702200D01*
X109165200Y-82332800D02*
X87852400Y-82332800D01*
X113104400Y-87056400D02*
X112252900Y-86204900D01*
X60496400Y-129737700D02*
X60265800Y-129737700D01*
X69047500Y-89702200D02*
X72758300Y-89702200D01*
X62132000Y-129737700D02*
X60496400Y-129737700D01*
X112252900Y-86204900D02*
X112252900Y-85420500D01*
X52665700Y-116962800D02*
X59165700Y-116962800D01*
X79879400Y-143077000D02*
X73379400Y-143077000D01*
X116062900Y-88326400D02*
X114792900Y-87056400D01*
X64448900Y-132054600D02*
X62132000Y-129737700D01*
X114792900Y-87056400D02*
X113104400Y-87056400D01*
X112252900Y-85420500D02*
X109165200Y-82332800D01*
X60496400Y-118293500D02*
X60496400Y-129737700D01*
X60265800Y-129737700D02*
X57948900Y-132054600D01*
X59165700Y-116962800D02*
X60496400Y-118293500D01*
%TO.N,Net-(J1-Pin_21)*%
X69001100Y-100330000D02*
X72641400Y-100330000D01*
X72641400Y-100330000D02*
X79141400Y-100330000D01*
X99421900Y-100330000D02*
X92921900Y-100330000D01*
X52360900Y-100330000D02*
X58860900Y-100330000D01*
X58860900Y-100330000D02*
X62501100Y-100330000D01*
X79141400Y-100330000D02*
X82781600Y-100330000D01*
X89281600Y-100330000D02*
X82781600Y-100330000D01*
X92921900Y-100330000D02*
X89281600Y-100330000D01*
X62501100Y-100330000D02*
X69001100Y-100330000D01*
%TO.N,Net-(J1-Pin_22)*%
X98186000Y-110932400D02*
X94581400Y-110932400D01*
X67872300Y-110932400D02*
X74372300Y-110932400D01*
X64267700Y-110932400D02*
X67872300Y-110932400D01*
X104686000Y-110932400D02*
X98186000Y-110932400D01*
X94581400Y-110932400D02*
X88081400Y-110932400D01*
X57767700Y-110932400D02*
X64267700Y-110932400D01*
X74372300Y-110932400D02*
X77976800Y-110932400D01*
X84476800Y-110932400D02*
X77976800Y-110932400D01*
X88081400Y-110932400D02*
X84476800Y-110932400D01*
%TO.N,Net-(J1-Pin_23)*%
X82771600Y-121462800D02*
X79236300Y-121462800D01*
X62701000Y-121462800D02*
X69201000Y-121462800D01*
X79236300Y-121462800D02*
X72736300Y-121462800D01*
X89271600Y-121462800D02*
X82771600Y-121462800D01*
X109342200Y-121462800D02*
X102842200Y-121462800D01*
X92806900Y-121462800D02*
X89271600Y-121462800D01*
X69201000Y-121462800D02*
X72736300Y-121462800D01*
X102842200Y-121462800D02*
X99306900Y-121462800D01*
X99306900Y-121462800D02*
X92806900Y-121462800D01*
%TO.N,Net-(J1-Pin_24)*%
X54239300Y-132065200D02*
X55556200Y-133382100D01*
X74440100Y-132080000D02*
X77978100Y-132080000D01*
X107579300Y-125054800D02*
X101813500Y-125054800D01*
X101280100Y-130922200D02*
X99212100Y-130922200D01*
X84478100Y-132080000D02*
X77978100Y-132080000D01*
X88016200Y-132080000D02*
X84478100Y-132080000D01*
X101813500Y-125054800D02*
X101610300Y-125258000D01*
X153527900Y-127580000D02*
X152227900Y-126280000D01*
X47739300Y-132065200D02*
X54239300Y-132065200D01*
X114722700Y-126280000D02*
X112506900Y-124064200D01*
X98054300Y-132080000D02*
X94516200Y-132080000D01*
X158412900Y-129195000D02*
X157845900Y-129195000D01*
X67940100Y-132080000D02*
X74440100Y-132080000D01*
X160027900Y-127580000D02*
X158412900Y-129195000D01*
X152227900Y-126280000D02*
X114722700Y-126280000D01*
X94516200Y-132080000D02*
X88016200Y-132080000D01*
X66638000Y-133382100D02*
X67940100Y-132080000D01*
X99212100Y-130922200D02*
X98054300Y-132080000D01*
X55556200Y-133382100D02*
X66638000Y-133382100D01*
%TD*%
M02*
