%TF.GenerationSoftware,KiCad,Pcbnew,7.0.1*%
%TF.CreationDate,2023-09-25T23:55:46+03:00*%
%TF.ProjectId,keyboard_test,6b657962-6f61-4726-945f-746573742e6b,rev?*%
%TF.SameCoordinates,Original*%
%TF.FileFunction,Drillmap*%
%TF.FilePolarity,Positive*%
%FSLAX45Y45*%
G04 Gerber Fmt 4.5, Leading zero omitted, Abs format (unit mm)*
G04 Created by KiCad (PCBNEW 7.0.1) date 2023-09-25 23:55:46*
%MOMM*%
%LPD*%
G01*
G04 APERTURE LIST*
%ADD10C,0.100000*%
%ADD11C,0.200000*%
%ADD12C,0.040000*%
%ADD13C,0.110000*%
G04 APERTURE END LIST*
D10*
X3930410Y-8075720D02*
X17229850Y-8075720D01*
X17229850Y-14773700D01*
X3930410Y-14773700D01*
X3930410Y-8075720D01*
D11*
D12*
X8765240Y-8213280D02*
X8805240Y-8253280D01*
X8805240Y-8213280D02*
X8765240Y-8253280D01*
X9408120Y-9131650D02*
X9448120Y-9171650D01*
X9448120Y-9131650D02*
X9408120Y-9171650D01*
X9688610Y-10096440D02*
X9728610Y-10136440D01*
X9728610Y-10096440D02*
X9688610Y-10136440D01*
X10108010Y-13072220D02*
X10148010Y-13112220D01*
X10148010Y-13072220D02*
X10108010Y-13112220D01*
X10141030Y-12505800D02*
X10181030Y-12545800D01*
X10181030Y-12505800D02*
X10141030Y-12545800D01*
X10737930Y-12485480D02*
X10777930Y-12525480D01*
X10777930Y-12485480D02*
X10737930Y-12525480D01*
X11230690Y-12386420D02*
X11270690Y-12426420D01*
X11270690Y-12386420D02*
X11230690Y-12426420D01*
X14016160Y-9839360D02*
X14056160Y-9879360D01*
X14056160Y-9839360D02*
X14016160Y-9879360D01*
X14362510Y-11258660D02*
X14402510Y-11298660D01*
X14402510Y-11258660D02*
X14362510Y-11298660D01*
X15685850Y-13095080D02*
X15725850Y-13135080D01*
X15725850Y-13095080D02*
X15685850Y-13135080D01*
X15764590Y-12899500D02*
X15804590Y-12939500D01*
X15804590Y-12899500D02*
X15764590Y-12939500D01*
X15784910Y-12033360D02*
X15824910Y-12073360D01*
X15824910Y-12033360D02*
X15784910Y-12073360D01*
X15909370Y-12472780D02*
X15949370Y-12512780D01*
X15949370Y-12472780D02*
X15909370Y-12512780D01*
D10*
X9370290Y-8578640D02*
G75*
G03*
X9370290Y-8578640I-50000J0D01*
G01*
X9370290Y-8832640D02*
G75*
G03*
X9370290Y-8832640I-50000J0D01*
G01*
X9624290Y-8578640D02*
G75*
G03*
X9624290Y-8578640I-50000J0D01*
G01*
X9624290Y-8832640D02*
G75*
G03*
X9624290Y-8832640I-50000J0D01*
G01*
X9878290Y-8578640D02*
G75*
G03*
X9878290Y-8578640I-50000J0D01*
G01*
X9878290Y-8832640D02*
G75*
G03*
X9878290Y-8832640I-50000J0D01*
G01*
X10132290Y-8578640D02*
G75*
G03*
X10132290Y-8578640I-50000J0D01*
G01*
X10132290Y-8832640D02*
G75*
G03*
X10132290Y-8832640I-50000J0D01*
G01*
X10386290Y-8578640D02*
G75*
G03*
X10386290Y-8578640I-50000J0D01*
G01*
X10386290Y-8832640D02*
G75*
G03*
X10386290Y-8832640I-50000J0D01*
G01*
X10640290Y-8578640D02*
G75*
G03*
X10640290Y-8578640I-50000J0D01*
G01*
X10640290Y-8832640D02*
G75*
G03*
X10640290Y-8832640I-50000J0D01*
G01*
X10894290Y-8578640D02*
G75*
G03*
X10894290Y-8578640I-50000J0D01*
G01*
X10894290Y-8832640D02*
G75*
G03*
X10894290Y-8832640I-50000J0D01*
G01*
X11148290Y-8578640D02*
G75*
G03*
X11148290Y-8578640I-50000J0D01*
G01*
X11148290Y-8832640D02*
G75*
G03*
X11148290Y-8832640I-50000J0D01*
G01*
X11402290Y-8578640D02*
G75*
G03*
X11402290Y-8578640I-50000J0D01*
G01*
X11402290Y-8832640D02*
G75*
G03*
X11402290Y-8832640I-50000J0D01*
G01*
X11656290Y-8578640D02*
G75*
G03*
X11656290Y-8578640I-50000J0D01*
G01*
X11656290Y-8832640D02*
G75*
G03*
X11656290Y-8832640I-50000J0D01*
G01*
X11910290Y-8578640D02*
G75*
G03*
X11910290Y-8578640I-50000J0D01*
G01*
X11910290Y-8832640D02*
G75*
G03*
X11910290Y-8832640I-50000J0D01*
G01*
X12164290Y-8578640D02*
G75*
G03*
X12164290Y-8578640I-50000J0D01*
G01*
X12164290Y-8832640D02*
G75*
G03*
X12164290Y-8832640I-50000J0D01*
G01*
D13*
X4217550Y-13802700D02*
X4217550Y-13912700D01*
X4162550Y-13857700D02*
X4272550Y-13857700D01*
X4217550Y-14252700D02*
X4217550Y-14362700D01*
X4162550Y-14307700D02*
X4272550Y-14307700D01*
X4260490Y-11641280D02*
X4260490Y-11751280D01*
X4205490Y-11696280D02*
X4315490Y-11696280D01*
X4260490Y-12091280D02*
X4260490Y-12201280D01*
X4205490Y-12146280D02*
X4315490Y-12146280D01*
X4273550Y-10588240D02*
X4273550Y-10698240D01*
X4218550Y-10643240D02*
X4328550Y-10643240D01*
X4273550Y-11038240D02*
X4273550Y-11148240D01*
X4218550Y-11093240D02*
X4328550Y-11093240D01*
X4773930Y-12701520D02*
X4773930Y-12811520D01*
X4718930Y-12756520D02*
X4828930Y-12756520D01*
X4773930Y-13151520D02*
X4773930Y-13261520D01*
X4718930Y-13206520D02*
X4828930Y-13206520D01*
X4867550Y-13802700D02*
X4867550Y-13912700D01*
X4812550Y-13857700D02*
X4922550Y-13857700D01*
X4867550Y-14252700D02*
X4867550Y-14362700D01*
X4812550Y-14307700D02*
X4922550Y-14307700D01*
X4910490Y-11641280D02*
X4910490Y-11751280D01*
X4855490Y-11696280D02*
X4965490Y-11696280D01*
X4910490Y-12091280D02*
X4910490Y-12201280D01*
X4855490Y-12146280D02*
X4965490Y-12146280D01*
X4923550Y-10588240D02*
X4923550Y-10698240D01*
X4868550Y-10643240D02*
X4978550Y-10643240D01*
X4923550Y-11038240D02*
X4923550Y-11148240D01*
X4868550Y-11093240D02*
X4978550Y-11093240D01*
X5236090Y-9528000D02*
X5236090Y-9638000D01*
X5181090Y-9583000D02*
X5291090Y-9583000D01*
X5236090Y-9978000D02*
X5236090Y-10088000D01*
X5181090Y-10033000D02*
X5291090Y-10033000D01*
X5257680Y-13802700D02*
X5257680Y-13912700D01*
X5202680Y-13857700D02*
X5312680Y-13857700D01*
X5257680Y-14252700D02*
X5257680Y-14362700D01*
X5202680Y-14307700D02*
X5312680Y-14307700D01*
X5266570Y-11641280D02*
X5266570Y-11751280D01*
X5211570Y-11696280D02*
X5321570Y-11696280D01*
X5266570Y-12091280D02*
X5266570Y-12201280D01*
X5211570Y-12146280D02*
X5321570Y-12146280D01*
X5423930Y-12701520D02*
X5423930Y-12811520D01*
X5368930Y-12756520D02*
X5478930Y-12756520D01*
X5423930Y-13151520D02*
X5423930Y-13261520D01*
X5368930Y-13206520D02*
X5478930Y-13206520D01*
X5776770Y-10588240D02*
X5776770Y-10698240D01*
X5721770Y-10643240D02*
X5831770Y-10643240D01*
X5776770Y-11038240D02*
X5776770Y-11148240D01*
X5721770Y-11093240D02*
X5831770Y-11093240D01*
X5794890Y-12700460D02*
X5794890Y-12810460D01*
X5739890Y-12755460D02*
X5849890Y-12755460D01*
X5794890Y-13150460D02*
X5794890Y-13260460D01*
X5739890Y-13205460D02*
X5849890Y-13205460D01*
X5886090Y-9528000D02*
X5886090Y-9638000D01*
X5831090Y-9583000D02*
X5941090Y-9583000D01*
X5886090Y-9978000D02*
X5886090Y-10088000D01*
X5831090Y-10033000D02*
X5941090Y-10033000D01*
X5907680Y-13802700D02*
X5907680Y-13912700D01*
X5852680Y-13857700D02*
X5962680Y-13857700D01*
X5907680Y-14252700D02*
X5907680Y-14362700D01*
X5852680Y-14307700D02*
X5962680Y-14307700D01*
X5916570Y-11641280D02*
X5916570Y-11751280D01*
X5861570Y-11696280D02*
X5971570Y-11696280D01*
X5916570Y-12091280D02*
X5916570Y-12201280D01*
X5861570Y-12146280D02*
X5971570Y-12146280D01*
X6250110Y-9528000D02*
X6250110Y-9638000D01*
X6195110Y-9583000D02*
X6305110Y-9583000D01*
X6250110Y-9978000D02*
X6250110Y-10088000D01*
X6195110Y-10033000D02*
X6305110Y-10033000D01*
X6254750Y-8465220D02*
X6254750Y-8575220D01*
X6199750Y-8520220D02*
X6309750Y-8520220D01*
X6254750Y-8915220D02*
X6254750Y-9025220D01*
X6199750Y-8970220D02*
X6309750Y-8970220D01*
X6270100Y-11641280D02*
X6270100Y-11751280D01*
X6215100Y-11696280D02*
X6325100Y-11696280D01*
X6270100Y-12091280D02*
X6270100Y-12201280D01*
X6215100Y-12146280D02*
X6325100Y-12146280D01*
X6297810Y-13802700D02*
X6297810Y-13912700D01*
X6242810Y-13857700D02*
X6352810Y-13857700D01*
X6297810Y-14252700D02*
X6297810Y-14362700D01*
X6242810Y-14307700D02*
X6352810Y-14307700D01*
X6426770Y-10588240D02*
X6426770Y-10698240D01*
X6371770Y-10643240D02*
X6481770Y-10643240D01*
X6426770Y-11038240D02*
X6426770Y-11148240D01*
X6371770Y-11093240D02*
X6481770Y-11093240D01*
X6444890Y-12700460D02*
X6444890Y-12810460D01*
X6389890Y-12755460D02*
X6499890Y-12755460D01*
X6444890Y-13150460D02*
X6444890Y-13260460D01*
X6389890Y-13205460D02*
X6499890Y-13205460D01*
X6787230Y-10588240D02*
X6787230Y-10698240D01*
X6732230Y-10643240D02*
X6842230Y-10643240D01*
X6787230Y-11038240D02*
X6787230Y-11148240D01*
X6732230Y-11093240D02*
X6842230Y-11093240D01*
X6794010Y-12703000D02*
X6794010Y-12813000D01*
X6739010Y-12758000D02*
X6849010Y-12758000D01*
X6794010Y-13153000D02*
X6794010Y-13263000D01*
X6739010Y-13208000D02*
X6849010Y-13208000D01*
X6900110Y-9528000D02*
X6900110Y-9638000D01*
X6845110Y-9583000D02*
X6955110Y-9583000D01*
X6900110Y-9978000D02*
X6900110Y-10088000D01*
X6845110Y-10033000D02*
X6955110Y-10033000D01*
X6904750Y-8465220D02*
X6904750Y-8575220D01*
X6849750Y-8520220D02*
X6959750Y-8520220D01*
X6904750Y-8915220D02*
X6904750Y-9025220D01*
X6849750Y-8970220D02*
X6959750Y-8970220D01*
X6920100Y-11641280D02*
X6920100Y-11751280D01*
X6865100Y-11696280D02*
X6975100Y-11696280D01*
X6920100Y-12091280D02*
X6920100Y-12201280D01*
X6865100Y-12146280D02*
X6975100Y-12146280D01*
X6947810Y-13802700D02*
X6947810Y-13912700D01*
X6892810Y-13857700D02*
X7002810Y-13857700D01*
X6947810Y-14252700D02*
X6947810Y-14362700D01*
X6892810Y-14307700D02*
X7002810Y-14307700D01*
X7264140Y-9528000D02*
X7264140Y-9638000D01*
X7209140Y-9583000D02*
X7319140Y-9583000D01*
X7264140Y-9978000D02*
X7264140Y-10088000D01*
X7209140Y-10033000D02*
X7319140Y-10033000D01*
X7273630Y-11641280D02*
X7273630Y-11751280D01*
X7218630Y-11696280D02*
X7328630Y-11696280D01*
X7273630Y-12091280D02*
X7273630Y-12201280D01*
X7218630Y-12146280D02*
X7328630Y-12146280D01*
X7275830Y-8465220D02*
X7275830Y-8575220D01*
X7220830Y-8520220D02*
X7330830Y-8520220D01*
X7275830Y-8915220D02*
X7275830Y-9025220D01*
X7220830Y-8970220D02*
X7330830Y-8970220D01*
X7337940Y-13802700D02*
X7337940Y-13912700D01*
X7282940Y-13857700D02*
X7392940Y-13857700D01*
X7337940Y-14252700D02*
X7337940Y-14362700D01*
X7282940Y-14307700D02*
X7392940Y-14307700D01*
X7437230Y-10588240D02*
X7437230Y-10698240D01*
X7382230Y-10643240D02*
X7492230Y-10643240D01*
X7437230Y-11038240D02*
X7437230Y-11148240D01*
X7382230Y-11093240D02*
X7492230Y-11093240D01*
X7444010Y-12703000D02*
X7444010Y-12813000D01*
X7389010Y-12758000D02*
X7499010Y-12758000D01*
X7444010Y-13153000D02*
X7444010Y-13263000D01*
X7389010Y-13208000D02*
X7499010Y-13208000D01*
X7797680Y-10588240D02*
X7797680Y-10698240D01*
X7742680Y-10643240D02*
X7852680Y-10643240D01*
X7797680Y-11038240D02*
X7797680Y-11148240D01*
X7742680Y-11093240D02*
X7852680Y-11093240D01*
X7797810Y-12703000D02*
X7797810Y-12813000D01*
X7742810Y-12758000D02*
X7852810Y-12758000D01*
X7797810Y-13153000D02*
X7797810Y-13263000D01*
X7742810Y-13208000D02*
X7852810Y-13208000D01*
X7914140Y-9528000D02*
X7914140Y-9638000D01*
X7859140Y-9583000D02*
X7969140Y-9583000D01*
X7914140Y-9978000D02*
X7914140Y-10088000D01*
X7859140Y-10033000D02*
X7969140Y-10033000D01*
X7923630Y-11641280D02*
X7923630Y-11751280D01*
X7868630Y-11696280D02*
X7978630Y-11696280D01*
X7923630Y-12091280D02*
X7923630Y-12201280D01*
X7868630Y-12146280D02*
X7978630Y-12146280D01*
X7925830Y-8465220D02*
X7925830Y-8575220D01*
X7870830Y-8520220D02*
X7980830Y-8520220D01*
X7925830Y-8915220D02*
X7925830Y-9025220D01*
X7870830Y-8970220D02*
X7980830Y-8970220D01*
X7987940Y-13802700D02*
X7987940Y-13912700D01*
X7932940Y-13857700D02*
X8042940Y-13857700D01*
X7987940Y-14252700D02*
X7987940Y-14362700D01*
X7932940Y-14307700D02*
X8042940Y-14307700D01*
X8277160Y-11641280D02*
X8277160Y-11751280D01*
X8222160Y-11696280D02*
X8332160Y-11696280D01*
X8277160Y-12091280D02*
X8277160Y-12201280D01*
X8222160Y-12146280D02*
X8332160Y-12146280D01*
X8278160Y-9528000D02*
X8278160Y-9638000D01*
X8223160Y-9583000D02*
X8333160Y-9583000D01*
X8278160Y-9978000D02*
X8278160Y-10088000D01*
X8223160Y-10033000D02*
X8333160Y-10033000D01*
X8378070Y-13802700D02*
X8378070Y-13912700D01*
X8323070Y-13857700D02*
X8433070Y-13857700D01*
X8378070Y-14252700D02*
X8378070Y-14362700D01*
X8323070Y-14307700D02*
X8433070Y-14307700D01*
X8447680Y-10588240D02*
X8447680Y-10698240D01*
X8392680Y-10643240D02*
X8502680Y-10643240D01*
X8447680Y-11038240D02*
X8447680Y-11148240D01*
X8392680Y-11093240D02*
X8502680Y-11093240D01*
X8447810Y-12703000D02*
X8447810Y-12813000D01*
X8392810Y-12758000D02*
X8502810Y-12758000D01*
X8447810Y-13153000D02*
X8447810Y-13263000D01*
X8392810Y-13208000D02*
X8502810Y-13208000D01*
X8801620Y-12703000D02*
X8801620Y-12813000D01*
X8746620Y-12758000D02*
X8856620Y-12758000D01*
X8801620Y-13153000D02*
X8801620Y-13263000D01*
X8746620Y-13208000D02*
X8856620Y-13208000D01*
X8808140Y-10588240D02*
X8808140Y-10698240D01*
X8753140Y-10643240D02*
X8863140Y-10643240D01*
X8808140Y-11038240D02*
X8808140Y-11148240D01*
X8753140Y-11093240D02*
X8863140Y-11093240D01*
X8927160Y-11641280D02*
X8927160Y-11751280D01*
X8872160Y-11696280D02*
X8982160Y-11696280D01*
X8927160Y-12091280D02*
X8927160Y-12201280D01*
X8872160Y-12146280D02*
X8982160Y-12146280D01*
X8928160Y-9528000D02*
X8928160Y-9638000D01*
X8873160Y-9583000D02*
X8983160Y-9583000D01*
X8928160Y-9978000D02*
X8928160Y-10088000D01*
X8873160Y-10033000D02*
X8983160Y-10033000D01*
X9028070Y-13802700D02*
X9028070Y-13912700D01*
X8973070Y-13857700D02*
X9083070Y-13857700D01*
X9028070Y-14252700D02*
X9028070Y-14362700D01*
X8973070Y-14307700D02*
X9083070Y-14307700D01*
X9280690Y-11641280D02*
X9280690Y-11751280D01*
X9225690Y-11696280D02*
X9335690Y-11696280D01*
X9280690Y-12091280D02*
X9280690Y-12201280D01*
X9225690Y-12146280D02*
X9335690Y-12146280D01*
X9292190Y-9528000D02*
X9292190Y-9638000D01*
X9237190Y-9583000D02*
X9347190Y-9583000D01*
X9292190Y-9978000D02*
X9292190Y-10088000D01*
X9237190Y-10033000D02*
X9347190Y-10033000D01*
X9451620Y-12703000D02*
X9451620Y-12813000D01*
X9396620Y-12758000D02*
X9506620Y-12758000D01*
X9451620Y-13153000D02*
X9451620Y-13263000D01*
X9396620Y-13208000D02*
X9506620Y-13208000D01*
X9458140Y-10588240D02*
X9458140Y-10698240D01*
X9403140Y-10643240D02*
X9513140Y-10643240D01*
X9458140Y-11038240D02*
X9458140Y-11148240D01*
X9403140Y-11093240D02*
X9513140Y-11093240D01*
X9785230Y-13802700D02*
X9785230Y-13912700D01*
X9730230Y-13857700D02*
X9840230Y-13857700D01*
X9785230Y-14252700D02*
X9785230Y-14362700D01*
X9730230Y-14307700D02*
X9840230Y-14307700D01*
X9805430Y-12703000D02*
X9805430Y-12813000D01*
X9750430Y-12758000D02*
X9860430Y-12758000D01*
X9805430Y-13153000D02*
X9805430Y-13263000D01*
X9750430Y-13208000D02*
X9860430Y-13208000D01*
X9818600Y-10588240D02*
X9818600Y-10698240D01*
X9763600Y-10643240D02*
X9873600Y-10643240D01*
X9818600Y-11038240D02*
X9818600Y-11148240D01*
X9763600Y-11093240D02*
X9873600Y-11093240D01*
X9930690Y-11641280D02*
X9930690Y-11751280D01*
X9875690Y-11696280D02*
X9985690Y-11696280D01*
X9930690Y-12091280D02*
X9930690Y-12201280D01*
X9875690Y-12146280D02*
X9985690Y-12146280D01*
X9942190Y-9528000D02*
X9942190Y-9638000D01*
X9887190Y-9583000D02*
X9997190Y-9583000D01*
X9942190Y-9978000D02*
X9942190Y-10088000D01*
X9887190Y-10033000D02*
X9997190Y-10033000D01*
X10284220Y-11641280D02*
X10284220Y-11751280D01*
X10229220Y-11696280D02*
X10339220Y-11696280D01*
X10284220Y-12091280D02*
X10284220Y-12201280D01*
X10229220Y-12146280D02*
X10339220Y-12146280D01*
X10306210Y-9528000D02*
X10306210Y-9638000D01*
X10251210Y-9583000D02*
X10361210Y-9583000D01*
X10306210Y-9978000D02*
X10306210Y-10088000D01*
X10251210Y-10033000D02*
X10361210Y-10033000D01*
X10435230Y-13802700D02*
X10435230Y-13912700D01*
X10380230Y-13857700D02*
X10490230Y-13857700D01*
X10435230Y-14252700D02*
X10435230Y-14362700D01*
X10380230Y-14307700D02*
X10490230Y-14307700D01*
X10455430Y-12703000D02*
X10455430Y-12813000D01*
X10400430Y-12758000D02*
X10510430Y-12758000D01*
X10455430Y-13153000D02*
X10455430Y-13263000D01*
X10400430Y-13208000D02*
X10510430Y-13208000D01*
X10468600Y-10588240D02*
X10468600Y-10698240D01*
X10413600Y-10643240D02*
X10523600Y-10643240D01*
X10468600Y-11038240D02*
X10468600Y-11148240D01*
X10413600Y-11093240D02*
X10523600Y-11093240D01*
X10809240Y-12703000D02*
X10809240Y-12813000D01*
X10754240Y-12758000D02*
X10864240Y-12758000D01*
X10809240Y-13153000D02*
X10809240Y-13263000D01*
X10754240Y-13208000D02*
X10864240Y-13208000D01*
X10829060Y-10588240D02*
X10829060Y-10698240D01*
X10774060Y-10643240D02*
X10884060Y-10643240D01*
X10829060Y-11038240D02*
X10829060Y-11148240D01*
X10774060Y-11093240D02*
X10884060Y-11093240D01*
X10841870Y-13802700D02*
X10841870Y-13912700D01*
X10786870Y-13857700D02*
X10896870Y-13857700D01*
X10841870Y-14252700D02*
X10841870Y-14362700D01*
X10786870Y-14307700D02*
X10896870Y-14307700D01*
X10934220Y-11641280D02*
X10934220Y-11751280D01*
X10879220Y-11696280D02*
X10989220Y-11696280D01*
X10934220Y-12091280D02*
X10934220Y-12201280D01*
X10879220Y-12146280D02*
X10989220Y-12146280D01*
X10956210Y-9528000D02*
X10956210Y-9638000D01*
X10901210Y-9583000D02*
X11011210Y-9583000D01*
X10956210Y-9978000D02*
X10956210Y-10088000D01*
X10901210Y-10033000D02*
X11011210Y-10033000D01*
X11287760Y-11641280D02*
X11287760Y-11751280D01*
X11232760Y-11696280D02*
X11342760Y-11696280D01*
X11287760Y-12091280D02*
X11287760Y-12201280D01*
X11232760Y-12146280D02*
X11342760Y-12146280D01*
X11320240Y-9528000D02*
X11320240Y-9638000D01*
X11265240Y-9583000D02*
X11375240Y-9583000D01*
X11320240Y-9978000D02*
X11320240Y-10088000D01*
X11265240Y-10033000D02*
X11375240Y-10033000D01*
X11459240Y-12703000D02*
X11459240Y-12813000D01*
X11404240Y-12758000D02*
X11514240Y-12758000D01*
X11459240Y-13153000D02*
X11459240Y-13263000D01*
X11404240Y-13208000D02*
X11514240Y-13208000D01*
X11479060Y-10588240D02*
X11479060Y-10698240D01*
X11424060Y-10643240D02*
X11534060Y-10643240D01*
X11479060Y-11038240D02*
X11479060Y-11148240D01*
X11424060Y-11093240D02*
X11534060Y-11093240D01*
X11491870Y-13802700D02*
X11491870Y-13912700D01*
X11436870Y-13857700D02*
X11546870Y-13857700D01*
X11491870Y-14252700D02*
X11491870Y-14362700D01*
X11436870Y-14307700D02*
X11546870Y-14307700D01*
X11813050Y-12703000D02*
X11813050Y-12813000D01*
X11758050Y-12758000D02*
X11868050Y-12758000D01*
X11813050Y-13153000D02*
X11813050Y-13263000D01*
X11758050Y-13208000D02*
X11868050Y-13208000D01*
X11839520Y-10588240D02*
X11839520Y-10698240D01*
X11784520Y-10643240D02*
X11894520Y-10643240D01*
X11839520Y-11038240D02*
X11839520Y-11148240D01*
X11784520Y-11093240D02*
X11894520Y-11093240D01*
X11937760Y-11641280D02*
X11937760Y-11751280D01*
X11882760Y-11696280D02*
X11992760Y-11696280D01*
X11937760Y-12091280D02*
X11937760Y-12201280D01*
X11882760Y-12146280D02*
X11992760Y-12146280D01*
X11970240Y-9528000D02*
X11970240Y-9638000D01*
X11915240Y-9583000D02*
X12025240Y-9583000D01*
X11970240Y-9978000D02*
X11970240Y-10088000D01*
X11915240Y-10033000D02*
X12025240Y-10033000D01*
X12269470Y-13802700D02*
X12269470Y-13912700D01*
X12214470Y-13857700D02*
X12324470Y-13857700D01*
X12269470Y-14252700D02*
X12269470Y-14362700D01*
X12214470Y-14307700D02*
X12324470Y-14307700D01*
X12291290Y-11641280D02*
X12291290Y-11751280D01*
X12236290Y-11696280D02*
X12346290Y-11696280D01*
X12291290Y-12091280D02*
X12291290Y-12201280D01*
X12236290Y-12146280D02*
X12346290Y-12146280D01*
X12334260Y-9528000D02*
X12334260Y-9638000D01*
X12279260Y-9583000D02*
X12389260Y-9583000D01*
X12334260Y-9978000D02*
X12334260Y-10088000D01*
X12279260Y-10033000D02*
X12389260Y-10033000D01*
X12463050Y-12703000D02*
X12463050Y-12813000D01*
X12408050Y-12758000D02*
X12518050Y-12758000D01*
X12463050Y-13153000D02*
X12463050Y-13263000D01*
X12408050Y-13208000D02*
X12518050Y-13208000D01*
X12489520Y-10588240D02*
X12489520Y-10698240D01*
X12434520Y-10643240D02*
X12544520Y-10643240D01*
X12489520Y-11038240D02*
X12489520Y-11148240D01*
X12434520Y-11093240D02*
X12544520Y-11093240D01*
X12816850Y-12703000D02*
X12816850Y-12813000D01*
X12761850Y-12758000D02*
X12871850Y-12758000D01*
X12816850Y-13153000D02*
X12816850Y-13263000D01*
X12761850Y-13208000D02*
X12871850Y-13208000D01*
X12849970Y-10588240D02*
X12849970Y-10698240D01*
X12794970Y-10643240D02*
X12904970Y-10643240D01*
X12849970Y-11038240D02*
X12849970Y-11148240D01*
X12794970Y-11093240D02*
X12904970Y-11093240D01*
X12919470Y-13802700D02*
X12919470Y-13912700D01*
X12864470Y-13857700D02*
X12974470Y-13857700D01*
X12919470Y-14252700D02*
X12919470Y-14362700D01*
X12864470Y-14307700D02*
X12974470Y-14307700D01*
X12941290Y-11641280D02*
X12941290Y-11751280D01*
X12886290Y-11696280D02*
X12996290Y-11696280D01*
X12941290Y-12091280D02*
X12941290Y-12201280D01*
X12886290Y-12146280D02*
X12996290Y-12146280D01*
X12984260Y-9528000D02*
X12984260Y-9638000D01*
X12929260Y-9583000D02*
X13039260Y-9583000D01*
X12984260Y-9978000D02*
X12984260Y-10088000D01*
X12929260Y-10033000D02*
X13039260Y-10033000D01*
X13289920Y-13802700D02*
X13289920Y-13912700D01*
X13234920Y-13857700D02*
X13344920Y-13857700D01*
X13289920Y-14252700D02*
X13289920Y-14362700D01*
X13234920Y-14307700D02*
X13344920Y-14307700D01*
X13294820Y-11641280D02*
X13294820Y-11751280D01*
X13239820Y-11696280D02*
X13349820Y-11696280D01*
X13294820Y-12091280D02*
X13294820Y-12201280D01*
X13239820Y-12146280D02*
X13349820Y-12146280D01*
X13348290Y-9528000D02*
X13348290Y-9638000D01*
X13293290Y-9583000D02*
X13403290Y-9583000D01*
X13348290Y-9978000D02*
X13348290Y-10088000D01*
X13293290Y-10033000D02*
X13403290Y-10033000D01*
X13466850Y-12703000D02*
X13466850Y-12813000D01*
X13411850Y-12758000D02*
X13521850Y-12758000D01*
X13466850Y-13153000D02*
X13466850Y-13263000D01*
X13411850Y-13208000D02*
X13521850Y-13208000D01*
X13499970Y-10588240D02*
X13499970Y-10698240D01*
X13444970Y-10643240D02*
X13554970Y-10643240D01*
X13499970Y-11038240D02*
X13499970Y-11148240D01*
X13444970Y-11093240D02*
X13554970Y-11093240D01*
X13820660Y-12703000D02*
X13820660Y-12813000D01*
X13765660Y-12758000D02*
X13875660Y-12758000D01*
X13820660Y-13153000D02*
X13820660Y-13263000D01*
X13765660Y-13208000D02*
X13875660Y-13208000D01*
X13860430Y-10588240D02*
X13860430Y-10698240D01*
X13805430Y-10643240D02*
X13915430Y-10643240D01*
X13860430Y-11038240D02*
X13860430Y-11148240D01*
X13805430Y-11093240D02*
X13915430Y-11093240D01*
X13939920Y-13802700D02*
X13939920Y-13912700D01*
X13884920Y-13857700D02*
X13994920Y-13857700D01*
X13939920Y-14252700D02*
X13939920Y-14362700D01*
X13884920Y-14307700D02*
X13994920Y-14307700D01*
X13944820Y-11641280D02*
X13944820Y-11751280D01*
X13889820Y-11696280D02*
X13999820Y-11696280D01*
X13944820Y-12091280D02*
X13944820Y-12201280D01*
X13889820Y-12146280D02*
X13999820Y-12146280D01*
X13998290Y-9528000D02*
X13998290Y-9638000D01*
X13943290Y-9583000D02*
X14053290Y-9583000D01*
X13998290Y-9978000D02*
X13998290Y-10088000D01*
X13943290Y-10033000D02*
X14053290Y-10033000D01*
X14298348Y-11641280D02*
X14298348Y-11751280D01*
X14243348Y-11696280D02*
X14353348Y-11696280D01*
X14298348Y-12091280D02*
X14298348Y-12201280D01*
X14243348Y-12146280D02*
X14353348Y-12146280D01*
X14310360Y-13802700D02*
X14310360Y-13912700D01*
X14255360Y-13857700D02*
X14365360Y-13857700D01*
X14310360Y-14252700D02*
X14310360Y-14362700D01*
X14255360Y-14307700D02*
X14365360Y-14307700D01*
X14362310Y-9528000D02*
X14362310Y-9638000D01*
X14307310Y-9583000D02*
X14417310Y-9583000D01*
X14362310Y-9978000D02*
X14362310Y-10088000D01*
X14307310Y-10033000D02*
X14417310Y-10033000D01*
X14470660Y-12703000D02*
X14470660Y-12813000D01*
X14415660Y-12758000D02*
X14525660Y-12758000D01*
X14470660Y-13153000D02*
X14470660Y-13263000D01*
X14415660Y-13208000D02*
X14525660Y-13208000D01*
X14510430Y-10588240D02*
X14510430Y-10698240D01*
X14455430Y-10643240D02*
X14565430Y-10643240D01*
X14510430Y-11038240D02*
X14510430Y-11148240D01*
X14455430Y-11093240D02*
X14565430Y-11093240D01*
X14870890Y-10588240D02*
X14870890Y-10698240D01*
X14815890Y-10643240D02*
X14925890Y-10643240D01*
X14870890Y-11038240D02*
X14870890Y-11148240D01*
X14815890Y-11093240D02*
X14925890Y-11093240D01*
X14948348Y-11641280D02*
X14948348Y-11751280D01*
X14893348Y-11696280D02*
X15003348Y-11696280D01*
X14948348Y-12091280D02*
X14948348Y-12201280D01*
X14893348Y-12146280D02*
X15003348Y-12146280D01*
X14960360Y-13802700D02*
X14960360Y-13912700D01*
X14905360Y-13857700D02*
X15015360Y-13857700D01*
X14960360Y-14252700D02*
X14960360Y-14362700D01*
X14905360Y-14307700D02*
X15015360Y-14307700D01*
X15012310Y-9528000D02*
X15012310Y-9638000D01*
X14957310Y-9583000D02*
X15067310Y-9583000D01*
X15012310Y-9978000D02*
X15012310Y-10088000D01*
X14957310Y-10033000D02*
X15067310Y-10033000D01*
X15330810Y-13802700D02*
X15330810Y-13912700D01*
X15275810Y-13857700D02*
X15385810Y-13857700D01*
X15330810Y-14252700D02*
X15330810Y-14362700D01*
X15275810Y-14307700D02*
X15385810Y-14307700D01*
X15352790Y-12703000D02*
X15352790Y-12813000D01*
X15297790Y-12758000D02*
X15407790Y-12758000D01*
X15352790Y-13153000D02*
X15352790Y-13263000D01*
X15297790Y-13208000D02*
X15407790Y-13208000D01*
X15520890Y-10588240D02*
X15520890Y-10698240D01*
X15465890Y-10643240D02*
X15575890Y-10643240D01*
X15520890Y-11038240D02*
X15520890Y-11148240D01*
X15465890Y-11093240D02*
X15575890Y-11093240D01*
X15881350Y-10588240D02*
X15881350Y-10698240D01*
X15826350Y-10643240D02*
X15936350Y-10643240D01*
X15881350Y-11038240D02*
X15881350Y-11148240D01*
X15826350Y-11093240D02*
X15936350Y-11093240D01*
X15980810Y-13802700D02*
X15980810Y-13912700D01*
X15925810Y-13857700D02*
X16035810Y-13857700D01*
X15980810Y-14252700D02*
X15980810Y-14362700D01*
X15925810Y-14307700D02*
X16035810Y-14307700D01*
X16002790Y-12703000D02*
X16002790Y-12813000D01*
X15947790Y-12758000D02*
X16057790Y-12758000D01*
X16002790Y-13153000D02*
X16002790Y-13263000D01*
X15947790Y-13208000D02*
X16057790Y-13208000D01*
X16338550Y-9536040D02*
X16338550Y-9646040D01*
X16283550Y-9591040D02*
X16393550Y-9591040D01*
X16338550Y-9986040D02*
X16338550Y-10096040D01*
X16283550Y-10041040D02*
X16393550Y-10041040D01*
X16338550Y-11641280D02*
X16338550Y-11751280D01*
X16283550Y-11696280D02*
X16393550Y-11696280D01*
X16338550Y-12091280D02*
X16338550Y-12201280D01*
X16283550Y-12146280D02*
X16393550Y-12146280D01*
X16351250Y-13802700D02*
X16351250Y-13912700D01*
X16296250Y-13857700D02*
X16406250Y-13857700D01*
X16351250Y-14252700D02*
X16351250Y-14362700D01*
X16296250Y-14307700D02*
X16406250Y-14307700D01*
X16531350Y-10588240D02*
X16531350Y-10698240D01*
X16476350Y-10643240D02*
X16586350Y-10643240D01*
X16531350Y-11038240D02*
X16531350Y-11148240D01*
X16476350Y-11093240D02*
X16586350Y-11093240D01*
X16988550Y-9536040D02*
X16988550Y-9646040D01*
X16933550Y-9591040D02*
X17043550Y-9591040D01*
X16988550Y-9986040D02*
X16988550Y-10096040D01*
X16933550Y-10041040D02*
X17043550Y-10041040D01*
X16988550Y-11641280D02*
X16988550Y-11751280D01*
X16933550Y-11696280D02*
X17043550Y-11696280D01*
X16988550Y-12091280D02*
X16988550Y-12201280D01*
X16933550Y-12146280D02*
X17043550Y-12146280D01*
X17001250Y-13802700D02*
X17001250Y-13912700D01*
X16946250Y-13857700D02*
X17056250Y-13857700D01*
X17001250Y-14252700D02*
X17001250Y-14362700D01*
X16946250Y-14307700D02*
X17056250Y-14307700D01*
D11*
X4173029Y-15091224D02*
X4173029Y-14891224D01*
X4173029Y-14891224D02*
X4220648Y-14891224D01*
X4220648Y-14891224D02*
X4249220Y-14900748D01*
X4249220Y-14900748D02*
X4268267Y-14919795D01*
X4268267Y-14919795D02*
X4277791Y-14938843D01*
X4277791Y-14938843D02*
X4287315Y-14976938D01*
X4287315Y-14976938D02*
X4287315Y-15005509D01*
X4287315Y-15005509D02*
X4277791Y-15043605D01*
X4277791Y-15043605D02*
X4268267Y-15062652D01*
X4268267Y-15062652D02*
X4249220Y-15081700D01*
X4249220Y-15081700D02*
X4220648Y-15091224D01*
X4220648Y-15091224D02*
X4173029Y-15091224D01*
X4373029Y-15091224D02*
X4373029Y-14957890D01*
X4373029Y-14995986D02*
X4382553Y-14976938D01*
X4382553Y-14976938D02*
X4392077Y-14967414D01*
X4392077Y-14967414D02*
X4411124Y-14957890D01*
X4411124Y-14957890D02*
X4430172Y-14957890D01*
X4496839Y-15091224D02*
X4496839Y-14957890D01*
X4496839Y-14891224D02*
X4487315Y-14900748D01*
X4487315Y-14900748D02*
X4496839Y-14910271D01*
X4496839Y-14910271D02*
X4506362Y-14900748D01*
X4506362Y-14900748D02*
X4496839Y-14891224D01*
X4496839Y-14891224D02*
X4496839Y-14910271D01*
X4620648Y-15091224D02*
X4601600Y-15081700D01*
X4601600Y-15081700D02*
X4592077Y-15062652D01*
X4592077Y-15062652D02*
X4592077Y-14891224D01*
X4725410Y-15091224D02*
X4706362Y-15081700D01*
X4706362Y-15081700D02*
X4696839Y-15062652D01*
X4696839Y-15062652D02*
X4696839Y-14891224D01*
X4953981Y-15091224D02*
X4953981Y-14891224D01*
X4953981Y-14891224D02*
X5020648Y-15034081D01*
X5020648Y-15034081D02*
X5087315Y-14891224D01*
X5087315Y-14891224D02*
X5087315Y-15091224D01*
X5268267Y-15091224D02*
X5268267Y-14986462D01*
X5268267Y-14986462D02*
X5258743Y-14967414D01*
X5258743Y-14967414D02*
X5239696Y-14957890D01*
X5239696Y-14957890D02*
X5201600Y-14957890D01*
X5201600Y-14957890D02*
X5182553Y-14967414D01*
X5268267Y-15081700D02*
X5249220Y-15091224D01*
X5249220Y-15091224D02*
X5201600Y-15091224D01*
X5201600Y-15091224D02*
X5182553Y-15081700D01*
X5182553Y-15081700D02*
X5173029Y-15062652D01*
X5173029Y-15062652D02*
X5173029Y-15043605D01*
X5173029Y-15043605D02*
X5182553Y-15024557D01*
X5182553Y-15024557D02*
X5201600Y-15015033D01*
X5201600Y-15015033D02*
X5249220Y-15015033D01*
X5249220Y-15015033D02*
X5268267Y-15005509D01*
X5363505Y-14957890D02*
X5363505Y-15157890D01*
X5363505Y-14967414D02*
X5382553Y-14957890D01*
X5382553Y-14957890D02*
X5420648Y-14957890D01*
X5420648Y-14957890D02*
X5439696Y-14967414D01*
X5439696Y-14967414D02*
X5449220Y-14976938D01*
X5449220Y-14976938D02*
X5458743Y-14995986D01*
X5458743Y-14995986D02*
X5458743Y-15053128D01*
X5458743Y-15053128D02*
X5449220Y-15072176D01*
X5449220Y-15072176D02*
X5439696Y-15081700D01*
X5439696Y-15081700D02*
X5420648Y-15091224D01*
X5420648Y-15091224D02*
X5382553Y-15091224D01*
X5382553Y-15091224D02*
X5363505Y-15081700D01*
X5544458Y-15072176D02*
X5553981Y-15081700D01*
X5553981Y-15081700D02*
X5544458Y-15091224D01*
X5544458Y-15091224D02*
X5534934Y-15081700D01*
X5534934Y-15081700D02*
X5544458Y-15072176D01*
X5544458Y-15072176D02*
X5544458Y-15091224D01*
X5544458Y-14967414D02*
X5553981Y-14976938D01*
X5553981Y-14976938D02*
X5544458Y-14986462D01*
X5544458Y-14986462D02*
X5534934Y-14976938D01*
X5534934Y-14976938D02*
X5544458Y-14967414D01*
X5544458Y-14967414D02*
X5544458Y-14986462D01*
D12*
X3885410Y-15398700D02*
X3925410Y-15438700D01*
X3925410Y-15398700D02*
X3885410Y-15438700D01*
D11*
X4211124Y-15311224D02*
X4230172Y-15311224D01*
X4230172Y-15311224D02*
X4249220Y-15320748D01*
X4249220Y-15320748D02*
X4258743Y-15330271D01*
X4258743Y-15330271D02*
X4268267Y-15349319D01*
X4268267Y-15349319D02*
X4277791Y-15387414D01*
X4277791Y-15387414D02*
X4277791Y-15435033D01*
X4277791Y-15435033D02*
X4268267Y-15473128D01*
X4268267Y-15473128D02*
X4258743Y-15492176D01*
X4258743Y-15492176D02*
X4249220Y-15501700D01*
X4249220Y-15501700D02*
X4230172Y-15511224D01*
X4230172Y-15511224D02*
X4211124Y-15511224D01*
X4211124Y-15511224D02*
X4192077Y-15501700D01*
X4192077Y-15501700D02*
X4182553Y-15492176D01*
X4182553Y-15492176D02*
X4173029Y-15473128D01*
X4173029Y-15473128D02*
X4163505Y-15435033D01*
X4163505Y-15435033D02*
X4163505Y-15387414D01*
X4163505Y-15387414D02*
X4173029Y-15349319D01*
X4173029Y-15349319D02*
X4182553Y-15330271D01*
X4182553Y-15330271D02*
X4192077Y-15320748D01*
X4192077Y-15320748D02*
X4211124Y-15311224D01*
X4363505Y-15492176D02*
X4373029Y-15501700D01*
X4373029Y-15501700D02*
X4363505Y-15511224D01*
X4363505Y-15511224D02*
X4353981Y-15501700D01*
X4353981Y-15501700D02*
X4363505Y-15492176D01*
X4363505Y-15492176D02*
X4363505Y-15511224D01*
X4544458Y-15377890D02*
X4544458Y-15511224D01*
X4496839Y-15301700D02*
X4449220Y-15444557D01*
X4449220Y-15444557D02*
X4573029Y-15444557D01*
X4687315Y-15311224D02*
X4706362Y-15311224D01*
X4706362Y-15311224D02*
X4725410Y-15320748D01*
X4725410Y-15320748D02*
X4734934Y-15330271D01*
X4734934Y-15330271D02*
X4744458Y-15349319D01*
X4744458Y-15349319D02*
X4753981Y-15387414D01*
X4753981Y-15387414D02*
X4753981Y-15435033D01*
X4753981Y-15435033D02*
X4744458Y-15473128D01*
X4744458Y-15473128D02*
X4734934Y-15492176D01*
X4734934Y-15492176D02*
X4725410Y-15501700D01*
X4725410Y-15501700D02*
X4706362Y-15511224D01*
X4706362Y-15511224D02*
X4687315Y-15511224D01*
X4687315Y-15511224D02*
X4668267Y-15501700D01*
X4668267Y-15501700D02*
X4658743Y-15492176D01*
X4658743Y-15492176D02*
X4649220Y-15473128D01*
X4649220Y-15473128D02*
X4639696Y-15435033D01*
X4639696Y-15435033D02*
X4639696Y-15387414D01*
X4639696Y-15387414D02*
X4649220Y-15349319D01*
X4649220Y-15349319D02*
X4658743Y-15330271D01*
X4658743Y-15330271D02*
X4668267Y-15320748D01*
X4668267Y-15320748D02*
X4687315Y-15311224D01*
X4877791Y-15311224D02*
X4896839Y-15311224D01*
X4896839Y-15311224D02*
X4915886Y-15320748D01*
X4915886Y-15320748D02*
X4925410Y-15330271D01*
X4925410Y-15330271D02*
X4934934Y-15349319D01*
X4934934Y-15349319D02*
X4944458Y-15387414D01*
X4944458Y-15387414D02*
X4944458Y-15435033D01*
X4944458Y-15435033D02*
X4934934Y-15473128D01*
X4934934Y-15473128D02*
X4925410Y-15492176D01*
X4925410Y-15492176D02*
X4915886Y-15501700D01*
X4915886Y-15501700D02*
X4896839Y-15511224D01*
X4896839Y-15511224D02*
X4877791Y-15511224D01*
X4877791Y-15511224D02*
X4858743Y-15501700D01*
X4858743Y-15501700D02*
X4849220Y-15492176D01*
X4849220Y-15492176D02*
X4839696Y-15473128D01*
X4839696Y-15473128D02*
X4830172Y-15435033D01*
X4830172Y-15435033D02*
X4830172Y-15387414D01*
X4830172Y-15387414D02*
X4839696Y-15349319D01*
X4839696Y-15349319D02*
X4849220Y-15330271D01*
X4849220Y-15330271D02*
X4858743Y-15320748D01*
X4858743Y-15320748D02*
X4877791Y-15311224D01*
X5030172Y-15511224D02*
X5030172Y-15377890D01*
X5030172Y-15396938D02*
X5039696Y-15387414D01*
X5039696Y-15387414D02*
X5058743Y-15377890D01*
X5058743Y-15377890D02*
X5087315Y-15377890D01*
X5087315Y-15377890D02*
X5106362Y-15387414D01*
X5106362Y-15387414D02*
X5115886Y-15406462D01*
X5115886Y-15406462D02*
X5115886Y-15511224D01*
X5115886Y-15406462D02*
X5125410Y-15387414D01*
X5125410Y-15387414D02*
X5144458Y-15377890D01*
X5144458Y-15377890D02*
X5173029Y-15377890D01*
X5173029Y-15377890D02*
X5192077Y-15387414D01*
X5192077Y-15387414D02*
X5201601Y-15406462D01*
X5201601Y-15406462D02*
X5201601Y-15511224D01*
X5296839Y-15511224D02*
X5296839Y-15377890D01*
X5296839Y-15396938D02*
X5306362Y-15387414D01*
X5306362Y-15387414D02*
X5325410Y-15377890D01*
X5325410Y-15377890D02*
X5353982Y-15377890D01*
X5353982Y-15377890D02*
X5373029Y-15387414D01*
X5373029Y-15387414D02*
X5382553Y-15406462D01*
X5382553Y-15406462D02*
X5382553Y-15511224D01*
X5382553Y-15406462D02*
X5392077Y-15387414D01*
X5392077Y-15387414D02*
X5411124Y-15377890D01*
X5411124Y-15377890D02*
X5439696Y-15377890D01*
X5439696Y-15377890D02*
X5458743Y-15387414D01*
X5458743Y-15387414D02*
X5468267Y-15406462D01*
X5468267Y-15406462D02*
X5468267Y-15511224D01*
X5858743Y-15301700D02*
X5687315Y-15558843D01*
X6115886Y-15311224D02*
X6134934Y-15311224D01*
X6134934Y-15311224D02*
X6153982Y-15320748D01*
X6153982Y-15320748D02*
X6163505Y-15330271D01*
X6163505Y-15330271D02*
X6173029Y-15349319D01*
X6173029Y-15349319D02*
X6182553Y-15387414D01*
X6182553Y-15387414D02*
X6182553Y-15435033D01*
X6182553Y-15435033D02*
X6173029Y-15473128D01*
X6173029Y-15473128D02*
X6163505Y-15492176D01*
X6163505Y-15492176D02*
X6153982Y-15501700D01*
X6153982Y-15501700D02*
X6134934Y-15511224D01*
X6134934Y-15511224D02*
X6115886Y-15511224D01*
X6115886Y-15511224D02*
X6096839Y-15501700D01*
X6096839Y-15501700D02*
X6087315Y-15492176D01*
X6087315Y-15492176D02*
X6077791Y-15473128D01*
X6077791Y-15473128D02*
X6068267Y-15435033D01*
X6068267Y-15435033D02*
X6068267Y-15387414D01*
X6068267Y-15387414D02*
X6077791Y-15349319D01*
X6077791Y-15349319D02*
X6087315Y-15330271D01*
X6087315Y-15330271D02*
X6096839Y-15320748D01*
X6096839Y-15320748D02*
X6115886Y-15311224D01*
X6268267Y-15492176D02*
X6277791Y-15501700D01*
X6277791Y-15501700D02*
X6268267Y-15511224D01*
X6268267Y-15511224D02*
X6258743Y-15501700D01*
X6258743Y-15501700D02*
X6268267Y-15492176D01*
X6268267Y-15492176D02*
X6268267Y-15511224D01*
X6401601Y-15311224D02*
X6420648Y-15311224D01*
X6420648Y-15311224D02*
X6439696Y-15320748D01*
X6439696Y-15320748D02*
X6449220Y-15330271D01*
X6449220Y-15330271D02*
X6458743Y-15349319D01*
X6458743Y-15349319D02*
X6468267Y-15387414D01*
X6468267Y-15387414D02*
X6468267Y-15435033D01*
X6468267Y-15435033D02*
X6458743Y-15473128D01*
X6458743Y-15473128D02*
X6449220Y-15492176D01*
X6449220Y-15492176D02*
X6439696Y-15501700D01*
X6439696Y-15501700D02*
X6420648Y-15511224D01*
X6420648Y-15511224D02*
X6401601Y-15511224D01*
X6401601Y-15511224D02*
X6382553Y-15501700D01*
X6382553Y-15501700D02*
X6373029Y-15492176D01*
X6373029Y-15492176D02*
X6363505Y-15473128D01*
X6363505Y-15473128D02*
X6353982Y-15435033D01*
X6353982Y-15435033D02*
X6353982Y-15387414D01*
X6353982Y-15387414D02*
X6363505Y-15349319D01*
X6363505Y-15349319D02*
X6373029Y-15330271D01*
X6373029Y-15330271D02*
X6382553Y-15320748D01*
X6382553Y-15320748D02*
X6401601Y-15311224D01*
X6658743Y-15511224D02*
X6544458Y-15511224D01*
X6601601Y-15511224D02*
X6601601Y-15311224D01*
X6601601Y-15311224D02*
X6582553Y-15339795D01*
X6582553Y-15339795D02*
X6563505Y-15358843D01*
X6563505Y-15358843D02*
X6544458Y-15368367D01*
X6839696Y-15311224D02*
X6744458Y-15311224D01*
X6744458Y-15311224D02*
X6734934Y-15406462D01*
X6734934Y-15406462D02*
X6744458Y-15396938D01*
X6744458Y-15396938D02*
X6763505Y-15387414D01*
X6763505Y-15387414D02*
X6811124Y-15387414D01*
X6811124Y-15387414D02*
X6830172Y-15396938D01*
X6830172Y-15396938D02*
X6839696Y-15406462D01*
X6839696Y-15406462D02*
X6849220Y-15425509D01*
X6849220Y-15425509D02*
X6849220Y-15473128D01*
X6849220Y-15473128D02*
X6839696Y-15492176D01*
X6839696Y-15492176D02*
X6830172Y-15501700D01*
X6830172Y-15501700D02*
X6811124Y-15511224D01*
X6811124Y-15511224D02*
X6763505Y-15511224D01*
X6763505Y-15511224D02*
X6744458Y-15501700D01*
X6744458Y-15501700D02*
X6734934Y-15492176D01*
X6915886Y-15311224D02*
X7049220Y-15311224D01*
X7049220Y-15311224D02*
X6963505Y-15511224D01*
X7115886Y-15311224D02*
X7115886Y-15349319D01*
X7192077Y-15311224D02*
X7192077Y-15349319D01*
X7487315Y-15587414D02*
X7477791Y-15577890D01*
X7477791Y-15577890D02*
X7458744Y-15549319D01*
X7458744Y-15549319D02*
X7449220Y-15530271D01*
X7449220Y-15530271D02*
X7439696Y-15501700D01*
X7439696Y-15501700D02*
X7430172Y-15454081D01*
X7430172Y-15454081D02*
X7430172Y-15415986D01*
X7430172Y-15415986D02*
X7439696Y-15368367D01*
X7439696Y-15368367D02*
X7449220Y-15339795D01*
X7449220Y-15339795D02*
X7458744Y-15320748D01*
X7458744Y-15320748D02*
X7477791Y-15292176D01*
X7477791Y-15292176D02*
X7487315Y-15282652D01*
X7668267Y-15511224D02*
X7553982Y-15511224D01*
X7611124Y-15511224D02*
X7611124Y-15311224D01*
X7611124Y-15311224D02*
X7592077Y-15339795D01*
X7592077Y-15339795D02*
X7573029Y-15358843D01*
X7573029Y-15358843D02*
X7553982Y-15368367D01*
X7734934Y-15311224D02*
X7858744Y-15311224D01*
X7858744Y-15311224D02*
X7792077Y-15387414D01*
X7792077Y-15387414D02*
X7820648Y-15387414D01*
X7820648Y-15387414D02*
X7839696Y-15396938D01*
X7839696Y-15396938D02*
X7849220Y-15406462D01*
X7849220Y-15406462D02*
X7858744Y-15425509D01*
X7858744Y-15425509D02*
X7858744Y-15473128D01*
X7858744Y-15473128D02*
X7849220Y-15492176D01*
X7849220Y-15492176D02*
X7839696Y-15501700D01*
X7839696Y-15501700D02*
X7820648Y-15511224D01*
X7820648Y-15511224D02*
X7763505Y-15511224D01*
X7763505Y-15511224D02*
X7744458Y-15501700D01*
X7744458Y-15501700D02*
X7734934Y-15492176D01*
X8096839Y-15511224D02*
X8096839Y-15311224D01*
X8182553Y-15511224D02*
X8182553Y-15406462D01*
X8182553Y-15406462D02*
X8173029Y-15387414D01*
X8173029Y-15387414D02*
X8153982Y-15377890D01*
X8153982Y-15377890D02*
X8125410Y-15377890D01*
X8125410Y-15377890D02*
X8106363Y-15387414D01*
X8106363Y-15387414D02*
X8096839Y-15396938D01*
X8306363Y-15511224D02*
X8287315Y-15501700D01*
X8287315Y-15501700D02*
X8277791Y-15492176D01*
X8277791Y-15492176D02*
X8268267Y-15473128D01*
X8268267Y-15473128D02*
X8268267Y-15415986D01*
X8268267Y-15415986D02*
X8277791Y-15396938D01*
X8277791Y-15396938D02*
X8287315Y-15387414D01*
X8287315Y-15387414D02*
X8306363Y-15377890D01*
X8306363Y-15377890D02*
X8334934Y-15377890D01*
X8334934Y-15377890D02*
X8353982Y-15387414D01*
X8353982Y-15387414D02*
X8363506Y-15396938D01*
X8363506Y-15396938D02*
X8373029Y-15415986D01*
X8373029Y-15415986D02*
X8373029Y-15473128D01*
X8373029Y-15473128D02*
X8363506Y-15492176D01*
X8363506Y-15492176D02*
X8353982Y-15501700D01*
X8353982Y-15501700D02*
X8334934Y-15511224D01*
X8334934Y-15511224D02*
X8306363Y-15511224D01*
X8487315Y-15511224D02*
X8468268Y-15501700D01*
X8468268Y-15501700D02*
X8458744Y-15482652D01*
X8458744Y-15482652D02*
X8458744Y-15311224D01*
X8639696Y-15501700D02*
X8620649Y-15511224D01*
X8620649Y-15511224D02*
X8582553Y-15511224D01*
X8582553Y-15511224D02*
X8563506Y-15501700D01*
X8563506Y-15501700D02*
X8553982Y-15482652D01*
X8553982Y-15482652D02*
X8553982Y-15406462D01*
X8553982Y-15406462D02*
X8563506Y-15387414D01*
X8563506Y-15387414D02*
X8582553Y-15377890D01*
X8582553Y-15377890D02*
X8620649Y-15377890D01*
X8620649Y-15377890D02*
X8639696Y-15387414D01*
X8639696Y-15387414D02*
X8649220Y-15406462D01*
X8649220Y-15406462D02*
X8649220Y-15425509D01*
X8649220Y-15425509D02*
X8553982Y-15444557D01*
X8725410Y-15501700D02*
X8744458Y-15511224D01*
X8744458Y-15511224D02*
X8782553Y-15511224D01*
X8782553Y-15511224D02*
X8801601Y-15501700D01*
X8801601Y-15501700D02*
X8811125Y-15482652D01*
X8811125Y-15482652D02*
X8811125Y-15473128D01*
X8811125Y-15473128D02*
X8801601Y-15454081D01*
X8801601Y-15454081D02*
X8782553Y-15444557D01*
X8782553Y-15444557D02*
X8753982Y-15444557D01*
X8753982Y-15444557D02*
X8734934Y-15435033D01*
X8734934Y-15435033D02*
X8725410Y-15415986D01*
X8725410Y-15415986D02*
X8725410Y-15406462D01*
X8725410Y-15406462D02*
X8734934Y-15387414D01*
X8734934Y-15387414D02*
X8753982Y-15377890D01*
X8753982Y-15377890D02*
X8782553Y-15377890D01*
X8782553Y-15377890D02*
X8801601Y-15387414D01*
X8877791Y-15587414D02*
X8887315Y-15577890D01*
X8887315Y-15577890D02*
X8906363Y-15549319D01*
X8906363Y-15549319D02*
X8915887Y-15530271D01*
X8915887Y-15530271D02*
X8925410Y-15501700D01*
X8925410Y-15501700D02*
X8934934Y-15454081D01*
X8934934Y-15454081D02*
X8934934Y-15415986D01*
X8934934Y-15415986D02*
X8925410Y-15368367D01*
X8925410Y-15368367D02*
X8915887Y-15339795D01*
X8915887Y-15339795D02*
X8906363Y-15320748D01*
X8906363Y-15320748D02*
X8887315Y-15292176D01*
X8887315Y-15292176D02*
X8877791Y-15282652D01*
D10*
X3925410Y-15682700D02*
G75*
G03*
X3925410Y-15682700I-50000J0D01*
G01*
D11*
X4277791Y-15775224D02*
X4163505Y-15775224D01*
X4220648Y-15775224D02*
X4220648Y-15575224D01*
X4220648Y-15575224D02*
X4201600Y-15603795D01*
X4201600Y-15603795D02*
X4182553Y-15622843D01*
X4182553Y-15622843D02*
X4163505Y-15632367D01*
X4363505Y-15756176D02*
X4373029Y-15765700D01*
X4373029Y-15765700D02*
X4363505Y-15775224D01*
X4363505Y-15775224D02*
X4353981Y-15765700D01*
X4353981Y-15765700D02*
X4363505Y-15756176D01*
X4363505Y-15756176D02*
X4363505Y-15775224D01*
X4496839Y-15575224D02*
X4515886Y-15575224D01*
X4515886Y-15575224D02*
X4534934Y-15584748D01*
X4534934Y-15584748D02*
X4544458Y-15594271D01*
X4544458Y-15594271D02*
X4553981Y-15613319D01*
X4553981Y-15613319D02*
X4563505Y-15651414D01*
X4563505Y-15651414D02*
X4563505Y-15699033D01*
X4563505Y-15699033D02*
X4553981Y-15737128D01*
X4553981Y-15737128D02*
X4544458Y-15756176D01*
X4544458Y-15756176D02*
X4534934Y-15765700D01*
X4534934Y-15765700D02*
X4515886Y-15775224D01*
X4515886Y-15775224D02*
X4496839Y-15775224D01*
X4496839Y-15775224D02*
X4477791Y-15765700D01*
X4477791Y-15765700D02*
X4468267Y-15756176D01*
X4468267Y-15756176D02*
X4458743Y-15737128D01*
X4458743Y-15737128D02*
X4449220Y-15699033D01*
X4449220Y-15699033D02*
X4449220Y-15651414D01*
X4449220Y-15651414D02*
X4458743Y-15613319D01*
X4458743Y-15613319D02*
X4468267Y-15594271D01*
X4468267Y-15594271D02*
X4477791Y-15584748D01*
X4477791Y-15584748D02*
X4496839Y-15575224D01*
X4687315Y-15575224D02*
X4706362Y-15575224D01*
X4706362Y-15575224D02*
X4725410Y-15584748D01*
X4725410Y-15584748D02*
X4734934Y-15594271D01*
X4734934Y-15594271D02*
X4744458Y-15613319D01*
X4744458Y-15613319D02*
X4753981Y-15651414D01*
X4753981Y-15651414D02*
X4753981Y-15699033D01*
X4753981Y-15699033D02*
X4744458Y-15737128D01*
X4744458Y-15737128D02*
X4734934Y-15756176D01*
X4734934Y-15756176D02*
X4725410Y-15765700D01*
X4725410Y-15765700D02*
X4706362Y-15775224D01*
X4706362Y-15775224D02*
X4687315Y-15775224D01*
X4687315Y-15775224D02*
X4668267Y-15765700D01*
X4668267Y-15765700D02*
X4658743Y-15756176D01*
X4658743Y-15756176D02*
X4649220Y-15737128D01*
X4649220Y-15737128D02*
X4639696Y-15699033D01*
X4639696Y-15699033D02*
X4639696Y-15651414D01*
X4639696Y-15651414D02*
X4649220Y-15613319D01*
X4649220Y-15613319D02*
X4658743Y-15594271D01*
X4658743Y-15594271D02*
X4668267Y-15584748D01*
X4668267Y-15584748D02*
X4687315Y-15575224D01*
X4877791Y-15575224D02*
X4896839Y-15575224D01*
X4896839Y-15575224D02*
X4915886Y-15584748D01*
X4915886Y-15584748D02*
X4925410Y-15594271D01*
X4925410Y-15594271D02*
X4934934Y-15613319D01*
X4934934Y-15613319D02*
X4944458Y-15651414D01*
X4944458Y-15651414D02*
X4944458Y-15699033D01*
X4944458Y-15699033D02*
X4934934Y-15737128D01*
X4934934Y-15737128D02*
X4925410Y-15756176D01*
X4925410Y-15756176D02*
X4915886Y-15765700D01*
X4915886Y-15765700D02*
X4896839Y-15775224D01*
X4896839Y-15775224D02*
X4877791Y-15775224D01*
X4877791Y-15775224D02*
X4858743Y-15765700D01*
X4858743Y-15765700D02*
X4849220Y-15756176D01*
X4849220Y-15756176D02*
X4839696Y-15737128D01*
X4839696Y-15737128D02*
X4830172Y-15699033D01*
X4830172Y-15699033D02*
X4830172Y-15651414D01*
X4830172Y-15651414D02*
X4839696Y-15613319D01*
X4839696Y-15613319D02*
X4849220Y-15594271D01*
X4849220Y-15594271D02*
X4858743Y-15584748D01*
X4858743Y-15584748D02*
X4877791Y-15575224D01*
X5030172Y-15775224D02*
X5030172Y-15641890D01*
X5030172Y-15660938D02*
X5039696Y-15651414D01*
X5039696Y-15651414D02*
X5058743Y-15641890D01*
X5058743Y-15641890D02*
X5087315Y-15641890D01*
X5087315Y-15641890D02*
X5106362Y-15651414D01*
X5106362Y-15651414D02*
X5115886Y-15670462D01*
X5115886Y-15670462D02*
X5115886Y-15775224D01*
X5115886Y-15670462D02*
X5125410Y-15651414D01*
X5125410Y-15651414D02*
X5144458Y-15641890D01*
X5144458Y-15641890D02*
X5173029Y-15641890D01*
X5173029Y-15641890D02*
X5192077Y-15651414D01*
X5192077Y-15651414D02*
X5201601Y-15670462D01*
X5201601Y-15670462D02*
X5201601Y-15775224D01*
X5296839Y-15775224D02*
X5296839Y-15641890D01*
X5296839Y-15660938D02*
X5306362Y-15651414D01*
X5306362Y-15651414D02*
X5325410Y-15641890D01*
X5325410Y-15641890D02*
X5353982Y-15641890D01*
X5353982Y-15641890D02*
X5373029Y-15651414D01*
X5373029Y-15651414D02*
X5382553Y-15670462D01*
X5382553Y-15670462D02*
X5382553Y-15775224D01*
X5382553Y-15670462D02*
X5392077Y-15651414D01*
X5392077Y-15651414D02*
X5411124Y-15641890D01*
X5411124Y-15641890D02*
X5439696Y-15641890D01*
X5439696Y-15641890D02*
X5458743Y-15651414D01*
X5458743Y-15651414D02*
X5468267Y-15670462D01*
X5468267Y-15670462D02*
X5468267Y-15775224D01*
X5858743Y-15565700D02*
X5687315Y-15822843D01*
X6115886Y-15575224D02*
X6134934Y-15575224D01*
X6134934Y-15575224D02*
X6153982Y-15584748D01*
X6153982Y-15584748D02*
X6163505Y-15594271D01*
X6163505Y-15594271D02*
X6173029Y-15613319D01*
X6173029Y-15613319D02*
X6182553Y-15651414D01*
X6182553Y-15651414D02*
X6182553Y-15699033D01*
X6182553Y-15699033D02*
X6173029Y-15737128D01*
X6173029Y-15737128D02*
X6163505Y-15756176D01*
X6163505Y-15756176D02*
X6153982Y-15765700D01*
X6153982Y-15765700D02*
X6134934Y-15775224D01*
X6134934Y-15775224D02*
X6115886Y-15775224D01*
X6115886Y-15775224D02*
X6096839Y-15765700D01*
X6096839Y-15765700D02*
X6087315Y-15756176D01*
X6087315Y-15756176D02*
X6077791Y-15737128D01*
X6077791Y-15737128D02*
X6068267Y-15699033D01*
X6068267Y-15699033D02*
X6068267Y-15651414D01*
X6068267Y-15651414D02*
X6077791Y-15613319D01*
X6077791Y-15613319D02*
X6087315Y-15594271D01*
X6087315Y-15594271D02*
X6096839Y-15584748D01*
X6096839Y-15584748D02*
X6115886Y-15575224D01*
X6268267Y-15756176D02*
X6277791Y-15765700D01*
X6277791Y-15765700D02*
X6268267Y-15775224D01*
X6268267Y-15775224D02*
X6258743Y-15765700D01*
X6258743Y-15765700D02*
X6268267Y-15756176D01*
X6268267Y-15756176D02*
X6268267Y-15775224D01*
X6401601Y-15575224D02*
X6420648Y-15575224D01*
X6420648Y-15575224D02*
X6439696Y-15584748D01*
X6439696Y-15584748D02*
X6449220Y-15594271D01*
X6449220Y-15594271D02*
X6458743Y-15613319D01*
X6458743Y-15613319D02*
X6468267Y-15651414D01*
X6468267Y-15651414D02*
X6468267Y-15699033D01*
X6468267Y-15699033D02*
X6458743Y-15737128D01*
X6458743Y-15737128D02*
X6449220Y-15756176D01*
X6449220Y-15756176D02*
X6439696Y-15765700D01*
X6439696Y-15765700D02*
X6420648Y-15775224D01*
X6420648Y-15775224D02*
X6401601Y-15775224D01*
X6401601Y-15775224D02*
X6382553Y-15765700D01*
X6382553Y-15765700D02*
X6373029Y-15756176D01*
X6373029Y-15756176D02*
X6363505Y-15737128D01*
X6363505Y-15737128D02*
X6353982Y-15699033D01*
X6353982Y-15699033D02*
X6353982Y-15651414D01*
X6353982Y-15651414D02*
X6363505Y-15613319D01*
X6363505Y-15613319D02*
X6373029Y-15594271D01*
X6373029Y-15594271D02*
X6382553Y-15584748D01*
X6382553Y-15584748D02*
X6401601Y-15575224D01*
X6534934Y-15575224D02*
X6658743Y-15575224D01*
X6658743Y-15575224D02*
X6592077Y-15651414D01*
X6592077Y-15651414D02*
X6620648Y-15651414D01*
X6620648Y-15651414D02*
X6639696Y-15660938D01*
X6639696Y-15660938D02*
X6649220Y-15670462D01*
X6649220Y-15670462D02*
X6658743Y-15689509D01*
X6658743Y-15689509D02*
X6658743Y-15737128D01*
X6658743Y-15737128D02*
X6649220Y-15756176D01*
X6649220Y-15756176D02*
X6639696Y-15765700D01*
X6639696Y-15765700D02*
X6620648Y-15775224D01*
X6620648Y-15775224D02*
X6563505Y-15775224D01*
X6563505Y-15775224D02*
X6544458Y-15765700D01*
X6544458Y-15765700D02*
X6534934Y-15756176D01*
X6753982Y-15775224D02*
X6792077Y-15775224D01*
X6792077Y-15775224D02*
X6811124Y-15765700D01*
X6811124Y-15765700D02*
X6820648Y-15756176D01*
X6820648Y-15756176D02*
X6839696Y-15727605D01*
X6839696Y-15727605D02*
X6849220Y-15689509D01*
X6849220Y-15689509D02*
X6849220Y-15613319D01*
X6849220Y-15613319D02*
X6839696Y-15594271D01*
X6839696Y-15594271D02*
X6830172Y-15584748D01*
X6830172Y-15584748D02*
X6811124Y-15575224D01*
X6811124Y-15575224D02*
X6773029Y-15575224D01*
X6773029Y-15575224D02*
X6753982Y-15584748D01*
X6753982Y-15584748D02*
X6744458Y-15594271D01*
X6744458Y-15594271D02*
X6734934Y-15613319D01*
X6734934Y-15613319D02*
X6734934Y-15660938D01*
X6734934Y-15660938D02*
X6744458Y-15679986D01*
X6744458Y-15679986D02*
X6753982Y-15689509D01*
X6753982Y-15689509D02*
X6773029Y-15699033D01*
X6773029Y-15699033D02*
X6811124Y-15699033D01*
X6811124Y-15699033D02*
X6830172Y-15689509D01*
X6830172Y-15689509D02*
X6839696Y-15679986D01*
X6839696Y-15679986D02*
X6849220Y-15660938D01*
X7020648Y-15641890D02*
X7020648Y-15775224D01*
X6973029Y-15565700D02*
X6925410Y-15708557D01*
X6925410Y-15708557D02*
X7049220Y-15708557D01*
X7115886Y-15575224D02*
X7115886Y-15613319D01*
X7192077Y-15575224D02*
X7192077Y-15613319D01*
X7487315Y-15851414D02*
X7477791Y-15841890D01*
X7477791Y-15841890D02*
X7458744Y-15813319D01*
X7458744Y-15813319D02*
X7449220Y-15794271D01*
X7449220Y-15794271D02*
X7439696Y-15765700D01*
X7439696Y-15765700D02*
X7430172Y-15718081D01*
X7430172Y-15718081D02*
X7430172Y-15679986D01*
X7430172Y-15679986D02*
X7439696Y-15632367D01*
X7439696Y-15632367D02*
X7449220Y-15603795D01*
X7449220Y-15603795D02*
X7458744Y-15584748D01*
X7458744Y-15584748D02*
X7477791Y-15556176D01*
X7477791Y-15556176D02*
X7487315Y-15546652D01*
X7553982Y-15594271D02*
X7563505Y-15584748D01*
X7563505Y-15584748D02*
X7582553Y-15575224D01*
X7582553Y-15575224D02*
X7630172Y-15575224D01*
X7630172Y-15575224D02*
X7649220Y-15584748D01*
X7649220Y-15584748D02*
X7658744Y-15594271D01*
X7658744Y-15594271D02*
X7668267Y-15613319D01*
X7668267Y-15613319D02*
X7668267Y-15632367D01*
X7668267Y-15632367D02*
X7658744Y-15660938D01*
X7658744Y-15660938D02*
X7544458Y-15775224D01*
X7544458Y-15775224D02*
X7668267Y-15775224D01*
X7839696Y-15641890D02*
X7839696Y-15775224D01*
X7792077Y-15565700D02*
X7744458Y-15708557D01*
X7744458Y-15708557D02*
X7868267Y-15708557D01*
X8096839Y-15775224D02*
X8096839Y-15575224D01*
X8182553Y-15775224D02*
X8182553Y-15670462D01*
X8182553Y-15670462D02*
X8173029Y-15651414D01*
X8173029Y-15651414D02*
X8153982Y-15641890D01*
X8153982Y-15641890D02*
X8125410Y-15641890D01*
X8125410Y-15641890D02*
X8106363Y-15651414D01*
X8106363Y-15651414D02*
X8096839Y-15660938D01*
X8306363Y-15775224D02*
X8287315Y-15765700D01*
X8287315Y-15765700D02*
X8277791Y-15756176D01*
X8277791Y-15756176D02*
X8268267Y-15737128D01*
X8268267Y-15737128D02*
X8268267Y-15679986D01*
X8268267Y-15679986D02*
X8277791Y-15660938D01*
X8277791Y-15660938D02*
X8287315Y-15651414D01*
X8287315Y-15651414D02*
X8306363Y-15641890D01*
X8306363Y-15641890D02*
X8334934Y-15641890D01*
X8334934Y-15641890D02*
X8353982Y-15651414D01*
X8353982Y-15651414D02*
X8363506Y-15660938D01*
X8363506Y-15660938D02*
X8373029Y-15679986D01*
X8373029Y-15679986D02*
X8373029Y-15737128D01*
X8373029Y-15737128D02*
X8363506Y-15756176D01*
X8363506Y-15756176D02*
X8353982Y-15765700D01*
X8353982Y-15765700D02*
X8334934Y-15775224D01*
X8334934Y-15775224D02*
X8306363Y-15775224D01*
X8487315Y-15775224D02*
X8468268Y-15765700D01*
X8468268Y-15765700D02*
X8458744Y-15746652D01*
X8458744Y-15746652D02*
X8458744Y-15575224D01*
X8639696Y-15765700D02*
X8620649Y-15775224D01*
X8620649Y-15775224D02*
X8582553Y-15775224D01*
X8582553Y-15775224D02*
X8563506Y-15765700D01*
X8563506Y-15765700D02*
X8553982Y-15746652D01*
X8553982Y-15746652D02*
X8553982Y-15670462D01*
X8553982Y-15670462D02*
X8563506Y-15651414D01*
X8563506Y-15651414D02*
X8582553Y-15641890D01*
X8582553Y-15641890D02*
X8620649Y-15641890D01*
X8620649Y-15641890D02*
X8639696Y-15651414D01*
X8639696Y-15651414D02*
X8649220Y-15670462D01*
X8649220Y-15670462D02*
X8649220Y-15689509D01*
X8649220Y-15689509D02*
X8553982Y-15708557D01*
X8725410Y-15765700D02*
X8744458Y-15775224D01*
X8744458Y-15775224D02*
X8782553Y-15775224D01*
X8782553Y-15775224D02*
X8801601Y-15765700D01*
X8801601Y-15765700D02*
X8811125Y-15746652D01*
X8811125Y-15746652D02*
X8811125Y-15737128D01*
X8811125Y-15737128D02*
X8801601Y-15718081D01*
X8801601Y-15718081D02*
X8782553Y-15708557D01*
X8782553Y-15708557D02*
X8753982Y-15708557D01*
X8753982Y-15708557D02*
X8734934Y-15699033D01*
X8734934Y-15699033D02*
X8725410Y-15679986D01*
X8725410Y-15679986D02*
X8725410Y-15670462D01*
X8725410Y-15670462D02*
X8734934Y-15651414D01*
X8734934Y-15651414D02*
X8753982Y-15641890D01*
X8753982Y-15641890D02*
X8782553Y-15641890D01*
X8782553Y-15641890D02*
X8801601Y-15651414D01*
X8877791Y-15851414D02*
X8887315Y-15841890D01*
X8887315Y-15841890D02*
X8906363Y-15813319D01*
X8906363Y-15813319D02*
X8915887Y-15794271D01*
X8915887Y-15794271D02*
X8925410Y-15765700D01*
X8925410Y-15765700D02*
X8934934Y-15718081D01*
X8934934Y-15718081D02*
X8934934Y-15679986D01*
X8934934Y-15679986D02*
X8925410Y-15632367D01*
X8925410Y-15632367D02*
X8915887Y-15603795D01*
X8915887Y-15603795D02*
X8906363Y-15584748D01*
X8906363Y-15584748D02*
X8887315Y-15556176D01*
X8887315Y-15556176D02*
X8877791Y-15546652D01*
D13*
X3870410Y-15891700D02*
X3870410Y-16001700D01*
X3815410Y-15946700D02*
X3925410Y-15946700D01*
D11*
X4277791Y-16039224D02*
X4163505Y-16039224D01*
X4220648Y-16039224D02*
X4220648Y-15839224D01*
X4220648Y-15839224D02*
X4201600Y-15867795D01*
X4201600Y-15867795D02*
X4182553Y-15886843D01*
X4182553Y-15886843D02*
X4163505Y-15896367D01*
X4363505Y-16020176D02*
X4373029Y-16029700D01*
X4373029Y-16029700D02*
X4363505Y-16039224D01*
X4363505Y-16039224D02*
X4353981Y-16029700D01*
X4353981Y-16029700D02*
X4363505Y-16020176D01*
X4363505Y-16020176D02*
X4363505Y-16039224D01*
X4563505Y-16039224D02*
X4449220Y-16039224D01*
X4506362Y-16039224D02*
X4506362Y-15839224D01*
X4506362Y-15839224D02*
X4487315Y-15867795D01*
X4487315Y-15867795D02*
X4468267Y-15886843D01*
X4468267Y-15886843D02*
X4449220Y-15896367D01*
X4687315Y-15839224D02*
X4706362Y-15839224D01*
X4706362Y-15839224D02*
X4725410Y-15848748D01*
X4725410Y-15848748D02*
X4734934Y-15858271D01*
X4734934Y-15858271D02*
X4744458Y-15877319D01*
X4744458Y-15877319D02*
X4753981Y-15915414D01*
X4753981Y-15915414D02*
X4753981Y-15963033D01*
X4753981Y-15963033D02*
X4744458Y-16001128D01*
X4744458Y-16001128D02*
X4734934Y-16020176D01*
X4734934Y-16020176D02*
X4725410Y-16029700D01*
X4725410Y-16029700D02*
X4706362Y-16039224D01*
X4706362Y-16039224D02*
X4687315Y-16039224D01*
X4687315Y-16039224D02*
X4668267Y-16029700D01*
X4668267Y-16029700D02*
X4658743Y-16020176D01*
X4658743Y-16020176D02*
X4649220Y-16001128D01*
X4649220Y-16001128D02*
X4639696Y-15963033D01*
X4639696Y-15963033D02*
X4639696Y-15915414D01*
X4639696Y-15915414D02*
X4649220Y-15877319D01*
X4649220Y-15877319D02*
X4658743Y-15858271D01*
X4658743Y-15858271D02*
X4668267Y-15848748D01*
X4668267Y-15848748D02*
X4687315Y-15839224D01*
X4877791Y-15839224D02*
X4896839Y-15839224D01*
X4896839Y-15839224D02*
X4915886Y-15848748D01*
X4915886Y-15848748D02*
X4925410Y-15858271D01*
X4925410Y-15858271D02*
X4934934Y-15877319D01*
X4934934Y-15877319D02*
X4944458Y-15915414D01*
X4944458Y-15915414D02*
X4944458Y-15963033D01*
X4944458Y-15963033D02*
X4934934Y-16001128D01*
X4934934Y-16001128D02*
X4925410Y-16020176D01*
X4925410Y-16020176D02*
X4915886Y-16029700D01*
X4915886Y-16029700D02*
X4896839Y-16039224D01*
X4896839Y-16039224D02*
X4877791Y-16039224D01*
X4877791Y-16039224D02*
X4858743Y-16029700D01*
X4858743Y-16029700D02*
X4849220Y-16020176D01*
X4849220Y-16020176D02*
X4839696Y-16001128D01*
X4839696Y-16001128D02*
X4830172Y-15963033D01*
X4830172Y-15963033D02*
X4830172Y-15915414D01*
X4830172Y-15915414D02*
X4839696Y-15877319D01*
X4839696Y-15877319D02*
X4849220Y-15858271D01*
X4849220Y-15858271D02*
X4858743Y-15848748D01*
X4858743Y-15848748D02*
X4877791Y-15839224D01*
X5030172Y-16039224D02*
X5030172Y-15905890D01*
X5030172Y-15924938D02*
X5039696Y-15915414D01*
X5039696Y-15915414D02*
X5058743Y-15905890D01*
X5058743Y-15905890D02*
X5087315Y-15905890D01*
X5087315Y-15905890D02*
X5106362Y-15915414D01*
X5106362Y-15915414D02*
X5115886Y-15934462D01*
X5115886Y-15934462D02*
X5115886Y-16039224D01*
X5115886Y-15934462D02*
X5125410Y-15915414D01*
X5125410Y-15915414D02*
X5144458Y-15905890D01*
X5144458Y-15905890D02*
X5173029Y-15905890D01*
X5173029Y-15905890D02*
X5192077Y-15915414D01*
X5192077Y-15915414D02*
X5201601Y-15934462D01*
X5201601Y-15934462D02*
X5201601Y-16039224D01*
X5296839Y-16039224D02*
X5296839Y-15905890D01*
X5296839Y-15924938D02*
X5306362Y-15915414D01*
X5306362Y-15915414D02*
X5325410Y-15905890D01*
X5325410Y-15905890D02*
X5353982Y-15905890D01*
X5353982Y-15905890D02*
X5373029Y-15915414D01*
X5373029Y-15915414D02*
X5382553Y-15934462D01*
X5382553Y-15934462D02*
X5382553Y-16039224D01*
X5382553Y-15934462D02*
X5392077Y-15915414D01*
X5392077Y-15915414D02*
X5411124Y-15905890D01*
X5411124Y-15905890D02*
X5439696Y-15905890D01*
X5439696Y-15905890D02*
X5458743Y-15915414D01*
X5458743Y-15915414D02*
X5468267Y-15934462D01*
X5468267Y-15934462D02*
X5468267Y-16039224D01*
X5858743Y-15829700D02*
X5687315Y-16086843D01*
X6115886Y-15839224D02*
X6134934Y-15839224D01*
X6134934Y-15839224D02*
X6153982Y-15848748D01*
X6153982Y-15848748D02*
X6163505Y-15858271D01*
X6163505Y-15858271D02*
X6173029Y-15877319D01*
X6173029Y-15877319D02*
X6182553Y-15915414D01*
X6182553Y-15915414D02*
X6182553Y-15963033D01*
X6182553Y-15963033D02*
X6173029Y-16001128D01*
X6173029Y-16001128D02*
X6163505Y-16020176D01*
X6163505Y-16020176D02*
X6153982Y-16029700D01*
X6153982Y-16029700D02*
X6134934Y-16039224D01*
X6134934Y-16039224D02*
X6115886Y-16039224D01*
X6115886Y-16039224D02*
X6096839Y-16029700D01*
X6096839Y-16029700D02*
X6087315Y-16020176D01*
X6087315Y-16020176D02*
X6077791Y-16001128D01*
X6077791Y-16001128D02*
X6068267Y-15963033D01*
X6068267Y-15963033D02*
X6068267Y-15915414D01*
X6068267Y-15915414D02*
X6077791Y-15877319D01*
X6077791Y-15877319D02*
X6087315Y-15858271D01*
X6087315Y-15858271D02*
X6096839Y-15848748D01*
X6096839Y-15848748D02*
X6115886Y-15839224D01*
X6268267Y-16020176D02*
X6277791Y-16029700D01*
X6277791Y-16029700D02*
X6268267Y-16039224D01*
X6268267Y-16039224D02*
X6258743Y-16029700D01*
X6258743Y-16029700D02*
X6268267Y-16020176D01*
X6268267Y-16020176D02*
X6268267Y-16039224D01*
X6401601Y-15839224D02*
X6420648Y-15839224D01*
X6420648Y-15839224D02*
X6439696Y-15848748D01*
X6439696Y-15848748D02*
X6449220Y-15858271D01*
X6449220Y-15858271D02*
X6458743Y-15877319D01*
X6458743Y-15877319D02*
X6468267Y-15915414D01*
X6468267Y-15915414D02*
X6468267Y-15963033D01*
X6468267Y-15963033D02*
X6458743Y-16001128D01*
X6458743Y-16001128D02*
X6449220Y-16020176D01*
X6449220Y-16020176D02*
X6439696Y-16029700D01*
X6439696Y-16029700D02*
X6420648Y-16039224D01*
X6420648Y-16039224D02*
X6401601Y-16039224D01*
X6401601Y-16039224D02*
X6382553Y-16029700D01*
X6382553Y-16029700D02*
X6373029Y-16020176D01*
X6373029Y-16020176D02*
X6363505Y-16001128D01*
X6363505Y-16001128D02*
X6353982Y-15963033D01*
X6353982Y-15963033D02*
X6353982Y-15915414D01*
X6353982Y-15915414D02*
X6363505Y-15877319D01*
X6363505Y-15877319D02*
X6373029Y-15858271D01*
X6373029Y-15858271D02*
X6382553Y-15848748D01*
X6382553Y-15848748D02*
X6401601Y-15839224D01*
X6639696Y-15905890D02*
X6639696Y-16039224D01*
X6592077Y-15829700D02*
X6544458Y-15972557D01*
X6544458Y-15972557D02*
X6668267Y-15972557D01*
X6725410Y-15839224D02*
X6849220Y-15839224D01*
X6849220Y-15839224D02*
X6782553Y-15915414D01*
X6782553Y-15915414D02*
X6811124Y-15915414D01*
X6811124Y-15915414D02*
X6830172Y-15924938D01*
X6830172Y-15924938D02*
X6839696Y-15934462D01*
X6839696Y-15934462D02*
X6849220Y-15953509D01*
X6849220Y-15953509D02*
X6849220Y-16001128D01*
X6849220Y-16001128D02*
X6839696Y-16020176D01*
X6839696Y-16020176D02*
X6830172Y-16029700D01*
X6830172Y-16029700D02*
X6811124Y-16039224D01*
X6811124Y-16039224D02*
X6753982Y-16039224D01*
X6753982Y-16039224D02*
X6734934Y-16029700D01*
X6734934Y-16029700D02*
X6725410Y-16020176D01*
X6915886Y-15839224D02*
X7039696Y-15839224D01*
X7039696Y-15839224D02*
X6973029Y-15915414D01*
X6973029Y-15915414D02*
X7001601Y-15915414D01*
X7001601Y-15915414D02*
X7020648Y-15924938D01*
X7020648Y-15924938D02*
X7030172Y-15934462D01*
X7030172Y-15934462D02*
X7039696Y-15953509D01*
X7039696Y-15953509D02*
X7039696Y-16001128D01*
X7039696Y-16001128D02*
X7030172Y-16020176D01*
X7030172Y-16020176D02*
X7020648Y-16029700D01*
X7020648Y-16029700D02*
X7001601Y-16039224D01*
X7001601Y-16039224D02*
X6944458Y-16039224D01*
X6944458Y-16039224D02*
X6925410Y-16029700D01*
X6925410Y-16029700D02*
X6915886Y-16020176D01*
X7115886Y-15839224D02*
X7115886Y-15877319D01*
X7192077Y-15839224D02*
X7192077Y-15877319D01*
X7487315Y-16115414D02*
X7477791Y-16105890D01*
X7477791Y-16105890D02*
X7458744Y-16077319D01*
X7458744Y-16077319D02*
X7449220Y-16058271D01*
X7449220Y-16058271D02*
X7439696Y-16029700D01*
X7439696Y-16029700D02*
X7430172Y-15982081D01*
X7430172Y-15982081D02*
X7430172Y-15943986D01*
X7430172Y-15943986D02*
X7439696Y-15896367D01*
X7439696Y-15896367D02*
X7449220Y-15867795D01*
X7449220Y-15867795D02*
X7458744Y-15848748D01*
X7458744Y-15848748D02*
X7477791Y-15820176D01*
X7477791Y-15820176D02*
X7487315Y-15810652D01*
X7553982Y-15858271D02*
X7563505Y-15848748D01*
X7563505Y-15848748D02*
X7582553Y-15839224D01*
X7582553Y-15839224D02*
X7630172Y-15839224D01*
X7630172Y-15839224D02*
X7649220Y-15848748D01*
X7649220Y-15848748D02*
X7658744Y-15858271D01*
X7658744Y-15858271D02*
X7668267Y-15877319D01*
X7668267Y-15877319D02*
X7668267Y-15896367D01*
X7668267Y-15896367D02*
X7658744Y-15924938D01*
X7658744Y-15924938D02*
X7544458Y-16039224D01*
X7544458Y-16039224D02*
X7668267Y-16039224D01*
X7839696Y-15905890D02*
X7839696Y-16039224D01*
X7792077Y-15829700D02*
X7744458Y-15972557D01*
X7744458Y-15972557D02*
X7868267Y-15972557D01*
X7982553Y-15839224D02*
X8001601Y-15839224D01*
X8001601Y-15839224D02*
X8020648Y-15848748D01*
X8020648Y-15848748D02*
X8030172Y-15858271D01*
X8030172Y-15858271D02*
X8039696Y-15877319D01*
X8039696Y-15877319D02*
X8049220Y-15915414D01*
X8049220Y-15915414D02*
X8049220Y-15963033D01*
X8049220Y-15963033D02*
X8039696Y-16001128D01*
X8039696Y-16001128D02*
X8030172Y-16020176D01*
X8030172Y-16020176D02*
X8020648Y-16029700D01*
X8020648Y-16029700D02*
X8001601Y-16039224D01*
X8001601Y-16039224D02*
X7982553Y-16039224D01*
X7982553Y-16039224D02*
X7963505Y-16029700D01*
X7963505Y-16029700D02*
X7953982Y-16020176D01*
X7953982Y-16020176D02*
X7944458Y-16001128D01*
X7944458Y-16001128D02*
X7934934Y-15963033D01*
X7934934Y-15963033D02*
X7934934Y-15915414D01*
X7934934Y-15915414D02*
X7944458Y-15877319D01*
X7944458Y-15877319D02*
X7953982Y-15858271D01*
X7953982Y-15858271D02*
X7963505Y-15848748D01*
X7963505Y-15848748D02*
X7982553Y-15839224D01*
X8287315Y-16039224D02*
X8287315Y-15839224D01*
X8373029Y-16039224D02*
X8373029Y-15934462D01*
X8373029Y-15934462D02*
X8363506Y-15915414D01*
X8363506Y-15915414D02*
X8344458Y-15905890D01*
X8344458Y-15905890D02*
X8315886Y-15905890D01*
X8315886Y-15905890D02*
X8296839Y-15915414D01*
X8296839Y-15915414D02*
X8287315Y-15924938D01*
X8496839Y-16039224D02*
X8477791Y-16029700D01*
X8477791Y-16029700D02*
X8468268Y-16020176D01*
X8468268Y-16020176D02*
X8458744Y-16001128D01*
X8458744Y-16001128D02*
X8458744Y-15943986D01*
X8458744Y-15943986D02*
X8468268Y-15924938D01*
X8468268Y-15924938D02*
X8477791Y-15915414D01*
X8477791Y-15915414D02*
X8496839Y-15905890D01*
X8496839Y-15905890D02*
X8525410Y-15905890D01*
X8525410Y-15905890D02*
X8544458Y-15915414D01*
X8544458Y-15915414D02*
X8553982Y-15924938D01*
X8553982Y-15924938D02*
X8563506Y-15943986D01*
X8563506Y-15943986D02*
X8563506Y-16001128D01*
X8563506Y-16001128D02*
X8553982Y-16020176D01*
X8553982Y-16020176D02*
X8544458Y-16029700D01*
X8544458Y-16029700D02*
X8525410Y-16039224D01*
X8525410Y-16039224D02*
X8496839Y-16039224D01*
X8677791Y-16039224D02*
X8658744Y-16029700D01*
X8658744Y-16029700D02*
X8649220Y-16010652D01*
X8649220Y-16010652D02*
X8649220Y-15839224D01*
X8830172Y-16029700D02*
X8811125Y-16039224D01*
X8811125Y-16039224D02*
X8773029Y-16039224D01*
X8773029Y-16039224D02*
X8753982Y-16029700D01*
X8753982Y-16029700D02*
X8744458Y-16010652D01*
X8744458Y-16010652D02*
X8744458Y-15934462D01*
X8744458Y-15934462D02*
X8753982Y-15915414D01*
X8753982Y-15915414D02*
X8773029Y-15905890D01*
X8773029Y-15905890D02*
X8811125Y-15905890D01*
X8811125Y-15905890D02*
X8830172Y-15915414D01*
X8830172Y-15915414D02*
X8839696Y-15934462D01*
X8839696Y-15934462D02*
X8839696Y-15953509D01*
X8839696Y-15953509D02*
X8744458Y-15972557D01*
X8915887Y-16029700D02*
X8934934Y-16039224D01*
X8934934Y-16039224D02*
X8973029Y-16039224D01*
X8973029Y-16039224D02*
X8992077Y-16029700D01*
X8992077Y-16029700D02*
X9001601Y-16010652D01*
X9001601Y-16010652D02*
X9001601Y-16001128D01*
X9001601Y-16001128D02*
X8992077Y-15982081D01*
X8992077Y-15982081D02*
X8973029Y-15972557D01*
X8973029Y-15972557D02*
X8944458Y-15972557D01*
X8944458Y-15972557D02*
X8925410Y-15963033D01*
X8925410Y-15963033D02*
X8915887Y-15943986D01*
X8915887Y-15943986D02*
X8915887Y-15934462D01*
X8915887Y-15934462D02*
X8925410Y-15915414D01*
X8925410Y-15915414D02*
X8944458Y-15905890D01*
X8944458Y-15905890D02*
X8973029Y-15905890D01*
X8973029Y-15905890D02*
X8992077Y-15915414D01*
X9068268Y-16115414D02*
X9077791Y-16105890D01*
X9077791Y-16105890D02*
X9096839Y-16077319D01*
X9096839Y-16077319D02*
X9106363Y-16058271D01*
X9106363Y-16058271D02*
X9115887Y-16029700D01*
X9115887Y-16029700D02*
X9125410Y-15982081D01*
X9125410Y-15982081D02*
X9125410Y-15943986D01*
X9125410Y-15943986D02*
X9115887Y-15896367D01*
X9115887Y-15896367D02*
X9106363Y-15867795D01*
X9106363Y-15867795D02*
X9096839Y-15848748D01*
X9096839Y-15848748D02*
X9077791Y-15820176D01*
X9077791Y-15820176D02*
X9068268Y-15810652D01*
M02*
