%TF.GenerationSoftware,KiCad,Pcbnew,7.0.1*%
%TF.CreationDate,2023-09-25T23:55:46+03:00*%
%TF.ProjectId,keyboard_test,6b657962-6f61-4726-945f-746573742e6b,rev?*%
%TF.SameCoordinates,Original*%
%TF.FileFunction,Drillmap*%
%TF.FilePolarity,Positive*%
%FSLAX45Y45*%
G04 Gerber Fmt 4.5, Leading zero omitted, Abs format (unit mm)*
G04 Created by KiCad (PCBNEW 7.0.1) date 2023-09-25 23:55:46*
%MOMM*%
%LPD*%
G01*
G04 APERTURE LIST*
%ADD10C,0.100000*%
%ADD11C,0.200000*%
%ADD12C,0.320000*%
G04 APERTURE END LIST*
D10*
X3930410Y-8075720D02*
X17229850Y-8075720D01*
X17229850Y-14773700D01*
X3930410Y-14773700D01*
X3930410Y-8075720D01*
D11*
D12*
X4110770Y-8395780D02*
X4430770Y-8715780D01*
X4430770Y-8395780D02*
X4110770Y-8715780D01*
X4110770Y-12830620D02*
X4430770Y-13150620D01*
X4430770Y-12830620D02*
X4110770Y-13150620D01*
X16747270Y-8395780D02*
X17067270Y-8715780D01*
X17067270Y-8395780D02*
X16747270Y-8715780D01*
X16747270Y-12830620D02*
X17067270Y-13150620D01*
X17067270Y-12830620D02*
X16747270Y-13150620D01*
D11*
X4173029Y-15091224D02*
X4173029Y-14891224D01*
X4173029Y-14891224D02*
X4220648Y-14891224D01*
X4220648Y-14891224D02*
X4249220Y-14900748D01*
X4249220Y-14900748D02*
X4268267Y-14919795D01*
X4268267Y-14919795D02*
X4277791Y-14938843D01*
X4277791Y-14938843D02*
X4287315Y-14976938D01*
X4287315Y-14976938D02*
X4287315Y-15005509D01*
X4287315Y-15005509D02*
X4277791Y-15043605D01*
X4277791Y-15043605D02*
X4268267Y-15062652D01*
X4268267Y-15062652D02*
X4249220Y-15081700D01*
X4249220Y-15081700D02*
X4220648Y-15091224D01*
X4220648Y-15091224D02*
X4173029Y-15091224D01*
X4373029Y-15091224D02*
X4373029Y-14957890D01*
X4373029Y-14995986D02*
X4382553Y-14976938D01*
X4382553Y-14976938D02*
X4392077Y-14967414D01*
X4392077Y-14967414D02*
X4411124Y-14957890D01*
X4411124Y-14957890D02*
X4430172Y-14957890D01*
X4496839Y-15091224D02*
X4496839Y-14957890D01*
X4496839Y-14891224D02*
X4487315Y-14900748D01*
X4487315Y-14900748D02*
X4496839Y-14910271D01*
X4496839Y-14910271D02*
X4506362Y-14900748D01*
X4506362Y-14900748D02*
X4496839Y-14891224D01*
X4496839Y-14891224D02*
X4496839Y-14910271D01*
X4620648Y-15091224D02*
X4601600Y-15081700D01*
X4601600Y-15081700D02*
X4592077Y-15062652D01*
X4592077Y-15062652D02*
X4592077Y-14891224D01*
X4725410Y-15091224D02*
X4706362Y-15081700D01*
X4706362Y-15081700D02*
X4696839Y-15062652D01*
X4696839Y-15062652D02*
X4696839Y-14891224D01*
X4953981Y-15091224D02*
X4953981Y-14891224D01*
X4953981Y-14891224D02*
X5020648Y-15034081D01*
X5020648Y-15034081D02*
X5087315Y-14891224D01*
X5087315Y-14891224D02*
X5087315Y-15091224D01*
X5268267Y-15091224D02*
X5268267Y-14986462D01*
X5268267Y-14986462D02*
X5258743Y-14967414D01*
X5258743Y-14967414D02*
X5239696Y-14957890D01*
X5239696Y-14957890D02*
X5201600Y-14957890D01*
X5201600Y-14957890D02*
X5182553Y-14967414D01*
X5268267Y-15081700D02*
X5249220Y-15091224D01*
X5249220Y-15091224D02*
X5201600Y-15091224D01*
X5201600Y-15091224D02*
X5182553Y-15081700D01*
X5182553Y-15081700D02*
X5173029Y-15062652D01*
X5173029Y-15062652D02*
X5173029Y-15043605D01*
X5173029Y-15043605D02*
X5182553Y-15024557D01*
X5182553Y-15024557D02*
X5201600Y-15015033D01*
X5201600Y-15015033D02*
X5249220Y-15015033D01*
X5249220Y-15015033D02*
X5268267Y-15005509D01*
X5363505Y-14957890D02*
X5363505Y-15157890D01*
X5363505Y-14967414D02*
X5382553Y-14957890D01*
X5382553Y-14957890D02*
X5420648Y-14957890D01*
X5420648Y-14957890D02*
X5439696Y-14967414D01*
X5439696Y-14967414D02*
X5449220Y-14976938D01*
X5449220Y-14976938D02*
X5458743Y-14995986D01*
X5458743Y-14995986D02*
X5458743Y-15053128D01*
X5458743Y-15053128D02*
X5449220Y-15072176D01*
X5449220Y-15072176D02*
X5439696Y-15081700D01*
X5439696Y-15081700D02*
X5420648Y-15091224D01*
X5420648Y-15091224D02*
X5382553Y-15091224D01*
X5382553Y-15091224D02*
X5363505Y-15081700D01*
X5544458Y-15072176D02*
X5553981Y-15081700D01*
X5553981Y-15081700D02*
X5544458Y-15091224D01*
X5544458Y-15091224D02*
X5534934Y-15081700D01*
X5534934Y-15081700D02*
X5544458Y-15072176D01*
X5544458Y-15072176D02*
X5544458Y-15091224D01*
X5544458Y-14967414D02*
X5553981Y-14976938D01*
X5553981Y-14976938D02*
X5544458Y-14986462D01*
X5544458Y-14986462D02*
X5534934Y-14976938D01*
X5534934Y-14976938D02*
X5544458Y-14967414D01*
X5544458Y-14967414D02*
X5544458Y-14986462D01*
X3725410Y-15318700D02*
X3925410Y-15518700D01*
X3925410Y-15318700D02*
X3725410Y-15518700D01*
X4153981Y-15311224D02*
X4277791Y-15311224D01*
X4277791Y-15311224D02*
X4211124Y-15387414D01*
X4211124Y-15387414D02*
X4239696Y-15387414D01*
X4239696Y-15387414D02*
X4258743Y-15396938D01*
X4258743Y-15396938D02*
X4268267Y-15406462D01*
X4268267Y-15406462D02*
X4277791Y-15425509D01*
X4277791Y-15425509D02*
X4277791Y-15473128D01*
X4277791Y-15473128D02*
X4268267Y-15492176D01*
X4268267Y-15492176D02*
X4258743Y-15501700D01*
X4258743Y-15501700D02*
X4239696Y-15511224D01*
X4239696Y-15511224D02*
X4182553Y-15511224D01*
X4182553Y-15511224D02*
X4163505Y-15501700D01*
X4163505Y-15501700D02*
X4153981Y-15492176D01*
X4363505Y-15492176D02*
X4373029Y-15501700D01*
X4373029Y-15501700D02*
X4363505Y-15511224D01*
X4363505Y-15511224D02*
X4353981Y-15501700D01*
X4353981Y-15501700D02*
X4363505Y-15492176D01*
X4363505Y-15492176D02*
X4363505Y-15511224D01*
X4449220Y-15330271D02*
X4458743Y-15320748D01*
X4458743Y-15320748D02*
X4477791Y-15311224D01*
X4477791Y-15311224D02*
X4525410Y-15311224D01*
X4525410Y-15311224D02*
X4544458Y-15320748D01*
X4544458Y-15320748D02*
X4553981Y-15330271D01*
X4553981Y-15330271D02*
X4563505Y-15349319D01*
X4563505Y-15349319D02*
X4563505Y-15368367D01*
X4563505Y-15368367D02*
X4553981Y-15396938D01*
X4553981Y-15396938D02*
X4439696Y-15511224D01*
X4439696Y-15511224D02*
X4563505Y-15511224D01*
X4687315Y-15311224D02*
X4706362Y-15311224D01*
X4706362Y-15311224D02*
X4725410Y-15320748D01*
X4725410Y-15320748D02*
X4734934Y-15330271D01*
X4734934Y-15330271D02*
X4744458Y-15349319D01*
X4744458Y-15349319D02*
X4753981Y-15387414D01*
X4753981Y-15387414D02*
X4753981Y-15435033D01*
X4753981Y-15435033D02*
X4744458Y-15473128D01*
X4744458Y-15473128D02*
X4734934Y-15492176D01*
X4734934Y-15492176D02*
X4725410Y-15501700D01*
X4725410Y-15501700D02*
X4706362Y-15511224D01*
X4706362Y-15511224D02*
X4687315Y-15511224D01*
X4687315Y-15511224D02*
X4668267Y-15501700D01*
X4668267Y-15501700D02*
X4658743Y-15492176D01*
X4658743Y-15492176D02*
X4649220Y-15473128D01*
X4649220Y-15473128D02*
X4639696Y-15435033D01*
X4639696Y-15435033D02*
X4639696Y-15387414D01*
X4639696Y-15387414D02*
X4649220Y-15349319D01*
X4649220Y-15349319D02*
X4658743Y-15330271D01*
X4658743Y-15330271D02*
X4668267Y-15320748D01*
X4668267Y-15320748D02*
X4687315Y-15311224D01*
X4877791Y-15311224D02*
X4896839Y-15311224D01*
X4896839Y-15311224D02*
X4915886Y-15320748D01*
X4915886Y-15320748D02*
X4925410Y-15330271D01*
X4925410Y-15330271D02*
X4934934Y-15349319D01*
X4934934Y-15349319D02*
X4944458Y-15387414D01*
X4944458Y-15387414D02*
X4944458Y-15435033D01*
X4944458Y-15435033D02*
X4934934Y-15473128D01*
X4934934Y-15473128D02*
X4925410Y-15492176D01*
X4925410Y-15492176D02*
X4915886Y-15501700D01*
X4915886Y-15501700D02*
X4896839Y-15511224D01*
X4896839Y-15511224D02*
X4877791Y-15511224D01*
X4877791Y-15511224D02*
X4858743Y-15501700D01*
X4858743Y-15501700D02*
X4849220Y-15492176D01*
X4849220Y-15492176D02*
X4839696Y-15473128D01*
X4839696Y-15473128D02*
X4830172Y-15435033D01*
X4830172Y-15435033D02*
X4830172Y-15387414D01*
X4830172Y-15387414D02*
X4839696Y-15349319D01*
X4839696Y-15349319D02*
X4849220Y-15330271D01*
X4849220Y-15330271D02*
X4858743Y-15320748D01*
X4858743Y-15320748D02*
X4877791Y-15311224D01*
X5030172Y-15511224D02*
X5030172Y-15377890D01*
X5030172Y-15396938D02*
X5039696Y-15387414D01*
X5039696Y-15387414D02*
X5058743Y-15377890D01*
X5058743Y-15377890D02*
X5087315Y-15377890D01*
X5087315Y-15377890D02*
X5106362Y-15387414D01*
X5106362Y-15387414D02*
X5115886Y-15406462D01*
X5115886Y-15406462D02*
X5115886Y-15511224D01*
X5115886Y-15406462D02*
X5125410Y-15387414D01*
X5125410Y-15387414D02*
X5144458Y-15377890D01*
X5144458Y-15377890D02*
X5173029Y-15377890D01*
X5173029Y-15377890D02*
X5192077Y-15387414D01*
X5192077Y-15387414D02*
X5201601Y-15406462D01*
X5201601Y-15406462D02*
X5201601Y-15511224D01*
X5296839Y-15511224D02*
X5296839Y-15377890D01*
X5296839Y-15396938D02*
X5306362Y-15387414D01*
X5306362Y-15387414D02*
X5325410Y-15377890D01*
X5325410Y-15377890D02*
X5353982Y-15377890D01*
X5353982Y-15377890D02*
X5373029Y-15387414D01*
X5373029Y-15387414D02*
X5382553Y-15406462D01*
X5382553Y-15406462D02*
X5382553Y-15511224D01*
X5382553Y-15406462D02*
X5392077Y-15387414D01*
X5392077Y-15387414D02*
X5411124Y-15377890D01*
X5411124Y-15377890D02*
X5439696Y-15377890D01*
X5439696Y-15377890D02*
X5458743Y-15387414D01*
X5458743Y-15387414D02*
X5468267Y-15406462D01*
X5468267Y-15406462D02*
X5468267Y-15511224D01*
X5858743Y-15301700D02*
X5687315Y-15558843D01*
X6115886Y-15311224D02*
X6134934Y-15311224D01*
X6134934Y-15311224D02*
X6153982Y-15320748D01*
X6153982Y-15320748D02*
X6163505Y-15330271D01*
X6163505Y-15330271D02*
X6173029Y-15349319D01*
X6173029Y-15349319D02*
X6182553Y-15387414D01*
X6182553Y-15387414D02*
X6182553Y-15435033D01*
X6182553Y-15435033D02*
X6173029Y-15473128D01*
X6173029Y-15473128D02*
X6163505Y-15492176D01*
X6163505Y-15492176D02*
X6153982Y-15501700D01*
X6153982Y-15501700D02*
X6134934Y-15511224D01*
X6134934Y-15511224D02*
X6115886Y-15511224D01*
X6115886Y-15511224D02*
X6096839Y-15501700D01*
X6096839Y-15501700D02*
X6087315Y-15492176D01*
X6087315Y-15492176D02*
X6077791Y-15473128D01*
X6077791Y-15473128D02*
X6068267Y-15435033D01*
X6068267Y-15435033D02*
X6068267Y-15387414D01*
X6068267Y-15387414D02*
X6077791Y-15349319D01*
X6077791Y-15349319D02*
X6087315Y-15330271D01*
X6087315Y-15330271D02*
X6096839Y-15320748D01*
X6096839Y-15320748D02*
X6115886Y-15311224D01*
X6268267Y-15492176D02*
X6277791Y-15501700D01*
X6277791Y-15501700D02*
X6268267Y-15511224D01*
X6268267Y-15511224D02*
X6258743Y-15501700D01*
X6258743Y-15501700D02*
X6268267Y-15492176D01*
X6268267Y-15492176D02*
X6268267Y-15511224D01*
X6468267Y-15511224D02*
X6353982Y-15511224D01*
X6411124Y-15511224D02*
X6411124Y-15311224D01*
X6411124Y-15311224D02*
X6392077Y-15339795D01*
X6392077Y-15339795D02*
X6373029Y-15358843D01*
X6373029Y-15358843D02*
X6353982Y-15368367D01*
X6544458Y-15330271D02*
X6553982Y-15320748D01*
X6553982Y-15320748D02*
X6573029Y-15311224D01*
X6573029Y-15311224D02*
X6620648Y-15311224D01*
X6620648Y-15311224D02*
X6639696Y-15320748D01*
X6639696Y-15320748D02*
X6649220Y-15330271D01*
X6649220Y-15330271D02*
X6658743Y-15349319D01*
X6658743Y-15349319D02*
X6658743Y-15368367D01*
X6658743Y-15368367D02*
X6649220Y-15396938D01*
X6649220Y-15396938D02*
X6534934Y-15511224D01*
X6534934Y-15511224D02*
X6658743Y-15511224D01*
X6830172Y-15311224D02*
X6792077Y-15311224D01*
X6792077Y-15311224D02*
X6773029Y-15320748D01*
X6773029Y-15320748D02*
X6763505Y-15330271D01*
X6763505Y-15330271D02*
X6744458Y-15358843D01*
X6744458Y-15358843D02*
X6734934Y-15396938D01*
X6734934Y-15396938D02*
X6734934Y-15473128D01*
X6734934Y-15473128D02*
X6744458Y-15492176D01*
X6744458Y-15492176D02*
X6753982Y-15501700D01*
X6753982Y-15501700D02*
X6773029Y-15511224D01*
X6773029Y-15511224D02*
X6811124Y-15511224D01*
X6811124Y-15511224D02*
X6830172Y-15501700D01*
X6830172Y-15501700D02*
X6839696Y-15492176D01*
X6839696Y-15492176D02*
X6849220Y-15473128D01*
X6849220Y-15473128D02*
X6849220Y-15425509D01*
X6849220Y-15425509D02*
X6839696Y-15406462D01*
X6839696Y-15406462D02*
X6830172Y-15396938D01*
X6830172Y-15396938D02*
X6811124Y-15387414D01*
X6811124Y-15387414D02*
X6773029Y-15387414D01*
X6773029Y-15387414D02*
X6753982Y-15396938D01*
X6753982Y-15396938D02*
X6744458Y-15406462D01*
X6744458Y-15406462D02*
X6734934Y-15425509D01*
X6973029Y-15311224D02*
X6992077Y-15311224D01*
X6992077Y-15311224D02*
X7011124Y-15320748D01*
X7011124Y-15320748D02*
X7020648Y-15330271D01*
X7020648Y-15330271D02*
X7030172Y-15349319D01*
X7030172Y-15349319D02*
X7039696Y-15387414D01*
X7039696Y-15387414D02*
X7039696Y-15435033D01*
X7039696Y-15435033D02*
X7030172Y-15473128D01*
X7030172Y-15473128D02*
X7020648Y-15492176D01*
X7020648Y-15492176D02*
X7011124Y-15501700D01*
X7011124Y-15501700D02*
X6992077Y-15511224D01*
X6992077Y-15511224D02*
X6973029Y-15511224D01*
X6973029Y-15511224D02*
X6953982Y-15501700D01*
X6953982Y-15501700D02*
X6944458Y-15492176D01*
X6944458Y-15492176D02*
X6934934Y-15473128D01*
X6934934Y-15473128D02*
X6925410Y-15435033D01*
X6925410Y-15435033D02*
X6925410Y-15387414D01*
X6925410Y-15387414D02*
X6934934Y-15349319D01*
X6934934Y-15349319D02*
X6944458Y-15330271D01*
X6944458Y-15330271D02*
X6953982Y-15320748D01*
X6953982Y-15320748D02*
X6973029Y-15311224D01*
X7115886Y-15311224D02*
X7115886Y-15349319D01*
X7192077Y-15311224D02*
X7192077Y-15349319D01*
X7487315Y-15587414D02*
X7477791Y-15577890D01*
X7477791Y-15577890D02*
X7458744Y-15549319D01*
X7458744Y-15549319D02*
X7449220Y-15530271D01*
X7449220Y-15530271D02*
X7439696Y-15501700D01*
X7439696Y-15501700D02*
X7430172Y-15454081D01*
X7430172Y-15454081D02*
X7430172Y-15415986D01*
X7430172Y-15415986D02*
X7439696Y-15368367D01*
X7439696Y-15368367D02*
X7449220Y-15339795D01*
X7449220Y-15339795D02*
X7458744Y-15320748D01*
X7458744Y-15320748D02*
X7477791Y-15292176D01*
X7477791Y-15292176D02*
X7487315Y-15282652D01*
X7649220Y-15377890D02*
X7649220Y-15511224D01*
X7601601Y-15301700D02*
X7553982Y-15444557D01*
X7553982Y-15444557D02*
X7677791Y-15444557D01*
X7906363Y-15511224D02*
X7906363Y-15311224D01*
X7992077Y-15511224D02*
X7992077Y-15406462D01*
X7992077Y-15406462D02*
X7982553Y-15387414D01*
X7982553Y-15387414D02*
X7963506Y-15377890D01*
X7963506Y-15377890D02*
X7934934Y-15377890D01*
X7934934Y-15377890D02*
X7915886Y-15387414D01*
X7915886Y-15387414D02*
X7906363Y-15396938D01*
X8115886Y-15511224D02*
X8096839Y-15501700D01*
X8096839Y-15501700D02*
X8087315Y-15492176D01*
X8087315Y-15492176D02*
X8077791Y-15473128D01*
X8077791Y-15473128D02*
X8077791Y-15415986D01*
X8077791Y-15415986D02*
X8087315Y-15396938D01*
X8087315Y-15396938D02*
X8096839Y-15387414D01*
X8096839Y-15387414D02*
X8115886Y-15377890D01*
X8115886Y-15377890D02*
X8144458Y-15377890D01*
X8144458Y-15377890D02*
X8163506Y-15387414D01*
X8163506Y-15387414D02*
X8173029Y-15396938D01*
X8173029Y-15396938D02*
X8182553Y-15415986D01*
X8182553Y-15415986D02*
X8182553Y-15473128D01*
X8182553Y-15473128D02*
X8173029Y-15492176D01*
X8173029Y-15492176D02*
X8163506Y-15501700D01*
X8163506Y-15501700D02*
X8144458Y-15511224D01*
X8144458Y-15511224D02*
X8115886Y-15511224D01*
X8296839Y-15511224D02*
X8277791Y-15501700D01*
X8277791Y-15501700D02*
X8268267Y-15482652D01*
X8268267Y-15482652D02*
X8268267Y-15311224D01*
X8449220Y-15501700D02*
X8430172Y-15511224D01*
X8430172Y-15511224D02*
X8392077Y-15511224D01*
X8392077Y-15511224D02*
X8373029Y-15501700D01*
X8373029Y-15501700D02*
X8363506Y-15482652D01*
X8363506Y-15482652D02*
X8363506Y-15406462D01*
X8363506Y-15406462D02*
X8373029Y-15387414D01*
X8373029Y-15387414D02*
X8392077Y-15377890D01*
X8392077Y-15377890D02*
X8430172Y-15377890D01*
X8430172Y-15377890D02*
X8449220Y-15387414D01*
X8449220Y-15387414D02*
X8458744Y-15406462D01*
X8458744Y-15406462D02*
X8458744Y-15425509D01*
X8458744Y-15425509D02*
X8363506Y-15444557D01*
X8534934Y-15501700D02*
X8553982Y-15511224D01*
X8553982Y-15511224D02*
X8592077Y-15511224D01*
X8592077Y-15511224D02*
X8611125Y-15501700D01*
X8611125Y-15501700D02*
X8620649Y-15482652D01*
X8620649Y-15482652D02*
X8620649Y-15473128D01*
X8620649Y-15473128D02*
X8611125Y-15454081D01*
X8611125Y-15454081D02*
X8592077Y-15444557D01*
X8592077Y-15444557D02*
X8563506Y-15444557D01*
X8563506Y-15444557D02*
X8544458Y-15435033D01*
X8544458Y-15435033D02*
X8534934Y-15415986D01*
X8534934Y-15415986D02*
X8534934Y-15406462D01*
X8534934Y-15406462D02*
X8544458Y-15387414D01*
X8544458Y-15387414D02*
X8563506Y-15377890D01*
X8563506Y-15377890D02*
X8592077Y-15377890D01*
X8592077Y-15377890D02*
X8611125Y-15387414D01*
X8687315Y-15587414D02*
X8696839Y-15577890D01*
X8696839Y-15577890D02*
X8715887Y-15549319D01*
X8715887Y-15549319D02*
X8725410Y-15530271D01*
X8725410Y-15530271D02*
X8734934Y-15501700D01*
X8734934Y-15501700D02*
X8744458Y-15454081D01*
X8744458Y-15454081D02*
X8744458Y-15415986D01*
X8744458Y-15415986D02*
X8734934Y-15368367D01*
X8734934Y-15368367D02*
X8725410Y-15339795D01*
X8725410Y-15339795D02*
X8715887Y-15320748D01*
X8715887Y-15320748D02*
X8696839Y-15292176D01*
X8696839Y-15292176D02*
X8687315Y-15282652D01*
X9049220Y-15587414D02*
X9039696Y-15577890D01*
X9039696Y-15577890D02*
X9020649Y-15549319D01*
X9020649Y-15549319D02*
X9011125Y-15530271D01*
X9011125Y-15530271D02*
X9001601Y-15501700D01*
X9001601Y-15501700D02*
X8992077Y-15454081D01*
X8992077Y-15454081D02*
X8992077Y-15415986D01*
X8992077Y-15415986D02*
X9001601Y-15368367D01*
X9001601Y-15368367D02*
X9011125Y-15339795D01*
X9011125Y-15339795D02*
X9020649Y-15320748D01*
X9020649Y-15320748D02*
X9039696Y-15292176D01*
X9039696Y-15292176D02*
X9049220Y-15282652D01*
X9125410Y-15377890D02*
X9125410Y-15511224D01*
X9125410Y-15396938D02*
X9134934Y-15387414D01*
X9134934Y-15387414D02*
X9153982Y-15377890D01*
X9153982Y-15377890D02*
X9182553Y-15377890D01*
X9182553Y-15377890D02*
X9201601Y-15387414D01*
X9201601Y-15387414D02*
X9211125Y-15406462D01*
X9211125Y-15406462D02*
X9211125Y-15511224D01*
X9334934Y-15511224D02*
X9315887Y-15501700D01*
X9315887Y-15501700D02*
X9306363Y-15492176D01*
X9306363Y-15492176D02*
X9296839Y-15473128D01*
X9296839Y-15473128D02*
X9296839Y-15415986D01*
X9296839Y-15415986D02*
X9306363Y-15396938D01*
X9306363Y-15396938D02*
X9315887Y-15387414D01*
X9315887Y-15387414D02*
X9334934Y-15377890D01*
X9334934Y-15377890D02*
X9363506Y-15377890D01*
X9363506Y-15377890D02*
X9382553Y-15387414D01*
X9382553Y-15387414D02*
X9392077Y-15396938D01*
X9392077Y-15396938D02*
X9401601Y-15415986D01*
X9401601Y-15415986D02*
X9401601Y-15473128D01*
X9401601Y-15473128D02*
X9392077Y-15492176D01*
X9392077Y-15492176D02*
X9382553Y-15501700D01*
X9382553Y-15501700D02*
X9363506Y-15511224D01*
X9363506Y-15511224D02*
X9334934Y-15511224D01*
X9458744Y-15377890D02*
X9534934Y-15377890D01*
X9487315Y-15311224D02*
X9487315Y-15482652D01*
X9487315Y-15482652D02*
X9496839Y-15501700D01*
X9496839Y-15501700D02*
X9515887Y-15511224D01*
X9515887Y-15511224D02*
X9534934Y-15511224D01*
X9753982Y-15377890D02*
X9753982Y-15577890D01*
X9753982Y-15387414D02*
X9773030Y-15377890D01*
X9773030Y-15377890D02*
X9811125Y-15377890D01*
X9811125Y-15377890D02*
X9830172Y-15387414D01*
X9830172Y-15387414D02*
X9839696Y-15396938D01*
X9839696Y-15396938D02*
X9849220Y-15415986D01*
X9849220Y-15415986D02*
X9849220Y-15473128D01*
X9849220Y-15473128D02*
X9839696Y-15492176D01*
X9839696Y-15492176D02*
X9830172Y-15501700D01*
X9830172Y-15501700D02*
X9811125Y-15511224D01*
X9811125Y-15511224D02*
X9773030Y-15511224D01*
X9773030Y-15511224D02*
X9753982Y-15501700D01*
X9963506Y-15511224D02*
X9944458Y-15501700D01*
X9944458Y-15501700D02*
X9934934Y-15482652D01*
X9934934Y-15482652D02*
X9934934Y-15311224D01*
X10125411Y-15511224D02*
X10125411Y-15406462D01*
X10125411Y-15406462D02*
X10115887Y-15387414D01*
X10115887Y-15387414D02*
X10096839Y-15377890D01*
X10096839Y-15377890D02*
X10058744Y-15377890D01*
X10058744Y-15377890D02*
X10039696Y-15387414D01*
X10125411Y-15501700D02*
X10106363Y-15511224D01*
X10106363Y-15511224D02*
X10058744Y-15511224D01*
X10058744Y-15511224D02*
X10039696Y-15501700D01*
X10039696Y-15501700D02*
X10030172Y-15482652D01*
X10030172Y-15482652D02*
X10030172Y-15463605D01*
X10030172Y-15463605D02*
X10039696Y-15444557D01*
X10039696Y-15444557D02*
X10058744Y-15435033D01*
X10058744Y-15435033D02*
X10106363Y-15435033D01*
X10106363Y-15435033D02*
X10125411Y-15425509D01*
X10192077Y-15377890D02*
X10268268Y-15377890D01*
X10220649Y-15311224D02*
X10220649Y-15482652D01*
X10220649Y-15482652D02*
X10230172Y-15501700D01*
X10230172Y-15501700D02*
X10249220Y-15511224D01*
X10249220Y-15511224D02*
X10268268Y-15511224D01*
X10411125Y-15501700D02*
X10392077Y-15511224D01*
X10392077Y-15511224D02*
X10353982Y-15511224D01*
X10353982Y-15511224D02*
X10334934Y-15501700D01*
X10334934Y-15501700D02*
X10325411Y-15482652D01*
X10325411Y-15482652D02*
X10325411Y-15406462D01*
X10325411Y-15406462D02*
X10334934Y-15387414D01*
X10334934Y-15387414D02*
X10353982Y-15377890D01*
X10353982Y-15377890D02*
X10392077Y-15377890D01*
X10392077Y-15377890D02*
X10411125Y-15387414D01*
X10411125Y-15387414D02*
X10420649Y-15406462D01*
X10420649Y-15406462D02*
X10420649Y-15425509D01*
X10420649Y-15425509D02*
X10325411Y-15444557D01*
X10592077Y-15511224D02*
X10592077Y-15311224D01*
X10592077Y-15501700D02*
X10573030Y-15511224D01*
X10573030Y-15511224D02*
X10534934Y-15511224D01*
X10534934Y-15511224D02*
X10515887Y-15501700D01*
X10515887Y-15501700D02*
X10506363Y-15492176D01*
X10506363Y-15492176D02*
X10496839Y-15473128D01*
X10496839Y-15473128D02*
X10496839Y-15415986D01*
X10496839Y-15415986D02*
X10506363Y-15396938D01*
X10506363Y-15396938D02*
X10515887Y-15387414D01*
X10515887Y-15387414D02*
X10534934Y-15377890D01*
X10534934Y-15377890D02*
X10573030Y-15377890D01*
X10573030Y-15377890D02*
X10592077Y-15387414D01*
X10668268Y-15587414D02*
X10677792Y-15577890D01*
X10677792Y-15577890D02*
X10696839Y-15549319D01*
X10696839Y-15549319D02*
X10706363Y-15530271D01*
X10706363Y-15530271D02*
X10715887Y-15501700D01*
X10715887Y-15501700D02*
X10725411Y-15454081D01*
X10725411Y-15454081D02*
X10725411Y-15415986D01*
X10725411Y-15415986D02*
X10715887Y-15368367D01*
X10715887Y-15368367D02*
X10706363Y-15339795D01*
X10706363Y-15339795D02*
X10696839Y-15320748D01*
X10696839Y-15320748D02*
X10677792Y-15292176D01*
X10677792Y-15292176D02*
X10668268Y-15282652D01*
M02*
