<?xml version="1.0"?>
<!-- Generated by SVGo -->
<svg width="286.227mm" height="105.252mm"
     viewBox="0.000 0.000 286.227 105.252"
     xmlns="http://www.w3.org/2000/svg" 
     xmlns:xlink="http://www.w3.org/1999/xlink">
<polygon points="281.227,100.251 5.001,100.251 5.001,5.001 281.227,5.001" style="fill:none;stroke-width:0.050000mm;stroke:black"/>
<polygon points="17.051,83.726 17.051,88.426 15.526,88.426 15.526,85.196 8.776,85.196 8.776,88.426 7.950,88.426 7.950,91.226 8.776,91.226 8.776,97.495 10.501,97.495 10.501,98.696 13.801,98.696 13.801,97.495 15.526,97.495 15.526,93.025 17.051,93.025 17.051,97.726 31.051,97.726 31.051,93.025 32.576,93.025 32.576,97.495 34.301,97.495 34.301,98.696 37.601,98.696 37.601,97.495 39.326,97.495 39.326,91.226 40.151,91.226 40.151,88.426 39.326,88.426 39.326,85.196 32.576,85.196 32.576,88.426 31.051,88.426 31.051,83.726" style="fill:none;stroke-width:0.050000mm;stroke:black"/>
<polygon points="133.732,83.726 133.732,88.426 94.107,88.426 94.107,85.196 87.357,85.196 87.357,88.426 86.532,88.426 86.532,91.226 87.357,91.226 87.357,97.495 89.082,97.495 89.082,98.696 92.382,98.696 92.382,97.495 94.107,97.495 94.107,93.025 133.732,93.025 133.732,97.726 147.732,97.726 147.732,93.025 187.357,93.025 187.357,97.495 189.082,97.495 189.082,98.696 192.382,98.696 192.382,97.495 194.107,97.495 194.107,91.226 194.932,91.226 194.932,88.426 194.107,88.426 194.107,85.196 187.357,85.196 187.357,88.426 147.732,88.426 147.732,83.726" style="fill:none;stroke-width:0.050000mm;stroke:black"/>
<polygon points="45.626,83.726 45.626,97.726 59.626,97.726 59.626,83.726" style="fill:none;stroke-width:0.050000mm;stroke:black"/>
<polygon points="64.676,83.726 64.676,97.726 78.676,97.726 78.676,83.726" style="fill:none;stroke-width:0.050000mm;stroke:black"/>
<polygon points="202.788,83.726 202.788,97.726 216.788,97.726 216.788,83.726" style="fill:none;stroke-width:0.050000mm;stroke:black"/>
<polygon points="221.838,83.726 221.838,97.726 235.838,97.726 235.838,83.726" style="fill:none;stroke-width:0.050000mm;stroke:black"/>
<polygon points="240.888,83.726 240.888,97.726 254.888,97.726 254.888,83.726" style="fill:none;stroke-width:0.050000mm;stroke:black"/>
<polygon points="262.319,83.726 262.319,97.726 276.319,97.726 276.319,83.726" style="fill:none;stroke-width:0.050000mm;stroke:black"/>
<polygon points="19.432,64.676 19.432,69.376 17.907,69.376 17.907,66.146 11.157,66.146 11.157,69.376 10.332,69.376 10.332,72.176 11.157,72.176 11.157,78.446 12.882,78.446 12.882,79.646 16.182,79.646 16.182,78.446 17.907,78.446 17.907,73.976 19.432,73.976 19.432,78.676 33.432,78.676 33.432,73.976 34.957,73.976 34.957,78.446 36.682,78.446 36.682,79.646 39.982,79.646 39.982,78.446 41.707,78.446 41.707,72.176 42.532,72.176 42.532,69.376 41.707,69.376 41.707,66.146 34.957,66.146 34.957,69.376 33.432,69.376 33.432,64.676" style="fill:none;stroke-width:0.050000mm;stroke:black"/>
<polygon points="252.794,64.676 252.794,69.376 251.269,69.376 251.269,66.146 244.519,66.146 244.519,69.376 243.694,69.376 243.694,72.176 244.519,72.176 244.519,78.446 246.244,78.446 246.244,79.646 249.544,79.646 249.544,78.446 251.269,78.446 251.269,73.976 252.794,73.976 252.794,78.676 266.794,78.676 266.794,73.976 268.319,73.976 268.319,78.446 270.044,78.446 270.044,79.646 273.344,79.646 273.344,78.446 275.069,78.446 275.069,72.176 275.894,72.176 275.894,69.376 275.069,69.376 275.069,66.146 268.319,66.146 268.319,69.376 266.794,69.376 266.794,64.676" style="fill:none;stroke-width:0.050000mm;stroke:black"/>
<polygon points="50.388,64.676 50.388,78.676 64.388,78.676 64.388,64.676" style="fill:none;stroke-width:0.050000mm;stroke:black"/>
<polygon points="69.438,64.676 69.438,78.676 83.438,78.676 83.438,64.676" style="fill:none;stroke-width:0.050000mm;stroke:black"/>
<polygon points="88.488,64.676 88.488,78.676 102.488,78.676 102.488,64.676" style="fill:none;stroke-width:0.050000mm;stroke:black"/>
<polygon points="107.538,64.676 107.538,78.676 121.538,78.676 121.538,64.676" style="fill:none;stroke-width:0.050000mm;stroke:black"/>
<polygon points="126.588,64.676 126.588,78.676 140.588,78.676 140.588,64.676" style="fill:none;stroke-width:0.050000mm;stroke:black"/>
<polygon points="145.638,64.676 145.638,78.676 159.638,78.676 159.638,64.676" style="fill:none;stroke-width:0.050000mm;stroke:black"/>
<polygon points="164.688,64.676 164.688,78.676 178.688,78.676 178.688,64.676" style="fill:none;stroke-width:0.050000mm;stroke:black"/>
<polygon points="221.838,64.676 221.838,78.676 235.838,78.676 235.838,64.676" style="fill:none;stroke-width:0.050000mm;stroke:black"/>
<polygon points="183.738,64.676 183.738,78.676 197.738,78.676 197.738,64.676" style="fill:none;stroke-width:0.050000mm;stroke:black"/>
<polygon points="202.788,64.676 202.788,78.676 216.788,78.676 216.788,64.676" style="fill:none;stroke-width:0.050000mm;stroke:black"/>
<polygon points="14.669,45.626 14.669,59.626 28.669,59.626 28.669,45.626" style="fill:none;stroke-width:0.050000mm;stroke:black"/>
<polygon points="40.863,45.626 40.863,59.626 54.863,59.626 54.863,45.626" style="fill:none;stroke-width:0.050000mm;stroke:black"/>
<polygon points="59.913,45.626 59.913,59.626 73.913,59.626 73.913,45.626" style="fill:none;stroke-width:0.050000mm;stroke:black"/>
<polygon points="78.963,45.626 78.963,59.626 92.963,59.626 92.963,45.626" style="fill:none;stroke-width:0.050000mm;stroke:black"/>
<polygon points="98.013,45.626 98.013,59.626 112.013,59.626 112.013,45.626" style="fill:none;stroke-width:0.050000mm;stroke:black"/>
<polygon points="117.063,45.626 117.063,59.626 131.063,59.626 131.063,45.626" style="fill:none;stroke-width:0.050000mm;stroke:black"/>
<polygon points="136.113,45.626 136.113,59.626 150.113,59.626 150.113,45.626" style="fill:none;stroke-width:0.050000mm;stroke:black"/>
<polygon points="155.163,45.626 155.163,59.626 169.163,59.626 169.163,45.626" style="fill:none;stroke-width:0.050000mm;stroke:black"/>
<polygon points="174.213,45.626 174.213,59.626 188.213,59.626 188.213,45.626" style="fill:none;stroke-width:0.050000mm;stroke:black"/>
<polygon points="193.263,45.626 193.263,59.626 207.263,59.626 207.263,45.626" style="fill:none;stroke-width:0.050000mm;stroke:black"/>
<polygon points="212.313,45.626 212.313,59.626 226.313,59.626 226.313,45.626" style="fill:none;stroke-width:0.050000mm;stroke:black"/>
<polygon points="231.363,45.626 231.363,59.626 245.363,59.626 245.363,45.626" style="fill:none;stroke-width:0.050000mm;stroke:black"/>
<polygon points="257.556,45.626 257.556,59.626 271.557,59.626 271.557,45.626" style="fill:none;stroke-width:0.050000mm;stroke:black"/>
<polygon points="12.288,26.576 12.288,40.576 26.288,40.576 26.288,26.576" style="fill:none;stroke-width:0.050000mm;stroke:black"/>
<polygon points="36.101,26.576 36.101,40.576 50.101,40.576 50.101,26.576" style="fill:none;stroke-width:0.050000mm;stroke:black"/>
<polygon points="55.151,26.576 55.151,40.576 69.151,40.576 69.151,26.576" style="fill:none;stroke-width:0.050000mm;stroke:black"/>
<polygon points="74.201,26.576 74.201,40.576 88.201,40.576 88.201,26.576" style="fill:none;stroke-width:0.050000mm;stroke:black"/>
<polygon points="93.251,26.576 93.251,40.576 107.251,40.576 107.251,26.576" style="fill:none;stroke-width:0.050000mm;stroke:black"/>
<polygon points="112.301,26.576 112.301,40.576 126.301,40.576 126.301,26.576" style="fill:none;stroke-width:0.050000mm;stroke:black"/>
<polygon points="131.351,26.576 131.351,40.576 145.351,40.576 145.351,26.576" style="fill:none;stroke-width:0.050000mm;stroke:black"/>
<polygon points="150.401,26.576 150.401,40.576 164.401,40.576 164.401,26.576" style="fill:none;stroke-width:0.050000mm;stroke:black"/>
<polygon points="169.451,26.576 169.451,40.576 183.451,40.576 183.451,26.576" style="fill:none;stroke-width:0.050000mm;stroke:black"/>
<polygon points="188.501,26.576 188.501,40.576 202.501,40.576 202.501,26.576" style="fill:none;stroke-width:0.050000mm;stroke:black"/>
<polygon points="207.551,26.576 207.551,40.576 221.551,40.576 221.551,26.576" style="fill:none;stroke-width:0.050000mm;stroke:black"/>
<polygon points="231.363,26.576 231.363,40.576 245.363,40.576 245.363,26.576" style="fill:none;stroke-width:0.050000mm;stroke:black"/>
<polygon points="259.938,26.576 259.938,40.576 273.938,40.576 273.938,26.576" style="fill:none;stroke-width:0.050000mm;stroke:black"/>
<polygon points="255.176,7.526 255.176,12.226 253.651,12.226 253.651,8.996 246.901,8.996 246.901,12.226 246.076,12.226 246.076,15.026 246.901,15.026 246.901,21.296 248.626,21.296 248.626,22.496 251.926,22.496 251.926,21.296 253.651,21.296 253.651,16.826 255.176,16.826 255.176,21.526 269.176,21.526 269.176,16.826 270.701,16.826 270.701,21.296 272.426,21.296 272.426,22.496 275.726,22.496 275.726,21.296 277.451,21.296 277.451,15.026 278.276,15.026 278.276,12.226 277.451,12.226 277.451,8.996 270.701,8.996 270.701,12.226 269.176,12.226 269.176,7.526" style="fill:none;stroke-width:0.050000mm;stroke:black"/>
<polygon points="7.526,7.526 7.526,21.526 21.526,21.526 21.526,7.526" style="fill:none;stroke-width:0.050000mm;stroke:black"/>
<polygon points="26.576,7.526 26.576,21.526 40.576,21.526 40.576,7.526" style="fill:none;stroke-width:0.050000mm;stroke:black"/>
<polygon points="45.626,7.526 45.626,21.526 59.626,21.526 59.626,7.526" style="fill:none;stroke-width:0.050000mm;stroke:black"/>
<polygon points="64.676,7.526 64.676,21.526 78.676,21.526 78.676,7.526" style="fill:none;stroke-width:0.050000mm;stroke:black"/>
<polygon points="83.726,7.526 83.726,21.526 97.726,21.526 97.726,7.526" style="fill:none;stroke-width:0.050000mm;stroke:black"/>
<polygon points="102.775,7.526 102.775,21.526 116.775,21.526 116.775,7.526" style="fill:none;stroke-width:0.050000mm;stroke:black"/>
<polygon points="121.825,7.526 121.825,21.526 135.826,21.526 135.826,7.526" style="fill:none;stroke-width:0.050000mm;stroke:black"/>
<polygon points="140.876,7.526 140.876,21.526 154.876,21.526 154.876,7.526" style="fill:none;stroke-width:0.050000mm;stroke:black"/>
<polygon points="159.926,7.526 159.926,21.526 173.926,21.526 173.926,7.526" style="fill:none;stroke-width:0.050000mm;stroke:black"/>
<polygon points="178.976,7.526 178.976,21.526 192.976,21.526 192.976,7.526" style="fill:none;stroke-width:0.050000mm;stroke:black"/>
<polygon points="198.026,7.526 198.026,21.526 212.026,21.526 212.026,7.526" style="fill:none;stroke-width:0.050000mm;stroke:black"/>
<polygon points="221.838,7.526 221.838,21.526 235.838,21.526 235.838,7.526" style="fill:none;stroke-width:0.050000mm;stroke:black"/>
</svg>
