  0
SECTION
  2
HEADER
  9
$ACADVER
  1
AC1009
  9
$FILLMODE
 70
 0
  9
$SPLFRAME
 70
 1
  9
$EXTMIN
 10
0
 20
0
 30
0.0
  9
$EXTMAX
 10
1058.33
 20
1058.33
 30
0.0
  0
ENDSEC
  0
SECTION
  2
TABLES
  0
TABLE
  2
LAYER
 70
1
  0
LAYER
  2
0
 70
     0
 62
     7
  6
CONTINUOUS
  0
ENDTAB
  0
ENDSEC
  0
SECTION
  2
ENTITIES
  0
LINE
  8
0
 62
     0
 10
0.0950846
 20
95.5075
 30
0.0
 11
276.32
 21
95.5075
 31
0.0
  0
LINE
  8
0
 62
     0
 10
276.32
 20
95.5075
 30
0.0
 11
276.32
 21
0.257693
 31
0.0
  0
LINE
  8
0
 62
     0
 10
276.32
 20
0.257693
 30
0.0
 11
0.0950846
 21
0.257693
 31
0.0
  0
LINE
  8
0
 62
     0
 10
0.0950846
 20
0.257693
 30
0.0
 11
0.0950846
 21
95.5075
 31
0.0
  0
LINE
  8
0
 62
     0
 10
12.1447
 20
16.7831
 30
0.0
 11
12.1447
 21
12.0826
 31
0.0
  0
LINE
  8
0
 62
     0
 10
12.1447
 20
12.0826
 30
0.0
 11
10.6192
 21
12.0826
 31
0.0
  0
LINE
  8
0
 62
     0
 10
10.6192
 20
12.0826
 30
0.0
 11
10.6192
 21
15.3128
 31
0.0
  0
LINE
  8
0
 62
     0
 10
10.6192
 20
15.3128
 30
0.0
 11
3.86955
 21
15.3128
 31
0.0
  0
LINE
  8
0
 62
     0
 10
3.86955
 20
15.3128
 30
0.0
 11
3.86955
 21
12.0826
 31
0.0
  0
LINE
  8
0
 62
     0
 10
3.86955
 20
12.0826
 30
0.0
 11
3.04409
 21
12.0826
 31
0.0
  0
LINE
  8
0
 62
     0
 10
3.04409
 20
12.0826
 30
0.0
 11
3.04409
 21
9.28384
 31
0.0
  0
LINE
  8
0
 62
     0
 10
3.04409
 20
9.28384
 30
0.0
 11
3.86955
 21
9.28384
 31
0.0
  0
LINE
  8
0
 62
     0
 10
3.86955
 20
9.28384
 30
0.0
 11
3.86955
 21
3.01377
 31
0.0
  0
LINE
  8
0
 62
     0
 10
3.86955
 20
3.01377
 30
0.0
 11
5.59484
 21
3.01377
 31
0.0
  0
LINE
  8
0
 62
     0
 10
5.59484
 20
3.01377
 30
0.0
 11
5.59484
 21
1.8135
 31
0.0
  0
LINE
  8
0
 62
     0
 10
5.59484
 20
1.8135
 30
0.0
 11
8.89385
 21
1.8135
 31
0.0
  0
LINE
  8
0
 62
     0
 10
8.89385
 20
1.8135
 30
0.0
 11
8.89385
 21
3.01377
 31
0.0
  0
LINE
  8
0
 62
     0
 10
8.89385
 20
3.01377
 30
0.0
 11
10.6192
 21
3.01377
 31
0.0
  0
LINE
  8
0
 62
     0
 10
10.6192
 20
3.01377
 30
0.0
 11
10.6192
 21
7.48411
 31
0.0
  0
LINE
  8
0
 62
     0
 10
10.6192
 20
7.48411
 30
0.0
 11
12.1447
 21
7.48411
 31
0.0
  0
LINE
  8
0
 62
     0
 10
12.1447
 20
7.48411
 30
0.0
 11
12.1447
 21
2.78364
 31
0.0
  0
LINE
  8
0
 62
     0
 10
12.1447
 20
2.78364
 30
0.0
 11
26.1441
 21
2.78364
 31
0.0
  0
LINE
  8
0
 62
     0
 10
26.1441
 20
2.78364
 30
0.0
 11
26.1441
 21
7.48411
 31
0.0
  0
LINE
  8
0
 62
     0
 10
26.1441
 20
7.48411
 30
0.0
 11
27.6696
 21
7.48411
 31
0.0
  0
LINE
  8
0
 62
     0
 10
27.6696
 20
7.48411
 30
0.0
 11
27.6696
 21
3.01377
 31
0.0
  0
LINE
  8
0
 62
     0
 10
27.6696
 20
3.01377
 30
0.0
 11
29.3949
 21
3.01377
 31
0.0
  0
LINE
  8
0
 62
     0
 10
29.3949
 20
3.01377
 30
0.0
 11
29.3949
 21
1.8135
 31
0.0
  0
LINE
  8
0
 62
     0
 10
29.3949
 20
1.8135
 30
0.0
 11
32.694
 21
1.8135
 31
0.0
  0
LINE
  8
0
 62
     0
 10
32.694
 20
1.8135
 30
0.0
 11
32.694
 21
3.01377
 31
0.0
  0
LINE
  8
0
 62
     0
 10
32.694
 20
3.01377
 30
0.0
 11
34.4193
 21
3.01377
 31
0.0
  0
LINE
  8
0
 62
     0
 10
34.4193
 20
3.01377
 30
0.0
 11
34.4193
 21
9.28384
 31
0.0
  0
LINE
  8
0
 62
     0
 10
34.4193
 20
9.28384
 30
0.0
 11
35.2447
 21
9.28384
 31
0.0
  0
LINE
  8
0
 62
     0
 10
35.2447
 20
9.28384
 30
0.0
 11
35.2447
 21
12.0826
 31
0.0
  0
LINE
  8
0
 62
     0
 10
35.2447
 20
12.0826
 30
0.0
 11
34.4193
 21
12.0826
 31
0.0
  0
LINE
  8
0
 62
     0
 10
34.4193
 20
12.0826
 30
0.0
 11
34.4193
 21
15.3128
 31
0.0
  0
LINE
  8
0
 62
     0
 10
34.4193
 20
15.3128
 30
0.0
 11
27.6696
 21
15.3128
 31
0.0
  0
LINE
  8
0
 62
     0
 10
27.6696
 20
15.3128
 30
0.0
 11
27.6696
 21
12.0826
 31
0.0
  0
LINE
  8
0
 62
     0
 10
27.6696
 20
12.0826
 30
0.0
 11
26.1441
 21
12.0826
 31
0.0
  0
LINE
  8
0
 62
     0
 10
26.1441
 20
12.0826
 30
0.0
 11
26.1441
 21
16.7831
 31
0.0
  0
LINE
  8
0
 62
     0
 10
26.1441
 20
16.7831
 30
0.0
 11
12.1447
 21
16.7831
 31
0.0
  0
LINE
  8
0
 62
     0
 10
128.826
 20
16.7831
 30
0.0
 11
128.826
 21
12.0826
 31
0.0
  0
LINE
  8
0
 62
     0
 10
128.826
 20
12.0826
 30
0.0
 11
89.2006
 21
12.0826
 31
0.0
  0
LINE
  8
0
 62
     0
 10
89.2006
 20
12.0826
 30
0.0
 11
89.2006
 21
15.3128
 31
0.0
  0
LINE
  8
0
 62
     0
 10
89.2006
 20
15.3128
 30
0.0
 11
82.4509
 21
15.3128
 31
0.0
  0
LINE
  8
0
 62
     0
 10
82.4509
 20
15.3128
 30
0.0
 11
82.4509
 21
12.0826
 31
0.0
  0
LINE
  8
0
 62
     0
 10
82.4509
 20
12.0826
 30
0.0
 11
81.6254
 21
12.0826
 31
0.0
  0
LINE
  8
0
 62
     0
 10
81.6254
 20
12.0826
 30
0.0
 11
81.6254
 21
9.28384
 31
0.0
  0
LINE
  8
0
 62
     0
 10
81.6254
 20
9.28384
 30
0.0
 11
82.4509
 21
9.28384
 31
0.0
  0
LINE
  8
0
 62
     0
 10
82.4509
 20
9.28384
 30
0.0
 11
82.4509
 21
3.01377
 31
0.0
  0
LINE
  8
0
 62
     0
 10
82.4509
 20
3.01377
 30
0.0
 11
84.176
 21
3.01377
 31
0.0
  0
LINE
  8
0
 62
     0
 10
84.176
 20
3.01377
 30
0.0
 11
84.176
 21
1.8135
 31
0.0
  0
LINE
  8
0
 62
     0
 10
84.176
 20
1.8135
 30
0.0
 11
87.4751
 21
1.8135
 31
0.0
  0
LINE
  8
0
 62
     0
 10
87.4751
 20
1.8135
 30
0.0
 11
87.4751
 21
3.01377
 31
0.0
  0
LINE
  8
0
 62
     0
 10
87.4751
 20
3.01377
 30
0.0
 11
89.2006
 21
3.01377
 31
0.0
  0
LINE
  8
0
 62
     0
 10
89.2006
 20
3.01377
 30
0.0
 11
89.2006
 21
7.48411
 31
0.0
  0
LINE
  8
0
 62
     0
 10
89.2006
 20
7.48411
 30
0.0
 11
128.826
 21
7.48411
 31
0.0
  0
LINE
  8
0
 62
     0
 10
128.826
 20
7.48411
 30
0.0
 11
128.826
 21
2.78364
 31
0.0
  0
LINE
  8
0
 62
     0
 10
128.826
 20
2.78364
 30
0.0
 11
142.825
 21
2.78364
 31
0.0
  0
LINE
  8
0
 62
     0
 10
142.825
 20
2.78364
 30
0.0
 11
142.825
 21
7.48411
 31
0.0
  0
LINE
  8
0
 62
     0
 10
142.825
 20
7.48411
 30
0.0
 11
182.451
 21
7.48411
 31
0.0
  0
LINE
  8
0
 62
     0
 10
182.451
 20
7.48411
 30
0.0
 11
182.451
 21
3.01377
 31
0.0
  0
LINE
  8
0
 62
     0
 10
182.451
 20
3.01377
 30
0.0
 11
184.175
 21
3.01377
 31
0.0
  0
LINE
  8
0
 62
     0
 10
184.175
 20
3.01377
 30
0.0
 11
184.175
 21
1.8135
 31
0.0
  0
LINE
  8
0
 62
     0
 10
184.175
 20
1.8135
 30
0.0
 11
187.475
 21
1.8135
 31
0.0
  0
LINE
  8
0
 62
     0
 10
187.475
 20
1.8135
 30
0.0
 11
187.475
 21
3.01377
 31
0.0
  0
LINE
  8
0
 62
     0
 10
187.475
 20
3.01377
 30
0.0
 11
189.2
 21
3.01377
 31
0.0
  0
LINE
  8
0
 62
     0
 10
189.2
 20
3.01377
 30
0.0
 11
189.2
 21
9.28384
 31
0.0
  0
LINE
  8
0
 62
     0
 10
189.2
 20
9.28384
 30
0.0
 11
190.026
 21
9.28384
 31
0.0
  0
LINE
  8
0
 62
     0
 10
190.026
 20
9.28384
 30
0.0
 11
190.026
 21
12.0826
 31
0.0
  0
LINE
  8
0
 62
     0
 10
190.026
 20
12.0826
 30
0.0
 11
189.2
 21
12.0826
 31
0.0
  0
LINE
  8
0
 62
     0
 10
189.2
 20
12.0826
 30
0.0
 11
189.2
 21
15.3128
 31
0.0
  0
LINE
  8
0
 62
     0
 10
189.2
 20
15.3128
 30
0.0
 11
182.451
 21
15.3128
 31
0.0
  0
LINE
  8
0
 62
     0
 10
182.451
 20
15.3128
 30
0.0
 11
182.451
 21
12.0826
 31
0.0
  0
LINE
  8
0
 62
     0
 10
182.451
 20
12.0826
 30
0.0
 11
142.825
 21
12.0826
 31
0.0
  0
LINE
  8
0
 62
     0
 10
142.825
 20
12.0826
 30
0.0
 11
142.825
 21
16.7831
 31
0.0
  0
LINE
  8
0
 62
     0
 10
142.825
 20
16.7831
 30
0.0
 11
128.826
 21
16.7831
 31
0.0
  0
LINE
  8
0
 62
     0
 10
40.7197
 20
16.7831
 30
0.0
 11
54.719
 21
16.7831
 31
0.0
  0
LINE
  8
0
 62
     0
 10
54.719
 20
16.7831
 30
0.0
 11
54.719
 21
2.78364
 31
0.0
  0
LINE
  8
0
 62
     0
 10
54.719
 20
2.78364
 30
0.0
 11
40.7197
 21
2.78364
 31
0.0
  0
LINE
  8
0
 62
     0
 10
40.7197
 20
2.78364
 30
0.0
 11
40.7197
 21
16.7831
 31
0.0
  0
LINE
  8
0
 62
     0
 10
59.7697
 20
16.7831
 30
0.0
 11
73.769
 21
16.7831
 31
0.0
  0
LINE
  8
0
 62
     0
 10
73.769
 20
16.7831
 30
0.0
 11
73.769
 21
2.78364
 31
0.0
  0
LINE
  8
0
 62
     0
 10
73.769
 20
2.78364
 30
0.0
 11
59.7697
 21
2.78364
 31
0.0
  0
LINE
  8
0
 62
     0
 10
59.7697
 20
2.78364
 30
0.0
 11
59.7697
 21
16.7831
 31
0.0
  0
LINE
  8
0
 62
     0
 10
197.882
 20
16.7831
 30
0.0
 11
211.882
 21
16.7831
 31
0.0
  0
LINE
  8
0
 62
     0
 10
211.882
 20
16.7831
 30
0.0
 11
211.882
 21
2.78364
 31
0.0
  0
LINE
  8
0
 62
     0
 10
211.882
 20
2.78364
 30
0.0
 11
197.882
 21
2.78364
 31
0.0
  0
LINE
  8
0
 62
     0
 10
197.882
 20
2.78364
 30
0.0
 11
197.882
 21
16.7831
 31
0.0
  0
LINE
  8
0
 62
     0
 10
216.932
 20
16.7831
 30
0.0
 11
230.932
 21
16.7831
 31
0.0
  0
LINE
  8
0
 62
     0
 10
230.932
 20
16.7831
 30
0.0
 11
230.932
 21
2.78364
 31
0.0
  0
LINE
  8
0
 62
     0
 10
230.932
 20
2.78364
 30
0.0
 11
216.932
 21
2.78364
 31
0.0
  0
LINE
  8
0
 62
     0
 10
216.932
 20
2.78364
 30
0.0
 11
216.932
 21
16.7831
 31
0.0
  0
LINE
  8
0
 62
     0
 10
235.982
 20
16.7831
 30
0.0
 11
249.982
 21
16.7831
 31
0.0
  0
LINE
  8
0
 62
     0
 10
249.982
 20
16.7831
 30
0.0
 11
249.982
 21
2.78364
 31
0.0
  0
LINE
  8
0
 62
     0
 10
249.982
 20
2.78364
 30
0.0
 11
235.982
 21
2.78364
 31
0.0
  0
LINE
  8
0
 62
     0
 10
235.982
 20
2.78364
 30
0.0
 11
235.982
 21
16.7831
 31
0.0
  0
LINE
  8
0
 62
     0
 10
257.412
 20
16.7831
 30
0.0
 11
271.413
 21
16.7831
 31
0.0
  0
LINE
  8
0
 62
     0
 10
271.413
 20
16.7831
 30
0.0
 11
271.413
 21
2.78364
 31
0.0
  0
LINE
  8
0
 62
     0
 10
271.413
 20
2.78364
 30
0.0
 11
257.412
 21
2.78364
 31
0.0
  0
LINE
  8
0
 62
     0
 10
257.412
 20
2.78364
 30
0.0
 11
257.412
 21
16.7831
 31
0.0
  0
LINE
  8
0
 62
     0
 10
14.5259
 20
35.833
 30
0.0
 11
14.5259
 21
31.1326
 31
0.0
  0
LINE
  8
0
 62
     0
 10
14.5259
 20
31.1326
 30
0.0
 11
13.0004
 21
31.1326
 31
0.0
  0
LINE
  8
0
 62
     0
 10
13.0004
 20
31.1326
 30
0.0
 11
13.0004
 21
34.3628
 31
0.0
  0
LINE
  8
0
 62
     0
 10
13.0004
 20
34.3628
 30
0.0
 11
6.2508
 21
34.3628
 31
0.0
  0
LINE
  8
0
 62
     0
 10
6.2508
 20
34.3628
 30
0.0
 11
6.2508
 21
31.1326
 31
0.0
  0
LINE
  8
0
 62
     0
 10
6.2508
 20
31.1326
 30
0.0
 11
5.42533
 21
31.1326
 31
0.0
  0
LINE
  8
0
 62
     0
 10
5.42533
 20
31.1326
 30
0.0
 11
5.42533
 21
28.3338
 31
0.0
  0
LINE
  8
0
 62
     0
 10
5.42533
 20
28.3338
 30
0.0
 11
6.2508
 21
28.3338
 31
0.0
  0
LINE
  8
0
 62
     0
 10
6.2508
 20
28.3338
 30
0.0
 11
6.2508
 21
22.0638
 31
0.0
  0
LINE
  8
0
 62
     0
 10
6.2508
 20
22.0638
 30
0.0
 11
7.97609
 21
22.0638
 31
0.0
  0
LINE
  8
0
 62
     0
 10
7.97609
 20
22.0638
 30
0.0
 11
7.97609
 21
20.8635
 31
0.0
  0
LINE
  8
0
 62
     0
 10
7.97609
 20
20.8635
 30
0.0
 11
11.2751
 21
20.8635
 31
0.0
  0
LINE
  8
0
 62
     0
 10
11.2751
 20
20.8635
 30
0.0
 11
11.2751
 21
22.0638
 31
0.0
  0
LINE
  8
0
 62
     0
 10
11.2751
 20
22.0638
 30
0.0
 11
13.0004
 21
22.0638
 31
0.0
  0
LINE
  8
0
 62
     0
 10
13.0004
 20
22.0638
 30
0.0
 11
13.0004
 21
26.5327
 31
0.0
  0
LINE
  8
0
 62
     0
 10
13.0004
 20
26.5327
 30
0.0
 11
14.5259
 21
26.5327
 31
0.0
  0
LINE
  8
0
 62
     0
 10
14.5259
 20
26.5327
 30
0.0
 11
14.5259
 21
21.8336
 31
0.0
  0
LINE
  8
0
 62
     0
 10
14.5259
 20
21.8336
 30
0.0
 11
28.5254
 21
21.8336
 31
0.0
  0
LINE
  8
0
 62
     0
 10
28.5254
 20
21.8336
 30
0.0
 11
28.5254
 21
26.5327
 31
0.0
  0
LINE
  8
0
 62
     0
 10
28.5254
 20
26.5327
 30
0.0
 11
30.0509
 21
26.5327
 31
0.0
  0
LINE
  8
0
 62
     0
 10
30.0509
 20
26.5327
 30
0.0
 11
30.0509
 21
22.0638
 31
0.0
  0
LINE
  8
0
 62
     0
 10
30.0509
 20
22.0638
 30
0.0
 11
31.7748
 21
22.0638
 31
0.0
  0
LINE
  8
0
 62
     0
 10
31.7748
 20
22.0638
 30
0.0
 11
31.7748
 21
20.8635
 31
0.0
  0
LINE
  8
0
 62
     0
 10
31.7748
 20
20.8635
 30
0.0
 11
35.0752
 21
20.8635
 31
0.0
  0
LINE
  8
0
 62
     0
 10
35.0752
 20
20.8635
 30
0.0
 11
35.0752
 21
22.0638
 31
0.0
  0
LINE
  8
0
 62
     0
 10
35.0752
 20
22.0638
 30
0.0
 11
36.8004
 21
22.0638
 31
0.0
  0
LINE
  8
0
 62
     0
 10
36.8004
 20
22.0638
 30
0.0
 11
36.8004
 21
28.3338
 31
0.0
  0
LINE
  8
0
 62
     0
 10
36.8004
 20
28.3338
 30
0.0
 11
37.6259
 21
28.3338
 31
0.0
  0
LINE
  8
0
 62
     0
 10
37.6259
 20
28.3338
 30
0.0
 11
37.6259
 21
31.1326
 31
0.0
  0
LINE
  8
0
 62
     0
 10
37.6259
 20
31.1326
 30
0.0
 11
36.8004
 21
31.1326
 31
0.0
  0
LINE
  8
0
 62
     0
 10
36.8004
 20
31.1326
 30
0.0
 11
36.8004
 21
34.3628
 31
0.0
  0
LINE
  8
0
 62
     0
 10
36.8004
 20
34.3628
 30
0.0
 11
30.0509
 21
34.3628
 31
0.0
  0
LINE
  8
0
 62
     0
 10
30.0509
 20
34.3628
 30
0.0
 11
30.0509
 21
31.1326
 31
0.0
  0
LINE
  8
0
 62
     0
 10
30.0509
 20
31.1326
 30
0.0
 11
28.5254
 21
31.1326
 31
0.0
  0
LINE
  8
0
 62
     0
 10
28.5254
 20
31.1326
 30
0.0
 11
28.5254
 21
35.833
 31
0.0
  0
LINE
  8
0
 62
     0
 10
28.5254
 20
35.833
 30
0.0
 11
14.5259
 21
35.833
 31
0.0
  0
LINE
  8
0
 62
     0
 10
247.887
 20
35.833
 30
0.0
 11
247.887
 21
31.1326
 31
0.0
  0
LINE
  8
0
 62
     0
 10
247.887
 20
31.1326
 30
0.0
 11
246.363
 21
31.1326
 31
0.0
  0
LINE
  8
0
 62
     0
 10
246.363
 20
31.1326
 30
0.0
 11
246.363
 21
34.3628
 31
0.0
  0
LINE
  8
0
 62
     0
 10
246.363
 20
34.3628
 30
0.0
 11
239.612
 21
34.3628
 31
0.0
  0
LINE
  8
0
 62
     0
 10
239.612
 20
34.3628
 30
0.0
 11
239.612
 21
31.1326
 31
0.0
  0
LINE
  8
0
 62
     0
 10
239.612
 20
31.1326
 30
0.0
 11
238.788
 21
31.1326
 31
0.0
  0
LINE
  8
0
 62
     0
 10
238.788
 20
31.1326
 30
0.0
 11
238.788
 21
28.3338
 31
0.0
  0
LINE
  8
0
 62
     0
 10
238.788
 20
28.3338
 30
0.0
 11
239.612
 21
28.3338
 31
0.0
  0
LINE
  8
0
 62
     0
 10
239.612
 20
28.3338
 30
0.0
 11
239.612
 21
22.0638
 31
0.0
  0
LINE
  8
0
 62
     0
 10
239.612
 20
22.0638
 30
0.0
 11
241.337
 21
22.0638
 31
0.0
  0
LINE
  8
0
 62
     0
 10
241.337
 20
22.0638
 30
0.0
 11
241.337
 21
20.8635
 31
0.0
  0
LINE
  8
0
 62
     0
 10
241.337
 20
20.8635
 30
0.0
 11
244.638
 21
20.8635
 31
0.0
  0
LINE
  8
0
 62
     0
 10
244.638
 20
20.8635
 30
0.0
 11
244.638
 21
22.0638
 31
0.0
  0
LINE
  8
0
 62
     0
 10
244.638
 20
22.0638
 30
0.0
 11
246.363
 21
22.0638
 31
0.0
  0
LINE
  8
0
 62
     0
 10
246.363
 20
22.0638
 30
0.0
 11
246.363
 21
26.5327
 31
0.0
  0
LINE
  8
0
 62
     0
 10
246.363
 20
26.5327
 30
0.0
 11
247.887
 21
26.5327
 31
0.0
  0
LINE
  8
0
 62
     0
 10
247.887
 20
26.5327
 30
0.0
 11
247.887
 21
21.8336
 31
0.0
  0
LINE
  8
0
 62
     0
 10
247.887
 20
21.8336
 30
0.0
 11
261.888
 21
21.8336
 31
0.0
  0
LINE
  8
0
 62
     0
 10
261.888
 20
21.8336
 30
0.0
 11
261.888
 21
26.5327
 31
0.0
  0
LINE
  8
0
 62
     0
 10
261.888
 20
26.5327
 30
0.0
 11
263.412
 21
26.5327
 31
0.0
  0
LINE
  8
0
 62
     0
 10
263.412
 20
26.5327
 30
0.0
 11
263.412
 21
22.0638
 31
0.0
  0
LINE
  8
0
 62
     0
 10
263.412
 20
22.0638
 30
0.0
 11
265.137
 21
22.0638
 31
0.0
  0
LINE
  8
0
 62
     0
 10
265.137
 20
22.0638
 30
0.0
 11
265.137
 21
20.8635
 31
0.0
  0
LINE
  8
0
 62
     0
 10
265.137
 20
20.8635
 30
0.0
 11
268.438
 21
20.8635
 31
0.0
  0
LINE
  8
0
 62
     0
 10
268.438
 20
20.8635
 30
0.0
 11
268.438
 21
22.0638
 31
0.0
  0
LINE
  8
0
 62
     0
 10
268.438
 20
22.0638
 30
0.0
 11
270.163
 21
22.0638
 31
0.0
  0
LINE
  8
0
 62
     0
 10
270.163
 20
22.0638
 30
0.0
 11
270.163
 21
28.3338
 31
0.0
  0
LINE
  8
0
 62
     0
 10
270.163
 20
28.3338
 30
0.0
 11
270.987
 21
28.3338
 31
0.0
  0
LINE
  8
0
 62
     0
 10
270.987
 20
28.3338
 30
0.0
 11
270.987
 21
31.1326
 31
0.0
  0
LINE
  8
0
 62
     0
 10
270.987
 20
31.1326
 30
0.0
 11
270.163
 21
31.1326
 31
0.0
  0
LINE
  8
0
 62
     0
 10
270.163
 20
31.1326
 30
0.0
 11
270.163
 21
34.3628
 31
0.0
  0
LINE
  8
0
 62
     0
 10
270.163
 20
34.3628
 30
0.0
 11
263.412
 21
34.3628
 31
0.0
  0
LINE
  8
0
 62
     0
 10
263.412
 20
34.3628
 30
0.0
 11
263.412
 21
31.1326
 31
0.0
  0
LINE
  8
0
 62
     0
 10
263.412
 20
31.1326
 30
0.0
 11
261.888
 21
31.1326
 31
0.0
  0
LINE
  8
0
 62
     0
 10
261.888
 20
31.1326
 30
0.0
 11
261.888
 21
35.833
 31
0.0
  0
LINE
  8
0
 62
     0
 10
261.888
 20
35.833
 30
0.0
 11
247.887
 21
35.833
 31
0.0
  0
LINE
  8
0
 62
     0
 10
45.4822
 20
35.833
 30
0.0
 11
59.4815
 21
35.833
 31
0.0
  0
LINE
  8
0
 62
     0
 10
59.4815
 20
35.833
 30
0.0
 11
59.4815
 21
21.8336
 31
0.0
  0
LINE
  8
0
 62
     0
 10
59.4815
 20
21.8336
 30
0.0
 11
45.4822
 21
21.8336
 31
0.0
  0
LINE
  8
0
 62
     0
 10
45.4822
 20
21.8336
 30
0.0
 11
45.4822
 21
35.833
 31
0.0
  0
LINE
  8
0
 62
     0
 10
64.5322
 20
35.833
 30
0.0
 11
78.5315
 21
35.833
 31
0.0
  0
LINE
  8
0
 62
     0
 10
78.5315
 20
35.833
 30
0.0
 11
78.5315
 21
21.8336
 31
0.0
  0
LINE
  8
0
 62
     0
 10
78.5315
 20
21.8336
 30
0.0
 11
64.5322
 21
21.8336
 31
0.0
  0
LINE
  8
0
 62
     0
 10
64.5322
 20
21.8336
 30
0.0
 11
64.5322
 21
35.833
 31
0.0
  0
LINE
  8
0
 62
     0
 10
83.5822
 20
35.833
 30
0.0
 11
97.5815
 21
35.833
 31
0.0
  0
LINE
  8
0
 62
     0
 10
97.5815
 20
35.833
 30
0.0
 11
97.5815
 21
21.8336
 31
0.0
  0
LINE
  8
0
 62
     0
 10
97.5815
 20
21.8336
 30
0.0
 11
83.5822
 21
21.8336
 31
0.0
  0
LINE
  8
0
 62
     0
 10
83.5822
 20
21.8336
 30
0.0
 11
83.5822
 21
35.833
 31
0.0
  0
LINE
  8
0
 62
     0
 10
102.632
 20
35.833
 30
0.0
 11
116.632
 21
35.833
 31
0.0
  0
LINE
  8
0
 62
     0
 10
116.632
 20
35.833
 30
0.0
 11
116.632
 21
21.8336
 31
0.0
  0
LINE
  8
0
 62
     0
 10
116.632
 20
21.8336
 30
0.0
 11
102.632
 21
21.8336
 31
0.0
  0
LINE
  8
0
 62
     0
 10
102.632
 20
21.8336
 30
0.0
 11
102.632
 21
35.833
 31
0.0
  0
LINE
  8
0
 62
     0
 10
121.682
 20
35.833
 30
0.0
 11
135.682
 21
35.833
 31
0.0
  0
LINE
  8
0
 62
     0
 10
135.682
 20
35.833
 30
0.0
 11
135.682
 21
21.8336
 31
0.0
  0
LINE
  8
0
 62
     0
 10
135.682
 20
21.8336
 30
0.0
 11
121.682
 21
21.8336
 31
0.0
  0
LINE
  8
0
 62
     0
 10
121.682
 20
21.8336
 30
0.0
 11
121.682
 21
35.833
 31
0.0
  0
LINE
  8
0
 62
     0
 10
140.732
 20
35.833
 30
0.0
 11
154.732
 21
35.833
 31
0.0
  0
LINE
  8
0
 62
     0
 10
154.732
 20
35.833
 30
0.0
 11
154.732
 21
21.8336
 31
0.0
  0
LINE
  8
0
 62
     0
 10
154.732
 20
21.8336
 30
0.0
 11
140.732
 21
21.8336
 31
0.0
  0
LINE
  8
0
 62
     0
 10
140.732
 20
21.8336
 30
0.0
 11
140.732
 21
35.833
 31
0.0
  0
LINE
  8
0
 62
     0
 10
159.782
 20
35.833
 30
0.0
 11
173.782
 21
35.833
 31
0.0
  0
LINE
  8
0
 62
     0
 10
173.782
 20
35.833
 30
0.0
 11
173.782
 21
21.8336
 31
0.0
  0
LINE
  8
0
 62
     0
 10
173.782
 20
21.8336
 30
0.0
 11
159.782
 21
21.8336
 31
0.0
  0
LINE
  8
0
 62
     0
 10
159.782
 20
21.8336
 30
0.0
 11
159.782
 21
35.833
 31
0.0
  0
LINE
  8
0
 62
     0
 10
216.932
 20
35.833
 30
0.0
 11
230.932
 21
35.833
 31
0.0
  0
LINE
  8
0
 62
     0
 10
230.932
 20
35.833
 30
0.0
 11
230.932
 21
21.8336
 31
0.0
  0
LINE
  8
0
 62
     0
 10
230.932
 20
21.8336
 30
0.0
 11
216.932
 21
21.8336
 31
0.0
  0
LINE
  8
0
 62
     0
 10
216.932
 20
21.8336
 30
0.0
 11
216.932
 21
35.833
 31
0.0
  0
LINE
  8
0
 62
     0
 10
178.832
 20
35.833
 30
0.0
 11
192.832
 21
35.833
 31
0.0
  0
LINE
  8
0
 62
     0
 10
192.832
 20
35.833
 30
0.0
 11
192.832
 21
21.8336
 31
0.0
  0
LINE
  8
0
 62
     0
 10
192.832
 20
21.8336
 30
0.0
 11
178.832
 21
21.8336
 31
0.0
  0
LINE
  8
0
 62
     0
 10
178.832
 20
21.8336
 30
0.0
 11
178.832
 21
35.833
 31
0.0
  0
LINE
  8
0
 62
     0
 10
197.882
 20
35.833
 30
0.0
 11
211.882
 21
35.833
 31
0.0
  0
LINE
  8
0
 62
     0
 10
211.882
 20
35.833
 30
0.0
 11
211.882
 21
21.8336
 31
0.0
  0
LINE
  8
0
 62
     0
 10
211.882
 20
21.8336
 30
0.0
 11
197.882
 21
21.8336
 31
0.0
  0
LINE
  8
0
 62
     0
 10
197.882
 20
21.8336
 30
0.0
 11
197.882
 21
35.833
 31
0.0
  0
LINE
  8
0
 62
     0
 10
9.76203
 20
54.8831
 30
0.0
 11
23.7629
 21
54.8831
 31
0.0
  0
LINE
  8
0
 62
     0
 10
23.7629
 20
54.8831
 30
0.0
 11
23.7629
 21
40.8838
 31
0.0
  0
LINE
  8
0
 62
     0
 10
23.7629
 20
40.8838
 30
0.0
 11
9.76203
 21
40.8838
 31
0.0
  0
LINE
  8
0
 62
     0
 10
9.76203
 20
40.8838
 30
0.0
 11
9.76203
 21
54.8831
 31
0.0
  0
LINE
  8
0
 62
     0
 10
35.9572
 20
54.8831
 30
0.0
 11
49.9565
 21
54.8831
 31
0.0
  0
LINE
  8
0
 62
     0
 10
49.9565
 20
54.8831
 30
0.0
 11
49.9565
 21
40.8838
 31
0.0
  0
LINE
  8
0
 62
     0
 10
49.9565
 20
40.8838
 30
0.0
 11
35.9572
 21
40.8838
 31
0.0
  0
LINE
  8
0
 62
     0
 10
35.9572
 20
40.8838
 30
0.0
 11
35.9572
 21
54.8831
 31
0.0
  0
LINE
  8
0
 62
     0
 10
55.0072
 20
54.8831
 30
0.0
 11
69.0065
 21
54.8831
 31
0.0
  0
LINE
  8
0
 62
     0
 10
69.0065
 20
54.8831
 30
0.0
 11
69.0065
 21
40.8838
 31
0.0
  0
LINE
  8
0
 62
     0
 10
69.0065
 20
40.8838
 30
0.0
 11
55.0072
 21
40.8838
 31
0.0
  0
LINE
  8
0
 62
     0
 10
55.0072
 20
40.8838
 30
0.0
 11
55.0072
 21
54.8831
 31
0.0
  0
LINE
  8
0
 62
     0
 10
74.0572
 20
54.8831
 30
0.0
 11
88.0565
 21
54.8831
 31
0.0
  0
LINE
  8
0
 62
     0
 10
88.0565
 20
54.8831
 30
0.0
 11
88.0565
 21
40.8838
 31
0.0
  0
LINE
  8
0
 62
     0
 10
88.0565
 20
40.8838
 30
0.0
 11
74.0572
 21
40.8838
 31
0.0
  0
LINE
  8
0
 62
     0
 10
74.0572
 20
40.8838
 30
0.0
 11
74.0572
 21
54.8831
 31
0.0
  0
LINE
  8
0
 62
     0
 10
93.1072
 20
54.8831
 30
0.0
 11
107.107
 21
54.8831
 31
0.0
  0
LINE
  8
0
 62
     0
 10
107.107
 20
54.8831
 30
0.0
 11
107.107
 21
40.8838
 31
0.0
  0
LINE
  8
0
 62
     0
 10
107.107
 20
40.8838
 30
0.0
 11
93.1072
 21
40.8838
 31
0.0
  0
LINE
  8
0
 62
     0
 10
93.1072
 20
40.8838
 30
0.0
 11
93.1072
 21
54.8831
 31
0.0
  0
LINE
  8
0
 62
     0
 10
112.157
 20
54.8831
 30
0.0
 11
126.157
 21
54.8831
 31
0.0
  0
LINE
  8
0
 62
     0
 10
126.157
 20
54.8831
 30
0.0
 11
126.157
 21
40.8838
 31
0.0
  0
LINE
  8
0
 62
     0
 10
126.157
 20
40.8838
 30
0.0
 11
112.157
 21
40.8838
 31
0.0
  0
LINE
  8
0
 62
     0
 10
112.157
 20
40.8838
 30
0.0
 11
112.157
 21
54.8831
 31
0.0
  0
LINE
  8
0
 62
     0
 10
131.207
 20
54.8831
 30
0.0
 11
145.207
 21
54.8831
 31
0.0
  0
LINE
  8
0
 62
     0
 10
145.207
 20
54.8831
 30
0.0
 11
145.207
 21
40.8838
 31
0.0
  0
LINE
  8
0
 62
     0
 10
145.207
 20
40.8838
 30
0.0
 11
131.207
 21
40.8838
 31
0.0
  0
LINE
  8
0
 62
     0
 10
131.207
 20
40.8838
 30
0.0
 11
131.207
 21
54.8831
 31
0.0
  0
LINE
  8
0
 62
     0
 10
150.257
 20
54.8831
 30
0.0
 11
164.257
 21
54.8831
 31
0.0
  0
LINE
  8
0
 62
     0
 10
164.257
 20
54.8831
 30
0.0
 11
164.257
 21
40.8838
 31
0.0
  0
LINE
  8
0
 62
     0
 10
164.257
 20
40.8838
 30
0.0
 11
150.257
 21
40.8838
 31
0.0
  0
LINE
  8
0
 62
     0
 10
150.257
 20
40.8838
 30
0.0
 11
150.257
 21
54.8831
 31
0.0
  0
LINE
  8
0
 62
     0
 10
169.307
 20
54.8831
 30
0.0
 11
183.307
 21
54.8831
 31
0.0
  0
LINE
  8
0
 62
     0
 10
183.307
 20
54.8831
 30
0.0
 11
183.307
 21
40.8838
 31
0.0
  0
LINE
  8
0
 62
     0
 10
183.307
 20
40.8838
 30
0.0
 11
169.307
 21
40.8838
 31
0.0
  0
LINE
  8
0
 62
     0
 10
169.307
 20
40.8838
 30
0.0
 11
169.307
 21
54.8831
 31
0.0
  0
LINE
  8
0
 62
     0
 10
188.357
 20
54.8831
 30
0.0
 11
202.357
 21
54.8831
 31
0.0
  0
LINE
  8
0
 62
     0
 10
202.357
 20
54.8831
 30
0.0
 11
202.357
 21
40.8838
 31
0.0
  0
LINE
  8
0
 62
     0
 10
202.357
 20
40.8838
 30
0.0
 11
188.357
 21
40.8838
 31
0.0
  0
LINE
  8
0
 62
     0
 10
188.357
 20
40.8838
 30
0.0
 11
188.357
 21
54.8831
 31
0.0
  0
LINE
  8
0
 62
     0
 10
207.407
 20
54.8831
 30
0.0
 11
221.407
 21
54.8831
 31
0.0
  0
LINE
  8
0
 62
     0
 10
221.407
 20
54.8831
 30
0.0
 11
221.407
 21
40.8838
 31
0.0
  0
LINE
  8
0
 62
     0
 10
221.407
 20
40.8838
 30
0.0
 11
207.407
 21
40.8838
 31
0.0
  0
LINE
  8
0
 62
     0
 10
207.407
 20
40.8838
 30
0.0
 11
207.407
 21
54.8831
 31
0.0
  0
LINE
  8
0
 62
     0
 10
226.457
 20
54.8831
 30
0.0
 11
240.457
 21
54.8831
 31
0.0
  0
LINE
  8
0
 62
     0
 10
240.457
 20
54.8831
 30
0.0
 11
240.457
 21
40.8838
 31
0.0
  0
LINE
  8
0
 62
     0
 10
240.457
 20
40.8838
 30
0.0
 11
226.457
 21
40.8838
 31
0.0
  0
LINE
  8
0
 62
     0
 10
226.457
 20
40.8838
 30
0.0
 11
226.457
 21
54.8831
 31
0.0
  0
LINE
  8
0
 62
     0
 10
252.65
 20
54.8831
 30
0.0
 11
266.65
 21
54.8831
 31
0.0
  0
LINE
  8
0
 62
     0
 10
266.65
 20
54.8831
 30
0.0
 11
266.65
 21
40.8838
 31
0.0
  0
LINE
  8
0
 62
     0
 10
266.65
 20
40.8838
 30
0.0
 11
252.65
 21
40.8838
 31
0.0
  0
LINE
  8
0
 62
     0
 10
252.65
 20
40.8838
 30
0.0
 11
252.65
 21
54.8831
 31
0.0
  0
LINE
  8
0
 62
     0
 10
7.38216
 20
73.9331
 30
0.0
 11
21.3817
 21
73.9331
 31
0.0
  0
LINE
  8
0
 62
     0
 10
21.3817
 20
73.9331
 30
0.0
 11
21.3817
 21
59.9338
 31
0.0
  0
LINE
  8
0
 62
     0
 10
21.3817
 20
59.9338
 30
0.0
 11
7.38216
 21
59.9338
 31
0.0
  0
LINE
  8
0
 62
     0
 10
7.38216
 20
59.9338
 30
0.0
 11
7.38216
 21
73.9331
 31
0.0
  0
LINE
  8
0
 62
     0
 10
31.1947
 20
73.9331
 30
0.0
 11
45.194
 21
73.9331
 31
0.0
  0
LINE
  8
0
 62
     0
 10
45.194
 20
73.9331
 30
0.0
 11
45.194
 21
59.9338
 31
0.0
  0
LINE
  8
0
 62
     0
 10
45.194
 20
59.9338
 30
0.0
 11
31.1947
 21
59.9338
 31
0.0
  0
LINE
  8
0
 62
     0
 10
31.1947
 20
59.9338
 30
0.0
 11
31.1947
 21
73.9331
 31
0.0
  0
LINE
  8
0
 62
     0
 10
50.2447
 20
73.9331
 30
0.0
 11
64.244
 21
73.9331
 31
0.0
  0
LINE
  8
0
 62
     0
 10
64.244
 20
73.9331
 30
0.0
 11
64.244
 21
59.9338
 31
0.0
  0
LINE
  8
0
 62
     0
 10
64.244
 20
59.9338
 30
0.0
 11
50.2447
 21
59.9338
 31
0.0
  0
LINE
  8
0
 62
     0
 10
50.2447
 20
59.9338
 30
0.0
 11
50.2447
 21
73.9331
 31
0.0
  0
LINE
  8
0
 62
     0
 10
69.2947
 20
73.9331
 30
0.0
 11
83.294
 21
73.9331
 31
0.0
  0
LINE
  8
0
 62
     0
 10
83.294
 20
73.9331
 30
0.0
 11
83.294
 21
59.9338
 31
0.0
  0
LINE
  8
0
 62
     0
 10
83.294
 20
59.9338
 30
0.0
 11
69.2947
 21
59.9338
 31
0.0
  0
LINE
  8
0
 62
     0
 10
69.2947
 20
59.9338
 30
0.0
 11
69.2947
 21
73.9331
 31
0.0
  0
LINE
  8
0
 62
     0
 10
88.3447
 20
73.9331
 30
0.0
 11
102.344
 21
73.9331
 31
0.0
  0
LINE
  8
0
 62
     0
 10
102.344
 20
73.9331
 30
0.0
 11
102.344
 21
59.9338
 31
0.0
  0
LINE
  8
0
 62
     0
 10
102.344
 20
59.9338
 30
0.0
 11
88.3447
 21
59.9338
 31
0.0
  0
LINE
  8
0
 62
     0
 10
88.3447
 20
59.9338
 30
0.0
 11
88.3447
 21
73.9331
 31
0.0
  0
LINE
  8
0
 62
     0
 10
107.395
 20
73.9331
 30
0.0
 11
121.394
 21
73.9331
 31
0.0
  0
LINE
  8
0
 62
     0
 10
121.394
 20
73.9331
 30
0.0
 11
121.394
 21
59.9338
 31
0.0
  0
LINE
  8
0
 62
     0
 10
121.394
 20
59.9338
 30
0.0
 11
107.395
 21
59.9338
 31
0.0
  0
LINE
  8
0
 62
     0
 10
107.395
 20
59.9338
 30
0.0
 11
107.395
 21
73.9331
 31
0.0
  0
LINE
  8
0
 62
     0
 10
126.445
 20
73.9331
 30
0.0
 11
140.444
 21
73.9331
 31
0.0
  0
LINE
  8
0
 62
     0
 10
140.444
 20
73.9331
 30
0.0
 11
140.444
 21
59.9338
 31
0.0
  0
LINE
  8
0
 62
     0
 10
140.444
 20
59.9338
 30
0.0
 11
126.445
 21
59.9338
 31
0.0
  0
LINE
  8
0
 62
     0
 10
126.445
 20
59.9338
 30
0.0
 11
126.445
 21
73.9331
 31
0.0
  0
LINE
  8
0
 62
     0
 10
145.495
 20
73.9331
 30
0.0
 11
159.494
 21
73.9331
 31
0.0
  0
LINE
  8
0
 62
     0
 10
159.494
 20
73.9331
 30
0.0
 11
159.494
 21
59.9338
 31
0.0
  0
LINE
  8
0
 62
     0
 10
159.494
 20
59.9338
 30
0.0
 11
145.495
 21
59.9338
 31
0.0
  0
LINE
  8
0
 62
     0
 10
145.495
 20
59.9338
 30
0.0
 11
145.495
 21
73.9331
 31
0.0
  0
LINE
  8
0
 62
     0
 10
164.545
 20
73.9331
 30
0.0
 11
178.544
 21
73.9331
 31
0.0
  0
LINE
  8
0
 62
     0
 10
178.544
 20
73.9331
 30
0.0
 11
178.544
 21
59.9338
 31
0.0
  0
LINE
  8
0
 62
     0
 10
178.544
 20
59.9338
 30
0.0
 11
164.545
 21
59.9338
 31
0.0
  0
LINE
  8
0
 62
     0
 10
164.545
 20
59.9338
 30
0.0
 11
164.545
 21
73.9331
 31
0.0
  0
LINE
  8
0
 62
     0
 10
183.595
 20
73.9331
 30
0.0
 11
197.594
 21
73.9331
 31
0.0
  0
LINE
  8
0
 62
     0
 10
197.594
 20
73.9331
 30
0.0
 11
197.594
 21
59.9338
 31
0.0
  0
LINE
  8
0
 62
     0
 10
197.594
 20
59.9338
 30
0.0
 11
183.595
 21
59.9338
 31
0.0
  0
LINE
  8
0
 62
     0
 10
183.595
 20
59.9338
 30
0.0
 11
183.595
 21
73.9331
 31
0.0
  0
LINE
  8
0
 62
     0
 10
202.645
 20
73.9331
 30
0.0
 11
216.644
 21
73.9331
 31
0.0
  0
LINE
  8
0
 62
     0
 10
216.644
 20
73.9331
 30
0.0
 11
216.644
 21
59.9338
 31
0.0
  0
LINE
  8
0
 62
     0
 10
216.644
 20
59.9338
 30
0.0
 11
202.645
 21
59.9338
 31
0.0
  0
LINE
  8
0
 62
     0
 10
202.645
 20
59.9338
 30
0.0
 11
202.645
 21
73.9331
 31
0.0
  0
LINE
  8
0
 62
     0
 10
226.457
 20
73.9331
 30
0.0
 11
240.457
 21
73.9331
 31
0.0
  0
LINE
  8
0
 62
     0
 10
240.457
 20
73.9331
 30
0.0
 11
240.457
 21
59.9338
 31
0.0
  0
LINE
  8
0
 62
     0
 10
240.457
 20
59.9338
 30
0.0
 11
226.457
 21
59.9338
 31
0.0
  0
LINE
  8
0
 62
     0
 10
226.457
 20
59.9338
 30
0.0
 11
226.457
 21
73.9331
 31
0.0
  0
LINE
  8
0
 62
     0
 10
255.032
 20
73.9331
 30
0.0
 11
269.032
 21
73.9331
 31
0.0
  0
LINE
  8
0
 62
     0
 10
269.032
 20
73.9331
 30
0.0
 11
269.032
 21
59.9338
 31
0.0
  0
LINE
  8
0
 62
     0
 10
269.032
 20
59.9338
 30
0.0
 11
255.032
 21
59.9338
 31
0.0
  0
LINE
  8
0
 62
     0
 10
255.032
 20
59.9338
 30
0.0
 11
255.032
 21
73.9331
 31
0.0
  0
LINE
  8
0
 62
     0
 10
250.27
 20
92.9831
 30
0.0
 11
250.27
 21
88.2826
 31
0.0
  0
LINE
  8
0
 62
     0
 10
250.27
 20
88.2826
 30
0.0
 11
248.744
 21
88.2826
 31
0.0
  0
LINE
  8
0
 62
     0
 10
248.744
 20
88.2826
 30
0.0
 11
248.744
 21
91.5127
 31
0.0
  0
LINE
  8
0
 62
     0
 10
248.744
 20
91.5127
 30
0.0
 11
241.995
 21
91.5127
 31
0.0
  0
LINE
  8
0
 62
     0
 10
241.995
 20
91.5127
 30
0.0
 11
241.995
 21
88.2826
 31
0.0
  0
LINE
  8
0
 62
     0
 10
241.995
 20
88.2826
 30
0.0
 11
241.169
 21
88.2826
 31
0.0
  0
LINE
  8
0
 62
     0
 10
241.169
 20
88.2826
 30
0.0
 11
241.169
 21
85.4837
 31
0.0
  0
LINE
  8
0
 62
     0
 10
241.169
 20
85.4837
 30
0.0
 11
241.995
 21
85.4837
 31
0.0
  0
LINE
  8
0
 62
     0
 10
241.995
 20
85.4837
 30
0.0
 11
241.995
 21
79.2138
 31
0.0
  0
LINE
  8
0
 62
     0
 10
241.995
 20
79.2138
 30
0.0
 11
243.72
 21
79.2138
 31
0.0
  0
LINE
  8
0
 62
     0
 10
243.72
 20
79.2138
 30
0.0
 11
243.72
 21
78.0136
 31
0.0
  0
LINE
  8
0
 62
     0
 10
243.72
 20
78.0136
 30
0.0
 11
247.019
 21
78.0136
 31
0.0
  0
LINE
  8
0
 62
     0
 10
247.019
 20
78.0136
 30
0.0
 11
247.019
 21
79.2138
 31
0.0
  0
LINE
  8
0
 62
     0
 10
247.019
 20
79.2138
 30
0.0
 11
248.744
 21
79.2138
 31
0.0
  0
LINE
  8
0
 62
     0
 10
248.744
 20
79.2138
 30
0.0
 11
248.744
 21
83.6828
 31
0.0
  0
LINE
  8
0
 62
     0
 10
248.744
 20
83.6828
 30
0.0
 11
250.27
 21
83.6828
 31
0.0
  0
LINE
  8
0
 62
     0
 10
250.27
 20
83.6828
 30
0.0
 11
250.27
 21
78.9838
 31
0.0
  0
LINE
  8
0
 62
     0
 10
250.27
 20
78.9838
 30
0.0
 11
264.269
 21
78.9838
 31
0.0
  0
LINE
  8
0
 62
     0
 10
264.269
 20
78.9838
 30
0.0
 11
264.269
 21
83.6828
 31
0.0
  0
LINE
  8
0
 62
     0
 10
264.269
 20
83.6828
 30
0.0
 11
265.795
 21
83.6828
 31
0.0
  0
LINE
  8
0
 62
     0
 10
265.795
 20
83.6828
 30
0.0
 11
265.795
 21
79.2138
 31
0.0
  0
LINE
  8
0
 62
     0
 10
265.795
 20
79.2138
 30
0.0
 11
267.52
 21
79.2138
 31
0.0
  0
LINE
  8
0
 62
     0
 10
267.52
 20
79.2138
 30
0.0
 11
267.52
 21
78.0136
 31
0.0
  0
LINE
  8
0
 62
     0
 10
267.52
 20
78.0136
 30
0.0
 11
270.819
 21
78.0136
 31
0.0
  0
LINE
  8
0
 62
     0
 10
270.819
 20
78.0136
 30
0.0
 11
270.819
 21
79.2138
 31
0.0
  0
LINE
  8
0
 62
     0
 10
270.819
 20
79.2138
 30
0.0
 11
272.544
 21
79.2138
 31
0.0
  0
LINE
  8
0
 62
     0
 10
272.544
 20
79.2138
 30
0.0
 11
272.544
 21
85.4837
 31
0.0
  0
LINE
  8
0
 62
     0
 10
272.544
 20
85.4837
 30
0.0
 11
273.37
 21
85.4837
 31
0.0
  0
LINE
  8
0
 62
     0
 10
273.37
 20
85.4837
 30
0.0
 11
273.37
 21
88.2826
 31
0.0
  0
LINE
  8
0
 62
     0
 10
273.37
 20
88.2826
 30
0.0
 11
272.544
 21
88.2826
 31
0.0
  0
LINE
  8
0
 62
     0
 10
272.544
 20
88.2826
 30
0.0
 11
272.544
 21
91.5127
 31
0.0
  0
LINE
  8
0
 62
     0
 10
272.544
 20
91.5127
 30
0.0
 11
265.795
 21
91.5127
 31
0.0
  0
LINE
  8
0
 62
     0
 10
265.795
 20
91.5127
 30
0.0
 11
265.795
 21
88.2826
 31
0.0
  0
LINE
  8
0
 62
     0
 10
265.795
 20
88.2826
 30
0.0
 11
264.269
 21
88.2826
 31
0.0
  0
LINE
  8
0
 62
     0
 10
264.269
 20
88.2826
 30
0.0
 11
264.269
 21
92.9831
 31
0.0
  0
LINE
  8
0
 62
     0
 10
264.269
 20
92.9831
 30
0.0
 11
250.27
 21
92.9831
 31
0.0
  0
LINE
  8
0
 62
     0
 10
2.61965
 20
92.9831
 30
0.0
 11
16.6192
 21
92.9831
 31
0.0
  0
LINE
  8
0
 62
     0
 10
16.6192
 20
92.9831
 30
0.0
 11
16.6192
 21
78.9838
 31
0.0
  0
LINE
  8
0
 62
     0
 10
16.6192
 20
78.9838
 30
0.0
 11
2.61965
 21
78.9838
 31
0.0
  0
LINE
  8
0
 62
     0
 10
2.61965
 20
78.9838
 30
0.0
 11
2.61965
 21
92.9831
 31
0.0
  0
LINE
  8
0
 62
     0
 10
21.6697
 20
92.9831
 30
0.0
 11
35.669
 21
92.9831
 31
0.0
  0
LINE
  8
0
 62
     0
 10
35.669
 20
92.9831
 30
0.0
 11
35.669
 21
78.9838
 31
0.0
  0
LINE
  8
0
 62
     0
 10
35.669
 20
78.9838
 30
0.0
 11
21.6697
 21
78.9838
 31
0.0
  0
LINE
  8
0
 62
     0
 10
21.6697
 20
78.9838
 30
0.0
 11
21.6697
 21
92.9831
 31
0.0
  0
LINE
  8
0
 62
     0
 10
40.7197
 20
92.9831
 30
0.0
 11
54.719
 21
92.9831
 31
0.0
  0
LINE
  8
0
 62
     0
 10
54.719
 20
92.9831
 30
0.0
 11
54.719
 21
78.9838
 31
0.0
  0
LINE
  8
0
 62
     0
 10
54.719
 20
78.9838
 30
0.0
 11
40.7197
 21
78.9838
 31
0.0
  0
LINE
  8
0
 62
     0
 10
40.7197
 20
78.9838
 30
0.0
 11
40.7197
 21
92.9831
 31
0.0
  0
LINE
  8
0
 62
     0
 10
59.7697
 20
92.9831
 30
0.0
 11
73.769
 21
92.9831
 31
0.0
  0
LINE
  8
0
 62
     0
 10
73.769
 20
92.9831
 30
0.0
 11
73.769
 21
78.9838
 31
0.0
  0
LINE
  8
0
 62
     0
 10
73.769
 20
78.9838
 30
0.0
 11
59.7697
 21
78.9838
 31
0.0
  0
LINE
  8
0
 62
     0
 10
59.7697
 20
78.9838
 30
0.0
 11
59.7697
 21
92.9831
 31
0.0
  0
LINE
  8
0
 62
     0
 10
78.8197
 20
92.9831
 30
0.0
 11
92.819
 21
92.9831
 31
0.0
  0
LINE
  8
0
 62
     0
 10
92.819
 20
92.9831
 30
0.0
 11
92.819
 21
78.9838
 31
0.0
  0
LINE
  8
0
 62
     0
 10
92.819
 20
78.9838
 30
0.0
 11
78.8197
 21
78.9838
 31
0.0
  0
LINE
  8
0
 62
     0
 10
78.8197
 20
78.9838
 30
0.0
 11
78.8197
 21
92.9831
 31
0.0
  0
LINE
  8
0
 62
     0
 10
97.8683
 20
92.9831
 30
0.0
 11
111.869
 21
92.9831
 31
0.0
  0
LINE
  8
0
 62
     0
 10
111.869
 20
92.9831
 30
0.0
 11
111.869
 21
78.9838
 31
0.0
  0
LINE
  8
0
 62
     0
 10
111.869
 20
78.9838
 30
0.0
 11
97.8683
 21
78.9838
 31
0.0
  0
LINE
  8
0
 62
     0
 10
97.8683
 20
78.9838
 30
0.0
 11
97.8683
 21
92.9831
 31
0.0
  0
LINE
  8
0
 62
     0
 10
116.918
 20
92.9831
 30
0.0
 11
130.919
 21
92.9831
 31
0.0
  0
LINE
  8
0
 62
     0
 10
130.919
 20
92.9831
 30
0.0
 11
130.919
 21
78.9838
 31
0.0
  0
LINE
  8
0
 62
     0
 10
130.919
 20
78.9838
 30
0.0
 11
116.918
 21
78.9838
 31
0.0
  0
LINE
  8
0
 62
     0
 10
116.918
 20
78.9838
 30
0.0
 11
116.918
 21
92.9831
 31
0.0
  0
LINE
  8
0
 62
     0
 10
135.97
 20
92.9831
 30
0.0
 11
149.969
 21
92.9831
 31
0.0
  0
LINE
  8
0
 62
     0
 10
149.969
 20
92.9831
 30
0.0
 11
149.969
 21
78.9838
 31
0.0
  0
LINE
  8
0
 62
     0
 10
149.969
 20
78.9838
 30
0.0
 11
135.97
 21
78.9838
 31
0.0
  0
LINE
  8
0
 62
     0
 10
135.97
 20
78.9838
 30
0.0
 11
135.97
 21
92.9831
 31
0.0
  0
LINE
  8
0
 62
     0
 10
155.02
 20
92.9831
 30
0.0
 11
169.019
 21
92.9831
 31
0.0
  0
LINE
  8
0
 62
     0
 10
169.019
 20
92.9831
 30
0.0
 11
169.019
 21
78.9838
 31
0.0
  0
LINE
  8
0
 62
     0
 10
169.019
 20
78.9838
 30
0.0
 11
155.02
 21
78.9838
 31
0.0
  0
LINE
  8
0
 62
     0
 10
155.02
 20
78.9838
 30
0.0
 11
155.02
 21
92.9831
 31
0.0
  0
LINE
  8
0
 62
     0
 10
174.07
 20
92.9831
 30
0.0
 11
188.069
 21
92.9831
 31
0.0
  0
LINE
  8
0
 62
     0
 10
188.069
 20
92.9831
 30
0.0
 11
188.069
 21
78.9838
 31
0.0
  0
LINE
  8
0
 62
     0
 10
188.069
 20
78.9838
 30
0.0
 11
174.07
 21
78.9838
 31
0.0
  0
LINE
  8
0
 62
     0
 10
174.07
 20
78.9838
 30
0.0
 11
174.07
 21
92.9831
 31
0.0
  0
LINE
  8
0
 62
     0
 10
193.12
 20
92.9831
 30
0.0
 11
207.119
 21
92.9831
 31
0.0
  0
LINE
  8
0
 62
     0
 10
207.119
 20
92.9831
 30
0.0
 11
207.119
 21
78.9838
 31
0.0
  0
LINE
  8
0
 62
     0
 10
207.119
 20
78.9838
 30
0.0
 11
193.12
 21
78.9838
 31
0.0
  0
LINE
  8
0
 62
     0
 10
193.12
 20
78.9838
 30
0.0
 11
193.12
 21
92.9831
 31
0.0
  0
LINE
  8
0
 62
     0
 10
216.932
 20
92.9831
 30
0.0
 11
230.932
 21
92.9831
 31
0.0
  0
LINE
  8
0
 62
     0
 10
230.932
 20
92.9831
 30
0.0
 11
230.932
 21
78.9838
 31
0.0
  0
LINE
  8
0
 62
     0
 10
230.932
 20
78.9838
 30
0.0
 11
216.932
 21
78.9838
 31
0.0
  0
LINE
  8
0
 62
     0
 10
216.932
 20
78.9838
 30
0.0
 11
216.932
 21
92.9831
 31
0.0
  0
ENDSEC
  0
EOF
