M48
; DRILL file {KiCad (6.0.10)} date Sun Mar 26 00:58:37 2023
; FORMAT={-:-/ absolute / metric / decimal}
; #@! TF.CreationDate,2023-03-26T00:58:37+03:00
; #@! TF.GenerationSoftware,Kicad,Pcbnew,(6.0.10)
; #@! TF.FileFunction,Plated,1,2,PTH
FMAT,2
METRIC
; #@! TA.AperFunction,Plated,PTH,ViaDrill
T1C0.400
; #@! TA.AperFunction,Plated,PTH,ComponentDrill
T2C0.750
; #@! TA.AperFunction,Plated,PTH,ComponentDrill
T3C0.800
; #@! TA.AperFunction,Plated,PTH,ComponentDrill
T4C0.990
; #@! TA.AperFunction,Plated,PTH,ComponentDrill
T5C1.000
; #@! TA.AperFunction,Plated,PTH,ComponentDrill
T6C1.200
; #@! TA.AperFunction,Plated,PTH,ComponentDrill
T7C1.300
; #@! TA.AperFunction,Plated,PTH,ComponentDrill
T8C2.300
; #@! TA.AperFunction,Plated,PTH,ComponentDrill
T9C2.800
%
G90
G05
T1
X83.728Y-123.865
X86.193Y-138.662
X87.295Y-176.538
X90.078Y-108.822
X92.338Y-123.664
X92.352Y-188.54
X92.432Y-141.669
X97.301Y-142.401
X98.518Y-137.934
X99.384Y-100.748
X103.889Y-135.147
X105.47Y-197.237
X105.936Y-121.04
X106.315Y-135.463
X107.073Y-198.658
X108.626Y-202.669
X108.772Y-159.412
X110.859Y-187.637
X111.031Y-128.208
X113.811Y-130.831
X114.25Y-168.078
X114.357Y-152.003
X114.76Y-131.745
X114.833Y-185.284
X115.904Y-158.57
X116.05Y-137.228
X119.497Y-176.02
X120.0Y-187.127
X120.74Y-187.959
X121.771Y-188.286
X122.889Y-152.82
X123.19Y-187.064
X127.299Y-199.588
X128.962Y-141.049
X129.013Y-120.674
X130.342Y-162.217
X130.635Y-175.4
X131.036Y-143.206
X132.216Y-116.798
X132.462Y-164.377
X133.119Y-203.163
X133.511Y-130.598
X133.783Y-158.099
X134.387Y-154.521
X134.707Y-137.458
X134.87Y-164.239
X136.255Y-209.834
X138.257Y-156.647
X138.315Y-94.107
X139.429Y-215.746
X141.159Y-142.565
X141.302Y-115.476
X142.32Y-187.464
X142.457Y-169.205
X142.984Y-101.337
X144.781Y-172.657
X145.218Y-147.415
X145.221Y-154.271
X147.33Y-155.538
X147.937Y-142.945
X148.164Y-96.106
X148.641Y-175.778
X148.648Y-141.781
X148.915Y-154.169
X149.627Y-161.557
X150.514Y-104.07
X150.789Y-172.651
X150.917Y-176.313
X151.183Y-115.428
X151.899Y-130.875
X152.656Y-157.945
X152.908Y-172.651
X152.924Y-147.381
X153.092Y-124.811
X154.124Y-107.206
X155.115Y-155.141
X155.468Y-141.972
X155.691Y-123.706
X156.187Y-163.827
X156.93Y-199.662
X157.477Y-146.838
X157.822Y-155.141
X158.656Y-139.424
X158.8Y-143.105
X159.763Y-180.465
X160.67Y-146.469
X161.176Y-128.151
X161.734Y-172.545
X161.752Y-147.194
X162.061Y-129.862
X163.145Y-121.382
X163.338Y-158.824
X163.428Y-169.683
X164.543Y-157.381
X164.643Y-152.482
X164.857Y-125.668
X164.912Y-163.937
X165.062Y-155.772
X165.472Y-201.874
X165.894Y-151.853
X166.38Y-153.188
X166.618Y-174.479
X166.836Y-123.686
X167.351Y-108.822
X167.351Y-165.579
X167.594Y-201.016
X167.878Y-189.828
X168.608Y-153.197
X168.635Y-174.166
X168.843Y-163.819
X169.397Y-169.64
X169.605Y-186.607
X169.606Y-135.352
X169.993Y-180.602
X170.2Y-172.052
X170.476Y-152.386
X171.497Y-99.062
X171.947Y-93.411
X172.212Y-158.566
X172.25Y-97.635
X175.249Y-154.691
X175.768Y-78.74
X177.613Y-128.264
X178.042Y-157.662
X179.579Y-150.321
X179.982Y-125.221
X180.775Y-151.599
X180.775Y-154.872
X181.989Y-150.321
X183.155Y-117.182
X185.085Y-120.597
X185.527Y-150.634
X186.115Y-194.8
X186.165Y-172.431
X186.375Y-108.781
X187.361Y-106.165
X188.329Y-140.801
X188.336Y-136.058
X188.337Y-172.816
X188.404Y-105.615
X188.413Y-153.29
X188.899Y-107.629
X188.932Y-122.068
X189.206Y-143.105
X189.547Y-169.109
X189.819Y-206.505
X190.023Y-92.934
X190.286Y-207.747
X190.599Y-112.473
X190.644Y-139.272
X190.697Y-155.253
X190.816Y-187.64
X191.137Y-135.332
X191.235Y-132.391
X191.516Y-184.227
X191.742Y-196.318
X192.419Y-127.023
X192.765Y-161.343
X192.781Y-180.8
X193.136Y-158.066
X193.159Y-135.506
X194.178Y-129.038
X194.832Y-187.118
X195.684Y-150.352
X195.905Y-146.252
X196.709Y-151.378
X196.898Y-187.474
X196.907Y-101.466
X197.827Y-97.569
X198.374Y-79.248
X199.167Y-132.391
X199.95Y-195.977
X202.464Y-195.275
X203.039Y-129.038
X203.309Y-120.36
X203.475Y-124.737
X203.66Y-143.68
X204.216Y-100.136
X204.967Y-97.589
X205.422Y-146.864
X205.442Y-110.131
X205.56Y-95.824
X206.308Y-141.227
X206.424Y-142.878
X209.841Y-153.228
X210.095Y-187.942
X210.792Y-177.305
X210.873Y-174.969
X212.115Y-176.484
X212.723Y-141.519
X212.828Y-143.603
X213.166Y-130.607
X213.551Y-128.52
X213.929Y-175.695
X214.342Y-131.374
X215.042Y-197.484
X215.183Y-177.129
X215.245Y-173.659
X215.285Y-191.046
X215.62Y-114.719
X216.605Y-117.887
X216.854Y-175.42
X219.075Y-157.05
X219.132Y-141.519
X219.346Y-166.878
X219.644Y-153.402
X219.928Y-134.061
X220.02Y-106.513
X220.091Y-78.994
X220.094Y-148.695
X220.229Y-139.689
X220.258Y-135.076
X222.023Y-170.053
X222.217Y-171.503
X222.413Y-143.603
X222.565Y-179.016
X223.599Y-155.828
X225.441Y-173.167
X225.481Y-156.436
X226.096Y-107.19
X226.153Y-101.775
X226.486Y-105.883
X226.522Y-199.125
X226.591Y-167.654
X227.263Y-177.118
X227.415Y-132.213
X227.705Y-166.155
X228.902Y-145.499
X228.914Y-137.046
X229.471Y-142.333
X230.722Y-143.137
X231.528Y-133.337
X231.927Y-148.752
X231.999Y-142.041
X232.168Y-166.915
X232.57Y-164.648
X233.629Y-130.101
X233.659Y-132.612
X234.266Y-141.292
X235.115Y-155.93
X235.192Y-124.596
X235.854Y-152.491
X236.386Y-172.403
X236.696Y-131.022
X236.869Y-143.511
X238.281Y-108.566
X238.861Y-177.118
X239.944Y-168.479
X239.962Y-145.419
X240.502Y-186.918
X240.897Y-202.557
X241.673Y-142.786
X242.945Y-178.442
X243.549Y-159.933
X243.966Y-168.479
X244.279Y-111.021
X244.298Y-153.411
X244.404Y-192.621
X244.415Y-156.415
X245.417Y-177.605
X245.497Y-137.518
X245.561Y-152.392
X245.706Y-181.697
X245.803Y-145.63
X246.156Y-122.868
X246.397Y-208.496
X246.934Y-133.578
X248.406Y-130.21
X248.689Y-137.827
X250.71Y-175.717
X250.966Y-165.43
X251.186Y-99.564
X251.714Y-79.375
X251.921Y-181.322
X253.069Y-165.281
X254.769Y-176.097
X254.987Y-156.415
X255.44Y-100.687
X257.345Y-95.231
X258.086Y-179.364
X258.564Y-154.35
X259.029Y-149.138
X260.423Y-160.299
X261.602Y-155.738
X262.046Y-178.461
X264.181Y-201.675
X264.337Y-181.017
X264.525Y-137.029
X264.76Y-157.217
X266.379Y-177.108
X266.569Y-137.029
X267.786Y-188.394
X268.294Y-155.293
X268.965Y-133.578
X269.045Y-142.041
X270.398Y-157.217
X270.7Y-152.906
X270.83Y-187.669
X270.903Y-144.003
X271.179Y-137.005
X271.523Y-152.029
X271.988Y-174.695
X272.58Y-145.63
X272.923Y-78.105
X273.707Y-101.204
X274.796Y-151.738
X276.556Y-122.86
X277.998Y-135.959
X278.112Y-144.783
X278.842Y-104.776
X279.916Y-131.492
X286.427Y-109.725
X287.018Y-135.471
X288.093Y-189.534
X291.857Y-184.613
X291.882Y-204.193
X292.399Y-127.97
X293.529Y-106.447
X293.629Y-111.61
X293.65Y-144.156
X294.227Y-163.549
X294.996Y-151.892
X295.838Y-158.066
X297.568Y-116.963
X299.384Y-199.76
X299.766Y-201.259
X299.873Y-152.865
X301.217Y-120.738
X302.154Y-95.573
X302.804Y-107.741
X302.99Y-203.183
X303.808Y-110.6
X304.754Y-107.06
X304.817Y-112.196
X305.964Y-111.325
X306.125Y-156.623
X306.366Y-110.017
X306.882Y-133.34
X307.264Y-168.358
X308.804Y-133.073
X309.436Y-102.98
X310.445Y-123.572
X310.714Y-116.674
X313.25Y-203.224
X313.282Y-159.415
X313.557Y-106.566
X313.632Y-153.808
X314.006Y-184.386
X314.912Y-200.785
X315.371Y-137.281
X315.441Y-186.967
X315.498Y-160.559
X315.504Y-175.696
X316.577Y-146.094
X317.544Y-106.602
X317.854Y-159.844
X318.582Y-105.974
X318.657Y-133.121
X319.93Y-164.598
X320.167Y-77.978
X320.951Y-97.076
X321.562Y-130.833
X323.119Y-153.222
X323.45Y-115.824
X323.596Y-124.307
X323.927Y-161.152
X324.681Y-165.708
X325.991Y-140.689
X326.672Y-129.194
X326.831Y-116.963
X326.877Y-196.334
X327.836Y-116.531
X327.919Y-195.023
X328.796Y-133.293
X330.377Y-152.562
X330.625Y-159.871
X331.137Y-167.849
X331.498Y-142.178
X331.501Y-157.004
X332.182Y-180.031
X333.513Y-159.044
X333.797Y-109.048
X334.253Y-191.91
X334.537Y-148.492
X334.537Y-150.867
X334.941Y-92.381
X335.965Y-98.099
X336.3Y-161.337
X336.508Y-94.616
X337.51Y-122.784
X337.933Y-105.044
X338.064Y-116.727
X338.332Y-144.034
X338.812Y-105.974
X339.015Y-109.773
X340.275Y-140.849
X340.745Y-126.486
X340.745Y-131.676
X341.673Y-125.362
X342.094Y-127.661
X342.405Y-95.268
X342.473Y-130.716
X342.673Y-125.761
X343.689Y-126.214
X346.888Y-179.299
X352.813Y-177.979
T2
X112.543Y-86.995
X112.543Y-88.265
X112.543Y-89.535
X219.35Y-95.377
X219.35Y-96.647
X219.35Y-97.917
X226.97Y-95.377
X226.97Y-96.647
X226.97Y-97.917
X234.59Y-95.377
X234.59Y-96.647
X234.59Y-97.917
X242.21Y-95.377
X242.21Y-96.647
X242.21Y-97.917
X298.852Y-159.766
X298.852Y-161.036
X298.852Y-162.306
X351.303Y-181.61
X351.303Y-182.88
X351.303Y-184.15
T3
X81.28Y-199.557
X81.28Y-204.557
X84.074Y-165.354
X84.074Y-175.514
X84.201Y-150.495
X84.201Y-160.655
X84.455Y-134.827
X84.455Y-139.827
X85.471Y-187.071
X85.471Y-197.231
X85.471Y-199.557
X85.471Y-204.557
X86.614Y-107.315
X86.614Y-117.475
X89.804Y-140.083
X89.804Y-147.703
X89.804Y-161.583
X89.804Y-169.203
X92.344Y-107.833
X92.344Y-115.453
X92.344Y-118.583
X92.344Y-126.203
X92.344Y-129.333
X92.344Y-136.953
X92.344Y-140.083
X92.344Y-147.703
X92.344Y-150.833
X92.344Y-158.453
X92.344Y-161.583
X92.344Y-169.203
X92.344Y-172.333
X92.344Y-179.953
X92.344Y-183.083
X92.344Y-190.703
X92.344Y-193.833
X92.344Y-201.453
X92.344Y-204.583
X92.344Y-212.203
X94.488Y-92.964
X94.488Y-103.124
X94.884Y-107.833
X94.884Y-115.453
X94.884Y-118.583
X94.884Y-126.203
X94.884Y-129.333
X94.884Y-136.953
X94.884Y-140.083
X94.884Y-147.703
X94.884Y-150.833
X94.884Y-158.453
X94.884Y-161.583
X94.884Y-169.203
X94.884Y-172.333
X94.884Y-179.953
X94.884Y-183.083
X94.884Y-190.703
X94.884Y-193.833
X94.884Y-201.453
X94.884Y-204.583
X94.884Y-212.203
X97.348Y-88.661
X97.424Y-107.833
X97.424Y-115.453
X97.424Y-118.583
X97.424Y-126.203
X97.424Y-129.333
X97.424Y-136.953
X97.424Y-140.083
X97.424Y-147.703
X97.424Y-150.833
X97.424Y-158.453
X97.424Y-161.583
X97.424Y-169.203
X97.424Y-172.333
X97.424Y-179.953
X97.424Y-183.083
X97.424Y-190.703
X97.424Y-193.833
X97.424Y-201.453
X97.424Y-204.583
X97.424Y-212.203
X99.568Y-98.044
X99.568Y-103.044
X99.964Y-107.833
X99.964Y-115.453
X99.964Y-118.583
X99.964Y-126.203
X99.964Y-129.333
X99.964Y-136.953
X99.964Y-140.083
X99.964Y-147.703
X99.964Y-150.833
X99.964Y-158.453
X99.964Y-161.583
X99.964Y-169.203
X99.964Y-172.333
X99.964Y-179.953
X99.964Y-183.083
X99.964Y-190.703
X99.964Y-193.833
X99.964Y-201.453
X99.964Y-204.583
X99.964Y-212.203
X102.228Y-88.661
X102.504Y-107.833
X102.504Y-115.453
X102.504Y-118.583
X102.504Y-126.203
X102.504Y-129.333
X102.504Y-136.953
X102.504Y-140.083
X102.504Y-147.703
X102.504Y-150.833
X102.504Y-158.453
X102.504Y-161.583
X102.504Y-169.203
X102.504Y-172.333
X102.504Y-179.953
X102.504Y-183.083
X102.504Y-190.703
X102.504Y-193.833
X102.504Y-201.453
X102.504Y-204.583
X102.504Y-212.203
X104.648Y-92.964
X104.648Y-103.124
X105.044Y-107.833
X105.044Y-115.453
X105.044Y-118.583
X105.044Y-126.203
X105.044Y-129.333
X105.044Y-136.953
X105.044Y-140.083
X105.044Y-147.703
X105.044Y-150.833
X105.044Y-158.453
X105.044Y-161.583
X105.044Y-169.203
X105.044Y-172.333
X105.044Y-179.953
X105.044Y-183.083
X105.044Y-190.703
X105.044Y-193.833
X105.044Y-201.453
X105.044Y-204.583
X105.044Y-212.203
X107.584Y-107.833
X107.584Y-115.453
X107.584Y-118.583
X107.584Y-126.203
X107.584Y-129.333
X107.584Y-136.953
X107.584Y-140.083
X107.584Y-147.703
X107.584Y-150.833
X107.584Y-158.453
X107.584Y-161.583
X107.584Y-169.203
X107.584Y-172.333
X107.584Y-179.953
X107.584Y-183.083
X107.584Y-190.703
X107.584Y-193.833
X107.584Y-201.453
X107.584Y-204.583
X107.584Y-212.203
X111.125Y-172.466
X111.125Y-177.466
X112.268Y-115.316
X112.268Y-125.476
X113.411Y-103.672
X113.411Y-108.672
X117.353Y-204.583
X117.353Y-212.203
X117.475Y-86.614
X117.475Y-96.774
X117.475Y-137.458
X117.475Y-145.078
X117.48Y-103.896
X117.48Y-111.516
X117.48Y-115.083
X117.48Y-122.703
X117.48Y-126.271
X117.48Y-133.891
X117.48Y-182.208
X117.48Y-189.828
X117.48Y-193.396
X117.48Y-201.016
X117.485Y-148.646
X117.485Y-156.266
X117.485Y-159.833
X117.485Y-167.453
X117.485Y-171.021
X117.485Y-178.641
X119.893Y-204.583
X119.893Y-212.203
X120.015Y-137.458
X120.015Y-145.078
X120.02Y-103.896
X120.02Y-111.516
X120.02Y-115.083
X120.02Y-122.703
X120.02Y-126.271
X120.02Y-133.891
X120.02Y-182.208
X120.02Y-189.828
X120.02Y-193.396
X120.02Y-201.016
X120.025Y-148.646
X120.025Y-156.266
X120.025Y-159.833
X120.025Y-167.453
X120.025Y-171.021
X120.025Y-178.641
X122.433Y-204.583
X122.433Y-212.203
X122.555Y-137.458
X122.555Y-145.078
X122.56Y-103.896
X122.56Y-111.516
X122.56Y-115.083
X122.56Y-122.703
X122.56Y-126.271
X122.56Y-133.891
X122.56Y-182.208
X122.56Y-189.828
X122.56Y-193.396
X122.56Y-201.016
X122.565Y-148.646
X122.565Y-156.266
X122.565Y-159.833
X122.565Y-167.453
X122.565Y-171.021
X122.565Y-178.641
X122.589Y-83.947
X122.589Y-86.487
X122.589Y-89.027
X122.589Y-91.567
X122.589Y-94.107
X124.973Y-204.583
X124.973Y-212.203
X125.095Y-137.458
X125.095Y-145.078
X125.1Y-103.896
X125.1Y-111.516
X125.1Y-115.083
X125.1Y-122.703
X125.1Y-126.271
X125.1Y-133.891
X125.1Y-182.208
X125.1Y-189.828
X125.1Y-193.396
X125.1Y-201.016
X125.105Y-148.646
X125.105Y-156.266
X125.105Y-159.833
X125.105Y-167.453
X125.105Y-171.021
X125.105Y-178.641
X127.513Y-204.583
X127.513Y-212.203
X127.635Y-137.458
X127.635Y-145.078
X127.64Y-103.896
X127.64Y-111.516
X127.64Y-115.083
X127.64Y-122.703
X127.64Y-126.271
X127.64Y-133.891
X127.64Y-182.208
X127.64Y-189.828
X127.64Y-193.396
X127.64Y-201.016
X127.645Y-148.646
X127.645Y-156.266
X127.645Y-159.833
X127.645Y-167.453
X127.645Y-171.021
X127.645Y-178.641
X130.053Y-204.583
X130.053Y-212.203
X130.175Y-137.458
X130.175Y-145.078
X130.18Y-103.896
X130.18Y-111.516
X130.18Y-115.083
X130.18Y-122.703
X130.18Y-126.271
X130.18Y-133.891
X130.18Y-182.208
X130.18Y-189.828
X130.18Y-193.396
X130.18Y-201.016
X130.185Y-148.646
X130.185Y-156.266
X130.185Y-159.833
X130.185Y-167.453
X130.185Y-171.021
X130.185Y-178.641
X132.593Y-204.583
X132.593Y-212.203
X132.715Y-137.458
X132.715Y-145.078
X132.72Y-103.896
X132.72Y-111.516
X132.72Y-115.083
X132.72Y-122.703
X132.72Y-126.271
X132.72Y-133.891
X132.72Y-182.208
X132.72Y-189.828
X132.72Y-193.396
X132.72Y-201.016
X132.725Y-148.646
X132.725Y-156.266
X132.725Y-159.833
X132.725Y-167.453
X132.725Y-171.021
X132.725Y-178.641
X132.749Y-83.947
X132.749Y-86.487
X132.749Y-89.027
X132.749Y-91.567
X132.749Y-94.107
X135.001Y-83.947
X135.001Y-86.487
X135.001Y-89.027
X135.001Y-91.567
X135.001Y-94.107
X135.265Y-148.646
X135.265Y-156.266
X135.265Y-159.833
X135.265Y-167.453
X135.265Y-171.021
X135.265Y-178.641
X136.398Y-103.505
X136.398Y-113.665
X138.303Y-135.255
X138.303Y-145.415
X139.319Y-148.289
X139.319Y-153.289
X139.954Y-98.719
X139.954Y-103.719
X143.256Y-98.719
X143.256Y-103.719
X143.51Y-204.583
X143.51Y-212.203
X143.52Y-126.271
X143.52Y-133.891
X143.52Y-137.458
X143.52Y-145.078
X143.52Y-148.646
X143.52Y-156.266
X143.52Y-159.833
X143.52Y-167.453
X143.52Y-171.021
X143.52Y-178.641
X143.52Y-182.208
X143.52Y-189.828
X143.764Y-196.524
X143.764Y-201.524
X145.161Y-83.947
X145.161Y-86.487
X145.161Y-89.027
X145.161Y-91.567
X145.161Y-94.107
X146.05Y-204.583
X146.05Y-212.203
X146.055Y-113.929
X146.055Y-121.549
X146.06Y-126.271
X146.06Y-133.891
X146.06Y-137.458
X146.06Y-145.078
X146.06Y-148.646
X146.06Y-156.266
X146.06Y-159.833
X146.06Y-167.453
X146.06Y-171.021
X146.06Y-178.641
X146.06Y-182.208
X146.06Y-189.828
X146.431Y-98.933
X146.431Y-104.902
X146.438Y-102.093
X146.438Y-107.442
X146.558Y-197.993
X146.558Y-201.295
X148.59Y-204.583
X148.59Y-212.203
X148.595Y-113.929
X148.595Y-121.549
X148.6Y-126.271
X148.6Y-133.891
X148.6Y-137.458
X148.6Y-145.078
X148.6Y-148.646
X148.6Y-156.266
X148.6Y-159.833
X148.6Y-167.453
X148.6Y-171.021
X148.6Y-178.641
X148.6Y-182.208
X148.6Y-189.828
X151.13Y-204.583
X151.13Y-212.203
X151.135Y-113.929
X151.135Y-121.549
X151.14Y-126.271
X151.14Y-133.891
X151.14Y-137.458
X151.14Y-145.078
X151.14Y-148.646
X151.14Y-156.266
X151.14Y-159.833
X151.14Y-167.453
X151.14Y-171.021
X151.14Y-178.641
X151.14Y-182.208
X151.14Y-189.828
X153.67Y-204.583
X153.67Y-212.203
X153.675Y-113.929
X153.675Y-121.549
X153.68Y-126.271
X153.68Y-133.891
X153.68Y-137.458
X153.68Y-145.078
X153.68Y-148.646
X153.68Y-156.266
X153.68Y-159.833
X153.68Y-167.453
X153.68Y-171.021
X153.68Y-178.641
X153.68Y-182.208
X153.68Y-189.828
X156.21Y-204.583
X156.21Y-212.203
X156.215Y-113.929
X156.215Y-121.549
X156.22Y-126.271
X156.22Y-133.891
X156.22Y-137.458
X156.22Y-145.078
X156.22Y-148.646
X156.22Y-156.266
X156.22Y-159.833
X156.22Y-167.453
X156.22Y-171.021
X156.22Y-178.641
X156.22Y-182.208
X156.22Y-189.828
X156.591Y-98.933
X156.591Y-104.902
X156.598Y-102.093
X156.598Y-107.442
X156.718Y-197.993
X156.718Y-201.295
X158.75Y-204.583
X158.75Y-212.203
X158.755Y-113.929
X158.755Y-121.549
X158.76Y-126.271
X158.76Y-133.891
X158.76Y-137.458
X158.76Y-145.078
X158.76Y-148.646
X158.76Y-156.266
X158.76Y-159.833
X158.76Y-167.453
X158.76Y-171.021
X158.76Y-178.641
X158.76Y-182.208
X158.76Y-189.828
X161.295Y-113.929
X161.295Y-121.549
X161.3Y-126.271
X161.3Y-133.891
X161.3Y-137.458
X161.3Y-145.078
X161.3Y-148.646
X161.3Y-156.266
X161.3Y-159.833
X161.3Y-167.453
X161.3Y-171.021
X161.3Y-178.641
X161.3Y-182.208
X161.3Y-189.828
X163.957Y-195.199
X163.957Y-205.359
X171.201Y-103.896
X171.201Y-111.516
X171.201Y-115.083
X171.201Y-122.703
X171.211Y-126.271
X171.211Y-133.891
X171.211Y-137.458
X171.211Y-145.078
X171.211Y-148.646
X171.211Y-156.266
X171.211Y-159.833
X171.211Y-167.453
X171.211Y-171.021
X171.211Y-178.641
X171.211Y-182.208
X171.211Y-189.828
X171.211Y-193.396
X171.211Y-201.016
X171.211Y-204.583
X171.211Y-212.203
X173.741Y-103.896
X173.741Y-111.516
X173.741Y-115.083
X173.741Y-122.703
X173.751Y-126.271
X173.751Y-133.891
X173.751Y-137.458
X173.751Y-145.078
X173.751Y-148.646
X173.751Y-156.266
X173.751Y-159.833
X173.751Y-167.453
X173.751Y-171.021
X173.751Y-178.641
X173.751Y-182.208
X173.751Y-189.828
X173.751Y-193.396
X173.751Y-201.016
X173.751Y-204.583
X173.751Y-212.203
X176.281Y-103.896
X176.281Y-111.516
X176.281Y-115.083
X176.281Y-122.703
X176.291Y-126.271
X176.291Y-133.891
X176.291Y-137.458
X176.291Y-145.078
X176.291Y-148.646
X176.291Y-156.266
X176.291Y-159.833
X176.291Y-167.453
X176.291Y-171.021
X176.291Y-178.641
X176.291Y-182.208
X176.291Y-189.828
X176.291Y-193.396
X176.291Y-201.016
X176.291Y-204.583
X176.291Y-212.203
X177.673Y-96.139
X178.821Y-103.896
X178.821Y-111.516
X178.821Y-115.083
X178.821Y-122.703
X178.831Y-126.271
X178.831Y-133.891
X178.831Y-137.458
X178.831Y-145.078
X178.831Y-148.646
X178.831Y-156.266
X178.831Y-159.833
X178.831Y-167.453
X178.831Y-171.021
X178.831Y-178.641
X178.831Y-182.208
X178.831Y-189.828
X178.831Y-193.396
X178.831Y-201.016
X178.831Y-204.583
X178.831Y-212.203
X181.361Y-103.896
X181.361Y-111.516
X181.361Y-115.083
X181.361Y-122.703
X181.371Y-126.271
X181.371Y-133.891
X181.371Y-137.458
X181.371Y-145.078
X181.371Y-148.646
X181.371Y-156.266
X181.371Y-159.833
X181.371Y-167.453
X181.371Y-171.021
X181.371Y-178.641
X181.371Y-182.208
X181.371Y-189.828
X181.371Y-193.396
X181.371Y-201.016
X181.371Y-204.583
X181.371Y-212.203
X183.901Y-103.896
X183.901Y-111.516
X183.901Y-115.083
X183.901Y-122.703
X183.911Y-126.271
X183.911Y-133.891
X183.911Y-137.458
X183.911Y-145.078
X183.911Y-148.646
X183.911Y-156.266
X183.911Y-159.833
X183.911Y-167.453
X183.911Y-171.021
X183.911Y-178.641
X183.911Y-182.208
X183.911Y-189.828
X183.911Y-193.396
X183.911Y-201.016
X183.911Y-204.583
X183.911Y-212.203
X186.441Y-103.896
X186.441Y-111.516
X186.441Y-115.083
X186.441Y-122.703
X186.451Y-126.271
X186.451Y-133.891
X186.451Y-137.458
X186.451Y-145.078
X186.451Y-148.646
X186.451Y-156.266
X186.451Y-159.833
X186.451Y-167.453
X186.451Y-171.021
X186.451Y-178.641
X186.451Y-182.208
X186.451Y-189.828
X186.451Y-193.396
X186.451Y-201.016
X186.451Y-204.583
X186.451Y-212.203
X187.833Y-96.139
X188.991Y-126.271
X188.991Y-133.891
X188.991Y-137.458
X188.991Y-145.078
X188.991Y-148.646
X188.991Y-156.266
X188.991Y-159.833
X188.991Y-167.453
X188.991Y-171.021
X188.991Y-178.641
X188.991Y-182.208
X188.991Y-189.828
X188.991Y-193.396
X188.991Y-201.016
X188.991Y-204.583
X188.991Y-212.203
X190.881Y-96.266
X191.648Y-103.896
X191.648Y-111.516
X191.648Y-115.083
X191.648Y-122.703
X194.183Y-126.271
X194.183Y-133.891
X194.183Y-137.458
X194.183Y-145.078
X194.183Y-148.646
X194.183Y-156.266
X194.183Y-159.833
X194.183Y-167.453
X194.183Y-171.021
X194.183Y-178.641
X194.183Y-182.208
X194.183Y-189.828
X194.183Y-193.396
X194.183Y-201.016
X194.183Y-204.597
X194.183Y-212.217
X194.188Y-103.896
X194.188Y-111.516
X194.188Y-115.083
X194.188Y-122.703
X196.723Y-126.271
X196.723Y-133.891
X196.723Y-137.458
X196.723Y-145.078
X196.723Y-148.646
X196.723Y-156.266
X196.723Y-159.833
X196.723Y-167.453
X196.723Y-171.021
X196.723Y-178.641
X196.723Y-182.208
X196.723Y-189.828
X196.723Y-193.396
X196.723Y-201.016
X196.723Y-204.597
X196.723Y-212.217
X196.728Y-103.896
X196.728Y-111.516
X196.728Y-115.083
X196.728Y-122.703
X199.263Y-126.271
X199.263Y-133.891
X199.263Y-137.458
X199.263Y-145.078
X199.263Y-148.646
X199.263Y-156.266
X199.263Y-159.833
X199.263Y-167.453
X199.263Y-171.021
X199.263Y-178.641
X199.263Y-182.208
X199.263Y-189.828
X199.263Y-193.396
X199.263Y-201.016
X199.263Y-204.597
X199.263Y-212.217
X199.268Y-103.896
X199.268Y-111.516
X199.268Y-115.083
X199.268Y-122.703
X201.041Y-96.266
X201.803Y-126.271
X201.803Y-133.891
X201.803Y-137.458
X201.803Y-145.078
X201.803Y-148.646
X201.803Y-156.266
X201.803Y-159.833
X201.803Y-167.453
X201.803Y-171.021
X201.803Y-178.641
X201.803Y-182.208
X201.803Y-189.828
X201.803Y-193.396
X201.803Y-201.016
X201.803Y-204.597
X201.803Y-212.217
X201.808Y-103.896
X201.808Y-111.516
X201.808Y-115.083
X201.808Y-122.703
X204.343Y-126.271
X204.343Y-133.891
X204.343Y-137.458
X204.343Y-145.078
X204.343Y-148.646
X204.343Y-156.266
X204.343Y-159.833
X204.343Y-167.453
X204.343Y-171.021
X204.343Y-178.641
X204.343Y-182.208
X204.343Y-189.828
X204.343Y-193.396
X204.343Y-201.016
X204.343Y-204.597
X204.343Y-212.217
X204.348Y-103.896
X204.348Y-111.516
X204.348Y-115.083
X204.348Y-122.703
X206.883Y-126.271
X206.883Y-133.891
X206.883Y-137.458
X206.883Y-145.078
X206.883Y-148.646
X206.883Y-156.266
X206.883Y-159.833
X206.883Y-167.453
X206.883Y-171.021
X206.883Y-178.641
X206.883Y-182.208
X206.883Y-189.828
X206.883Y-193.396
X206.883Y-201.016
X206.883Y-204.597
X206.883Y-212.217
X206.888Y-103.896
X206.888Y-111.516
X206.888Y-115.083
X206.888Y-122.703
X209.423Y-126.271
X209.423Y-133.891
X209.423Y-137.458
X209.423Y-145.078
X209.423Y-148.646
X209.423Y-156.266
X209.423Y-159.833
X209.423Y-167.453
X209.423Y-171.021
X209.423Y-178.641
X209.423Y-182.208
X209.423Y-189.828
X209.423Y-193.396
X209.423Y-201.016
X209.423Y-204.597
X209.423Y-212.217
X210.947Y-103.251
X210.947Y-113.411
X211.963Y-126.271
X211.963Y-133.891
X211.963Y-137.458
X211.963Y-145.078
X211.963Y-148.646
X211.963Y-156.266
X211.963Y-159.833
X211.963Y-167.453
X211.963Y-171.021
X211.963Y-178.641
X211.963Y-182.208
X211.963Y-189.828
X211.963Y-193.396
X211.963Y-201.016
X211.963Y-204.597
X211.963Y-212.217
X214.096Y-108.205
X214.096Y-113.205
X215.778Y-116.723
X215.778Y-124.343
X217.297Y-103.251
X217.297Y-113.411
X218.318Y-116.723
X218.318Y-124.343
X220.472Y-108.125
X220.472Y-113.125
X220.858Y-116.723
X220.858Y-124.343
X221.879Y-183.017
X221.879Y-190.637
X223.398Y-116.723
X223.398Y-124.343
X223.647Y-103.124
X223.647Y-113.284
X224.409Y-204.597
X224.409Y-212.217
X224.414Y-193.812
X224.414Y-201.432
X224.419Y-183.017
X224.419Y-190.637
X224.546Y-128.153
X224.546Y-135.773
X224.546Y-139.71
X224.546Y-147.33
X224.546Y-151.267
X224.546Y-158.887
X224.546Y-162.824
X224.546Y-170.444
X225.938Y-116.723
X225.938Y-124.343
X226.822Y-103.124
X226.822Y-113.284
X226.949Y-204.597
X226.949Y-212.217
X226.954Y-193.812
X226.954Y-201.432
X226.959Y-183.017
X226.959Y-190.637
X227.086Y-128.153
X227.086Y-135.773
X227.086Y-139.71
X227.086Y-147.33
X227.086Y-151.267
X227.086Y-158.887
X227.086Y-162.824
X227.086Y-170.444
X228.478Y-116.723
X228.478Y-124.343
X229.489Y-204.597
X229.489Y-212.217
X229.494Y-193.812
X229.494Y-201.432
X229.499Y-183.017
X229.499Y-190.637
X229.626Y-128.153
X229.626Y-135.773
X229.626Y-139.71
X229.626Y-147.33
X229.626Y-151.267
X229.626Y-158.887
X229.626Y-162.824
X229.626Y-170.444
X229.997Y-103.124
X229.997Y-113.284
X231.018Y-116.723
X231.018Y-124.343
X232.029Y-204.597
X232.029Y-212.217
X232.034Y-193.812
X232.034Y-201.432
X232.039Y-183.017
X232.039Y-190.637
X232.166Y-128.153
X232.166Y-135.773
X232.166Y-139.71
X232.166Y-147.33
X232.166Y-151.267
X232.166Y-158.887
X232.166Y-162.824
X232.166Y-170.444
X233.172Y-103.124
X233.172Y-113.284
X234.569Y-204.597
X234.569Y-212.217
X234.574Y-193.812
X234.574Y-201.432
X234.579Y-183.017
X234.579Y-190.637
X234.706Y-128.153
X234.706Y-135.773
X234.706Y-139.71
X234.706Y-147.33
X234.706Y-151.267
X234.706Y-158.887
X234.706Y-162.824
X234.706Y-170.444
X236.347Y-103.124
X236.347Y-113.284
X237.109Y-204.597
X237.109Y-212.217
X237.114Y-193.812
X237.114Y-201.432
X237.119Y-183.017
X237.119Y-190.637
X237.177Y-116.723
X237.177Y-124.343
X237.246Y-128.153
X237.246Y-135.773
X237.246Y-139.71
X237.246Y-147.33
X237.246Y-151.267
X237.246Y-158.887
X237.246Y-162.824
X237.246Y-170.444
X239.522Y-103.124
X239.522Y-113.284
X239.649Y-204.597
X239.649Y-212.217
X239.654Y-193.812
X239.654Y-201.432
X239.659Y-183.017
X239.659Y-190.637
X239.718Y-116.723
X239.718Y-124.343
X239.786Y-128.153
X239.786Y-135.773
X239.786Y-139.71
X239.786Y-147.33
X239.786Y-151.267
X239.786Y-158.887
X239.786Y-162.824
X239.786Y-170.444
X242.257Y-116.723
X242.257Y-124.343
X242.326Y-128.153
X242.326Y-135.773
X242.326Y-139.71
X242.326Y-147.33
X242.326Y-151.267
X242.326Y-158.887
X242.326Y-162.824
X242.326Y-170.444
X242.697Y-103.124
X242.697Y-113.284
X244.797Y-116.723
X244.797Y-124.343
X244.988Y-183.017
X244.988Y-190.637
X245.872Y-103.124
X245.872Y-113.284
X247.337Y-116.723
X247.337Y-124.343
X247.528Y-183.017
X247.528Y-190.637
X247.528Y-193.812
X247.528Y-201.432
X247.528Y-204.607
X247.528Y-212.227
X247.66Y-128.153
X247.66Y-135.773
X247.66Y-139.71
X247.66Y-147.33
X247.66Y-151.267
X247.66Y-158.887
X247.66Y-162.824
X247.66Y-170.444
X248.793Y-103.124
X248.793Y-113.284
X249.877Y-116.723
X249.877Y-124.343
X250.068Y-183.017
X250.068Y-190.637
X250.068Y-193.812
X250.068Y-201.432
X250.068Y-204.607
X250.068Y-212.227
X250.2Y-128.153
X250.2Y-135.773
X250.2Y-139.71
X250.2Y-147.33
X250.2Y-151.267
X250.2Y-158.887
X250.2Y-162.824
X250.2Y-170.444
X251.587Y-103.124
X251.587Y-113.284
X252.417Y-116.723
X252.417Y-124.343
X252.608Y-183.017
X252.608Y-190.637
X252.608Y-193.812
X252.608Y-201.432
X252.608Y-204.607
X252.608Y-212.227
X252.74Y-128.153
X252.74Y-135.773
X252.74Y-139.71
X252.74Y-147.33
X252.74Y-151.267
X252.74Y-158.887
X252.74Y-162.824
X252.74Y-170.444
X254.635Y-103.124
X254.635Y-113.284
X255.148Y-183.017
X255.148Y-190.637
X255.148Y-193.812
X255.148Y-201.432
X255.148Y-204.607
X255.148Y-212.227
X255.28Y-128.153
X255.28Y-135.773
X255.28Y-139.71
X255.28Y-147.33
X255.28Y-151.267
X255.28Y-158.887
X255.28Y-162.824
X255.28Y-170.444
X257.688Y-183.017
X257.688Y-190.637
X257.688Y-193.812
X257.688Y-201.432
X257.688Y-204.607
X257.688Y-212.227
X257.81Y-103.124
X257.81Y-113.284
X257.82Y-128.153
X257.82Y-135.773
X257.82Y-139.71
X257.82Y-147.33
X257.82Y-151.267
X257.82Y-158.887
X257.82Y-162.824
X257.82Y-170.444
X258.577Y-116.723
X258.577Y-124.343
X260.228Y-183.017
X260.228Y-190.637
X260.228Y-193.812
X260.228Y-201.432
X260.228Y-204.607
X260.228Y-212.227
X260.36Y-128.153
X260.36Y-135.773
X260.36Y-139.71
X260.36Y-147.33
X260.36Y-151.267
X260.36Y-158.887
X260.36Y-162.824
X260.36Y-170.444
X260.858Y-103.124
X260.858Y-113.284
X261.117Y-116.723
X261.117Y-124.343
X262.768Y-183.017
X262.768Y-190.637
X262.768Y-193.812
X262.768Y-201.432
X262.768Y-204.607
X262.768Y-212.227
X262.9Y-128.153
X262.9Y-135.773
X262.9Y-139.71
X262.9Y-147.33
X262.9Y-151.267
X262.9Y-158.887
X262.9Y-162.824
X262.9Y-170.444
X263.652Y-103.124
X263.652Y-113.284
X263.657Y-116.723
X263.657Y-124.343
X265.44Y-128.153
X265.44Y-135.773
X265.44Y-139.71
X265.44Y-147.33
X265.44Y-151.267
X265.44Y-158.887
X265.44Y-162.824
X265.44Y-170.444
X266.197Y-116.723
X266.197Y-124.343
X266.573Y-103.124
X266.573Y-113.284
X268.737Y-116.723
X268.737Y-124.343
X269.621Y-103.124
X269.621Y-113.284
X270.637Y-214.122
X270.637Y-217.297
X271.277Y-116.723
X271.277Y-124.343
X272.669Y-103.124
X272.669Y-113.284
X272.923Y-149.987
X272.923Y-152.527
X272.923Y-155.067
X272.923Y-157.607
X272.923Y-160.147
X272.923Y-162.687
X272.923Y-165.227
X272.923Y-167.767
X273.812Y-129.144
X273.812Y-139.304
X273.817Y-116.723
X273.817Y-124.343
X274.32Y-177.8
X274.32Y-180.34
X274.32Y-182.88
X274.32Y-185.42
X274.32Y-187.96
X274.32Y-190.5
X274.32Y-193.04
X274.32Y-195.58
X274.32Y-198.12
X274.32Y-200.66
X274.32Y-203.2
X274.32Y-205.74
X274.32Y-208.28
X274.32Y-210.82
X275.463Y-103.124
X275.463Y-113.284
X276.987Y-129.144
X276.987Y-139.304
X278.257Y-103.124
X278.257Y-113.284
X280.075Y-138.811
X280.416Y-125.123
X280.416Y-129.173
X280.416Y-133.223
X280.543Y-149.987
X280.543Y-152.527
X280.543Y-155.067
X280.543Y-157.607
X280.543Y-160.147
X280.543Y-162.687
X280.543Y-165.227
X280.543Y-167.767
X280.797Y-214.122
X280.797Y-217.297
X281.681Y-99.182
X281.681Y-114.422
X283.718Y-149.987
X283.718Y-152.527
X283.718Y-155.067
X283.718Y-157.607
X283.718Y-160.147
X283.718Y-162.687
X283.718Y-165.227
X283.718Y-167.767
X283.718Y-170.307
X283.718Y-172.847
X284.221Y-99.182
X284.221Y-114.422
X285.075Y-138.811
X286.761Y-99.182
X286.761Y-114.422
X289.301Y-99.182
X289.301Y-114.422
X289.56Y-177.8
X289.56Y-180.34
X289.56Y-182.88
X289.56Y-185.42
X289.56Y-187.96
X289.56Y-190.5
X289.56Y-193.04
X289.56Y-195.58
X289.56Y-198.12
X289.56Y-200.66
X289.56Y-203.2
X289.56Y-205.74
X289.56Y-208.28
X289.56Y-210.82
X290.576Y-125.123
X290.576Y-129.173
X290.576Y-133.223
X291.338Y-149.987
X291.338Y-152.527
X291.338Y-155.067
X291.338Y-157.607
X291.338Y-160.147
X291.338Y-162.687
X291.338Y-165.227
X291.338Y-167.767
X291.338Y-170.307
X291.338Y-172.847
X291.841Y-99.182
X291.841Y-114.422
X292.862Y-187.828
X292.862Y-190.368
X292.862Y-192.908
X292.862Y-195.448
X292.862Y-197.988
X292.862Y-200.528
X292.862Y-203.068
X292.862Y-205.608
X292.862Y-208.148
X292.862Y-210.688
X294.381Y-99.182
X294.381Y-114.422
X295.423Y-165.56
X295.423Y-175.72
X296.921Y-99.182
X296.921Y-114.422
X296.926Y-119.507
X296.926Y-134.747
X296.926Y-139.827
X296.926Y-155.067
X298.725Y-165.56
X298.725Y-175.72
X299.461Y-99.182
X299.461Y-114.422
X299.466Y-119.507
X299.466Y-134.747
X299.466Y-139.827
X299.466Y-155.067
X299.593Y-182.626
X299.593Y-192.786
X299.593Y-194.945
X299.593Y-205.105
X302.001Y-99.182
X302.001Y-114.422
X302.006Y-119.507
X302.006Y-134.747
X302.006Y-139.827
X302.006Y-155.067
X302.133Y-182.626
X302.133Y-192.786
X302.133Y-194.945
X302.133Y-205.105
X304.541Y-99.182
X304.541Y-114.422
X304.546Y-119.507
X304.546Y-134.747
X304.546Y-139.827
X304.546Y-155.067
X304.546Y-162.56
X304.546Y-177.8
X304.673Y-182.626
X304.673Y-192.786
X304.673Y-194.945
X304.673Y-205.105
X307.081Y-99.182
X307.081Y-114.422
X307.086Y-119.507
X307.086Y-134.747
X307.086Y-139.827
X307.086Y-155.067
X307.086Y-162.56
X307.086Y-177.8
X307.213Y-182.626
X307.213Y-192.786
X307.213Y-194.945
X307.213Y-205.105
X309.621Y-99.182
X309.621Y-114.422
X309.626Y-119.507
X309.626Y-134.747
X309.626Y-139.827
X309.626Y-155.067
X309.626Y-162.56
X309.626Y-177.8
X309.753Y-182.626
X309.753Y-192.786
X309.753Y-194.945
X309.753Y-205.105
X312.161Y-99.182
X312.161Y-114.422
X312.166Y-119.507
X312.166Y-134.747
X312.166Y-139.827
X312.166Y-155.067
X312.166Y-162.56
X312.166Y-177.8
X312.293Y-182.626
X312.293Y-192.786
X312.293Y-194.945
X312.293Y-205.105
X314.701Y-99.182
X314.701Y-114.422
X314.706Y-119.507
X314.706Y-134.747
X314.706Y-139.827
X314.706Y-155.067
X314.706Y-162.56
X314.706Y-177.8
X314.833Y-182.626
X314.833Y-192.786
X314.833Y-194.945
X314.833Y-205.105
X317.241Y-99.182
X317.241Y-114.422
X317.246Y-119.507
X317.246Y-134.747
X317.246Y-139.827
X317.246Y-155.067
X317.246Y-162.56
X317.246Y-177.8
X317.373Y-182.626
X317.373Y-192.786
X317.373Y-194.945
X317.373Y-205.105
X319.781Y-99.182
X319.781Y-114.422
X319.786Y-119.507
X319.786Y-134.747
X319.786Y-139.827
X319.786Y-155.067
X319.786Y-162.56
X319.786Y-177.8
X322.321Y-99.182
X322.321Y-114.422
X322.326Y-119.507
X322.326Y-134.747
X322.326Y-139.827
X322.326Y-155.067
X322.326Y-162.56
X322.326Y-177.8
X324.729Y-183.012
X324.729Y-185.552
X324.729Y-188.092
X324.729Y-190.632
X324.729Y-193.172
X324.729Y-195.712
X324.729Y-198.252
X324.729Y-204.348
X324.729Y-206.888
X324.729Y-209.428
X324.729Y-211.968
X324.729Y-214.508
X324.729Y-217.048
X324.729Y-219.588
X324.861Y-99.182
X324.861Y-114.422
X324.866Y-119.507
X324.866Y-134.747
X324.866Y-139.827
X324.866Y-155.067
X324.866Y-162.56
X324.866Y-177.8
X327.401Y-99.182
X327.401Y-114.422
X327.406Y-119.507
X327.406Y-134.747
X327.406Y-139.827
X327.406Y-155.067
X327.406Y-162.56
X327.406Y-177.8
X329.941Y-99.182
X329.941Y-114.422
X329.946Y-119.507
X329.946Y-134.747
X329.946Y-139.827
X329.946Y-155.067
X329.946Y-162.56
X329.946Y-177.8
X332.349Y-183.012
X332.349Y-185.552
X332.349Y-188.092
X332.349Y-190.632
X332.349Y-193.172
X332.349Y-195.712
X332.349Y-198.252
X332.349Y-204.348
X332.349Y-206.888
X332.349Y-209.428
X332.349Y-211.968
X332.349Y-214.508
X332.349Y-217.048
X332.349Y-219.588
X332.486Y-162.56
X332.486Y-177.8
X335.026Y-162.56
X335.026Y-177.8
X335.153Y-102.656
X335.153Y-107.656
X337.566Y-162.56
X337.566Y-177.8
X338.201Y-208.026
X338.318Y-183.012
X338.318Y-185.552
X338.318Y-188.092
X338.318Y-190.632
X338.318Y-193.172
X338.318Y-195.712
X338.318Y-198.252
X340.741Y-172.212
X340.741Y-175.387
X340.995Y-88.773
X340.995Y-91.313
X340.995Y-93.853
X340.995Y-96.393
X340.995Y-98.933
X340.995Y-101.473
X340.995Y-104.013
X340.995Y-106.553
X340.995Y-109.093
X340.995Y-111.633
X345.938Y-183.012
X345.938Y-185.552
X345.938Y-188.092
X345.938Y-190.632
X345.938Y-193.172
X345.938Y-195.712
X345.938Y-198.252
X348.361Y-208.026
X349.885Y-189.23
X349.885Y-199.39
X350.901Y-172.212
X350.901Y-175.387
X353.441Y-189.23
X353.441Y-199.39
X353.441Y-202.184
X353.441Y-212.344
T4
X258.772Y-75.254
X263.272Y-75.254
T5
X112.522Y-93.467
X112.522Y-96.007
X150.368Y-193.929
X152.908Y-193.929
X160.147Y-195.819
X160.147Y-198.359
X160.147Y-200.899
X161.208Y-98.298
X166.208Y-98.298
X207.772Y-94.06
X207.772Y-99.06
X259.954Y-94.737
X259.954Y-97.277
X262.494Y-94.737
X262.494Y-97.277
X265.034Y-94.737
X265.034Y-97.277
X271.033Y-86.246
X273.533Y-86.246
X276.033Y-86.246
X286.4Y-86.246
X288.9Y-86.246
X289.433Y-216.154
X289.433Y-218.694
X291.4Y-86.246
X291.973Y-216.154
X291.973Y-218.694
X294.513Y-216.154
X294.513Y-218.694
X297.053Y-216.154
X297.053Y-218.694
X299.593Y-216.154
X299.593Y-218.694
X301.64Y-86.246
X302.133Y-216.154
X302.133Y-218.694
X304.14Y-86.246
X304.673Y-216.154
X304.673Y-218.694
X306.64Y-86.246
X307.213Y-216.154
X307.213Y-218.694
X309.753Y-216.154
X309.753Y-218.694
X312.293Y-216.154
X312.293Y-218.694
X314.833Y-216.154
X314.833Y-218.694
X317.373Y-216.154
X317.373Y-218.694
X341.645Y-203.454
X344.185Y-203.454
X346.282Y-81.534
X346.282Y-84.034
X346.282Y-86.534
X346.282Y-89.034
X346.282Y-91.534
X346.282Y-94.034
X346.282Y-96.534
X346.282Y-99.034
X346.282Y-101.534
X346.282Y-104.034
X346.282Y-106.534
X346.282Y-109.034
X346.282Y-111.534
X346.282Y-114.034
X346.282Y-116.534
X346.282Y-119.034
X346.282Y-121.534
X346.282Y-124.034
X346.282Y-126.534
X346.282Y-129.034
X346.282Y-131.534
X346.282Y-134.034
X346.282Y-136.534
X346.282Y-139.034
X346.282Y-141.534
X346.282Y-144.034
X346.282Y-146.534
X346.282Y-149.034
X346.282Y-151.534
X346.282Y-154.034
X346.282Y-156.534
X346.282Y-159.034
X346.725Y-203.454
X348.782Y-81.534
X348.782Y-84.034
X348.782Y-86.534
X348.782Y-89.034
X348.782Y-91.534
X348.782Y-94.034
X348.782Y-96.534
X348.782Y-99.034
X348.782Y-101.534
X348.782Y-104.034
X348.782Y-106.534
X348.782Y-109.034
X348.782Y-111.534
X348.782Y-114.034
X348.782Y-116.534
X348.782Y-119.034
X348.782Y-121.534
X348.782Y-124.034
X348.782Y-126.534
X348.782Y-129.034
X348.782Y-131.534
X348.782Y-134.034
X348.782Y-136.534
X348.782Y-139.034
X348.782Y-141.534
X348.782Y-144.034
X348.782Y-146.534
X348.782Y-149.034
X348.782Y-151.534
X348.782Y-154.034
X348.782Y-156.534
X348.782Y-159.034
X351.282Y-81.534
X351.282Y-84.034
X351.282Y-86.534
X351.282Y-89.034
X351.282Y-91.534
X351.282Y-94.034
X351.282Y-96.534
X351.282Y-99.034
X351.282Y-101.534
X351.282Y-104.034
X351.282Y-106.534
X351.282Y-109.034
X351.282Y-111.534
X351.282Y-114.034
X351.282Y-116.534
X351.282Y-119.034
X351.282Y-121.534
X351.282Y-124.034
X351.282Y-126.534
X351.282Y-129.034
X351.282Y-131.534
X351.282Y-134.034
X351.282Y-136.534
X351.282Y-139.034
X351.282Y-141.534
X351.282Y-144.034
X351.282Y-146.534
X351.282Y-149.034
X351.282Y-151.534
X351.282Y-154.034
X351.282Y-156.534
X351.282Y-159.034
T6
X155.528Y-74.588
X158.028Y-74.288
X163.028Y-74.288
X165.528Y-74.588
X176.928Y-74.588
X179.428Y-74.288
X184.428Y-74.288
X186.928Y-74.588
X197.928Y-74.638
X200.428Y-74.338
X205.428Y-74.338
X207.928Y-74.638
X219.028Y-74.838
X221.528Y-74.538
X226.528Y-74.538
X229.028Y-74.838
X239.978Y-74.988
X242.478Y-74.688
X247.478Y-74.688
X249.978Y-74.988
T7
X153.028Y-84.288
X153.028Y-89.388
X155.528Y-86.788
X160.528Y-84.288
X165.528Y-86.788
X168.028Y-84.288
X168.028Y-89.388
X174.428Y-84.288
X174.428Y-89.388
X176.928Y-86.788
X181.928Y-84.288
X186.928Y-86.788
X189.428Y-84.288
X189.428Y-89.388
X195.428Y-84.338
X197.928Y-86.838
X202.928Y-84.338
X207.928Y-86.838
X210.428Y-84.338
X216.528Y-84.538
X219.028Y-87.038
X224.028Y-84.538
X229.028Y-87.038
X231.528Y-84.538
X237.478Y-84.688
X237.478Y-89.788
X239.978Y-87.188
X244.978Y-84.688
X249.978Y-87.188
X252.478Y-84.688
X252.478Y-89.788
X257.522Y-77.745
X264.532Y-77.745
T8
X268.533Y-89.546
X278.533Y-89.546
X283.9Y-89.546
X293.9Y-89.546
X299.14Y-89.546
X309.14Y-89.546
T9
X353.782Y-76.534
X353.782Y-164.034
T0
M30
