%TF.GenerationSoftware,KiCad,Pcbnew,(6.0.10)*%
%TF.CreationDate,2023-03-26T00:58:32+03:00*%
%TF.ProjectId,delta48m,64656c74-6134-4386-9d2e-6b696361645f,1*%
%TF.SameCoordinates,Original*%
%TF.FileFunction,Soldermask,Bot*%
%TF.FilePolarity,Negative*%
%FSLAX46Y46*%
G04 Gerber Fmt 4.6, Leading zero omitted, Abs format (unit mm)*
G04 Created by KiCad (PCBNEW (6.0.10)) date 2023-03-26 00:58:32*
%MOMM*%
%LPD*%
G01*
G04 APERTURE LIST*
G04 Aperture macros list*
%AMRoundRect*
0 Rectangle with rounded corners*
0 $1 Rounding radius*
0 $2 $3 $4 $5 $6 $7 $8 $9 X,Y pos of 4 corners*
0 Add a 4 corners polygon primitive as box body*
4,1,4,$2,$3,$4,$5,$6,$7,$8,$9,$2,$3,0*
0 Add four circle primitives for the rounded corners*
1,1,$1+$1,$2,$3*
1,1,$1+$1,$4,$5*
1,1,$1+$1,$6,$7*
1,1,$1+$1,$8,$9*
0 Add four rect primitives between the rounded corners*
20,1,$1+$1,$2,$3,$4,$5,0*
20,1,$1+$1,$4,$5,$6,$7,0*
20,1,$1+$1,$6,$7,$8,$9,0*
20,1,$1+$1,$8,$9,$2,$3,0*%
G04 Aperture macros list end*
%ADD10R,1.600000X1.600000*%
%ADD11O,1.600000X1.600000*%
%ADD12C,1.600000*%
%ADD13C,2.100000*%
%ADD14C,2.500000*%
%ADD15R,1.700000X1.700000*%
%ADD16O,1.700000X1.700000*%
%ADD17R,1.500000X1.050000*%
%ADD18O,1.500000X1.050000*%
%ADD19C,4.600000*%
%ADD20C,1.800000*%
%ADD21C,1.500000*%
%ADD22C,1.750000*%
%ADD23R,2.000000X2.000000*%
%ADD24C,2.000000*%
%ADD25RoundRect,0.250000X0.600000X-0.600000X0.600000X0.600000X-0.600000X0.600000X-0.600000X-0.600000X0*%
%ADD26C,1.700000*%
G04 APERTURE END LIST*
D10*
%TO.C,U11*%
X132720000Y-103896000D03*
D11*
X130180000Y-103896000D03*
X127640000Y-103896000D03*
X125100000Y-103896000D03*
X122560000Y-103896000D03*
X120020000Y-103896000D03*
X117480000Y-103896000D03*
X117480000Y-111516000D03*
X120020000Y-111516000D03*
X122560000Y-111516000D03*
X125100000Y-111516000D03*
X127640000Y-111516000D03*
X130180000Y-111516000D03*
X132720000Y-111516000D03*
%TD*%
D10*
%TO.C,U49*%
X231018000Y-116723000D03*
D11*
X228478000Y-116723000D03*
X225938000Y-116723000D03*
X223398000Y-116723000D03*
X220858000Y-116723000D03*
X218318000Y-116723000D03*
X215778000Y-116723000D03*
X215778000Y-124343000D03*
X218318000Y-124343000D03*
X220858000Y-124343000D03*
X223398000Y-124343000D03*
X225938000Y-124343000D03*
X228478000Y-124343000D03*
X231018000Y-124343000D03*
%TD*%
D12*
%TO.C,R35*%
X254635000Y-113284000D03*
D11*
X254635000Y-103124000D03*
%TD*%
D12*
%TO.C,R53*%
X340741000Y-175387000D03*
D11*
X350901000Y-175387000D03*
%TD*%
D10*
%TO.C,U57*%
X239654000Y-193812000D03*
D11*
X237114000Y-193812000D03*
X234574000Y-193812000D03*
X232034000Y-193812000D03*
X229494000Y-193812000D03*
X226954000Y-193812000D03*
X224414000Y-193812000D03*
X224414000Y-201432000D03*
X226954000Y-201432000D03*
X229494000Y-201432000D03*
X232034000Y-201432000D03*
X234574000Y-201432000D03*
X237114000Y-201432000D03*
X239654000Y-201432000D03*
%TD*%
D10*
%TO.C,U27*%
X161300000Y-182208100D03*
D11*
X158760000Y-182208100D03*
X156220000Y-182208100D03*
X153680000Y-182208100D03*
X151140000Y-182208100D03*
X148600000Y-182208100D03*
X146060000Y-182208100D03*
X143520000Y-182208100D03*
X143520000Y-189828100D03*
X146060000Y-189828100D03*
X148600000Y-189828100D03*
X151140000Y-189828100D03*
X153680000Y-189828100D03*
X156220000Y-189828100D03*
X158760000Y-189828100D03*
X161300000Y-189828100D03*
%TD*%
D10*
%TO.C,U36*%
X188991000Y-182208100D03*
D11*
X186451000Y-182208100D03*
X183911000Y-182208100D03*
X181371000Y-182208100D03*
X178831000Y-182208100D03*
X176291000Y-182208100D03*
X173751000Y-182208100D03*
X171211000Y-182208100D03*
X171211000Y-189828100D03*
X173751000Y-189828100D03*
X176291000Y-189828100D03*
X178831000Y-189828100D03*
X181371000Y-189828100D03*
X183911000Y-189828100D03*
X186451000Y-189828100D03*
X188991000Y-189828100D03*
%TD*%
D13*
%TO.C,J3*%
X197928000Y-74638000D03*
X200428000Y-74338000D03*
X207928000Y-74638000D03*
X205428000Y-74338000D03*
D14*
X195428000Y-84338000D03*
X202928000Y-84338000D03*
X210428000Y-84338000D03*
X197928000Y-86838000D03*
X207928000Y-86838000D03*
%TD*%
D13*
%TO.C,J6*%
X158028000Y-74288000D03*
X163028000Y-74288000D03*
X155528000Y-74588000D03*
X165528000Y-74588000D03*
D14*
X153028000Y-84288000D03*
X160528000Y-84288000D03*
X168028000Y-84288000D03*
X155528000Y-86788000D03*
X165528000Y-86788000D03*
X153028000Y-89388000D03*
X168028000Y-89388000D03*
%TD*%
D10*
%TO.C,U3*%
X107584000Y-129333000D03*
D11*
X105044000Y-129333000D03*
X102504000Y-129333000D03*
X99964000Y-129333000D03*
X97424000Y-129333000D03*
X94884000Y-129333000D03*
X92344000Y-129333000D03*
X92344000Y-136953000D03*
X94884000Y-136953000D03*
X97424000Y-136953000D03*
X99964000Y-136953000D03*
X102504000Y-136953000D03*
X105044000Y-136953000D03*
X107584000Y-136953000D03*
%TD*%
D15*
%TO.C,LS1*%
X112522000Y-93467000D03*
D16*
X112522000Y-96007000D03*
%TD*%
D10*
%TO.C,U43*%
X211963000Y-148645800D03*
D11*
X209423000Y-148645800D03*
X206883000Y-148645800D03*
X204343000Y-148645800D03*
X201803000Y-148645800D03*
X199263000Y-148645800D03*
X196723000Y-148645800D03*
X194183000Y-148645800D03*
X194183000Y-156265800D03*
X196723000Y-156265800D03*
X199263000Y-156265800D03*
X201803000Y-156265800D03*
X204343000Y-156265800D03*
X206883000Y-156265800D03*
X209423000Y-156265800D03*
X211963000Y-156265800D03*
%TD*%
D12*
%TO.C,R5*%
X84201000Y-160655000D03*
D11*
X84201000Y-150495000D03*
%TD*%
D10*
%TO.C,U48*%
X211963000Y-204597000D03*
D11*
X209423000Y-204597000D03*
X206883000Y-204597000D03*
X204343000Y-204597000D03*
X201803000Y-204597000D03*
X199263000Y-204597000D03*
X196723000Y-204597000D03*
X194183000Y-204597000D03*
X194183000Y-212217000D03*
X196723000Y-212217000D03*
X199263000Y-212217000D03*
X201803000Y-212217000D03*
X204343000Y-212217000D03*
X206883000Y-212217000D03*
X209423000Y-212217000D03*
X211963000Y-212217000D03*
%TD*%
D10*
%TO.C,U64*%
X262768000Y-193812000D03*
D11*
X260228000Y-193812000D03*
X257688000Y-193812000D03*
X255148000Y-193812000D03*
X252608000Y-193812000D03*
X250068000Y-193812000D03*
X247528000Y-193812000D03*
X247528000Y-201432000D03*
X250068000Y-201432000D03*
X252608000Y-201432000D03*
X255148000Y-201432000D03*
X257688000Y-201432000D03*
X260228000Y-201432000D03*
X262768000Y-201432000D03*
%TD*%
D12*
%TO.C,R54*%
X349885000Y-199390000D03*
D11*
X349885000Y-189230000D03*
%TD*%
D15*
%TO.C,JP1*%
X160147000Y-200899000D03*
D16*
X160147000Y-198359000D03*
X160147000Y-195819000D03*
%TD*%
D17*
%TO.C,Q3*%
X219350000Y-95377000D03*
D18*
X219350000Y-96647000D03*
X219350000Y-97917000D03*
%TD*%
D12*
%TO.C,R56*%
X353441000Y-212344000D03*
D11*
X353441000Y-202184000D03*
%TD*%
D10*
%TO.C,U23*%
X161300000Y-137458300D03*
D11*
X158760000Y-137458300D03*
X156220000Y-137458300D03*
X153680000Y-137458300D03*
X151140000Y-137458300D03*
X148600000Y-137458300D03*
X146060000Y-137458300D03*
X143520000Y-137458300D03*
X143520000Y-145078300D03*
X146060000Y-145078300D03*
X148600000Y-145078300D03*
X151140000Y-145078300D03*
X153680000Y-145078300D03*
X156220000Y-145078300D03*
X158760000Y-145078300D03*
X161300000Y-145078300D03*
%TD*%
D10*
%TO.C,U33*%
X188991000Y-148645800D03*
D11*
X186451000Y-148645800D03*
X183911000Y-148645800D03*
X181371000Y-148645800D03*
X178831000Y-148645800D03*
X176291000Y-148645800D03*
X173751000Y-148645800D03*
X171211000Y-148645800D03*
X171211000Y-156265800D03*
X173751000Y-156265800D03*
X176291000Y-156265800D03*
X178831000Y-156265800D03*
X181371000Y-156265800D03*
X183911000Y-156265800D03*
X186451000Y-156265800D03*
X188991000Y-156265800D03*
%TD*%
D12*
%TO.C,C10*%
X143256000Y-98719000D03*
X143256000Y-103719000D03*
%TD*%
D10*
%TO.C,U38*%
X188991000Y-204583000D03*
D11*
X186451000Y-204583000D03*
X183911000Y-204583000D03*
X181371000Y-204583000D03*
X178831000Y-204583000D03*
X176291000Y-204583000D03*
X173751000Y-204583000D03*
X171211000Y-204583000D03*
X171211000Y-212203000D03*
X173751000Y-212203000D03*
X176291000Y-212203000D03*
X178831000Y-212203000D03*
X181371000Y-212203000D03*
X183911000Y-212203000D03*
X186451000Y-212203000D03*
X188991000Y-212203000D03*
%TD*%
D12*
%TO.C,R46*%
X276987000Y-139304500D03*
D11*
X276987000Y-129144500D03*
%TD*%
D10*
%TO.C,U59*%
X265440000Y-128153000D03*
D11*
X262900000Y-128153000D03*
X260360000Y-128153000D03*
X257820000Y-128153000D03*
X255280000Y-128153000D03*
X252740000Y-128153000D03*
X250200000Y-128153000D03*
X247660000Y-128153000D03*
X247660000Y-135773000D03*
X250200000Y-135773000D03*
X252740000Y-135773000D03*
X255280000Y-135773000D03*
X257820000Y-135773000D03*
X260360000Y-135773000D03*
X262900000Y-135773000D03*
X265440000Y-135773000D03*
%TD*%
D19*
%TO.C,RV42*%
X293900000Y-89546000D03*
X283900000Y-89546000D03*
D20*
X291400000Y-86246000D03*
X288900000Y-86246000D03*
X286400000Y-86246000D03*
%TD*%
D12*
%TO.C,R51*%
X295423000Y-175720500D03*
D11*
X295423000Y-165560500D03*
%TD*%
D10*
%TO.C,U7*%
X107584000Y-172333000D03*
D11*
X105044000Y-172333000D03*
X102504000Y-172333000D03*
X99964000Y-172333000D03*
X97424000Y-172333000D03*
X94884000Y-172333000D03*
X92344000Y-172333000D03*
X92344000Y-179953000D03*
X94884000Y-179953000D03*
X97424000Y-179953000D03*
X99964000Y-179953000D03*
X102504000Y-179953000D03*
X105044000Y-179953000D03*
X107584000Y-179953000D03*
%TD*%
D10*
%TO.C,U30*%
X186441000Y-115083400D03*
D11*
X183901000Y-115083400D03*
X181361000Y-115083400D03*
X178821000Y-115083400D03*
X176281000Y-115083400D03*
X173741000Y-115083400D03*
X171201000Y-115083400D03*
X171201000Y-122703400D03*
X173741000Y-122703400D03*
X176281000Y-122703400D03*
X178821000Y-122703400D03*
X181361000Y-122703400D03*
X183901000Y-122703400D03*
X186441000Y-122703400D03*
%TD*%
D10*
%TO.C,D26*%
X309753000Y-192786000D03*
D11*
X309753000Y-182626000D03*
%TD*%
D10*
%TO.C,D1*%
X122589000Y-83947000D03*
D11*
X132749000Y-83947000D03*
%TD*%
D10*
%TO.C,U47*%
X211963000Y-193395600D03*
D11*
X209423000Y-193395600D03*
X206883000Y-193395600D03*
X204343000Y-193395600D03*
X201803000Y-193395600D03*
X199263000Y-193395600D03*
X196723000Y-193395600D03*
X194183000Y-193395600D03*
X194183000Y-201015600D03*
X196723000Y-201015600D03*
X199263000Y-201015600D03*
X201803000Y-201015600D03*
X204343000Y-201015600D03*
X206883000Y-201015600D03*
X209423000Y-201015600D03*
X211963000Y-201015600D03*
%TD*%
D12*
%TO.C,R8*%
X86614000Y-117475000D03*
D11*
X86614000Y-107315000D03*
%TD*%
D12*
%TO.C,R41*%
X278257000Y-103124000D03*
D11*
X278257000Y-113284000D03*
%TD*%
D10*
%TO.C,U52*%
X242326000Y-128153000D03*
D11*
X239786000Y-128153000D03*
X237246000Y-128153000D03*
X234706000Y-128153000D03*
X232166000Y-128153000D03*
X229626000Y-128153000D03*
X227086000Y-128153000D03*
X224546000Y-128153000D03*
X224546000Y-135773000D03*
X227086000Y-135773000D03*
X229626000Y-135773000D03*
X232166000Y-135773000D03*
X234706000Y-135773000D03*
X237246000Y-135773000D03*
X239786000Y-135773000D03*
X242326000Y-135773000D03*
%TD*%
D12*
%TO.C,R15*%
X236347000Y-103124000D03*
D11*
X236347000Y-113284000D03*
%TD*%
D15*
%TO.C,JP3*%
X152908000Y-193929000D03*
D16*
X150368000Y-193929000D03*
%TD*%
D10*
%TO.C,D23*%
X302133000Y-192786000D03*
D11*
X302133000Y-182626000D03*
%TD*%
D10*
%TO.C,U39*%
X206888000Y-103896000D03*
D11*
X204348000Y-103896000D03*
X201808000Y-103896000D03*
X199268000Y-103896000D03*
X196728000Y-103896000D03*
X194188000Y-103896000D03*
X191648000Y-103896000D03*
X191648000Y-111516000D03*
X194188000Y-111516000D03*
X196728000Y-111516000D03*
X199268000Y-111516000D03*
X201808000Y-111516000D03*
X204348000Y-111516000D03*
X206888000Y-111516000D03*
%TD*%
D12*
%TO.C,C22*%
X220472000Y-108125200D03*
X220472000Y-113125200D03*
%TD*%
D10*
%TO.C,D9*%
X145161000Y-91567000D03*
D11*
X135001000Y-91567000D03*
%TD*%
D12*
%TO.C,C25*%
X280075000Y-138811000D03*
X285075000Y-138811000D03*
%TD*%
D10*
%TO.C,U10*%
X107584000Y-204583000D03*
D11*
X105044000Y-204583000D03*
X102504000Y-204583000D03*
X99964000Y-204583000D03*
X97424000Y-204583000D03*
X94884000Y-204583000D03*
X92344000Y-204583000D03*
X92344000Y-212203000D03*
X94884000Y-212203000D03*
X97424000Y-212203000D03*
X99964000Y-212203000D03*
X102504000Y-212203000D03*
X105044000Y-212203000D03*
X107584000Y-212203000D03*
%TD*%
D10*
%TO.C,U61*%
X265440000Y-151267000D03*
D11*
X262900000Y-151267000D03*
X260360000Y-151267000D03*
X257820000Y-151267000D03*
X255280000Y-151267000D03*
X252740000Y-151267000D03*
X250200000Y-151267000D03*
X247660000Y-151267000D03*
X247660000Y-158887000D03*
X250200000Y-158887000D03*
X252740000Y-158887000D03*
X255280000Y-158887000D03*
X257820000Y-158887000D03*
X260360000Y-158887000D03*
X262900000Y-158887000D03*
X265440000Y-158887000D03*
%TD*%
D10*
%TO.C,U29*%
X186441000Y-103896000D03*
D11*
X183901000Y-103896000D03*
X181361000Y-103896000D03*
X178821000Y-103896000D03*
X176281000Y-103896000D03*
X173741000Y-103896000D03*
X171201000Y-103896000D03*
X171201000Y-111516000D03*
X173741000Y-111516000D03*
X176281000Y-111516000D03*
X178821000Y-111516000D03*
X181361000Y-111516000D03*
X183901000Y-111516000D03*
X186441000Y-111516000D03*
%TD*%
D10*
%TO.C,U8*%
X107584000Y-183083000D03*
D11*
X105044000Y-183083000D03*
X102504000Y-183083000D03*
X99964000Y-183083000D03*
X97424000Y-183083000D03*
X94884000Y-183083000D03*
X92344000Y-183083000D03*
X92344000Y-190703000D03*
X94884000Y-190703000D03*
X97424000Y-190703000D03*
X99964000Y-190703000D03*
X102504000Y-190703000D03*
X105044000Y-190703000D03*
X107584000Y-190703000D03*
%TD*%
D10*
%TO.C,D22*%
X299593000Y-192786000D03*
D11*
X299593000Y-182626000D03*
%TD*%
D12*
%TO.C,R34*%
X251587000Y-103124000D03*
D11*
X251587000Y-113284000D03*
%TD*%
D10*
%TO.C,U72*%
X337566000Y-162560000D03*
D11*
X335026000Y-162560000D03*
X332486000Y-162560000D03*
X329946000Y-162560000D03*
X327406000Y-162560000D03*
X324866000Y-162560000D03*
X322326000Y-162560000D03*
X319786000Y-162560000D03*
X317246000Y-162560000D03*
X314706000Y-162560000D03*
X312166000Y-162560000D03*
X309626000Y-162560000D03*
X307086000Y-162560000D03*
X304546000Y-162560000D03*
X304546000Y-177800000D03*
X307086000Y-177800000D03*
X309626000Y-177800000D03*
X312166000Y-177800000D03*
X314706000Y-177800000D03*
X317246000Y-177800000D03*
X319786000Y-177800000D03*
X322326000Y-177800000D03*
X324866000Y-177800000D03*
X327406000Y-177800000D03*
X329946000Y-177800000D03*
X332486000Y-177800000D03*
X335026000Y-177800000D03*
X337566000Y-177800000D03*
%TD*%
D12*
%TO.C,R30*%
X239522000Y-103124000D03*
D11*
X239522000Y-113284000D03*
%TD*%
D10*
%TO.C,U13*%
X132720000Y-126270900D03*
D11*
X130180000Y-126270900D03*
X127640000Y-126270900D03*
X125100000Y-126270900D03*
X122560000Y-126270900D03*
X120020000Y-126270900D03*
X117480000Y-126270900D03*
X117480000Y-133890900D03*
X120020000Y-133890900D03*
X122560000Y-133890900D03*
X125100000Y-133890900D03*
X127640000Y-133890900D03*
X130180000Y-133890900D03*
X132720000Y-133890900D03*
%TD*%
D10*
%TO.C,D30*%
X146431000Y-104902000D03*
D11*
X156591000Y-104902000D03*
%TD*%
D12*
%TO.C,C4*%
X81280000Y-204557000D03*
X81280000Y-199557000D03*
%TD*%
D10*
%TO.C,U60*%
X265440000Y-139710000D03*
D11*
X262900000Y-139710000D03*
X260360000Y-139710000D03*
X257820000Y-139710000D03*
X255280000Y-139710000D03*
X252740000Y-139710000D03*
X250200000Y-139710000D03*
X247660000Y-139710000D03*
X247660000Y-147330000D03*
X250200000Y-147330000D03*
X252740000Y-147330000D03*
X255280000Y-147330000D03*
X257820000Y-147330000D03*
X260360000Y-147330000D03*
X262900000Y-147330000D03*
X265440000Y-147330000D03*
%TD*%
D10*
%TO.C,U21*%
X161295000Y-113929000D03*
D11*
X158755000Y-113929000D03*
X156215000Y-113929000D03*
X153675000Y-113929000D03*
X151135000Y-113929000D03*
X148595000Y-113929000D03*
X146055000Y-113929000D03*
X146055000Y-121549000D03*
X148595000Y-121549000D03*
X151135000Y-121549000D03*
X153675000Y-121549000D03*
X156215000Y-121549000D03*
X158755000Y-121549000D03*
X161295000Y-121549000D03*
%TD*%
D12*
%TO.C,R50*%
X298725000Y-165560500D03*
D11*
X298725000Y-175720500D03*
%TD*%
D12*
%TO.C,C5*%
X85471000Y-204557000D03*
X85471000Y-199557000D03*
%TD*%
D10*
%TO.C,U50*%
X252417500Y-116723000D03*
D11*
X249877500Y-116723000D03*
X247337500Y-116723000D03*
X244797500Y-116723000D03*
X242257500Y-116723000D03*
X239717500Y-116723000D03*
X237177500Y-116723000D03*
X237177500Y-124343000D03*
X239717500Y-124343000D03*
X242257500Y-124343000D03*
X244797500Y-124343000D03*
X247337500Y-124343000D03*
X249877500Y-124343000D03*
X252417500Y-124343000D03*
%TD*%
D12*
%TO.C,J1*%
X351282000Y-81534000D03*
X351282000Y-84034000D03*
X351282000Y-86534000D03*
X351282000Y-89034000D03*
X351282000Y-91534000D03*
X351282000Y-94034000D03*
X351282000Y-96534000D03*
X351282000Y-99034000D03*
X351282000Y-101534000D03*
X351282000Y-104034000D03*
X351282000Y-106534000D03*
X351282000Y-109034000D03*
X351282000Y-111534000D03*
X351282000Y-114034000D03*
X351282000Y-116534000D03*
X351282000Y-119034000D03*
X351282000Y-121534000D03*
X351282000Y-124034000D03*
X351282000Y-126534000D03*
X351282000Y-129034000D03*
X351282000Y-131534000D03*
X346282000Y-126534000D03*
X351282000Y-134034000D03*
X351282000Y-136534000D03*
X351282000Y-139034000D03*
X351282000Y-141534000D03*
X351282000Y-144034000D03*
X351282000Y-146534000D03*
X351282000Y-149034000D03*
X351282000Y-151534000D03*
X351282000Y-154034000D03*
X351282000Y-156534000D03*
X351282000Y-159034000D03*
X346282000Y-81534000D03*
X348782000Y-81534000D03*
X346282000Y-84034000D03*
X348782000Y-84034000D03*
X348782000Y-86534000D03*
X346282000Y-86534000D03*
X346282000Y-89034000D03*
X348782000Y-89034000D03*
X348782000Y-91534000D03*
X346282000Y-91534000D03*
X346282000Y-94034000D03*
X348782000Y-94034000D03*
X348782000Y-96534000D03*
X346282000Y-96534000D03*
X348782000Y-99034000D03*
X346282000Y-99034000D03*
X346282000Y-101534000D03*
X348782000Y-101534000D03*
X348782000Y-104034000D03*
X346282000Y-104034000D03*
X346282000Y-106534000D03*
X348782000Y-106534000D03*
X346282000Y-109034000D03*
X348782000Y-109034000D03*
X346282000Y-111534000D03*
X348782000Y-111534000D03*
X346282000Y-114034000D03*
X348782000Y-114034000D03*
X346282000Y-116534000D03*
X348782000Y-116534000D03*
X348782000Y-119034000D03*
X346282000Y-119034000D03*
X348782000Y-121534000D03*
X346282000Y-121534000D03*
X346282000Y-124034000D03*
X348782000Y-124034000D03*
X348782000Y-126534000D03*
X348782000Y-129034000D03*
X346282000Y-129034000D03*
X346282000Y-131534000D03*
X348782000Y-131534000D03*
X348782000Y-134034000D03*
X346282000Y-134034000D03*
X346282000Y-136534000D03*
X348782000Y-136534000D03*
X346282000Y-139034000D03*
X348782000Y-139034000D03*
X346282000Y-141534000D03*
X348782000Y-141534000D03*
X346282000Y-144034000D03*
X348782000Y-144034000D03*
X348782000Y-146534000D03*
X346282000Y-146534000D03*
X348782000Y-149034000D03*
X346282000Y-149034000D03*
X346282000Y-151534000D03*
X348782000Y-151534000D03*
X346282000Y-154034000D03*
X348782000Y-154034000D03*
X348782000Y-156534000D03*
X346282000Y-156534000D03*
X346282000Y-159034000D03*
X348782000Y-159034000D03*
%TD*%
%TO.C,C3*%
X111125000Y-177466000D03*
X111125000Y-172466000D03*
%TD*%
D10*
%TO.C,U20*%
X132593000Y-204583000D03*
D11*
X130053000Y-204583000D03*
X127513000Y-204583000D03*
X124973000Y-204583000D03*
X122433000Y-204583000D03*
X119893000Y-204583000D03*
X117353000Y-204583000D03*
X117353000Y-212203000D03*
X119893000Y-212203000D03*
X122433000Y-212203000D03*
X124973000Y-212203000D03*
X127513000Y-212203000D03*
X130053000Y-212203000D03*
X132593000Y-212203000D03*
%TD*%
D10*
%TO.C,DA2*%
X340995000Y-88773000D03*
D11*
X340995000Y-91313000D03*
X340995000Y-93853000D03*
X340995000Y-96393000D03*
X340995000Y-98933000D03*
X340995000Y-101473000D03*
X340995000Y-104013000D03*
X340995000Y-106553000D03*
X340995000Y-109093000D03*
X340995000Y-111633000D03*
%TD*%
D10*
%TO.C,D17*%
X307213000Y-194945000D03*
D11*
X307213000Y-205105000D03*
%TD*%
D12*
%TO.C,R33*%
X245872000Y-113284000D03*
D11*
X245872000Y-103124000D03*
%TD*%
D15*
%TO.C,J8*%
X265034000Y-94737000D03*
D16*
X265034000Y-97277000D03*
X262494000Y-94737000D03*
X262494000Y-97277000D03*
X259954000Y-94737000D03*
X259954000Y-97277000D03*
%TD*%
D12*
%TO.C,R59*%
X270637000Y-217297000D03*
D11*
X280797000Y-217297000D03*
%TD*%
D10*
%TO.C,D12*%
X263652000Y-113284000D03*
D11*
X263652000Y-103124000D03*
%TD*%
D10*
%TO.C,U22*%
X161300000Y-126270900D03*
D11*
X158760000Y-126270900D03*
X156220000Y-126270900D03*
X153680000Y-126270900D03*
X151140000Y-126270900D03*
X148600000Y-126270900D03*
X146060000Y-126270900D03*
X143520000Y-126270900D03*
X143520000Y-133890900D03*
X146060000Y-133890900D03*
X148600000Y-133890900D03*
X151140000Y-133890900D03*
X153680000Y-133890900D03*
X156220000Y-133890900D03*
X158760000Y-133890900D03*
X161300000Y-133890900D03*
%TD*%
D10*
%TO.C,U44*%
X211963000Y-159833200D03*
D11*
X209423000Y-159833200D03*
X206883000Y-159833200D03*
X204343000Y-159833200D03*
X201803000Y-159833200D03*
X199263000Y-159833200D03*
X196723000Y-159833200D03*
X194183000Y-159833200D03*
X194183000Y-167453200D03*
X196723000Y-167453200D03*
X199263000Y-167453200D03*
X201803000Y-167453200D03*
X204343000Y-167453200D03*
X206883000Y-167453200D03*
X209423000Y-167453200D03*
X211963000Y-167453200D03*
%TD*%
D12*
%TO.C,C8*%
X139319000Y-153289000D03*
X139319000Y-148289000D03*
%TD*%
D10*
%TO.C,U5*%
X107584000Y-150833000D03*
D11*
X105044000Y-150833000D03*
X102504000Y-150833000D03*
X99964000Y-150833000D03*
X97424000Y-150833000D03*
X94884000Y-150833000D03*
X92344000Y-150833000D03*
X92344000Y-158453000D03*
X94884000Y-158453000D03*
X97424000Y-158453000D03*
X99964000Y-158453000D03*
X102504000Y-158453000D03*
X105044000Y-158453000D03*
X107584000Y-158453000D03*
%TD*%
D10*
%TO.C,D2*%
X122589000Y-86487000D03*
D11*
X132749000Y-86487000D03*
%TD*%
D10*
%TO.C,D7*%
X145161000Y-86487000D03*
D11*
X135001000Y-86487000D03*
%TD*%
D10*
%TO.C,D27*%
X312293000Y-192786000D03*
D11*
X312293000Y-182626000D03*
%TD*%
D12*
%TO.C,R10*%
X136398000Y-113665000D03*
D11*
X136398000Y-103505000D03*
%TD*%
D12*
%TO.C,C1*%
X99568000Y-98044000D03*
X99568000Y-103044000D03*
%TD*%
D10*
%TO.C,U62*%
X265440000Y-162824000D03*
D11*
X262900000Y-162824000D03*
X260360000Y-162824000D03*
X257820000Y-162824000D03*
X255280000Y-162824000D03*
X252740000Y-162824000D03*
X250200000Y-162824000D03*
X247660000Y-162824000D03*
X247660000Y-170444000D03*
X250200000Y-170444000D03*
X252740000Y-170444000D03*
X255280000Y-170444000D03*
X257820000Y-170444000D03*
X260360000Y-170444000D03*
X262900000Y-170444000D03*
X265440000Y-170444000D03*
%TD*%
D12*
%TO.C,R14*%
X156718000Y-197993000D03*
D11*
X146558000Y-197993000D03*
%TD*%
D10*
%TO.C,U75*%
X345938000Y-198252000D03*
D11*
X345938000Y-195712000D03*
X345938000Y-193172000D03*
X345938000Y-190632000D03*
X345938000Y-188092000D03*
X345938000Y-185552000D03*
X345938000Y-183012000D03*
X338318000Y-183012000D03*
X338318000Y-185552000D03*
X338318000Y-188092000D03*
X338318000Y-190632000D03*
X338318000Y-193172000D03*
X338318000Y-195712000D03*
X338318000Y-198252000D03*
%TD*%
D19*
%TO.C,RV43*%
X268533000Y-89546000D03*
X278533000Y-89546000D03*
D20*
X276033000Y-86246000D03*
X273533000Y-86246000D03*
X271033000Y-86246000D03*
%TD*%
D10*
%TO.C,D15*%
X302133000Y-194945000D03*
D11*
X302133000Y-205105000D03*
%TD*%
D10*
%TO.C,U41*%
X211963000Y-126270900D03*
D11*
X209423000Y-126270900D03*
X206883000Y-126270900D03*
X204343000Y-126270900D03*
X201803000Y-126270900D03*
X199263000Y-126270900D03*
X196723000Y-126270900D03*
X194183000Y-126270900D03*
X194183000Y-133890900D03*
X196723000Y-133890900D03*
X199263000Y-133890900D03*
X201803000Y-133890900D03*
X204343000Y-133890900D03*
X206883000Y-133890900D03*
X209423000Y-133890900D03*
X211963000Y-133890900D03*
%TD*%
D10*
%TO.C,D31*%
X146438000Y-107442000D03*
D11*
X156598000Y-107442000D03*
%TD*%
D17*
%TO.C,Q5*%
X234590000Y-95377000D03*
D18*
X234590000Y-96647000D03*
X234590000Y-97917000D03*
%TD*%
D10*
%TO.C,D29*%
X317373000Y-192786000D03*
D11*
X317373000Y-182626000D03*
%TD*%
D10*
%TO.C,U32*%
X188991000Y-137458300D03*
D11*
X186451000Y-137458300D03*
X183911000Y-137458300D03*
X181371000Y-137458300D03*
X178831000Y-137458300D03*
X176291000Y-137458300D03*
X173751000Y-137458300D03*
X171211000Y-137458300D03*
X171211000Y-145078300D03*
X173751000Y-145078300D03*
X176291000Y-145078300D03*
X178831000Y-145078300D03*
X181371000Y-145078300D03*
X183911000Y-145078300D03*
X186451000Y-145078300D03*
X188991000Y-145078300D03*
%TD*%
D10*
%TO.C,U12*%
X132720000Y-115083400D03*
D11*
X130180000Y-115083400D03*
X127640000Y-115083400D03*
X125100000Y-115083400D03*
X122560000Y-115083400D03*
X120020000Y-115083400D03*
X117480000Y-115083400D03*
X117480000Y-122703400D03*
X120020000Y-122703400D03*
X122560000Y-122703400D03*
X125100000Y-122703400D03*
X127640000Y-122703400D03*
X130180000Y-122703400D03*
X132720000Y-122703400D03*
%TD*%
D10*
%TO.C,U71*%
X329946000Y-119507000D03*
D11*
X327406000Y-119507000D03*
X324866000Y-119507000D03*
X322326000Y-119507000D03*
X319786000Y-119507000D03*
X317246000Y-119507000D03*
X314706000Y-119507000D03*
X312166000Y-119507000D03*
X309626000Y-119507000D03*
X307086000Y-119507000D03*
X304546000Y-119507000D03*
X302006000Y-119507000D03*
X299466000Y-119507000D03*
X296926000Y-119507000D03*
X296926000Y-134747000D03*
X299466000Y-134747000D03*
X302006000Y-134747000D03*
X304546000Y-134747000D03*
X307086000Y-134747000D03*
X309626000Y-134747000D03*
X312166000Y-134747000D03*
X314706000Y-134747000D03*
X317246000Y-134747000D03*
X319786000Y-134747000D03*
X322326000Y-134747000D03*
X324866000Y-134747000D03*
X327406000Y-134747000D03*
X329946000Y-134747000D03*
%TD*%
D10*
%TO.C,U45*%
X211963000Y-171020700D03*
D11*
X209423000Y-171020700D03*
X206883000Y-171020700D03*
X204343000Y-171020700D03*
X201803000Y-171020700D03*
X199263000Y-171020700D03*
X196723000Y-171020700D03*
X194183000Y-171020700D03*
X194183000Y-178640700D03*
X196723000Y-178640700D03*
X199263000Y-178640700D03*
X201803000Y-178640700D03*
X204343000Y-178640700D03*
X206883000Y-178640700D03*
X209423000Y-178640700D03*
X211963000Y-178640700D03*
%TD*%
D12*
%TO.C,R24*%
X223647000Y-103124000D03*
D11*
X223647000Y-113284000D03*
%TD*%
D12*
%TO.C,R49*%
X280416000Y-133223000D03*
D11*
X290576000Y-133223000D03*
%TD*%
D10*
%TO.C,U14*%
X132715000Y-137458300D03*
D11*
X130175000Y-137458300D03*
X127635000Y-137458300D03*
X125095000Y-137458300D03*
X122555000Y-137458300D03*
X120015000Y-137458300D03*
X117475000Y-137458300D03*
X117475000Y-145078300D03*
X120015000Y-145078300D03*
X122555000Y-145078300D03*
X125095000Y-145078300D03*
X127635000Y-145078300D03*
X130175000Y-145078300D03*
X132715000Y-145078300D03*
%TD*%
D10*
%TO.C,U6*%
X107584000Y-161583000D03*
D11*
X105044000Y-161583000D03*
X102504000Y-161583000D03*
X99964000Y-161583000D03*
X97424000Y-161583000D03*
X94884000Y-161583000D03*
X92344000Y-161583000D03*
X89804000Y-161583000D03*
X89804000Y-169203000D03*
X92344000Y-169203000D03*
X94884000Y-169203000D03*
X97424000Y-169203000D03*
X99964000Y-169203000D03*
X102504000Y-169203000D03*
X105044000Y-169203000D03*
X107584000Y-169203000D03*
%TD*%
D10*
%TO.C,D19*%
X312293000Y-194945000D03*
D11*
X312293000Y-205105000D03*
%TD*%
D12*
%TO.C,C6*%
X113411000Y-103672000D03*
X113411000Y-108672000D03*
%TD*%
D10*
%TO.C,U18*%
X132720000Y-182208100D03*
D11*
X130180000Y-182208100D03*
X127640000Y-182208100D03*
X125100000Y-182208100D03*
X122560000Y-182208100D03*
X120020000Y-182208100D03*
X117480000Y-182208100D03*
X117480000Y-189828100D03*
X120020000Y-189828100D03*
X122560000Y-189828100D03*
X125100000Y-189828100D03*
X127640000Y-189828100D03*
X130180000Y-189828100D03*
X132720000Y-189828100D03*
%TD*%
D10*
%TO.C,U65*%
X262768000Y-204607000D03*
D11*
X260228000Y-204607000D03*
X257688000Y-204607000D03*
X255148000Y-204607000D03*
X252608000Y-204607000D03*
X250068000Y-204607000D03*
X247528000Y-204607000D03*
X247528000Y-212227000D03*
X250068000Y-212227000D03*
X252608000Y-212227000D03*
X255148000Y-212227000D03*
X257688000Y-212227000D03*
X260228000Y-212227000D03*
X262768000Y-212227000D03*
%TD*%
D10*
%TO.C,U69*%
X329941000Y-99182000D03*
D11*
X327401000Y-99182000D03*
X324861000Y-99182000D03*
X322321000Y-99182000D03*
X319781000Y-99182000D03*
X317241000Y-99182000D03*
X314701000Y-99182000D03*
X312161000Y-99182000D03*
X309621000Y-99182000D03*
X307081000Y-99182000D03*
X304541000Y-99182000D03*
X302001000Y-99182000D03*
X299461000Y-99182000D03*
X296921000Y-99182000D03*
X294381000Y-99182000D03*
X291841000Y-99182000D03*
X289301000Y-99182000D03*
X286761000Y-99182000D03*
X284221000Y-99182000D03*
X281681000Y-99182000D03*
X281681000Y-114422000D03*
X284221000Y-114422000D03*
X286761000Y-114422000D03*
X289301000Y-114422000D03*
X291841000Y-114422000D03*
X294381000Y-114422000D03*
X296921000Y-114422000D03*
X299461000Y-114422000D03*
X302001000Y-114422000D03*
X304541000Y-114422000D03*
X307081000Y-114422000D03*
X309621000Y-114422000D03*
X312161000Y-114422000D03*
X314701000Y-114422000D03*
X317241000Y-114422000D03*
X319781000Y-114422000D03*
X322321000Y-114422000D03*
X324861000Y-114422000D03*
X327401000Y-114422000D03*
X329941000Y-114422000D03*
%TD*%
D17*
%TO.C,Q8*%
X298852000Y-159766000D03*
D18*
X298852000Y-161036000D03*
X298852000Y-162306000D03*
%TD*%
D12*
%TO.C,R7*%
X117475000Y-86614000D03*
D11*
X117475000Y-96774000D03*
%TD*%
D12*
%TO.C,R20*%
X187833000Y-96139000D03*
D11*
X177673000Y-96139000D03*
%TD*%
D10*
%TO.C,D4*%
X122589000Y-91567000D03*
D11*
X132749000Y-91567000D03*
%TD*%
D10*
%TO.C,D8*%
X145161000Y-89027000D03*
D11*
X135001000Y-89027000D03*
%TD*%
D10*
%TO.C,U73*%
X332349000Y-198252000D03*
D11*
X332349000Y-195712000D03*
X332349000Y-193172000D03*
X332349000Y-190632000D03*
X332349000Y-188092000D03*
X332349000Y-185552000D03*
X332349000Y-183012000D03*
X324729000Y-183012000D03*
X324729000Y-185552000D03*
X324729000Y-188092000D03*
X324729000Y-190632000D03*
X324729000Y-193172000D03*
X324729000Y-195712000D03*
X324729000Y-198252000D03*
%TD*%
D10*
%TO.C,U34*%
X188991000Y-159833200D03*
D11*
X186451000Y-159833200D03*
X183911000Y-159833200D03*
X181371000Y-159833200D03*
X178831000Y-159833200D03*
X176291000Y-159833200D03*
X173751000Y-159833200D03*
X171211000Y-159833200D03*
X171211000Y-167453200D03*
X173751000Y-167453200D03*
X176291000Y-167453200D03*
X178831000Y-167453200D03*
X181371000Y-167453200D03*
X183911000Y-167453200D03*
X186451000Y-167453200D03*
X188991000Y-167453200D03*
%TD*%
D13*
%TO.C,J7*%
X186928000Y-74588000D03*
X176928000Y-74588000D03*
X179428000Y-74288000D03*
X184428000Y-74288000D03*
D14*
X174428000Y-84288000D03*
X181928000Y-84288000D03*
X189428000Y-84288000D03*
X176928000Y-86788000D03*
X186928000Y-86788000D03*
X174428000Y-89388000D03*
X189428000Y-89388000D03*
%TD*%
D10*
%TO.C,D16*%
X304673000Y-194945000D03*
D11*
X304673000Y-205105000D03*
%TD*%
D10*
%TO.C,D3*%
X122589000Y-89027000D03*
D11*
X132749000Y-89027000D03*
%TD*%
D10*
%TO.C,U40*%
X206888000Y-115083400D03*
D11*
X204348000Y-115083400D03*
X201808000Y-115083400D03*
X199268000Y-115083400D03*
X196728000Y-115083400D03*
X194188000Y-115083400D03*
X191648000Y-115083400D03*
X191648000Y-122703400D03*
X194188000Y-122703400D03*
X196728000Y-122703400D03*
X199268000Y-122703400D03*
X201808000Y-122703400D03*
X204348000Y-122703400D03*
X206888000Y-122703400D03*
%TD*%
D12*
%TO.C,R45*%
X273812000Y-139304500D03*
D11*
X273812000Y-129144500D03*
%TD*%
D10*
%TO.C,U70*%
X329946000Y-139827000D03*
D11*
X327406000Y-139827000D03*
X324866000Y-139827000D03*
X322326000Y-139827000D03*
X319786000Y-139827000D03*
X317246000Y-139827000D03*
X314706000Y-139827000D03*
X312166000Y-139827000D03*
X309626000Y-139827000D03*
X307086000Y-139827000D03*
X304546000Y-139827000D03*
X302006000Y-139827000D03*
X299466000Y-139827000D03*
X296926000Y-139827000D03*
X296926000Y-155067000D03*
X299466000Y-155067000D03*
X302006000Y-155067000D03*
X304546000Y-155067000D03*
X307086000Y-155067000D03*
X309626000Y-155067000D03*
X312166000Y-155067000D03*
X314706000Y-155067000D03*
X317246000Y-155067000D03*
X319786000Y-155067000D03*
X322326000Y-155067000D03*
X324866000Y-155067000D03*
X327406000Y-155067000D03*
X329946000Y-155067000D03*
%TD*%
D12*
%TO.C,R19*%
X138303000Y-135255000D03*
D11*
X138303000Y-145415000D03*
%TD*%
D10*
%TO.C,U67*%
X283718000Y-149987000D03*
D11*
X283718000Y-152527000D03*
X283718000Y-155067000D03*
X283718000Y-157607000D03*
X283718000Y-160147000D03*
X283718000Y-162687000D03*
X283718000Y-165227000D03*
X283718000Y-167767000D03*
X283718000Y-170307000D03*
X283718000Y-172847000D03*
X291338000Y-172847000D03*
X291338000Y-170307000D03*
X291338000Y-167767000D03*
X291338000Y-165227000D03*
X291338000Y-162687000D03*
X291338000Y-160147000D03*
X291338000Y-157607000D03*
X291338000Y-155067000D03*
X291338000Y-152527000D03*
X291338000Y-149987000D03*
%TD*%
D10*
%TO.C,D14*%
X299593000Y-194945000D03*
D11*
X299593000Y-205105000D03*
%TD*%
D12*
%TO.C,R32*%
X242697000Y-113284000D03*
D11*
X242697000Y-103124000D03*
%TD*%
D12*
%TO.C,R21*%
X201041000Y-96266000D03*
D11*
X190881000Y-96266000D03*
%TD*%
D10*
%TO.C,D18*%
X309753000Y-194945000D03*
D11*
X309753000Y-205105000D03*
%TD*%
D12*
%TO.C,R16*%
X163957000Y-205359000D03*
D11*
X163957000Y-195199000D03*
%TD*%
D12*
%TO.C,R37*%
X272669000Y-113284000D03*
D11*
X272669000Y-103124000D03*
%TD*%
D10*
%TO.C,D11*%
X248793000Y-113284000D03*
D11*
X248793000Y-103124000D03*
%TD*%
D12*
%TO.C,R9*%
X112268000Y-115316000D03*
D11*
X112268000Y-125476000D03*
%TD*%
D12*
%TO.C,C32*%
X84455000Y-139827000D03*
X84455000Y-134827000D03*
%TD*%
D10*
%TO.C,U68*%
X289560000Y-210820000D03*
D11*
X289560000Y-208280000D03*
X289560000Y-205740000D03*
X289560000Y-203200000D03*
X289560000Y-200660000D03*
X289560000Y-198120000D03*
X289560000Y-195580000D03*
X289560000Y-193040000D03*
X289560000Y-190500000D03*
X289560000Y-187960000D03*
X289560000Y-185420000D03*
X289560000Y-182880000D03*
X289560000Y-180340000D03*
X289560000Y-177800000D03*
X274320000Y-177800000D03*
X274320000Y-180340000D03*
X274320000Y-182880000D03*
X274320000Y-185420000D03*
X274320000Y-187960000D03*
X274320000Y-190500000D03*
X274320000Y-193040000D03*
X274320000Y-195580000D03*
X274320000Y-198120000D03*
X274320000Y-200660000D03*
X274320000Y-203200000D03*
X274320000Y-205740000D03*
X274320000Y-208280000D03*
X274320000Y-210820000D03*
%TD*%
D12*
%TO.C,R28*%
X233172000Y-103124000D03*
D11*
X233172000Y-113284000D03*
%TD*%
D13*
%TO.C,J2*%
X247478000Y-74688000D03*
X249978000Y-74988000D03*
X242478000Y-74688000D03*
X239978000Y-74988000D03*
D14*
X237478000Y-84688000D03*
X244978000Y-84688000D03*
X252478000Y-84688000D03*
X239978000Y-87188000D03*
X249978000Y-87188000D03*
X237478000Y-89788000D03*
X252478000Y-89788000D03*
%TD*%
D10*
%TO.C,U24*%
X161300000Y-148645800D03*
D11*
X158760000Y-148645800D03*
X156220000Y-148645800D03*
X153680000Y-148645800D03*
X151140000Y-148645800D03*
X148600000Y-148645800D03*
X146060000Y-148645800D03*
X143520000Y-148645800D03*
X143520000Y-156265800D03*
X146060000Y-156265800D03*
X148600000Y-156265800D03*
X151140000Y-156265800D03*
X153680000Y-156265800D03*
X156220000Y-156265800D03*
X158760000Y-156265800D03*
X161300000Y-156265800D03*
%TD*%
D12*
%TO.C,R1*%
X94488000Y-103124000D03*
D11*
X94488000Y-92964000D03*
%TD*%
D12*
%TO.C,C28*%
X335153000Y-102656000D03*
X335153000Y-107656000D03*
%TD*%
D10*
%TO.C,U37*%
X188991000Y-193395600D03*
D11*
X186451000Y-193395600D03*
X183911000Y-193395600D03*
X181371000Y-193395600D03*
X178831000Y-193395600D03*
X176291000Y-193395600D03*
X173751000Y-193395600D03*
X171211000Y-193395600D03*
X171211000Y-201015600D03*
X173751000Y-201015600D03*
X176291000Y-201015600D03*
X178831000Y-201015600D03*
X181371000Y-201015600D03*
X183911000Y-201015600D03*
X186451000Y-201015600D03*
X188991000Y-201015600D03*
%TD*%
D10*
%TO.C,U56*%
X239659000Y-183017000D03*
D11*
X237119000Y-183017000D03*
X234579000Y-183017000D03*
X232039000Y-183017000D03*
X229499000Y-183017000D03*
X226959000Y-183017000D03*
X224419000Y-183017000D03*
X221879000Y-183017000D03*
X221879000Y-190637000D03*
X224419000Y-190637000D03*
X226959000Y-190637000D03*
X229499000Y-190637000D03*
X232039000Y-190637000D03*
X234579000Y-190637000D03*
X237119000Y-190637000D03*
X239659000Y-190637000D03*
%TD*%
D10*
%TO.C,D6*%
X145161000Y-83947000D03*
D11*
X135001000Y-83947000D03*
%TD*%
D10*
%TO.C,D21*%
X317373000Y-194945000D03*
D11*
X317373000Y-205105000D03*
%TD*%
D10*
%TO.C,U1*%
X107584000Y-107833000D03*
D11*
X105044000Y-107833000D03*
X102504000Y-107833000D03*
X99964000Y-107833000D03*
X97424000Y-107833000D03*
X94884000Y-107833000D03*
X92344000Y-107833000D03*
X92344000Y-115453000D03*
X94884000Y-115453000D03*
X97424000Y-115453000D03*
X99964000Y-115453000D03*
X102504000Y-115453000D03*
X105044000Y-115453000D03*
X107584000Y-115453000D03*
%TD*%
D10*
%TO.C,D25*%
X307213000Y-192786000D03*
D11*
X307213000Y-182626000D03*
%TD*%
D10*
%TO.C,U55*%
X242326000Y-162824000D03*
D11*
X239786000Y-162824000D03*
X237246000Y-162824000D03*
X234706000Y-162824000D03*
X232166000Y-162824000D03*
X229626000Y-162824000D03*
X227086000Y-162824000D03*
X224546000Y-162824000D03*
X224546000Y-170444000D03*
X227086000Y-170444000D03*
X229626000Y-170444000D03*
X232166000Y-170444000D03*
X234706000Y-170444000D03*
X237246000Y-170444000D03*
X239786000Y-170444000D03*
X242326000Y-170444000D03*
%TD*%
D10*
%TO.C,U25*%
X161300000Y-159833200D03*
D11*
X158760000Y-159833200D03*
X156220000Y-159833200D03*
X153680000Y-159833200D03*
X151140000Y-159833200D03*
X148600000Y-159833200D03*
X146060000Y-159833200D03*
X143520000Y-159833200D03*
X143520000Y-167453200D03*
X146060000Y-167453200D03*
X148600000Y-167453200D03*
X151140000Y-167453200D03*
X153680000Y-167453200D03*
X156220000Y-167453200D03*
X158760000Y-167453200D03*
X161300000Y-167453200D03*
%TD*%
D21*
%TO.C,Y1*%
X102228000Y-88660800D03*
X97348000Y-88660800D03*
%TD*%
D10*
%TO.C,U26*%
X161300000Y-171020700D03*
D11*
X158760000Y-171020700D03*
X156220000Y-171020700D03*
X153680000Y-171020700D03*
X151140000Y-171020700D03*
X148600000Y-171020700D03*
X146060000Y-171020700D03*
X143520000Y-171020700D03*
X143520000Y-178640700D03*
X146060000Y-178640700D03*
X148600000Y-178640700D03*
X151140000Y-178640700D03*
X153680000Y-178640700D03*
X156220000Y-178640700D03*
X158760000Y-178640700D03*
X161300000Y-178640700D03*
%TD*%
D17*
%TO.C,Q6*%
X242210000Y-95377000D03*
D18*
X242210000Y-96647000D03*
X242210000Y-97917000D03*
%TD*%
D10*
%TO.C,U42*%
X211963000Y-137458300D03*
D11*
X209423000Y-137458300D03*
X206883000Y-137458300D03*
X204343000Y-137458300D03*
X201803000Y-137458300D03*
X199263000Y-137458300D03*
X196723000Y-137458300D03*
X194183000Y-137458300D03*
X194183000Y-145078300D03*
X196723000Y-145078300D03*
X199263000Y-145078300D03*
X201803000Y-145078300D03*
X204343000Y-145078300D03*
X206883000Y-145078300D03*
X209423000Y-145078300D03*
X211963000Y-145078300D03*
%TD*%
D12*
%TO.C,R36*%
X257810000Y-113284000D03*
D11*
X257810000Y-103124000D03*
%TD*%
D10*
%TO.C,D28*%
X314833000Y-192786000D03*
D11*
X314833000Y-182626000D03*
%TD*%
D10*
%TO.C,DA1*%
X292862000Y-210688000D03*
D11*
X292862000Y-208148000D03*
X292862000Y-205608000D03*
X292862000Y-203068000D03*
X292862000Y-200528000D03*
X292862000Y-197988000D03*
X292862000Y-195448000D03*
X292862000Y-192908000D03*
X292862000Y-190368000D03*
X292862000Y-187828000D03*
%TD*%
D12*
%TO.C,R39*%
X269621000Y-113284000D03*
D11*
X269621000Y-103124000D03*
%TD*%
D10*
%TO.C,U17*%
X135265000Y-171020700D03*
D11*
X132725000Y-171020700D03*
X130185000Y-171020700D03*
X127645000Y-171020700D03*
X125105000Y-171020700D03*
X122565000Y-171020700D03*
X120025000Y-171020700D03*
X117485000Y-171020700D03*
X117485000Y-178640700D03*
X120025000Y-178640700D03*
X122565000Y-178640700D03*
X125105000Y-178640700D03*
X127645000Y-178640700D03*
X130185000Y-178640700D03*
X132725000Y-178640700D03*
X135265000Y-178640700D03*
%TD*%
D10*
%TO.C,U2*%
X107584000Y-118583000D03*
D11*
X105044000Y-118583000D03*
X102504000Y-118583000D03*
X99964000Y-118583000D03*
X97424000Y-118583000D03*
X94884000Y-118583000D03*
X92344000Y-118583000D03*
X92344000Y-126203000D03*
X94884000Y-126203000D03*
X97424000Y-126203000D03*
X99964000Y-126203000D03*
X102504000Y-126203000D03*
X105044000Y-126203000D03*
X107584000Y-126203000D03*
%TD*%
D10*
%TO.C,D10*%
X145161000Y-94107000D03*
D11*
X135001000Y-94107000D03*
%TD*%
D17*
%TO.C,Q4*%
X226970000Y-95377000D03*
D18*
X226970000Y-96647000D03*
X226970000Y-97917000D03*
%TD*%
D13*
%TO.C,SW1*%
X264532000Y-77744500D03*
X257522000Y-77744500D03*
D22*
X258772000Y-75254500D03*
X263272000Y-75254500D03*
%TD*%
D12*
%TO.C,R25*%
X226822000Y-103124000D03*
D11*
X226822000Y-113284000D03*
%TD*%
D10*
%TO.C,U51*%
X273817000Y-116723000D03*
D11*
X271277000Y-116723000D03*
X268737000Y-116723000D03*
X266197000Y-116723000D03*
X263657000Y-116723000D03*
X261117000Y-116723000D03*
X258577000Y-116723000D03*
X258577000Y-124343000D03*
X261117000Y-124343000D03*
X263657000Y-124343000D03*
X266197000Y-124343000D03*
X268737000Y-124343000D03*
X271277000Y-124343000D03*
X273817000Y-124343000D03*
%TD*%
D12*
%TO.C,R11*%
X146431000Y-98933000D03*
D11*
X156591000Y-98933000D03*
%TD*%
D17*
%TO.C,Q7*%
X351303000Y-181610000D03*
D18*
X351303000Y-182880000D03*
X351303000Y-184150000D03*
%TD*%
D12*
%TO.C,R2*%
X104648000Y-92964000D03*
D11*
X104648000Y-103124000D03*
%TD*%
D12*
%TO.C,R52*%
X340741000Y-172212000D03*
D11*
X350901000Y-172212000D03*
%TD*%
D10*
%TO.C,U66*%
X272923000Y-149987000D03*
D11*
X272923000Y-152527000D03*
X272923000Y-155067000D03*
X272923000Y-157607000D03*
X272923000Y-160147000D03*
X272923000Y-162687000D03*
X272923000Y-165227000D03*
X272923000Y-167767000D03*
X280543000Y-167767000D03*
X280543000Y-165227000D03*
X280543000Y-162687000D03*
X280543000Y-160147000D03*
X280543000Y-157607000D03*
X280543000Y-155067000D03*
X280543000Y-152527000D03*
X280543000Y-149987000D03*
%TD*%
D10*
%TO.C,U35*%
X188991000Y-171020700D03*
D11*
X186451000Y-171020700D03*
X183911000Y-171020700D03*
X181371000Y-171020700D03*
X178831000Y-171020700D03*
X176291000Y-171020700D03*
X173751000Y-171020700D03*
X171211000Y-171020700D03*
X171211000Y-178640700D03*
X173751000Y-178640700D03*
X176291000Y-178640700D03*
X178831000Y-178640700D03*
X181371000Y-178640700D03*
X183911000Y-178640700D03*
X186451000Y-178640700D03*
X188991000Y-178640700D03*
%TD*%
D23*
%TO.C,C14*%
X161208300Y-98298000D03*
D24*
X166208300Y-98298000D03*
%TD*%
D10*
%TO.C,U31*%
X188991000Y-126270900D03*
D11*
X186451000Y-126270900D03*
X183911000Y-126270900D03*
X181371000Y-126270900D03*
X178831000Y-126270900D03*
X176291000Y-126270900D03*
X173751000Y-126270900D03*
X171211000Y-126270900D03*
X171211000Y-133890900D03*
X173751000Y-133890900D03*
X176291000Y-133890900D03*
X178831000Y-133890900D03*
X181371000Y-133890900D03*
X183911000Y-133890900D03*
X186451000Y-133890900D03*
X188991000Y-133890900D03*
%TD*%
D12*
%TO.C,C11*%
X139954000Y-103719000D03*
X139954000Y-98719000D03*
%TD*%
D10*
%TO.C,U74*%
X332349000Y-219588000D03*
D11*
X332349000Y-217048000D03*
X332349000Y-214508000D03*
X332349000Y-211968000D03*
X332349000Y-209428000D03*
X332349000Y-206888000D03*
X332349000Y-204348000D03*
X324729000Y-204348000D03*
X324729000Y-206888000D03*
X324729000Y-209428000D03*
X324729000Y-211968000D03*
X324729000Y-214508000D03*
X324729000Y-217048000D03*
X324729000Y-219588000D03*
%TD*%
D12*
%TO.C,R38*%
X266573000Y-103124000D03*
D11*
X266573000Y-113284000D03*
%TD*%
D12*
%TO.C,C12*%
X143764000Y-201523800D03*
X143764000Y-196523800D03*
%TD*%
%TO.C,R47*%
X280416000Y-125123000D03*
D11*
X290576000Y-125123000D03*
%TD*%
D12*
%TO.C,R12*%
X146438000Y-102093200D03*
D11*
X156598000Y-102093200D03*
%TD*%
D10*
%TO.C,D13*%
X275463000Y-113284000D03*
D11*
X275463000Y-103124000D03*
%TD*%
D12*
%TO.C,R22*%
X210947000Y-113411000D03*
D11*
X210947000Y-103251000D03*
%TD*%
D10*
%TO.C,U15*%
X135265000Y-148645800D03*
D11*
X132725000Y-148645800D03*
X130185000Y-148645800D03*
X127645000Y-148645800D03*
X125105000Y-148645800D03*
X122565000Y-148645800D03*
X120025000Y-148645800D03*
X117485000Y-148645800D03*
X117485000Y-156265800D03*
X120025000Y-156265800D03*
X122565000Y-156265800D03*
X125105000Y-156265800D03*
X127645000Y-156265800D03*
X130185000Y-156265800D03*
X132725000Y-156265800D03*
X135265000Y-156265800D03*
%TD*%
D19*
%TO.C,RV44*%
X309140000Y-89546000D03*
X299140000Y-89546000D03*
D20*
X306640000Y-86246000D03*
X304140000Y-86246000D03*
X301640000Y-86246000D03*
%TD*%
D10*
%TO.C,U16*%
X135265000Y-159833200D03*
D11*
X132725000Y-159833200D03*
X130185000Y-159833200D03*
X127645000Y-159833200D03*
X125105000Y-159833200D03*
X122565000Y-159833200D03*
X120025000Y-159833200D03*
X117485000Y-159833200D03*
X117485000Y-167453200D03*
X120025000Y-167453200D03*
X122565000Y-167453200D03*
X125105000Y-167453200D03*
X127645000Y-167453200D03*
X130185000Y-167453200D03*
X132725000Y-167453200D03*
X135265000Y-167453200D03*
%TD*%
D12*
%TO.C,R48*%
X280416000Y-129173000D03*
D11*
X290576000Y-129173000D03*
%TD*%
D15*
%TO.C,JP2*%
X341645000Y-203454000D03*
D16*
X344185000Y-203454000D03*
X346725000Y-203454000D03*
%TD*%
D17*
%TO.C,Q1*%
X112543000Y-86995000D03*
D18*
X112543000Y-88265000D03*
X112543000Y-89535000D03*
%TD*%
D10*
%TO.C,U54*%
X242326000Y-151267000D03*
D11*
X239786000Y-151267000D03*
X237246000Y-151267000D03*
X234706000Y-151267000D03*
X232166000Y-151267000D03*
X229626000Y-151267000D03*
X227086000Y-151267000D03*
X224546000Y-151267000D03*
X224546000Y-158887000D03*
X227086000Y-158887000D03*
X229626000Y-158887000D03*
X232166000Y-158887000D03*
X234706000Y-158887000D03*
X237246000Y-158887000D03*
X239786000Y-158887000D03*
X242326000Y-158887000D03*
%TD*%
D10*
%TO.C,U46*%
X211963000Y-182208100D03*
D11*
X209423000Y-182208100D03*
X206883000Y-182208100D03*
X204343000Y-182208100D03*
X201803000Y-182208100D03*
X199263000Y-182208100D03*
X196723000Y-182208100D03*
X194183000Y-182208100D03*
X194183000Y-189828100D03*
X196723000Y-189828100D03*
X199263000Y-189828100D03*
X201803000Y-189828100D03*
X204343000Y-189828100D03*
X206883000Y-189828100D03*
X209423000Y-189828100D03*
X211963000Y-189828100D03*
%TD*%
D12*
%TO.C,R13*%
X146558000Y-201295000D03*
D11*
X156718000Y-201295000D03*
%TD*%
D10*
%TO.C,U58*%
X239649000Y-204597000D03*
D11*
X237109000Y-204597000D03*
X234569000Y-204597000D03*
X232029000Y-204597000D03*
X229489000Y-204597000D03*
X226949000Y-204597000D03*
X224409000Y-204597000D03*
X224409000Y-212217000D03*
X226949000Y-212217000D03*
X229489000Y-212217000D03*
X232029000Y-212217000D03*
X234569000Y-212217000D03*
X237109000Y-212217000D03*
X239649000Y-212217000D03*
%TD*%
D12*
%TO.C,R26*%
X229997000Y-103124000D03*
D11*
X229997000Y-113284000D03*
%TD*%
D10*
%TO.C,U19*%
X132720000Y-193395600D03*
D11*
X130180000Y-193395600D03*
X127640000Y-193395600D03*
X125100000Y-193395600D03*
X122560000Y-193395600D03*
X120020000Y-193395600D03*
X117480000Y-193395600D03*
X117480000Y-201015600D03*
X120020000Y-201015600D03*
X122560000Y-201015600D03*
X125100000Y-201015600D03*
X127640000Y-201015600D03*
X130180000Y-201015600D03*
X132720000Y-201015600D03*
%TD*%
D10*
%TO.C,U53*%
X242326000Y-139710000D03*
D11*
X239786000Y-139710000D03*
X237246000Y-139710000D03*
X234706000Y-139710000D03*
X232166000Y-139710000D03*
X229626000Y-139710000D03*
X227086000Y-139710000D03*
X224546000Y-139710000D03*
X224546000Y-147330000D03*
X227086000Y-147330000D03*
X229626000Y-147330000D03*
X232166000Y-147330000D03*
X234706000Y-147330000D03*
X237246000Y-147330000D03*
X239786000Y-147330000D03*
X242326000Y-147330000D03*
%TD*%
D10*
%TO.C,D24*%
X304673000Y-192786000D03*
D11*
X304673000Y-182626000D03*
%TD*%
D10*
%TO.C,U28*%
X158750000Y-204583000D03*
D11*
X156210000Y-204583000D03*
X153670000Y-204583000D03*
X151130000Y-204583000D03*
X148590000Y-204583000D03*
X146050000Y-204583000D03*
X143510000Y-204583000D03*
X143510000Y-212203000D03*
X146050000Y-212203000D03*
X148590000Y-212203000D03*
X151130000Y-212203000D03*
X153670000Y-212203000D03*
X156210000Y-212203000D03*
X158750000Y-212203000D03*
%TD*%
D12*
%TO.C,R58*%
X270637000Y-214122000D03*
D11*
X280797000Y-214122000D03*
%TD*%
D25*
%TO.C,J5*%
X289433000Y-218694000D03*
D26*
X289433000Y-216154000D03*
X291973000Y-218694000D03*
X291973000Y-216154000D03*
X294513000Y-218694000D03*
X294513000Y-216154000D03*
X297053000Y-218694000D03*
X297053000Y-216154000D03*
X299593000Y-218694000D03*
X299593000Y-216154000D03*
X302133000Y-218694000D03*
X302133000Y-216154000D03*
X304673000Y-218694000D03*
X304673000Y-216154000D03*
X307213000Y-218694000D03*
X307213000Y-216154000D03*
X309753000Y-218694000D03*
X309753000Y-216154000D03*
X312293000Y-218694000D03*
X312293000Y-216154000D03*
X314833000Y-218694000D03*
X314833000Y-216154000D03*
X317373000Y-218694000D03*
X317373000Y-216154000D03*
%TD*%
D12*
%TO.C,C21*%
X214096000Y-113205200D03*
X214096000Y-108205200D03*
%TD*%
D13*
%TO.C,J4*%
X221528000Y-74538000D03*
X229028000Y-74838000D03*
X219028000Y-74838000D03*
X226528000Y-74538000D03*
D14*
X216528000Y-84538000D03*
X224028000Y-84538000D03*
X231528000Y-84538000D03*
X219028000Y-87038000D03*
X229028000Y-87038000D03*
%TD*%
D12*
%TO.C,R6*%
X85471000Y-197231000D03*
D11*
X85471000Y-187071000D03*
%TD*%
D12*
%TO.C,R23*%
X217297000Y-103251000D03*
D11*
X217297000Y-113411000D03*
%TD*%
D23*
%TO.C,C15*%
X207772000Y-99060000D03*
D24*
X207772000Y-94060000D03*
%TD*%
D10*
%TO.C,U9*%
X107584000Y-193833000D03*
D11*
X105044000Y-193833000D03*
X102504000Y-193833000D03*
X99964000Y-193833000D03*
X97424000Y-193833000D03*
X94884000Y-193833000D03*
X92344000Y-193833000D03*
X92344000Y-201453000D03*
X94884000Y-201453000D03*
X97424000Y-201453000D03*
X99964000Y-201453000D03*
X102504000Y-201453000D03*
X105044000Y-201453000D03*
X107584000Y-201453000D03*
%TD*%
D10*
%TO.C,U4*%
X107584000Y-140083000D03*
D11*
X105044000Y-140083000D03*
X102504000Y-140083000D03*
X99964000Y-140083000D03*
X97424000Y-140083000D03*
X94884000Y-140083000D03*
X92344000Y-140083000D03*
X89804000Y-140083000D03*
X89804000Y-147703000D03*
X92344000Y-147703000D03*
X94884000Y-147703000D03*
X97424000Y-147703000D03*
X99964000Y-147703000D03*
X102504000Y-147703000D03*
X105044000Y-147703000D03*
X107584000Y-147703000D03*
%TD*%
D10*
%TO.C,D20*%
X314833000Y-194945000D03*
D11*
X314833000Y-205105000D03*
%TD*%
D12*
%TO.C,R57*%
X338201000Y-208026000D03*
D11*
X348361000Y-208026000D03*
%TD*%
D10*
%TO.C,D5*%
X122589000Y-94107000D03*
D11*
X132749000Y-94107000D03*
%TD*%
D12*
%TO.C,R40*%
X260858000Y-103124000D03*
D11*
X260858000Y-113284000D03*
%TD*%
D12*
%TO.C,R55*%
X353441000Y-189230000D03*
D11*
X353441000Y-199390000D03*
%TD*%
D12*
%TO.C,R4*%
X84074000Y-165354000D03*
D11*
X84074000Y-175514000D03*
%TD*%
D10*
%TO.C,U63*%
X262768000Y-183017000D03*
D11*
X260228000Y-183017000D03*
X257688000Y-183017000D03*
X255148000Y-183017000D03*
X252608000Y-183017000D03*
X250068000Y-183017000D03*
X247528000Y-183017000D03*
X244988000Y-183017000D03*
X244988000Y-190637000D03*
X247528000Y-190637000D03*
X250068000Y-190637000D03*
X252608000Y-190637000D03*
X255148000Y-190637000D03*
X257688000Y-190637000D03*
X260228000Y-190637000D03*
X262768000Y-190637000D03*
%TD*%
M02*
