%TF.GenerationSoftware,KiCad,Pcbnew,7.0.1*%
%TF.CreationDate,2023-10-19T22:59:00+03:00*%
%TF.ProjectId,keyboard_cherry_panel,6b657962-6f61-4726-945f-636865727279,rev?*%
%TF.SameCoordinates,Original*%
%TF.FileFunction,Copper,L2,Bot*%
%TF.FilePolarity,Positive*%
%FSLAX46Y46*%
G04 Gerber Fmt 4.6, Leading zero omitted, Abs format (unit mm)*
G04 Created by KiCad (PCBNEW 7.0.1) date 2023-10-19 22:59:00*
%MOMM*%
%LPD*%
G01*
G04 APERTURE LIST*
G04 APERTURE END LIST*
%TA.AperFunction,NonConductor*%
G36*
X293037500Y-17113D02*
G01*
X293082887Y-62500D01*
X293099500Y-124500D01*
X293099500Y-116875500D01*
X293082887Y-116937500D01*
X293037500Y-116982887D01*
X292975500Y-116999500D01*
X124500Y-116999500D01*
X62500Y-116982887D01*
X17113Y-116937500D01*
X500Y-116875500D01*
X500Y-113326864D01*
X104783387Y-113326864D01*
X104813013Y-113596116D01*
X104881528Y-113858187D01*
X104987471Y-114107492D01*
X105128582Y-114338711D01*
X105217853Y-114445981D01*
X105301855Y-114546920D01*
X105503598Y-114727682D01*
X105729510Y-114877144D01*
X105835811Y-114926975D01*
X105974777Y-114992121D01*
X106234162Y-115070158D01*
X106234169Y-115070160D01*
X106502161Y-115109600D01*
X106705231Y-115109600D01*
X106705234Y-115109600D01*
X106907756Y-115094777D01*
X106907755Y-115094777D01*
X107172153Y-115035880D01*
X107425158Y-114939114D01*
X107661377Y-114806541D01*
X107875777Y-114640988D01*
X108063786Y-114445981D01*
X108221399Y-114225679D01*
X108345256Y-113984775D01*
X108432718Y-113728405D01*
X108481919Y-113462033D01*
X108486859Y-113326864D01*
X184773787Y-113326864D01*
X184803413Y-113596116D01*
X184871928Y-113858187D01*
X184977871Y-114107492D01*
X185118982Y-114338711D01*
X185208253Y-114445981D01*
X185292255Y-114546920D01*
X185493998Y-114727682D01*
X185719910Y-114877144D01*
X185826211Y-114926975D01*
X185965177Y-114992121D01*
X186224562Y-115070158D01*
X186224569Y-115070160D01*
X186492561Y-115109600D01*
X186695631Y-115109600D01*
X186695634Y-115109600D01*
X186898156Y-115094777D01*
X186898155Y-115094777D01*
X187162553Y-115035880D01*
X187415558Y-114939114D01*
X187651777Y-114806541D01*
X187866177Y-114640988D01*
X188054186Y-114445981D01*
X188211799Y-114225679D01*
X188335656Y-113984775D01*
X188423118Y-113728405D01*
X188472319Y-113462033D01*
X188482212Y-113191335D01*
X188452586Y-112922082D01*
X188384072Y-112660012D01*
X188278130Y-112410710D01*
X188137018Y-112179490D01*
X188137017Y-112179488D01*
X187963746Y-111971281D01*
X187858758Y-111877212D01*
X187762002Y-111790518D01*
X187536090Y-111641056D01*
X187534292Y-111640213D01*
X187290822Y-111526078D01*
X187031437Y-111448041D01*
X187031431Y-111448040D01*
X186763439Y-111408600D01*
X186560369Y-111408600D01*
X186560366Y-111408600D01*
X186357843Y-111423422D01*
X186093449Y-111482319D01*
X185840441Y-111579086D01*
X185604223Y-111711659D01*
X185389825Y-111877209D01*
X185201813Y-112072220D01*
X185044201Y-112292520D01*
X184920342Y-112533429D01*
X184832881Y-112789795D01*
X184783680Y-113056166D01*
X184773787Y-113326864D01*
X108486859Y-113326864D01*
X108491812Y-113191335D01*
X108462186Y-112922082D01*
X108393672Y-112660012D01*
X108287730Y-112410710D01*
X108146618Y-112179490D01*
X108146617Y-112179488D01*
X107973346Y-111971281D01*
X107868358Y-111877212D01*
X107771602Y-111790518D01*
X107545690Y-111641056D01*
X107543892Y-111640213D01*
X107300422Y-111526078D01*
X107041037Y-111448041D01*
X107041031Y-111448040D01*
X106773039Y-111408600D01*
X106569969Y-111408600D01*
X106569966Y-111408600D01*
X106367443Y-111423422D01*
X106103049Y-111482319D01*
X105850041Y-111579086D01*
X105613823Y-111711659D01*
X105399425Y-111877209D01*
X105211413Y-112072220D01*
X105053801Y-112292520D01*
X104929942Y-112533429D01*
X104842481Y-112789795D01*
X104793280Y-113056166D01*
X104783387Y-113326864D01*
X500Y-113326864D01*
X500Y-110027964D01*
X1586587Y-110027964D01*
X1616213Y-110297216D01*
X1684728Y-110559287D01*
X1790671Y-110808592D01*
X1931782Y-111039811D01*
X2021053Y-111147081D01*
X2105055Y-111248020D01*
X2306798Y-111428782D01*
X2532710Y-111578244D01*
X2639011Y-111628076D01*
X2777977Y-111693221D01*
X3037362Y-111771258D01*
X3037369Y-111771260D01*
X3305361Y-111810700D01*
X3508431Y-111810700D01*
X3508434Y-111810700D01*
X3710956Y-111795877D01*
X3735013Y-111790518D01*
X3975353Y-111736980D01*
X4228358Y-111640214D01*
X4464577Y-111507641D01*
X4678977Y-111342088D01*
X4866986Y-111147081D01*
X5024599Y-110926779D01*
X5148456Y-110685875D01*
X5235918Y-110429505D01*
X5285119Y-110163133D01*
X5290059Y-110027964D01*
X287639087Y-110027964D01*
X287668713Y-110297216D01*
X287737228Y-110559287D01*
X287843171Y-110808592D01*
X287984282Y-111039811D01*
X288073553Y-111147081D01*
X288157555Y-111248020D01*
X288359298Y-111428782D01*
X288585210Y-111578244D01*
X288691511Y-111628076D01*
X288830477Y-111693221D01*
X289089862Y-111771258D01*
X289089869Y-111771260D01*
X289357861Y-111810700D01*
X289560931Y-111810700D01*
X289560934Y-111810700D01*
X289763456Y-111795877D01*
X289787513Y-111790518D01*
X290027853Y-111736980D01*
X290280858Y-111640214D01*
X290517077Y-111507641D01*
X290731477Y-111342088D01*
X290919486Y-111147081D01*
X291077099Y-110926779D01*
X291200956Y-110685875D01*
X291288418Y-110429505D01*
X291337619Y-110163133D01*
X291347512Y-109892435D01*
X291317886Y-109623182D01*
X291249372Y-109361112D01*
X291143430Y-109111810D01*
X291002318Y-108880590D01*
X291002317Y-108880588D01*
X290829046Y-108672381D01*
X290724058Y-108578312D01*
X290627302Y-108491618D01*
X290401390Y-108342156D01*
X290401386Y-108342154D01*
X290156122Y-108227178D01*
X289896737Y-108149141D01*
X289896731Y-108149140D01*
X289628739Y-108109700D01*
X289425669Y-108109700D01*
X289425666Y-108109700D01*
X289223143Y-108124522D01*
X288958749Y-108183419D01*
X288705741Y-108280186D01*
X288469523Y-108412759D01*
X288255125Y-108578309D01*
X288067113Y-108773320D01*
X287909501Y-108993620D01*
X287785642Y-109234529D01*
X287698181Y-109490895D01*
X287648980Y-109757266D01*
X287639087Y-110027964D01*
X5290059Y-110027964D01*
X5295012Y-109892435D01*
X5265386Y-109623182D01*
X5196872Y-109361112D01*
X5090930Y-109111810D01*
X4949818Y-108880590D01*
X4949817Y-108880588D01*
X4776546Y-108672381D01*
X4671558Y-108578312D01*
X4574802Y-108491618D01*
X4348890Y-108342156D01*
X4348886Y-108342154D01*
X4103622Y-108227178D01*
X3844237Y-108149141D01*
X3844231Y-108149140D01*
X3576239Y-108109700D01*
X3373169Y-108109700D01*
X3373166Y-108109700D01*
X3170643Y-108124522D01*
X2906249Y-108183419D01*
X2653241Y-108280186D01*
X2417023Y-108412759D01*
X2202625Y-108578309D01*
X2014613Y-108773320D01*
X1857001Y-108993620D01*
X1733142Y-109234529D01*
X1645681Y-109490895D01*
X1596480Y-109757266D01*
X1586587Y-110027964D01*
X500Y-110027964D01*
X500Y-100099260D01*
X13257739Y-100099260D01*
X13257780Y-100099359D01*
X13257896Y-100099642D01*
X13257897Y-100099643D01*
X13257898Y-100099644D01*
X13258088Y-100099722D01*
X13258280Y-100099801D01*
X13258282Y-100099799D01*
X13282896Y-100099784D01*
X13282896Y-100099788D01*
X13283040Y-100099760D01*
X13959250Y-100099760D01*
X14021250Y-100116373D01*
X14066637Y-100161760D01*
X14083250Y-100223760D01*
X14083250Y-106344570D01*
X14083209Y-106344776D01*
X14083209Y-106369330D01*
X14083250Y-106369429D01*
X14083367Y-106369713D01*
X14083368Y-106369714D01*
X14083558Y-106369791D01*
X14083750Y-106369871D01*
X14083752Y-106369869D01*
X14108366Y-106369854D01*
X14108366Y-106369858D01*
X14108510Y-106369830D01*
X15684540Y-106369830D01*
X15746540Y-106386443D01*
X15791927Y-106431830D01*
X15808540Y-106493830D01*
X15808540Y-107544840D01*
X15808499Y-107545046D01*
X15808499Y-107569600D01*
X15808540Y-107569699D01*
X15808656Y-107569982D01*
X15808657Y-107569983D01*
X15808658Y-107569984D01*
X15808848Y-107570062D01*
X15809040Y-107570141D01*
X15809042Y-107570139D01*
X15833656Y-107570124D01*
X15833656Y-107570128D01*
X15833800Y-107570100D01*
X19083290Y-107570100D01*
X19083433Y-107570128D01*
X19083434Y-107570124D01*
X19108047Y-107570139D01*
X19108050Y-107570141D01*
X19108433Y-107569983D01*
X19108550Y-107569699D01*
X19108591Y-107569600D01*
X19108591Y-107545046D01*
X19108550Y-107544840D01*
X19108550Y-106493830D01*
X19125163Y-106431830D01*
X19170550Y-106386443D01*
X19232550Y-106369830D01*
X20808590Y-106369830D01*
X20808733Y-106369858D01*
X20808734Y-106369854D01*
X20833347Y-106369869D01*
X20833350Y-106369871D01*
X20833733Y-106369713D01*
X20833850Y-106369429D01*
X20833891Y-106369330D01*
X20833891Y-106344776D01*
X20833850Y-106344570D01*
X20833850Y-102023490D01*
X20850463Y-101961490D01*
X20895850Y-101916103D01*
X20957850Y-101899490D01*
X22234350Y-101899490D01*
X22296350Y-101916103D01*
X22341737Y-101961490D01*
X22358350Y-102023490D01*
X22358350Y-106574700D01*
X22358309Y-106574906D01*
X22358309Y-106599460D01*
X22358350Y-106599559D01*
X22358467Y-106599843D01*
X22358468Y-106599844D01*
X22358658Y-106599922D01*
X22358850Y-106600001D01*
X22358852Y-106599999D01*
X22383466Y-106599984D01*
X22383466Y-106599988D01*
X22383610Y-106599960D01*
X36333590Y-106599960D01*
X36333733Y-106599988D01*
X36333734Y-106599984D01*
X36358347Y-106599999D01*
X36358350Y-106600001D01*
X36358733Y-106599843D01*
X36358850Y-106599559D01*
X36358891Y-106599460D01*
X36358891Y-106574906D01*
X36358850Y-106574700D01*
X36358850Y-102023490D01*
X36375463Y-101961490D01*
X36420850Y-101916103D01*
X36482850Y-101899490D01*
X37759350Y-101899490D01*
X37821350Y-101916103D01*
X37866737Y-101961490D01*
X37883350Y-102023490D01*
X37883350Y-106344570D01*
X37883309Y-106344776D01*
X37883309Y-106369330D01*
X37883350Y-106369429D01*
X37883467Y-106369713D01*
X37883468Y-106369714D01*
X37883658Y-106369791D01*
X37883850Y-106369871D01*
X37883852Y-106369869D01*
X37908466Y-106369854D01*
X37908466Y-106369858D01*
X37908610Y-106369830D01*
X39483250Y-106369830D01*
X39545250Y-106386443D01*
X39590637Y-106431830D01*
X39607250Y-106493830D01*
X39607250Y-107544840D01*
X39607209Y-107545046D01*
X39607209Y-107569600D01*
X39607250Y-107569699D01*
X39607366Y-107569982D01*
X39607367Y-107569983D01*
X39607368Y-107569984D01*
X39607558Y-107570062D01*
X39607750Y-107570141D01*
X39607752Y-107570139D01*
X39632366Y-107570124D01*
X39632366Y-107570128D01*
X39632510Y-107570100D01*
X42883390Y-107570100D01*
X42883533Y-107570128D01*
X42883534Y-107570124D01*
X42908147Y-107570139D01*
X42908150Y-107570141D01*
X42908533Y-107569983D01*
X42908650Y-107569699D01*
X42908691Y-107569600D01*
X42908691Y-107545046D01*
X42908650Y-107544840D01*
X42908650Y-106493830D01*
X42925263Y-106431830D01*
X42970650Y-106386443D01*
X43032650Y-106369830D01*
X44608590Y-106369830D01*
X44608733Y-106369858D01*
X44608734Y-106369854D01*
X44633347Y-106369869D01*
X44633350Y-106369871D01*
X44633733Y-106369713D01*
X44633850Y-106369429D01*
X44633891Y-106369330D01*
X44633891Y-106344776D01*
X44633850Y-106344570D01*
X44633850Y-100223760D01*
X44650463Y-100161760D01*
X44695850Y-100116373D01*
X44757850Y-100099760D01*
X45434090Y-100099760D01*
X45434233Y-100099788D01*
X45434234Y-100099784D01*
X45458847Y-100099799D01*
X45458850Y-100099801D01*
X45459233Y-100099643D01*
X45459350Y-100099359D01*
X45459391Y-100099260D01*
X53739009Y-100099260D01*
X53739050Y-100099359D01*
X53739166Y-100099642D01*
X53739167Y-100099643D01*
X53739168Y-100099644D01*
X53739358Y-100099722D01*
X53739550Y-100099801D01*
X53739552Y-100099799D01*
X53764166Y-100099784D01*
X53764166Y-100099788D01*
X53764310Y-100099760D01*
X54440550Y-100099760D01*
X54502550Y-100116373D01*
X54547937Y-100161760D01*
X54564550Y-100223760D01*
X54564550Y-106344570D01*
X54564509Y-106344776D01*
X54564509Y-106369330D01*
X54564550Y-106369429D01*
X54564667Y-106369713D01*
X54564668Y-106369714D01*
X54564858Y-106369791D01*
X54565050Y-106369871D01*
X54565052Y-106369869D01*
X54589666Y-106369854D01*
X54589666Y-106369858D01*
X54589810Y-106369830D01*
X56164250Y-106369830D01*
X56226250Y-106386443D01*
X56271637Y-106431830D01*
X56288250Y-106493830D01*
X56288250Y-107544840D01*
X56288209Y-107545046D01*
X56288209Y-107569600D01*
X56288250Y-107569699D01*
X56288366Y-107569982D01*
X56288367Y-107569983D01*
X56288368Y-107569984D01*
X56288558Y-107570062D01*
X56288750Y-107570141D01*
X56288752Y-107570139D01*
X56313366Y-107570124D01*
X56313366Y-107570128D01*
X56313510Y-107570100D01*
X59564590Y-107570100D01*
X59564733Y-107570128D01*
X59564734Y-107570124D01*
X59589347Y-107570139D01*
X59589350Y-107570141D01*
X59589733Y-107569983D01*
X59589850Y-107569699D01*
X59589891Y-107569600D01*
X59589891Y-107545046D01*
X59589850Y-107544840D01*
X59589850Y-106493830D01*
X59606463Y-106431830D01*
X59651850Y-106386443D01*
X59713850Y-106369830D01*
X61289990Y-106369830D01*
X61290133Y-106369858D01*
X61290134Y-106369854D01*
X61314747Y-106369869D01*
X61314750Y-106369871D01*
X61315133Y-106369713D01*
X61315250Y-106369429D01*
X61315291Y-106369330D01*
X61315291Y-106344776D01*
X61315250Y-106344570D01*
X61315250Y-102023490D01*
X61331863Y-101961490D01*
X61377250Y-101916103D01*
X61439250Y-101899490D01*
X62715650Y-101899490D01*
X62777650Y-101916103D01*
X62823037Y-101961490D01*
X62839650Y-102023490D01*
X62839650Y-106574700D01*
X62839609Y-106574906D01*
X62839609Y-106599460D01*
X62839650Y-106599559D01*
X62839767Y-106599843D01*
X62839768Y-106599844D01*
X62839958Y-106599922D01*
X62840150Y-106600001D01*
X62840152Y-106599999D01*
X62864766Y-106599984D01*
X62864766Y-106599988D01*
X62864910Y-106599960D01*
X76814690Y-106599960D01*
X76814833Y-106599988D01*
X76814834Y-106599984D01*
X76839447Y-106599999D01*
X76839450Y-106600001D01*
X76839833Y-106599843D01*
X76839950Y-106599559D01*
X76839991Y-106599460D01*
X76839991Y-106574906D01*
X76839950Y-106574700D01*
X76839950Y-102023490D01*
X76856563Y-101961490D01*
X76901950Y-101916103D01*
X76963950Y-101899490D01*
X78240750Y-101899490D01*
X78302750Y-101916103D01*
X78348137Y-101961490D01*
X78364750Y-102023490D01*
X78364750Y-106344570D01*
X78364709Y-106344776D01*
X78364709Y-106369330D01*
X78364750Y-106369429D01*
X78364867Y-106369713D01*
X78364868Y-106369714D01*
X78365058Y-106369791D01*
X78365250Y-106369871D01*
X78365252Y-106369869D01*
X78389866Y-106369854D01*
X78389866Y-106369858D01*
X78390010Y-106369830D01*
X79964350Y-106369830D01*
X80026350Y-106386443D01*
X80071737Y-106431830D01*
X80088350Y-106493830D01*
X80088350Y-107544840D01*
X80088309Y-107545046D01*
X80088309Y-107569600D01*
X80088350Y-107569699D01*
X80088466Y-107569982D01*
X80088467Y-107569983D01*
X80088468Y-107569984D01*
X80088658Y-107570062D01*
X80088850Y-107570141D01*
X80088852Y-107570139D01*
X80113466Y-107570124D01*
X80113466Y-107570128D01*
X80113610Y-107570100D01*
X83364690Y-107570100D01*
X83364833Y-107570128D01*
X83364834Y-107570124D01*
X83389447Y-107570139D01*
X83389450Y-107570141D01*
X83389833Y-107569983D01*
X83389950Y-107569699D01*
X83389991Y-107569600D01*
X83389991Y-107545046D01*
X83389950Y-107544840D01*
X83389950Y-106493830D01*
X83406563Y-106431830D01*
X83451950Y-106386443D01*
X83513950Y-106369830D01*
X85089790Y-106369830D01*
X85089933Y-106369858D01*
X85089934Y-106369854D01*
X85114547Y-106369869D01*
X85114550Y-106369871D01*
X85114933Y-106369713D01*
X85115050Y-106369429D01*
X85115091Y-106369330D01*
X85115091Y-106344776D01*
X85115050Y-106344570D01*
X85115050Y-100223760D01*
X85131663Y-100161760D01*
X85177050Y-100116373D01*
X85239050Y-100099760D01*
X85913890Y-100099760D01*
X85914033Y-100099788D01*
X85914034Y-100099784D01*
X85938647Y-100099799D01*
X85938650Y-100099801D01*
X85939033Y-100099643D01*
X85939150Y-100099359D01*
X85939191Y-100099260D01*
X94220309Y-100099260D01*
X94220350Y-100099359D01*
X94220466Y-100099642D01*
X94220467Y-100099643D01*
X94220468Y-100099644D01*
X94220658Y-100099722D01*
X94220850Y-100099801D01*
X94220852Y-100099799D01*
X94245466Y-100099784D01*
X94245466Y-100099788D01*
X94245610Y-100099760D01*
X94920450Y-100099760D01*
X94982450Y-100116373D01*
X95027837Y-100161760D01*
X95044450Y-100223760D01*
X95044450Y-106344570D01*
X95044409Y-106344776D01*
X95044409Y-106369330D01*
X95044450Y-106369429D01*
X95044567Y-106369713D01*
X95044568Y-106369714D01*
X95044758Y-106369791D01*
X95044950Y-106369871D01*
X95044952Y-106369869D01*
X95069566Y-106369854D01*
X95069566Y-106369858D01*
X95069710Y-106369830D01*
X96645450Y-106369830D01*
X96707450Y-106386443D01*
X96752837Y-106431830D01*
X96769450Y-106493830D01*
X96769450Y-107544840D01*
X96769409Y-107545046D01*
X96769409Y-107569600D01*
X96769450Y-107569699D01*
X96769566Y-107569982D01*
X96769567Y-107569983D01*
X96769568Y-107569984D01*
X96769758Y-107570062D01*
X96769950Y-107570141D01*
X96769952Y-107570139D01*
X96794566Y-107570124D01*
X96794566Y-107570128D01*
X96794710Y-107570100D01*
X100045790Y-107570100D01*
X100045933Y-107570128D01*
X100045934Y-107570124D01*
X100070547Y-107570139D01*
X100070550Y-107570141D01*
X100070933Y-107569983D01*
X100071050Y-107569699D01*
X100071091Y-107569600D01*
X100071091Y-107545046D01*
X100071050Y-107544840D01*
X100071050Y-106493830D01*
X100087663Y-106431830D01*
X100133050Y-106386443D01*
X100195050Y-106369830D01*
X101771290Y-106369830D01*
X101771433Y-106369858D01*
X101771434Y-106369854D01*
X101796047Y-106369869D01*
X101796050Y-106369871D01*
X101796433Y-106369713D01*
X101796550Y-106369429D01*
X101796591Y-106369330D01*
X101796591Y-106344776D01*
X101796550Y-106344570D01*
X101796550Y-102023490D01*
X101813163Y-101961490D01*
X101858550Y-101916103D01*
X101920550Y-101899490D01*
X141295450Y-101899490D01*
X141357450Y-101916103D01*
X141402837Y-101961490D01*
X141419450Y-102023490D01*
X141419450Y-106574700D01*
X141419409Y-106574906D01*
X141419409Y-106599460D01*
X141419450Y-106599559D01*
X141419567Y-106599843D01*
X141419568Y-106599844D01*
X141419758Y-106599922D01*
X141419950Y-106600001D01*
X141419952Y-106599999D01*
X141444566Y-106599984D01*
X141444566Y-106599988D01*
X141444710Y-106599960D01*
X155396190Y-106599960D01*
X155396333Y-106599988D01*
X155396334Y-106599984D01*
X155420947Y-106599999D01*
X155420950Y-106600001D01*
X155421333Y-106599843D01*
X155421450Y-106599559D01*
X155421491Y-106599460D01*
X155421491Y-106574906D01*
X155421450Y-106574700D01*
X155421450Y-102023490D01*
X155438063Y-101961490D01*
X155483450Y-101916103D01*
X155545450Y-101899490D01*
X194920450Y-101899490D01*
X194982450Y-101916103D01*
X195027837Y-101961490D01*
X195044450Y-102023490D01*
X195044450Y-106344570D01*
X195044409Y-106344776D01*
X195044409Y-106369330D01*
X195044450Y-106369429D01*
X195044566Y-106369712D01*
X195044567Y-106369713D01*
X195044568Y-106369714D01*
X195044758Y-106369791D01*
X195044950Y-106369871D01*
X195044952Y-106369869D01*
X195069566Y-106369854D01*
X195069566Y-106369858D01*
X195069710Y-106369830D01*
X196645450Y-106369830D01*
X196707450Y-106386443D01*
X196752837Y-106431830D01*
X196769450Y-106493830D01*
X196769450Y-107544840D01*
X196769409Y-107545046D01*
X196769409Y-107569600D01*
X196769450Y-107569699D01*
X196769566Y-107569982D01*
X196769567Y-107569983D01*
X196769568Y-107569984D01*
X196769758Y-107570062D01*
X196769950Y-107570141D01*
X196769952Y-107570139D01*
X196794566Y-107570124D01*
X196794566Y-107570128D01*
X196794710Y-107570100D01*
X200046190Y-107570100D01*
X200046333Y-107570128D01*
X200046334Y-107570124D01*
X200070947Y-107570139D01*
X200070950Y-107570141D01*
X200071333Y-107569983D01*
X200071450Y-107569699D01*
X200071491Y-107569600D01*
X200071491Y-107545046D01*
X200071450Y-107544840D01*
X200071450Y-106599460D01*
X210477409Y-106599460D01*
X210477450Y-106599559D01*
X210477567Y-106599843D01*
X210477568Y-106599844D01*
X210477758Y-106599922D01*
X210477950Y-106600001D01*
X210477952Y-106599999D01*
X210502566Y-106599984D01*
X210502566Y-106599988D01*
X210502710Y-106599960D01*
X224452190Y-106599960D01*
X224452333Y-106599988D01*
X224452334Y-106599984D01*
X224476947Y-106599999D01*
X224476950Y-106600001D01*
X224477333Y-106599843D01*
X224477450Y-106599559D01*
X224477491Y-106599460D01*
X229527409Y-106599460D01*
X229527450Y-106599559D01*
X229527567Y-106599843D01*
X229527568Y-106599844D01*
X229527758Y-106599922D01*
X229527950Y-106600001D01*
X229527952Y-106599999D01*
X229552566Y-106599984D01*
X229552566Y-106599988D01*
X229552710Y-106599960D01*
X243502190Y-106599960D01*
X243502333Y-106599988D01*
X243502334Y-106599984D01*
X243526947Y-106599999D01*
X243526950Y-106600001D01*
X243527333Y-106599843D01*
X243527450Y-106599559D01*
X243527491Y-106599460D01*
X248577409Y-106599460D01*
X248577450Y-106599559D01*
X248577567Y-106599843D01*
X248577568Y-106599844D01*
X248577758Y-106599922D01*
X248577950Y-106600001D01*
X248577952Y-106599999D01*
X248602566Y-106599984D01*
X248602566Y-106599988D01*
X248602710Y-106599960D01*
X262552190Y-106599960D01*
X262552333Y-106599988D01*
X262552334Y-106599984D01*
X262576947Y-106599999D01*
X262576950Y-106600001D01*
X262577333Y-106599843D01*
X262577450Y-106599559D01*
X262577491Y-106599460D01*
X267627409Y-106599460D01*
X267627450Y-106599559D01*
X267627567Y-106599843D01*
X267627568Y-106599844D01*
X267627758Y-106599922D01*
X267627950Y-106600001D01*
X267627952Y-106599999D01*
X267652566Y-106599984D01*
X267652566Y-106599988D01*
X267652710Y-106599960D01*
X281602190Y-106599960D01*
X281602333Y-106599988D01*
X281602334Y-106599984D01*
X281626947Y-106599999D01*
X281626950Y-106600001D01*
X281627333Y-106599843D01*
X281627450Y-106599559D01*
X281627491Y-106599460D01*
X281627491Y-106574906D01*
X281627450Y-106574700D01*
X281627450Y-92624760D01*
X281627478Y-92624616D01*
X281627474Y-92624616D01*
X281627489Y-92600002D01*
X281627491Y-92600000D01*
X281627411Y-92599808D01*
X281627334Y-92599618D01*
X281627330Y-92599614D01*
X281627144Y-92599538D01*
X281626952Y-92599459D01*
X281602396Y-92599459D01*
X281602190Y-92599500D01*
X267652710Y-92599500D01*
X267652504Y-92599459D01*
X267627948Y-92599459D01*
X267627757Y-92599538D01*
X267627569Y-92599615D01*
X267627565Y-92599618D01*
X267627409Y-92599999D01*
X267627426Y-92624616D01*
X267627421Y-92624616D01*
X267627450Y-92624760D01*
X267627450Y-106574700D01*
X267627409Y-106574906D01*
X267627409Y-106599460D01*
X262577491Y-106599460D01*
X262577491Y-106574906D01*
X262577450Y-106574700D01*
X262577450Y-92624760D01*
X262577478Y-92624616D01*
X262577474Y-92624616D01*
X262577489Y-92600002D01*
X262577491Y-92600000D01*
X262577411Y-92599808D01*
X262577334Y-92599618D01*
X262577330Y-92599614D01*
X262577144Y-92599538D01*
X262576952Y-92599459D01*
X262552396Y-92599459D01*
X262552190Y-92599500D01*
X248602710Y-92599500D01*
X248602504Y-92599459D01*
X248577948Y-92599459D01*
X248577757Y-92599538D01*
X248577569Y-92599615D01*
X248577565Y-92599618D01*
X248577409Y-92599999D01*
X248577426Y-92624616D01*
X248577421Y-92624616D01*
X248577450Y-92624760D01*
X248577450Y-106574700D01*
X248577409Y-106574906D01*
X248577409Y-106599460D01*
X243527491Y-106599460D01*
X243527491Y-106574906D01*
X243527450Y-106574700D01*
X243527450Y-92624760D01*
X243527478Y-92624616D01*
X243527474Y-92624616D01*
X243527489Y-92600002D01*
X243527491Y-92600000D01*
X243527411Y-92599808D01*
X243527334Y-92599618D01*
X243527330Y-92599614D01*
X243527144Y-92599538D01*
X243526952Y-92599459D01*
X243502396Y-92599459D01*
X243502190Y-92599500D01*
X229552710Y-92599500D01*
X229552504Y-92599459D01*
X229527948Y-92599459D01*
X229527757Y-92599538D01*
X229527569Y-92599615D01*
X229527565Y-92599618D01*
X229527409Y-92599999D01*
X229527426Y-92624616D01*
X229527421Y-92624616D01*
X229527450Y-92624760D01*
X229527450Y-106574700D01*
X229527409Y-106574906D01*
X229527409Y-106599460D01*
X224477491Y-106599460D01*
X224477491Y-106574906D01*
X224477450Y-106574700D01*
X224477450Y-92624760D01*
X224477478Y-92624616D01*
X224477474Y-92624616D01*
X224477489Y-92600002D01*
X224477491Y-92600000D01*
X224477411Y-92599808D01*
X224477334Y-92599618D01*
X224477330Y-92599614D01*
X224477144Y-92599538D01*
X224476952Y-92599459D01*
X224452396Y-92599459D01*
X224452190Y-92599500D01*
X210502710Y-92599500D01*
X210502504Y-92599459D01*
X210477948Y-92599459D01*
X210477757Y-92599538D01*
X210477569Y-92599615D01*
X210477565Y-92599618D01*
X210477409Y-92599999D01*
X210477426Y-92624616D01*
X210477421Y-92624616D01*
X210477450Y-92624760D01*
X210477450Y-106574700D01*
X210477409Y-106574906D01*
X210477409Y-106599460D01*
X200071450Y-106599460D01*
X200071450Y-106493830D01*
X200088063Y-106431830D01*
X200133450Y-106386443D01*
X200195450Y-106369830D01*
X201771190Y-106369830D01*
X201771333Y-106369858D01*
X201771334Y-106369854D01*
X201795947Y-106369869D01*
X201795950Y-106369871D01*
X201796333Y-106369713D01*
X201796450Y-106369429D01*
X201796491Y-106369330D01*
X201796491Y-106344776D01*
X201796450Y-106344570D01*
X201796450Y-100223760D01*
X201813063Y-100161760D01*
X201858450Y-100116373D01*
X201920450Y-100099760D01*
X202595190Y-100099760D01*
X202595333Y-100099788D01*
X202595334Y-100099784D01*
X202619947Y-100099799D01*
X202619950Y-100099801D01*
X202620333Y-100099643D01*
X202620450Y-100099359D01*
X202620491Y-100099260D01*
X202620491Y-100074706D01*
X202620450Y-100074500D01*
X202620450Y-97325260D01*
X202620478Y-97325116D01*
X202620474Y-97325116D01*
X202620489Y-97300502D01*
X202620491Y-97300500D01*
X202620412Y-97300308D01*
X202620334Y-97300118D01*
X202620330Y-97300114D01*
X202620144Y-97300038D01*
X202619952Y-97299959D01*
X202595396Y-97299959D01*
X202595190Y-97300000D01*
X201920450Y-97300000D01*
X201858450Y-97283387D01*
X201813063Y-97238000D01*
X201796450Y-97176000D01*
X201796450Y-94095060D01*
X201796478Y-94094916D01*
X201796474Y-94094916D01*
X201796489Y-94070302D01*
X201796491Y-94070300D01*
X201796412Y-94070108D01*
X201796334Y-94069918D01*
X201796330Y-94069914D01*
X201796144Y-94069838D01*
X201795952Y-94069759D01*
X201771396Y-94069759D01*
X201771190Y-94069800D01*
X195069710Y-94069800D01*
X195069504Y-94069759D01*
X195044948Y-94069759D01*
X195044757Y-94069838D01*
X195044569Y-94069915D01*
X195044565Y-94069918D01*
X195044409Y-94070299D01*
X195044426Y-94094916D01*
X195044421Y-94094916D01*
X195044450Y-94095060D01*
X195044450Y-97176000D01*
X195027837Y-97238000D01*
X194982450Y-97283387D01*
X194920450Y-97300000D01*
X155545450Y-97300000D01*
X155483450Y-97283387D01*
X155438063Y-97238000D01*
X155421450Y-97176000D01*
X155421450Y-92624760D01*
X155421478Y-92624616D01*
X155421474Y-92624616D01*
X155421489Y-92600002D01*
X155421491Y-92600000D01*
X155421412Y-92599808D01*
X155421334Y-92599618D01*
X155421330Y-92599614D01*
X155421144Y-92599538D01*
X155420952Y-92599459D01*
X155396396Y-92599459D01*
X155396190Y-92599500D01*
X141444710Y-92599500D01*
X141444504Y-92599459D01*
X141419948Y-92599459D01*
X141419757Y-92599538D01*
X141419569Y-92599615D01*
X141419565Y-92599618D01*
X141419409Y-92599999D01*
X141419426Y-92624616D01*
X141419421Y-92624616D01*
X141419450Y-92624760D01*
X141419450Y-97176000D01*
X141402837Y-97238000D01*
X141357450Y-97283387D01*
X141295450Y-97300000D01*
X101920550Y-97300000D01*
X101858550Y-97283387D01*
X101813163Y-97238000D01*
X101796550Y-97176000D01*
X101796550Y-94095060D01*
X101796578Y-94094916D01*
X101796574Y-94094916D01*
X101796589Y-94070302D01*
X101796591Y-94070300D01*
X101796512Y-94070108D01*
X101796434Y-94069918D01*
X101796430Y-94069914D01*
X101796244Y-94069838D01*
X101796052Y-94069759D01*
X101771496Y-94069759D01*
X101771290Y-94069800D01*
X95069710Y-94069800D01*
X95069504Y-94069759D01*
X95044948Y-94069759D01*
X95044757Y-94069838D01*
X95044569Y-94069915D01*
X95044565Y-94069918D01*
X95044409Y-94070299D01*
X95044426Y-94094916D01*
X95044421Y-94094916D01*
X95044450Y-94095060D01*
X95044450Y-97176000D01*
X95027837Y-97238000D01*
X94982450Y-97283387D01*
X94920450Y-97300000D01*
X94245610Y-97300000D01*
X94245404Y-97299959D01*
X94220848Y-97299959D01*
X94220657Y-97300038D01*
X94220469Y-97300115D01*
X94220465Y-97300118D01*
X94220309Y-97300499D01*
X94220326Y-97325116D01*
X94220321Y-97325116D01*
X94220350Y-97325260D01*
X94220350Y-100074500D01*
X94220309Y-100074706D01*
X94220309Y-100099260D01*
X85939191Y-100099260D01*
X85939191Y-100074706D01*
X85939150Y-100074500D01*
X85939150Y-97325260D01*
X85939178Y-97325116D01*
X85939174Y-97325116D01*
X85939189Y-97300502D01*
X85939191Y-97300500D01*
X85939112Y-97300308D01*
X85939034Y-97300118D01*
X85939030Y-97300114D01*
X85938844Y-97300038D01*
X85938652Y-97299959D01*
X85914096Y-97299959D01*
X85913890Y-97300000D01*
X85239050Y-97300000D01*
X85177050Y-97283387D01*
X85131663Y-97238000D01*
X85115050Y-97176000D01*
X85115050Y-94095060D01*
X85115078Y-94094916D01*
X85115074Y-94094916D01*
X85115089Y-94070302D01*
X85115091Y-94070300D01*
X85115012Y-94070108D01*
X85114934Y-94069918D01*
X85114930Y-94069914D01*
X85114744Y-94069838D01*
X85114552Y-94069759D01*
X85089996Y-94069759D01*
X85089790Y-94069800D01*
X78390010Y-94069800D01*
X78389804Y-94069759D01*
X78365248Y-94069759D01*
X78365057Y-94069838D01*
X78364869Y-94069915D01*
X78364865Y-94069918D01*
X78364709Y-94070299D01*
X78364726Y-94094916D01*
X78364721Y-94094916D01*
X78364750Y-94095060D01*
X78364750Y-97176000D01*
X78348137Y-97238000D01*
X78302750Y-97283387D01*
X78240750Y-97300000D01*
X76963950Y-97300000D01*
X76901950Y-97283387D01*
X76856563Y-97238000D01*
X76839950Y-97176000D01*
X76839950Y-92624760D01*
X76839978Y-92624616D01*
X76839974Y-92624616D01*
X76839989Y-92600002D01*
X76839991Y-92600000D01*
X76839911Y-92599808D01*
X76839834Y-92599618D01*
X76839830Y-92599614D01*
X76839644Y-92599538D01*
X76839452Y-92599459D01*
X76814896Y-92599459D01*
X76814690Y-92599500D01*
X62864910Y-92599500D01*
X62864704Y-92599459D01*
X62840148Y-92599459D01*
X62839957Y-92599538D01*
X62839769Y-92599615D01*
X62839765Y-92599618D01*
X62839609Y-92599999D01*
X62839626Y-92624616D01*
X62839621Y-92624616D01*
X62839650Y-92624760D01*
X62839650Y-97176000D01*
X62823037Y-97238000D01*
X62777650Y-97283387D01*
X62715650Y-97300000D01*
X61439250Y-97300000D01*
X61377250Y-97283387D01*
X61331863Y-97238000D01*
X61315250Y-97176000D01*
X61315250Y-94095060D01*
X61315278Y-94094916D01*
X61315274Y-94094916D01*
X61315289Y-94070302D01*
X61315291Y-94070300D01*
X61315212Y-94070108D01*
X61315134Y-94069918D01*
X61315130Y-94069914D01*
X61314944Y-94069838D01*
X61314752Y-94069759D01*
X61290196Y-94069759D01*
X61289990Y-94069800D01*
X54589810Y-94069800D01*
X54589604Y-94069759D01*
X54565048Y-94069759D01*
X54564857Y-94069838D01*
X54564669Y-94069915D01*
X54564665Y-94069918D01*
X54564509Y-94070299D01*
X54564526Y-94094916D01*
X54564521Y-94094916D01*
X54564550Y-94095060D01*
X54564550Y-97176000D01*
X54547937Y-97238000D01*
X54502550Y-97283387D01*
X54440550Y-97300000D01*
X53764310Y-97300000D01*
X53764104Y-97299959D01*
X53739548Y-97299959D01*
X53739357Y-97300038D01*
X53739169Y-97300115D01*
X53739165Y-97300118D01*
X53739009Y-97300499D01*
X53739026Y-97325116D01*
X53739021Y-97325116D01*
X53739050Y-97325260D01*
X53739050Y-100074500D01*
X53739009Y-100074706D01*
X53739009Y-100099260D01*
X45459391Y-100099260D01*
X45459391Y-100074706D01*
X45459350Y-100074500D01*
X45459350Y-97325260D01*
X45459378Y-97325116D01*
X45459374Y-97325116D01*
X45459389Y-97300502D01*
X45459391Y-97300500D01*
X45459312Y-97300308D01*
X45459234Y-97300118D01*
X45459230Y-97300114D01*
X45459044Y-97300038D01*
X45458852Y-97299959D01*
X45434296Y-97299959D01*
X45434090Y-97300000D01*
X44757850Y-97300000D01*
X44695850Y-97283387D01*
X44650463Y-97238000D01*
X44633850Y-97176000D01*
X44633850Y-94095060D01*
X44633878Y-94094916D01*
X44633874Y-94094916D01*
X44633889Y-94070302D01*
X44633891Y-94070300D01*
X44633812Y-94070108D01*
X44633734Y-94069918D01*
X44633730Y-94069914D01*
X44633544Y-94069838D01*
X44633352Y-94069759D01*
X44608796Y-94069759D01*
X44608590Y-94069800D01*
X37908610Y-94069800D01*
X37908404Y-94069759D01*
X37883848Y-94069759D01*
X37883657Y-94069838D01*
X37883469Y-94069915D01*
X37883465Y-94069918D01*
X37883309Y-94070299D01*
X37883326Y-94094916D01*
X37883321Y-94094916D01*
X37883350Y-94095060D01*
X37883350Y-97176000D01*
X37866737Y-97238000D01*
X37821350Y-97283387D01*
X37759350Y-97300000D01*
X36482850Y-97300000D01*
X36420850Y-97283387D01*
X36375463Y-97238000D01*
X36358850Y-97176000D01*
X36358850Y-92624760D01*
X36358878Y-92624616D01*
X36358874Y-92624616D01*
X36358889Y-92600002D01*
X36358891Y-92600000D01*
X36358811Y-92599808D01*
X36358734Y-92599618D01*
X36358730Y-92599614D01*
X36358544Y-92599538D01*
X36358352Y-92599459D01*
X36333796Y-92599459D01*
X36333590Y-92599500D01*
X22383610Y-92599500D01*
X22383404Y-92599459D01*
X22358848Y-92599459D01*
X22358657Y-92599538D01*
X22358469Y-92599615D01*
X22358465Y-92599618D01*
X22358309Y-92599999D01*
X22358326Y-92624616D01*
X22358321Y-92624616D01*
X22358350Y-92624760D01*
X22358350Y-97176000D01*
X22341737Y-97238000D01*
X22296350Y-97283387D01*
X22234350Y-97300000D01*
X20957850Y-97300000D01*
X20895850Y-97283387D01*
X20850463Y-97238000D01*
X20833850Y-97176000D01*
X20833850Y-94095060D01*
X20833878Y-94094916D01*
X20833874Y-94094916D01*
X20833889Y-94070302D01*
X20833891Y-94070300D01*
X20833812Y-94070108D01*
X20833734Y-94069918D01*
X20833730Y-94069914D01*
X20833544Y-94069838D01*
X20833352Y-94069759D01*
X20808796Y-94069759D01*
X20808590Y-94069800D01*
X14108510Y-94069800D01*
X14108304Y-94069759D01*
X14083748Y-94069759D01*
X14083557Y-94069838D01*
X14083369Y-94069915D01*
X14083365Y-94069918D01*
X14083209Y-94070299D01*
X14083226Y-94094916D01*
X14083221Y-94094916D01*
X14083250Y-94095060D01*
X14083250Y-97176000D01*
X14066637Y-97238000D01*
X14021250Y-97283387D01*
X13959250Y-97300000D01*
X13283040Y-97300000D01*
X13282834Y-97299959D01*
X13258278Y-97299959D01*
X13258087Y-97300038D01*
X13257899Y-97300115D01*
X13257895Y-97300118D01*
X13257739Y-97300499D01*
X13257756Y-97325116D01*
X13257751Y-97325116D01*
X13257780Y-97325260D01*
X13257780Y-100074500D01*
X13257739Y-100074706D01*
X13257739Y-100099260D01*
X500Y-100099260D01*
X500Y-87549500D01*
X15214569Y-87549500D01*
X15214610Y-87549599D01*
X15214726Y-87549882D01*
X15214727Y-87549883D01*
X15214728Y-87549884D01*
X15214918Y-87549961D01*
X15215110Y-87550041D01*
X15215112Y-87550039D01*
X15239726Y-87550024D01*
X15239726Y-87550028D01*
X15239870Y-87550000D01*
X29189890Y-87550000D01*
X29190033Y-87550028D01*
X29190034Y-87550024D01*
X29214647Y-87550039D01*
X29214650Y-87550041D01*
X29215033Y-87549883D01*
X29215150Y-87549599D01*
X29215191Y-87549500D01*
X39027109Y-87549500D01*
X39027150Y-87549599D01*
X39027266Y-87549882D01*
X39027267Y-87549883D01*
X39027268Y-87549884D01*
X39027458Y-87549961D01*
X39027650Y-87550041D01*
X39027652Y-87550039D01*
X39052266Y-87550024D01*
X39052266Y-87550028D01*
X39052410Y-87550000D01*
X53002190Y-87550000D01*
X53002333Y-87550028D01*
X53002334Y-87550024D01*
X53026947Y-87550039D01*
X53026950Y-87550041D01*
X53027333Y-87549883D01*
X53027450Y-87549599D01*
X53027491Y-87549500D01*
X58077109Y-87549500D01*
X58077150Y-87549599D01*
X58077266Y-87549882D01*
X58077267Y-87549883D01*
X58077268Y-87549884D01*
X58077458Y-87549961D01*
X58077650Y-87550041D01*
X58077652Y-87550039D01*
X58102266Y-87550024D01*
X58102266Y-87550028D01*
X58102410Y-87550000D01*
X72052190Y-87550000D01*
X72052333Y-87550028D01*
X72052334Y-87550024D01*
X72076947Y-87550039D01*
X72076950Y-87550041D01*
X72077333Y-87549883D01*
X72077450Y-87549599D01*
X72077491Y-87549500D01*
X77127109Y-87549500D01*
X77127150Y-87549599D01*
X77127266Y-87549882D01*
X77127267Y-87549883D01*
X77127268Y-87549884D01*
X77127458Y-87549961D01*
X77127650Y-87550041D01*
X77127652Y-87550039D01*
X77152266Y-87550024D01*
X77152266Y-87550028D01*
X77152410Y-87550000D01*
X91102190Y-87550000D01*
X91102333Y-87550028D01*
X91102334Y-87550024D01*
X91126947Y-87550039D01*
X91126950Y-87550041D01*
X91127333Y-87549883D01*
X91127450Y-87549599D01*
X91127491Y-87549500D01*
X96177109Y-87549500D01*
X96177150Y-87549599D01*
X96177266Y-87549882D01*
X96177267Y-87549883D01*
X96177268Y-87549884D01*
X96177458Y-87549961D01*
X96177650Y-87550041D01*
X96177652Y-87550039D01*
X96202266Y-87550024D01*
X96202266Y-87550028D01*
X96202410Y-87550000D01*
X110152190Y-87550000D01*
X110152333Y-87550028D01*
X110152334Y-87550024D01*
X110176947Y-87550039D01*
X110176950Y-87550041D01*
X110177333Y-87549883D01*
X110177450Y-87549599D01*
X110177491Y-87549500D01*
X115227409Y-87549500D01*
X115227450Y-87549599D01*
X115227567Y-87549883D01*
X115227568Y-87549884D01*
X115227758Y-87549961D01*
X115227950Y-87550041D01*
X115227952Y-87550039D01*
X115252566Y-87550024D01*
X115252566Y-87550028D01*
X115252710Y-87550000D01*
X129202190Y-87550000D01*
X129202333Y-87550028D01*
X129202334Y-87550024D01*
X129226947Y-87550039D01*
X129226950Y-87550041D01*
X129227333Y-87549883D01*
X129227450Y-87549599D01*
X129227491Y-87549500D01*
X134277409Y-87549500D01*
X134277450Y-87549599D01*
X134277567Y-87549883D01*
X134277568Y-87549884D01*
X134277758Y-87549961D01*
X134277950Y-87550041D01*
X134277952Y-87550039D01*
X134302566Y-87550024D01*
X134302566Y-87550028D01*
X134302710Y-87550000D01*
X148252190Y-87550000D01*
X148252333Y-87550028D01*
X148252334Y-87550024D01*
X148276947Y-87550039D01*
X148276950Y-87550041D01*
X148277333Y-87549883D01*
X148277450Y-87549599D01*
X148277491Y-87549500D01*
X153327409Y-87549500D01*
X153327450Y-87549599D01*
X153327567Y-87549883D01*
X153327568Y-87549884D01*
X153327758Y-87549961D01*
X153327950Y-87550041D01*
X153327952Y-87550039D01*
X153352566Y-87550024D01*
X153352566Y-87550028D01*
X153352710Y-87550000D01*
X167302190Y-87550000D01*
X167302333Y-87550028D01*
X167302334Y-87550024D01*
X167326947Y-87550039D01*
X167326950Y-87550041D01*
X167327333Y-87549883D01*
X167327450Y-87549599D01*
X167327491Y-87549500D01*
X172377409Y-87549500D01*
X172377450Y-87549599D01*
X172377567Y-87549883D01*
X172377568Y-87549884D01*
X172377758Y-87549961D01*
X172377950Y-87550041D01*
X172377952Y-87550039D01*
X172402566Y-87550024D01*
X172402566Y-87550028D01*
X172402710Y-87550000D01*
X186352190Y-87550000D01*
X186352333Y-87550028D01*
X186352334Y-87550024D01*
X186376947Y-87550039D01*
X186376950Y-87550041D01*
X186377333Y-87549883D01*
X186377450Y-87549599D01*
X186377491Y-87549500D01*
X191427409Y-87549500D01*
X191427450Y-87549599D01*
X191427567Y-87549883D01*
X191427568Y-87549884D01*
X191427758Y-87549961D01*
X191427950Y-87550041D01*
X191427952Y-87550039D01*
X191452566Y-87550024D01*
X191452566Y-87550028D01*
X191452710Y-87550000D01*
X205402190Y-87550000D01*
X205402333Y-87550028D01*
X205402334Y-87550024D01*
X205426947Y-87550039D01*
X205426950Y-87550041D01*
X205427333Y-87549883D01*
X205427450Y-87549599D01*
X205427491Y-87549500D01*
X210477409Y-87549500D01*
X210477450Y-87549599D01*
X210477567Y-87549883D01*
X210477568Y-87549884D01*
X210477758Y-87549961D01*
X210477950Y-87550041D01*
X210477952Y-87550039D01*
X210502566Y-87550024D01*
X210502566Y-87550028D01*
X210502710Y-87550000D01*
X224452190Y-87550000D01*
X224452333Y-87550028D01*
X224452334Y-87550024D01*
X224476947Y-87550039D01*
X224476950Y-87550041D01*
X224477333Y-87549883D01*
X224477450Y-87549599D01*
X224477491Y-87549500D01*
X229527409Y-87549500D01*
X229527450Y-87549599D01*
X229527567Y-87549883D01*
X229527568Y-87549884D01*
X229527758Y-87549961D01*
X229527950Y-87550041D01*
X229527952Y-87550039D01*
X229552566Y-87550024D01*
X229552566Y-87550028D01*
X229552710Y-87550000D01*
X243502190Y-87550000D01*
X243502333Y-87550028D01*
X243502334Y-87550024D01*
X243526947Y-87550039D01*
X243526950Y-87550041D01*
X243527333Y-87549883D01*
X243527450Y-87549599D01*
X243527491Y-87549500D01*
X243527491Y-87524946D01*
X243527450Y-87524740D01*
X243527450Y-81049300D01*
X249001409Y-81049300D01*
X249001450Y-81049399D01*
X249001566Y-81049682D01*
X249001567Y-81049683D01*
X249001568Y-81049684D01*
X249001758Y-81049761D01*
X249001950Y-81049841D01*
X249001952Y-81049839D01*
X249026566Y-81049824D01*
X249026566Y-81049828D01*
X249026710Y-81049800D01*
X249703450Y-81049800D01*
X249765450Y-81066413D01*
X249810837Y-81111800D01*
X249827450Y-81173800D01*
X249827450Y-87294540D01*
X249827409Y-87294746D01*
X249827409Y-87319300D01*
X249827450Y-87319399D01*
X249827567Y-87319683D01*
X249827568Y-87319684D01*
X249827758Y-87319761D01*
X249827950Y-87319841D01*
X249827952Y-87319839D01*
X249852566Y-87319824D01*
X249852566Y-87319828D01*
X249852710Y-87319800D01*
X251428450Y-87319800D01*
X251490450Y-87336413D01*
X251535837Y-87381800D01*
X251552450Y-87443800D01*
X251552450Y-88494840D01*
X251552409Y-88495046D01*
X251552409Y-88519600D01*
X251552450Y-88519699D01*
X251552567Y-88519983D01*
X251552568Y-88519984D01*
X251552758Y-88520061D01*
X251552950Y-88520141D01*
X251552952Y-88520139D01*
X251577566Y-88520124D01*
X251577566Y-88520128D01*
X251577710Y-88520100D01*
X254827190Y-88520100D01*
X254827333Y-88520128D01*
X254827334Y-88520124D01*
X254851947Y-88520139D01*
X254851950Y-88520141D01*
X254852333Y-88519983D01*
X254852450Y-88519699D01*
X254852491Y-88519600D01*
X254852491Y-88495046D01*
X254852450Y-88494840D01*
X254852450Y-87443800D01*
X254869063Y-87381800D01*
X254914450Y-87336413D01*
X254976450Y-87319800D01*
X256552190Y-87319800D01*
X256552333Y-87319828D01*
X256552334Y-87319824D01*
X256576947Y-87319839D01*
X256576950Y-87319841D01*
X256577333Y-87319683D01*
X256577450Y-87319399D01*
X256577491Y-87319300D01*
X256577491Y-87294746D01*
X256577450Y-87294540D01*
X256577450Y-82974900D01*
X256594063Y-82912900D01*
X256639450Y-82867513D01*
X256701450Y-82850900D01*
X257978450Y-82850900D01*
X258040450Y-82867513D01*
X258085837Y-82912900D01*
X258102450Y-82974900D01*
X258102450Y-87524740D01*
X258102409Y-87524946D01*
X258102409Y-87549500D01*
X258102450Y-87549599D01*
X258102567Y-87549883D01*
X258102568Y-87549884D01*
X258102758Y-87549961D01*
X258102950Y-87550041D01*
X258102952Y-87550039D01*
X258127566Y-87550024D01*
X258127566Y-87550028D01*
X258127710Y-87550000D01*
X272077190Y-87550000D01*
X272077333Y-87550028D01*
X272077334Y-87550024D01*
X272101947Y-87550039D01*
X272101950Y-87550041D01*
X272102333Y-87549883D01*
X272102450Y-87549599D01*
X272102491Y-87549500D01*
X272102491Y-87524946D01*
X272102450Y-87524740D01*
X272102450Y-82974900D01*
X272119063Y-82912900D01*
X272164450Y-82867513D01*
X272226450Y-82850900D01*
X273503450Y-82850900D01*
X273565450Y-82867513D01*
X273610837Y-82912900D01*
X273627450Y-82974900D01*
X273627450Y-87294540D01*
X273627409Y-87294746D01*
X273627409Y-87319300D01*
X273627450Y-87319399D01*
X273627567Y-87319683D01*
X273627568Y-87319684D01*
X273627758Y-87319761D01*
X273627950Y-87319841D01*
X273627952Y-87319839D01*
X273652566Y-87319824D01*
X273652566Y-87319828D01*
X273652710Y-87319800D01*
X275228450Y-87319800D01*
X275290450Y-87336413D01*
X275335837Y-87381800D01*
X275352450Y-87443800D01*
X275352450Y-88494840D01*
X275352409Y-88495046D01*
X275352409Y-88519600D01*
X275352450Y-88519699D01*
X275352567Y-88519983D01*
X275352568Y-88519984D01*
X275352758Y-88520061D01*
X275352950Y-88520141D01*
X275352952Y-88520139D01*
X275377566Y-88520124D01*
X275377566Y-88520128D01*
X275377710Y-88520100D01*
X278627190Y-88520100D01*
X278627333Y-88520128D01*
X278627334Y-88520124D01*
X278651947Y-88520139D01*
X278651950Y-88520141D01*
X278652333Y-88519983D01*
X278652450Y-88519699D01*
X278652491Y-88519600D01*
X278652491Y-88495046D01*
X278652450Y-88494840D01*
X278652450Y-87443800D01*
X278669063Y-87381800D01*
X278714450Y-87336413D01*
X278776450Y-87319800D01*
X280352190Y-87319800D01*
X280352333Y-87319828D01*
X280352334Y-87319824D01*
X280376947Y-87319839D01*
X280376950Y-87319841D01*
X280377333Y-87319683D01*
X280377450Y-87319399D01*
X280377491Y-87319300D01*
X280377491Y-87294746D01*
X280377450Y-87294540D01*
X280377450Y-81173800D01*
X280394063Y-81111800D01*
X280439450Y-81066413D01*
X280501450Y-81049800D01*
X281178190Y-81049800D01*
X281178333Y-81049828D01*
X281178334Y-81049824D01*
X281202947Y-81049839D01*
X281202950Y-81049841D01*
X281203333Y-81049683D01*
X281203450Y-81049399D01*
X281203491Y-81049300D01*
X281203491Y-81024746D01*
X281203450Y-81024540D01*
X281203450Y-78275260D01*
X281203478Y-78275116D01*
X281203474Y-78275116D01*
X281203489Y-78250502D01*
X281203491Y-78250500D01*
X281203412Y-78250308D01*
X281203334Y-78250118D01*
X281203330Y-78250114D01*
X281203144Y-78250038D01*
X281202952Y-78249959D01*
X281178396Y-78249959D01*
X281178190Y-78250000D01*
X280501450Y-78250000D01*
X280439450Y-78233387D01*
X280394063Y-78188000D01*
X280377450Y-78126000D01*
X280377450Y-75045060D01*
X280377478Y-75044916D01*
X280377474Y-75044916D01*
X280377489Y-75020302D01*
X280377491Y-75020300D01*
X280377412Y-75020108D01*
X280377334Y-75019918D01*
X280377330Y-75019914D01*
X280377144Y-75019838D01*
X280376952Y-75019759D01*
X280352396Y-75019759D01*
X280352190Y-75019800D01*
X273652710Y-75019800D01*
X273652504Y-75019759D01*
X273627948Y-75019759D01*
X273627757Y-75019838D01*
X273627569Y-75019915D01*
X273627565Y-75019918D01*
X273627409Y-75020299D01*
X273627426Y-75044916D01*
X273627421Y-75044916D01*
X273627450Y-75045060D01*
X273627450Y-78126000D01*
X273610837Y-78188000D01*
X273565450Y-78233387D01*
X273503450Y-78250000D01*
X272226450Y-78250000D01*
X272164450Y-78233387D01*
X272119063Y-78188000D01*
X272102450Y-78126000D01*
X272102450Y-73574860D01*
X272102478Y-73574716D01*
X272102474Y-73574716D01*
X272102489Y-73550102D01*
X272102491Y-73550100D01*
X272102411Y-73549908D01*
X272102334Y-73549718D01*
X272102330Y-73549714D01*
X272102144Y-73549638D01*
X272101952Y-73549559D01*
X272077396Y-73549559D01*
X272077190Y-73549600D01*
X258127710Y-73549600D01*
X258127504Y-73549559D01*
X258102948Y-73549559D01*
X258102757Y-73549638D01*
X258102569Y-73549715D01*
X258102565Y-73549718D01*
X258102409Y-73550099D01*
X258102426Y-73574716D01*
X258102421Y-73574716D01*
X258102450Y-73574860D01*
X258102450Y-78126000D01*
X258085837Y-78188000D01*
X258040450Y-78233387D01*
X257978450Y-78250000D01*
X256701450Y-78250000D01*
X256639450Y-78233387D01*
X256594063Y-78188000D01*
X256577450Y-78126000D01*
X256577450Y-75045060D01*
X256577478Y-75044916D01*
X256577474Y-75044916D01*
X256577489Y-75020302D01*
X256577491Y-75020300D01*
X256577412Y-75020108D01*
X256577334Y-75019918D01*
X256577330Y-75019914D01*
X256577144Y-75019838D01*
X256576952Y-75019759D01*
X256552396Y-75019759D01*
X256552190Y-75019800D01*
X249852710Y-75019800D01*
X249852504Y-75019759D01*
X249827948Y-75019759D01*
X249827757Y-75019838D01*
X249827569Y-75019915D01*
X249827565Y-75019918D01*
X249827409Y-75020299D01*
X249827426Y-75044916D01*
X249827421Y-75044916D01*
X249827450Y-75045060D01*
X249827450Y-78126000D01*
X249810837Y-78188000D01*
X249765450Y-78233387D01*
X249703450Y-78250000D01*
X249026710Y-78250000D01*
X249026504Y-78249959D01*
X249001948Y-78249959D01*
X249001757Y-78250038D01*
X249001569Y-78250115D01*
X249001565Y-78250118D01*
X249001409Y-78250499D01*
X249001426Y-78275116D01*
X249001421Y-78275116D01*
X249001450Y-78275260D01*
X249001450Y-81024540D01*
X249001409Y-81024746D01*
X249001409Y-81049300D01*
X243527450Y-81049300D01*
X243527450Y-73574860D01*
X243527478Y-73574716D01*
X243527474Y-73574716D01*
X243527489Y-73550102D01*
X243527491Y-73550100D01*
X243527411Y-73549908D01*
X243527334Y-73549718D01*
X243527330Y-73549714D01*
X243527144Y-73549638D01*
X243526952Y-73549559D01*
X243502396Y-73549559D01*
X243502190Y-73549600D01*
X229552710Y-73549600D01*
X229552504Y-73549559D01*
X229527948Y-73549559D01*
X229527757Y-73549638D01*
X229527569Y-73549715D01*
X229527565Y-73549718D01*
X229527409Y-73550099D01*
X229527426Y-73574716D01*
X229527421Y-73574716D01*
X229527450Y-73574860D01*
X229527450Y-87524740D01*
X229527409Y-87524946D01*
X229527409Y-87549500D01*
X224477491Y-87549500D01*
X224477491Y-87524946D01*
X224477450Y-87524740D01*
X224477450Y-73574860D01*
X224477478Y-73574716D01*
X224477474Y-73574716D01*
X224477489Y-73550102D01*
X224477491Y-73550100D01*
X224477411Y-73549908D01*
X224477334Y-73549718D01*
X224477330Y-73549714D01*
X224477144Y-73549638D01*
X224476952Y-73549559D01*
X224452396Y-73549559D01*
X224452190Y-73549600D01*
X210502710Y-73549600D01*
X210502504Y-73549559D01*
X210477948Y-73549559D01*
X210477757Y-73549638D01*
X210477569Y-73549715D01*
X210477565Y-73549718D01*
X210477409Y-73550099D01*
X210477426Y-73574716D01*
X210477421Y-73574716D01*
X210477450Y-73574860D01*
X210477450Y-87524740D01*
X210477409Y-87524946D01*
X210477409Y-87549500D01*
X205427491Y-87549500D01*
X205427491Y-87524946D01*
X205427450Y-87524740D01*
X205427450Y-73574860D01*
X205427478Y-73574716D01*
X205427474Y-73574716D01*
X205427489Y-73550102D01*
X205427491Y-73550100D01*
X205427411Y-73549908D01*
X205427334Y-73549718D01*
X205427330Y-73549714D01*
X205427144Y-73549638D01*
X205426952Y-73549559D01*
X205402396Y-73549559D01*
X205402190Y-73549600D01*
X191452710Y-73549600D01*
X191452504Y-73549559D01*
X191427948Y-73549559D01*
X191427757Y-73549638D01*
X191427569Y-73549715D01*
X191427565Y-73549718D01*
X191427409Y-73550099D01*
X191427426Y-73574716D01*
X191427421Y-73574716D01*
X191427450Y-73574860D01*
X191427450Y-87524740D01*
X191427409Y-87524946D01*
X191427409Y-87549500D01*
X186377491Y-87549500D01*
X186377491Y-87524946D01*
X186377450Y-87524740D01*
X186377450Y-73574860D01*
X186377478Y-73574716D01*
X186377474Y-73574716D01*
X186377489Y-73550102D01*
X186377491Y-73550100D01*
X186377411Y-73549908D01*
X186377334Y-73549718D01*
X186377330Y-73549714D01*
X186377144Y-73549638D01*
X186376952Y-73549559D01*
X186352396Y-73549559D01*
X186352190Y-73549600D01*
X172402710Y-73549600D01*
X172402504Y-73549559D01*
X172377948Y-73549559D01*
X172377757Y-73549638D01*
X172377569Y-73549715D01*
X172377565Y-73549718D01*
X172377409Y-73550099D01*
X172377426Y-73574716D01*
X172377421Y-73574716D01*
X172377450Y-73574860D01*
X172377450Y-87524740D01*
X172377409Y-87524946D01*
X172377409Y-87549500D01*
X167327491Y-87549500D01*
X167327491Y-87524946D01*
X167327450Y-87524740D01*
X167327450Y-73574860D01*
X167327478Y-73574716D01*
X167327474Y-73574716D01*
X167327489Y-73550102D01*
X167327491Y-73550100D01*
X167327411Y-73549908D01*
X167327334Y-73549718D01*
X167327330Y-73549714D01*
X167327144Y-73549638D01*
X167326952Y-73549559D01*
X167302396Y-73549559D01*
X167302190Y-73549600D01*
X153352710Y-73549600D01*
X153352504Y-73549559D01*
X153327948Y-73549559D01*
X153327757Y-73549638D01*
X153327569Y-73549715D01*
X153327565Y-73549718D01*
X153327409Y-73550099D01*
X153327426Y-73574716D01*
X153327421Y-73574716D01*
X153327450Y-73574860D01*
X153327450Y-87524740D01*
X153327409Y-87524946D01*
X153327409Y-87549500D01*
X148277491Y-87549500D01*
X148277491Y-87524946D01*
X148277450Y-87524740D01*
X148277450Y-73574860D01*
X148277478Y-73574716D01*
X148277474Y-73574716D01*
X148277489Y-73550102D01*
X148277491Y-73550100D01*
X148277412Y-73549908D01*
X148277334Y-73549718D01*
X148277330Y-73549714D01*
X148277144Y-73549638D01*
X148276952Y-73549559D01*
X148252396Y-73549559D01*
X148252190Y-73549600D01*
X134302710Y-73549600D01*
X134302504Y-73549559D01*
X134277948Y-73549559D01*
X134277757Y-73549638D01*
X134277569Y-73549715D01*
X134277565Y-73549718D01*
X134277409Y-73550099D01*
X134277426Y-73574716D01*
X134277421Y-73574716D01*
X134277450Y-73574860D01*
X134277450Y-87524740D01*
X134277409Y-87524946D01*
X134277409Y-87549500D01*
X129227491Y-87549500D01*
X129227491Y-87524946D01*
X129227450Y-87524740D01*
X129227450Y-73574860D01*
X129227478Y-73574716D01*
X129227474Y-73574716D01*
X129227489Y-73550102D01*
X129227491Y-73550100D01*
X129227412Y-73549908D01*
X129227334Y-73549718D01*
X129227330Y-73549714D01*
X129227144Y-73549638D01*
X129226952Y-73549559D01*
X129202396Y-73549559D01*
X129202190Y-73549600D01*
X115252710Y-73549600D01*
X115252504Y-73549559D01*
X115227948Y-73549559D01*
X115227757Y-73549638D01*
X115227569Y-73549715D01*
X115227565Y-73549718D01*
X115227409Y-73550099D01*
X115227426Y-73574716D01*
X115227421Y-73574716D01*
X115227450Y-73574860D01*
X115227450Y-87524740D01*
X115227409Y-87524946D01*
X115227409Y-87549500D01*
X110177491Y-87549500D01*
X110177491Y-87524946D01*
X110177450Y-87524740D01*
X110177450Y-73574860D01*
X110177478Y-73574716D01*
X110177474Y-73574716D01*
X110177489Y-73550102D01*
X110177491Y-73550100D01*
X110177412Y-73549908D01*
X110177334Y-73549718D01*
X110177330Y-73549714D01*
X110177144Y-73549638D01*
X110176952Y-73549559D01*
X110152396Y-73549559D01*
X110152190Y-73549600D01*
X96202410Y-73549600D01*
X96202204Y-73549559D01*
X96177648Y-73549559D01*
X96177457Y-73549638D01*
X96177269Y-73549715D01*
X96177265Y-73549718D01*
X96177109Y-73550099D01*
X96177126Y-73574716D01*
X96177121Y-73574716D01*
X96177150Y-73574860D01*
X96177150Y-87524740D01*
X96177109Y-87524946D01*
X96177109Y-87549500D01*
X91127491Y-87549500D01*
X91127491Y-87524946D01*
X91127450Y-87524740D01*
X91127450Y-73574860D01*
X91127478Y-73574716D01*
X91127474Y-73574716D01*
X91127489Y-73550102D01*
X91127491Y-73550100D01*
X91127412Y-73549908D01*
X91127334Y-73549718D01*
X91127330Y-73549714D01*
X91127144Y-73549638D01*
X91126952Y-73549559D01*
X91102396Y-73549559D01*
X91102190Y-73549600D01*
X77152410Y-73549600D01*
X77152204Y-73549559D01*
X77127648Y-73549559D01*
X77127457Y-73549638D01*
X77127269Y-73549715D01*
X77127265Y-73549718D01*
X77127109Y-73550099D01*
X77127126Y-73574716D01*
X77127121Y-73574716D01*
X77127150Y-73574860D01*
X77127150Y-87524740D01*
X77127109Y-87524946D01*
X77127109Y-87549500D01*
X72077491Y-87549500D01*
X72077491Y-87524946D01*
X72077450Y-87524740D01*
X72077450Y-73574860D01*
X72077478Y-73574716D01*
X72077474Y-73574716D01*
X72077489Y-73550102D01*
X72077491Y-73550100D01*
X72077412Y-73549908D01*
X72077334Y-73549718D01*
X72077330Y-73549714D01*
X72077144Y-73549638D01*
X72076952Y-73549559D01*
X72052396Y-73549559D01*
X72052190Y-73549600D01*
X58102410Y-73549600D01*
X58102204Y-73549559D01*
X58077648Y-73549559D01*
X58077457Y-73549638D01*
X58077269Y-73549715D01*
X58077265Y-73549718D01*
X58077109Y-73550099D01*
X58077126Y-73574716D01*
X58077121Y-73574716D01*
X58077150Y-73574860D01*
X58077150Y-87524740D01*
X58077109Y-87524946D01*
X58077109Y-87549500D01*
X53027491Y-87549500D01*
X53027491Y-87524946D01*
X53027450Y-87524740D01*
X53027450Y-73574860D01*
X53027478Y-73574716D01*
X53027474Y-73574716D01*
X53027489Y-73550102D01*
X53027491Y-73550100D01*
X53027411Y-73549908D01*
X53027334Y-73549718D01*
X53027330Y-73549714D01*
X53027144Y-73549638D01*
X53026952Y-73549559D01*
X53002396Y-73549559D01*
X53002190Y-73549600D01*
X39052410Y-73549600D01*
X39052204Y-73549559D01*
X39027648Y-73549559D01*
X39027457Y-73549638D01*
X39027269Y-73549715D01*
X39027265Y-73549718D01*
X39027109Y-73550099D01*
X39027126Y-73574716D01*
X39027121Y-73574716D01*
X39027150Y-73574860D01*
X39027150Y-87524740D01*
X39027109Y-87524946D01*
X39027109Y-87549500D01*
X29215191Y-87549500D01*
X29215191Y-87524946D01*
X29215150Y-87524740D01*
X29215150Y-73574860D01*
X29215178Y-73574716D01*
X29215174Y-73574716D01*
X29215189Y-73550102D01*
X29215191Y-73550100D01*
X29215111Y-73549908D01*
X29215034Y-73549718D01*
X29215030Y-73549714D01*
X29214844Y-73549638D01*
X29214652Y-73549559D01*
X29190096Y-73549559D01*
X29189890Y-73549600D01*
X15239870Y-73549600D01*
X15239664Y-73549559D01*
X15215108Y-73549559D01*
X15214917Y-73549638D01*
X15214729Y-73549715D01*
X15214725Y-73549718D01*
X15214569Y-73550099D01*
X15214586Y-73574716D01*
X15214581Y-73574716D01*
X15214610Y-73574860D01*
X15214610Y-87524740D01*
X15214569Y-87524946D01*
X15214569Y-87549500D01*
X500Y-87549500D01*
X500Y-61999400D01*
X10876499Y-61999400D01*
X10876540Y-61999499D01*
X10876656Y-61999782D01*
X10876657Y-61999783D01*
X10876658Y-61999784D01*
X10876848Y-61999861D01*
X10877040Y-61999941D01*
X10877042Y-61999939D01*
X10901656Y-61999924D01*
X10901656Y-61999928D01*
X10901800Y-61999900D01*
X11578000Y-61999900D01*
X11640000Y-62016513D01*
X11685387Y-62061900D01*
X11702000Y-62123900D01*
X11702000Y-68244540D01*
X11701959Y-68244746D01*
X11701959Y-68269300D01*
X11702000Y-68269399D01*
X11702116Y-68269682D01*
X11702117Y-68269683D01*
X11702118Y-68269684D01*
X11702308Y-68269761D01*
X11702500Y-68269841D01*
X11702502Y-68269839D01*
X11727116Y-68269824D01*
X11727116Y-68269828D01*
X11727260Y-68269800D01*
X13303290Y-68269800D01*
X13365290Y-68286413D01*
X13410677Y-68331800D01*
X13427290Y-68393800D01*
X13427290Y-69444740D01*
X13427249Y-69444946D01*
X13427249Y-69469500D01*
X13427290Y-69469599D01*
X13427406Y-69469882D01*
X13427407Y-69469883D01*
X13427408Y-69469884D01*
X13427598Y-69469962D01*
X13427790Y-69470041D01*
X13427792Y-69470039D01*
X13452406Y-69470024D01*
X13452406Y-69470028D01*
X13452550Y-69470000D01*
X16702040Y-69470000D01*
X16702183Y-69470028D01*
X16702184Y-69470024D01*
X16726797Y-69470039D01*
X16726800Y-69470041D01*
X16727183Y-69469883D01*
X16727300Y-69469599D01*
X16727341Y-69469500D01*
X16727341Y-69444946D01*
X16727300Y-69444740D01*
X16727300Y-68393800D01*
X16743913Y-68331800D01*
X16789300Y-68286413D01*
X16851300Y-68269800D01*
X18427390Y-68269800D01*
X18427533Y-68269828D01*
X18427534Y-68269824D01*
X18452147Y-68269839D01*
X18452150Y-68269841D01*
X18452533Y-68269683D01*
X18452650Y-68269399D01*
X18452691Y-68269300D01*
X18452691Y-68244746D01*
X18452650Y-68244540D01*
X18452650Y-63924800D01*
X18469263Y-63862800D01*
X18514650Y-63817413D01*
X18576650Y-63800800D01*
X19853150Y-63800800D01*
X19915150Y-63817413D01*
X19960537Y-63862800D01*
X19977150Y-63924800D01*
X19977150Y-68474540D01*
X19977109Y-68474746D01*
X19977109Y-68499300D01*
X19977150Y-68499399D01*
X19977266Y-68499682D01*
X19977267Y-68499683D01*
X19977268Y-68499684D01*
X19977458Y-68499762D01*
X19977650Y-68499841D01*
X19977652Y-68499839D01*
X20002266Y-68499824D01*
X20002266Y-68499828D01*
X20002410Y-68499800D01*
X33952290Y-68499800D01*
X33952433Y-68499828D01*
X33952434Y-68499824D01*
X33977047Y-68499839D01*
X33977050Y-68499841D01*
X33977433Y-68499683D01*
X33977550Y-68499399D01*
X33977591Y-68499300D01*
X33977591Y-68474746D01*
X33977550Y-68474540D01*
X33977550Y-63924800D01*
X33994163Y-63862800D01*
X34039550Y-63817413D01*
X34101550Y-63800800D01*
X35378050Y-63800800D01*
X35440050Y-63817413D01*
X35485437Y-63862800D01*
X35502050Y-63924800D01*
X35502050Y-68244540D01*
X35502009Y-68244746D01*
X35502009Y-68269300D01*
X35502050Y-68269399D01*
X35502166Y-68269682D01*
X35502167Y-68269683D01*
X35502168Y-68269684D01*
X35502358Y-68269761D01*
X35502550Y-68269841D01*
X35502552Y-68269839D01*
X35527166Y-68269824D01*
X35527166Y-68269828D01*
X35527310Y-68269800D01*
X37103350Y-68269800D01*
X37165350Y-68286413D01*
X37210737Y-68331800D01*
X37227350Y-68393800D01*
X37227350Y-69444740D01*
X37227309Y-69444946D01*
X37227309Y-69469500D01*
X37227350Y-69469599D01*
X37227466Y-69469882D01*
X37227467Y-69469883D01*
X37227468Y-69469884D01*
X37227658Y-69469962D01*
X37227850Y-69470041D01*
X37227852Y-69470039D01*
X37252466Y-69470024D01*
X37252466Y-69470028D01*
X37252610Y-69470000D01*
X40502190Y-69470000D01*
X40502333Y-69470028D01*
X40502334Y-69470024D01*
X40526947Y-69470039D01*
X40526950Y-69470041D01*
X40527333Y-69469883D01*
X40527450Y-69469599D01*
X40527491Y-69469500D01*
X40527491Y-69444946D01*
X40527450Y-69444740D01*
X40527450Y-68499300D01*
X48552109Y-68499300D01*
X48552150Y-68499399D01*
X48552266Y-68499682D01*
X48552267Y-68499683D01*
X48552268Y-68499684D01*
X48552458Y-68499762D01*
X48552650Y-68499841D01*
X48552652Y-68499839D01*
X48577266Y-68499824D01*
X48577266Y-68499828D01*
X48577410Y-68499800D01*
X62527190Y-68499800D01*
X62527333Y-68499828D01*
X62527334Y-68499824D01*
X62551947Y-68499839D01*
X62551950Y-68499841D01*
X62552333Y-68499683D01*
X62552450Y-68499399D01*
X62552491Y-68499300D01*
X67602109Y-68499300D01*
X67602150Y-68499399D01*
X67602266Y-68499682D01*
X67602267Y-68499683D01*
X67602268Y-68499684D01*
X67602458Y-68499762D01*
X67602650Y-68499841D01*
X67602652Y-68499839D01*
X67627266Y-68499824D01*
X67627266Y-68499828D01*
X67627410Y-68499800D01*
X81577190Y-68499800D01*
X81577333Y-68499828D01*
X81577334Y-68499824D01*
X81601947Y-68499839D01*
X81601950Y-68499841D01*
X81602333Y-68499683D01*
X81602450Y-68499399D01*
X81602491Y-68499300D01*
X86652109Y-68499300D01*
X86652150Y-68499399D01*
X86652266Y-68499682D01*
X86652267Y-68499683D01*
X86652268Y-68499684D01*
X86652458Y-68499762D01*
X86652650Y-68499841D01*
X86652652Y-68499839D01*
X86677266Y-68499824D01*
X86677266Y-68499828D01*
X86677410Y-68499800D01*
X100627190Y-68499800D01*
X100627333Y-68499828D01*
X100627334Y-68499824D01*
X100651947Y-68499839D01*
X100651950Y-68499841D01*
X100652333Y-68499683D01*
X100652450Y-68499399D01*
X100652491Y-68499300D01*
X105700709Y-68499300D01*
X105700750Y-68499399D01*
X105700866Y-68499682D01*
X105700867Y-68499683D01*
X105700868Y-68499684D01*
X105701058Y-68499762D01*
X105701250Y-68499841D01*
X105701252Y-68499839D01*
X105725866Y-68499824D01*
X105725866Y-68499828D01*
X105726010Y-68499800D01*
X119677190Y-68499800D01*
X119677333Y-68499828D01*
X119677334Y-68499824D01*
X119701947Y-68499839D01*
X119701950Y-68499841D01*
X119702333Y-68499683D01*
X119702450Y-68499399D01*
X119702491Y-68499300D01*
X124750409Y-68499300D01*
X124750450Y-68499399D01*
X124750566Y-68499682D01*
X124750567Y-68499683D01*
X124750568Y-68499684D01*
X124750758Y-68499762D01*
X124750950Y-68499841D01*
X124750952Y-68499839D01*
X124775566Y-68499824D01*
X124775566Y-68499828D01*
X124775710Y-68499800D01*
X138727190Y-68499800D01*
X138727333Y-68499828D01*
X138727334Y-68499824D01*
X138751947Y-68499839D01*
X138751950Y-68499841D01*
X138752333Y-68499683D01*
X138752450Y-68499399D01*
X138752491Y-68499300D01*
X143802409Y-68499300D01*
X143802450Y-68499399D01*
X143802566Y-68499682D01*
X143802567Y-68499683D01*
X143802568Y-68499684D01*
X143802758Y-68499762D01*
X143802950Y-68499841D01*
X143802952Y-68499839D01*
X143827566Y-68499824D01*
X143827566Y-68499828D01*
X143827710Y-68499800D01*
X157777190Y-68499800D01*
X157777333Y-68499828D01*
X157777334Y-68499824D01*
X157801947Y-68499839D01*
X157801950Y-68499841D01*
X157802333Y-68499683D01*
X157802450Y-68499399D01*
X157802491Y-68499300D01*
X162852409Y-68499300D01*
X162852450Y-68499399D01*
X162852567Y-68499683D01*
X162852568Y-68499684D01*
X162852758Y-68499762D01*
X162852950Y-68499841D01*
X162852952Y-68499839D01*
X162877566Y-68499824D01*
X162877566Y-68499828D01*
X162877710Y-68499800D01*
X176827190Y-68499800D01*
X176827333Y-68499828D01*
X176827334Y-68499824D01*
X176851947Y-68499839D01*
X176851950Y-68499841D01*
X176852333Y-68499683D01*
X176852450Y-68499399D01*
X176852491Y-68499300D01*
X181902409Y-68499300D01*
X181902450Y-68499399D01*
X181902567Y-68499683D01*
X181902568Y-68499684D01*
X181902758Y-68499762D01*
X181902950Y-68499841D01*
X181902952Y-68499839D01*
X181927566Y-68499824D01*
X181927566Y-68499828D01*
X181927710Y-68499800D01*
X195877190Y-68499800D01*
X195877333Y-68499828D01*
X195877334Y-68499824D01*
X195901947Y-68499839D01*
X195901950Y-68499841D01*
X195902333Y-68499683D01*
X195902450Y-68499399D01*
X195902491Y-68499300D01*
X200952409Y-68499300D01*
X200952450Y-68499399D01*
X200952567Y-68499683D01*
X200952568Y-68499684D01*
X200952758Y-68499762D01*
X200952950Y-68499841D01*
X200952952Y-68499839D01*
X200977566Y-68499824D01*
X200977566Y-68499828D01*
X200977710Y-68499800D01*
X214927190Y-68499800D01*
X214927333Y-68499828D01*
X214927334Y-68499824D01*
X214951947Y-68499839D01*
X214951950Y-68499841D01*
X214952333Y-68499683D01*
X214952450Y-68499399D01*
X214952491Y-68499300D01*
X220002409Y-68499300D01*
X220002450Y-68499399D01*
X220002567Y-68499683D01*
X220002568Y-68499684D01*
X220002758Y-68499762D01*
X220002950Y-68499841D01*
X220002952Y-68499839D01*
X220027566Y-68499824D01*
X220027566Y-68499828D01*
X220027710Y-68499800D01*
X233977190Y-68499800D01*
X233977333Y-68499828D01*
X233977334Y-68499824D01*
X234001947Y-68499839D01*
X234001950Y-68499841D01*
X234002333Y-68499683D01*
X234002450Y-68499399D01*
X234002491Y-68499300D01*
X239052409Y-68499300D01*
X239052450Y-68499399D01*
X239052567Y-68499683D01*
X239052568Y-68499684D01*
X239052758Y-68499762D01*
X239052950Y-68499841D01*
X239052952Y-68499839D01*
X239077566Y-68499824D01*
X239077566Y-68499828D01*
X239077710Y-68499800D01*
X253027190Y-68499800D01*
X253027333Y-68499828D01*
X253027334Y-68499824D01*
X253051947Y-68499839D01*
X253051950Y-68499841D01*
X253052333Y-68499683D01*
X253052450Y-68499399D01*
X253052491Y-68499300D01*
X262864409Y-68499300D01*
X262864450Y-68499399D01*
X262864567Y-68499683D01*
X262864568Y-68499684D01*
X262864758Y-68499762D01*
X262864950Y-68499841D01*
X262864952Y-68499839D01*
X262889566Y-68499824D01*
X262889566Y-68499828D01*
X262889710Y-68499800D01*
X276840190Y-68499800D01*
X276840333Y-68499828D01*
X276840334Y-68499824D01*
X276864947Y-68499839D01*
X276864950Y-68499841D01*
X276865333Y-68499683D01*
X276865450Y-68499399D01*
X276865491Y-68499300D01*
X276865491Y-68474746D01*
X276865450Y-68474540D01*
X276865450Y-54524760D01*
X276865478Y-54524616D01*
X276865474Y-54524616D01*
X276865489Y-54500002D01*
X276865491Y-54500000D01*
X276865411Y-54499808D01*
X276865334Y-54499618D01*
X276865330Y-54499614D01*
X276865144Y-54499538D01*
X276864952Y-54499459D01*
X276840396Y-54499459D01*
X276840190Y-54499500D01*
X262889710Y-54499500D01*
X262889504Y-54499459D01*
X262864948Y-54499459D01*
X262864757Y-54499538D01*
X262864569Y-54499615D01*
X262864565Y-54499618D01*
X262864409Y-54499999D01*
X262864426Y-54524616D01*
X262864421Y-54524616D01*
X262864450Y-54524760D01*
X262864450Y-68474540D01*
X262864409Y-68474746D01*
X262864409Y-68499300D01*
X253052491Y-68499300D01*
X253052491Y-68474746D01*
X253052450Y-68474540D01*
X253052450Y-54524760D01*
X253052478Y-54524616D01*
X253052474Y-54524616D01*
X253052489Y-54500002D01*
X253052491Y-54500000D01*
X253052411Y-54499808D01*
X253052334Y-54499618D01*
X253052330Y-54499614D01*
X253052144Y-54499538D01*
X253051952Y-54499459D01*
X253027396Y-54499459D01*
X253027190Y-54499500D01*
X239077710Y-54499500D01*
X239077504Y-54499459D01*
X239052948Y-54499459D01*
X239052757Y-54499538D01*
X239052569Y-54499615D01*
X239052565Y-54499618D01*
X239052409Y-54499999D01*
X239052426Y-54524616D01*
X239052421Y-54524616D01*
X239052450Y-54524760D01*
X239052450Y-68474540D01*
X239052409Y-68474746D01*
X239052409Y-68499300D01*
X234002491Y-68499300D01*
X234002491Y-68474746D01*
X234002450Y-68474540D01*
X234002450Y-54524760D01*
X234002478Y-54524616D01*
X234002474Y-54524616D01*
X234002489Y-54500002D01*
X234002491Y-54500000D01*
X234002411Y-54499808D01*
X234002334Y-54499618D01*
X234002330Y-54499614D01*
X234002144Y-54499538D01*
X234001952Y-54499459D01*
X233977396Y-54499459D01*
X233977190Y-54499500D01*
X220027710Y-54499500D01*
X220027504Y-54499459D01*
X220002948Y-54499459D01*
X220002757Y-54499538D01*
X220002569Y-54499615D01*
X220002565Y-54499618D01*
X220002409Y-54499999D01*
X220002426Y-54524616D01*
X220002421Y-54524616D01*
X220002450Y-54524760D01*
X220002450Y-68474540D01*
X220002409Y-68474746D01*
X220002409Y-68499300D01*
X214952491Y-68499300D01*
X214952491Y-68474746D01*
X214952450Y-68474540D01*
X214952450Y-54524760D01*
X214952478Y-54524616D01*
X214952474Y-54524616D01*
X214952489Y-54500002D01*
X214952491Y-54500000D01*
X214952411Y-54499808D01*
X214952334Y-54499618D01*
X214952330Y-54499614D01*
X214952144Y-54499538D01*
X214951952Y-54499459D01*
X214927396Y-54499459D01*
X214927190Y-54499500D01*
X200977710Y-54499500D01*
X200977504Y-54499459D01*
X200952948Y-54499459D01*
X200952757Y-54499538D01*
X200952569Y-54499615D01*
X200952565Y-54499618D01*
X200952409Y-54499999D01*
X200952426Y-54524616D01*
X200952421Y-54524616D01*
X200952450Y-54524760D01*
X200952450Y-68474540D01*
X200952409Y-68474746D01*
X200952409Y-68499300D01*
X195902491Y-68499300D01*
X195902491Y-68474746D01*
X195902450Y-68474540D01*
X195902450Y-54524760D01*
X195902478Y-54524616D01*
X195902474Y-54524616D01*
X195902489Y-54500002D01*
X195902491Y-54500000D01*
X195902411Y-54499808D01*
X195902334Y-54499618D01*
X195902330Y-54499614D01*
X195902144Y-54499538D01*
X195901952Y-54499459D01*
X195877396Y-54499459D01*
X195877190Y-54499500D01*
X181927710Y-54499500D01*
X181927504Y-54499459D01*
X181902948Y-54499459D01*
X181902757Y-54499538D01*
X181902569Y-54499615D01*
X181902565Y-54499618D01*
X181902409Y-54499999D01*
X181902426Y-54524616D01*
X181902421Y-54524616D01*
X181902450Y-54524760D01*
X181902450Y-68474540D01*
X181902409Y-68474746D01*
X181902409Y-68499300D01*
X176852491Y-68499300D01*
X176852491Y-68474746D01*
X176852450Y-68474540D01*
X176852450Y-54524760D01*
X176852478Y-54524616D01*
X176852474Y-54524616D01*
X176852489Y-54500002D01*
X176852491Y-54500000D01*
X176852411Y-54499808D01*
X176852334Y-54499618D01*
X176852330Y-54499614D01*
X176852144Y-54499538D01*
X176851952Y-54499459D01*
X176827396Y-54499459D01*
X176827190Y-54499500D01*
X162877710Y-54499500D01*
X162877504Y-54499459D01*
X162852948Y-54499459D01*
X162852757Y-54499538D01*
X162852569Y-54499615D01*
X162852565Y-54499618D01*
X162852409Y-54499999D01*
X162852426Y-54524616D01*
X162852421Y-54524616D01*
X162852450Y-54524760D01*
X162852450Y-68474540D01*
X162852409Y-68474746D01*
X162852409Y-68499300D01*
X157802491Y-68499300D01*
X157802491Y-68474746D01*
X157802450Y-68474540D01*
X157802450Y-54524760D01*
X157802478Y-54524616D01*
X157802474Y-54524616D01*
X157802489Y-54500002D01*
X157802491Y-54500000D01*
X157802411Y-54499808D01*
X157802334Y-54499618D01*
X157802330Y-54499614D01*
X157802144Y-54499538D01*
X157801952Y-54499459D01*
X157777396Y-54499459D01*
X157777190Y-54499500D01*
X143827710Y-54499500D01*
X143827504Y-54499459D01*
X143802948Y-54499459D01*
X143802757Y-54499538D01*
X143802569Y-54499615D01*
X143802565Y-54499618D01*
X143802409Y-54499999D01*
X143802426Y-54524616D01*
X143802421Y-54524616D01*
X143802450Y-54524760D01*
X143802450Y-68474540D01*
X143802409Y-68474746D01*
X143802409Y-68499300D01*
X138752491Y-68499300D01*
X138752491Y-68474746D01*
X138752450Y-68474540D01*
X138752450Y-54524760D01*
X138752478Y-54524616D01*
X138752474Y-54524616D01*
X138752489Y-54500002D01*
X138752491Y-54500000D01*
X138752412Y-54499808D01*
X138752334Y-54499618D01*
X138752330Y-54499614D01*
X138752144Y-54499538D01*
X138751952Y-54499459D01*
X138727396Y-54499459D01*
X138727190Y-54499500D01*
X124775710Y-54499500D01*
X124775504Y-54499459D01*
X124750948Y-54499459D01*
X124750757Y-54499538D01*
X124750569Y-54499615D01*
X124750565Y-54499618D01*
X124750409Y-54499999D01*
X124750426Y-54524616D01*
X124750421Y-54524616D01*
X124750450Y-54524760D01*
X124750450Y-68474540D01*
X124750409Y-68474746D01*
X124750409Y-68499300D01*
X119702491Y-68499300D01*
X119702491Y-68474746D01*
X119702450Y-68474540D01*
X119702450Y-54524760D01*
X119702478Y-54524616D01*
X119702474Y-54524616D01*
X119702489Y-54500002D01*
X119702491Y-54500000D01*
X119702412Y-54499808D01*
X119702334Y-54499618D01*
X119702330Y-54499614D01*
X119702144Y-54499538D01*
X119701952Y-54499459D01*
X119677396Y-54499459D01*
X119677190Y-54499500D01*
X105726010Y-54499500D01*
X105725804Y-54499459D01*
X105701248Y-54499459D01*
X105701057Y-54499538D01*
X105700869Y-54499615D01*
X105700865Y-54499618D01*
X105700709Y-54499999D01*
X105700726Y-54524616D01*
X105700721Y-54524616D01*
X105700750Y-54524760D01*
X105700750Y-68474540D01*
X105700709Y-68474746D01*
X105700709Y-68499300D01*
X100652491Y-68499300D01*
X100652491Y-68474746D01*
X100652450Y-68474540D01*
X100652450Y-54524760D01*
X100652478Y-54524616D01*
X100652474Y-54524616D01*
X100652489Y-54500002D01*
X100652491Y-54500000D01*
X100652412Y-54499808D01*
X100652334Y-54499618D01*
X100652330Y-54499614D01*
X100652144Y-54499538D01*
X100651952Y-54499459D01*
X100627396Y-54499459D01*
X100627190Y-54499500D01*
X86677410Y-54499500D01*
X86677204Y-54499459D01*
X86652648Y-54499459D01*
X86652457Y-54499538D01*
X86652269Y-54499615D01*
X86652265Y-54499618D01*
X86652109Y-54499999D01*
X86652126Y-54524616D01*
X86652121Y-54524616D01*
X86652150Y-54524760D01*
X86652150Y-68474540D01*
X86652109Y-68474746D01*
X86652109Y-68499300D01*
X81602491Y-68499300D01*
X81602491Y-68474746D01*
X81602450Y-68474540D01*
X81602450Y-54524760D01*
X81602478Y-54524616D01*
X81602474Y-54524616D01*
X81602489Y-54500002D01*
X81602491Y-54500000D01*
X81602412Y-54499808D01*
X81602334Y-54499618D01*
X81602330Y-54499614D01*
X81602144Y-54499538D01*
X81601952Y-54499459D01*
X81577396Y-54499459D01*
X81577190Y-54499500D01*
X67627410Y-54499500D01*
X67627204Y-54499459D01*
X67602648Y-54499459D01*
X67602457Y-54499538D01*
X67602269Y-54499615D01*
X67602265Y-54499618D01*
X67602109Y-54499999D01*
X67602126Y-54524616D01*
X67602121Y-54524616D01*
X67602150Y-54524760D01*
X67602150Y-68474540D01*
X67602109Y-68474746D01*
X67602109Y-68499300D01*
X62552491Y-68499300D01*
X62552491Y-68474746D01*
X62552450Y-68474540D01*
X62552450Y-54524760D01*
X62552478Y-54524616D01*
X62552474Y-54524616D01*
X62552489Y-54500002D01*
X62552491Y-54500000D01*
X62552412Y-54499808D01*
X62552334Y-54499618D01*
X62552330Y-54499614D01*
X62552144Y-54499538D01*
X62551952Y-54499459D01*
X62527396Y-54499459D01*
X62527190Y-54499500D01*
X48577410Y-54499500D01*
X48577204Y-54499459D01*
X48552648Y-54499459D01*
X48552457Y-54499538D01*
X48552269Y-54499615D01*
X48552265Y-54499618D01*
X48552109Y-54499999D01*
X48552126Y-54524616D01*
X48552121Y-54524616D01*
X48552150Y-54524760D01*
X48552150Y-68474540D01*
X48552109Y-68474746D01*
X48552109Y-68499300D01*
X40527450Y-68499300D01*
X40527450Y-68393800D01*
X40544063Y-68331800D01*
X40589450Y-68286413D01*
X40651450Y-68269800D01*
X42227490Y-68269800D01*
X42227633Y-68269828D01*
X42227634Y-68269824D01*
X42252247Y-68269839D01*
X42252250Y-68269841D01*
X42252633Y-68269683D01*
X42252750Y-68269399D01*
X42252791Y-68269300D01*
X42252791Y-68244746D01*
X42252750Y-68244540D01*
X42252750Y-62123900D01*
X42269363Y-62061900D01*
X42314750Y-62016513D01*
X42376750Y-61999900D01*
X43052890Y-61999900D01*
X43053033Y-61999928D01*
X43053034Y-61999924D01*
X43077647Y-61999939D01*
X43077650Y-61999941D01*
X43078033Y-61999783D01*
X43078150Y-61999499D01*
X43078191Y-61999400D01*
X43078191Y-61974846D01*
X43078150Y-61974640D01*
X43078150Y-59225260D01*
X43078178Y-59225116D01*
X43078174Y-59225116D01*
X43078189Y-59200502D01*
X43078191Y-59200500D01*
X43078112Y-59200308D01*
X43078034Y-59200118D01*
X43078030Y-59200114D01*
X43077844Y-59200038D01*
X43077652Y-59199959D01*
X43053096Y-59199959D01*
X43052890Y-59200000D01*
X42376750Y-59200000D01*
X42314750Y-59183387D01*
X42269363Y-59138000D01*
X42252750Y-59076000D01*
X42252750Y-55995160D01*
X42252778Y-55995016D01*
X42252774Y-55995016D01*
X42252789Y-55970402D01*
X42252791Y-55970400D01*
X42252711Y-55970208D01*
X42252634Y-55970018D01*
X42252630Y-55970014D01*
X42252444Y-55969938D01*
X42252252Y-55969859D01*
X42227696Y-55969859D01*
X42227490Y-55969900D01*
X35527310Y-55969900D01*
X35527104Y-55969859D01*
X35502548Y-55969859D01*
X35502357Y-55969938D01*
X35502169Y-55970015D01*
X35502165Y-55970018D01*
X35502009Y-55970399D01*
X35502026Y-55995016D01*
X35502021Y-55995016D01*
X35502050Y-55995160D01*
X35502050Y-59076000D01*
X35485437Y-59138000D01*
X35440050Y-59183387D01*
X35378050Y-59200000D01*
X34101550Y-59200000D01*
X34039550Y-59183387D01*
X33994163Y-59138000D01*
X33977550Y-59076000D01*
X33977550Y-54524760D01*
X33977578Y-54524616D01*
X33977574Y-54524616D01*
X33977589Y-54500002D01*
X33977591Y-54500000D01*
X33977512Y-54499808D01*
X33977434Y-54499618D01*
X33977430Y-54499614D01*
X33977244Y-54499538D01*
X33977052Y-54499459D01*
X33952496Y-54499459D01*
X33952290Y-54499500D01*
X20002410Y-54499500D01*
X20002204Y-54499459D01*
X19977648Y-54499459D01*
X19977457Y-54499538D01*
X19977269Y-54499615D01*
X19977265Y-54499618D01*
X19977109Y-54499999D01*
X19977126Y-54524616D01*
X19977121Y-54524616D01*
X19977150Y-54524760D01*
X19977150Y-59076000D01*
X19960537Y-59138000D01*
X19915150Y-59183387D01*
X19853150Y-59200000D01*
X18576650Y-59200000D01*
X18514650Y-59183387D01*
X18469263Y-59138000D01*
X18452650Y-59076000D01*
X18452650Y-55995160D01*
X18452678Y-55995016D01*
X18452674Y-55995016D01*
X18452689Y-55970402D01*
X18452691Y-55970400D01*
X18452611Y-55970208D01*
X18452534Y-55970018D01*
X18452530Y-55970014D01*
X18452344Y-55969938D01*
X18452152Y-55969859D01*
X18427596Y-55969859D01*
X18427390Y-55969900D01*
X11727260Y-55969900D01*
X11727054Y-55969859D01*
X11702498Y-55969859D01*
X11702307Y-55969938D01*
X11702119Y-55970015D01*
X11702115Y-55970018D01*
X11701959Y-55970399D01*
X11701976Y-55995016D01*
X11701971Y-55995016D01*
X11702000Y-55995160D01*
X11702000Y-59076000D01*
X11685387Y-59138000D01*
X11640000Y-59183387D01*
X11578000Y-59200000D01*
X10901800Y-59200000D01*
X10901594Y-59199959D01*
X10877038Y-59199959D01*
X10876847Y-59200038D01*
X10876659Y-59200115D01*
X10876655Y-59200118D01*
X10876499Y-59200499D01*
X10876516Y-59225116D01*
X10876511Y-59225116D01*
X10876540Y-59225260D01*
X10876540Y-61974640D01*
X10876499Y-61974846D01*
X10876499Y-61999400D01*
X500Y-61999400D01*
X500Y-49449300D01*
X15214569Y-49449300D01*
X15214610Y-49449399D01*
X15214726Y-49449682D01*
X15214727Y-49449683D01*
X15214728Y-49449684D01*
X15214918Y-49449762D01*
X15215110Y-49449841D01*
X15215112Y-49449839D01*
X15239726Y-49449824D01*
X15239726Y-49449828D01*
X15239870Y-49449800D01*
X29189890Y-49449800D01*
X29190033Y-49449828D01*
X29190034Y-49449824D01*
X29214647Y-49449839D01*
X29214650Y-49449841D01*
X29215033Y-49449683D01*
X29215150Y-49449399D01*
X29215191Y-49449300D01*
X39027109Y-49449300D01*
X39027150Y-49449399D01*
X39027267Y-49449682D01*
X39027267Y-49449683D01*
X39027268Y-49449684D01*
X39027458Y-49449762D01*
X39027650Y-49449841D01*
X39027652Y-49449839D01*
X39052266Y-49449824D01*
X39052266Y-49449828D01*
X39052410Y-49449800D01*
X53002190Y-49449800D01*
X53002333Y-49449828D01*
X53002334Y-49449824D01*
X53026947Y-49449839D01*
X53026950Y-49449841D01*
X53027333Y-49449683D01*
X53027450Y-49449399D01*
X53027491Y-49449300D01*
X58077109Y-49449300D01*
X58077150Y-49449399D01*
X58077267Y-49449683D01*
X58077268Y-49449684D01*
X58077458Y-49449762D01*
X58077650Y-49449841D01*
X58077652Y-49449839D01*
X58102266Y-49449824D01*
X58102266Y-49449828D01*
X58102410Y-49449800D01*
X72052190Y-49449800D01*
X72052333Y-49449828D01*
X72052334Y-49449824D01*
X72076947Y-49449839D01*
X72076950Y-49449841D01*
X72077333Y-49449683D01*
X72077450Y-49449399D01*
X72077491Y-49449300D01*
X77127109Y-49449300D01*
X77127150Y-49449399D01*
X77127267Y-49449683D01*
X77127268Y-49449684D01*
X77127458Y-49449762D01*
X77127650Y-49449841D01*
X77127652Y-49449839D01*
X77152266Y-49449824D01*
X77152266Y-49449828D01*
X77152410Y-49449800D01*
X91102190Y-49449800D01*
X91102333Y-49449828D01*
X91102334Y-49449824D01*
X91126947Y-49449839D01*
X91126950Y-49449841D01*
X91127333Y-49449683D01*
X91127450Y-49449399D01*
X91127491Y-49449300D01*
X96177109Y-49449300D01*
X96177150Y-49449399D01*
X96177267Y-49449683D01*
X96177268Y-49449684D01*
X96177458Y-49449762D01*
X96177650Y-49449841D01*
X96177652Y-49449839D01*
X96202266Y-49449824D01*
X96202266Y-49449828D01*
X96202410Y-49449800D01*
X110152190Y-49449800D01*
X110152333Y-49449828D01*
X110152334Y-49449824D01*
X110176947Y-49449839D01*
X110176950Y-49449841D01*
X110177333Y-49449683D01*
X110177450Y-49449399D01*
X110177491Y-49449300D01*
X115227409Y-49449300D01*
X115227450Y-49449399D01*
X115227567Y-49449683D01*
X115227568Y-49449684D01*
X115227758Y-49449762D01*
X115227950Y-49449841D01*
X115227952Y-49449839D01*
X115252566Y-49449824D01*
X115252566Y-49449828D01*
X115252710Y-49449800D01*
X129202190Y-49449800D01*
X129202333Y-49449828D01*
X129202334Y-49449824D01*
X129226947Y-49449839D01*
X129226950Y-49449841D01*
X129227333Y-49449683D01*
X129227450Y-49449399D01*
X129227491Y-49449300D01*
X134277409Y-49449300D01*
X134277450Y-49449399D01*
X134277567Y-49449683D01*
X134277568Y-49449684D01*
X134277758Y-49449762D01*
X134277950Y-49449841D01*
X134277952Y-49449839D01*
X134302566Y-49449824D01*
X134302566Y-49449828D01*
X134302710Y-49449800D01*
X148252190Y-49449800D01*
X148252333Y-49449828D01*
X148252334Y-49449824D01*
X148276947Y-49449839D01*
X148276950Y-49449841D01*
X148277333Y-49449683D01*
X148277450Y-49449399D01*
X148277491Y-49449300D01*
X153327409Y-49449300D01*
X153327450Y-49449399D01*
X153327567Y-49449683D01*
X153327568Y-49449684D01*
X153327758Y-49449762D01*
X153327950Y-49449841D01*
X153327952Y-49449839D01*
X153352566Y-49449824D01*
X153352566Y-49449828D01*
X153352710Y-49449800D01*
X167302190Y-49449800D01*
X167302333Y-49449828D01*
X167302334Y-49449824D01*
X167326947Y-49449839D01*
X167326950Y-49449841D01*
X167327333Y-49449683D01*
X167327450Y-49449399D01*
X167327491Y-49449300D01*
X172377409Y-49449300D01*
X172377450Y-49449399D01*
X172377567Y-49449683D01*
X172377568Y-49449684D01*
X172377758Y-49449762D01*
X172377950Y-49449841D01*
X172377952Y-49449839D01*
X172402566Y-49449824D01*
X172402566Y-49449828D01*
X172402710Y-49449800D01*
X186352190Y-49449800D01*
X186352333Y-49449828D01*
X186352334Y-49449824D01*
X186376947Y-49449839D01*
X186376950Y-49449841D01*
X186377333Y-49449683D01*
X186377450Y-49449399D01*
X186377491Y-49449300D01*
X191427409Y-49449300D01*
X191427450Y-49449399D01*
X191427567Y-49449683D01*
X191427568Y-49449684D01*
X191427758Y-49449762D01*
X191427950Y-49449841D01*
X191427952Y-49449839D01*
X191452566Y-49449824D01*
X191452566Y-49449828D01*
X191452710Y-49449800D01*
X205402190Y-49449800D01*
X205402333Y-49449828D01*
X205402334Y-49449824D01*
X205426947Y-49449839D01*
X205426950Y-49449841D01*
X205427333Y-49449683D01*
X205427450Y-49449399D01*
X205427491Y-49449300D01*
X210477409Y-49449300D01*
X210477450Y-49449399D01*
X210477567Y-49449683D01*
X210477568Y-49449684D01*
X210477758Y-49449762D01*
X210477950Y-49449841D01*
X210477952Y-49449839D01*
X210502566Y-49449824D01*
X210502566Y-49449828D01*
X210502710Y-49449800D01*
X224452190Y-49449800D01*
X224452333Y-49449828D01*
X224452334Y-49449824D01*
X224476947Y-49449839D01*
X224476950Y-49449841D01*
X224477333Y-49449683D01*
X224477450Y-49449399D01*
X224477491Y-49449300D01*
X234289409Y-49449300D01*
X234289450Y-49449399D01*
X234289567Y-49449683D01*
X234289568Y-49449684D01*
X234289758Y-49449762D01*
X234289950Y-49449841D01*
X234289952Y-49449839D01*
X234314566Y-49449824D01*
X234314566Y-49449828D01*
X234314710Y-49449800D01*
X248265190Y-49449800D01*
X248265333Y-49449828D01*
X248265334Y-49449824D01*
X248289947Y-49449839D01*
X248289950Y-49449841D01*
X248290333Y-49449683D01*
X248290450Y-49449399D01*
X248290491Y-49449300D01*
X262864409Y-49449300D01*
X262864450Y-49449399D01*
X262864567Y-49449683D01*
X262864568Y-49449684D01*
X262864758Y-49449762D01*
X262864950Y-49449841D01*
X262864952Y-49449839D01*
X262889566Y-49449824D01*
X262889566Y-49449828D01*
X262889710Y-49449800D01*
X276840190Y-49449800D01*
X276840333Y-49449828D01*
X276840334Y-49449824D01*
X276864947Y-49449839D01*
X276864950Y-49449841D01*
X276865333Y-49449683D01*
X276865450Y-49449399D01*
X276865491Y-49449300D01*
X276865491Y-49424746D01*
X276865450Y-49424540D01*
X276865450Y-35474760D01*
X276865478Y-35474616D01*
X276865474Y-35474616D01*
X276865489Y-35450002D01*
X276865491Y-35450000D01*
X276865411Y-35449808D01*
X276865334Y-35449618D01*
X276865330Y-35449614D01*
X276865144Y-35449538D01*
X276864952Y-35449459D01*
X276840396Y-35449459D01*
X276840190Y-35449500D01*
X262889710Y-35449500D01*
X262889504Y-35449459D01*
X262864948Y-35449459D01*
X262864757Y-35449538D01*
X262864569Y-35449615D01*
X262864565Y-35449618D01*
X262864409Y-35449999D01*
X262864426Y-35474616D01*
X262864421Y-35474616D01*
X262864450Y-35474760D01*
X262864450Y-49424540D01*
X262864409Y-49424746D01*
X262864409Y-49449300D01*
X248290491Y-49449300D01*
X248290491Y-49424746D01*
X248290450Y-49424540D01*
X248290450Y-35474760D01*
X248290478Y-35474616D01*
X248290474Y-35474616D01*
X248290489Y-35450002D01*
X248290491Y-35450000D01*
X248290411Y-35449808D01*
X248290334Y-35449618D01*
X248290330Y-35449614D01*
X248290144Y-35449538D01*
X248289952Y-35449459D01*
X248265396Y-35449459D01*
X248265190Y-35449500D01*
X234314710Y-35449500D01*
X234314504Y-35449459D01*
X234289948Y-35449459D01*
X234289757Y-35449538D01*
X234289569Y-35449615D01*
X234289565Y-35449618D01*
X234289409Y-35449999D01*
X234289426Y-35474616D01*
X234289421Y-35474616D01*
X234289450Y-35474760D01*
X234289450Y-49424540D01*
X234289409Y-49424746D01*
X234289409Y-49449300D01*
X224477491Y-49449300D01*
X224477491Y-49424746D01*
X224477450Y-49424540D01*
X224477450Y-35474760D01*
X224477478Y-35474616D01*
X224477474Y-35474616D01*
X224477489Y-35450002D01*
X224477491Y-35450000D01*
X224477411Y-35449808D01*
X224477334Y-35449618D01*
X224477330Y-35449614D01*
X224477144Y-35449538D01*
X224476952Y-35449459D01*
X224452396Y-35449459D01*
X224452190Y-35449500D01*
X210502710Y-35449500D01*
X210502504Y-35449459D01*
X210477948Y-35449459D01*
X210477757Y-35449538D01*
X210477569Y-35449615D01*
X210477565Y-35449618D01*
X210477409Y-35449999D01*
X210477426Y-35474616D01*
X210477421Y-35474616D01*
X210477450Y-35474760D01*
X210477450Y-49424540D01*
X210477409Y-49424746D01*
X210477409Y-49449300D01*
X205427491Y-49449300D01*
X205427491Y-49424746D01*
X205427450Y-49424540D01*
X205427450Y-35474760D01*
X205427478Y-35474616D01*
X205427474Y-35474616D01*
X205427489Y-35450002D01*
X205427491Y-35450000D01*
X205427411Y-35449808D01*
X205427334Y-35449618D01*
X205427330Y-35449614D01*
X205427144Y-35449538D01*
X205426952Y-35449459D01*
X205402396Y-35449459D01*
X205402190Y-35449500D01*
X191452710Y-35449500D01*
X191452504Y-35449459D01*
X191427948Y-35449459D01*
X191427757Y-35449538D01*
X191427569Y-35449615D01*
X191427565Y-35449618D01*
X191427409Y-35449999D01*
X191427426Y-35474616D01*
X191427421Y-35474616D01*
X191427450Y-35474760D01*
X191427450Y-49424540D01*
X191427409Y-49424746D01*
X191427409Y-49449300D01*
X186377491Y-49449300D01*
X186377491Y-49424746D01*
X186377450Y-49424540D01*
X186377450Y-35474760D01*
X186377478Y-35474616D01*
X186377474Y-35474616D01*
X186377489Y-35450002D01*
X186377491Y-35450000D01*
X186377411Y-35449808D01*
X186377334Y-35449618D01*
X186377330Y-35449614D01*
X186377144Y-35449538D01*
X186376952Y-35449459D01*
X186352396Y-35449459D01*
X186352190Y-35449500D01*
X172402710Y-35449500D01*
X172402504Y-35449459D01*
X172377948Y-35449459D01*
X172377757Y-35449538D01*
X172377569Y-35449615D01*
X172377565Y-35449618D01*
X172377409Y-35449999D01*
X172377426Y-35474616D01*
X172377421Y-35474616D01*
X172377450Y-35474760D01*
X172377450Y-49424540D01*
X172377409Y-49424746D01*
X172377409Y-49449300D01*
X167327491Y-49449300D01*
X167327491Y-49424746D01*
X167327450Y-49424540D01*
X167327450Y-35474760D01*
X167327478Y-35474616D01*
X167327474Y-35474616D01*
X167327489Y-35450002D01*
X167327491Y-35450000D01*
X167327411Y-35449808D01*
X167327334Y-35449618D01*
X167327330Y-35449614D01*
X167327144Y-35449538D01*
X167326952Y-35449459D01*
X167302396Y-35449459D01*
X167302190Y-35449500D01*
X153352710Y-35449500D01*
X153352504Y-35449459D01*
X153327948Y-35449459D01*
X153327757Y-35449538D01*
X153327569Y-35449615D01*
X153327565Y-35449618D01*
X153327409Y-35449999D01*
X153327426Y-35474616D01*
X153327421Y-35474616D01*
X153327450Y-35474760D01*
X153327450Y-49424540D01*
X153327409Y-49424746D01*
X153327409Y-49449300D01*
X148277491Y-49449300D01*
X148277491Y-49424746D01*
X148277450Y-49424540D01*
X148277450Y-35474760D01*
X148277478Y-35474616D01*
X148277474Y-35474616D01*
X148277489Y-35450002D01*
X148277491Y-35450000D01*
X148277411Y-35449808D01*
X148277334Y-35449618D01*
X148277330Y-35449614D01*
X148277144Y-35449538D01*
X148276952Y-35449459D01*
X148252396Y-35449459D01*
X148252190Y-35449500D01*
X134302710Y-35449500D01*
X134302504Y-35449459D01*
X134277948Y-35449459D01*
X134277757Y-35449538D01*
X134277569Y-35449615D01*
X134277565Y-35449618D01*
X134277409Y-35449999D01*
X134277426Y-35474616D01*
X134277421Y-35474616D01*
X134277450Y-35474760D01*
X134277450Y-49424540D01*
X134277409Y-49424746D01*
X134277409Y-49449300D01*
X129227491Y-49449300D01*
X129227491Y-49424746D01*
X129227450Y-49424540D01*
X129227450Y-35474760D01*
X129227478Y-35474616D01*
X129227474Y-35474616D01*
X129227489Y-35450002D01*
X129227491Y-35450000D01*
X129227411Y-35449808D01*
X129227334Y-35449618D01*
X129227330Y-35449614D01*
X129227144Y-35449538D01*
X129226952Y-35449459D01*
X129202396Y-35449459D01*
X129202190Y-35449500D01*
X115252710Y-35449500D01*
X115252504Y-35449459D01*
X115227948Y-35449459D01*
X115227757Y-35449538D01*
X115227569Y-35449615D01*
X115227565Y-35449618D01*
X115227409Y-35449999D01*
X115227426Y-35474616D01*
X115227421Y-35474616D01*
X115227450Y-35474760D01*
X115227450Y-49424540D01*
X115227409Y-49424746D01*
X115227409Y-49449300D01*
X110177491Y-49449300D01*
X110177491Y-49424746D01*
X110177450Y-49424540D01*
X110177450Y-35474760D01*
X110177478Y-35474616D01*
X110177474Y-35474616D01*
X110177489Y-35450002D01*
X110177491Y-35450000D01*
X110177411Y-35449808D01*
X110177334Y-35449618D01*
X110177330Y-35449614D01*
X110177144Y-35449538D01*
X110176952Y-35449459D01*
X110152396Y-35449459D01*
X110152190Y-35449500D01*
X96202410Y-35449500D01*
X96202204Y-35449459D01*
X96177648Y-35449459D01*
X96177457Y-35449538D01*
X96177269Y-35449615D01*
X96177265Y-35449618D01*
X96177109Y-35449999D01*
X96177126Y-35474616D01*
X96177121Y-35474616D01*
X96177150Y-35474760D01*
X96177150Y-49424540D01*
X96177109Y-49424746D01*
X96177109Y-49449300D01*
X91127491Y-49449300D01*
X91127491Y-49424746D01*
X91127450Y-49424540D01*
X91127450Y-35474760D01*
X91127478Y-35474616D01*
X91127474Y-35474616D01*
X91127489Y-35450002D01*
X91127491Y-35450000D01*
X91127411Y-35449808D01*
X91127334Y-35449618D01*
X91127330Y-35449614D01*
X91127144Y-35449538D01*
X91126952Y-35449459D01*
X91102396Y-35449459D01*
X91102190Y-35449500D01*
X77152410Y-35449500D01*
X77152204Y-35449459D01*
X77127648Y-35449459D01*
X77127457Y-35449538D01*
X77127269Y-35449615D01*
X77127265Y-35449618D01*
X77127109Y-35449999D01*
X77127126Y-35474616D01*
X77127121Y-35474616D01*
X77127150Y-35474760D01*
X77127150Y-49424540D01*
X77127109Y-49424746D01*
X77127109Y-49449300D01*
X72077491Y-49449300D01*
X72077491Y-49424746D01*
X72077450Y-49424540D01*
X72077450Y-35474760D01*
X72077478Y-35474616D01*
X72077474Y-35474616D01*
X72077489Y-35450002D01*
X72077491Y-35450000D01*
X72077411Y-35449808D01*
X72077334Y-35449618D01*
X72077330Y-35449614D01*
X72077144Y-35449538D01*
X72076952Y-35449459D01*
X72052396Y-35449459D01*
X72052190Y-35449500D01*
X58102410Y-35449500D01*
X58102204Y-35449459D01*
X58077648Y-35449459D01*
X58077457Y-35449538D01*
X58077269Y-35449615D01*
X58077265Y-35449618D01*
X58077109Y-35449999D01*
X58077126Y-35474616D01*
X58077121Y-35474616D01*
X58077150Y-35474760D01*
X58077150Y-49424540D01*
X58077109Y-49424746D01*
X58077109Y-49449300D01*
X53027491Y-49449300D01*
X53027491Y-49424746D01*
X53027450Y-49424540D01*
X53027450Y-35474760D01*
X53027478Y-35474616D01*
X53027474Y-35474616D01*
X53027489Y-35450002D01*
X53027491Y-35450000D01*
X53027411Y-35449808D01*
X53027334Y-35449618D01*
X53027330Y-35449614D01*
X53027144Y-35449538D01*
X53026952Y-35449459D01*
X53002396Y-35449459D01*
X53002190Y-35449500D01*
X39052410Y-35449500D01*
X39052204Y-35449459D01*
X39027648Y-35449459D01*
X39027457Y-35449538D01*
X39027269Y-35449615D01*
X39027265Y-35449618D01*
X39027109Y-35449999D01*
X39027126Y-35474616D01*
X39027121Y-35474616D01*
X39027150Y-35474760D01*
X39027150Y-49424540D01*
X39027109Y-49424746D01*
X39027109Y-49449300D01*
X29215191Y-49449300D01*
X29215191Y-49424746D01*
X29215150Y-49424540D01*
X29215150Y-35474760D01*
X29215178Y-35474616D01*
X29215174Y-35474616D01*
X29215189Y-35450002D01*
X29215191Y-35450000D01*
X29215112Y-35449808D01*
X29215034Y-35449618D01*
X29215030Y-35449614D01*
X29214844Y-35449538D01*
X29214652Y-35449459D01*
X29190096Y-35449459D01*
X29189890Y-35449500D01*
X15239870Y-35449500D01*
X15239664Y-35449459D01*
X15215108Y-35449459D01*
X15214917Y-35449538D01*
X15214729Y-35449615D01*
X15214725Y-35449618D01*
X15214569Y-35449999D01*
X15214586Y-35474616D01*
X15214581Y-35474616D01*
X15214610Y-35474760D01*
X15214610Y-49424540D01*
X15214569Y-49424746D01*
X15214569Y-49449300D01*
X500Y-49449300D01*
X500Y-30399300D01*
X10452059Y-30399300D01*
X10452100Y-30399399D01*
X10452216Y-30399682D01*
X10452217Y-30399683D01*
X10452218Y-30399684D01*
X10452408Y-30399762D01*
X10452600Y-30399841D01*
X10452602Y-30399839D01*
X10477216Y-30399824D01*
X10477216Y-30399828D01*
X10477360Y-30399800D01*
X24427390Y-30399800D01*
X24427533Y-30399828D01*
X24427534Y-30399824D01*
X24452147Y-30399839D01*
X24452150Y-30399841D01*
X24452533Y-30399683D01*
X24452650Y-30399399D01*
X24452691Y-30399300D01*
X29502109Y-30399300D01*
X29502150Y-30399399D01*
X29502267Y-30399683D01*
X29502268Y-30399684D01*
X29502458Y-30399762D01*
X29502650Y-30399841D01*
X29502652Y-30399839D01*
X29527266Y-30399824D01*
X29527266Y-30399828D01*
X29527410Y-30399800D01*
X43477190Y-30399800D01*
X43477333Y-30399828D01*
X43477334Y-30399824D01*
X43501947Y-30399839D01*
X43501950Y-30399841D01*
X43502333Y-30399683D01*
X43502450Y-30399399D01*
X43502491Y-30399300D01*
X48552109Y-30399300D01*
X48552150Y-30399399D01*
X48552267Y-30399683D01*
X48552268Y-30399684D01*
X48552458Y-30399762D01*
X48552650Y-30399841D01*
X48552652Y-30399839D01*
X48577266Y-30399824D01*
X48577266Y-30399828D01*
X48577410Y-30399800D01*
X62527190Y-30399800D01*
X62527333Y-30399828D01*
X62527334Y-30399824D01*
X62551947Y-30399839D01*
X62551950Y-30399841D01*
X62552333Y-30399683D01*
X62552450Y-30399399D01*
X62552491Y-30399300D01*
X67602109Y-30399300D01*
X67602150Y-30399399D01*
X67602267Y-30399683D01*
X67602268Y-30399684D01*
X67602458Y-30399762D01*
X67602650Y-30399841D01*
X67602652Y-30399839D01*
X67627266Y-30399824D01*
X67627266Y-30399828D01*
X67627410Y-30399800D01*
X81577190Y-30399800D01*
X81577333Y-30399828D01*
X81577334Y-30399824D01*
X81601947Y-30399839D01*
X81601950Y-30399841D01*
X81602333Y-30399683D01*
X81602450Y-30399399D01*
X81602491Y-30399300D01*
X86652109Y-30399300D01*
X86652150Y-30399399D01*
X86652267Y-30399683D01*
X86652268Y-30399684D01*
X86652458Y-30399762D01*
X86652650Y-30399841D01*
X86652652Y-30399839D01*
X86677266Y-30399824D01*
X86677266Y-30399828D01*
X86677410Y-30399800D01*
X100627190Y-30399800D01*
X100627333Y-30399828D01*
X100627334Y-30399824D01*
X100651947Y-30399839D01*
X100651950Y-30399841D01*
X100652333Y-30399683D01*
X100652450Y-30399399D01*
X100652491Y-30399300D01*
X105700709Y-30399300D01*
X105700750Y-30399399D01*
X105700867Y-30399683D01*
X105700868Y-30399684D01*
X105701058Y-30399762D01*
X105701250Y-30399841D01*
X105701252Y-30399839D01*
X105725866Y-30399824D01*
X105725866Y-30399828D01*
X105726010Y-30399800D01*
X119677190Y-30399800D01*
X119677333Y-30399828D01*
X119677334Y-30399824D01*
X119701947Y-30399839D01*
X119701950Y-30399841D01*
X119702333Y-30399683D01*
X119702450Y-30399399D01*
X119702491Y-30399300D01*
X124750409Y-30399300D01*
X124750450Y-30399399D01*
X124750567Y-30399683D01*
X124750568Y-30399684D01*
X124750758Y-30399762D01*
X124750950Y-30399841D01*
X124750952Y-30399839D01*
X124775566Y-30399824D01*
X124775566Y-30399828D01*
X124775710Y-30399800D01*
X138727190Y-30399800D01*
X138727333Y-30399828D01*
X138727334Y-30399824D01*
X138751947Y-30399839D01*
X138751950Y-30399841D01*
X138752333Y-30399683D01*
X138752450Y-30399399D01*
X138752491Y-30399300D01*
X143802409Y-30399300D01*
X143802450Y-30399399D01*
X143802567Y-30399683D01*
X143802568Y-30399684D01*
X143802758Y-30399762D01*
X143802950Y-30399841D01*
X143802952Y-30399839D01*
X143827566Y-30399824D01*
X143827566Y-30399828D01*
X143827710Y-30399800D01*
X157777190Y-30399800D01*
X157777333Y-30399828D01*
X157777334Y-30399824D01*
X157801947Y-30399839D01*
X157801950Y-30399841D01*
X157802333Y-30399683D01*
X157802450Y-30399399D01*
X157802491Y-30399300D01*
X162852409Y-30399300D01*
X162852450Y-30399399D01*
X162852567Y-30399683D01*
X162852568Y-30399684D01*
X162852758Y-30399762D01*
X162852950Y-30399841D01*
X162852952Y-30399839D01*
X162877566Y-30399824D01*
X162877566Y-30399828D01*
X162877710Y-30399800D01*
X176827190Y-30399800D01*
X176827333Y-30399828D01*
X176827334Y-30399824D01*
X176851947Y-30399839D01*
X176851950Y-30399841D01*
X176852333Y-30399683D01*
X176852450Y-30399399D01*
X176852491Y-30399300D01*
X181902409Y-30399300D01*
X181902450Y-30399399D01*
X181902567Y-30399683D01*
X181902568Y-30399684D01*
X181902758Y-30399762D01*
X181902950Y-30399841D01*
X181902952Y-30399839D01*
X181927566Y-30399824D01*
X181927566Y-30399828D01*
X181927710Y-30399800D01*
X195877190Y-30399800D01*
X195877333Y-30399828D01*
X195877334Y-30399824D01*
X195901947Y-30399839D01*
X195901950Y-30399841D01*
X195902333Y-30399683D01*
X195902450Y-30399399D01*
X195902491Y-30399300D01*
X200952409Y-30399300D01*
X200952450Y-30399399D01*
X200952567Y-30399683D01*
X200952568Y-30399684D01*
X200952758Y-30399762D01*
X200952950Y-30399841D01*
X200952952Y-30399839D01*
X200977566Y-30399824D01*
X200977566Y-30399828D01*
X200977710Y-30399800D01*
X214927190Y-30399800D01*
X214927333Y-30399828D01*
X214927334Y-30399824D01*
X214951947Y-30399839D01*
X214951950Y-30399841D01*
X214952333Y-30399683D01*
X214952450Y-30399399D01*
X214952491Y-30399300D01*
X222383409Y-30399300D01*
X222383450Y-30399399D01*
X222383567Y-30399683D01*
X222383568Y-30399684D01*
X222383758Y-30399761D01*
X222383950Y-30399841D01*
X222383952Y-30399839D01*
X222408566Y-30399824D01*
X222408566Y-30399828D01*
X222408710Y-30399800D01*
X236358190Y-30399800D01*
X236358333Y-30399828D01*
X236358334Y-30399824D01*
X236382947Y-30399839D01*
X236382950Y-30399841D01*
X236383333Y-30399683D01*
X236383450Y-30399399D01*
X236383491Y-30399300D01*
X236383491Y-30374746D01*
X236383450Y-30374540D01*
X236383450Y-23899400D01*
X246620409Y-23899400D01*
X246620450Y-23899499D01*
X246620567Y-23899783D01*
X246620568Y-23899784D01*
X246620758Y-23899862D01*
X246620950Y-23899941D01*
X246620952Y-23899939D01*
X246645566Y-23899924D01*
X246645566Y-23899928D01*
X246645710Y-23899900D01*
X247320450Y-23899900D01*
X247382450Y-23916513D01*
X247427837Y-23961900D01*
X247444450Y-24023900D01*
X247444450Y-30144540D01*
X247444409Y-30144746D01*
X247444409Y-30169300D01*
X247444450Y-30169399D01*
X247444566Y-30169682D01*
X247444567Y-30169683D01*
X247444568Y-30169684D01*
X247444758Y-30169761D01*
X247444950Y-30169841D01*
X247444952Y-30169839D01*
X247469566Y-30169824D01*
X247469566Y-30169828D01*
X247469710Y-30169800D01*
X249045450Y-30169800D01*
X249107450Y-30186413D01*
X249152837Y-30231800D01*
X249169450Y-30293800D01*
X249169450Y-31344740D01*
X249169409Y-31344946D01*
X249169409Y-31369500D01*
X249169450Y-31369599D01*
X249169566Y-31369882D01*
X249169567Y-31369883D01*
X249169568Y-31369884D01*
X249169758Y-31369961D01*
X249169950Y-31370041D01*
X249169952Y-31370039D01*
X249194566Y-31370024D01*
X249194566Y-31370028D01*
X249194710Y-31370000D01*
X252446190Y-31370000D01*
X252446333Y-31370028D01*
X252446334Y-31370024D01*
X252470947Y-31370039D01*
X252470950Y-31370041D01*
X252471333Y-31369883D01*
X252471450Y-31369599D01*
X252471491Y-31369500D01*
X252471491Y-31344946D01*
X252471450Y-31344740D01*
X252471450Y-30293800D01*
X252488063Y-30231800D01*
X252533450Y-30186413D01*
X252595450Y-30169800D01*
X254171190Y-30169800D01*
X254171333Y-30169828D01*
X254171334Y-30169824D01*
X254195947Y-30169839D01*
X254195950Y-30169841D01*
X254196333Y-30169683D01*
X254196450Y-30169399D01*
X254196491Y-30169300D01*
X254196491Y-30144746D01*
X254196450Y-30144540D01*
X254196450Y-25824800D01*
X254213063Y-25762800D01*
X254258450Y-25717413D01*
X254320450Y-25700800D01*
X255595450Y-25700800D01*
X255657450Y-25717413D01*
X255702837Y-25762800D01*
X255719450Y-25824800D01*
X255719450Y-30374540D01*
X255719409Y-30374746D01*
X255719409Y-30399300D01*
X255719450Y-30399399D01*
X255719567Y-30399683D01*
X255719568Y-30399684D01*
X255719758Y-30399761D01*
X255719950Y-30399841D01*
X255719952Y-30399839D01*
X255744566Y-30399824D01*
X255744566Y-30399828D01*
X255744710Y-30399800D01*
X269696190Y-30399800D01*
X269696333Y-30399828D01*
X269696334Y-30399824D01*
X269720947Y-30399839D01*
X269720950Y-30399841D01*
X269721333Y-30399683D01*
X269721450Y-30399399D01*
X269721491Y-30399300D01*
X269721491Y-30374746D01*
X269721450Y-30374540D01*
X269721450Y-25824800D01*
X269738063Y-25762800D01*
X269783450Y-25717413D01*
X269845450Y-25700800D01*
X271120450Y-25700800D01*
X271182450Y-25717413D01*
X271227837Y-25762800D01*
X271244450Y-25824800D01*
X271244450Y-30144540D01*
X271244409Y-30144746D01*
X271244409Y-30169300D01*
X271244450Y-30169399D01*
X271244566Y-30169682D01*
X271244567Y-30169683D01*
X271244568Y-30169684D01*
X271244758Y-30169761D01*
X271244950Y-30169841D01*
X271244952Y-30169839D01*
X271269566Y-30169824D01*
X271269566Y-30169828D01*
X271269710Y-30169800D01*
X272845450Y-30169800D01*
X272907450Y-30186413D01*
X272952837Y-30231800D01*
X272969450Y-30293800D01*
X272969450Y-31344740D01*
X272969409Y-31344946D01*
X272969409Y-31369500D01*
X272969450Y-31369599D01*
X272969566Y-31369882D01*
X272969567Y-31369883D01*
X272969568Y-31369884D01*
X272969758Y-31369961D01*
X272969950Y-31370041D01*
X272969952Y-31370039D01*
X272994566Y-31370024D01*
X272994566Y-31370028D01*
X272994710Y-31370000D01*
X276246190Y-31370000D01*
X276246333Y-31370028D01*
X276246334Y-31370024D01*
X276270947Y-31370039D01*
X276270950Y-31370041D01*
X276271333Y-31369883D01*
X276271450Y-31369599D01*
X276271491Y-31369500D01*
X276271491Y-31344946D01*
X276271450Y-31344740D01*
X276271450Y-30293800D01*
X276288063Y-30231800D01*
X276333450Y-30186413D01*
X276395450Y-30169800D01*
X277971190Y-30169800D01*
X277971333Y-30169828D01*
X277971334Y-30169824D01*
X277995947Y-30169839D01*
X277995950Y-30169841D01*
X277996333Y-30169683D01*
X277996450Y-30169399D01*
X277996491Y-30169300D01*
X277996491Y-30144746D01*
X277996450Y-30144540D01*
X277996450Y-24023900D01*
X278013063Y-23961900D01*
X278058450Y-23916513D01*
X278120450Y-23899900D01*
X278795190Y-23899900D01*
X278795333Y-23899928D01*
X278795334Y-23899924D01*
X278819947Y-23899939D01*
X278819950Y-23899941D01*
X278820333Y-23899783D01*
X278820450Y-23899499D01*
X278820491Y-23899400D01*
X278820491Y-23874846D01*
X278820450Y-23874640D01*
X278820450Y-21125260D01*
X278820478Y-21125116D01*
X278820474Y-21125116D01*
X278820489Y-21100502D01*
X278820491Y-21100500D01*
X278820412Y-21100308D01*
X278820334Y-21100118D01*
X278820330Y-21100114D01*
X278820144Y-21100038D01*
X278819952Y-21099959D01*
X278795396Y-21099959D01*
X278795190Y-21100000D01*
X278120450Y-21100000D01*
X278058450Y-21083387D01*
X278013063Y-21038000D01*
X277996450Y-20976000D01*
X277996450Y-17895160D01*
X277996478Y-17895016D01*
X277996474Y-17895016D01*
X277996489Y-17870402D01*
X277996491Y-17870400D01*
X277996411Y-17870208D01*
X277996334Y-17870018D01*
X277996330Y-17870014D01*
X277996144Y-17869938D01*
X277995952Y-17869859D01*
X277971396Y-17869859D01*
X277971190Y-17869900D01*
X271269710Y-17869900D01*
X271269504Y-17869859D01*
X271244948Y-17869859D01*
X271244757Y-17869938D01*
X271244569Y-17870015D01*
X271244565Y-17870018D01*
X271244409Y-17870399D01*
X271244426Y-17895016D01*
X271244421Y-17895016D01*
X271244450Y-17895160D01*
X271244450Y-20976000D01*
X271227837Y-21038000D01*
X271182450Y-21083387D01*
X271120450Y-21100000D01*
X269845450Y-21100000D01*
X269783450Y-21083387D01*
X269738063Y-21038000D01*
X269721450Y-20976000D01*
X269721450Y-16424760D01*
X269721478Y-16424616D01*
X269721474Y-16424616D01*
X269721489Y-16400002D01*
X269721491Y-16400000D01*
X269721411Y-16399808D01*
X269721334Y-16399618D01*
X269721330Y-16399614D01*
X269721144Y-16399538D01*
X269720952Y-16399459D01*
X269696396Y-16399459D01*
X269696190Y-16399500D01*
X255744710Y-16399500D01*
X255744504Y-16399459D01*
X255719948Y-16399459D01*
X255719757Y-16399538D01*
X255719569Y-16399615D01*
X255719565Y-16399618D01*
X255719409Y-16399999D01*
X255719426Y-16424616D01*
X255719421Y-16424616D01*
X255719450Y-16424760D01*
X255719450Y-20976000D01*
X255702837Y-21038000D01*
X255657450Y-21083387D01*
X255595450Y-21100000D01*
X254320450Y-21100000D01*
X254258450Y-21083387D01*
X254213063Y-21038000D01*
X254196450Y-20976000D01*
X254196450Y-17895160D01*
X254196478Y-17895016D01*
X254196474Y-17895016D01*
X254196489Y-17870402D01*
X254196491Y-17870400D01*
X254196412Y-17870208D01*
X254196334Y-17870018D01*
X254196330Y-17870014D01*
X254196144Y-17869938D01*
X254195952Y-17869859D01*
X254171396Y-17869859D01*
X254171190Y-17869900D01*
X247469710Y-17869900D01*
X247469504Y-17869859D01*
X247444948Y-17869859D01*
X247444757Y-17869938D01*
X247444569Y-17870015D01*
X247444565Y-17870018D01*
X247444409Y-17870399D01*
X247444426Y-17895016D01*
X247444421Y-17895016D01*
X247444450Y-17895160D01*
X247444450Y-20976000D01*
X247427837Y-21038000D01*
X247382450Y-21083387D01*
X247320450Y-21100000D01*
X246645710Y-21100000D01*
X246645504Y-21099959D01*
X246620948Y-21099959D01*
X246620757Y-21100038D01*
X246620569Y-21100115D01*
X246620565Y-21100118D01*
X246620409Y-21100499D01*
X246620426Y-21125116D01*
X246620421Y-21125116D01*
X246620450Y-21125260D01*
X246620450Y-23874640D01*
X246620409Y-23874846D01*
X246620409Y-23899400D01*
X236383450Y-23899400D01*
X236383450Y-16424760D01*
X236383478Y-16424616D01*
X236383474Y-16424616D01*
X236383489Y-16400002D01*
X236383491Y-16400000D01*
X236383411Y-16399808D01*
X236383334Y-16399618D01*
X236383330Y-16399614D01*
X236383144Y-16399538D01*
X236382952Y-16399459D01*
X236358396Y-16399459D01*
X236358190Y-16399500D01*
X222408710Y-16399500D01*
X222408504Y-16399459D01*
X222383948Y-16399459D01*
X222383757Y-16399538D01*
X222383569Y-16399615D01*
X222383565Y-16399618D01*
X222383409Y-16399999D01*
X222383426Y-16424616D01*
X222383421Y-16424616D01*
X222383450Y-16424760D01*
X222383450Y-30374540D01*
X222383409Y-30374746D01*
X222383409Y-30399300D01*
X214952491Y-30399300D01*
X214952491Y-30374746D01*
X214952450Y-30374540D01*
X214952450Y-16424760D01*
X214952478Y-16424616D01*
X214952474Y-16424616D01*
X214952489Y-16400002D01*
X214952491Y-16400000D01*
X214952411Y-16399808D01*
X214952334Y-16399618D01*
X214952330Y-16399614D01*
X214952144Y-16399538D01*
X214951952Y-16399459D01*
X214927396Y-16399459D01*
X214927190Y-16399500D01*
X200977710Y-16399500D01*
X200977504Y-16399459D01*
X200952948Y-16399459D01*
X200952757Y-16399538D01*
X200952569Y-16399615D01*
X200952565Y-16399618D01*
X200952409Y-16399999D01*
X200952426Y-16424616D01*
X200952421Y-16424616D01*
X200952450Y-16424760D01*
X200952450Y-30374540D01*
X200952409Y-30374746D01*
X200952409Y-30399300D01*
X195902491Y-30399300D01*
X195902491Y-30374746D01*
X195902450Y-30374540D01*
X195902450Y-16424760D01*
X195902478Y-16424616D01*
X195902474Y-16424616D01*
X195902489Y-16400002D01*
X195902491Y-16400000D01*
X195902411Y-16399808D01*
X195902334Y-16399618D01*
X195902330Y-16399614D01*
X195902144Y-16399538D01*
X195901952Y-16399459D01*
X195877396Y-16399459D01*
X195877190Y-16399500D01*
X181927710Y-16399500D01*
X181927504Y-16399459D01*
X181902948Y-16399459D01*
X181902757Y-16399538D01*
X181902569Y-16399615D01*
X181902565Y-16399618D01*
X181902409Y-16399999D01*
X181902426Y-16424616D01*
X181902421Y-16424616D01*
X181902450Y-16424760D01*
X181902450Y-30374540D01*
X181902409Y-30374746D01*
X181902409Y-30399300D01*
X176852491Y-30399300D01*
X176852491Y-30374746D01*
X176852450Y-30374540D01*
X176852450Y-16424760D01*
X176852478Y-16424616D01*
X176852474Y-16424616D01*
X176852489Y-16400002D01*
X176852491Y-16400000D01*
X176852411Y-16399808D01*
X176852334Y-16399618D01*
X176852330Y-16399614D01*
X176852144Y-16399538D01*
X176851952Y-16399459D01*
X176827396Y-16399459D01*
X176827190Y-16399500D01*
X162877710Y-16399500D01*
X162877504Y-16399459D01*
X162852948Y-16399459D01*
X162852757Y-16399538D01*
X162852569Y-16399615D01*
X162852565Y-16399618D01*
X162852409Y-16399999D01*
X162852426Y-16424616D01*
X162852421Y-16424616D01*
X162852450Y-16424760D01*
X162852450Y-30374540D01*
X162852409Y-30374746D01*
X162852409Y-30399300D01*
X157802491Y-30399300D01*
X157802491Y-30374746D01*
X157802450Y-30374540D01*
X157802450Y-16424760D01*
X157802478Y-16424616D01*
X157802474Y-16424616D01*
X157802489Y-16400002D01*
X157802491Y-16400000D01*
X157802411Y-16399808D01*
X157802334Y-16399618D01*
X157802330Y-16399614D01*
X157802144Y-16399538D01*
X157801952Y-16399459D01*
X157777396Y-16399459D01*
X157777190Y-16399500D01*
X143827710Y-16399500D01*
X143827504Y-16399459D01*
X143802948Y-16399459D01*
X143802757Y-16399538D01*
X143802569Y-16399615D01*
X143802565Y-16399618D01*
X143802409Y-16399999D01*
X143802426Y-16424616D01*
X143802421Y-16424616D01*
X143802450Y-16424760D01*
X143802450Y-30374540D01*
X143802409Y-30374746D01*
X143802409Y-30399300D01*
X138752491Y-30399300D01*
X138752491Y-30374746D01*
X138752450Y-30374540D01*
X138752450Y-16424760D01*
X138752478Y-16424616D01*
X138752474Y-16424616D01*
X138752489Y-16400002D01*
X138752491Y-16400000D01*
X138752412Y-16399808D01*
X138752334Y-16399618D01*
X138752330Y-16399614D01*
X138752144Y-16399538D01*
X138751952Y-16399459D01*
X138727396Y-16399459D01*
X138727190Y-16399500D01*
X124775710Y-16399500D01*
X124775504Y-16399459D01*
X124750948Y-16399459D01*
X124750757Y-16399538D01*
X124750569Y-16399615D01*
X124750565Y-16399618D01*
X124750409Y-16399999D01*
X124750426Y-16424616D01*
X124750421Y-16424616D01*
X124750450Y-16424760D01*
X124750450Y-30374540D01*
X124750409Y-30374746D01*
X124750409Y-30399300D01*
X119702491Y-30399300D01*
X119702491Y-30374746D01*
X119702450Y-30374540D01*
X119702450Y-16424760D01*
X119702478Y-16424616D01*
X119702474Y-16424616D01*
X119702489Y-16400002D01*
X119702491Y-16400000D01*
X119702412Y-16399808D01*
X119702334Y-16399618D01*
X119702330Y-16399614D01*
X119702144Y-16399538D01*
X119701952Y-16399459D01*
X119677396Y-16399459D01*
X119677190Y-16399500D01*
X105726010Y-16399500D01*
X105725804Y-16399459D01*
X105701248Y-16399459D01*
X105701057Y-16399538D01*
X105700869Y-16399615D01*
X105700865Y-16399618D01*
X105700709Y-16399999D01*
X105700726Y-16424616D01*
X105700721Y-16424616D01*
X105700750Y-16424760D01*
X105700750Y-30374540D01*
X105700709Y-30374746D01*
X105700709Y-30399300D01*
X100652491Y-30399300D01*
X100652491Y-30374746D01*
X100652450Y-30374540D01*
X100652450Y-16424760D01*
X100652478Y-16424616D01*
X100652474Y-16424616D01*
X100652489Y-16400002D01*
X100652491Y-16400000D01*
X100652412Y-16399808D01*
X100652334Y-16399618D01*
X100652330Y-16399614D01*
X100652144Y-16399538D01*
X100651952Y-16399459D01*
X100627396Y-16399459D01*
X100627190Y-16399500D01*
X86677410Y-16399500D01*
X86677204Y-16399459D01*
X86652648Y-16399459D01*
X86652457Y-16399538D01*
X86652269Y-16399615D01*
X86652265Y-16399618D01*
X86652109Y-16399999D01*
X86652126Y-16424616D01*
X86652121Y-16424616D01*
X86652150Y-16424760D01*
X86652150Y-30374540D01*
X86652109Y-30374746D01*
X86652109Y-30399300D01*
X81602491Y-30399300D01*
X81602491Y-30374746D01*
X81602450Y-30374540D01*
X81602450Y-16424760D01*
X81602478Y-16424616D01*
X81602474Y-16424616D01*
X81602489Y-16400002D01*
X81602491Y-16400000D01*
X81602412Y-16399808D01*
X81602334Y-16399618D01*
X81602330Y-16399614D01*
X81602144Y-16399538D01*
X81601952Y-16399459D01*
X81577396Y-16399459D01*
X81577190Y-16399500D01*
X67627410Y-16399500D01*
X67627204Y-16399459D01*
X67602648Y-16399459D01*
X67602457Y-16399538D01*
X67602269Y-16399615D01*
X67602265Y-16399618D01*
X67602109Y-16399999D01*
X67602126Y-16424616D01*
X67602121Y-16424616D01*
X67602150Y-16424760D01*
X67602150Y-30374540D01*
X67602109Y-30374746D01*
X67602109Y-30399300D01*
X62552491Y-30399300D01*
X62552491Y-30374746D01*
X62552450Y-30374540D01*
X62552450Y-16424760D01*
X62552478Y-16424616D01*
X62552474Y-16424616D01*
X62552489Y-16400002D01*
X62552491Y-16400000D01*
X62552412Y-16399808D01*
X62552334Y-16399618D01*
X62552330Y-16399614D01*
X62552144Y-16399538D01*
X62551952Y-16399459D01*
X62527396Y-16399459D01*
X62527190Y-16399500D01*
X48577410Y-16399500D01*
X48577204Y-16399459D01*
X48552648Y-16399459D01*
X48552457Y-16399538D01*
X48552269Y-16399615D01*
X48552265Y-16399618D01*
X48552109Y-16399999D01*
X48552126Y-16424616D01*
X48552121Y-16424616D01*
X48552150Y-16424760D01*
X48552150Y-30374540D01*
X48552109Y-30374746D01*
X48552109Y-30399300D01*
X43502491Y-30399300D01*
X43502491Y-30374746D01*
X43502450Y-30374540D01*
X43502450Y-16424760D01*
X43502478Y-16424616D01*
X43502474Y-16424616D01*
X43502489Y-16400002D01*
X43502491Y-16400000D01*
X43502412Y-16399808D01*
X43502334Y-16399618D01*
X43502330Y-16399614D01*
X43502144Y-16399538D01*
X43501952Y-16399459D01*
X43477396Y-16399459D01*
X43477190Y-16399500D01*
X29527410Y-16399500D01*
X29527204Y-16399459D01*
X29502648Y-16399459D01*
X29502457Y-16399538D01*
X29502269Y-16399615D01*
X29502265Y-16399618D01*
X29502109Y-16399999D01*
X29502126Y-16424616D01*
X29502121Y-16424616D01*
X29502150Y-16424760D01*
X29502150Y-30374540D01*
X29502109Y-30374746D01*
X29502109Y-30399300D01*
X24452691Y-30399300D01*
X24452691Y-30374746D01*
X24452650Y-30374540D01*
X24452650Y-16424760D01*
X24452678Y-16424616D01*
X24452674Y-16424616D01*
X24452689Y-16400002D01*
X24452691Y-16400000D01*
X24452612Y-16399808D01*
X24452534Y-16399618D01*
X24452530Y-16399614D01*
X24452344Y-16399538D01*
X24452152Y-16399459D01*
X24427596Y-16399459D01*
X24427390Y-16399500D01*
X10477360Y-16399500D01*
X10477154Y-16399459D01*
X10452598Y-16399459D01*
X10452407Y-16399538D01*
X10452219Y-16399615D01*
X10452215Y-16399618D01*
X10452059Y-16399999D01*
X10452076Y-16424616D01*
X10452071Y-16424616D01*
X10452100Y-16424760D01*
X10452100Y-30374540D01*
X10452059Y-30374746D01*
X10452059Y-30399300D01*
X500Y-30399300D01*
X500Y-13527964D01*
X1586587Y-13527964D01*
X1616213Y-13797216D01*
X1684728Y-14059287D01*
X1790671Y-14308592D01*
X1931782Y-14539811D01*
X2021053Y-14647081D01*
X2105055Y-14748020D01*
X2306798Y-14928782D01*
X2532710Y-15078244D01*
X2639011Y-15128075D01*
X2777977Y-15193221D01*
X3037362Y-15271258D01*
X3037369Y-15271260D01*
X3305361Y-15310700D01*
X3508431Y-15310700D01*
X3508434Y-15310700D01*
X3710956Y-15295877D01*
X3710956Y-15295876D01*
X3975353Y-15236980D01*
X4228358Y-15140214D01*
X4464577Y-15007641D01*
X4678977Y-14842088D01*
X4866986Y-14647081D01*
X5024599Y-14426779D01*
X5148456Y-14185875D01*
X5235918Y-13929505D01*
X5285119Y-13663133D01*
X5290059Y-13527964D01*
X287639087Y-13527964D01*
X287668713Y-13797216D01*
X287737228Y-14059287D01*
X287843171Y-14308592D01*
X287984282Y-14539811D01*
X288073553Y-14647081D01*
X288157555Y-14748020D01*
X288359298Y-14928782D01*
X288585210Y-15078244D01*
X288691511Y-15128075D01*
X288830477Y-15193221D01*
X289089862Y-15271258D01*
X289089869Y-15271260D01*
X289357861Y-15310700D01*
X289560931Y-15310700D01*
X289560934Y-15310700D01*
X289763456Y-15295877D01*
X289763456Y-15295876D01*
X290027853Y-15236980D01*
X290280858Y-15140214D01*
X290517077Y-15007641D01*
X290731477Y-14842088D01*
X290919486Y-14647081D01*
X291077099Y-14426779D01*
X291200956Y-14185875D01*
X291288418Y-13929505D01*
X291337619Y-13663133D01*
X291347512Y-13392435D01*
X291317886Y-13123182D01*
X291249372Y-12861112D01*
X291143430Y-12611810D01*
X291002318Y-12380590D01*
X291002317Y-12380588D01*
X290829046Y-12172381D01*
X290724058Y-12078312D01*
X290627302Y-11991618D01*
X290401390Y-11842156D01*
X290401386Y-11842154D01*
X290156122Y-11727178D01*
X289896737Y-11649141D01*
X289896731Y-11649140D01*
X289628739Y-11609700D01*
X289425669Y-11609700D01*
X289425666Y-11609700D01*
X289223143Y-11624522D01*
X288958749Y-11683419D01*
X288705741Y-11780186D01*
X288469523Y-11912759D01*
X288255125Y-12078309D01*
X288067113Y-12273320D01*
X287909501Y-12493620D01*
X287785642Y-12734529D01*
X287698181Y-12990895D01*
X287648980Y-13257266D01*
X287639087Y-13527964D01*
X5290059Y-13527964D01*
X5295012Y-13392435D01*
X5265386Y-13123182D01*
X5196872Y-12861112D01*
X5090930Y-12611810D01*
X4949818Y-12380590D01*
X4949817Y-12380588D01*
X4776546Y-12172381D01*
X4671558Y-12078312D01*
X4574802Y-11991618D01*
X4348890Y-11842156D01*
X4348886Y-11842154D01*
X4103622Y-11727178D01*
X3844237Y-11649141D01*
X3844231Y-11649140D01*
X3576239Y-11609700D01*
X3373169Y-11609700D01*
X3373166Y-11609700D01*
X3170643Y-11624522D01*
X2906249Y-11683419D01*
X2653241Y-11780186D01*
X2417023Y-11912759D01*
X2202625Y-12078309D01*
X2014613Y-12273320D01*
X1857001Y-12493620D01*
X1733142Y-12734529D01*
X1645681Y-12990895D01*
X1596480Y-13257266D01*
X1586587Y-13527964D01*
X500Y-13527964D01*
X500Y-8767964D01*
X104783387Y-8767964D01*
X104813013Y-9037216D01*
X104881528Y-9299287D01*
X104987471Y-9548592D01*
X105128582Y-9779811D01*
X105217853Y-9887081D01*
X105301855Y-9988020D01*
X105503598Y-10168782D01*
X105729510Y-10318244D01*
X105835811Y-10368076D01*
X105974777Y-10433221D01*
X106234162Y-10511258D01*
X106234169Y-10511260D01*
X106502161Y-10550700D01*
X106705231Y-10550700D01*
X106705234Y-10550700D01*
X106907756Y-10535877D01*
X106907755Y-10535877D01*
X107172153Y-10476980D01*
X107425158Y-10380214D01*
X107661377Y-10247641D01*
X107875777Y-10082088D01*
X108063786Y-9887081D01*
X108221399Y-9666779D01*
X108345256Y-9425875D01*
X108432718Y-9169505D01*
X108481919Y-8903133D01*
X108486859Y-8767964D01*
X184773787Y-8767964D01*
X184803413Y-9037216D01*
X184871928Y-9299287D01*
X184977871Y-9548592D01*
X185118982Y-9779811D01*
X185208253Y-9887081D01*
X185292255Y-9988020D01*
X185493998Y-10168782D01*
X185719910Y-10318244D01*
X185826211Y-10368076D01*
X185965177Y-10433221D01*
X186224562Y-10511258D01*
X186224569Y-10511260D01*
X186492561Y-10550700D01*
X186695631Y-10550700D01*
X186695634Y-10550700D01*
X186898156Y-10535877D01*
X186898155Y-10535877D01*
X187162553Y-10476980D01*
X187415558Y-10380214D01*
X187651777Y-10247641D01*
X187866177Y-10082088D01*
X188054186Y-9887081D01*
X188211799Y-9666779D01*
X188335656Y-9425875D01*
X188423118Y-9169505D01*
X188472319Y-8903133D01*
X188482212Y-8632435D01*
X188452586Y-8363182D01*
X188384072Y-8101112D01*
X188278130Y-7851810D01*
X188137018Y-7620590D01*
X188137017Y-7620588D01*
X187963746Y-7412381D01*
X187858758Y-7318312D01*
X187762002Y-7231618D01*
X187536090Y-7082156D01*
X187536086Y-7082154D01*
X187290822Y-6967178D01*
X187031437Y-6889141D01*
X187031431Y-6889140D01*
X186763439Y-6849700D01*
X186560369Y-6849700D01*
X186560366Y-6849700D01*
X186357843Y-6864522D01*
X186093449Y-6923419D01*
X185840441Y-7020186D01*
X185604223Y-7152759D01*
X185389825Y-7318309D01*
X185201813Y-7513320D01*
X185044201Y-7733620D01*
X184920342Y-7974529D01*
X184832881Y-8230895D01*
X184783680Y-8497266D01*
X184773787Y-8767964D01*
X108486859Y-8767964D01*
X108491812Y-8632435D01*
X108462186Y-8363182D01*
X108393672Y-8101112D01*
X108287730Y-7851810D01*
X108146618Y-7620590D01*
X108146617Y-7620588D01*
X107973346Y-7412381D01*
X107868358Y-7318312D01*
X107771602Y-7231618D01*
X107545690Y-7082156D01*
X107545686Y-7082154D01*
X107300422Y-6967178D01*
X107041037Y-6889141D01*
X107041031Y-6889140D01*
X106773039Y-6849700D01*
X106569969Y-6849700D01*
X106569966Y-6849700D01*
X106367443Y-6864522D01*
X106103049Y-6923419D01*
X105850041Y-7020186D01*
X105613823Y-7152759D01*
X105399425Y-7318309D01*
X105211413Y-7513320D01*
X105053801Y-7733620D01*
X104929942Y-7974529D01*
X104842481Y-8230895D01*
X104793280Y-8497266D01*
X104783387Y-8767964D01*
X500Y-8767964D01*
X500Y-124500D01*
X17113Y-62500D01*
X62500Y-17113D01*
X124500Y-500D01*
X292975500Y-500D01*
X293037500Y-17113D01*
G37*
%TD.AperFunction*%
M02*
