%TF.GenerationSoftware,KiCad,Pcbnew,7.0.1*%
%TF.CreationDate,2023-10-19T22:59:00+03:00*%
%TF.ProjectId,keyboard_cherry_panel,6b657962-6f61-4726-945f-636865727279,rev?*%
%TF.SameCoordinates,Original*%
%TF.FileFunction,Legend,Bot*%
%TF.FilePolarity,Positive*%
%FSLAX46Y46*%
G04 Gerber Fmt 4.6, Leading zero omitted, Abs format (unit mm)*
G04 Created by KiCad (PCBNEW 7.0.1) date 2023-10-19 22:59:00*
%MOMM*%
%LPD*%
G01*
G04 APERTURE LIST*
%ADD10C,1.000000*%
%ADD11C,0.300000*%
G04 APERTURE END LIST*
D10*
X34642857Y-4769047D02*
X33928571Y-5007142D01*
X33928571Y-5007142D02*
X33690476Y-5245238D01*
X33690476Y-5245238D02*
X33452380Y-5721428D01*
X33452380Y-5721428D02*
X33452380Y-6435714D01*
X33452380Y-6435714D02*
X33690476Y-6911904D01*
X33690476Y-6911904D02*
X33928571Y-7150000D01*
X33928571Y-7150000D02*
X34404761Y-7388095D01*
X34404761Y-7388095D02*
X36309523Y-7388095D01*
X36309523Y-7388095D02*
X36309523Y-2388095D01*
X36309523Y-2388095D02*
X34642857Y-2388095D01*
X34642857Y-2388095D02*
X34166666Y-2626190D01*
X34166666Y-2626190D02*
X33928571Y-2864285D01*
X33928571Y-2864285D02*
X33690476Y-3340476D01*
X33690476Y-3340476D02*
X33690476Y-3816666D01*
X33690476Y-3816666D02*
X33928571Y-4292857D01*
X33928571Y-4292857D02*
X34166666Y-4530952D01*
X34166666Y-4530952D02*
X34642857Y-4769047D01*
X34642857Y-4769047D02*
X36309523Y-4769047D01*
X30357142Y-2388095D02*
X29404761Y-2388095D01*
X29404761Y-2388095D02*
X28928571Y-2626190D01*
X28928571Y-2626190D02*
X28452380Y-3102380D01*
X28452380Y-3102380D02*
X28214285Y-4054761D01*
X28214285Y-4054761D02*
X28214285Y-5721428D01*
X28214285Y-5721428D02*
X28452380Y-6673809D01*
X28452380Y-6673809D02*
X28928571Y-7150000D01*
X28928571Y-7150000D02*
X29404761Y-7388095D01*
X29404761Y-7388095D02*
X30357142Y-7388095D01*
X30357142Y-7388095D02*
X30833333Y-7150000D01*
X30833333Y-7150000D02*
X31309523Y-6673809D01*
X31309523Y-6673809D02*
X31547619Y-5721428D01*
X31547619Y-5721428D02*
X31547619Y-4054761D01*
X31547619Y-4054761D02*
X31309523Y-3102380D01*
X31309523Y-3102380D02*
X30833333Y-2626190D01*
X30833333Y-2626190D02*
X30357142Y-2388095D01*
X26785714Y-2388095D02*
X23928571Y-2388095D01*
X25357143Y-7388095D02*
X25357143Y-2388095D01*
X22976190Y-2388095D02*
X20119047Y-2388095D01*
X21547619Y-7388095D02*
X21547619Y-2388095D01*
X17499999Y-2388095D02*
X16547618Y-2388095D01*
X16547618Y-2388095D02*
X16071428Y-2626190D01*
X16071428Y-2626190D02*
X15595237Y-3102380D01*
X15595237Y-3102380D02*
X15357142Y-4054761D01*
X15357142Y-4054761D02*
X15357142Y-5721428D01*
X15357142Y-5721428D02*
X15595237Y-6673809D01*
X15595237Y-6673809D02*
X16071428Y-7150000D01*
X16071428Y-7150000D02*
X16547618Y-7388095D01*
X16547618Y-7388095D02*
X17499999Y-7388095D01*
X17499999Y-7388095D02*
X17976190Y-7150000D01*
X17976190Y-7150000D02*
X18452380Y-6673809D01*
X18452380Y-6673809D02*
X18690476Y-5721428D01*
X18690476Y-5721428D02*
X18690476Y-4054761D01*
X18690476Y-4054761D02*
X18452380Y-3102380D01*
X18452380Y-3102380D02*
X17976190Y-2626190D01*
X17976190Y-2626190D02*
X17499999Y-2388095D01*
X13214285Y-7388095D02*
X13214285Y-2388095D01*
X13214285Y-2388095D02*
X11547619Y-5959523D01*
X11547619Y-5959523D02*
X9880952Y-2388095D01*
X9880952Y-2388095D02*
X9880952Y-7388095D01*
D11*
X261595457Y-2566428D02*
X261595457Y-1066428D01*
X260738314Y-2566428D02*
X261381171Y-1709285D01*
X260738314Y-1066428D02*
X261595457Y-1923571D01*
X259524028Y-2566428D02*
X259524028Y-1566428D01*
X259524028Y-1566428D02*
X259738314Y-1566428D01*
X259738314Y-1566428D02*
X259881171Y-1637857D01*
X259881171Y-1637857D02*
X259952600Y-1780714D01*
X259952600Y-1780714D02*
X260024028Y-2352142D01*
X260024028Y-2352142D02*
X260095457Y-2495000D01*
X260095457Y-2495000D02*
X260238314Y-2566428D01*
X258166886Y-2566428D02*
X258166886Y-1780714D01*
X258166886Y-1780714D02*
X258238314Y-1637857D01*
X258238314Y-1637857D02*
X258381171Y-1566428D01*
X258381171Y-1566428D02*
X258666886Y-1566428D01*
X258666886Y-1566428D02*
X258809743Y-1637857D01*
X258166886Y-2495000D02*
X258309743Y-2566428D01*
X258309743Y-2566428D02*
X258666886Y-2566428D01*
X258666886Y-2566428D02*
X258809743Y-2495000D01*
X258809743Y-2495000D02*
X258881171Y-2352142D01*
X258881171Y-2352142D02*
X258881171Y-2209285D01*
X258881171Y-2209285D02*
X258809743Y-2066428D01*
X258809743Y-2066428D02*
X258666886Y-1995000D01*
X258666886Y-1995000D02*
X258309743Y-1995000D01*
X258309743Y-1995000D02*
X258166886Y-1923571D01*
X257095457Y-2066428D02*
X256881171Y-2137857D01*
X256881171Y-2137857D02*
X256809743Y-2280714D01*
X256809743Y-2280714D02*
X256809743Y-2352142D01*
X256809743Y-2352142D02*
X256881171Y-2495000D01*
X256881171Y-2495000D02*
X257024028Y-2566428D01*
X257024028Y-2566428D02*
X257452600Y-2566428D01*
X257452600Y-2566428D02*
X257452600Y-1566428D01*
X257452600Y-1566428D02*
X257095457Y-1566428D01*
X257095457Y-1566428D02*
X256952600Y-1637857D01*
X256952600Y-1637857D02*
X256881171Y-1780714D01*
X256881171Y-1780714D02*
X256881171Y-1852142D01*
X256881171Y-1852142D02*
X256952600Y-1995000D01*
X256952600Y-1995000D02*
X257095457Y-2066428D01*
X257095457Y-2066428D02*
X257452600Y-2066428D01*
X256166886Y-1566428D02*
X256166886Y-2566428D01*
X256166886Y-2566428D02*
X255452600Y-1566428D01*
X255452600Y-1566428D02*
X255452600Y-2566428D01*
X254095458Y-2566428D02*
X254095458Y-1780714D01*
X254095458Y-1780714D02*
X254166886Y-1637857D01*
X254166886Y-1637857D02*
X254309743Y-1566428D01*
X254309743Y-1566428D02*
X254595458Y-1566428D01*
X254595458Y-1566428D02*
X254738315Y-1637857D01*
X254095458Y-2495000D02*
X254238315Y-2566428D01*
X254238315Y-2566428D02*
X254595458Y-2566428D01*
X254595458Y-2566428D02*
X254738315Y-2495000D01*
X254738315Y-2495000D02*
X254809743Y-2352142D01*
X254809743Y-2352142D02*
X254809743Y-2209285D01*
X254809743Y-2209285D02*
X254738315Y-2066428D01*
X254738315Y-2066428D02*
X254595458Y-1995000D01*
X254595458Y-1995000D02*
X254238315Y-1995000D01*
X254238315Y-1995000D02*
X254095458Y-1923571D01*
X253595457Y-1566428D02*
X252881172Y-1566428D01*
X253238315Y-1566428D02*
X253238315Y-2566428D01*
X252524029Y-1566428D02*
X252166886Y-2566428D01*
X251809743Y-1566428D02*
X252166886Y-2566428D01*
X252166886Y-2566428D02*
X252309743Y-2923571D01*
X252309743Y-2923571D02*
X252381172Y-2995000D01*
X252381172Y-2995000D02*
X252524029Y-3066428D01*
X251238315Y-1566428D02*
X251238315Y-3066428D01*
X251238315Y-1637857D02*
X251095458Y-1566428D01*
X251095458Y-1566428D02*
X250809743Y-1566428D01*
X250809743Y-1566428D02*
X250666886Y-1637857D01*
X250666886Y-1637857D02*
X250595458Y-1709285D01*
X250595458Y-1709285D02*
X250524029Y-1852142D01*
X250524029Y-1852142D02*
X250524029Y-2280714D01*
X250524029Y-2280714D02*
X250595458Y-2423571D01*
X250595458Y-2423571D02*
X250666886Y-2495000D01*
X250666886Y-2495000D02*
X250809743Y-2566428D01*
X250809743Y-2566428D02*
X251095458Y-2566428D01*
X251095458Y-2566428D02*
X251238315Y-2495000D01*
X249238315Y-2566428D02*
X249238315Y-1780714D01*
X249238315Y-1780714D02*
X249309743Y-1637857D01*
X249309743Y-1637857D02*
X249452600Y-1566428D01*
X249452600Y-1566428D02*
X249738315Y-1566428D01*
X249738315Y-1566428D02*
X249881172Y-1637857D01*
X249238315Y-2495000D02*
X249381172Y-2566428D01*
X249381172Y-2566428D02*
X249738315Y-2566428D01*
X249738315Y-2566428D02*
X249881172Y-2495000D01*
X249881172Y-2495000D02*
X249952600Y-2352142D01*
X249952600Y-2352142D02*
X249952600Y-2209285D01*
X249952600Y-2209285D02*
X249881172Y-2066428D01*
X249881172Y-2066428D02*
X249738315Y-1995000D01*
X249738315Y-1995000D02*
X249381172Y-1995000D01*
X249381172Y-1995000D02*
X249238315Y-1923571D01*
X246666886Y-1066428D02*
X247381172Y-1066428D01*
X247381172Y-1066428D02*
X247381172Y-2566428D01*
X247381172Y-2566428D02*
X246952600Y-2566428D01*
X246952600Y-2566428D02*
X246738315Y-2495000D01*
X246738315Y-2495000D02*
X246595457Y-2352142D01*
X246595457Y-2352142D02*
X246524029Y-2209285D01*
X246524029Y-2209285D02*
X246524029Y-1995000D01*
X246524029Y-1995000D02*
X246595457Y-1852142D01*
X246595457Y-1852142D02*
X246738315Y-1709285D01*
X246738315Y-1709285D02*
X246952600Y-1637857D01*
X246952600Y-1637857D02*
X247381172Y-1637857D01*
X245881172Y-2566428D02*
X245881172Y-1066428D01*
X245881172Y-1066428D02*
X245024029Y-1066428D01*
X245024029Y-1066428D02*
X245024029Y-2566428D01*
X244309743Y-2566428D02*
X244309743Y-1066428D01*
X243452600Y-2566428D02*
X244095457Y-1709285D01*
X243452600Y-1066428D02*
X244309743Y-1923571D01*
X241738314Y-1066428D02*
X241738314Y-1352142D01*
X241166886Y-1066428D02*
X241166886Y-1352142D01*
X239381172Y-2923571D02*
X239381172Y-2566428D01*
X239381172Y-2566428D02*
X240666886Y-2566428D01*
X240666886Y-2566428D02*
X240666886Y-2923571D01*
X239666886Y-2566428D02*
X239666886Y-1066428D01*
X239666886Y-1066428D02*
X240024029Y-1066428D01*
X240024029Y-1066428D02*
X240166886Y-1137857D01*
X240166886Y-1137857D02*
X240238314Y-1209285D01*
X240238314Y-1209285D02*
X240309743Y-1352142D01*
X240309743Y-1352142D02*
X240452600Y-2566428D01*
X238238314Y-2495000D02*
X238381171Y-2566428D01*
X238381171Y-2566428D02*
X238666886Y-2566428D01*
X238666886Y-2566428D02*
X238809743Y-2495000D01*
X238809743Y-2495000D02*
X238881171Y-2352142D01*
X238881171Y-2352142D02*
X238881171Y-1780714D01*
X238881171Y-1780714D02*
X238809743Y-1637857D01*
X238809743Y-1637857D02*
X238666886Y-1566428D01*
X238666886Y-1566428D02*
X238381171Y-1566428D01*
X238381171Y-1566428D02*
X238238314Y-1637857D01*
X238238314Y-1637857D02*
X238166886Y-1780714D01*
X238166886Y-1780714D02*
X238166886Y-1923571D01*
X238166886Y-1923571D02*
X238881171Y-2066428D01*
X236952600Y-2566428D02*
X236952600Y-1566428D01*
X236952600Y-1566428D02*
X237166886Y-1566428D01*
X237166886Y-1566428D02*
X237309743Y-1637857D01*
X237309743Y-1637857D02*
X237381172Y-1780714D01*
X237381172Y-1780714D02*
X237452600Y-2352142D01*
X237452600Y-2352142D02*
X237524029Y-2495000D01*
X237524029Y-2495000D02*
X237666886Y-2566428D01*
X236238315Y-1566428D02*
X236238315Y-2566428D01*
X236238315Y-2566428D02*
X235881172Y-2566428D01*
X235881172Y-2566428D02*
X235738315Y-2495000D01*
X235738315Y-2495000D02*
X235666886Y-2352142D01*
X235666886Y-2352142D02*
X235666886Y-2137857D01*
X235666886Y-2137857D02*
X235738315Y-1995000D01*
X235738315Y-1995000D02*
X235881172Y-1923571D01*
X235881172Y-1923571D02*
X236238315Y-1923571D01*
X235238314Y-1566428D02*
X234524029Y-1566428D01*
X234881172Y-1566428D02*
X234881172Y-2566428D01*
X233381172Y-2566428D02*
X233381172Y-1780714D01*
X233381172Y-1780714D02*
X233452600Y-1637857D01*
X233452600Y-1637857D02*
X233595457Y-1566428D01*
X233595457Y-1566428D02*
X233881172Y-1566428D01*
X233881172Y-1566428D02*
X234024029Y-1637857D01*
X233381172Y-2495000D02*
X233524029Y-2566428D01*
X233524029Y-2566428D02*
X233881172Y-2566428D01*
X233881172Y-2566428D02*
X234024029Y-2495000D01*
X234024029Y-2495000D02*
X234095457Y-2352142D01*
X234095457Y-2352142D02*
X234095457Y-2209285D01*
X234095457Y-2209285D02*
X234024029Y-2066428D01*
X234024029Y-2066428D02*
X233881172Y-1995000D01*
X233881172Y-1995000D02*
X233524029Y-1995000D01*
X233524029Y-1995000D02*
X233381172Y-1923571D01*
X232666886Y-1995000D02*
X231524029Y-1995000D01*
X229952600Y-2423571D02*
X230024028Y-2495000D01*
X230024028Y-2495000D02*
X230238314Y-2566428D01*
X230238314Y-2566428D02*
X230381171Y-2566428D01*
X230381171Y-2566428D02*
X230595457Y-2495000D01*
X230595457Y-2495000D02*
X230738314Y-2352142D01*
X230738314Y-2352142D02*
X230809743Y-2209285D01*
X230809743Y-2209285D02*
X230881171Y-1923571D01*
X230881171Y-1923571D02*
X230881171Y-1709285D01*
X230881171Y-1709285D02*
X230809743Y-1423571D01*
X230809743Y-1423571D02*
X230738314Y-1280714D01*
X230738314Y-1280714D02*
X230595457Y-1137857D01*
X230595457Y-1137857D02*
X230381171Y-1066428D01*
X230381171Y-1066428D02*
X230238314Y-1066428D01*
X230238314Y-1066428D02*
X230024028Y-1137857D01*
X230024028Y-1137857D02*
X229952600Y-1209285D01*
X229381171Y-1066428D02*
X229381171Y-1352142D01*
X228809743Y-1066428D02*
X228809743Y-1352142D01*
X225952600Y-995000D02*
X227238314Y-2923571D01*
X224309743Y-2566428D02*
X224309743Y-1066428D01*
X224309743Y-1066428D02*
X223952600Y-1066428D01*
X223952600Y-1066428D02*
X223738314Y-1137857D01*
X223738314Y-1137857D02*
X223595457Y-1280714D01*
X223595457Y-1280714D02*
X223524028Y-1423571D01*
X223524028Y-1423571D02*
X223452600Y-1709285D01*
X223452600Y-1709285D02*
X223452600Y-1923571D01*
X223452600Y-1923571D02*
X223524028Y-2209285D01*
X223524028Y-2209285D02*
X223595457Y-2352142D01*
X223595457Y-2352142D02*
X223738314Y-2495000D01*
X223738314Y-2495000D02*
X223952600Y-2566428D01*
X223952600Y-2566428D02*
X224309743Y-2566428D01*
X222238314Y-2495000D02*
X222381171Y-2566428D01*
X222381171Y-2566428D02*
X222666886Y-2566428D01*
X222666886Y-2566428D02*
X222809743Y-2495000D01*
X222809743Y-2495000D02*
X222881171Y-2352142D01*
X222881171Y-2352142D02*
X222881171Y-1780714D01*
X222881171Y-1780714D02*
X222809743Y-1637857D01*
X222809743Y-1637857D02*
X222666886Y-1566428D01*
X222666886Y-1566428D02*
X222381171Y-1566428D01*
X222381171Y-1566428D02*
X222238314Y-1637857D01*
X222238314Y-1637857D02*
X222166886Y-1780714D01*
X222166886Y-1780714D02*
X222166886Y-1923571D01*
X222166886Y-1923571D02*
X222881171Y-2066428D01*
X221309743Y-2566428D02*
X221452600Y-2495000D01*
X221452600Y-2495000D02*
X221524029Y-2352142D01*
X221524029Y-2352142D02*
X221524029Y-1066428D01*
X220952600Y-1566428D02*
X220381172Y-1566428D01*
X220738315Y-1066428D02*
X220738315Y-2352142D01*
X220738315Y-2352142D02*
X220666886Y-2495000D01*
X220666886Y-2495000D02*
X220524029Y-2566428D01*
X220524029Y-2566428D02*
X220381172Y-2566428D01*
X219238315Y-2566428D02*
X219238315Y-1780714D01*
X219238315Y-1780714D02*
X219309743Y-1637857D01*
X219309743Y-1637857D02*
X219452600Y-1566428D01*
X219452600Y-1566428D02*
X219738315Y-1566428D01*
X219738315Y-1566428D02*
X219881172Y-1637857D01*
X219238315Y-2495000D02*
X219381172Y-2566428D01*
X219381172Y-2566428D02*
X219738315Y-2566428D01*
X219738315Y-2566428D02*
X219881172Y-2495000D01*
X219881172Y-2495000D02*
X219952600Y-2352142D01*
X219952600Y-2352142D02*
X219952600Y-2209285D01*
X219952600Y-2209285D02*
X219881172Y-2066428D01*
X219881172Y-2066428D02*
X219738315Y-1995000D01*
X219738315Y-1995000D02*
X219381172Y-1995000D01*
X219381172Y-1995000D02*
X219238315Y-1923571D01*
X218524029Y-1995000D02*
X217381172Y-1995000D01*
X216738314Y-2495000D02*
X216524029Y-2566428D01*
X216524029Y-2566428D02*
X216166886Y-2566428D01*
X216166886Y-2566428D02*
X216024029Y-2495000D01*
X216024029Y-2495000D02*
X215952600Y-2423571D01*
X215952600Y-2423571D02*
X215881171Y-2280714D01*
X215881171Y-2280714D02*
X215881171Y-2137857D01*
X215881171Y-2137857D02*
X215952600Y-1995000D01*
X215952600Y-1995000D02*
X216024029Y-1923571D01*
X216024029Y-1923571D02*
X216166886Y-1852142D01*
X216166886Y-1852142D02*
X216452600Y-1780714D01*
X216452600Y-1780714D02*
X216595457Y-1709285D01*
X216595457Y-1709285D02*
X216666886Y-1637857D01*
X216666886Y-1637857D02*
X216738314Y-1495000D01*
X216738314Y-1495000D02*
X216738314Y-1352142D01*
X216738314Y-1352142D02*
X216666886Y-1209285D01*
X216666886Y-1209285D02*
X216595457Y-1137857D01*
X216595457Y-1137857D02*
X216452600Y-1066428D01*
X216452600Y-1066428D02*
X216095457Y-1066428D01*
X216095457Y-1066428D02*
X215881171Y-1137857D01*
X214095458Y-2566428D02*
X214095458Y-1066428D01*
X213238315Y-2566428D02*
X213881172Y-1709285D01*
X213238315Y-1066428D02*
X214095458Y-1923571D01*
X212024029Y-2495000D02*
X212166886Y-2566428D01*
X212166886Y-2566428D02*
X212452601Y-2566428D01*
X212452601Y-2566428D02*
X212595458Y-2495000D01*
X212595458Y-2495000D02*
X212666886Y-2352142D01*
X212666886Y-2352142D02*
X212666886Y-1780714D01*
X212666886Y-1780714D02*
X212595458Y-1637857D01*
X212595458Y-1637857D02*
X212452601Y-1566428D01*
X212452601Y-1566428D02*
X212166886Y-1566428D01*
X212166886Y-1566428D02*
X212024029Y-1637857D01*
X212024029Y-1637857D02*
X211952601Y-1780714D01*
X211952601Y-1780714D02*
X211952601Y-1923571D01*
X211952601Y-1923571D02*
X212666886Y-2066428D01*
X211452601Y-1566428D02*
X211095458Y-2566428D01*
X210738315Y-1566428D02*
X211095458Y-2566428D01*
X211095458Y-2566428D02*
X211238315Y-2923571D01*
X211238315Y-2923571D02*
X211309744Y-2995000D01*
X211309744Y-2995000D02*
X211452601Y-3066428D01*
X210166887Y-2566428D02*
X210166887Y-1066428D01*
X210166887Y-1637857D02*
X210024030Y-1566428D01*
X210024030Y-1566428D02*
X209738315Y-1566428D01*
X209738315Y-1566428D02*
X209595458Y-1637857D01*
X209595458Y-1637857D02*
X209524030Y-1709285D01*
X209524030Y-1709285D02*
X209452601Y-1852142D01*
X209452601Y-1852142D02*
X209452601Y-2280714D01*
X209452601Y-2280714D02*
X209524030Y-2423571D01*
X209524030Y-2423571D02*
X209595458Y-2495000D01*
X209595458Y-2495000D02*
X209738315Y-2566428D01*
X209738315Y-2566428D02*
X210024030Y-2566428D01*
X210024030Y-2566428D02*
X210166887Y-2495000D01*
X208595458Y-2566428D02*
X208738315Y-2495000D01*
X208738315Y-2495000D02*
X208809744Y-2423571D01*
X208809744Y-2423571D02*
X208881172Y-2280714D01*
X208881172Y-2280714D02*
X208881172Y-1852142D01*
X208881172Y-1852142D02*
X208809744Y-1709285D01*
X208809744Y-1709285D02*
X208738315Y-1637857D01*
X208738315Y-1637857D02*
X208595458Y-1566428D01*
X208595458Y-1566428D02*
X208381172Y-1566428D01*
X208381172Y-1566428D02*
X208238315Y-1637857D01*
X208238315Y-1637857D02*
X208166887Y-1709285D01*
X208166887Y-1709285D02*
X208095458Y-1852142D01*
X208095458Y-1852142D02*
X208095458Y-2280714D01*
X208095458Y-2280714D02*
X208166887Y-2423571D01*
X208166887Y-2423571D02*
X208238315Y-2495000D01*
X208238315Y-2495000D02*
X208381172Y-2566428D01*
X208381172Y-2566428D02*
X208595458Y-2566428D01*
X206809744Y-2566428D02*
X206809744Y-1780714D01*
X206809744Y-1780714D02*
X206881172Y-1637857D01*
X206881172Y-1637857D02*
X207024029Y-1566428D01*
X207024029Y-1566428D02*
X207309744Y-1566428D01*
X207309744Y-1566428D02*
X207452601Y-1637857D01*
X206809744Y-2495000D02*
X206952601Y-2566428D01*
X206952601Y-2566428D02*
X207309744Y-2566428D01*
X207309744Y-2566428D02*
X207452601Y-2495000D01*
X207452601Y-2495000D02*
X207524029Y-2352142D01*
X207524029Y-2352142D02*
X207524029Y-2209285D01*
X207524029Y-2209285D02*
X207452601Y-2066428D01*
X207452601Y-2066428D02*
X207309744Y-1995000D01*
X207309744Y-1995000D02*
X206952601Y-1995000D01*
X206952601Y-1995000D02*
X206809744Y-1923571D01*
X206095458Y-2566428D02*
X206095458Y-1566428D01*
X206095458Y-1852142D02*
X206024029Y-1709285D01*
X206024029Y-1709285D02*
X205952601Y-1637857D01*
X205952601Y-1637857D02*
X205809743Y-1566428D01*
X205809743Y-1566428D02*
X205666886Y-1566428D01*
X204524030Y-2566428D02*
X204524030Y-1066428D01*
X204524030Y-2495000D02*
X204666887Y-2566428D01*
X204666887Y-2566428D02*
X204952601Y-2566428D01*
X204952601Y-2566428D02*
X205095458Y-2495000D01*
X205095458Y-2495000D02*
X205166887Y-2423571D01*
X205166887Y-2423571D02*
X205238315Y-2280714D01*
X205238315Y-2280714D02*
X205238315Y-1852142D01*
X205238315Y-1852142D02*
X205166887Y-1709285D01*
X205166887Y-1709285D02*
X205095458Y-1637857D01*
X205095458Y-1637857D02*
X204952601Y-1566428D01*
X204952601Y-1566428D02*
X204666887Y-1566428D01*
X204666887Y-1566428D02*
X204524030Y-1637857D01*
X202238315Y-3137857D02*
X202309744Y-3066428D01*
X202309744Y-3066428D02*
X202452601Y-2852142D01*
X202452601Y-2852142D02*
X202524030Y-2709285D01*
X202524030Y-2709285D02*
X202595458Y-2495000D01*
X202595458Y-2495000D02*
X202666887Y-2137857D01*
X202666887Y-2137857D02*
X202666887Y-1852142D01*
X202666887Y-1852142D02*
X202595458Y-1495000D01*
X202595458Y-1495000D02*
X202524030Y-1280714D01*
X202524030Y-1280714D02*
X202452601Y-1137857D01*
X202452601Y-1137857D02*
X202309744Y-923571D01*
X202309744Y-923571D02*
X202238315Y-852142D01*
X201666887Y-2566428D02*
X201666887Y-1066428D01*
X201666887Y-1066428D02*
X201095458Y-1066428D01*
X201095458Y-1066428D02*
X200952601Y-1137857D01*
X200952601Y-1137857D02*
X200881172Y-1209285D01*
X200881172Y-1209285D02*
X200809744Y-1352142D01*
X200809744Y-1352142D02*
X200809744Y-1566428D01*
X200809744Y-1566428D02*
X200881172Y-1709285D01*
X200881172Y-1709285D02*
X200952601Y-1780714D01*
X200952601Y-1780714D02*
X201095458Y-1852142D01*
X201095458Y-1852142D02*
X201666887Y-1852142D01*
X199524030Y-2566428D02*
X199524030Y-1780714D01*
X199524030Y-1780714D02*
X199595458Y-1637857D01*
X199595458Y-1637857D02*
X199738315Y-1566428D01*
X199738315Y-1566428D02*
X200024030Y-1566428D01*
X200024030Y-1566428D02*
X200166887Y-1637857D01*
X199524030Y-2495000D02*
X199666887Y-2566428D01*
X199666887Y-2566428D02*
X200024030Y-2566428D01*
X200024030Y-2566428D02*
X200166887Y-2495000D01*
X200166887Y-2495000D02*
X200238315Y-2352142D01*
X200238315Y-2352142D02*
X200238315Y-2209285D01*
X200238315Y-2209285D02*
X200166887Y-2066428D01*
X200166887Y-2066428D02*
X200024030Y-1995000D01*
X200024030Y-1995000D02*
X199666887Y-1995000D01*
X199666887Y-1995000D02*
X199524030Y-1923571D01*
X198809744Y-1566428D02*
X198809744Y-2566428D01*
X198809744Y-1709285D02*
X198738315Y-1637857D01*
X198738315Y-1637857D02*
X198595458Y-1566428D01*
X198595458Y-1566428D02*
X198381172Y-1566428D01*
X198381172Y-1566428D02*
X198238315Y-1637857D01*
X198238315Y-1637857D02*
X198166887Y-1780714D01*
X198166887Y-1780714D02*
X198166887Y-2566428D01*
X196881172Y-2495000D02*
X197024029Y-2566428D01*
X197024029Y-2566428D02*
X197309744Y-2566428D01*
X197309744Y-2566428D02*
X197452601Y-2495000D01*
X197452601Y-2495000D02*
X197524029Y-2352142D01*
X197524029Y-2352142D02*
X197524029Y-1780714D01*
X197524029Y-1780714D02*
X197452601Y-1637857D01*
X197452601Y-1637857D02*
X197309744Y-1566428D01*
X197309744Y-1566428D02*
X197024029Y-1566428D01*
X197024029Y-1566428D02*
X196881172Y-1637857D01*
X196881172Y-1637857D02*
X196809744Y-1780714D01*
X196809744Y-1780714D02*
X196809744Y-1923571D01*
X196809744Y-1923571D02*
X197524029Y-2066428D01*
X195952601Y-2566428D02*
X196095458Y-2495000D01*
X196095458Y-2495000D02*
X196166887Y-2352142D01*
X196166887Y-2352142D02*
X196166887Y-1066428D01*
X195524030Y-3137857D02*
X195452601Y-3066428D01*
X195452601Y-3066428D02*
X195309744Y-2852142D01*
X195309744Y-2852142D02*
X195238316Y-2709285D01*
X195238316Y-2709285D02*
X195166887Y-2495000D01*
X195166887Y-2495000D02*
X195095458Y-2137857D01*
X195095458Y-2137857D02*
X195095458Y-1852142D01*
X195095458Y-1852142D02*
X195166887Y-1495000D01*
X195166887Y-1495000D02*
X195238316Y-1280714D01*
X195238316Y-1280714D02*
X195309744Y-1137857D01*
X195309744Y-1137857D02*
X195452601Y-923571D01*
X195452601Y-923571D02*
X195524030Y-852142D01*
X261809742Y-3496428D02*
X261309742Y-4996428D01*
X261309742Y-4996428D02*
X260809742Y-3496428D01*
X259738314Y-4925000D02*
X259881171Y-4996428D01*
X259881171Y-4996428D02*
X260166886Y-4996428D01*
X260166886Y-4996428D02*
X260309743Y-4925000D01*
X260309743Y-4925000D02*
X260381171Y-4782142D01*
X260381171Y-4782142D02*
X260381171Y-4210714D01*
X260381171Y-4210714D02*
X260309743Y-4067857D01*
X260309743Y-4067857D02*
X260166886Y-3996428D01*
X260166886Y-3996428D02*
X259881171Y-3996428D01*
X259881171Y-3996428D02*
X259738314Y-4067857D01*
X259738314Y-4067857D02*
X259666886Y-4210714D01*
X259666886Y-4210714D02*
X259666886Y-4353571D01*
X259666886Y-4353571D02*
X260381171Y-4496428D01*
X259024029Y-4996428D02*
X259024029Y-3996428D01*
X259024029Y-4282142D02*
X258952600Y-4139285D01*
X258952600Y-4139285D02*
X258881172Y-4067857D01*
X258881172Y-4067857D02*
X258738314Y-3996428D01*
X258738314Y-3996428D02*
X258595457Y-3996428D01*
X258166886Y-4925000D02*
X258024029Y-4996428D01*
X258024029Y-4996428D02*
X257738315Y-4996428D01*
X257738315Y-4996428D02*
X257595458Y-4925000D01*
X257595458Y-4925000D02*
X257524029Y-4782142D01*
X257524029Y-4782142D02*
X257524029Y-4710714D01*
X257524029Y-4710714D02*
X257595458Y-4567857D01*
X257595458Y-4567857D02*
X257738315Y-4496428D01*
X257738315Y-4496428D02*
X257952601Y-4496428D01*
X257952601Y-4496428D02*
X258095458Y-4425000D01*
X258095458Y-4425000D02*
X258166886Y-4282142D01*
X258166886Y-4282142D02*
X258166886Y-4210714D01*
X258166886Y-4210714D02*
X258095458Y-4067857D01*
X258095458Y-4067857D02*
X257952601Y-3996428D01*
X257952601Y-3996428D02*
X257738315Y-3996428D01*
X257738315Y-3996428D02*
X257595458Y-4067857D01*
X256881172Y-4996428D02*
X256881172Y-3996428D01*
X256881172Y-3496428D02*
X256952600Y-3567857D01*
X256952600Y-3567857D02*
X256881172Y-3639285D01*
X256881172Y-3639285D02*
X256809743Y-3567857D01*
X256809743Y-3567857D02*
X256881172Y-3496428D01*
X256881172Y-3496428D02*
X256881172Y-3639285D01*
X255952600Y-4996428D02*
X256095457Y-4925000D01*
X256095457Y-4925000D02*
X256166886Y-4853571D01*
X256166886Y-4853571D02*
X256238314Y-4710714D01*
X256238314Y-4710714D02*
X256238314Y-4282142D01*
X256238314Y-4282142D02*
X256166886Y-4139285D01*
X256166886Y-4139285D02*
X256095457Y-4067857D01*
X256095457Y-4067857D02*
X255952600Y-3996428D01*
X255952600Y-3996428D02*
X255738314Y-3996428D01*
X255738314Y-3996428D02*
X255595457Y-4067857D01*
X255595457Y-4067857D02*
X255524029Y-4139285D01*
X255524029Y-4139285D02*
X255452600Y-4282142D01*
X255452600Y-4282142D02*
X255452600Y-4710714D01*
X255452600Y-4710714D02*
X255524029Y-4853571D01*
X255524029Y-4853571D02*
X255595457Y-4925000D01*
X255595457Y-4925000D02*
X255738314Y-4996428D01*
X255738314Y-4996428D02*
X255952600Y-4996428D01*
X254809743Y-3996428D02*
X254809743Y-4996428D01*
X254809743Y-4139285D02*
X254738314Y-4067857D01*
X254738314Y-4067857D02*
X254595457Y-3996428D01*
X254595457Y-3996428D02*
X254381171Y-3996428D01*
X254381171Y-3996428D02*
X254238314Y-4067857D01*
X254238314Y-4067857D02*
X254166886Y-4210714D01*
X254166886Y-4210714D02*
X254166886Y-4996428D01*
X252024028Y-3496428D02*
X251881171Y-3496428D01*
X251881171Y-3496428D02*
X251738314Y-3567857D01*
X251738314Y-3567857D02*
X251666886Y-3639285D01*
X251666886Y-3639285D02*
X251595457Y-3782142D01*
X251595457Y-3782142D02*
X251524028Y-4067857D01*
X251524028Y-4067857D02*
X251524028Y-4425000D01*
X251524028Y-4425000D02*
X251595457Y-4710714D01*
X251595457Y-4710714D02*
X251666886Y-4853571D01*
X251666886Y-4853571D02*
X251738314Y-4925000D01*
X251738314Y-4925000D02*
X251881171Y-4996428D01*
X251881171Y-4996428D02*
X252024028Y-4996428D01*
X252024028Y-4996428D02*
X252166886Y-4925000D01*
X252166886Y-4925000D02*
X252238314Y-4853571D01*
X252238314Y-4853571D02*
X252309743Y-4710714D01*
X252309743Y-4710714D02*
X252381171Y-4425000D01*
X252381171Y-4425000D02*
X252381171Y-4067857D01*
X252381171Y-4067857D02*
X252309743Y-3782142D01*
X252309743Y-3782142D02*
X252238314Y-3639285D01*
X252238314Y-3639285D02*
X252166886Y-3567857D01*
X252166886Y-3567857D02*
X252024028Y-3496428D01*
X250881172Y-4853571D02*
X250809743Y-4925000D01*
X250809743Y-4925000D02*
X250881172Y-4996428D01*
X250881172Y-4996428D02*
X250952600Y-4925000D01*
X250952600Y-4925000D02*
X250881172Y-4853571D01*
X250881172Y-4853571D02*
X250881172Y-4996428D01*
X249381171Y-4996428D02*
X250238314Y-4996428D01*
X249809743Y-4996428D02*
X249809743Y-3496428D01*
X249809743Y-3496428D02*
X249952600Y-3710714D01*
X249952600Y-3710714D02*
X250095457Y-3853571D01*
X250095457Y-3853571D02*
X250238314Y-3925000D01*
X261095457Y-6640714D02*
X260881171Y-6712142D01*
X260881171Y-6712142D02*
X260809742Y-6783571D01*
X260809742Y-6783571D02*
X260738314Y-6926428D01*
X260738314Y-6926428D02*
X260738314Y-7140714D01*
X260738314Y-7140714D02*
X260809742Y-7283571D01*
X260809742Y-7283571D02*
X260881171Y-7355000D01*
X260881171Y-7355000D02*
X261024028Y-7426428D01*
X261024028Y-7426428D02*
X261595457Y-7426428D01*
X261595457Y-7426428D02*
X261595457Y-5926428D01*
X261595457Y-5926428D02*
X261095457Y-5926428D01*
X261095457Y-5926428D02*
X260952600Y-5997857D01*
X260952600Y-5997857D02*
X260881171Y-6069285D01*
X260881171Y-6069285D02*
X260809742Y-6212142D01*
X260809742Y-6212142D02*
X260809742Y-6355000D01*
X260809742Y-6355000D02*
X260881171Y-6497857D01*
X260881171Y-6497857D02*
X260952600Y-6569285D01*
X260952600Y-6569285D02*
X261095457Y-6640714D01*
X261095457Y-6640714D02*
X261595457Y-6640714D01*
X259881171Y-7426428D02*
X260024028Y-7355000D01*
X260024028Y-7355000D02*
X260095457Y-7283571D01*
X260095457Y-7283571D02*
X260166885Y-7140714D01*
X260166885Y-7140714D02*
X260166885Y-6712142D01*
X260166885Y-6712142D02*
X260095457Y-6569285D01*
X260095457Y-6569285D02*
X260024028Y-6497857D01*
X260024028Y-6497857D02*
X259881171Y-6426428D01*
X259881171Y-6426428D02*
X259666885Y-6426428D01*
X259666885Y-6426428D02*
X259524028Y-6497857D01*
X259524028Y-6497857D02*
X259452600Y-6569285D01*
X259452600Y-6569285D02*
X259381171Y-6712142D01*
X259381171Y-6712142D02*
X259381171Y-7140714D01*
X259381171Y-7140714D02*
X259452600Y-7283571D01*
X259452600Y-7283571D02*
X259524028Y-7355000D01*
X259524028Y-7355000D02*
X259666885Y-7426428D01*
X259666885Y-7426428D02*
X259881171Y-7426428D01*
X258095457Y-7426428D02*
X258095457Y-6640714D01*
X258095457Y-6640714D02*
X258166885Y-6497857D01*
X258166885Y-6497857D02*
X258309742Y-6426428D01*
X258309742Y-6426428D02*
X258595457Y-6426428D01*
X258595457Y-6426428D02*
X258738314Y-6497857D01*
X258095457Y-7355000D02*
X258238314Y-7426428D01*
X258238314Y-7426428D02*
X258595457Y-7426428D01*
X258595457Y-7426428D02*
X258738314Y-7355000D01*
X258738314Y-7355000D02*
X258809742Y-7212142D01*
X258809742Y-7212142D02*
X258809742Y-7069285D01*
X258809742Y-7069285D02*
X258738314Y-6926428D01*
X258738314Y-6926428D02*
X258595457Y-6855000D01*
X258595457Y-6855000D02*
X258238314Y-6855000D01*
X258238314Y-6855000D02*
X258095457Y-6783571D01*
X257381171Y-7426428D02*
X257381171Y-6426428D01*
X257381171Y-6712142D02*
X257309742Y-6569285D01*
X257309742Y-6569285D02*
X257238314Y-6497857D01*
X257238314Y-6497857D02*
X257095456Y-6426428D01*
X257095456Y-6426428D02*
X256952599Y-6426428D01*
X255809743Y-7426428D02*
X255809743Y-5926428D01*
X255809743Y-7355000D02*
X255952600Y-7426428D01*
X255952600Y-7426428D02*
X256238314Y-7426428D01*
X256238314Y-7426428D02*
X256381171Y-7355000D01*
X256381171Y-7355000D02*
X256452600Y-7283571D01*
X256452600Y-7283571D02*
X256524028Y-7140714D01*
X256524028Y-7140714D02*
X256524028Y-6712142D01*
X256524028Y-6712142D02*
X256452600Y-6569285D01*
X256452600Y-6569285D02*
X256381171Y-6497857D01*
X256381171Y-6497857D02*
X256238314Y-6426428D01*
X256238314Y-6426428D02*
X255952600Y-6426428D01*
X255952600Y-6426428D02*
X255809743Y-6497857D01*
X253952600Y-7426428D02*
X253952600Y-5926428D01*
X253952600Y-5926428D02*
X253595457Y-5926428D01*
X253595457Y-5926428D02*
X253381171Y-5997857D01*
X253381171Y-5997857D02*
X253238314Y-6140714D01*
X253238314Y-6140714D02*
X253166885Y-6283571D01*
X253166885Y-6283571D02*
X253095457Y-6569285D01*
X253095457Y-6569285D02*
X253095457Y-6783571D01*
X253095457Y-6783571D02*
X253166885Y-7069285D01*
X253166885Y-7069285D02*
X253238314Y-7212142D01*
X253238314Y-7212142D02*
X253381171Y-7355000D01*
X253381171Y-7355000D02*
X253595457Y-7426428D01*
X253595457Y-7426428D02*
X253952600Y-7426428D01*
X251881171Y-7355000D02*
X252024028Y-7426428D01*
X252024028Y-7426428D02*
X252309743Y-7426428D01*
X252309743Y-7426428D02*
X252452600Y-7355000D01*
X252452600Y-7355000D02*
X252524028Y-7212142D01*
X252524028Y-7212142D02*
X252524028Y-6640714D01*
X252524028Y-6640714D02*
X252452600Y-6497857D01*
X252452600Y-6497857D02*
X252309743Y-6426428D01*
X252309743Y-6426428D02*
X252024028Y-6426428D01*
X252024028Y-6426428D02*
X251881171Y-6497857D01*
X251881171Y-6497857D02*
X251809743Y-6640714D01*
X251809743Y-6640714D02*
X251809743Y-6783571D01*
X251809743Y-6783571D02*
X252524028Y-6926428D01*
X251238314Y-7355000D02*
X251095457Y-7426428D01*
X251095457Y-7426428D02*
X250809743Y-7426428D01*
X250809743Y-7426428D02*
X250666886Y-7355000D01*
X250666886Y-7355000D02*
X250595457Y-7212142D01*
X250595457Y-7212142D02*
X250595457Y-7140714D01*
X250595457Y-7140714D02*
X250666886Y-6997857D01*
X250666886Y-6997857D02*
X250809743Y-6926428D01*
X250809743Y-6926428D02*
X251024029Y-6926428D01*
X251024029Y-6926428D02*
X251166886Y-6855000D01*
X251166886Y-6855000D02*
X251238314Y-6712142D01*
X251238314Y-6712142D02*
X251238314Y-6640714D01*
X251238314Y-6640714D02*
X251166886Y-6497857D01*
X251166886Y-6497857D02*
X251024029Y-6426428D01*
X251024029Y-6426428D02*
X250809743Y-6426428D01*
X250809743Y-6426428D02*
X250666886Y-6497857D01*
X249952600Y-7426428D02*
X249952600Y-6426428D01*
X249952600Y-5926428D02*
X250024028Y-5997857D01*
X250024028Y-5997857D02*
X249952600Y-6069285D01*
X249952600Y-6069285D02*
X249881171Y-5997857D01*
X249881171Y-5997857D02*
X249952600Y-5926428D01*
X249952600Y-5926428D02*
X249952600Y-6069285D01*
X248595457Y-6426428D02*
X248595457Y-7640714D01*
X248595457Y-7640714D02*
X248666885Y-7783571D01*
X248666885Y-7783571D02*
X248738314Y-7855000D01*
X248738314Y-7855000D02*
X248881171Y-7926428D01*
X248881171Y-7926428D02*
X249095457Y-7926428D01*
X249095457Y-7926428D02*
X249238314Y-7855000D01*
X248595457Y-7355000D02*
X248738314Y-7426428D01*
X248738314Y-7426428D02*
X249024028Y-7426428D01*
X249024028Y-7426428D02*
X249166885Y-7355000D01*
X249166885Y-7355000D02*
X249238314Y-7283571D01*
X249238314Y-7283571D02*
X249309742Y-7140714D01*
X249309742Y-7140714D02*
X249309742Y-6712142D01*
X249309742Y-6712142D02*
X249238314Y-6569285D01*
X249238314Y-6569285D02*
X249166885Y-6497857D01*
X249166885Y-6497857D02*
X249024028Y-6426428D01*
X249024028Y-6426428D02*
X248738314Y-6426428D01*
X248738314Y-6426428D02*
X248595457Y-6497857D01*
X247881171Y-6426428D02*
X247881171Y-7426428D01*
X247881171Y-6569285D02*
X247809742Y-6497857D01*
X247809742Y-6497857D02*
X247666885Y-6426428D01*
X247666885Y-6426428D02*
X247452599Y-6426428D01*
X247452599Y-6426428D02*
X247309742Y-6497857D01*
X247309742Y-6497857D02*
X247238314Y-6640714D01*
X247238314Y-6640714D02*
X247238314Y-7426428D01*
X245381171Y-7426428D02*
X245381171Y-5926428D01*
X245381171Y-6497857D02*
X245238314Y-6426428D01*
X245238314Y-6426428D02*
X244952599Y-6426428D01*
X244952599Y-6426428D02*
X244809742Y-6497857D01*
X244809742Y-6497857D02*
X244738314Y-6569285D01*
X244738314Y-6569285D02*
X244666885Y-6712142D01*
X244666885Y-6712142D02*
X244666885Y-7140714D01*
X244666885Y-7140714D02*
X244738314Y-7283571D01*
X244738314Y-7283571D02*
X244809742Y-7355000D01*
X244809742Y-7355000D02*
X244952599Y-7426428D01*
X244952599Y-7426428D02*
X245238314Y-7426428D01*
X245238314Y-7426428D02*
X245381171Y-7355000D01*
X244166885Y-6426428D02*
X243809742Y-7426428D01*
X243452599Y-6426428D02*
X243809742Y-7426428D01*
X243809742Y-7426428D02*
X243952599Y-7783571D01*
X243952599Y-7783571D02*
X244024028Y-7855000D01*
X244024028Y-7855000D02*
X244166885Y-7926428D01*
X241738314Y-7426428D02*
X241738314Y-5926428D01*
X241738314Y-5926428D02*
X241238314Y-6997857D01*
X241238314Y-6997857D02*
X240738314Y-5926428D01*
X240738314Y-5926428D02*
X240738314Y-7426428D01*
X239381171Y-7426428D02*
X239381171Y-6640714D01*
X239381171Y-6640714D02*
X239452599Y-6497857D01*
X239452599Y-6497857D02*
X239595456Y-6426428D01*
X239595456Y-6426428D02*
X239881171Y-6426428D01*
X239881171Y-6426428D02*
X240024028Y-6497857D01*
X239381171Y-7355000D02*
X239524028Y-7426428D01*
X239524028Y-7426428D02*
X239881171Y-7426428D01*
X239881171Y-7426428D02*
X240024028Y-7355000D01*
X240024028Y-7355000D02*
X240095456Y-7212142D01*
X240095456Y-7212142D02*
X240095456Y-7069285D01*
X240095456Y-7069285D02*
X240024028Y-6926428D01*
X240024028Y-6926428D02*
X239881171Y-6855000D01*
X239881171Y-6855000D02*
X239524028Y-6855000D01*
X239524028Y-6855000D02*
X239381171Y-6783571D01*
X238024028Y-7426428D02*
X238024028Y-5926428D01*
X238024028Y-7355000D02*
X238166885Y-7426428D01*
X238166885Y-7426428D02*
X238452599Y-7426428D01*
X238452599Y-7426428D02*
X238595456Y-7355000D01*
X238595456Y-7355000D02*
X238666885Y-7283571D01*
X238666885Y-7283571D02*
X238738313Y-7140714D01*
X238738313Y-7140714D02*
X238738313Y-6712142D01*
X238738313Y-6712142D02*
X238666885Y-6569285D01*
X238666885Y-6569285D02*
X238595456Y-6497857D01*
X238595456Y-6497857D02*
X238452599Y-6426428D01*
X238452599Y-6426428D02*
X238166885Y-6426428D01*
X238166885Y-6426428D02*
X238024028Y-6497857D01*
X236452599Y-7283571D02*
X236524027Y-7355000D01*
X236524027Y-7355000D02*
X236738313Y-7426428D01*
X236738313Y-7426428D02*
X236881170Y-7426428D01*
X236881170Y-7426428D02*
X237095456Y-7355000D01*
X237095456Y-7355000D02*
X237238313Y-7212142D01*
X237238313Y-7212142D02*
X237309742Y-7069285D01*
X237309742Y-7069285D02*
X237381170Y-6783571D01*
X237381170Y-6783571D02*
X237381170Y-6569285D01*
X237381170Y-6569285D02*
X237309742Y-6283571D01*
X237309742Y-6283571D02*
X237238313Y-6140714D01*
X237238313Y-6140714D02*
X237095456Y-5997857D01*
X237095456Y-5997857D02*
X236881170Y-5926428D01*
X236881170Y-5926428D02*
X236738313Y-5926428D01*
X236738313Y-5926428D02*
X236524027Y-5997857D01*
X236524027Y-5997857D02*
X236452599Y-6069285D01*
X235166885Y-7426428D02*
X235166885Y-6640714D01*
X235166885Y-6640714D02*
X235238313Y-6497857D01*
X235238313Y-6497857D02*
X235381170Y-6426428D01*
X235381170Y-6426428D02*
X235666885Y-6426428D01*
X235666885Y-6426428D02*
X235809742Y-6497857D01*
X235166885Y-7355000D02*
X235309742Y-7426428D01*
X235309742Y-7426428D02*
X235666885Y-7426428D01*
X235666885Y-7426428D02*
X235809742Y-7355000D01*
X235809742Y-7355000D02*
X235881170Y-7212142D01*
X235881170Y-7212142D02*
X235881170Y-7069285D01*
X235881170Y-7069285D02*
X235809742Y-6926428D01*
X235809742Y-6926428D02*
X235666885Y-6855000D01*
X235666885Y-6855000D02*
X235309742Y-6855000D01*
X235309742Y-6855000D02*
X235166885Y-6783571D01*
X234666884Y-6426428D02*
X234095456Y-6426428D01*
X234452599Y-5926428D02*
X234452599Y-7212142D01*
X234452599Y-7212142D02*
X234381170Y-7355000D01*
X234381170Y-7355000D02*
X234238313Y-7426428D01*
X234238313Y-7426428D02*
X234095456Y-7426428D01*
X233524027Y-7355000D02*
X233524027Y-7426428D01*
X233524027Y-7426428D02*
X233595456Y-7569285D01*
X233595456Y-7569285D02*
X233666884Y-7640714D01*
X231809741Y-6069285D02*
X231738313Y-5997857D01*
X231738313Y-5997857D02*
X231595456Y-5926428D01*
X231595456Y-5926428D02*
X231238313Y-5926428D01*
X231238313Y-5926428D02*
X231095456Y-5997857D01*
X231095456Y-5997857D02*
X231024027Y-6069285D01*
X231024027Y-6069285D02*
X230952598Y-6212142D01*
X230952598Y-6212142D02*
X230952598Y-6355000D01*
X230952598Y-6355000D02*
X231024027Y-6569285D01*
X231024027Y-6569285D02*
X231881170Y-7426428D01*
X231881170Y-7426428D02*
X230952598Y-7426428D01*
X230024027Y-5926428D02*
X229881170Y-5926428D01*
X229881170Y-5926428D02*
X229738313Y-5997857D01*
X229738313Y-5997857D02*
X229666885Y-6069285D01*
X229666885Y-6069285D02*
X229595456Y-6212142D01*
X229595456Y-6212142D02*
X229524027Y-6497857D01*
X229524027Y-6497857D02*
X229524027Y-6855000D01*
X229524027Y-6855000D02*
X229595456Y-7140714D01*
X229595456Y-7140714D02*
X229666885Y-7283571D01*
X229666885Y-7283571D02*
X229738313Y-7355000D01*
X229738313Y-7355000D02*
X229881170Y-7426428D01*
X229881170Y-7426428D02*
X230024027Y-7426428D01*
X230024027Y-7426428D02*
X230166885Y-7355000D01*
X230166885Y-7355000D02*
X230238313Y-7283571D01*
X230238313Y-7283571D02*
X230309742Y-7140714D01*
X230309742Y-7140714D02*
X230381170Y-6855000D01*
X230381170Y-6855000D02*
X230381170Y-6497857D01*
X230381170Y-6497857D02*
X230309742Y-6212142D01*
X230309742Y-6212142D02*
X230238313Y-6069285D01*
X230238313Y-6069285D02*
X230166885Y-5997857D01*
X230166885Y-5997857D02*
X230024027Y-5926428D01*
X228952599Y-6069285D02*
X228881171Y-5997857D01*
X228881171Y-5997857D02*
X228738314Y-5926428D01*
X228738314Y-5926428D02*
X228381171Y-5926428D01*
X228381171Y-5926428D02*
X228238314Y-5997857D01*
X228238314Y-5997857D02*
X228166885Y-6069285D01*
X228166885Y-6069285D02*
X228095456Y-6212142D01*
X228095456Y-6212142D02*
X228095456Y-6355000D01*
X228095456Y-6355000D02*
X228166885Y-6569285D01*
X228166885Y-6569285D02*
X229024028Y-7426428D01*
X229024028Y-7426428D02*
X228095456Y-7426428D01*
X227595457Y-5926428D02*
X226666885Y-5926428D01*
X226666885Y-5926428D02*
X227166885Y-6497857D01*
X227166885Y-6497857D02*
X226952600Y-6497857D01*
X226952600Y-6497857D02*
X226809743Y-6569285D01*
X226809743Y-6569285D02*
X226738314Y-6640714D01*
X226738314Y-6640714D02*
X226666885Y-6783571D01*
X226666885Y-6783571D02*
X226666885Y-7140714D01*
X226666885Y-7140714D02*
X226738314Y-7283571D01*
X226738314Y-7283571D02*
X226809743Y-7355000D01*
X226809743Y-7355000D02*
X226952600Y-7426428D01*
X226952600Y-7426428D02*
X227381171Y-7426428D01*
X227381171Y-7426428D02*
X227524028Y-7355000D01*
X227524028Y-7355000D02*
X227595457Y-7283571D01*
X261595457Y-9856428D02*
X261595457Y-8356428D01*
X260952600Y-9856428D02*
X260952600Y-9070714D01*
X260952600Y-9070714D02*
X261024028Y-8927857D01*
X261024028Y-8927857D02*
X261166885Y-8856428D01*
X261166885Y-8856428D02*
X261381171Y-8856428D01*
X261381171Y-8856428D02*
X261524028Y-8927857D01*
X261524028Y-8927857D02*
X261595457Y-8999285D01*
X260452599Y-8856428D02*
X259881171Y-8856428D01*
X260238314Y-8356428D02*
X260238314Y-9642142D01*
X260238314Y-9642142D02*
X260166885Y-9785000D01*
X260166885Y-9785000D02*
X260024028Y-9856428D01*
X260024028Y-9856428D02*
X259881171Y-9856428D01*
X259595456Y-8856428D02*
X259024028Y-8856428D01*
X259381171Y-8356428D02*
X259381171Y-9642142D01*
X259381171Y-9642142D02*
X259309742Y-9785000D01*
X259309742Y-9785000D02*
X259166885Y-9856428D01*
X259166885Y-9856428D02*
X259024028Y-9856428D01*
X258524028Y-8856428D02*
X258524028Y-10356428D01*
X258524028Y-8927857D02*
X258381171Y-8856428D01*
X258381171Y-8856428D02*
X258095456Y-8856428D01*
X258095456Y-8856428D02*
X257952599Y-8927857D01*
X257952599Y-8927857D02*
X257881171Y-8999285D01*
X257881171Y-8999285D02*
X257809742Y-9142142D01*
X257809742Y-9142142D02*
X257809742Y-9570714D01*
X257809742Y-9570714D02*
X257881171Y-9713571D01*
X257881171Y-9713571D02*
X257952599Y-9785000D01*
X257952599Y-9785000D02*
X258095456Y-9856428D01*
X258095456Y-9856428D02*
X258381171Y-9856428D01*
X258381171Y-9856428D02*
X258524028Y-9785000D01*
X257238313Y-9785000D02*
X257095456Y-9856428D01*
X257095456Y-9856428D02*
X256809742Y-9856428D01*
X256809742Y-9856428D02*
X256666885Y-9785000D01*
X256666885Y-9785000D02*
X256595456Y-9642142D01*
X256595456Y-9642142D02*
X256595456Y-9570714D01*
X256595456Y-9570714D02*
X256666885Y-9427857D01*
X256666885Y-9427857D02*
X256809742Y-9356428D01*
X256809742Y-9356428D02*
X257024028Y-9356428D01*
X257024028Y-9356428D02*
X257166885Y-9285000D01*
X257166885Y-9285000D02*
X257238313Y-9142142D01*
X257238313Y-9142142D02*
X257238313Y-9070714D01*
X257238313Y-9070714D02*
X257166885Y-8927857D01*
X257166885Y-8927857D02*
X257024028Y-8856428D01*
X257024028Y-8856428D02*
X256809742Y-8856428D01*
X256809742Y-8856428D02*
X256666885Y-8927857D01*
X255952599Y-9713571D02*
X255881170Y-9785000D01*
X255881170Y-9785000D02*
X255952599Y-9856428D01*
X255952599Y-9856428D02*
X256024027Y-9785000D01*
X256024027Y-9785000D02*
X255952599Y-9713571D01*
X255952599Y-9713571D02*
X255952599Y-9856428D01*
X255952599Y-8927857D02*
X255881170Y-8999285D01*
X255881170Y-8999285D02*
X255952599Y-9070714D01*
X255952599Y-9070714D02*
X256024027Y-8999285D01*
X256024027Y-8999285D02*
X255952599Y-8927857D01*
X255952599Y-8927857D02*
X255952599Y-9070714D01*
X254166884Y-8285000D02*
X255452598Y-10213571D01*
X252595455Y-8285000D02*
X253881169Y-10213571D01*
X251452598Y-8856428D02*
X251452598Y-10070714D01*
X251452598Y-10070714D02*
X251524026Y-10213571D01*
X251524026Y-10213571D02*
X251595455Y-10285000D01*
X251595455Y-10285000D02*
X251738312Y-10356428D01*
X251738312Y-10356428D02*
X251952598Y-10356428D01*
X251952598Y-10356428D02*
X252095455Y-10285000D01*
X251452598Y-9785000D02*
X251595455Y-9856428D01*
X251595455Y-9856428D02*
X251881169Y-9856428D01*
X251881169Y-9856428D02*
X252024026Y-9785000D01*
X252024026Y-9785000D02*
X252095455Y-9713571D01*
X252095455Y-9713571D02*
X252166883Y-9570714D01*
X252166883Y-9570714D02*
X252166883Y-9142142D01*
X252166883Y-9142142D02*
X252095455Y-8999285D01*
X252095455Y-8999285D02*
X252024026Y-8927857D01*
X252024026Y-8927857D02*
X251881169Y-8856428D01*
X251881169Y-8856428D02*
X251595455Y-8856428D01*
X251595455Y-8856428D02*
X251452598Y-8927857D01*
X250738312Y-9856428D02*
X250738312Y-8856428D01*
X250738312Y-8356428D02*
X250809740Y-8427857D01*
X250809740Y-8427857D02*
X250738312Y-8499285D01*
X250738312Y-8499285D02*
X250666883Y-8427857D01*
X250666883Y-8427857D02*
X250738312Y-8356428D01*
X250738312Y-8356428D02*
X250738312Y-8499285D01*
X250238311Y-8856428D02*
X249666883Y-8856428D01*
X250024026Y-8356428D02*
X250024026Y-9642142D01*
X250024026Y-9642142D02*
X249952597Y-9785000D01*
X249952597Y-9785000D02*
X249809740Y-9856428D01*
X249809740Y-9856428D02*
X249666883Y-9856428D01*
X249166883Y-9856428D02*
X249166883Y-8356428D01*
X248524026Y-9856428D02*
X248524026Y-9070714D01*
X248524026Y-9070714D02*
X248595454Y-8927857D01*
X248595454Y-8927857D02*
X248738311Y-8856428D01*
X248738311Y-8856428D02*
X248952597Y-8856428D01*
X248952597Y-8856428D02*
X249095454Y-8927857D01*
X249095454Y-8927857D02*
X249166883Y-8999285D01*
X247166883Y-8856428D02*
X247166883Y-9856428D01*
X247809740Y-8856428D02*
X247809740Y-9642142D01*
X247809740Y-9642142D02*
X247738311Y-9785000D01*
X247738311Y-9785000D02*
X247595454Y-9856428D01*
X247595454Y-9856428D02*
X247381168Y-9856428D01*
X247381168Y-9856428D02*
X247238311Y-9785000D01*
X247238311Y-9785000D02*
X247166883Y-9713571D01*
X246452597Y-9856428D02*
X246452597Y-8356428D01*
X246452597Y-8927857D02*
X246309740Y-8856428D01*
X246309740Y-8856428D02*
X246024025Y-8856428D01*
X246024025Y-8856428D02*
X245881168Y-8927857D01*
X245881168Y-8927857D02*
X245809740Y-8999285D01*
X245809740Y-8999285D02*
X245738311Y-9142142D01*
X245738311Y-9142142D02*
X245738311Y-9570714D01*
X245738311Y-9570714D02*
X245809740Y-9713571D01*
X245809740Y-9713571D02*
X245881168Y-9785000D01*
X245881168Y-9785000D02*
X246024025Y-9856428D01*
X246024025Y-9856428D02*
X246309740Y-9856428D01*
X246309740Y-9856428D02*
X246452597Y-9785000D01*
X245095454Y-9713571D02*
X245024025Y-9785000D01*
X245024025Y-9785000D02*
X245095454Y-9856428D01*
X245095454Y-9856428D02*
X245166882Y-9785000D01*
X245166882Y-9785000D02*
X245095454Y-9713571D01*
X245095454Y-9713571D02*
X245095454Y-9856428D01*
X243738311Y-9785000D02*
X243881168Y-9856428D01*
X243881168Y-9856428D02*
X244166882Y-9856428D01*
X244166882Y-9856428D02*
X244309739Y-9785000D01*
X244309739Y-9785000D02*
X244381168Y-9713571D01*
X244381168Y-9713571D02*
X244452596Y-9570714D01*
X244452596Y-9570714D02*
X244452596Y-9142142D01*
X244452596Y-9142142D02*
X244381168Y-8999285D01*
X244381168Y-8999285D02*
X244309739Y-8927857D01*
X244309739Y-8927857D02*
X244166882Y-8856428D01*
X244166882Y-8856428D02*
X243881168Y-8856428D01*
X243881168Y-8856428D02*
X243738311Y-8927857D01*
X242881168Y-9856428D02*
X243024025Y-9785000D01*
X243024025Y-9785000D02*
X243095454Y-9713571D01*
X243095454Y-9713571D02*
X243166882Y-9570714D01*
X243166882Y-9570714D02*
X243166882Y-9142142D01*
X243166882Y-9142142D02*
X243095454Y-8999285D01*
X243095454Y-8999285D02*
X243024025Y-8927857D01*
X243024025Y-8927857D02*
X242881168Y-8856428D01*
X242881168Y-8856428D02*
X242666882Y-8856428D01*
X242666882Y-8856428D02*
X242524025Y-8927857D01*
X242524025Y-8927857D02*
X242452597Y-8999285D01*
X242452597Y-8999285D02*
X242381168Y-9142142D01*
X242381168Y-9142142D02*
X242381168Y-9570714D01*
X242381168Y-9570714D02*
X242452597Y-9713571D01*
X242452597Y-9713571D02*
X242524025Y-9785000D01*
X242524025Y-9785000D02*
X242666882Y-9856428D01*
X242666882Y-9856428D02*
X242881168Y-9856428D01*
X241738311Y-9856428D02*
X241738311Y-8856428D01*
X241738311Y-8999285D02*
X241666882Y-8927857D01*
X241666882Y-8927857D02*
X241524025Y-8856428D01*
X241524025Y-8856428D02*
X241309739Y-8856428D01*
X241309739Y-8856428D02*
X241166882Y-8927857D01*
X241166882Y-8927857D02*
X241095454Y-9070714D01*
X241095454Y-9070714D02*
X241095454Y-9856428D01*
X241095454Y-9070714D02*
X241024025Y-8927857D01*
X241024025Y-8927857D02*
X240881168Y-8856428D01*
X240881168Y-8856428D02*
X240666882Y-8856428D01*
X240666882Y-8856428D02*
X240524025Y-8927857D01*
X240524025Y-8927857D02*
X240452596Y-9070714D01*
X240452596Y-9070714D02*
X240452596Y-9856428D01*
X238666882Y-8285000D02*
X239952596Y-10213571D01*
X238166882Y-9856428D02*
X238166882Y-8856428D01*
X238166882Y-8999285D02*
X238095453Y-8927857D01*
X238095453Y-8927857D02*
X237952596Y-8856428D01*
X237952596Y-8856428D02*
X237738310Y-8856428D01*
X237738310Y-8856428D02*
X237595453Y-8927857D01*
X237595453Y-8927857D02*
X237524025Y-9070714D01*
X237524025Y-9070714D02*
X237524025Y-9856428D01*
X237524025Y-9070714D02*
X237452596Y-8927857D01*
X237452596Y-8927857D02*
X237309739Y-8856428D01*
X237309739Y-8856428D02*
X237095453Y-8856428D01*
X237095453Y-8856428D02*
X236952596Y-8927857D01*
X236952596Y-8927857D02*
X236881167Y-9070714D01*
X236881167Y-9070714D02*
X236881167Y-9856428D01*
X235524025Y-9856428D02*
X235524025Y-9070714D01*
X235524025Y-9070714D02*
X235595453Y-8927857D01*
X235595453Y-8927857D02*
X235738310Y-8856428D01*
X235738310Y-8856428D02*
X236024025Y-8856428D01*
X236024025Y-8856428D02*
X236166882Y-8927857D01*
X235524025Y-9785000D02*
X235666882Y-9856428D01*
X235666882Y-9856428D02*
X236024025Y-9856428D01*
X236024025Y-9856428D02*
X236166882Y-9785000D01*
X236166882Y-9785000D02*
X236238310Y-9642142D01*
X236238310Y-9642142D02*
X236238310Y-9499285D01*
X236238310Y-9499285D02*
X236166882Y-9356428D01*
X236166882Y-9356428D02*
X236024025Y-9285000D01*
X236024025Y-9285000D02*
X235666882Y-9285000D01*
X235666882Y-9285000D02*
X235524025Y-9213571D01*
X234166882Y-9856428D02*
X234166882Y-8356428D01*
X234166882Y-9785000D02*
X234309739Y-9856428D01*
X234309739Y-9856428D02*
X234595453Y-9856428D01*
X234595453Y-9856428D02*
X234738310Y-9785000D01*
X234738310Y-9785000D02*
X234809739Y-9713571D01*
X234809739Y-9713571D02*
X234881167Y-9570714D01*
X234881167Y-9570714D02*
X234881167Y-9142142D01*
X234881167Y-9142142D02*
X234809739Y-8999285D01*
X234809739Y-8999285D02*
X234738310Y-8927857D01*
X234738310Y-8927857D02*
X234595453Y-8856428D01*
X234595453Y-8856428D02*
X234309739Y-8856428D01*
X234309739Y-8856428D02*
X234166882Y-8927857D01*
X232809739Y-9785000D02*
X232952596Y-9856428D01*
X232952596Y-9856428D02*
X233238310Y-9856428D01*
X233238310Y-9856428D02*
X233381167Y-9785000D01*
X233381167Y-9785000D02*
X233452596Y-9713571D01*
X233452596Y-9713571D02*
X233524024Y-9570714D01*
X233524024Y-9570714D02*
X233524024Y-9142142D01*
X233524024Y-9142142D02*
X233452596Y-8999285D01*
X233452596Y-8999285D02*
X233381167Y-8927857D01*
X233381167Y-8927857D02*
X233238310Y-8856428D01*
X233238310Y-8856428D02*
X232952596Y-8856428D01*
X232952596Y-8856428D02*
X232809739Y-8927857D01*
X231524025Y-9856428D02*
X231524025Y-9070714D01*
X231524025Y-9070714D02*
X231595453Y-8927857D01*
X231595453Y-8927857D02*
X231738310Y-8856428D01*
X231738310Y-8856428D02*
X232024025Y-8856428D01*
X232024025Y-8856428D02*
X232166882Y-8927857D01*
X231524025Y-9785000D02*
X231666882Y-9856428D01*
X231666882Y-9856428D02*
X232024025Y-9856428D01*
X232024025Y-9856428D02*
X232166882Y-9785000D01*
X232166882Y-9785000D02*
X232238310Y-9642142D01*
X232238310Y-9642142D02*
X232238310Y-9499285D01*
X232238310Y-9499285D02*
X232166882Y-9356428D01*
X232166882Y-9356428D02*
X232024025Y-9285000D01*
X232024025Y-9285000D02*
X231666882Y-9285000D01*
X231666882Y-9285000D02*
X231524025Y-9213571D01*
X231024024Y-8856428D02*
X230452596Y-8856428D01*
X230809739Y-8356428D02*
X230809739Y-9642142D01*
X230809739Y-9642142D02*
X230738310Y-9785000D01*
X230738310Y-9785000D02*
X230595453Y-9856428D01*
X230595453Y-9856428D02*
X230452596Y-9856428D01*
X230024024Y-9785000D02*
X229881167Y-9856428D01*
X229881167Y-9856428D02*
X229595453Y-9856428D01*
X229595453Y-9856428D02*
X229452596Y-9785000D01*
X229452596Y-9785000D02*
X229381167Y-9642142D01*
X229381167Y-9642142D02*
X229381167Y-9570714D01*
X229381167Y-9570714D02*
X229452596Y-9427857D01*
X229452596Y-9427857D02*
X229595453Y-9356428D01*
X229595453Y-9356428D02*
X229809739Y-9356428D01*
X229809739Y-9356428D02*
X229952596Y-9285000D01*
X229952596Y-9285000D02*
X230024024Y-9142142D01*
X230024024Y-9142142D02*
X230024024Y-9070714D01*
X230024024Y-9070714D02*
X229952596Y-8927857D01*
X229952596Y-8927857D02*
X229809739Y-8856428D01*
X229809739Y-8856428D02*
X229595453Y-8856428D01*
X229595453Y-8856428D02*
X229452596Y-8927857D01*
X228166881Y-9785000D02*
X228309738Y-9856428D01*
X228309738Y-9856428D02*
X228595453Y-9856428D01*
X228595453Y-9856428D02*
X228738310Y-9785000D01*
X228738310Y-9785000D02*
X228809738Y-9642142D01*
X228809738Y-9642142D02*
X228809738Y-9070714D01*
X228809738Y-9070714D02*
X228738310Y-8927857D01*
X228738310Y-8927857D02*
X228595453Y-8856428D01*
X228595453Y-8856428D02*
X228309738Y-8856428D01*
X228309738Y-8856428D02*
X228166881Y-8927857D01*
X228166881Y-8927857D02*
X228095453Y-9070714D01*
X228095453Y-9070714D02*
X228095453Y-9213571D01*
X228095453Y-9213571D02*
X228809738Y-9356428D01*
X226381167Y-8285000D02*
X227666881Y-10213571D01*
X225881167Y-9856428D02*
X225881167Y-8356428D01*
X225881167Y-8356428D02*
X225524024Y-8356428D01*
X225524024Y-8356428D02*
X225309738Y-8427857D01*
X225309738Y-8427857D02*
X225166881Y-8570714D01*
X225166881Y-8570714D02*
X225095452Y-8713571D01*
X225095452Y-8713571D02*
X225024024Y-8999285D01*
X225024024Y-8999285D02*
X225024024Y-9213571D01*
X225024024Y-9213571D02*
X225095452Y-9499285D01*
X225095452Y-9499285D02*
X225166881Y-9642142D01*
X225166881Y-9642142D02*
X225309738Y-9785000D01*
X225309738Y-9785000D02*
X225524024Y-9856428D01*
X225524024Y-9856428D02*
X225881167Y-9856428D01*
X223809738Y-9785000D02*
X223952595Y-9856428D01*
X223952595Y-9856428D02*
X224238310Y-9856428D01*
X224238310Y-9856428D02*
X224381167Y-9785000D01*
X224381167Y-9785000D02*
X224452595Y-9642142D01*
X224452595Y-9642142D02*
X224452595Y-9070714D01*
X224452595Y-9070714D02*
X224381167Y-8927857D01*
X224381167Y-8927857D02*
X224238310Y-8856428D01*
X224238310Y-8856428D02*
X223952595Y-8856428D01*
X223952595Y-8856428D02*
X223809738Y-8927857D01*
X223809738Y-8927857D02*
X223738310Y-9070714D01*
X223738310Y-9070714D02*
X223738310Y-9213571D01*
X223738310Y-9213571D02*
X224452595Y-9356428D01*
X222881167Y-9856428D02*
X223024024Y-9785000D01*
X223024024Y-9785000D02*
X223095453Y-9642142D01*
X223095453Y-9642142D02*
X223095453Y-8356428D01*
X222524024Y-8856428D02*
X221952596Y-8856428D01*
X222309739Y-8356428D02*
X222309739Y-9642142D01*
X222309739Y-9642142D02*
X222238310Y-9785000D01*
X222238310Y-9785000D02*
X222095453Y-9856428D01*
X222095453Y-9856428D02*
X221952596Y-9856428D01*
X220809739Y-9856428D02*
X220809739Y-9070714D01*
X220809739Y-9070714D02*
X220881167Y-8927857D01*
X220881167Y-8927857D02*
X221024024Y-8856428D01*
X221024024Y-8856428D02*
X221309739Y-8856428D01*
X221309739Y-8856428D02*
X221452596Y-8927857D01*
X220809739Y-9785000D02*
X220952596Y-9856428D01*
X220952596Y-9856428D02*
X221309739Y-9856428D01*
X221309739Y-9856428D02*
X221452596Y-9785000D01*
X221452596Y-9785000D02*
X221524024Y-9642142D01*
X221524024Y-9642142D02*
X221524024Y-9499285D01*
X221524024Y-9499285D02*
X221452596Y-9356428D01*
X221452596Y-9356428D02*
X221309739Y-9285000D01*
X221309739Y-9285000D02*
X220952596Y-9285000D01*
X220952596Y-9285000D02*
X220809739Y-9213571D01*
X220095453Y-9285000D02*
X218952596Y-9285000D01*
X218309738Y-9785000D02*
X218095453Y-9856428D01*
X218095453Y-9856428D02*
X217738310Y-9856428D01*
X217738310Y-9856428D02*
X217595453Y-9785000D01*
X217595453Y-9785000D02*
X217524024Y-9713571D01*
X217524024Y-9713571D02*
X217452595Y-9570714D01*
X217452595Y-9570714D02*
X217452595Y-9427857D01*
X217452595Y-9427857D02*
X217524024Y-9285000D01*
X217524024Y-9285000D02*
X217595453Y-9213571D01*
X217595453Y-9213571D02*
X217738310Y-9142142D01*
X217738310Y-9142142D02*
X218024024Y-9070714D01*
X218024024Y-9070714D02*
X218166881Y-8999285D01*
X218166881Y-8999285D02*
X218238310Y-8927857D01*
X218238310Y-8927857D02*
X218309738Y-8785000D01*
X218309738Y-8785000D02*
X218309738Y-8642142D01*
X218309738Y-8642142D02*
X218238310Y-8499285D01*
X218238310Y-8499285D02*
X218166881Y-8427857D01*
X218166881Y-8427857D02*
X218024024Y-8356428D01*
X218024024Y-8356428D02*
X217666881Y-8356428D01*
X217666881Y-8356428D02*
X217452595Y-8427857D01*
X216809739Y-9285000D02*
X215666882Y-9285000D01*
X214952596Y-9856428D02*
X214952596Y-8356428D01*
X214952596Y-8356428D02*
X214452596Y-9427857D01*
X214452596Y-9427857D02*
X213952596Y-8356428D01*
X213952596Y-8356428D02*
X213952596Y-9856428D01*
X261809742Y-11286428D02*
X261238314Y-11286428D01*
X261595457Y-10786428D02*
X261595457Y-12072142D01*
X261595457Y-12072142D02*
X261524028Y-12215000D01*
X261524028Y-12215000D02*
X261381171Y-12286428D01*
X261381171Y-12286428D02*
X261238314Y-12286428D01*
X260738314Y-12143571D02*
X260666885Y-12215000D01*
X260666885Y-12215000D02*
X260738314Y-12286428D01*
X260738314Y-12286428D02*
X260809742Y-12215000D01*
X260809742Y-12215000D02*
X260738314Y-12143571D01*
X260738314Y-12143571D02*
X260738314Y-12286428D01*
X260024028Y-12286428D02*
X260024028Y-11286428D01*
X260024028Y-11429285D02*
X259952599Y-11357857D01*
X259952599Y-11357857D02*
X259809742Y-11286428D01*
X259809742Y-11286428D02*
X259595456Y-11286428D01*
X259595456Y-11286428D02*
X259452599Y-11357857D01*
X259452599Y-11357857D02*
X259381171Y-11500714D01*
X259381171Y-11500714D02*
X259381171Y-12286428D01*
X259381171Y-11500714D02*
X259309742Y-11357857D01*
X259309742Y-11357857D02*
X259166885Y-11286428D01*
X259166885Y-11286428D02*
X258952599Y-11286428D01*
X258952599Y-11286428D02*
X258809742Y-11357857D01*
X258809742Y-11357857D02*
X258738313Y-11500714D01*
X258738313Y-11500714D02*
X258738313Y-12286428D01*
X257452599Y-12215000D02*
X257595456Y-12286428D01*
X257595456Y-12286428D02*
X257881171Y-12286428D01*
X257881171Y-12286428D02*
X258024028Y-12215000D01*
X258024028Y-12215000D02*
X258095456Y-12072142D01*
X258095456Y-12072142D02*
X258095456Y-11500714D01*
X258095456Y-11500714D02*
X258024028Y-11357857D01*
X258024028Y-11357857D02*
X257881171Y-11286428D01*
X257881171Y-11286428D02*
X257595456Y-11286428D01*
X257595456Y-11286428D02*
X257452599Y-11357857D01*
X257452599Y-11357857D02*
X257381171Y-11500714D01*
X257381171Y-11500714D02*
X257381171Y-11643571D01*
X257381171Y-11643571D02*
X258095456Y-11786428D01*
X255666885Y-10715000D02*
X256952599Y-12643571D01*
X255309742Y-11286428D02*
X254524028Y-11286428D01*
X254524028Y-11286428D02*
X255309742Y-12286428D01*
X255309742Y-12286428D02*
X254524028Y-12286428D01*
X254095456Y-12286428D02*
X253309742Y-11286428D01*
X254095456Y-11286428D02*
X253309742Y-12286428D01*
X253095456Y-12429285D02*
X251952598Y-12429285D01*
X250952599Y-12286428D02*
X250952599Y-10786428D01*
X250952599Y-12215000D02*
X251095456Y-12286428D01*
X251095456Y-12286428D02*
X251381170Y-12286428D01*
X251381170Y-12286428D02*
X251524027Y-12215000D01*
X251524027Y-12215000D02*
X251595456Y-12143571D01*
X251595456Y-12143571D02*
X251666884Y-12000714D01*
X251666884Y-12000714D02*
X251666884Y-11572142D01*
X251666884Y-11572142D02*
X251595456Y-11429285D01*
X251595456Y-11429285D02*
X251524027Y-11357857D01*
X251524027Y-11357857D02*
X251381170Y-11286428D01*
X251381170Y-11286428D02*
X251095456Y-11286428D01*
X251095456Y-11286428D02*
X250952599Y-11357857D01*
X249666884Y-12215000D02*
X249809741Y-12286428D01*
X249809741Y-12286428D02*
X250095456Y-12286428D01*
X250095456Y-12286428D02*
X250238313Y-12215000D01*
X250238313Y-12215000D02*
X250309741Y-12072142D01*
X250309741Y-12072142D02*
X250309741Y-11500714D01*
X250309741Y-11500714D02*
X250238313Y-11357857D01*
X250238313Y-11357857D02*
X250095456Y-11286428D01*
X250095456Y-11286428D02*
X249809741Y-11286428D01*
X249809741Y-11286428D02*
X249666884Y-11357857D01*
X249666884Y-11357857D02*
X249595456Y-11500714D01*
X249595456Y-11500714D02*
X249595456Y-11643571D01*
X249595456Y-11643571D02*
X250309741Y-11786428D01*
X248738313Y-12286428D02*
X248881170Y-12215000D01*
X248881170Y-12215000D02*
X248952599Y-12072142D01*
X248952599Y-12072142D02*
X248952599Y-10786428D01*
X248381170Y-11286428D02*
X247809742Y-11286428D01*
X248166885Y-10786428D02*
X248166885Y-12072142D01*
X248166885Y-12072142D02*
X248095456Y-12215000D01*
X248095456Y-12215000D02*
X247952599Y-12286428D01*
X247952599Y-12286428D02*
X247809742Y-12286428D01*
X246666885Y-12286428D02*
X246666885Y-11500714D01*
X246666885Y-11500714D02*
X246738313Y-11357857D01*
X246738313Y-11357857D02*
X246881170Y-11286428D01*
X246881170Y-11286428D02*
X247166885Y-11286428D01*
X247166885Y-11286428D02*
X247309742Y-11357857D01*
X246666885Y-12215000D02*
X246809742Y-12286428D01*
X246809742Y-12286428D02*
X247166885Y-12286428D01*
X247166885Y-12286428D02*
X247309742Y-12215000D01*
X247309742Y-12215000D02*
X247381170Y-12072142D01*
X247381170Y-12072142D02*
X247381170Y-11929285D01*
X247381170Y-11929285D02*
X247309742Y-11786428D01*
X247309742Y-11786428D02*
X247166885Y-11715000D01*
X247166885Y-11715000D02*
X246809742Y-11715000D01*
X246809742Y-11715000D02*
X246666885Y-11643571D01*
X246309742Y-12429285D02*
X245166884Y-12429285D01*
X244881170Y-12215000D02*
X244738313Y-12286428D01*
X244738313Y-12286428D02*
X244452599Y-12286428D01*
X244452599Y-12286428D02*
X244309742Y-12215000D01*
X244309742Y-12215000D02*
X244238313Y-12072142D01*
X244238313Y-12072142D02*
X244238313Y-12000714D01*
X244238313Y-12000714D02*
X244309742Y-11857857D01*
X244309742Y-11857857D02*
X244452599Y-11786428D01*
X244452599Y-11786428D02*
X244666885Y-11786428D01*
X244666885Y-11786428D02*
X244809742Y-11715000D01*
X244809742Y-11715000D02*
X244881170Y-11572142D01*
X244881170Y-11572142D02*
X244881170Y-11500714D01*
X244881170Y-11500714D02*
X244809742Y-11357857D01*
X244809742Y-11357857D02*
X244666885Y-11286428D01*
X244666885Y-11286428D02*
X244452599Y-11286428D01*
X244452599Y-11286428D02*
X244309742Y-11357857D01*
X261595457Y-14716428D02*
X261595457Y-13216428D01*
X260952600Y-14716428D02*
X260952600Y-13930714D01*
X260952600Y-13930714D02*
X261024028Y-13787857D01*
X261024028Y-13787857D02*
X261166885Y-13716428D01*
X261166885Y-13716428D02*
X261381171Y-13716428D01*
X261381171Y-13716428D02*
X261524028Y-13787857D01*
X261524028Y-13787857D02*
X261595457Y-13859285D01*
X260452599Y-13716428D02*
X259881171Y-13716428D01*
X260238314Y-13216428D02*
X260238314Y-14502142D01*
X260238314Y-14502142D02*
X260166885Y-14645000D01*
X260166885Y-14645000D02*
X260024028Y-14716428D01*
X260024028Y-14716428D02*
X259881171Y-14716428D01*
X259595456Y-13716428D02*
X259024028Y-13716428D01*
X259381171Y-13216428D02*
X259381171Y-14502142D01*
X259381171Y-14502142D02*
X259309742Y-14645000D01*
X259309742Y-14645000D02*
X259166885Y-14716428D01*
X259166885Y-14716428D02*
X259024028Y-14716428D01*
X258524028Y-13716428D02*
X258524028Y-15216428D01*
X258524028Y-13787857D02*
X258381171Y-13716428D01*
X258381171Y-13716428D02*
X258095456Y-13716428D01*
X258095456Y-13716428D02*
X257952599Y-13787857D01*
X257952599Y-13787857D02*
X257881171Y-13859285D01*
X257881171Y-13859285D02*
X257809742Y-14002142D01*
X257809742Y-14002142D02*
X257809742Y-14430714D01*
X257809742Y-14430714D02*
X257881171Y-14573571D01*
X257881171Y-14573571D02*
X257952599Y-14645000D01*
X257952599Y-14645000D02*
X258095456Y-14716428D01*
X258095456Y-14716428D02*
X258381171Y-14716428D01*
X258381171Y-14716428D02*
X258524028Y-14645000D01*
X257238313Y-14645000D02*
X257095456Y-14716428D01*
X257095456Y-14716428D02*
X256809742Y-14716428D01*
X256809742Y-14716428D02*
X256666885Y-14645000D01*
X256666885Y-14645000D02*
X256595456Y-14502142D01*
X256595456Y-14502142D02*
X256595456Y-14430714D01*
X256595456Y-14430714D02*
X256666885Y-14287857D01*
X256666885Y-14287857D02*
X256809742Y-14216428D01*
X256809742Y-14216428D02*
X257024028Y-14216428D01*
X257024028Y-14216428D02*
X257166885Y-14145000D01*
X257166885Y-14145000D02*
X257238313Y-14002142D01*
X257238313Y-14002142D02*
X257238313Y-13930714D01*
X257238313Y-13930714D02*
X257166885Y-13787857D01*
X257166885Y-13787857D02*
X257024028Y-13716428D01*
X257024028Y-13716428D02*
X256809742Y-13716428D01*
X256809742Y-13716428D02*
X256666885Y-13787857D01*
X255952599Y-14573571D02*
X255881170Y-14645000D01*
X255881170Y-14645000D02*
X255952599Y-14716428D01*
X255952599Y-14716428D02*
X256024027Y-14645000D01*
X256024027Y-14645000D02*
X255952599Y-14573571D01*
X255952599Y-14573571D02*
X255952599Y-14716428D01*
X255952599Y-13787857D02*
X255881170Y-13859285D01*
X255881170Y-13859285D02*
X255952599Y-13930714D01*
X255952599Y-13930714D02*
X256024027Y-13859285D01*
X256024027Y-13859285D02*
X255952599Y-13787857D01*
X255952599Y-13787857D02*
X255952599Y-13930714D01*
X254166884Y-13145000D02*
X255452598Y-15073571D01*
X252595455Y-13145000D02*
X253881169Y-15073571D01*
X252238312Y-13716428D02*
X251952598Y-14716428D01*
X251952598Y-14716428D02*
X251666883Y-14002142D01*
X251666883Y-14002142D02*
X251381169Y-14716428D01*
X251381169Y-14716428D02*
X251095455Y-13716428D01*
X250666883Y-13716428D02*
X250381169Y-14716428D01*
X250381169Y-14716428D02*
X250095454Y-14002142D01*
X250095454Y-14002142D02*
X249809740Y-14716428D01*
X249809740Y-14716428D02*
X249524026Y-13716428D01*
X249095454Y-13716428D02*
X248809740Y-14716428D01*
X248809740Y-14716428D02*
X248524025Y-14002142D01*
X248524025Y-14002142D02*
X248238311Y-14716428D01*
X248238311Y-14716428D02*
X247952597Y-13716428D01*
X247381168Y-14573571D02*
X247309739Y-14645000D01*
X247309739Y-14645000D02*
X247381168Y-14716428D01*
X247381168Y-14716428D02*
X247452596Y-14645000D01*
X247452596Y-14645000D02*
X247381168Y-14573571D01*
X247381168Y-14573571D02*
X247381168Y-14716428D01*
X246809739Y-13716428D02*
X246452596Y-14716428D01*
X246095453Y-13716428D02*
X246452596Y-14716428D01*
X246452596Y-14716428D02*
X246595453Y-15073571D01*
X246595453Y-15073571D02*
X246666882Y-15145000D01*
X246666882Y-15145000D02*
X246809739Y-15216428D01*
X245309739Y-14716428D02*
X245452596Y-14645000D01*
X245452596Y-14645000D02*
X245524025Y-14573571D01*
X245524025Y-14573571D02*
X245595453Y-14430714D01*
X245595453Y-14430714D02*
X245595453Y-14002142D01*
X245595453Y-14002142D02*
X245524025Y-13859285D01*
X245524025Y-13859285D02*
X245452596Y-13787857D01*
X245452596Y-13787857D02*
X245309739Y-13716428D01*
X245309739Y-13716428D02*
X245095453Y-13716428D01*
X245095453Y-13716428D02*
X244952596Y-13787857D01*
X244952596Y-13787857D02*
X244881168Y-13859285D01*
X244881168Y-13859285D02*
X244809739Y-14002142D01*
X244809739Y-14002142D02*
X244809739Y-14430714D01*
X244809739Y-14430714D02*
X244881168Y-14573571D01*
X244881168Y-14573571D02*
X244952596Y-14645000D01*
X244952596Y-14645000D02*
X245095453Y-14716428D01*
X245095453Y-14716428D02*
X245309739Y-14716428D01*
X243524025Y-13716428D02*
X243524025Y-14716428D01*
X244166882Y-13716428D02*
X244166882Y-14502142D01*
X244166882Y-14502142D02*
X244095453Y-14645000D01*
X244095453Y-14645000D02*
X243952596Y-14716428D01*
X243952596Y-14716428D02*
X243738310Y-14716428D01*
X243738310Y-14716428D02*
X243595453Y-14645000D01*
X243595453Y-14645000D02*
X243524025Y-14573571D01*
X243024024Y-13716428D02*
X242452596Y-13716428D01*
X242809739Y-13216428D02*
X242809739Y-14502142D01*
X242809739Y-14502142D02*
X242738310Y-14645000D01*
X242738310Y-14645000D02*
X242595453Y-14716428D01*
X242595453Y-14716428D02*
X242452596Y-14716428D01*
X241309739Y-13716428D02*
X241309739Y-14716428D01*
X241952596Y-13716428D02*
X241952596Y-14502142D01*
X241952596Y-14502142D02*
X241881167Y-14645000D01*
X241881167Y-14645000D02*
X241738310Y-14716428D01*
X241738310Y-14716428D02*
X241524024Y-14716428D01*
X241524024Y-14716428D02*
X241381167Y-14645000D01*
X241381167Y-14645000D02*
X241309739Y-14573571D01*
X240595453Y-14716428D02*
X240595453Y-13216428D01*
X240595453Y-13787857D02*
X240452596Y-13716428D01*
X240452596Y-13716428D02*
X240166881Y-13716428D01*
X240166881Y-13716428D02*
X240024024Y-13787857D01*
X240024024Y-13787857D02*
X239952596Y-13859285D01*
X239952596Y-13859285D02*
X239881167Y-14002142D01*
X239881167Y-14002142D02*
X239881167Y-14430714D01*
X239881167Y-14430714D02*
X239952596Y-14573571D01*
X239952596Y-14573571D02*
X240024024Y-14645000D01*
X240024024Y-14645000D02*
X240166881Y-14716428D01*
X240166881Y-14716428D02*
X240452596Y-14716428D01*
X240452596Y-14716428D02*
X240595453Y-14645000D01*
X238666881Y-14645000D02*
X238809738Y-14716428D01*
X238809738Y-14716428D02*
X239095453Y-14716428D01*
X239095453Y-14716428D02*
X239238310Y-14645000D01*
X239238310Y-14645000D02*
X239309738Y-14502142D01*
X239309738Y-14502142D02*
X239309738Y-13930714D01*
X239309738Y-13930714D02*
X239238310Y-13787857D01*
X239238310Y-13787857D02*
X239095453Y-13716428D01*
X239095453Y-13716428D02*
X238809738Y-13716428D01*
X238809738Y-13716428D02*
X238666881Y-13787857D01*
X238666881Y-13787857D02*
X238595453Y-13930714D01*
X238595453Y-13930714D02*
X238595453Y-14073571D01*
X238595453Y-14073571D02*
X239309738Y-14216428D01*
X237952596Y-14573571D02*
X237881167Y-14645000D01*
X237881167Y-14645000D02*
X237952596Y-14716428D01*
X237952596Y-14716428D02*
X238024024Y-14645000D01*
X238024024Y-14645000D02*
X237952596Y-14573571D01*
X237952596Y-14573571D02*
X237952596Y-14716428D01*
X236595453Y-14645000D02*
X236738310Y-14716428D01*
X236738310Y-14716428D02*
X237024024Y-14716428D01*
X237024024Y-14716428D02*
X237166881Y-14645000D01*
X237166881Y-14645000D02*
X237238310Y-14573571D01*
X237238310Y-14573571D02*
X237309738Y-14430714D01*
X237309738Y-14430714D02*
X237309738Y-14002142D01*
X237309738Y-14002142D02*
X237238310Y-13859285D01*
X237238310Y-13859285D02*
X237166881Y-13787857D01*
X237166881Y-13787857D02*
X237024024Y-13716428D01*
X237024024Y-13716428D02*
X236738310Y-13716428D01*
X236738310Y-13716428D02*
X236595453Y-13787857D01*
X235738310Y-14716428D02*
X235881167Y-14645000D01*
X235881167Y-14645000D02*
X235952596Y-14573571D01*
X235952596Y-14573571D02*
X236024024Y-14430714D01*
X236024024Y-14430714D02*
X236024024Y-14002142D01*
X236024024Y-14002142D02*
X235952596Y-13859285D01*
X235952596Y-13859285D02*
X235881167Y-13787857D01*
X235881167Y-13787857D02*
X235738310Y-13716428D01*
X235738310Y-13716428D02*
X235524024Y-13716428D01*
X235524024Y-13716428D02*
X235381167Y-13787857D01*
X235381167Y-13787857D02*
X235309739Y-13859285D01*
X235309739Y-13859285D02*
X235238310Y-14002142D01*
X235238310Y-14002142D02*
X235238310Y-14430714D01*
X235238310Y-14430714D02*
X235309739Y-14573571D01*
X235309739Y-14573571D02*
X235381167Y-14645000D01*
X235381167Y-14645000D02*
X235524024Y-14716428D01*
X235524024Y-14716428D02*
X235738310Y-14716428D01*
X234595453Y-14716428D02*
X234595453Y-13716428D01*
X234595453Y-13859285D02*
X234524024Y-13787857D01*
X234524024Y-13787857D02*
X234381167Y-13716428D01*
X234381167Y-13716428D02*
X234166881Y-13716428D01*
X234166881Y-13716428D02*
X234024024Y-13787857D01*
X234024024Y-13787857D02*
X233952596Y-13930714D01*
X233952596Y-13930714D02*
X233952596Y-14716428D01*
X233952596Y-13930714D02*
X233881167Y-13787857D01*
X233881167Y-13787857D02*
X233738310Y-13716428D01*
X233738310Y-13716428D02*
X233524024Y-13716428D01*
X233524024Y-13716428D02*
X233381167Y-13787857D01*
X233381167Y-13787857D02*
X233309738Y-13930714D01*
X233309738Y-13930714D02*
X233309738Y-14716428D01*
X231524024Y-13145000D02*
X232809738Y-15073571D01*
X230095452Y-14002142D02*
X230166881Y-13930714D01*
X230166881Y-13930714D02*
X230309738Y-13859285D01*
X230309738Y-13859285D02*
X230452595Y-13859285D01*
X230452595Y-13859285D02*
X230595452Y-13930714D01*
X230595452Y-13930714D02*
X230666881Y-14002142D01*
X230666881Y-14002142D02*
X230738309Y-14145000D01*
X230738309Y-14145000D02*
X230738309Y-14287857D01*
X230738309Y-14287857D02*
X230666881Y-14430714D01*
X230666881Y-14430714D02*
X230595452Y-14502142D01*
X230595452Y-14502142D02*
X230452595Y-14573571D01*
X230452595Y-14573571D02*
X230309738Y-14573571D01*
X230309738Y-14573571D02*
X230166881Y-14502142D01*
X230166881Y-14502142D02*
X230095452Y-14430714D01*
X230095452Y-13859285D02*
X230095452Y-14430714D01*
X230095452Y-14430714D02*
X230024024Y-14502142D01*
X230024024Y-14502142D02*
X229952595Y-14502142D01*
X229952595Y-14502142D02*
X229809738Y-14430714D01*
X229809738Y-14430714D02*
X229738309Y-14287857D01*
X229738309Y-14287857D02*
X229738309Y-13930714D01*
X229738309Y-13930714D02*
X229881167Y-13716428D01*
X229881167Y-13716428D02*
X230095452Y-13573571D01*
X230095452Y-13573571D02*
X230381167Y-13502142D01*
X230381167Y-13502142D02*
X230666881Y-13573571D01*
X230666881Y-13573571D02*
X230881167Y-13716428D01*
X230881167Y-13716428D02*
X231024024Y-13930714D01*
X231024024Y-13930714D02*
X231095452Y-14216428D01*
X231095452Y-14216428D02*
X231024024Y-14502142D01*
X231024024Y-14502142D02*
X230881167Y-14716428D01*
X230881167Y-14716428D02*
X230666881Y-14859285D01*
X230666881Y-14859285D02*
X230381167Y-14930714D01*
X230381167Y-14930714D02*
X230095452Y-14859285D01*
X230095452Y-14859285D02*
X229881167Y-14716428D01*
X229095453Y-14716428D02*
X229095453Y-13216428D01*
X229095453Y-13216428D02*
X228595453Y-14287857D01*
X228595453Y-14287857D02*
X228095453Y-13216428D01*
X228095453Y-13216428D02*
X228095453Y-14716428D01*
X226738310Y-14716428D02*
X226738310Y-13930714D01*
X226738310Y-13930714D02*
X226809738Y-13787857D01*
X226809738Y-13787857D02*
X226952595Y-13716428D01*
X226952595Y-13716428D02*
X227238310Y-13716428D01*
X227238310Y-13716428D02*
X227381167Y-13787857D01*
X226738310Y-14645000D02*
X226881167Y-14716428D01*
X226881167Y-14716428D02*
X227238310Y-14716428D01*
X227238310Y-14716428D02*
X227381167Y-14645000D01*
X227381167Y-14645000D02*
X227452595Y-14502142D01*
X227452595Y-14502142D02*
X227452595Y-14359285D01*
X227452595Y-14359285D02*
X227381167Y-14216428D01*
X227381167Y-14216428D02*
X227238310Y-14145000D01*
X227238310Y-14145000D02*
X226881167Y-14145000D01*
X226881167Y-14145000D02*
X226738310Y-14073571D01*
X225381167Y-14716428D02*
X225381167Y-13216428D01*
X225381167Y-14645000D02*
X225524024Y-14716428D01*
X225524024Y-14716428D02*
X225809738Y-14716428D01*
X225809738Y-14716428D02*
X225952595Y-14645000D01*
X225952595Y-14645000D02*
X226024024Y-14573571D01*
X226024024Y-14573571D02*
X226095452Y-14430714D01*
X226095452Y-14430714D02*
X226095452Y-14002142D01*
X226095452Y-14002142D02*
X226024024Y-13859285D01*
X226024024Y-13859285D02*
X225952595Y-13787857D01*
X225952595Y-13787857D02*
X225809738Y-13716428D01*
X225809738Y-13716428D02*
X225524024Y-13716428D01*
X225524024Y-13716428D02*
X225381167Y-13787857D01*
X223809738Y-14573571D02*
X223881166Y-14645000D01*
X223881166Y-14645000D02*
X224095452Y-14716428D01*
X224095452Y-14716428D02*
X224238309Y-14716428D01*
X224238309Y-14716428D02*
X224452595Y-14645000D01*
X224452595Y-14645000D02*
X224595452Y-14502142D01*
X224595452Y-14502142D02*
X224666881Y-14359285D01*
X224666881Y-14359285D02*
X224738309Y-14073571D01*
X224738309Y-14073571D02*
X224738309Y-13859285D01*
X224738309Y-13859285D02*
X224666881Y-13573571D01*
X224666881Y-13573571D02*
X224595452Y-13430714D01*
X224595452Y-13430714D02*
X224452595Y-13287857D01*
X224452595Y-13287857D02*
X224238309Y-13216428D01*
X224238309Y-13216428D02*
X224095452Y-13216428D01*
X224095452Y-13216428D02*
X223881166Y-13287857D01*
X223881166Y-13287857D02*
X223809738Y-13359285D01*
X222524024Y-14716428D02*
X222524024Y-13930714D01*
X222524024Y-13930714D02*
X222595452Y-13787857D01*
X222595452Y-13787857D02*
X222738309Y-13716428D01*
X222738309Y-13716428D02*
X223024024Y-13716428D01*
X223024024Y-13716428D02*
X223166881Y-13787857D01*
X222524024Y-14645000D02*
X222666881Y-14716428D01*
X222666881Y-14716428D02*
X223024024Y-14716428D01*
X223024024Y-14716428D02*
X223166881Y-14645000D01*
X223166881Y-14645000D02*
X223238309Y-14502142D01*
X223238309Y-14502142D02*
X223238309Y-14359285D01*
X223238309Y-14359285D02*
X223166881Y-14216428D01*
X223166881Y-14216428D02*
X223024024Y-14145000D01*
X223024024Y-14145000D02*
X222666881Y-14145000D01*
X222666881Y-14145000D02*
X222524024Y-14073571D01*
X222024023Y-13716428D02*
X221452595Y-13716428D01*
X221809738Y-13216428D02*
X221809738Y-14502142D01*
X221809738Y-14502142D02*
X221738309Y-14645000D01*
X221738309Y-14645000D02*
X221595452Y-14716428D01*
X221595452Y-14716428D02*
X221452595Y-14716428D01*
X221024023Y-14645000D02*
X220809738Y-14716428D01*
X220809738Y-14716428D02*
X220452595Y-14716428D01*
X220452595Y-14716428D02*
X220309738Y-14645000D01*
X220309738Y-14645000D02*
X220238309Y-14573571D01*
X220238309Y-14573571D02*
X220166880Y-14430714D01*
X220166880Y-14430714D02*
X220166880Y-14287857D01*
X220166880Y-14287857D02*
X220238309Y-14145000D01*
X220238309Y-14145000D02*
X220309738Y-14073571D01*
X220309738Y-14073571D02*
X220452595Y-14002142D01*
X220452595Y-14002142D02*
X220738309Y-13930714D01*
X220738309Y-13930714D02*
X220881166Y-13859285D01*
X220881166Y-13859285D02*
X220952595Y-13787857D01*
X220952595Y-13787857D02*
X221024023Y-13645000D01*
X221024023Y-13645000D02*
X221024023Y-13502142D01*
X221024023Y-13502142D02*
X220952595Y-13359285D01*
X220952595Y-13359285D02*
X220881166Y-13287857D01*
X220881166Y-13287857D02*
X220738309Y-13216428D01*
X220738309Y-13216428D02*
X220381166Y-13216428D01*
X220381166Y-13216428D02*
X220166880Y-13287857D01*
X219524024Y-13930714D02*
X219024024Y-13930714D01*
X218809738Y-14716428D02*
X219524024Y-14716428D01*
X219524024Y-14716428D02*
X219524024Y-13216428D01*
X219524024Y-13216428D02*
X218809738Y-13216428D01*
M02*
