%TF.GenerationSoftware,KiCad,Pcbnew,7.0.1*%
%TF.CreationDate,2023-10-19T22:59:03+03:00*%
%TF.ProjectId,keyboard_cherry_panel,6b657962-6f61-4726-945f-636865727279,rev?*%
%TF.SameCoordinates,Original*%
%TF.FileFunction,Drillmap*%
%TF.FilePolarity,Positive*%
%FSLAX45Y45*%
G04 Gerber Fmt 4.5, Leading zero omitted, Abs format (unit mm)*
G04 Created by KiCad (PCBNEW 7.0.1) date 2023-10-19 22:59:03*
%MOMM*%
%LPD*%
G01*
G04 APERTURE LIST*
%ADD10C,0.150000*%
%ADD11C,0.100000*%
%ADD12C,0.200000*%
G04 APERTURE END LIST*
D10*
X9504495Y-10636933D02*
X9676995Y-10636933D01*
X27881995Y-2389940D02*
X27881995Y-2110050D01*
X19142795Y-4944930D02*
X19142795Y-3545000D01*
X27124495Y-2110050D02*
X26972095Y-2110050D01*
X26286495Y-5450000D02*
X27686495Y-5450000D01*
X22447695Y-3545000D02*
X22447695Y-4944930D01*
X21495195Y-3039930D02*
X20095295Y-3039930D01*
X21047795Y-4944930D02*
X21047795Y-3545000D01*
X19142795Y-3545000D02*
X20542695Y-3545000D01*
X26762795Y-9260000D02*
X28162695Y-9260000D01*
X7207695Y-4944930D02*
X5807765Y-4944930D01*
X9112695Y-8754950D02*
X7712765Y-8754950D01*
X9422085Y-10009926D02*
X9504495Y-10009926D01*
X18190295Y-5450000D02*
X19590195Y-5450000D01*
X19590195Y-5450000D02*
X19590195Y-6849930D01*
X1997765Y-5450000D02*
X1997765Y-5920050D01*
X3960775Y-10636933D02*
X3960775Y-10756960D01*
X17685195Y-3039930D02*
X16285295Y-3039930D01*
X8593865Y-9730050D02*
X8511455Y-9730050D01*
X11017695Y-3545000D02*
X11017695Y-4944930D01*
X24352695Y-9260000D02*
X24352695Y-10659946D01*
X11970195Y-3039930D02*
X10570125Y-3039930D01*
X4350195Y-1640000D02*
X4350195Y-3039930D01*
X22447695Y-7355010D02*
X22447695Y-8754950D01*
X4855265Y-3039930D02*
X4855265Y-1640000D01*
X8665265Y-1640000D02*
X10065195Y-1640000D01*
X4855265Y-1640000D02*
X6255195Y-1640000D01*
X20542695Y-7355010D02*
X20542695Y-8754950D01*
X22952795Y-7355010D02*
X24352695Y-7355010D01*
X16285295Y-5450000D02*
X17685195Y-5450000D01*
X7683945Y-9730050D02*
X7683945Y-9260000D01*
X25571995Y-2570030D02*
X25571995Y-3039930D01*
X25810295Y-8754950D02*
X27210195Y-8754950D01*
X27686495Y-5450000D02*
X27686495Y-6849930D01*
X5807765Y-7355010D02*
X7207695Y-7355010D01*
X3902765Y-8754950D02*
X3902765Y-7355010D01*
X25155295Y-8731930D02*
X25155295Y-8851960D01*
X20261995Y-10009926D02*
X20261995Y-9730050D01*
X9112695Y-3545000D02*
X9112695Y-4944930D01*
X1910805Y-10756960D02*
X1910805Y-10636933D01*
X6131475Y-9407030D02*
X5456505Y-9407030D01*
X12475095Y-1640000D02*
X13875195Y-1640000D01*
X1408375Y-9407030D02*
X1408375Y-9730050D01*
X7836525Y-9407030D02*
X7836525Y-9730050D01*
X20179595Y-10009926D02*
X20261995Y-10009926D01*
X3788385Y-10189899D02*
X3788385Y-10636933D01*
X28037695Y-8731930D02*
X28037695Y-8104930D01*
X25657695Y-8285040D02*
X25810295Y-8285040D01*
X1170250Y-5597040D02*
X1170250Y-5920050D01*
X14380295Y-6849930D02*
X14380295Y-5450000D01*
X1170250Y-6199940D02*
X1170250Y-6826930D01*
X4052695Y-6826930D02*
X4225225Y-6826930D01*
X27210195Y-7355010D02*
X25810295Y-7355010D01*
X3788385Y-9407030D02*
X3788385Y-9730050D01*
X10007055Y-10636933D02*
X10179605Y-10636933D01*
X16732695Y-8754950D02*
X15332795Y-8754950D01*
X11017695Y-8754950D02*
X9617765Y-8754950D01*
X25247095Y-3016930D02*
X25419595Y-3016930D01*
X5456505Y-9407030D02*
X5456505Y-9730050D01*
X13427795Y-3545000D02*
X14827695Y-3545000D01*
X4307765Y-6199940D02*
X4307765Y-5920050D01*
X16285295Y-3039930D02*
X16285295Y-1640000D01*
X4463335Y-9407030D02*
X3788385Y-9407030D01*
X20007095Y-10636933D02*
X20179595Y-10636933D01*
X15780195Y-6849930D02*
X14380295Y-6849930D01*
X21047795Y-3545000D02*
X22447695Y-3545000D01*
X24352695Y-10659946D02*
X22952795Y-10659946D01*
X27362795Y-7502030D02*
X27362795Y-7825050D01*
X5628875Y-10756960D02*
X5958935Y-10756960D01*
X11522795Y-4944930D02*
X11522795Y-3545000D01*
X8511455Y-9407030D02*
X7836525Y-9407030D01*
X3635835Y-10659946D02*
X3635835Y-10189899D01*
X1170250Y-5920050D02*
X1087704Y-5920050D01*
X8008885Y-10756960D02*
X8338945Y-10756960D01*
X25419595Y-2110050D02*
X25419595Y-1787040D01*
X1997765Y-6380030D02*
X1997765Y-6849930D01*
X3902765Y-4944930D02*
X3902765Y-3545000D01*
X24744495Y-2389940D02*
X24744495Y-3016930D01*
X28162695Y-9260000D02*
X28162695Y-10659946D01*
X9112695Y-7355010D02*
X9112695Y-8754950D01*
X18190295Y-6849930D02*
X18190295Y-5450000D01*
X23428995Y-4944930D02*
X23428995Y-3545000D01*
X22000295Y-6849930D02*
X22000295Y-5450000D01*
X28120295Y-7825050D02*
X28037695Y-7825050D01*
X15542095Y-10189899D02*
X19504495Y-10189899D01*
X13427795Y-7355010D02*
X14827695Y-7355010D01*
X27865195Y-8731930D02*
X28037695Y-8731930D01*
X27210195Y-7825050D02*
X27210195Y-7355010D01*
X1845215Y-6826930D02*
X1845215Y-6380030D01*
X27627095Y-3136950D02*
X27627095Y-3016930D01*
X10179605Y-9730050D02*
X10179605Y-9407030D01*
X27535295Y-8851960D02*
X27865195Y-8851960D01*
X8665265Y-5450000D02*
X10065195Y-5450000D01*
X23428995Y-3545000D02*
X24828995Y-3545000D01*
X17685195Y-6849930D02*
X16285295Y-6849930D01*
X3397705Y-6380030D02*
X3550255Y-6380030D01*
X15542095Y-9260000D02*
X14141995Y-9260000D01*
X20542695Y-3545000D02*
X20542695Y-4944930D01*
X3902765Y-3545000D02*
X5302695Y-3545000D01*
X20095295Y-1640000D02*
X21495195Y-1640000D01*
X19590195Y-1640000D02*
X19590195Y-3039930D01*
X25657695Y-7502030D02*
X24982795Y-7502030D01*
X2235885Y-9260000D02*
X2235885Y-9730050D01*
X4290815Y-10756960D02*
X4290815Y-10636933D01*
X26972095Y-2110050D02*
X26972095Y-1640000D01*
X3635835Y-9730050D02*
X3635835Y-9260000D01*
X25485195Y-8731930D02*
X25657695Y-8731930D01*
X10570125Y-1640000D02*
X11970195Y-1640000D01*
X24916995Y-3136950D02*
X25247095Y-3136950D01*
X1672680Y-6946950D02*
X1672680Y-6826930D01*
X12922695Y-7355010D02*
X12922695Y-8754950D01*
X1845215Y-5597040D02*
X1170250Y-5597040D01*
X6255195Y-1640000D02*
X6255195Y-3039930D01*
X5302695Y-7355010D02*
X5302695Y-8754950D01*
X1521511Y-4944930D02*
X1521511Y-3545000D01*
X5807765Y-4944930D02*
X5807765Y-3545000D01*
X8160195Y-5450000D02*
X8160195Y-6849930D01*
X10007055Y-10756960D02*
X10007055Y-10636933D01*
X15542095Y-9730050D02*
X15542095Y-9260000D01*
X2921465Y-4944930D02*
X1521511Y-4944930D01*
X2921465Y-3545000D02*
X2921465Y-4944930D01*
X27881995Y-2110050D02*
X27799595Y-2110050D01*
X19142795Y-8754950D02*
X19142795Y-7355010D01*
X6284015Y-10189899D02*
X6284015Y-10659946D01*
X22447695Y-10659946D02*
X21047795Y-10659946D01*
X7683945Y-9260000D02*
X6284015Y-9260000D01*
X15780195Y-3039930D02*
X14380295Y-3039930D01*
X6131475Y-10189899D02*
X6284015Y-10189899D01*
X20095295Y-6849930D02*
X20095295Y-5450000D01*
X23638295Y-1640000D02*
X23638295Y-3039930D01*
X18637695Y-8754950D02*
X17237795Y-8754950D01*
X8665265Y-6849930D02*
X8665265Y-5450000D01*
X9617765Y-3545000D02*
X11017695Y-3545000D01*
X7207695Y-3545000D02*
X7207695Y-4944930D01*
X2235885Y-9730050D02*
X2083335Y-9730050D01*
X28120295Y-8104930D02*
X28120295Y-7825050D01*
X3788385Y-10636933D02*
X3960775Y-10636933D01*
X21047795Y-8754950D02*
X21047795Y-7355010D01*
X15542095Y-10659946D02*
X15542095Y-10189899D01*
X1997765Y-5920050D02*
X1845215Y-5920050D01*
X4463335Y-10636933D02*
X4463335Y-10009926D01*
X5958935Y-10636933D02*
X6131475Y-10636933D01*
X26286495Y-3545000D02*
X27686495Y-3545000D01*
X10570125Y-6849930D02*
X10570125Y-5450000D01*
X2921465Y-7355010D02*
X2921465Y-8754950D01*
X28037695Y-7825050D02*
X28037695Y-7502030D01*
X17237795Y-7355010D02*
X18637695Y-7355010D01*
X11522795Y-7355010D02*
X12922695Y-7355010D01*
X24982795Y-8731930D02*
X25155295Y-8731930D01*
X12475095Y-5450000D02*
X13875195Y-5450000D01*
X24744495Y-3016930D02*
X24916995Y-3016930D01*
X8511455Y-9730050D02*
X8511455Y-9407030D01*
X26972095Y-2570030D02*
X27124495Y-2570030D01*
X13427795Y-8754950D02*
X13427795Y-7355010D01*
X5958935Y-10756960D02*
X5958935Y-10636933D01*
X14380295Y-5450000D02*
X15780195Y-5450000D01*
X5373955Y-9730050D02*
X5373955Y-10009926D01*
X26257695Y-9260000D02*
X26257695Y-10659946D01*
X4052695Y-6946950D02*
X4052695Y-6826930D01*
X23905295Y-6849930D02*
X23905295Y-5450000D01*
X10065195Y-5450000D02*
X10065195Y-6849930D01*
X25247095Y-3136950D02*
X25247095Y-3016930D01*
X1342779Y-6946950D02*
X1672680Y-6946950D01*
X7683945Y-10659946D02*
X7683945Y-10189899D01*
X25571995Y-2110050D02*
X25419595Y-2110050D01*
X1087704Y-5920050D02*
X1087704Y-6199940D01*
X26762795Y-10659946D02*
X26762795Y-9260000D01*
X20095295Y-3039930D02*
X20095295Y-1640000D01*
X20095295Y-5450000D02*
X21495195Y-5450000D01*
X21047795Y-10659946D02*
X21047795Y-9260000D01*
X5628875Y-10636933D02*
X5628875Y-10756960D01*
X2083335Y-9407030D02*
X1408375Y-9407030D01*
X1045260Y-3039930D02*
X1045260Y-1640000D01*
X15332795Y-3545000D02*
X16732695Y-3545000D01*
X20179595Y-10636933D02*
X20179595Y-10009926D01*
X24828995Y-3545000D02*
X24828995Y-4944930D01*
X4225225Y-6826930D02*
X4225225Y-6199940D01*
X3788385Y-9730050D02*
X3635835Y-9730050D01*
X7712765Y-7355010D02*
X9112695Y-7355010D01*
X19504495Y-10189899D02*
X19504495Y-10636933D01*
X2950265Y-1640000D02*
X4350195Y-1640000D01*
X14141995Y-10659946D02*
X15542095Y-10659946D01*
X28162695Y-10659946D02*
X26762795Y-10659946D01*
X12475095Y-3039930D02*
X12475095Y-1640000D01*
X3635835Y-10189899D02*
X3788385Y-10189899D01*
X10179605Y-10636933D02*
X10179605Y-10189899D01*
X16285295Y-6849930D02*
X16285295Y-5450000D01*
X7712765Y-4944930D02*
X7712765Y-3545000D01*
X26972095Y-3039930D02*
X26972095Y-2570030D01*
X17237795Y-8754950D02*
X17237795Y-7355010D01*
X10065195Y-3039930D02*
X8665265Y-3039930D01*
X13875195Y-3039930D02*
X12475095Y-3039930D01*
X4225225Y-5920050D02*
X4225225Y-5597040D01*
X25657695Y-7825050D02*
X25657695Y-7502030D01*
X24662095Y-2110050D02*
X24662095Y-2389940D01*
X5302695Y-3545000D02*
X5302695Y-4944930D01*
X1408375Y-10636933D02*
X1580904Y-10636933D01*
X8338945Y-10756960D02*
X8338945Y-10636933D01*
X5456505Y-10636933D02*
X5628875Y-10636933D01*
X6255195Y-6849930D02*
X4855265Y-6849930D01*
X17237795Y-4944930D02*
X17237795Y-3545000D01*
X1325828Y-10009926D02*
X1408375Y-10009926D01*
X16732695Y-7355010D02*
X16732695Y-8754950D01*
X24916995Y-3016930D02*
X24916995Y-3136950D01*
X7836525Y-10189899D02*
X7836525Y-10636933D01*
X12922695Y-3545000D02*
X12922695Y-4944930D01*
X25419595Y-1787040D02*
X24744495Y-1787040D01*
X12475095Y-6849930D02*
X12475095Y-5450000D01*
X28037695Y-8104930D02*
X28120295Y-8104930D01*
X4225225Y-6199940D02*
X4307765Y-6199940D01*
X9504495Y-9730050D02*
X9422085Y-9730050D01*
X9504495Y-10009926D02*
X9504495Y-10636933D01*
X3635835Y-9260000D02*
X2235885Y-9260000D01*
X4290815Y-10636933D02*
X4463335Y-10636933D01*
X11970195Y-6849930D02*
X10570125Y-6849930D01*
X19676995Y-10756960D02*
X20007095Y-10756960D01*
X8665265Y-3039930D02*
X8665265Y-1640000D01*
X27124495Y-3016930D02*
X27296995Y-3016930D01*
X27865195Y-8851960D02*
X27865195Y-8731930D01*
X9504495Y-9407030D02*
X9504495Y-9730050D01*
X2083335Y-10189899D02*
X2235885Y-10189899D01*
X3550255Y-6826930D02*
X3722785Y-6826930D01*
X27296995Y-3016930D02*
X27296995Y-3136950D01*
X25419595Y-3016930D02*
X25419595Y-2570030D01*
X18637695Y-4944930D02*
X17237795Y-4944930D01*
X10179605Y-9407030D02*
X9504495Y-9407030D01*
X6255195Y-3039930D02*
X4855265Y-3039930D01*
X19504495Y-9730050D02*
X15542095Y-9730050D01*
X14141995Y-10189899D02*
X14141995Y-10659946D01*
X11017695Y-4944930D02*
X9617765Y-4944930D01*
X1045260Y-1640000D02*
X2445215Y-1640000D01*
X1521511Y-3545000D02*
X2921465Y-3545000D01*
X1580904Y-10756960D02*
X1910805Y-10756960D01*
X17685195Y-1640000D02*
X17685195Y-3039930D01*
X9676995Y-10636933D02*
X9676995Y-10756960D01*
X6131475Y-10636933D02*
X6131475Y-10189899D01*
X20179595Y-9730050D02*
X20179595Y-9407030D01*
X25305195Y-6849930D02*
X23905295Y-6849930D01*
X4350195Y-3039930D02*
X2950265Y-3039930D01*
X27799595Y-3016930D02*
X27799595Y-2389940D01*
X5302695Y-4944930D02*
X3902765Y-4944930D01*
X1997765Y-6849930D02*
X3397705Y-6849930D01*
X22238395Y-3039930D02*
X22238395Y-1640000D01*
X25810295Y-7825050D02*
X25657695Y-7825050D01*
X22447695Y-8754950D02*
X21047795Y-8754950D01*
X24744495Y-1787040D02*
X24744495Y-2110050D01*
X7712765Y-8754950D02*
X7712765Y-7355010D01*
X23905295Y-5450000D02*
X25305195Y-5450000D01*
X27124495Y-2570030D02*
X27124495Y-3016930D01*
X3960775Y-10756960D02*
X4290815Y-10756960D01*
X25155295Y-8851960D02*
X25485195Y-8851960D01*
X5302695Y-8754950D02*
X3902765Y-8754950D01*
X11970195Y-1640000D02*
X11970195Y-3039930D01*
X12922695Y-4944930D02*
X11522795Y-4944930D01*
X5807765Y-3545000D02*
X7207695Y-3545000D01*
X19142795Y-7355010D02*
X20542695Y-7355010D01*
X18637695Y-7355010D02*
X18637695Y-8754950D01*
X5456505Y-10009926D02*
X5456505Y-10636933D01*
X15332795Y-4944930D02*
X15332795Y-3545000D01*
X1521511Y-7355010D02*
X2921465Y-7355010D01*
X27799595Y-2389940D02*
X27881995Y-2389940D01*
X9617765Y-4944930D02*
X9617765Y-3545000D01*
X3722785Y-6946950D02*
X4052695Y-6946950D01*
X20542695Y-8754950D02*
X19142795Y-8754950D01*
X9112695Y-4944930D02*
X7712765Y-4944930D01*
X10570125Y-3039930D02*
X10570125Y-1640000D01*
X15332795Y-8754950D02*
X15332795Y-7355010D01*
X6284015Y-10659946D02*
X7683945Y-10659946D01*
X3397705Y-6849930D02*
X3397705Y-6380030D01*
X21047795Y-9260000D02*
X22447695Y-9260000D01*
X14827695Y-8754950D02*
X13427795Y-8754950D01*
X21495195Y-6849930D02*
X20095295Y-6849930D01*
X10065195Y-6849930D02*
X8665265Y-6849930D01*
X22000295Y-5450000D02*
X23400195Y-5450000D01*
X4545885Y-10009926D02*
X4545885Y-9730050D01*
X19504495Y-10636933D02*
X19676995Y-10636933D01*
X19504495Y-9407030D02*
X19504495Y-9730050D01*
X11970195Y-5450000D02*
X11970195Y-6849930D01*
X24900195Y-8104930D02*
X24982795Y-8104930D01*
X19590195Y-3039930D02*
X18190295Y-3039930D01*
X1408375Y-10009926D02*
X1408375Y-10636933D01*
X1087704Y-6199940D02*
X1170250Y-6199940D01*
X14827695Y-3545000D02*
X14827695Y-4944930D01*
X20179595Y-9407030D02*
X19504495Y-9407030D01*
X1521511Y-8754950D02*
X1521511Y-7355010D01*
X13427795Y-4944930D02*
X13427795Y-3545000D01*
X3550255Y-5597040D02*
X3550255Y-5920050D01*
X4855265Y-5450000D02*
X6255195Y-5450000D01*
X24857795Y-9260000D02*
X26257695Y-9260000D01*
X2083335Y-9730050D02*
X2083335Y-9407030D01*
X10179605Y-10189899D02*
X14141995Y-10189899D01*
X24982795Y-7825050D02*
X24900195Y-7825050D01*
X16285295Y-1640000D02*
X17685195Y-1640000D01*
X6284015Y-9260000D02*
X6284015Y-9730050D01*
X24828995Y-4944930D02*
X23428995Y-4944930D01*
X15780195Y-5450000D02*
X15780195Y-6849930D01*
X9422085Y-9730050D02*
X9422085Y-10009926D01*
X24662095Y-2389940D02*
X24744495Y-2389940D01*
X4855265Y-6849930D02*
X4855265Y-5450000D01*
X3902765Y-7355010D02*
X5302695Y-7355010D01*
X24982795Y-8104930D02*
X24982795Y-8731930D01*
X4463335Y-10009926D02*
X4545885Y-10009926D01*
X15332795Y-7355010D02*
X16732695Y-7355010D01*
X8160195Y-3039930D02*
X6760265Y-3039930D01*
X27362795Y-8731930D02*
X27535295Y-8731930D01*
X27686495Y-6849930D02*
X26286495Y-6849930D01*
X25810295Y-7355010D02*
X25810295Y-7825050D01*
X23400195Y-6849930D02*
X22000295Y-6849930D01*
X7683945Y-10189899D02*
X7836525Y-10189899D01*
X10065195Y-1640000D02*
X10065195Y-3039930D01*
X21495195Y-1640000D02*
X21495195Y-3039930D01*
X9617765Y-8754950D02*
X9617765Y-7355010D01*
X27362795Y-8285040D02*
X27362795Y-8731930D01*
X15780195Y-1640000D02*
X15780195Y-3039930D01*
X3550255Y-5920050D02*
X3397705Y-5920050D01*
X18190295Y-1640000D02*
X19590195Y-1640000D01*
X25419595Y-2570030D02*
X25571995Y-2570030D01*
X6131475Y-9730050D02*
X6131475Y-9407030D01*
X11522795Y-3545000D02*
X12922695Y-3545000D01*
X27362795Y-7825050D02*
X27210195Y-7825050D01*
X3722785Y-6826930D02*
X3722785Y-6946950D01*
X1325828Y-9730050D02*
X1325828Y-10009926D01*
X22238395Y-1640000D02*
X23638295Y-1640000D01*
X6760265Y-6849930D02*
X6760265Y-5450000D01*
X22952795Y-8754950D02*
X22952795Y-7355010D01*
X8160195Y-6849930D02*
X6760265Y-6849930D01*
X13875195Y-5450000D02*
X13875195Y-6849930D01*
X8593865Y-10009926D02*
X8593865Y-9730050D01*
X25571995Y-3039930D02*
X26972095Y-3039930D01*
X7712765Y-3545000D02*
X9112695Y-3545000D01*
X27210195Y-8285040D02*
X27362795Y-8285040D01*
X26286495Y-4944930D02*
X26286495Y-3545000D01*
X21047795Y-7355010D02*
X22447695Y-7355010D01*
X5373955Y-10009926D02*
X5456505Y-10009926D01*
X11522795Y-8754950D02*
X11522795Y-7355010D01*
X27799595Y-2110050D02*
X27799595Y-1787040D01*
X27627095Y-3016930D02*
X27799595Y-3016930D01*
X25305195Y-5450000D02*
X25305195Y-6849930D01*
X3397705Y-5450000D02*
X1997765Y-5450000D01*
X27535295Y-8731930D02*
X27535295Y-8851960D01*
X2235885Y-10659946D02*
X3635835Y-10659946D01*
X21495195Y-5450000D02*
X21495195Y-6849930D01*
X1845215Y-5920050D02*
X1845215Y-5597040D01*
X25810295Y-8285040D02*
X25810295Y-8754950D01*
X13875195Y-6849930D02*
X12475095Y-6849930D01*
X4225225Y-5597040D02*
X3550255Y-5597040D01*
X14827695Y-4944930D02*
X13427795Y-4944930D01*
X27686495Y-3545000D02*
X27686495Y-4944930D01*
X2921465Y-8754950D02*
X1521511Y-8754950D01*
X27210195Y-8754950D02*
X27210195Y-8285040D01*
X18190295Y-3039930D02*
X18190295Y-1640000D01*
X20542695Y-4944930D02*
X19142795Y-4944930D01*
D11*
X0Y0D02*
X29310000Y0D01*
X29310000Y-11700000D01*
X0Y-11700000D01*
X0Y0D01*
D10*
X17237795Y-3545000D02*
X18637695Y-3545000D01*
X8338945Y-10636933D02*
X8511455Y-10636933D01*
X20007095Y-10756960D02*
X20007095Y-10636933D01*
X20261995Y-9730050D02*
X20179595Y-9730050D01*
X7207695Y-8754950D02*
X5807765Y-8754950D01*
X25485195Y-8851960D02*
X25485195Y-8731930D01*
X4307765Y-5920050D02*
X4225225Y-5920050D01*
X24744495Y-2110050D02*
X24662095Y-2110050D01*
X5807765Y-8754950D02*
X5807765Y-7355010D01*
X27686495Y-4944930D02*
X26286495Y-4944930D01*
X10570125Y-5450000D02*
X11970195Y-5450000D01*
X25657695Y-8731930D02*
X25657695Y-8285040D01*
X2235885Y-10189899D02*
X2235885Y-10659946D01*
X14827695Y-7355010D02*
X14827695Y-8754950D01*
X24857795Y-10659946D02*
X24857795Y-9260000D01*
X26286495Y-6849930D02*
X26286495Y-5450000D01*
X8511455Y-10636933D02*
X8511455Y-10009926D01*
X22447695Y-9260000D02*
X22447695Y-10659946D01*
X7207695Y-7355010D02*
X7207695Y-8754950D01*
X3550255Y-6380030D02*
X3550255Y-6826930D01*
X8160195Y-1640000D02*
X8160195Y-3039930D01*
X13875195Y-1640000D02*
X13875195Y-3039930D01*
X7836525Y-9730050D02*
X7683945Y-9730050D01*
X6760265Y-1640000D02*
X8160195Y-1640000D01*
X8511455Y-10009926D02*
X8593865Y-10009926D01*
X11017695Y-7355010D02*
X11017695Y-8754950D01*
X22952795Y-9260000D02*
X24352695Y-9260000D01*
X22447695Y-4944930D02*
X21047795Y-4944930D01*
X14380295Y-1640000D02*
X15780195Y-1640000D01*
X14141995Y-9730050D02*
X10179605Y-9730050D01*
X1910805Y-10636933D02*
X2083335Y-10636933D01*
X23400195Y-5450000D02*
X23400195Y-6849930D01*
X1580904Y-10636933D02*
X1580904Y-10756960D01*
X19590195Y-6849930D02*
X18190295Y-6849930D01*
X5456505Y-9730050D02*
X5373955Y-9730050D01*
X1170250Y-6826930D02*
X1342779Y-6826930D01*
X18637695Y-3545000D02*
X18637695Y-4944930D01*
X27799595Y-1787040D02*
X27124495Y-1787040D01*
X6255195Y-5450000D02*
X6255195Y-6849930D01*
X26972095Y-1640000D02*
X25571995Y-1640000D01*
X24352695Y-7355010D02*
X24352695Y-8754950D01*
X14141995Y-9260000D02*
X14141995Y-9730050D01*
X23638295Y-3039930D02*
X22238395Y-3039930D01*
X2950265Y-3039930D02*
X2950265Y-1640000D01*
X12922695Y-8754950D02*
X11522795Y-8754950D01*
X6760265Y-5450000D02*
X8160195Y-5450000D01*
X6284015Y-9730050D02*
X6131475Y-9730050D01*
X2083335Y-10636933D02*
X2083335Y-10189899D01*
X26257695Y-10659946D02*
X24857795Y-10659946D01*
X16732695Y-3545000D02*
X16732695Y-4944930D01*
X6760265Y-3039930D02*
X6760265Y-1640000D01*
X24900195Y-7825050D02*
X24900195Y-8104930D01*
X8008885Y-10636933D02*
X8008885Y-10756960D01*
X1845215Y-6380030D02*
X1997765Y-6380030D01*
X28037695Y-7502030D02*
X27362795Y-7502030D01*
X4545885Y-9730050D02*
X4463335Y-9730050D01*
X24982795Y-7502030D02*
X24982795Y-7825050D01*
X1408375Y-9730050D02*
X1325828Y-9730050D01*
X14380295Y-3039930D02*
X14380295Y-1640000D01*
X25571995Y-1640000D02*
X25571995Y-2110050D01*
X1342779Y-6826930D02*
X1342779Y-6946950D01*
X17685195Y-5450000D02*
X17685195Y-6849930D01*
X9676995Y-10756960D02*
X10007055Y-10756960D01*
X27296995Y-3136950D02*
X27627095Y-3136950D01*
X27124495Y-1787040D02*
X27124495Y-2110050D01*
X2445215Y-1640000D02*
X2445215Y-3039930D01*
X16732695Y-4944930D02*
X15332795Y-4944930D01*
X9617765Y-7355010D02*
X11017695Y-7355010D01*
X4463335Y-9730050D02*
X4463335Y-9407030D01*
X19676995Y-10636933D02*
X19676995Y-10756960D01*
X24352695Y-8754950D02*
X22952795Y-8754950D01*
X7836525Y-10636933D02*
X8008885Y-10636933D01*
X2445215Y-3039930D02*
X1045260Y-3039930D01*
X3397705Y-5920050D02*
X3397705Y-5450000D01*
X1672680Y-6826930D02*
X1845215Y-6826930D01*
X22952795Y-10659946D02*
X22952795Y-9260000D01*
D12*
X242619Y-12017524D02*
X242619Y-11817524D01*
X242619Y-11817524D02*
X290238Y-11817524D01*
X290238Y-11817524D02*
X318810Y-11827048D01*
X318810Y-11827048D02*
X337857Y-11846095D01*
X337857Y-11846095D02*
X347381Y-11865143D01*
X347381Y-11865143D02*
X356905Y-11903238D01*
X356905Y-11903238D02*
X356905Y-11931809D01*
X356905Y-11931809D02*
X347381Y-11969905D01*
X347381Y-11969905D02*
X337857Y-11988952D01*
X337857Y-11988952D02*
X318810Y-12008000D01*
X318810Y-12008000D02*
X290238Y-12017524D01*
X290238Y-12017524D02*
X242619Y-12017524D01*
X442619Y-12017524D02*
X442619Y-11884190D01*
X442619Y-11922286D02*
X452143Y-11903238D01*
X452143Y-11903238D02*
X461667Y-11893714D01*
X461667Y-11893714D02*
X480714Y-11884190D01*
X480714Y-11884190D02*
X499762Y-11884190D01*
X566429Y-12017524D02*
X566429Y-11884190D01*
X566429Y-11817524D02*
X556905Y-11827048D01*
X556905Y-11827048D02*
X566429Y-11836571D01*
X566429Y-11836571D02*
X575952Y-11827048D01*
X575952Y-11827048D02*
X566429Y-11817524D01*
X566429Y-11817524D02*
X566429Y-11836571D01*
X690238Y-12017524D02*
X671190Y-12008000D01*
X671190Y-12008000D02*
X661667Y-11988952D01*
X661667Y-11988952D02*
X661667Y-11817524D01*
X795000Y-12017524D02*
X775952Y-12008000D01*
X775952Y-12008000D02*
X766428Y-11988952D01*
X766428Y-11988952D02*
X766428Y-11817524D01*
X1023571Y-12017524D02*
X1023571Y-11817524D01*
X1023571Y-11817524D02*
X1090238Y-11960381D01*
X1090238Y-11960381D02*
X1156905Y-11817524D01*
X1156905Y-11817524D02*
X1156905Y-12017524D01*
X1337857Y-12017524D02*
X1337857Y-11912762D01*
X1337857Y-11912762D02*
X1328333Y-11893714D01*
X1328333Y-11893714D02*
X1309286Y-11884190D01*
X1309286Y-11884190D02*
X1271190Y-11884190D01*
X1271190Y-11884190D02*
X1252143Y-11893714D01*
X1337857Y-12008000D02*
X1318810Y-12017524D01*
X1318810Y-12017524D02*
X1271190Y-12017524D01*
X1271190Y-12017524D02*
X1252143Y-12008000D01*
X1252143Y-12008000D02*
X1242619Y-11988952D01*
X1242619Y-11988952D02*
X1242619Y-11969905D01*
X1242619Y-11969905D02*
X1252143Y-11950857D01*
X1252143Y-11950857D02*
X1271190Y-11941333D01*
X1271190Y-11941333D02*
X1318810Y-11941333D01*
X1318810Y-11941333D02*
X1337857Y-11931809D01*
X1433095Y-11884190D02*
X1433095Y-12084190D01*
X1433095Y-11893714D02*
X1452143Y-11884190D01*
X1452143Y-11884190D02*
X1490238Y-11884190D01*
X1490238Y-11884190D02*
X1509286Y-11893714D01*
X1509286Y-11893714D02*
X1518809Y-11903238D01*
X1518809Y-11903238D02*
X1528333Y-11922286D01*
X1528333Y-11922286D02*
X1528333Y-11979428D01*
X1528333Y-11979428D02*
X1518809Y-11998476D01*
X1518809Y-11998476D02*
X1509286Y-12008000D01*
X1509286Y-12008000D02*
X1490238Y-12017524D01*
X1490238Y-12017524D02*
X1452143Y-12017524D01*
X1452143Y-12017524D02*
X1433095Y-12008000D01*
X1614048Y-11998476D02*
X1623571Y-12008000D01*
X1623571Y-12008000D02*
X1614048Y-12017524D01*
X1614048Y-12017524D02*
X1604524Y-12008000D01*
X1604524Y-12008000D02*
X1614048Y-11998476D01*
X1614048Y-11998476D02*
X1614048Y-12017524D01*
X1614048Y-11893714D02*
X1623571Y-11903238D01*
X1623571Y-11903238D02*
X1614048Y-11912762D01*
X1614048Y-11912762D02*
X1604524Y-11903238D01*
X1604524Y-11903238D02*
X1614048Y-11893714D01*
X1614048Y-11893714D02*
X1614048Y-11912762D01*
M02*
