%TF.GenerationSoftware,KiCad,Pcbnew,7.0.1*%
%TF.CreationDate,2023-10-19T22:59:00+03:00*%
%TF.ProjectId,keyboard_cherry_panel,6b657962-6f61-4726-945f-636865727279,rev?*%
%TF.SameCoordinates,Original*%
%TF.FileFunction,Profile,NP*%
%FSLAX46Y46*%
G04 Gerber Fmt 4.6, Leading zero omitted, Abs format (unit mm)*
G04 Created by KiCad (PCBNEW 7.0.1) date 2023-10-19 22:59:00*
%MOMM*%
%LPD*%
G01*
G04 APERTURE LIST*
%TA.AperFunction,Profile*%
%ADD10C,0.150000*%
%TD*%
%TA.AperFunction,Profile*%
%ADD11C,0.100000*%
%TD*%
G04 APERTURE END LIST*
D10*
X95044950Y-106369330D02*
X96769950Y-106369330D01*
X278819950Y-23899400D02*
X278819950Y-21100500D01*
X191427950Y-49449300D02*
X191427950Y-35450000D01*
X271244950Y-21100500D02*
X269720950Y-21100500D01*
X262864950Y-54500000D02*
X276864950Y-54500000D01*
X224476950Y-35450000D02*
X224476950Y-49449300D01*
X214951950Y-30399300D02*
X200952950Y-30399300D01*
X210477950Y-49449300D02*
X210477950Y-35450000D01*
X191427950Y-35450000D02*
X205426950Y-35450000D01*
X267627950Y-92600000D02*
X281626950Y-92600000D01*
X72076950Y-49449300D02*
X58077650Y-49449300D01*
X91126950Y-87549500D02*
X77127650Y-87549500D01*
X94220850Y-100099260D02*
X95044950Y-100099260D01*
X181902950Y-54500000D02*
X195901950Y-54500000D01*
X195901950Y-54500000D02*
X195901950Y-68499300D01*
X19977650Y-54500000D02*
X19977650Y-59200500D01*
X39607750Y-106369330D02*
X39607750Y-107569600D01*
X176851950Y-30399300D02*
X162852950Y-30399300D01*
X85938650Y-97300500D02*
X85114550Y-97300500D01*
X110176950Y-35450000D02*
X110176950Y-49449300D01*
X243526950Y-92600000D02*
X243526950Y-106599460D01*
X119701950Y-30399300D02*
X105701250Y-30399300D01*
X43501950Y-16400000D02*
X43501950Y-30399300D01*
X224476950Y-73550100D02*
X224476950Y-87549500D01*
X48552650Y-30399300D02*
X48552650Y-16400000D01*
X86652650Y-16400000D02*
X100651950Y-16400000D01*
X48552650Y-16400000D02*
X62551950Y-16400000D01*
X205426950Y-73550100D02*
X205426950Y-87549500D01*
X229527950Y-73550100D02*
X243526950Y-73550100D01*
X162852950Y-54500000D02*
X176851950Y-54500000D01*
X76839450Y-97300500D02*
X76839450Y-92600000D01*
X255719950Y-25700300D02*
X255719950Y-30399300D01*
X258102950Y-87549500D02*
X272101950Y-87549500D01*
X276864950Y-54500000D02*
X276864950Y-68499300D01*
X58077650Y-73550100D02*
X72076950Y-73550100D01*
X39027650Y-87549500D02*
X39027650Y-73550100D01*
X251552950Y-87319300D02*
X251552950Y-88519600D01*
X202619950Y-100099260D02*
X202619950Y-97300500D01*
X91126950Y-35450000D02*
X91126950Y-49449300D01*
X19108050Y-107569600D02*
X19108050Y-106369330D01*
X61314750Y-94070300D02*
X54565050Y-94070300D01*
X124750950Y-16400000D02*
X138751950Y-16400000D01*
X14083750Y-94070300D02*
X14083750Y-97300500D01*
X78365250Y-94070300D02*
X78365250Y-97300500D01*
X201795950Y-100099260D02*
X202619950Y-100099260D01*
X37883850Y-101898990D02*
X37883850Y-106369330D01*
X280376950Y-87319300D02*
X280376950Y-81049300D01*
X256576950Y-82850400D02*
X258102950Y-82850400D01*
X11702500Y-55970400D02*
X11702500Y-59200500D01*
X143802950Y-68499300D02*
X143802950Y-54500000D01*
X11702500Y-61999400D02*
X11702500Y-68269300D01*
X40526950Y-68269300D02*
X42252250Y-68269300D01*
X272101950Y-73550100D02*
X258102950Y-73550100D01*
X37883850Y-94070300D02*
X37883850Y-97300500D01*
X100070550Y-106369330D02*
X101796050Y-106369330D01*
X167326950Y-87549500D02*
X153327950Y-87549500D01*
X110176950Y-87549500D02*
X96177650Y-87549500D01*
X252470950Y-30169300D02*
X254195950Y-30169300D01*
X54565050Y-94070300D02*
X54565050Y-97300500D01*
X134277950Y-35450000D02*
X148276950Y-35450000D01*
X43077650Y-61999400D02*
X43077650Y-59200500D01*
X162852950Y-30399300D02*
X162852950Y-16400000D01*
X44633350Y-94070300D02*
X37883850Y-94070300D01*
X200070950Y-106369330D02*
X201795950Y-106369330D01*
X157801950Y-68499300D02*
X143802950Y-68499300D01*
X210477950Y-35450000D02*
X224476950Y-35450000D01*
X243526950Y-106599460D02*
X229527950Y-106599460D01*
X273627950Y-75020300D02*
X273627950Y-78250500D01*
X56288750Y-107569600D02*
X59589350Y-107569600D01*
X115227950Y-49449300D02*
X115227950Y-35450000D01*
X85114550Y-94070300D02*
X78365250Y-94070300D01*
X36358350Y-106599460D02*
X36358350Y-101898990D01*
X11702500Y-59200500D02*
X10877040Y-59200500D01*
X80088850Y-107569600D02*
X83389450Y-107569600D01*
X254195950Y-21100500D02*
X254195950Y-17870400D01*
X19977650Y-63800300D02*
X19977650Y-68499300D01*
X39027650Y-49449300D02*
X39027650Y-35450000D01*
X247444950Y-23899400D02*
X247444950Y-30169300D01*
X281626950Y-92600000D02*
X281626950Y-106599460D01*
X91126950Y-73550100D02*
X91126950Y-87549500D01*
X181902950Y-68499300D02*
X181902950Y-54500000D01*
X234289950Y-49449300D02*
X234289950Y-35450000D01*
X220002950Y-68499300D02*
X220002950Y-54500000D01*
X281202950Y-78250500D02*
X280376950Y-78250500D01*
X155420950Y-101898990D02*
X195044950Y-101898990D01*
X134277950Y-73550100D02*
X148276950Y-73550100D01*
X278651950Y-87319300D02*
X280376950Y-87319300D01*
X272101950Y-78250500D02*
X272101950Y-73550100D01*
X18452150Y-68269300D02*
X18452150Y-63800300D01*
X276270950Y-31369500D02*
X276270950Y-30169300D01*
X101796050Y-97300500D02*
X101796050Y-94070300D01*
X275352950Y-88519600D02*
X278651950Y-88519600D01*
X86652650Y-54500000D02*
X100651950Y-54500000D01*
X234289950Y-35450000D02*
X248289950Y-35450000D01*
X176851950Y-68499300D02*
X162852950Y-68499300D01*
X33977050Y-63800300D02*
X35502550Y-63800300D01*
X155420950Y-92600000D02*
X141419950Y-92600000D01*
X205426950Y-35450000D02*
X205426950Y-49449300D01*
X39027650Y-35450000D02*
X53026950Y-35450000D01*
X200952950Y-16400000D02*
X214951950Y-16400000D01*
X195901950Y-16400000D02*
X195901950Y-30399300D01*
X256576950Y-75020300D02*
X249827950Y-75020300D01*
X22358850Y-92600000D02*
X22358850Y-97300500D01*
X42908150Y-107569600D02*
X42908150Y-106369330D01*
X269720950Y-21100500D02*
X269720950Y-16400000D01*
X36358350Y-97300500D02*
X36358350Y-92600000D01*
X254851950Y-87319300D02*
X256576950Y-87319300D01*
X105701250Y-16400000D02*
X119701950Y-16400000D01*
X249169950Y-31369500D02*
X252470950Y-31369500D01*
X16726800Y-69469500D02*
X16726800Y-68269300D01*
X129226950Y-73550100D02*
X129226950Y-87549500D01*
X18452150Y-55970400D02*
X11702500Y-55970400D01*
X62551950Y-16400000D02*
X62551950Y-30399300D01*
X53026950Y-73550100D02*
X53026950Y-87549500D01*
X15215110Y-49449300D02*
X15215110Y-35450000D01*
X58077650Y-49449300D02*
X58077650Y-35450000D01*
X81601950Y-54500000D02*
X81601950Y-68499300D01*
X100070550Y-107569600D02*
X100070550Y-106369330D01*
X155420950Y-97300500D02*
X155420950Y-92600000D01*
X29214650Y-49449300D02*
X15215110Y-49449300D01*
X29214650Y-35450000D02*
X29214650Y-49449300D01*
X278819950Y-21100500D02*
X277995950Y-21100500D01*
X191427950Y-87549500D02*
X191427950Y-73550100D01*
X62840150Y-101898990D02*
X62840150Y-106599460D01*
X224476950Y-106599460D02*
X210477950Y-106599460D01*
X76839450Y-92600000D02*
X62840150Y-92600000D01*
X157801950Y-30399300D02*
X143802950Y-30399300D01*
X61314750Y-101898990D02*
X62840150Y-101898990D01*
X200952950Y-68499300D02*
X200952950Y-54500000D01*
X236382950Y-16400000D02*
X236382950Y-30399300D01*
X186376950Y-87549500D02*
X172377950Y-87549500D01*
X86652650Y-68499300D02*
X86652650Y-54500000D01*
X96177650Y-35450000D02*
X110176950Y-35450000D01*
X72076950Y-35450000D02*
X72076950Y-49449300D01*
X22358850Y-97300500D02*
X20833350Y-97300500D01*
X281202950Y-81049300D02*
X281202950Y-78250500D01*
X37883850Y-106369330D02*
X39607750Y-106369330D01*
X210477950Y-87549500D02*
X210477950Y-73550100D01*
X155420950Y-106599460D02*
X155420950Y-101898990D01*
X19977650Y-59200500D02*
X18452150Y-59200500D01*
X44633350Y-106369330D02*
X44633350Y-100099260D01*
X59589350Y-106369330D02*
X61314750Y-106369330D01*
X262864950Y-35450000D02*
X276864950Y-35450000D01*
X105701250Y-68499300D02*
X105701250Y-54500000D01*
X29214650Y-73550100D02*
X29214650Y-87549500D01*
X280376950Y-78250500D02*
X280376950Y-75020300D01*
X172377950Y-73550100D02*
X186376950Y-73550100D01*
X115227950Y-73550100D02*
X129226950Y-73550100D01*
X249827950Y-87319300D02*
X251552950Y-87319300D01*
X124750950Y-54500000D02*
X138751950Y-54500000D01*
X247444950Y-30169300D02*
X249169950Y-30169300D01*
X85114550Y-97300500D02*
X85114550Y-94070300D01*
X269720950Y-25700300D02*
X271244950Y-25700300D01*
X134277950Y-87549500D02*
X134277950Y-73550100D01*
X59589350Y-107569600D02*
X59589350Y-106369330D01*
X143802950Y-54500000D02*
X157801950Y-54500000D01*
X53739550Y-97300500D02*
X53739550Y-100099260D01*
X262576950Y-92600000D02*
X262576950Y-106599460D01*
X40526950Y-69469500D02*
X40526950Y-68269300D01*
X239052950Y-68499300D02*
X239052950Y-54500000D01*
X100651950Y-54500000D02*
X100651950Y-68499300D01*
X252470950Y-31369500D02*
X252470950Y-30169300D01*
X13427790Y-69469500D02*
X16726800Y-69469500D01*
X76839450Y-106599460D02*
X76839450Y-101898990D01*
X255719950Y-21100500D02*
X254195950Y-21100500D01*
X10877040Y-59200500D02*
X10877040Y-61999400D01*
X267627950Y-106599460D02*
X267627950Y-92600000D01*
X200952950Y-30399300D02*
X200952950Y-16400000D01*
X200952950Y-54500000D02*
X214951950Y-54500000D01*
X210477950Y-106599460D02*
X210477950Y-92600000D01*
X56288750Y-106369330D02*
X56288750Y-107569600D01*
X20833350Y-94070300D02*
X14083750Y-94070300D01*
X10452600Y-30399300D02*
X10452600Y-16400000D01*
X153327950Y-35450000D02*
X167326950Y-35450000D01*
X201795950Y-106369330D02*
X201795950Y-100099260D01*
X248289950Y-35450000D02*
X248289950Y-49449300D01*
X42252250Y-68269300D02*
X42252250Y-61999400D01*
X37883850Y-97300500D02*
X36358350Y-97300500D01*
X77127650Y-73550100D02*
X91126950Y-73550100D01*
X195044950Y-101898990D02*
X195044950Y-106369330D01*
X29502650Y-16400000D02*
X43501950Y-16400000D01*
X141419950Y-106599460D02*
X155420950Y-106599460D01*
X281626950Y-106599460D02*
X267627950Y-106599460D01*
X124750950Y-30399300D02*
X124750950Y-16400000D01*
X36358350Y-101898990D02*
X37883850Y-101898990D01*
X101796050Y-106369330D02*
X101796050Y-101898990D01*
X162852950Y-68499300D02*
X162852950Y-54500000D01*
X77127650Y-49449300D02*
X77127650Y-35450000D01*
X269720950Y-30399300D02*
X269720950Y-25700300D01*
X172377950Y-87549500D02*
X172377950Y-73550100D01*
X100651950Y-30399300D02*
X86652650Y-30399300D01*
X138751950Y-30399300D02*
X124750950Y-30399300D01*
X42252250Y-59200500D02*
X42252250Y-55970400D01*
X256576950Y-78250500D02*
X256576950Y-75020300D01*
X246620950Y-21100500D02*
X246620950Y-23899400D01*
X53026950Y-35450000D02*
X53026950Y-49449300D01*
X14083750Y-106369330D02*
X15809040Y-106369330D01*
X83389450Y-107569600D02*
X83389450Y-106369330D01*
X54565050Y-106369330D02*
X56288750Y-106369330D01*
X62551950Y-68499300D02*
X48552650Y-68499300D01*
X172377950Y-49449300D02*
X172377950Y-35450000D01*
X13258280Y-100099260D02*
X14083750Y-100099260D01*
X167326950Y-73550100D02*
X167326950Y-87549500D01*
X249169950Y-30169300D02*
X249169950Y-31369500D01*
X78365250Y-101898990D02*
X78365250Y-106369330D01*
X129226950Y-35450000D02*
X129226950Y-49449300D01*
X254195950Y-17870400D02*
X247444950Y-17870400D01*
X124750950Y-68499300D02*
X124750950Y-54500000D01*
X280376950Y-81049300D02*
X281202950Y-81049300D01*
X42252250Y-61999400D02*
X43077650Y-61999400D01*
X95044950Y-97300500D02*
X94220850Y-97300500D01*
X95044950Y-100099260D02*
X95044950Y-106369330D01*
X36358350Y-92600000D02*
X22358850Y-92600000D01*
X42908150Y-106369330D02*
X44633350Y-106369330D01*
X119701950Y-68499300D02*
X105701250Y-68499300D01*
X196769950Y-107569600D02*
X200070950Y-107569600D01*
X86652650Y-30399300D02*
X86652650Y-16400000D01*
X271244950Y-30169300D02*
X272969950Y-30169300D01*
X278651950Y-88519600D02*
X278651950Y-87319300D01*
X95044950Y-94070300D02*
X95044950Y-97300500D01*
X20833350Y-101898990D02*
X22358850Y-101898990D01*
X35502550Y-68269300D02*
X37227850Y-68269300D01*
X272969950Y-30169300D02*
X272969950Y-31369500D01*
X254195950Y-30169300D02*
X254195950Y-25700300D01*
X186376950Y-49449300D02*
X172377950Y-49449300D01*
X101796050Y-94070300D02*
X95044950Y-94070300D01*
X62551950Y-30399300D02*
X48552650Y-30399300D01*
X195044950Y-97300500D02*
X155420950Y-97300500D01*
X141419950Y-101898990D02*
X141419950Y-106599460D01*
X110176950Y-49449300D02*
X96177650Y-49449300D01*
X10452600Y-16400000D02*
X24452150Y-16400000D01*
X15215110Y-35450000D02*
X29214650Y-35450000D01*
X15809040Y-107569600D02*
X19108050Y-107569600D01*
X176851950Y-16400000D02*
X176851950Y-30399300D01*
X96769950Y-106369330D02*
X96769950Y-107569600D01*
X61314750Y-106369330D02*
X61314750Y-101898990D01*
X201795950Y-97300500D02*
X201795950Y-94070300D01*
X253051950Y-68499300D02*
X239052950Y-68499300D01*
X43501950Y-30399300D02*
X29502650Y-30399300D01*
X277995950Y-30169300D02*
X277995950Y-23899400D01*
X53026950Y-49449300D02*
X39027650Y-49449300D01*
X19977650Y-68499300D02*
X33977050Y-68499300D01*
X222383950Y-30399300D02*
X222383950Y-16400000D01*
X258102950Y-78250500D02*
X256576950Y-78250500D01*
X224476950Y-87549500D02*
X210477950Y-87549500D01*
X247444950Y-17870400D02*
X247444950Y-21100500D01*
X77127650Y-87549500D02*
X77127650Y-73550100D01*
X239052950Y-54500000D02*
X253051950Y-54500000D01*
X271244950Y-25700300D02*
X271244950Y-30169300D01*
X39607750Y-107569600D02*
X42908150Y-107569600D01*
X251552950Y-88519600D02*
X254851950Y-88519600D01*
X53026950Y-87549500D02*
X39027650Y-87549500D01*
X119701950Y-16400000D02*
X119701950Y-30399300D01*
X129226950Y-49449300D02*
X115227950Y-49449300D01*
X58077650Y-35450000D02*
X72076950Y-35450000D01*
X191427950Y-73550100D02*
X205426950Y-73550100D01*
X186376950Y-73550100D02*
X186376950Y-87549500D01*
X54565050Y-100099260D02*
X54565050Y-106369330D01*
X153327950Y-49449300D02*
X153327950Y-35450000D01*
X15215110Y-73550100D02*
X29214650Y-73550100D01*
X277995950Y-23899400D02*
X278819950Y-23899400D01*
X96177650Y-49449300D02*
X96177650Y-35450000D01*
X37227850Y-69469500D02*
X40526950Y-69469500D01*
X205426950Y-87549500D02*
X191427950Y-87549500D01*
X91126950Y-49449300D02*
X77127650Y-49449300D01*
X105701250Y-30399300D02*
X105701250Y-16400000D01*
X153327950Y-87549500D02*
X153327950Y-73550100D01*
X62840150Y-106599460D02*
X76839450Y-106599460D01*
X33977050Y-68499300D02*
X33977050Y-63800300D01*
X210477950Y-92600000D02*
X224476950Y-92600000D01*
X148276950Y-87549500D02*
X134277950Y-87549500D01*
X214951950Y-68499300D02*
X200952950Y-68499300D01*
X100651950Y-68499300D02*
X86652650Y-68499300D01*
X220002950Y-54500000D02*
X234001950Y-54500000D01*
X45458850Y-100099260D02*
X45458850Y-97300500D01*
X195044950Y-106369330D02*
X196769950Y-106369330D01*
X195044950Y-94070300D02*
X195044950Y-97300500D01*
X119701950Y-54500000D02*
X119701950Y-68499300D01*
X249001950Y-81049300D02*
X249827950Y-81049300D01*
X195901950Y-30399300D02*
X181902950Y-30399300D01*
X14083750Y-100099260D02*
X14083750Y-106369330D01*
X10877040Y-61999400D02*
X11702500Y-61999400D01*
X148276950Y-35450000D02*
X148276950Y-49449300D01*
X201795950Y-94070300D02*
X195044950Y-94070300D01*
X15215110Y-87549500D02*
X15215110Y-73550100D01*
X134277950Y-49449300D02*
X134277950Y-35450000D01*
X35502550Y-55970400D02*
X35502550Y-59200500D01*
X48552650Y-54500000D02*
X62551950Y-54500000D01*
X248577950Y-92600000D02*
X262576950Y-92600000D01*
X20833350Y-97300500D02*
X20833350Y-94070300D01*
X101796050Y-101898990D02*
X141419950Y-101898990D01*
X249827950Y-78250500D02*
X249001950Y-78250500D01*
X162852950Y-16400000D02*
X176851950Y-16400000D01*
X62840150Y-92600000D02*
X62840150Y-97300500D01*
X248289950Y-49449300D02*
X234289950Y-49449300D01*
X157801950Y-54500000D02*
X157801950Y-68499300D01*
X94220850Y-97300500D02*
X94220850Y-100099260D01*
X246620950Y-23899400D02*
X247444950Y-23899400D01*
X48552650Y-68499300D02*
X48552650Y-54500000D01*
X39027650Y-73550100D02*
X53026950Y-73550100D01*
X249827950Y-81049300D02*
X249827950Y-87319300D01*
X44633350Y-100099260D02*
X45458850Y-100099260D01*
X153327950Y-73550100D02*
X167326950Y-73550100D01*
X81601950Y-30399300D02*
X67602650Y-30399300D01*
X273627950Y-87319300D02*
X275352950Y-87319300D01*
X276864950Y-68499300D02*
X262864950Y-68499300D01*
X258102950Y-73550100D02*
X258102950Y-78250500D01*
X234001950Y-68499300D02*
X220002950Y-68499300D01*
X76839450Y-101898990D02*
X78365250Y-101898990D01*
X100651950Y-16400000D02*
X100651950Y-30399300D01*
X214951950Y-16400000D02*
X214951950Y-30399300D01*
X96177650Y-87549500D02*
X96177650Y-73550100D01*
X273627950Y-82850400D02*
X273627950Y-87319300D01*
X157801950Y-16400000D02*
X157801950Y-30399300D01*
X35502550Y-59200500D02*
X33977050Y-59200500D01*
X181902950Y-16400000D02*
X195901950Y-16400000D01*
X254195950Y-25700300D02*
X255719950Y-25700300D01*
X61314750Y-97300500D02*
X61314750Y-94070300D01*
X115227950Y-35450000D02*
X129226950Y-35450000D01*
X273627950Y-78250500D02*
X272101950Y-78250500D01*
X37227850Y-68269300D02*
X37227850Y-69469500D01*
X13258280Y-97300500D02*
X13258280Y-100099260D01*
X222383950Y-16400000D02*
X236382950Y-16400000D01*
X67602650Y-68499300D02*
X67602650Y-54500000D01*
X229527950Y-87549500D02*
X229527950Y-73550100D01*
X81601950Y-68499300D02*
X67602650Y-68499300D01*
X138751950Y-54500000D02*
X138751950Y-68499300D01*
X85938650Y-100099260D02*
X85938650Y-97300500D01*
X255719950Y-30399300D02*
X269720950Y-30399300D01*
X77127650Y-35450000D02*
X91126950Y-35450000D01*
X272101950Y-82850400D02*
X273627950Y-82850400D01*
X262864950Y-49449300D02*
X262864950Y-35450000D01*
X210477950Y-73550100D02*
X224476950Y-73550100D01*
X53739550Y-100099260D02*
X54565050Y-100099260D01*
X115227950Y-87549500D02*
X115227950Y-73550100D01*
X277995950Y-21100500D02*
X277995950Y-17870400D01*
X276270950Y-30169300D02*
X277995950Y-30169300D01*
X253051950Y-54500000D02*
X253051950Y-68499300D01*
X33977050Y-54500000D02*
X19977650Y-54500000D01*
X275352950Y-87319300D02*
X275352950Y-88519600D01*
X22358850Y-106599460D02*
X36358350Y-106599460D01*
X214951950Y-54500000D02*
X214951950Y-68499300D01*
X18452150Y-59200500D02*
X18452150Y-55970400D01*
X258102950Y-82850400D02*
X258102950Y-87549500D01*
X138751950Y-68499300D02*
X124750950Y-68499300D01*
X42252250Y-55970400D02*
X35502550Y-55970400D01*
X148276950Y-49449300D02*
X134277950Y-49449300D01*
X276864950Y-35450000D02*
X276864950Y-49449300D01*
X29214650Y-87549500D02*
X15215110Y-87549500D01*
X272101950Y-87549500D02*
X272101950Y-82850400D01*
X181902950Y-30399300D02*
X181902950Y-16400000D01*
X205426950Y-49449300D02*
X191427950Y-49449300D01*
D11*
X0Y0D02*
X293100000Y0D01*
X293100000Y-117000000D01*
X0Y-117000000D01*
X0Y0D01*
D10*
X172377950Y-35450000D02*
X186376950Y-35450000D01*
X83389450Y-106369330D02*
X85114550Y-106369330D01*
X200070950Y-107569600D02*
X200070950Y-106369330D01*
X202619950Y-97300500D02*
X201795950Y-97300500D01*
X72076950Y-87549500D02*
X58077650Y-87549500D01*
X254851950Y-88519600D02*
X254851950Y-87319300D01*
X43077650Y-59200500D02*
X42252250Y-59200500D01*
X247444950Y-21100500D02*
X246620950Y-21100500D01*
X58077650Y-87549500D02*
X58077650Y-73550100D01*
X276864950Y-49449300D02*
X262864950Y-49449300D01*
X105701250Y-54500000D02*
X119701950Y-54500000D01*
X256576950Y-87319300D02*
X256576950Y-82850400D01*
X22358850Y-101898990D02*
X22358850Y-106599460D01*
X148276950Y-73550100D02*
X148276950Y-87549500D01*
X248577950Y-106599460D02*
X248577950Y-92600000D01*
X262864950Y-68499300D02*
X262864950Y-54500000D01*
X85114550Y-106369330D02*
X85114550Y-100099260D01*
X224476950Y-92600000D02*
X224476950Y-106599460D01*
X72076950Y-73550100D02*
X72076950Y-87549500D01*
X35502550Y-63800300D02*
X35502550Y-68269300D01*
X81601950Y-16400000D02*
X81601950Y-30399300D01*
X138751950Y-16400000D02*
X138751950Y-30399300D01*
X78365250Y-97300500D02*
X76839450Y-97300500D01*
X67602650Y-16400000D02*
X81601950Y-16400000D01*
X85114550Y-100099260D02*
X85938650Y-100099260D01*
X110176950Y-73550100D02*
X110176950Y-87549500D01*
X229527950Y-92600000D02*
X243526950Y-92600000D01*
X224476950Y-49449300D02*
X210477950Y-49449300D01*
X143802950Y-16400000D02*
X157801950Y-16400000D01*
X141419950Y-97300500D02*
X101796050Y-97300500D01*
X19108050Y-106369330D02*
X20833350Y-106369330D01*
X234001950Y-54500000D02*
X234001950Y-68499300D01*
X15809040Y-106369330D02*
X15809040Y-107569600D01*
X195901950Y-68499300D02*
X181902950Y-68499300D01*
X54565050Y-97300500D02*
X53739550Y-97300500D01*
X11702500Y-68269300D02*
X13427790Y-68269300D01*
X186376950Y-35450000D02*
X186376950Y-49449300D01*
X277995950Y-17870400D02*
X271244950Y-17870400D01*
X62551950Y-54500000D02*
X62551950Y-68499300D01*
X269720950Y-16400000D02*
X255719950Y-16400000D01*
X243526950Y-73550100D02*
X243526950Y-87549500D01*
X141419950Y-92600000D02*
X141419950Y-97300500D01*
X236382950Y-30399300D02*
X222383950Y-30399300D01*
X29502650Y-30399300D02*
X29502650Y-16400000D01*
X129226950Y-87549500D02*
X115227950Y-87549500D01*
X67602650Y-54500000D02*
X81601950Y-54500000D01*
X62840150Y-97300500D02*
X61314750Y-97300500D01*
X20833350Y-106369330D02*
X20833350Y-101898990D01*
X262576950Y-106599460D02*
X248577950Y-106599460D01*
X167326950Y-35450000D02*
X167326950Y-49449300D01*
X67602650Y-30399300D02*
X67602650Y-16400000D01*
X249001950Y-78250500D02*
X249001950Y-81049300D01*
X80088850Y-106369330D02*
X80088850Y-107569600D01*
X18452150Y-63800300D02*
X19977650Y-63800300D01*
X280376950Y-75020300D02*
X273627950Y-75020300D01*
X45458850Y-97300500D02*
X44633350Y-97300500D01*
X249827950Y-75020300D02*
X249827950Y-78250500D01*
X14083750Y-97300500D02*
X13258280Y-97300500D01*
X143802950Y-30399300D02*
X143802950Y-16400000D01*
X255719950Y-16400000D02*
X255719950Y-21100500D01*
X13427790Y-68269300D02*
X13427790Y-69469500D01*
X176851950Y-54500000D02*
X176851950Y-68499300D01*
X96769950Y-107569600D02*
X100070550Y-107569600D01*
X272969950Y-31369500D02*
X276270950Y-31369500D01*
X271244950Y-17870400D02*
X271244950Y-21100500D01*
X24452150Y-16400000D02*
X24452150Y-30399300D01*
X167326950Y-49449300D02*
X153327950Y-49449300D01*
X96177650Y-73550100D02*
X110176950Y-73550100D01*
X44633350Y-97300500D02*
X44633350Y-94070300D01*
X196769950Y-106369330D02*
X196769950Y-107569600D01*
X243526950Y-87549500D02*
X229527950Y-87549500D01*
X78365250Y-106369330D02*
X80088850Y-106369330D01*
X24452150Y-30399300D02*
X10452600Y-30399300D01*
X33977050Y-59200500D02*
X33977050Y-54500000D01*
X16726800Y-68269300D02*
X18452150Y-68269300D01*
X229527950Y-106599460D02*
X229527950Y-92600000D01*
M02*
