M48
; DRILL file {KiCad 7.0.1} date Thu Feb  1 19:13:58 2024
; FORMAT={-:-/ absolute / metric / decimal}
; #@! TF.CreationDate,2024-02-01T19:13:58+03:00
; #@! TF.GenerationSoftware,Kicad,Pcbnew,7.0.1
; #@! TF.FileFunction,Plated,1,2,PTH
FMAT,2
METRIC
; #@! TA.AperFunction,Plated,PTH,ViaDrill
T1C0.400
; #@! TA.AperFunction,Plated,PTH,ComponentDrill
T2C0.600
; #@! TA.AperFunction,Plated,PTH,ComponentDrill
T3C0.750
; #@! TA.AperFunction,Plated,PTH,ComponentDrill
T4C0.800
; #@! TA.AperFunction,Plated,PTH,ComponentDrill
T5C0.990
; #@! TA.AperFunction,Plated,PTH,ComponentDrill
T6C1.000
; #@! TA.AperFunction,Plated,PTH,ComponentDrill
T7C1.200
; #@! TA.AperFunction,Plated,PTH,ComponentDrill
T8C1.300
%
G90
G05
T1
X93.878Y-90.78
X99.01Y-132.766
X99.159Y-155.155
X101.905Y-87.579
X102.342Y-109.463
X103.838Y-162.822
X105.633Y-131.625
X107.148Y-175.692
X107.395Y-216.371
X107.538Y-120.799
X108.257Y-188.315
X108.547Y-177.129
X108.925Y-191.488
X109.807Y-131.546
X111.148Y-123.375
X112.272Y-124.597
X112.398Y-123.445
X113.838Y-191.117
X116.502Y-143.24
X117.327Y-130.548
X117.72Y-184.815
X118.442Y-185.507
X120.104Y-161.28
X121.666Y-165.852
X121.856Y-173.913
X126.015Y-163.0
X127.065Y-136.058
X127.572Y-139.166
X127.971Y-146.53
X132.28Y-169.643
X132.994Y-208.143
X134.329Y-153.202
X134.861Y-131.161
X135.545Y-138.894
X135.707Y-196.469
X136.103Y-187.983
X137.656Y-142.843
X137.784Y-185.174
X138.305Y-148.695
X138.358Y-130.94
X138.849Y-192.694
X138.895Y-149.801
X139.024Y-119.303
X140.52Y-115.709
X140.951Y-143.406
X142.223Y-157.885
X142.32Y-169.174
X142.796Y-123.245
X143.366Y-197.854
X143.676Y-154.035
X143.821Y-207.171
X143.83Y-180.704
X143.947Y-151.29
X144.661Y-142.702
X146.452Y-140.617
X147.604Y-211.389
X147.875Y-184.068
X147.944Y-207.896
X148.778Y-173.84
X149.149Y-175.267
X149.436Y-135.701
X149.611Y-143.749
X150.757Y-176.543
X151.563Y-131.696
X151.864Y-169.913
X154.034Y-187.337
X157.673Y-172.416
X157.807Y-146.255
X159.446Y-154.035
X159.537Y-173.549
X160.414Y-112.502
X160.619Y-175.822
X160.928Y-143.685
X163.584Y-151.047
X163.686Y-133.707
X163.932Y-170.754
X164.419Y-161.678
X167.281Y-145.766
X168.489Y-127.428
X168.684Y-142.067
X172.024Y-192.798
X177.69Y-191.758
X177.693Y-187.384
X180.192Y-199.8
X181.017Y-116.863
X184.824Y-105.37
X186.731Y-155.29
X187.648Y-121.477
X188.286Y-111.65
X190.269Y-161.816
X190.806Y-155.771
X191.575Y-128.569
X191.612Y-157.656
X191.751Y-127.422
X192.29Y-145.285
X192.338Y-156.613
X192.589Y-118.271
X192.794Y-133.917
X193.391Y-180.636
X193.729Y-118.14
X196.102Y-189.07
X196.375Y-108.807
X197.372Y-143.162
X198.456Y-189.082
X201.642Y-188.391
X202.452Y-140.71
X203.073Y-116.293
X203.722Y-187.771
X204.806Y-109.779
X205.573Y-108.461
X208.959Y-129.529
X211.879Y-147.0
X212.826Y-142.067
X214.31Y-169.855
X214.716Y-118.19
X215.07Y-137.527
X215.2Y-174.647
X215.785Y-177.489
X217.822Y-141.85
X217.994Y-139.701
X220.166Y-100.411
X220.294Y-127.555
X221.053Y-135.627
X221.485Y-164.022
X221.581Y-157.228
X221.604Y-146.687
X221.628Y-149.443
X222.642Y-154.833
X225.964Y-175.014
X227.925Y-169.113
X229.181Y-195.266
X229.357Y-110.631
X229.867Y-121.748
X231.311Y-165.559
X232.414Y-125.99
X232.782Y-141.637
X235.778Y-124.115
X236.403Y-145.801
X236.679Y-181.15
X238.077Y-154.464
X238.39Y-118.859
X239.417Y-166.762
X239.583Y-156.565
X240.33Y-149.752
X241.612Y-183.131
X242.093Y-204.325
X242.437Y-138.078
X243.429Y-153.304
X245.357Y-172.381
X245.441Y-164.194
X245.444Y-154.939
X245.729Y-134.403
X246.071Y-157.477
X247.469Y-166.734
X248.427Y-191.833
X250.207Y-155.471
X251.534Y-142.556
X255.677Y-100.355
X257.599Y-176.88
X258.345Y-179.39
X260.097Y-168.156
X262.986Y-189.193
X263.104Y-165.559
X263.193Y-164.559
X266.65Y-137.193
X267.958Y-90.074
X267.959Y-120.442
X273.179Y-178.349
X274.015Y-122.022
X276.352Y-125.984
X276.672Y-155.915
X278.821Y-174.034
X279.253Y-135.425
X281.004Y-142.776
X283.179Y-101.738
X290.559Y-117.304
X290.987Y-213.692
X293.377Y-133.441
X293.391Y-137.73
X296.327Y-145.922
X296.477Y-150.952
X296.607Y-96.11
X297.88Y-133.384
X299.085Y-213.306
X299.13Y-121.156
X302.047Y-125.479
X302.847Y-199.515
X304.339Y-118.034
X305.087Y-125.928
X305.19Y-128.758
X306.227Y-176.549
X307.618Y-141.793
X307.786Y-121.349
X308.445Y-126.878
X308.474Y-141.002
X309.463Y-101.106
X309.939Y-147.963
X311.066Y-160.441
X311.138Y-128.486
X313.071Y-97.214
X313.183Y-144.322
X314.493Y-132.271
X314.58Y-127.158
X315.316Y-144.809
X316.238Y-197.683
X316.261Y-130.92
X316.981Y-158.01
X317.773Y-172.278
X318.908Y-128.618
X319.613Y-111.966
X319.678Y-131.042
X320.542Y-122.11
X322.338Y-123.822
X323.435Y-153.765
X325.744Y-133.643
X325.868Y-163.663
X325.892Y-191.946
X327.283Y-169.194
X328.2Y-126.834
X330.346Y-121.936
X330.791Y-125.407
X333.475Y-185.217
X333.544Y-128.618
X337.081Y-145.989
X337.53Y-166.254
X337.854Y-121.746
X337.985Y-112.921
X338.233Y-137.453
X338.276Y-155.218
X338.42Y-123.74
X338.578Y-169.69
X338.988Y-158.795
X338.988Y-113.882
X339.598Y-115.446
X339.949Y-164.591
X340.861Y-146.497
X341.249Y-143.145
X341.294Y-199.682
X341.719Y-86.473
X344.066Y-156.424
X344.292Y-184.484
X344.4Y-178.698
X349.243Y-163.295
X350.736Y-169.734
X352.218Y-138.05
T2
X163.416Y-98.349
X165.416Y-98.349
T3
X108.102Y-90.704
X108.102Y-91.974
X108.102Y-93.244
X219.227Y-95.403
X219.227Y-96.673
X219.227Y-97.943
X226.847Y-95.403
X226.847Y-96.673
X226.847Y-97.943
X234.467Y-95.403
X234.467Y-96.673
X234.467Y-97.943
X242.087Y-95.403
X242.087Y-96.673
X242.087Y-97.943
X298.729Y-159.792
X298.729Y-161.062
X298.729Y-162.332
X351.18Y-184.049
X351.18Y-185.319
X351.18Y-186.589
T4
X73.283Y-101.626
X73.283Y-111.786
X76.294Y-117.247
X77.22Y-155.514
X77.22Y-160.514
X78.363Y-101.706
X78.363Y-106.706
X80.522Y-190.185
X80.522Y-195.185
X81.03Y-139.218
X81.03Y-149.378
X81.03Y-152.807
X81.03Y-162.967
X81.03Y-166.523
X81.03Y-176.683
X81.174Y-117.247
X83.443Y-101.626
X83.443Y-111.786
X84.713Y-190.185
X84.713Y-195.185
X87.507Y-130.659
X87.507Y-135.659
X87.634Y-101.793
X87.634Y-106.793
X89.681Y-140.109
X89.681Y-147.729
X89.681Y-161.609
X89.681Y-169.229
X92.206Y-107.849
X92.206Y-115.469
X92.216Y-205.395
X92.216Y-213.015
X92.221Y-118.609
X92.221Y-126.229
X92.221Y-129.359
X92.221Y-136.979
X92.221Y-140.109
X92.221Y-147.729
X92.221Y-150.859
X92.221Y-158.479
X92.221Y-161.609
X92.221Y-169.229
X92.221Y-172.359
X92.221Y-179.979
X92.221Y-183.109
X92.221Y-190.729
X92.221Y-193.859
X92.221Y-201.479
X93.857Y-100.991
X94.746Y-107.849
X94.746Y-115.469
X94.756Y-205.395
X94.756Y-213.015
X94.761Y-118.609
X94.761Y-126.229
X94.761Y-129.359
X94.761Y-136.979
X94.761Y-140.109
X94.761Y-147.729
X94.761Y-150.859
X94.761Y-158.479
X94.761Y-161.609
X94.761Y-169.229
X94.761Y-172.359
X94.761Y-179.979
X94.761Y-183.109
X94.761Y-190.729
X94.761Y-193.859
X94.761Y-201.479
X97.286Y-107.849
X97.286Y-115.469
X97.296Y-205.395
X97.296Y-213.015
X97.301Y-118.609
X97.301Y-126.229
X97.301Y-129.359
X97.301Y-136.979
X97.301Y-140.109
X97.301Y-147.729
X97.301Y-150.859
X97.301Y-158.479
X97.301Y-161.609
X97.301Y-169.229
X97.301Y-172.359
X97.301Y-179.979
X97.301Y-183.109
X97.301Y-190.729
X97.301Y-193.859
X97.301Y-201.479
X99.826Y-107.849
X99.826Y-115.469
X99.836Y-205.395
X99.836Y-213.015
X99.841Y-118.609
X99.841Y-126.229
X99.841Y-129.359
X99.841Y-136.979
X99.841Y-140.109
X99.841Y-147.729
X99.841Y-150.859
X99.841Y-158.479
X99.841Y-161.609
X99.841Y-169.229
X99.841Y-172.359
X99.841Y-179.979
X99.841Y-183.109
X99.841Y-190.729
X99.841Y-193.859
X99.841Y-201.479
X102.366Y-107.849
X102.366Y-115.469
X102.376Y-205.395
X102.376Y-213.015
X102.381Y-118.609
X102.381Y-126.229
X102.381Y-129.359
X102.381Y-136.979
X102.381Y-140.109
X102.381Y-147.729
X102.381Y-150.859
X102.381Y-158.479
X102.381Y-161.609
X102.381Y-169.229
X102.381Y-172.359
X102.381Y-179.979
X102.381Y-183.109
X102.381Y-190.729
X102.381Y-193.859
X102.381Y-201.479
X104.017Y-100.991
X104.906Y-107.849
X104.906Y-115.469
X104.916Y-205.395
X104.916Y-213.015
X104.921Y-118.609
X104.921Y-126.229
X104.921Y-129.359
X104.921Y-136.979
X104.921Y-140.109
X104.921Y-147.729
X104.921Y-150.859
X104.921Y-158.479
X104.921Y-161.609
X104.921Y-169.229
X104.921Y-172.359
X104.921Y-179.979
X104.921Y-183.109
X104.921Y-190.729
X104.921Y-193.859
X104.921Y-201.479
X107.446Y-107.849
X107.446Y-115.469
X107.456Y-205.395
X107.456Y-213.015
X107.461Y-118.609
X107.461Y-126.229
X107.461Y-129.359
X107.461Y-136.979
X107.461Y-140.109
X107.461Y-147.729
X107.461Y-150.859
X107.461Y-158.479
X107.461Y-161.609
X107.461Y-169.229
X107.461Y-172.359
X107.461Y-179.979
X107.461Y-183.109
X107.461Y-190.729
X107.461Y-193.859
X107.461Y-201.479
X110.621Y-103.404
X110.621Y-113.564
X110.748Y-133.884
X110.748Y-144.044
X112.018Y-189.931
X112.018Y-194.931
X113.288Y-155.006
X113.288Y-160.006
X113.796Y-84.1
X113.796Y-86.64
X113.796Y-89.18
X113.796Y-91.72
X113.796Y-94.26
X113.923Y-103.604
X113.923Y-108.604
X117.225Y-205.395
X117.225Y-213.015
X117.352Y-137.484
X117.352Y-145.104
X117.357Y-103.922
X117.357Y-111.542
X117.357Y-115.109
X117.357Y-122.729
X117.357Y-126.297
X117.357Y-133.917
X117.357Y-182.234
X117.357Y-189.854
X117.357Y-193.422
X117.357Y-201.042
X117.362Y-148.672
X117.362Y-156.292
X117.362Y-159.859
X117.362Y-167.479
X117.362Y-171.047
X117.362Y-178.667
X119.765Y-205.395
X119.765Y-213.015
X119.892Y-137.484
X119.892Y-145.104
X119.897Y-103.922
X119.897Y-111.542
X119.897Y-115.109
X119.897Y-122.729
X119.897Y-126.297
X119.897Y-133.917
X119.897Y-182.234
X119.897Y-189.854
X119.897Y-193.422
X119.897Y-201.042
X119.902Y-148.672
X119.902Y-156.292
X119.902Y-159.859
X119.902Y-167.479
X119.902Y-171.047
X119.902Y-178.667
X122.305Y-205.395
X122.305Y-213.015
X122.432Y-137.484
X122.432Y-145.104
X122.437Y-103.922
X122.437Y-111.542
X122.437Y-115.109
X122.437Y-122.729
X122.437Y-126.297
X122.437Y-133.917
X122.437Y-182.234
X122.437Y-189.854
X122.437Y-193.422
X122.437Y-201.042
X122.442Y-148.672
X122.442Y-156.292
X122.442Y-159.859
X122.442Y-167.479
X122.442Y-171.047
X122.442Y-178.667
X123.956Y-84.1
X123.956Y-86.64
X123.956Y-89.18
X123.956Y-91.72
X123.956Y-94.26
X124.845Y-205.395
X124.845Y-213.015
X124.972Y-137.484
X124.972Y-145.104
X124.977Y-103.922
X124.977Y-111.542
X124.977Y-115.109
X124.977Y-122.729
X124.977Y-126.297
X124.977Y-133.917
X124.977Y-182.234
X124.977Y-189.854
X124.977Y-193.422
X124.977Y-201.042
X124.982Y-148.672
X124.982Y-156.292
X124.982Y-159.859
X124.982Y-167.479
X124.982Y-171.047
X124.982Y-178.667
X126.115Y-84.1
X126.115Y-86.64
X126.115Y-89.18
X126.115Y-91.72
X126.115Y-94.26
X127.385Y-205.395
X127.385Y-213.015
X127.512Y-137.484
X127.512Y-145.104
X127.517Y-103.922
X127.517Y-111.542
X127.517Y-115.109
X127.517Y-122.729
X127.517Y-126.297
X127.517Y-133.917
X127.517Y-182.234
X127.517Y-189.854
X127.517Y-193.422
X127.517Y-201.042
X127.522Y-148.672
X127.522Y-156.292
X127.522Y-159.859
X127.522Y-167.479
X127.522Y-171.047
X127.522Y-178.667
X129.925Y-205.395
X129.925Y-213.015
X130.052Y-137.484
X130.052Y-145.104
X130.057Y-103.922
X130.057Y-111.542
X130.057Y-115.109
X130.057Y-122.729
X130.057Y-126.297
X130.057Y-133.917
X130.057Y-182.234
X130.057Y-189.854
X130.057Y-193.422
X130.057Y-201.042
X130.062Y-148.672
X130.062Y-156.292
X130.062Y-159.859
X130.062Y-167.479
X130.062Y-171.047
X130.062Y-178.667
X132.465Y-205.395
X132.465Y-213.015
X132.592Y-137.484
X132.592Y-145.104
X132.597Y-103.922
X132.597Y-111.542
X132.597Y-115.109
X132.597Y-122.729
X132.597Y-126.297
X132.597Y-133.917
X132.597Y-182.234
X132.597Y-189.854
X132.597Y-193.422
X132.597Y-201.042
X132.602Y-148.672
X132.602Y-156.292
X132.602Y-159.859
X132.602Y-167.479
X132.602Y-171.047
X132.602Y-178.667
X135.142Y-148.672
X135.142Y-156.292
X135.142Y-159.859
X135.142Y-167.479
X135.142Y-171.047
X135.142Y-178.667
X136.275Y-84.1
X136.275Y-86.64
X136.275Y-89.18
X136.275Y-91.72
X136.275Y-94.26
X136.275Y-103.531
X136.275Y-113.691
X137.672Y-189.931
X137.672Y-194.931
X138.18Y-135.281
X138.18Y-145.441
X139.831Y-98.745
X139.831Y-103.745
X143.133Y-98.745
X143.133Y-103.745
X143.382Y-205.395
X143.382Y-213.015
X143.387Y-196.408
X143.387Y-201.408
X143.397Y-126.297
X143.397Y-133.917
X143.397Y-137.484
X143.397Y-145.104
X143.397Y-148.672
X143.397Y-156.292
X143.397Y-159.859
X143.397Y-167.479
X143.397Y-171.047
X143.397Y-178.667
X143.397Y-182.234
X143.397Y-189.854
X145.922Y-205.395
X145.922Y-213.015
X145.932Y-113.955
X145.932Y-121.575
X145.937Y-126.297
X145.937Y-133.917
X145.937Y-137.484
X145.937Y-145.104
X145.937Y-148.672
X145.937Y-156.292
X145.937Y-159.859
X145.937Y-167.479
X145.937Y-171.047
X145.937Y-178.667
X145.937Y-182.234
X145.937Y-189.854
X146.308Y-98.959
X146.308Y-104.928
X146.315Y-102.119
X146.315Y-107.468
X147.451Y-192.558
X147.451Y-202.718
X148.462Y-205.395
X148.462Y-213.015
X148.472Y-113.955
X148.472Y-121.575
X148.477Y-126.297
X148.477Y-133.917
X148.477Y-137.484
X148.477Y-145.104
X148.477Y-148.672
X148.477Y-156.292
X148.477Y-159.859
X148.477Y-167.479
X148.477Y-171.047
X148.477Y-178.667
X148.477Y-182.234
X148.477Y-189.854
X150.499Y-192.558
X150.499Y-202.718
X151.002Y-205.395
X151.002Y-213.015
X151.012Y-113.955
X151.012Y-121.575
X151.017Y-126.297
X151.017Y-133.917
X151.017Y-137.484
X151.017Y-145.104
X151.017Y-148.672
X151.017Y-156.292
X151.017Y-159.859
X151.017Y-167.479
X151.017Y-171.047
X151.017Y-178.667
X151.017Y-182.234
X151.017Y-189.854
X153.542Y-205.395
X153.542Y-213.015
X153.547Y-192.558
X153.547Y-202.718
X153.552Y-113.955
X153.552Y-121.575
X153.557Y-126.297
X153.557Y-133.917
X153.557Y-137.484
X153.557Y-145.104
X153.557Y-148.672
X153.557Y-156.292
X153.557Y-159.859
X153.557Y-167.479
X153.557Y-171.047
X153.557Y-178.667
X153.557Y-182.234
X153.557Y-189.854
X156.082Y-205.395
X156.082Y-213.015
X156.092Y-113.955
X156.092Y-121.575
X156.097Y-126.297
X156.097Y-133.917
X156.097Y-137.484
X156.097Y-145.104
X156.097Y-148.672
X156.097Y-156.292
X156.097Y-159.859
X156.097Y-167.479
X156.097Y-171.047
X156.097Y-178.667
X156.097Y-182.234
X156.097Y-189.854
X156.468Y-98.959
X156.468Y-104.928
X156.475Y-102.119
X156.475Y-107.468
X158.622Y-205.395
X158.622Y-213.015
X158.632Y-113.955
X158.632Y-121.575
X158.637Y-126.297
X158.637Y-133.917
X158.637Y-137.484
X158.637Y-145.104
X158.637Y-148.672
X158.637Y-156.292
X158.637Y-159.859
X158.637Y-167.479
X158.637Y-171.047
X158.637Y-178.667
X158.637Y-182.234
X158.637Y-189.854
X161.172Y-113.955
X161.172Y-121.575
X161.177Y-126.297
X161.177Y-133.917
X161.177Y-137.484
X161.177Y-145.104
X161.177Y-148.672
X161.177Y-156.292
X161.177Y-159.859
X161.177Y-167.479
X161.177Y-171.047
X161.177Y-178.667
X161.177Y-182.234
X161.177Y-189.854
X167.39Y-188.407
X167.39Y-193.407
X170.697Y-103.922
X170.697Y-111.542
X170.697Y-115.109
X170.697Y-122.729
X170.707Y-126.297
X170.707Y-133.917
X170.707Y-137.597
X170.707Y-145.217
X170.707Y-148.896
X170.707Y-156.516
X170.707Y-160.196
X170.707Y-167.816
X170.707Y-171.496
X170.707Y-179.116
X170.707Y-182.796
X170.707Y-190.415
X170.707Y-194.095
X170.707Y-201.715
X170.707Y-205.395
X170.707Y-213.015
X173.237Y-103.922
X173.237Y-111.542
X173.237Y-115.109
X173.237Y-122.729
X173.247Y-126.297
X173.247Y-133.917
X173.247Y-137.597
X173.247Y-145.217
X173.247Y-148.896
X173.247Y-156.516
X173.247Y-160.196
X173.247Y-167.816
X173.247Y-171.496
X173.247Y-179.116
X173.247Y-182.796
X173.247Y-190.415
X173.247Y-194.095
X173.247Y-201.715
X173.247Y-205.395
X173.247Y-213.015
X175.777Y-103.922
X175.777Y-111.542
X175.777Y-115.109
X175.777Y-122.729
X175.787Y-126.297
X175.787Y-133.917
X175.787Y-137.597
X175.787Y-145.217
X175.787Y-148.896
X175.787Y-156.516
X175.787Y-160.196
X175.787Y-167.816
X175.787Y-171.496
X175.787Y-179.116
X175.787Y-182.796
X175.787Y-190.415
X175.787Y-194.095
X175.787Y-201.715
X175.787Y-205.395
X175.787Y-213.015
X177.55Y-96.292
X178.317Y-103.922
X178.317Y-111.542
X178.317Y-115.109
X178.317Y-122.729
X178.327Y-126.297
X178.327Y-133.917
X178.327Y-137.597
X178.327Y-145.217
X178.327Y-148.896
X178.327Y-156.516
X178.327Y-160.196
X178.327Y-167.816
X178.327Y-171.496
X178.327Y-179.116
X178.327Y-182.796
X178.327Y-190.415
X178.327Y-194.095
X178.327Y-201.715
X178.327Y-205.395
X178.327Y-213.015
X180.857Y-103.922
X180.857Y-111.542
X180.857Y-115.109
X180.857Y-122.729
X180.867Y-126.297
X180.867Y-133.917
X180.867Y-137.597
X180.867Y-145.217
X180.867Y-148.896
X180.867Y-156.516
X180.867Y-160.196
X180.867Y-167.816
X180.867Y-171.496
X180.867Y-179.116
X180.867Y-182.796
X180.867Y-190.415
X180.867Y-194.095
X180.867Y-201.715
X180.867Y-205.395
X180.867Y-213.015
X183.397Y-103.922
X183.397Y-111.542
X183.397Y-115.109
X183.397Y-122.729
X183.407Y-126.297
X183.407Y-133.917
X183.407Y-137.597
X183.407Y-145.217
X183.407Y-148.896
X183.407Y-156.516
X183.407Y-160.196
X183.407Y-167.816
X183.407Y-171.496
X183.407Y-179.116
X183.407Y-182.796
X183.407Y-190.415
X183.407Y-194.095
X183.407Y-201.715
X183.407Y-205.395
X183.407Y-213.015
X185.937Y-103.922
X185.937Y-111.542
X185.937Y-115.109
X185.937Y-122.729
X185.947Y-126.297
X185.947Y-133.917
X185.947Y-137.597
X185.947Y-145.217
X185.947Y-148.896
X185.947Y-156.516
X185.947Y-160.196
X185.947Y-167.816
X185.947Y-171.496
X185.947Y-179.116
X185.947Y-182.796
X185.947Y-190.415
X185.947Y-194.095
X185.947Y-201.715
X185.947Y-205.395
X185.947Y-213.015
X187.71Y-96.292
X188.487Y-126.297
X188.487Y-133.917
X188.487Y-137.597
X188.487Y-145.217
X188.487Y-148.896
X188.487Y-156.516
X188.487Y-160.196
X188.487Y-167.816
X188.487Y-171.496
X188.487Y-179.116
X188.487Y-182.796
X188.487Y-190.415
X188.487Y-194.095
X188.487Y-201.715
X188.487Y-205.395
X188.487Y-213.015
X190.758Y-96.292
X191.525Y-103.922
X191.525Y-111.542
X191.525Y-115.109
X191.525Y-122.729
X191.647Y-178.541
X191.647Y-183.541
X191.647Y-195.773
X191.647Y-200.773
X194.065Y-103.922
X194.065Y-111.542
X194.065Y-115.109
X194.065Y-122.729
X194.832Y-126.297
X194.832Y-133.917
X194.832Y-137.597
X194.832Y-145.217
X194.832Y-148.896
X194.832Y-156.516
X194.832Y-160.196
X194.832Y-167.816
X194.832Y-171.496
X194.832Y-179.116
X194.832Y-182.796
X194.832Y-190.415
X194.832Y-194.095
X194.832Y-201.715
X194.832Y-205.395
X194.832Y-213.015
X196.605Y-103.922
X196.605Y-111.542
X196.605Y-115.109
X196.605Y-122.729
X197.372Y-126.297
X197.372Y-133.917
X197.372Y-137.597
X197.372Y-145.217
X197.372Y-148.896
X197.372Y-156.516
X197.372Y-160.196
X197.372Y-167.816
X197.372Y-171.496
X197.372Y-179.116
X197.372Y-182.796
X197.372Y-190.415
X197.372Y-194.095
X197.372Y-201.715
X197.372Y-205.395
X197.372Y-213.015
X199.145Y-103.922
X199.145Y-111.542
X199.145Y-115.109
X199.145Y-122.729
X199.912Y-126.297
X199.912Y-133.917
X199.912Y-137.597
X199.912Y-145.217
X199.912Y-148.896
X199.912Y-156.516
X199.912Y-160.196
X199.912Y-167.816
X199.912Y-171.496
X199.912Y-179.116
X199.912Y-182.796
X199.912Y-190.415
X199.912Y-194.095
X199.912Y-201.715
X199.912Y-205.395
X199.912Y-213.015
X200.918Y-96.292
X201.685Y-103.922
X201.685Y-111.542
X201.685Y-115.109
X201.685Y-122.729
X202.452Y-126.297
X202.452Y-133.917
X202.452Y-137.597
X202.452Y-145.217
X202.452Y-148.896
X202.452Y-156.516
X202.452Y-160.196
X202.452Y-167.816
X202.452Y-171.496
X202.452Y-179.116
X202.452Y-182.796
X202.452Y-190.415
X202.452Y-194.095
X202.452Y-201.715
X202.452Y-205.395
X202.452Y-213.015
X204.225Y-103.922
X204.225Y-111.542
X204.225Y-115.109
X204.225Y-122.729
X204.992Y-126.297
X204.992Y-133.917
X204.992Y-137.597
X204.992Y-145.217
X204.992Y-148.896
X204.992Y-156.516
X204.992Y-160.196
X204.992Y-167.816
X204.992Y-171.496
X204.992Y-179.116
X204.992Y-182.796
X204.992Y-190.415
X204.992Y-194.095
X204.992Y-201.715
X204.992Y-205.395
X204.992Y-213.015
X206.765Y-103.922
X206.765Y-111.542
X206.765Y-115.109
X206.765Y-122.729
X207.532Y-126.297
X207.532Y-133.917
X207.532Y-137.597
X207.532Y-145.217
X207.532Y-148.896
X207.532Y-156.516
X207.532Y-160.196
X207.532Y-167.816
X207.532Y-171.496
X207.532Y-179.116
X207.532Y-182.796
X207.532Y-190.415
X207.532Y-194.095
X207.532Y-201.715
X207.532Y-205.395
X207.532Y-213.015
X210.072Y-126.297
X210.072Y-133.917
X210.072Y-137.597
X210.072Y-145.217
X210.072Y-148.896
X210.072Y-156.516
X210.072Y-160.196
X210.072Y-167.816
X210.072Y-171.496
X210.072Y-179.116
X210.072Y-182.796
X210.072Y-190.415
X210.072Y-194.095
X210.072Y-201.715
X210.072Y-205.395
X210.072Y-213.015
X210.824Y-103.277
X210.824Y-113.437
X212.612Y-126.297
X212.612Y-133.917
X212.612Y-137.597
X212.612Y-145.217
X212.612Y-148.896
X212.612Y-156.516
X212.612Y-160.196
X212.612Y-167.816
X212.612Y-171.496
X212.612Y-179.116
X212.612Y-182.796
X212.612Y-190.415
X212.612Y-194.095
X212.612Y-201.715
X212.612Y-205.395
X212.612Y-213.015
X214.126Y-108.231
X214.126Y-113.231
X215.904Y-116.749
X215.904Y-124.369
X217.174Y-103.277
X217.174Y-113.437
X217.555Y-189.931
X217.555Y-194.931
X218.444Y-116.749
X218.444Y-124.369
X219.587Y-129.479
X219.587Y-134.479
X219.714Y-141.036
X219.714Y-146.036
X220.349Y-108.151
X220.349Y-113.151
X220.984Y-116.749
X220.984Y-124.369
X221.756Y-183.043
X221.756Y-190.663
X223.524Y-103.15
X223.524Y-113.31
X223.524Y-116.749
X223.524Y-124.369
X224.281Y-205.409
X224.281Y-213.029
X224.291Y-193.838
X224.291Y-201.458
X224.296Y-183.043
X224.296Y-190.663
X224.423Y-128.179
X224.423Y-135.799
X224.423Y-139.736
X224.423Y-147.356
X224.423Y-151.293
X224.423Y-158.913
X224.423Y-162.85
X224.423Y-170.47
X226.064Y-116.749
X226.064Y-124.369
X226.699Y-103.15
X226.699Y-113.31
X226.821Y-205.409
X226.821Y-213.029
X226.831Y-193.838
X226.831Y-201.458
X226.836Y-183.043
X226.836Y-190.663
X226.963Y-128.179
X226.963Y-135.799
X226.963Y-139.736
X226.963Y-147.356
X226.963Y-151.293
X226.963Y-158.913
X226.963Y-162.85
X226.963Y-170.47
X228.604Y-116.749
X228.604Y-124.369
X229.361Y-205.409
X229.361Y-213.029
X229.371Y-193.838
X229.371Y-201.458
X229.376Y-183.043
X229.376Y-190.663
X229.503Y-128.179
X229.503Y-135.799
X229.503Y-139.736
X229.503Y-147.356
X229.503Y-151.293
X229.503Y-158.913
X229.503Y-162.85
X229.503Y-170.47
X229.874Y-103.15
X229.874Y-113.31
X231.144Y-116.749
X231.144Y-124.369
X231.901Y-205.409
X231.901Y-213.029
X231.911Y-193.838
X231.911Y-201.458
X231.916Y-183.043
X231.916Y-190.663
X232.043Y-128.179
X232.043Y-135.799
X232.043Y-139.736
X232.043Y-147.356
X232.043Y-151.293
X232.043Y-158.913
X232.043Y-162.85
X232.043Y-170.47
X233.049Y-103.15
X233.049Y-113.31
X234.441Y-205.409
X234.441Y-213.029
X234.451Y-193.838
X234.451Y-201.458
X234.456Y-183.043
X234.456Y-190.663
X234.583Y-128.179
X234.583Y-135.799
X234.583Y-139.736
X234.583Y-147.356
X234.583Y-151.293
X234.583Y-158.913
X234.583Y-162.85
X234.583Y-170.47
X236.224Y-103.15
X236.224Y-113.31
X236.981Y-205.409
X236.981Y-213.029
X236.991Y-193.838
X236.991Y-201.458
X236.996Y-183.043
X236.996Y-190.663
X237.123Y-128.179
X237.123Y-135.799
X237.123Y-139.736
X237.123Y-147.356
X237.123Y-151.293
X237.123Y-158.913
X237.123Y-162.85
X237.123Y-170.47
X237.179Y-116.749
X237.179Y-124.369
X239.399Y-103.15
X239.399Y-113.31
X239.521Y-205.409
X239.521Y-213.029
X239.531Y-193.838
X239.531Y-201.458
X239.536Y-183.043
X239.536Y-190.663
X239.663Y-128.179
X239.663Y-135.799
X239.663Y-139.736
X239.663Y-147.356
X239.663Y-151.293
X239.663Y-158.913
X239.663Y-162.85
X239.663Y-170.47
X239.719Y-116.749
X239.719Y-124.369
X242.203Y-128.179
X242.203Y-135.799
X242.203Y-139.736
X242.203Y-147.356
X242.203Y-151.293
X242.203Y-158.913
X242.203Y-162.85
X242.203Y-170.47
X242.259Y-116.749
X242.259Y-124.369
X242.574Y-103.15
X242.574Y-113.31
X244.799Y-116.749
X244.799Y-124.369
X244.865Y-183.043
X244.865Y-190.663
X245.749Y-103.15
X245.749Y-113.31
X247.339Y-116.749
X247.339Y-124.369
X247.4Y-205.419
X247.4Y-213.039
X247.405Y-183.043
X247.405Y-190.663
X247.405Y-193.838
X247.405Y-201.458
X247.537Y-128.179
X247.537Y-135.799
X247.537Y-139.736
X247.537Y-147.356
X247.537Y-151.293
X247.537Y-158.913
X247.537Y-162.85
X247.537Y-170.47
X248.583Y-103.15
X248.583Y-113.31
X249.879Y-116.749
X249.879Y-124.369
X249.94Y-205.419
X249.94Y-213.039
X249.945Y-183.043
X249.945Y-190.663
X249.945Y-193.838
X249.945Y-201.458
X250.077Y-128.179
X250.077Y-135.799
X250.077Y-139.736
X250.077Y-147.356
X250.077Y-151.293
X250.077Y-158.913
X250.077Y-162.85
X250.077Y-170.47
X251.417Y-103.15
X251.417Y-113.31
X252.419Y-116.749
X252.419Y-124.369
X252.48Y-205.419
X252.48Y-213.039
X252.485Y-183.043
X252.485Y-190.663
X252.485Y-193.838
X252.485Y-201.458
X252.617Y-128.179
X252.617Y-135.799
X252.617Y-139.736
X252.617Y-147.356
X252.617Y-151.293
X252.617Y-158.913
X252.617Y-162.85
X252.617Y-170.47
X254.512Y-103.15
X254.512Y-113.31
X255.02Y-205.419
X255.02Y-213.039
X255.025Y-183.043
X255.025Y-190.663
X255.025Y-193.838
X255.025Y-201.458
X255.157Y-128.179
X255.157Y-135.799
X255.157Y-139.736
X255.157Y-147.356
X255.157Y-151.293
X255.157Y-158.913
X255.157Y-162.85
X255.157Y-170.47
X257.56Y-205.419
X257.56Y-213.039
X257.565Y-183.043
X257.565Y-190.663
X257.565Y-193.838
X257.565Y-201.458
X257.585Y-103.15
X257.585Y-113.31
X257.697Y-128.179
X257.697Y-135.799
X257.697Y-139.736
X257.697Y-147.356
X257.697Y-151.293
X257.697Y-158.913
X257.697Y-162.85
X257.697Y-170.47
X258.454Y-116.749
X258.454Y-124.369
X260.1Y-205.419
X260.1Y-213.039
X260.105Y-183.043
X260.105Y-190.663
X260.105Y-193.838
X260.105Y-201.458
X260.237Y-128.179
X260.237Y-135.799
X260.237Y-139.736
X260.237Y-147.356
X260.237Y-151.293
X260.237Y-158.913
X260.237Y-162.85
X260.237Y-170.47
X260.669Y-103.15
X260.669Y-113.31
X260.994Y-116.749
X260.994Y-124.369
X262.64Y-205.419
X262.64Y-213.039
X262.645Y-183.043
X262.645Y-190.663
X262.645Y-193.838
X262.645Y-201.458
X262.777Y-128.179
X262.777Y-135.799
X262.777Y-139.736
X262.777Y-147.356
X262.777Y-151.293
X262.777Y-158.913
X262.777Y-162.85
X262.777Y-170.47
X263.504Y-103.15
X263.504Y-113.31
X263.534Y-116.749
X263.534Y-124.369
X265.317Y-128.179
X265.317Y-135.799
X265.317Y-139.736
X265.317Y-147.356
X265.317Y-151.293
X265.317Y-158.913
X265.317Y-162.85
X265.317Y-170.47
X266.074Y-116.749
X266.074Y-124.369
X266.338Y-103.15
X266.338Y-113.31
X266.704Y-215.037
X266.704Y-218.212
X267.72Y-189.931
X267.72Y-194.931
X268.614Y-116.749
X268.614Y-124.369
X269.422Y-103.15
X269.422Y-113.31
X271.149Y-128.169
X271.149Y-138.329
X271.149Y-141.036
X271.149Y-146.036
X271.154Y-116.749
X271.154Y-124.369
X272.506Y-103.15
X272.506Y-113.31
X272.78Y-150.033
X272.78Y-152.573
X272.78Y-155.113
X272.78Y-157.653
X272.78Y-160.193
X272.78Y-162.733
X272.78Y-165.273
X272.78Y-167.813
X273.694Y-116.749
X273.694Y-124.369
X274.197Y-73.938
X274.197Y-76.478
X274.197Y-79.018
X274.197Y-177.079
X274.197Y-179.619
X274.197Y-182.159
X274.197Y-184.699
X274.197Y-187.239
X274.197Y-189.779
X274.197Y-192.319
X274.197Y-194.859
X274.197Y-197.399
X274.197Y-199.939
X274.197Y-202.479
X274.197Y-205.019
X274.197Y-207.559
X274.197Y-210.099
X274.451Y-128.169
X274.451Y-138.329
X275.34Y-103.15
X275.34Y-113.31
X276.864Y-215.037
X276.864Y-218.212
X278.134Y-103.15
X278.134Y-113.31
X280.293Y-125.149
X280.293Y-129.199
X280.293Y-133.249
X280.4Y-150.033
X280.4Y-152.573
X280.4Y-155.113
X280.4Y-157.653
X280.4Y-160.193
X280.4Y-162.733
X280.4Y-165.273
X280.4Y-167.813
X283.595Y-150.013
X283.595Y-152.553
X283.595Y-155.093
X283.595Y-157.633
X283.595Y-160.173
X283.595Y-162.713
X283.595Y-165.253
X283.595Y-167.793
X283.595Y-170.333
X283.595Y-172.873
X284.098Y-99.081
X284.098Y-114.321
X285.326Y-139.091
X286.638Y-99.081
X286.638Y-114.321
X289.178Y-99.081
X289.178Y-114.321
X289.437Y-177.079
X289.437Y-179.619
X289.437Y-182.159
X289.437Y-184.699
X289.437Y-187.239
X289.437Y-189.779
X289.437Y-192.319
X289.437Y-194.859
X289.437Y-197.399
X289.437Y-199.939
X289.437Y-202.479
X289.437Y-205.019
X289.437Y-207.559
X289.437Y-210.099
X290.326Y-139.091
X290.453Y-125.149
X290.453Y-129.199
X290.453Y-133.249
X290.698Y-73.938
X290.698Y-76.478
X290.698Y-79.018
X291.215Y-150.013
X291.215Y-152.553
X291.215Y-155.093
X291.215Y-157.633
X291.215Y-160.173
X291.215Y-162.713
X291.215Y-165.253
X291.215Y-167.793
X291.215Y-170.333
X291.215Y-172.873
X291.718Y-99.081
X291.718Y-114.321
X292.739Y-187.139
X292.739Y-189.679
X292.739Y-192.219
X292.739Y-194.759
X292.739Y-197.299
X292.739Y-199.839
X292.739Y-202.379
X292.739Y-204.919
X292.739Y-207.459
X292.739Y-209.999
X294.258Y-99.081
X294.258Y-114.321
X296.041Y-165.634
X296.041Y-175.794
X296.798Y-99.081
X296.798Y-114.321
X296.818Y-119.528
X296.818Y-134.768
X296.818Y-139.848
X296.818Y-155.088
X299.338Y-99.081
X299.338Y-114.321
X299.358Y-119.528
X299.358Y-134.768
X299.358Y-139.848
X299.358Y-155.088
X299.47Y-182.652
X299.47Y-192.812
X299.47Y-194.971
X299.47Y-205.131
X299.597Y-165.634
X299.597Y-175.794
X301.878Y-99.081
X301.878Y-114.321
X301.898Y-119.528
X301.898Y-134.768
X301.898Y-139.848
X301.898Y-155.088
X302.01Y-182.652
X302.01Y-192.812
X302.01Y-194.971
X302.01Y-205.131
X304.418Y-99.081
X304.418Y-114.321
X304.423Y-162.586
X304.423Y-177.826
X304.438Y-119.528
X304.438Y-134.768
X304.438Y-139.848
X304.438Y-155.088
X304.55Y-182.652
X304.55Y-192.812
X304.55Y-194.971
X304.55Y-205.131
X306.958Y-99.081
X306.958Y-114.321
X306.963Y-162.586
X306.963Y-177.826
X306.978Y-119.528
X306.978Y-134.768
X306.978Y-139.848
X306.978Y-155.088
X307.09Y-182.652
X307.09Y-192.812
X307.09Y-194.971
X307.09Y-205.131
X307.199Y-73.938
X307.199Y-76.478
X307.199Y-79.018
X309.498Y-99.081
X309.498Y-114.321
X309.503Y-162.586
X309.503Y-177.826
X309.518Y-119.528
X309.518Y-134.768
X309.518Y-139.848
X309.518Y-155.088
X309.63Y-182.652
X309.63Y-192.812
X309.63Y-194.971
X309.63Y-205.131
X312.038Y-99.081
X312.038Y-114.321
X312.043Y-162.586
X312.043Y-177.826
X312.058Y-119.528
X312.058Y-134.768
X312.058Y-139.848
X312.058Y-155.088
X312.17Y-182.652
X312.17Y-192.812
X312.17Y-194.971
X312.17Y-205.131
X314.578Y-99.081
X314.578Y-114.321
X314.583Y-162.586
X314.583Y-177.826
X314.598Y-119.528
X314.598Y-134.768
X314.598Y-139.848
X314.598Y-155.088
X314.71Y-182.652
X314.71Y-192.812
X314.71Y-194.971
X314.71Y-205.131
X317.118Y-99.081
X317.118Y-114.321
X317.123Y-162.586
X317.123Y-177.826
X317.138Y-119.528
X317.138Y-134.768
X317.138Y-139.848
X317.138Y-155.088
X317.25Y-182.652
X317.25Y-192.812
X317.25Y-194.971
X317.25Y-205.131
X319.658Y-99.081
X319.658Y-114.321
X319.663Y-162.586
X319.663Y-177.826
X319.678Y-119.528
X319.678Y-134.768
X319.678Y-139.848
X319.678Y-155.088
X321.558Y-182.911
X321.558Y-185.451
X321.558Y-187.991
X321.558Y-190.531
X321.558Y-193.071
X321.558Y-195.611
X321.558Y-198.151
X321.558Y-204.247
X321.558Y-206.787
X321.558Y-209.327
X321.558Y-211.867
X321.558Y-214.407
X321.558Y-216.947
X321.558Y-219.487
X322.198Y-99.081
X322.198Y-114.321
X322.203Y-162.586
X322.203Y-177.826
X322.218Y-119.528
X322.218Y-134.768
X322.218Y-139.848
X322.218Y-155.088
X324.738Y-99.081
X324.738Y-114.321
X324.743Y-162.586
X324.743Y-177.826
X324.758Y-119.528
X324.758Y-134.768
X324.758Y-139.848
X324.758Y-155.088
X327.278Y-99.081
X327.278Y-114.321
X327.283Y-162.586
X327.283Y-177.826
X327.298Y-119.528
X327.298Y-134.768
X327.298Y-139.848
X327.298Y-155.088
X329.178Y-182.911
X329.178Y-185.451
X329.178Y-187.991
X329.178Y-190.531
X329.178Y-193.071
X329.178Y-195.611
X329.178Y-198.151
X329.178Y-204.247
X329.178Y-206.787
X329.178Y-209.327
X329.178Y-211.867
X329.178Y-214.407
X329.178Y-216.947
X329.178Y-219.487
X329.818Y-99.081
X329.818Y-114.321
X329.823Y-162.586
X329.823Y-177.826
X329.838Y-119.528
X329.838Y-134.768
X329.838Y-139.848
X329.838Y-155.088
X332.358Y-99.081
X332.358Y-114.321
X332.363Y-162.586
X332.363Y-177.826
X332.49Y-188.153
X332.49Y-193.153
X334.903Y-162.586
X334.903Y-177.826
X335.782Y-183.038
X335.782Y-185.578
X335.782Y-188.118
X335.782Y-190.658
X335.782Y-193.198
X335.782Y-195.738
X335.782Y-198.278
X336.427Y-104.206
X336.427Y-109.206
X336.427Y-121.986
X336.427Y-126.986
X336.427Y-143.83
X336.427Y-148.83
X337.062Y-214.275
X337.443Y-162.586
X337.443Y-177.826
X340.618Y-172.238
X340.618Y-175.413
X340.872Y-88.799
X340.872Y-91.339
X340.872Y-93.879
X340.872Y-96.419
X340.872Y-98.959
X340.872Y-101.499
X340.872Y-104.039
X340.872Y-106.579
X340.872Y-109.119
X340.872Y-111.659
X343.402Y-183.038
X343.402Y-185.578
X343.402Y-188.118
X343.402Y-190.658
X343.402Y-193.198
X343.402Y-195.738
X343.402Y-198.278
X347.095Y-190.526
X347.095Y-200.686
X347.222Y-214.275
X350.651Y-190.526
X350.651Y-200.686
X350.778Y-172.238
X350.778Y-175.413
X353.695Y-203.327
X353.695Y-213.487
X354.334Y-193.106
X354.334Y-198.106
T5
X253.507Y-74.505
X258.007Y-74.505
T6
X158.515Y-193.955
X161.025Y-197.638
X161.055Y-193.955
X163.565Y-197.638
X163.595Y-193.955
X207.649Y-94.086
X207.649Y-99.086
X259.831Y-94.763
X259.831Y-97.303
X262.371Y-94.763
X262.371Y-97.303
X264.911Y-94.763
X264.911Y-97.303
X277.82Y-116.688
X277.825Y-120.447
X280.36Y-116.688
X280.365Y-120.447
X283.976Y-215.409
X283.976Y-217.948
X286.516Y-215.409
X286.516Y-217.948
X289.056Y-215.409
X289.056Y-217.948
X291.596Y-215.409
X291.596Y-217.948
X294.136Y-215.409
X294.136Y-217.948
X296.676Y-215.409
X296.676Y-217.948
X299.216Y-215.409
X299.216Y-217.948
X301.756Y-215.409
X301.756Y-217.948
X304.296Y-215.409
X304.296Y-217.948
X306.836Y-215.409
X306.836Y-217.948
X309.376Y-215.409
X309.376Y-217.948
X311.916Y-215.409
X311.916Y-217.948
X341.522Y-205.893
X344.062Y-205.893
X346.159Y-81.56
X346.159Y-84.06
X346.159Y-86.56
X346.159Y-89.06
X346.159Y-91.56
X346.159Y-94.06
X346.159Y-96.56
X346.159Y-99.06
X346.159Y-101.56
X346.159Y-104.06
X346.159Y-106.56
X346.159Y-109.06
X346.159Y-111.56
X346.159Y-114.06
X346.159Y-116.56
X346.159Y-119.06
X346.159Y-121.56
X346.159Y-124.06
X346.159Y-126.56
X346.159Y-129.06
X346.159Y-131.56
X346.159Y-134.06
X346.159Y-136.56
X346.159Y-139.06
X346.159Y-141.56
X346.159Y-144.06
X346.159Y-146.56
X346.159Y-149.06
X346.159Y-151.56
X346.159Y-154.06
X346.159Y-156.56
X346.159Y-159.06
X346.602Y-205.893
X348.659Y-81.56
X348.659Y-84.06
X348.659Y-86.56
X348.659Y-89.06
X348.659Y-91.56
X348.659Y-94.06
X348.659Y-96.56
X348.659Y-99.06
X348.659Y-101.56
X348.659Y-104.06
X348.659Y-106.56
X348.659Y-109.06
X348.659Y-111.56
X348.659Y-114.06
X348.659Y-116.56
X348.659Y-119.06
X348.659Y-121.56
X348.659Y-124.06
X348.659Y-126.56
X348.659Y-129.06
X348.659Y-131.56
X348.659Y-134.06
X348.659Y-136.56
X348.659Y-139.06
X348.659Y-141.56
X348.659Y-144.06
X348.659Y-146.56
X348.659Y-149.06
X348.659Y-151.56
X348.659Y-154.06
X348.659Y-156.56
X348.659Y-159.06
X351.159Y-81.56
X351.159Y-84.06
X351.159Y-86.56
X351.159Y-89.06
X351.159Y-91.56
X351.159Y-94.06
X351.159Y-96.56
X351.159Y-99.06
X351.159Y-101.56
X351.159Y-104.06
X351.159Y-106.56
X351.159Y-109.06
X351.159Y-111.56
X351.159Y-114.06
X351.159Y-116.56
X351.159Y-119.06
X351.159Y-121.56
X351.159Y-124.06
X351.159Y-126.56
X351.159Y-129.06
X351.159Y-131.56
X351.159Y-134.06
X351.159Y-136.56
X351.159Y-139.06
X351.159Y-141.56
X351.159Y-144.06
X351.159Y-146.56
X351.159Y-149.06
X351.159Y-151.56
X351.159Y-154.06
X351.159Y-156.56
X351.159Y-159.06
T7
X144.991Y-74.487
X147.491Y-74.187
X152.491Y-74.187
X154.991Y-74.487
X165.819Y-74.487
X168.319Y-74.187
X173.319Y-74.187
X175.819Y-74.487
X186.647Y-74.487
X189.147Y-74.187
X194.147Y-74.187
X196.647Y-74.487
X207.475Y-74.487
X209.975Y-74.187
X214.975Y-74.187
X217.475Y-74.487
X228.303Y-74.487
X230.803Y-74.187
X235.803Y-74.187
X238.303Y-74.487
T8
X142.491Y-84.187
X142.491Y-89.287
X144.991Y-86.687
X149.991Y-84.187
X154.991Y-86.687
X157.491Y-84.187
X157.491Y-89.287
X163.319Y-84.187
X163.319Y-89.287
X165.819Y-86.687
X170.819Y-84.187
X175.819Y-86.687
X178.319Y-84.187
X178.319Y-89.287
X184.147Y-84.187
X186.647Y-86.687
X191.647Y-84.187
X196.647Y-86.687
X199.147Y-84.187
X204.975Y-84.187
X207.475Y-86.687
X212.475Y-84.187
X217.475Y-86.687
X219.975Y-84.187
X225.803Y-84.187
X225.803Y-89.287
X228.303Y-86.687
X233.303Y-84.187
X238.303Y-86.687
X240.803Y-84.187
X240.803Y-89.287
X252.257Y-76.995
X259.267Y-76.995
T6
G00X99.873Y-81.16
M15
G01X99.873Y-79.06
M16
G05
G00X99.873Y-93.76
M15
G01X99.873Y-91.66
M16
G05
T0
M30
