%TF.GenerationSoftware,KiCad,Pcbnew,7.0.11*%
%TF.CreationDate,2024-04-05T00:58:18+03:00*%
%TF.ProjectId,delta48m,64656c74-6134-4386-9d2e-6b696361645f,1*%
%TF.SameCoordinates,Original*%
%TF.FileFunction,Drillmap*%
%TF.FilePolarity,Positive*%
%FSLAX45Y45*%
G04 Gerber Fmt 4.5, Leading zero omitted, Abs format (unit mm)*
G04 Created by KiCad (PCBNEW 7.0.11) date 2024-04-05 00:58:18*
%MOMM*%
%LPD*%
G01*
G04 APERTURE LIST*
%ADD10C,0.100000*%
%ADD11C,0.200000*%
%ADD12C,0.280000*%
%ADD13C,0.320000*%
%ADD14C,0.350000*%
G04 APERTURE END LIST*
D10*
X6960000Y-7140000D02*
X35660000Y-7140000D01*
X35660000Y-22140000D01*
X6960000Y-22140000D01*
X6960000Y-7140000D01*
D11*
D12*
X35225900Y-7516000D02*
X35505900Y-7796000D01*
X35505900Y-7516000D02*
X35225900Y-7796000D01*
X35225900Y-16266000D02*
X35505900Y-16546000D01*
X35505900Y-16266000D02*
X35225900Y-16546000D01*
D13*
X7420000Y-7590000D02*
G75*
G03*
X7100000Y-7590000I-160000J0D01*
G01*
X7100000Y-7590000D02*
G75*
G03*
X7420000Y-7590000I160000J0D01*
G01*
X8290000Y-21100000D02*
G75*
G03*
X7970000Y-21100000I-160000J0D01*
G01*
X7970000Y-21100000D02*
G75*
G03*
X8290000Y-21100000I160000J0D01*
G01*
X32319520Y-8655680D02*
G75*
G03*
X31999520Y-8655680I-160000J0D01*
G01*
X31999520Y-8655680D02*
G75*
G03*
X32319520Y-8655680I160000J0D01*
G01*
X34120000Y-7840000D02*
G75*
G03*
X33800000Y-7840000I-160000J0D01*
G01*
X33800000Y-7840000D02*
G75*
G03*
X34120000Y-7840000I160000J0D01*
G01*
X35516800Y-21869400D02*
G75*
G03*
X35196800Y-21869400I-160000J0D01*
G01*
X35196800Y-21869400D02*
G75*
G03*
X35516800Y-21869400I160000J0D01*
G01*
D14*
X11125780Y-8503380D02*
X11125780Y-8853380D01*
X10950780Y-8678380D02*
X11300780Y-8678380D01*
X11133400Y-7523100D02*
X11133400Y-7873100D01*
X10958400Y-7698100D02*
X11308400Y-7698100D01*
X11887780Y-7518020D02*
X11887780Y-7868020D01*
X11712780Y-7693020D02*
X12062780Y-7693020D01*
X32160000Y-7495000D02*
X32160000Y-7845000D01*
X31985000Y-7670000D02*
X32335000Y-7670000D01*
D11*
X7215777Y-22456484D02*
X7215777Y-22256484D01*
X7215777Y-22256484D02*
X7263396Y-22256484D01*
X7263396Y-22256484D02*
X7291967Y-22266008D01*
X7291967Y-22266008D02*
X7311015Y-22285055D01*
X7311015Y-22285055D02*
X7320539Y-22304103D01*
X7320539Y-22304103D02*
X7330062Y-22342198D01*
X7330062Y-22342198D02*
X7330062Y-22370769D01*
X7330062Y-22370769D02*
X7320539Y-22408865D01*
X7320539Y-22408865D02*
X7311015Y-22427912D01*
X7311015Y-22427912D02*
X7291967Y-22446960D01*
X7291967Y-22446960D02*
X7263396Y-22456484D01*
X7263396Y-22456484D02*
X7215777Y-22456484D01*
X7415777Y-22456484D02*
X7415777Y-22323150D01*
X7415777Y-22361246D02*
X7425301Y-22342198D01*
X7425301Y-22342198D02*
X7434824Y-22332674D01*
X7434824Y-22332674D02*
X7453872Y-22323150D01*
X7453872Y-22323150D02*
X7472920Y-22323150D01*
X7539586Y-22456484D02*
X7539586Y-22323150D01*
X7539586Y-22256484D02*
X7530062Y-22266008D01*
X7530062Y-22266008D02*
X7539586Y-22275531D01*
X7539586Y-22275531D02*
X7549110Y-22266008D01*
X7549110Y-22266008D02*
X7539586Y-22256484D01*
X7539586Y-22256484D02*
X7539586Y-22275531D01*
X7663396Y-22456484D02*
X7644348Y-22446960D01*
X7644348Y-22446960D02*
X7634824Y-22427912D01*
X7634824Y-22427912D02*
X7634824Y-22256484D01*
X7768158Y-22456484D02*
X7749110Y-22446960D01*
X7749110Y-22446960D02*
X7739586Y-22427912D01*
X7739586Y-22427912D02*
X7739586Y-22256484D01*
X7996729Y-22456484D02*
X7996729Y-22256484D01*
X7996729Y-22256484D02*
X8063396Y-22399341D01*
X8063396Y-22399341D02*
X8130062Y-22256484D01*
X8130062Y-22256484D02*
X8130062Y-22456484D01*
X8311015Y-22456484D02*
X8311015Y-22351722D01*
X8311015Y-22351722D02*
X8301491Y-22332674D01*
X8301491Y-22332674D02*
X8282443Y-22323150D01*
X8282443Y-22323150D02*
X8244348Y-22323150D01*
X8244348Y-22323150D02*
X8225301Y-22332674D01*
X8311015Y-22446960D02*
X8291967Y-22456484D01*
X8291967Y-22456484D02*
X8244348Y-22456484D01*
X8244348Y-22456484D02*
X8225301Y-22446960D01*
X8225301Y-22446960D02*
X8215777Y-22427912D01*
X8215777Y-22427912D02*
X8215777Y-22408865D01*
X8215777Y-22408865D02*
X8225301Y-22389817D01*
X8225301Y-22389817D02*
X8244348Y-22380293D01*
X8244348Y-22380293D02*
X8291967Y-22380293D01*
X8291967Y-22380293D02*
X8311015Y-22370769D01*
X8406253Y-22323150D02*
X8406253Y-22523150D01*
X8406253Y-22332674D02*
X8425301Y-22323150D01*
X8425301Y-22323150D02*
X8463396Y-22323150D01*
X8463396Y-22323150D02*
X8482444Y-22332674D01*
X8482444Y-22332674D02*
X8491967Y-22342198D01*
X8491967Y-22342198D02*
X8501491Y-22361246D01*
X8501491Y-22361246D02*
X8501491Y-22418388D01*
X8501491Y-22418388D02*
X8491967Y-22437436D01*
X8491967Y-22437436D02*
X8482444Y-22446960D01*
X8482444Y-22446960D02*
X8463396Y-22456484D01*
X8463396Y-22456484D02*
X8425301Y-22456484D01*
X8425301Y-22456484D02*
X8406253Y-22446960D01*
X8587205Y-22437436D02*
X8596729Y-22446960D01*
X8596729Y-22446960D02*
X8587205Y-22456484D01*
X8587205Y-22456484D02*
X8577682Y-22446960D01*
X8577682Y-22446960D02*
X8587205Y-22437436D01*
X8587205Y-22437436D02*
X8587205Y-22456484D01*
X8587205Y-22332674D02*
X8596729Y-22342198D01*
X8596729Y-22342198D02*
X8587205Y-22351722D01*
X8587205Y-22351722D02*
X8577682Y-22342198D01*
X8577682Y-22342198D02*
X8587205Y-22332674D01*
X8587205Y-22332674D02*
X8587205Y-22351722D01*
X6755000Y-22685000D02*
X6955000Y-22885000D01*
X6955000Y-22685000D02*
X6755000Y-22885000D01*
X7206253Y-22695531D02*
X7215777Y-22686008D01*
X7215777Y-22686008D02*
X7234824Y-22676484D01*
X7234824Y-22676484D02*
X7282443Y-22676484D01*
X7282443Y-22676484D02*
X7301491Y-22686008D01*
X7301491Y-22686008D02*
X7311015Y-22695531D01*
X7311015Y-22695531D02*
X7320539Y-22714579D01*
X7320539Y-22714579D02*
X7320539Y-22733627D01*
X7320539Y-22733627D02*
X7311015Y-22762198D01*
X7311015Y-22762198D02*
X7196729Y-22876484D01*
X7196729Y-22876484D02*
X7320539Y-22876484D01*
X7406253Y-22857436D02*
X7415777Y-22866960D01*
X7415777Y-22866960D02*
X7406253Y-22876484D01*
X7406253Y-22876484D02*
X7396729Y-22866960D01*
X7396729Y-22866960D02*
X7406253Y-22857436D01*
X7406253Y-22857436D02*
X7406253Y-22876484D01*
X7530062Y-22762198D02*
X7511015Y-22752674D01*
X7511015Y-22752674D02*
X7501491Y-22743150D01*
X7501491Y-22743150D02*
X7491967Y-22724103D01*
X7491967Y-22724103D02*
X7491967Y-22714579D01*
X7491967Y-22714579D02*
X7501491Y-22695531D01*
X7501491Y-22695531D02*
X7511015Y-22686008D01*
X7511015Y-22686008D02*
X7530062Y-22676484D01*
X7530062Y-22676484D02*
X7568158Y-22676484D01*
X7568158Y-22676484D02*
X7587205Y-22686008D01*
X7587205Y-22686008D02*
X7596729Y-22695531D01*
X7596729Y-22695531D02*
X7606253Y-22714579D01*
X7606253Y-22714579D02*
X7606253Y-22724103D01*
X7606253Y-22724103D02*
X7596729Y-22743150D01*
X7596729Y-22743150D02*
X7587205Y-22752674D01*
X7587205Y-22752674D02*
X7568158Y-22762198D01*
X7568158Y-22762198D02*
X7530062Y-22762198D01*
X7530062Y-22762198D02*
X7511015Y-22771722D01*
X7511015Y-22771722D02*
X7501491Y-22781246D01*
X7501491Y-22781246D02*
X7491967Y-22800293D01*
X7491967Y-22800293D02*
X7491967Y-22838388D01*
X7491967Y-22838388D02*
X7501491Y-22857436D01*
X7501491Y-22857436D02*
X7511015Y-22866960D01*
X7511015Y-22866960D02*
X7530062Y-22876484D01*
X7530062Y-22876484D02*
X7568158Y-22876484D01*
X7568158Y-22876484D02*
X7587205Y-22866960D01*
X7587205Y-22866960D02*
X7596729Y-22857436D01*
X7596729Y-22857436D02*
X7606253Y-22838388D01*
X7606253Y-22838388D02*
X7606253Y-22800293D01*
X7606253Y-22800293D02*
X7596729Y-22781246D01*
X7596729Y-22781246D02*
X7587205Y-22771722D01*
X7587205Y-22771722D02*
X7568158Y-22762198D01*
X7730062Y-22676484D02*
X7749110Y-22676484D01*
X7749110Y-22676484D02*
X7768158Y-22686008D01*
X7768158Y-22686008D02*
X7777682Y-22695531D01*
X7777682Y-22695531D02*
X7787205Y-22714579D01*
X7787205Y-22714579D02*
X7796729Y-22752674D01*
X7796729Y-22752674D02*
X7796729Y-22800293D01*
X7796729Y-22800293D02*
X7787205Y-22838388D01*
X7787205Y-22838388D02*
X7777682Y-22857436D01*
X7777682Y-22857436D02*
X7768158Y-22866960D01*
X7768158Y-22866960D02*
X7749110Y-22876484D01*
X7749110Y-22876484D02*
X7730062Y-22876484D01*
X7730062Y-22876484D02*
X7711015Y-22866960D01*
X7711015Y-22866960D02*
X7701491Y-22857436D01*
X7701491Y-22857436D02*
X7691967Y-22838388D01*
X7691967Y-22838388D02*
X7682443Y-22800293D01*
X7682443Y-22800293D02*
X7682443Y-22752674D01*
X7682443Y-22752674D02*
X7691967Y-22714579D01*
X7691967Y-22714579D02*
X7701491Y-22695531D01*
X7701491Y-22695531D02*
X7711015Y-22686008D01*
X7711015Y-22686008D02*
X7730062Y-22676484D01*
X7920539Y-22676484D02*
X7939586Y-22676484D01*
X7939586Y-22676484D02*
X7958634Y-22686008D01*
X7958634Y-22686008D02*
X7968158Y-22695531D01*
X7968158Y-22695531D02*
X7977682Y-22714579D01*
X7977682Y-22714579D02*
X7987205Y-22752674D01*
X7987205Y-22752674D02*
X7987205Y-22800293D01*
X7987205Y-22800293D02*
X7977682Y-22838388D01*
X7977682Y-22838388D02*
X7968158Y-22857436D01*
X7968158Y-22857436D02*
X7958634Y-22866960D01*
X7958634Y-22866960D02*
X7939586Y-22876484D01*
X7939586Y-22876484D02*
X7920539Y-22876484D01*
X7920539Y-22876484D02*
X7901491Y-22866960D01*
X7901491Y-22866960D02*
X7891967Y-22857436D01*
X7891967Y-22857436D02*
X7882443Y-22838388D01*
X7882443Y-22838388D02*
X7872920Y-22800293D01*
X7872920Y-22800293D02*
X7872920Y-22752674D01*
X7872920Y-22752674D02*
X7882443Y-22714579D01*
X7882443Y-22714579D02*
X7891967Y-22695531D01*
X7891967Y-22695531D02*
X7901491Y-22686008D01*
X7901491Y-22686008D02*
X7920539Y-22676484D01*
X8072920Y-22876484D02*
X8072920Y-22743150D01*
X8072920Y-22762198D02*
X8082443Y-22752674D01*
X8082443Y-22752674D02*
X8101491Y-22743150D01*
X8101491Y-22743150D02*
X8130063Y-22743150D01*
X8130063Y-22743150D02*
X8149110Y-22752674D01*
X8149110Y-22752674D02*
X8158634Y-22771722D01*
X8158634Y-22771722D02*
X8158634Y-22876484D01*
X8158634Y-22771722D02*
X8168158Y-22752674D01*
X8168158Y-22752674D02*
X8187205Y-22743150D01*
X8187205Y-22743150D02*
X8215777Y-22743150D01*
X8215777Y-22743150D02*
X8234824Y-22752674D01*
X8234824Y-22752674D02*
X8244348Y-22771722D01*
X8244348Y-22771722D02*
X8244348Y-22876484D01*
X8339586Y-22876484D02*
X8339586Y-22743150D01*
X8339586Y-22762198D02*
X8349110Y-22752674D01*
X8349110Y-22752674D02*
X8368158Y-22743150D01*
X8368158Y-22743150D02*
X8396729Y-22743150D01*
X8396729Y-22743150D02*
X8415777Y-22752674D01*
X8415777Y-22752674D02*
X8425301Y-22771722D01*
X8425301Y-22771722D02*
X8425301Y-22876484D01*
X8425301Y-22771722D02*
X8434825Y-22752674D01*
X8434825Y-22752674D02*
X8453872Y-22743150D01*
X8453872Y-22743150D02*
X8482444Y-22743150D01*
X8482444Y-22743150D02*
X8501491Y-22752674D01*
X8501491Y-22752674D02*
X8511015Y-22771722D01*
X8511015Y-22771722D02*
X8511015Y-22876484D01*
X8901491Y-22666960D02*
X8730063Y-22924103D01*
X9158634Y-22676484D02*
X9177682Y-22676484D01*
X9177682Y-22676484D02*
X9196729Y-22686008D01*
X9196729Y-22686008D02*
X9206253Y-22695531D01*
X9206253Y-22695531D02*
X9215777Y-22714579D01*
X9215777Y-22714579D02*
X9225301Y-22752674D01*
X9225301Y-22752674D02*
X9225301Y-22800293D01*
X9225301Y-22800293D02*
X9215777Y-22838388D01*
X9215777Y-22838388D02*
X9206253Y-22857436D01*
X9206253Y-22857436D02*
X9196729Y-22866960D01*
X9196729Y-22866960D02*
X9177682Y-22876484D01*
X9177682Y-22876484D02*
X9158634Y-22876484D01*
X9158634Y-22876484D02*
X9139587Y-22866960D01*
X9139587Y-22866960D02*
X9130063Y-22857436D01*
X9130063Y-22857436D02*
X9120539Y-22838388D01*
X9120539Y-22838388D02*
X9111015Y-22800293D01*
X9111015Y-22800293D02*
X9111015Y-22752674D01*
X9111015Y-22752674D02*
X9120539Y-22714579D01*
X9120539Y-22714579D02*
X9130063Y-22695531D01*
X9130063Y-22695531D02*
X9139587Y-22686008D01*
X9139587Y-22686008D02*
X9158634Y-22676484D01*
X9311015Y-22857436D02*
X9320539Y-22866960D01*
X9320539Y-22866960D02*
X9311015Y-22876484D01*
X9311015Y-22876484D02*
X9301491Y-22866960D01*
X9301491Y-22866960D02*
X9311015Y-22857436D01*
X9311015Y-22857436D02*
X9311015Y-22876484D01*
X9511015Y-22876484D02*
X9396729Y-22876484D01*
X9453872Y-22876484D02*
X9453872Y-22676484D01*
X9453872Y-22676484D02*
X9434825Y-22705055D01*
X9434825Y-22705055D02*
X9415777Y-22724103D01*
X9415777Y-22724103D02*
X9396729Y-22733627D01*
X9701491Y-22876484D02*
X9587206Y-22876484D01*
X9644348Y-22876484D02*
X9644348Y-22676484D01*
X9644348Y-22676484D02*
X9625301Y-22705055D01*
X9625301Y-22705055D02*
X9606253Y-22724103D01*
X9606253Y-22724103D02*
X9587206Y-22733627D01*
X9825301Y-22676484D02*
X9844349Y-22676484D01*
X9844349Y-22676484D02*
X9863396Y-22686008D01*
X9863396Y-22686008D02*
X9872920Y-22695531D01*
X9872920Y-22695531D02*
X9882444Y-22714579D01*
X9882444Y-22714579D02*
X9891968Y-22752674D01*
X9891968Y-22752674D02*
X9891968Y-22800293D01*
X9891968Y-22800293D02*
X9882444Y-22838388D01*
X9882444Y-22838388D02*
X9872920Y-22857436D01*
X9872920Y-22857436D02*
X9863396Y-22866960D01*
X9863396Y-22866960D02*
X9844349Y-22876484D01*
X9844349Y-22876484D02*
X9825301Y-22876484D01*
X9825301Y-22876484D02*
X9806253Y-22866960D01*
X9806253Y-22866960D02*
X9796729Y-22857436D01*
X9796729Y-22857436D02*
X9787206Y-22838388D01*
X9787206Y-22838388D02*
X9777682Y-22800293D01*
X9777682Y-22800293D02*
X9777682Y-22752674D01*
X9777682Y-22752674D02*
X9787206Y-22714579D01*
X9787206Y-22714579D02*
X9796729Y-22695531D01*
X9796729Y-22695531D02*
X9806253Y-22686008D01*
X9806253Y-22686008D02*
X9825301Y-22676484D01*
X9968158Y-22695531D02*
X9977682Y-22686008D01*
X9977682Y-22686008D02*
X9996729Y-22676484D01*
X9996729Y-22676484D02*
X10044349Y-22676484D01*
X10044349Y-22676484D02*
X10063396Y-22686008D01*
X10063396Y-22686008D02*
X10072920Y-22695531D01*
X10072920Y-22695531D02*
X10082444Y-22714579D01*
X10082444Y-22714579D02*
X10082444Y-22733627D01*
X10082444Y-22733627D02*
X10072920Y-22762198D01*
X10072920Y-22762198D02*
X9958634Y-22876484D01*
X9958634Y-22876484D02*
X10082444Y-22876484D01*
X10158634Y-22676484D02*
X10158634Y-22714579D01*
X10234825Y-22676484D02*
X10234825Y-22714579D01*
X10530063Y-22952674D02*
X10520539Y-22943150D01*
X10520539Y-22943150D02*
X10501491Y-22914579D01*
X10501491Y-22914579D02*
X10491968Y-22895531D01*
X10491968Y-22895531D02*
X10482444Y-22866960D01*
X10482444Y-22866960D02*
X10472920Y-22819341D01*
X10472920Y-22819341D02*
X10472920Y-22781246D01*
X10472920Y-22781246D02*
X10482444Y-22733627D01*
X10482444Y-22733627D02*
X10491968Y-22705055D01*
X10491968Y-22705055D02*
X10501491Y-22686008D01*
X10501491Y-22686008D02*
X10520539Y-22657436D01*
X10520539Y-22657436D02*
X10530063Y-22647912D01*
X10596730Y-22695531D02*
X10606253Y-22686008D01*
X10606253Y-22686008D02*
X10625301Y-22676484D01*
X10625301Y-22676484D02*
X10672920Y-22676484D01*
X10672920Y-22676484D02*
X10691968Y-22686008D01*
X10691968Y-22686008D02*
X10701491Y-22695531D01*
X10701491Y-22695531D02*
X10711015Y-22714579D01*
X10711015Y-22714579D02*
X10711015Y-22733627D01*
X10711015Y-22733627D02*
X10701491Y-22762198D01*
X10701491Y-22762198D02*
X10587206Y-22876484D01*
X10587206Y-22876484D02*
X10711015Y-22876484D01*
X10949111Y-22876484D02*
X10949111Y-22676484D01*
X11034825Y-22876484D02*
X11034825Y-22771722D01*
X11034825Y-22771722D02*
X11025301Y-22752674D01*
X11025301Y-22752674D02*
X11006253Y-22743150D01*
X11006253Y-22743150D02*
X10977682Y-22743150D01*
X10977682Y-22743150D02*
X10958634Y-22752674D01*
X10958634Y-22752674D02*
X10949111Y-22762198D01*
X11158634Y-22876484D02*
X11139587Y-22866960D01*
X11139587Y-22866960D02*
X11130063Y-22857436D01*
X11130063Y-22857436D02*
X11120539Y-22838388D01*
X11120539Y-22838388D02*
X11120539Y-22781246D01*
X11120539Y-22781246D02*
X11130063Y-22762198D01*
X11130063Y-22762198D02*
X11139587Y-22752674D01*
X11139587Y-22752674D02*
X11158634Y-22743150D01*
X11158634Y-22743150D02*
X11187206Y-22743150D01*
X11187206Y-22743150D02*
X11206253Y-22752674D01*
X11206253Y-22752674D02*
X11215777Y-22762198D01*
X11215777Y-22762198D02*
X11225301Y-22781246D01*
X11225301Y-22781246D02*
X11225301Y-22838388D01*
X11225301Y-22838388D02*
X11215777Y-22857436D01*
X11215777Y-22857436D02*
X11206253Y-22866960D01*
X11206253Y-22866960D02*
X11187206Y-22876484D01*
X11187206Y-22876484D02*
X11158634Y-22876484D01*
X11339587Y-22876484D02*
X11320539Y-22866960D01*
X11320539Y-22866960D02*
X11311015Y-22847912D01*
X11311015Y-22847912D02*
X11311015Y-22676484D01*
X11491968Y-22866960D02*
X11472920Y-22876484D01*
X11472920Y-22876484D02*
X11434825Y-22876484D01*
X11434825Y-22876484D02*
X11415777Y-22866960D01*
X11415777Y-22866960D02*
X11406253Y-22847912D01*
X11406253Y-22847912D02*
X11406253Y-22771722D01*
X11406253Y-22771722D02*
X11415777Y-22752674D01*
X11415777Y-22752674D02*
X11434825Y-22743150D01*
X11434825Y-22743150D02*
X11472920Y-22743150D01*
X11472920Y-22743150D02*
X11491968Y-22752674D01*
X11491968Y-22752674D02*
X11501491Y-22771722D01*
X11501491Y-22771722D02*
X11501491Y-22790769D01*
X11501491Y-22790769D02*
X11406253Y-22809817D01*
X11577682Y-22866960D02*
X11596730Y-22876484D01*
X11596730Y-22876484D02*
X11634825Y-22876484D01*
X11634825Y-22876484D02*
X11653872Y-22866960D01*
X11653872Y-22866960D02*
X11663396Y-22847912D01*
X11663396Y-22847912D02*
X11663396Y-22838388D01*
X11663396Y-22838388D02*
X11653872Y-22819341D01*
X11653872Y-22819341D02*
X11634825Y-22809817D01*
X11634825Y-22809817D02*
X11606253Y-22809817D01*
X11606253Y-22809817D02*
X11587206Y-22800293D01*
X11587206Y-22800293D02*
X11577682Y-22781246D01*
X11577682Y-22781246D02*
X11577682Y-22771722D01*
X11577682Y-22771722D02*
X11587206Y-22752674D01*
X11587206Y-22752674D02*
X11606253Y-22743150D01*
X11606253Y-22743150D02*
X11634825Y-22743150D01*
X11634825Y-22743150D02*
X11653872Y-22752674D01*
X11730063Y-22952674D02*
X11739587Y-22943150D01*
X11739587Y-22943150D02*
X11758634Y-22914579D01*
X11758634Y-22914579D02*
X11768158Y-22895531D01*
X11768158Y-22895531D02*
X11777682Y-22866960D01*
X11777682Y-22866960D02*
X11787206Y-22819341D01*
X11787206Y-22819341D02*
X11787206Y-22781246D01*
X11787206Y-22781246D02*
X11777682Y-22733627D01*
X11777682Y-22733627D02*
X11768158Y-22705055D01*
X11768158Y-22705055D02*
X11758634Y-22686008D01*
X11758634Y-22686008D02*
X11739587Y-22657436D01*
X11739587Y-22657436D02*
X11730063Y-22647912D01*
X12091968Y-22952674D02*
X12082444Y-22943150D01*
X12082444Y-22943150D02*
X12063396Y-22914579D01*
X12063396Y-22914579D02*
X12053872Y-22895531D01*
X12053872Y-22895531D02*
X12044349Y-22866960D01*
X12044349Y-22866960D02*
X12034825Y-22819341D01*
X12034825Y-22819341D02*
X12034825Y-22781246D01*
X12034825Y-22781246D02*
X12044349Y-22733627D01*
X12044349Y-22733627D02*
X12053872Y-22705055D01*
X12053872Y-22705055D02*
X12063396Y-22686008D01*
X12063396Y-22686008D02*
X12082444Y-22657436D01*
X12082444Y-22657436D02*
X12091968Y-22647912D01*
X12168158Y-22743150D02*
X12168158Y-22876484D01*
X12168158Y-22762198D02*
X12177682Y-22752674D01*
X12177682Y-22752674D02*
X12196730Y-22743150D01*
X12196730Y-22743150D02*
X12225301Y-22743150D01*
X12225301Y-22743150D02*
X12244349Y-22752674D01*
X12244349Y-22752674D02*
X12253872Y-22771722D01*
X12253872Y-22771722D02*
X12253872Y-22876484D01*
X12377682Y-22876484D02*
X12358634Y-22866960D01*
X12358634Y-22866960D02*
X12349111Y-22857436D01*
X12349111Y-22857436D02*
X12339587Y-22838388D01*
X12339587Y-22838388D02*
X12339587Y-22781246D01*
X12339587Y-22781246D02*
X12349111Y-22762198D01*
X12349111Y-22762198D02*
X12358634Y-22752674D01*
X12358634Y-22752674D02*
X12377682Y-22743150D01*
X12377682Y-22743150D02*
X12406253Y-22743150D01*
X12406253Y-22743150D02*
X12425301Y-22752674D01*
X12425301Y-22752674D02*
X12434825Y-22762198D01*
X12434825Y-22762198D02*
X12444349Y-22781246D01*
X12444349Y-22781246D02*
X12444349Y-22838388D01*
X12444349Y-22838388D02*
X12434825Y-22857436D01*
X12434825Y-22857436D02*
X12425301Y-22866960D01*
X12425301Y-22866960D02*
X12406253Y-22876484D01*
X12406253Y-22876484D02*
X12377682Y-22876484D01*
X12501492Y-22743150D02*
X12577682Y-22743150D01*
X12530063Y-22676484D02*
X12530063Y-22847912D01*
X12530063Y-22847912D02*
X12539587Y-22866960D01*
X12539587Y-22866960D02*
X12558634Y-22876484D01*
X12558634Y-22876484D02*
X12577682Y-22876484D01*
X12796730Y-22743150D02*
X12796730Y-22943150D01*
X12796730Y-22752674D02*
X12815777Y-22743150D01*
X12815777Y-22743150D02*
X12853873Y-22743150D01*
X12853873Y-22743150D02*
X12872920Y-22752674D01*
X12872920Y-22752674D02*
X12882444Y-22762198D01*
X12882444Y-22762198D02*
X12891968Y-22781246D01*
X12891968Y-22781246D02*
X12891968Y-22838388D01*
X12891968Y-22838388D02*
X12882444Y-22857436D01*
X12882444Y-22857436D02*
X12872920Y-22866960D01*
X12872920Y-22866960D02*
X12853873Y-22876484D01*
X12853873Y-22876484D02*
X12815777Y-22876484D01*
X12815777Y-22876484D02*
X12796730Y-22866960D01*
X13006253Y-22876484D02*
X12987206Y-22866960D01*
X12987206Y-22866960D02*
X12977682Y-22847912D01*
X12977682Y-22847912D02*
X12977682Y-22676484D01*
X13168158Y-22876484D02*
X13168158Y-22771722D01*
X13168158Y-22771722D02*
X13158634Y-22752674D01*
X13158634Y-22752674D02*
X13139587Y-22743150D01*
X13139587Y-22743150D02*
X13101492Y-22743150D01*
X13101492Y-22743150D02*
X13082444Y-22752674D01*
X13168158Y-22866960D02*
X13149111Y-22876484D01*
X13149111Y-22876484D02*
X13101492Y-22876484D01*
X13101492Y-22876484D02*
X13082444Y-22866960D01*
X13082444Y-22866960D02*
X13072920Y-22847912D01*
X13072920Y-22847912D02*
X13072920Y-22828865D01*
X13072920Y-22828865D02*
X13082444Y-22809817D01*
X13082444Y-22809817D02*
X13101492Y-22800293D01*
X13101492Y-22800293D02*
X13149111Y-22800293D01*
X13149111Y-22800293D02*
X13168158Y-22790769D01*
X13234825Y-22743150D02*
X13311015Y-22743150D01*
X13263396Y-22676484D02*
X13263396Y-22847912D01*
X13263396Y-22847912D02*
X13272920Y-22866960D01*
X13272920Y-22866960D02*
X13291968Y-22876484D01*
X13291968Y-22876484D02*
X13311015Y-22876484D01*
X13453873Y-22866960D02*
X13434825Y-22876484D01*
X13434825Y-22876484D02*
X13396730Y-22876484D01*
X13396730Y-22876484D02*
X13377682Y-22866960D01*
X13377682Y-22866960D02*
X13368158Y-22847912D01*
X13368158Y-22847912D02*
X13368158Y-22771722D01*
X13368158Y-22771722D02*
X13377682Y-22752674D01*
X13377682Y-22752674D02*
X13396730Y-22743150D01*
X13396730Y-22743150D02*
X13434825Y-22743150D01*
X13434825Y-22743150D02*
X13453873Y-22752674D01*
X13453873Y-22752674D02*
X13463396Y-22771722D01*
X13463396Y-22771722D02*
X13463396Y-22790769D01*
X13463396Y-22790769D02*
X13368158Y-22809817D01*
X13634825Y-22876484D02*
X13634825Y-22676484D01*
X13634825Y-22866960D02*
X13615777Y-22876484D01*
X13615777Y-22876484D02*
X13577682Y-22876484D01*
X13577682Y-22876484D02*
X13558634Y-22866960D01*
X13558634Y-22866960D02*
X13549111Y-22857436D01*
X13549111Y-22857436D02*
X13539587Y-22838388D01*
X13539587Y-22838388D02*
X13539587Y-22781246D01*
X13539587Y-22781246D02*
X13549111Y-22762198D01*
X13549111Y-22762198D02*
X13558634Y-22752674D01*
X13558634Y-22752674D02*
X13577682Y-22743150D01*
X13577682Y-22743150D02*
X13615777Y-22743150D01*
X13615777Y-22743150D02*
X13634825Y-22752674D01*
X13711015Y-22952674D02*
X13720539Y-22943150D01*
X13720539Y-22943150D02*
X13739587Y-22914579D01*
X13739587Y-22914579D02*
X13749111Y-22895531D01*
X13749111Y-22895531D02*
X13758634Y-22866960D01*
X13758634Y-22866960D02*
X13768158Y-22819341D01*
X13768158Y-22819341D02*
X13768158Y-22781246D01*
X13768158Y-22781246D02*
X13758634Y-22733627D01*
X13758634Y-22733627D02*
X13749111Y-22705055D01*
X13749111Y-22705055D02*
X13739587Y-22686008D01*
X13739587Y-22686008D02*
X13720539Y-22657436D01*
X13720539Y-22657436D02*
X13711015Y-22647912D01*
X6955000Y-23105000D02*
G75*
G03*
X6755000Y-23105000I-100000J0D01*
G01*
X6755000Y-23105000D02*
G75*
G03*
X6955000Y-23105000I100000J0D01*
G01*
X7196729Y-22996484D02*
X7320539Y-22996484D01*
X7320539Y-22996484D02*
X7253872Y-23072674D01*
X7253872Y-23072674D02*
X7282443Y-23072674D01*
X7282443Y-23072674D02*
X7301491Y-23082198D01*
X7301491Y-23082198D02*
X7311015Y-23091722D01*
X7311015Y-23091722D02*
X7320539Y-23110769D01*
X7320539Y-23110769D02*
X7320539Y-23158388D01*
X7320539Y-23158388D02*
X7311015Y-23177436D01*
X7311015Y-23177436D02*
X7301491Y-23186960D01*
X7301491Y-23186960D02*
X7282443Y-23196484D01*
X7282443Y-23196484D02*
X7225301Y-23196484D01*
X7225301Y-23196484D02*
X7206253Y-23186960D01*
X7206253Y-23186960D02*
X7196729Y-23177436D01*
X7406253Y-23177436D02*
X7415777Y-23186960D01*
X7415777Y-23186960D02*
X7406253Y-23196484D01*
X7406253Y-23196484D02*
X7396729Y-23186960D01*
X7396729Y-23186960D02*
X7406253Y-23177436D01*
X7406253Y-23177436D02*
X7406253Y-23196484D01*
X7491967Y-23015531D02*
X7501491Y-23006008D01*
X7501491Y-23006008D02*
X7520539Y-22996484D01*
X7520539Y-22996484D02*
X7568158Y-22996484D01*
X7568158Y-22996484D02*
X7587205Y-23006008D01*
X7587205Y-23006008D02*
X7596729Y-23015531D01*
X7596729Y-23015531D02*
X7606253Y-23034579D01*
X7606253Y-23034579D02*
X7606253Y-23053627D01*
X7606253Y-23053627D02*
X7596729Y-23082198D01*
X7596729Y-23082198D02*
X7482443Y-23196484D01*
X7482443Y-23196484D02*
X7606253Y-23196484D01*
X7730062Y-22996484D02*
X7749110Y-22996484D01*
X7749110Y-22996484D02*
X7768158Y-23006008D01*
X7768158Y-23006008D02*
X7777682Y-23015531D01*
X7777682Y-23015531D02*
X7787205Y-23034579D01*
X7787205Y-23034579D02*
X7796729Y-23072674D01*
X7796729Y-23072674D02*
X7796729Y-23120293D01*
X7796729Y-23120293D02*
X7787205Y-23158388D01*
X7787205Y-23158388D02*
X7777682Y-23177436D01*
X7777682Y-23177436D02*
X7768158Y-23186960D01*
X7768158Y-23186960D02*
X7749110Y-23196484D01*
X7749110Y-23196484D02*
X7730062Y-23196484D01*
X7730062Y-23196484D02*
X7711015Y-23186960D01*
X7711015Y-23186960D02*
X7701491Y-23177436D01*
X7701491Y-23177436D02*
X7691967Y-23158388D01*
X7691967Y-23158388D02*
X7682443Y-23120293D01*
X7682443Y-23120293D02*
X7682443Y-23072674D01*
X7682443Y-23072674D02*
X7691967Y-23034579D01*
X7691967Y-23034579D02*
X7701491Y-23015531D01*
X7701491Y-23015531D02*
X7711015Y-23006008D01*
X7711015Y-23006008D02*
X7730062Y-22996484D01*
X7920539Y-22996484D02*
X7939586Y-22996484D01*
X7939586Y-22996484D02*
X7958634Y-23006008D01*
X7958634Y-23006008D02*
X7968158Y-23015531D01*
X7968158Y-23015531D02*
X7977682Y-23034579D01*
X7977682Y-23034579D02*
X7987205Y-23072674D01*
X7987205Y-23072674D02*
X7987205Y-23120293D01*
X7987205Y-23120293D02*
X7977682Y-23158388D01*
X7977682Y-23158388D02*
X7968158Y-23177436D01*
X7968158Y-23177436D02*
X7958634Y-23186960D01*
X7958634Y-23186960D02*
X7939586Y-23196484D01*
X7939586Y-23196484D02*
X7920539Y-23196484D01*
X7920539Y-23196484D02*
X7901491Y-23186960D01*
X7901491Y-23186960D02*
X7891967Y-23177436D01*
X7891967Y-23177436D02*
X7882443Y-23158388D01*
X7882443Y-23158388D02*
X7872920Y-23120293D01*
X7872920Y-23120293D02*
X7872920Y-23072674D01*
X7872920Y-23072674D02*
X7882443Y-23034579D01*
X7882443Y-23034579D02*
X7891967Y-23015531D01*
X7891967Y-23015531D02*
X7901491Y-23006008D01*
X7901491Y-23006008D02*
X7920539Y-22996484D01*
X8072920Y-23196484D02*
X8072920Y-23063150D01*
X8072920Y-23082198D02*
X8082443Y-23072674D01*
X8082443Y-23072674D02*
X8101491Y-23063150D01*
X8101491Y-23063150D02*
X8130063Y-23063150D01*
X8130063Y-23063150D02*
X8149110Y-23072674D01*
X8149110Y-23072674D02*
X8158634Y-23091722D01*
X8158634Y-23091722D02*
X8158634Y-23196484D01*
X8158634Y-23091722D02*
X8168158Y-23072674D01*
X8168158Y-23072674D02*
X8187205Y-23063150D01*
X8187205Y-23063150D02*
X8215777Y-23063150D01*
X8215777Y-23063150D02*
X8234824Y-23072674D01*
X8234824Y-23072674D02*
X8244348Y-23091722D01*
X8244348Y-23091722D02*
X8244348Y-23196484D01*
X8339586Y-23196484D02*
X8339586Y-23063150D01*
X8339586Y-23082198D02*
X8349110Y-23072674D01*
X8349110Y-23072674D02*
X8368158Y-23063150D01*
X8368158Y-23063150D02*
X8396729Y-23063150D01*
X8396729Y-23063150D02*
X8415777Y-23072674D01*
X8415777Y-23072674D02*
X8425301Y-23091722D01*
X8425301Y-23091722D02*
X8425301Y-23196484D01*
X8425301Y-23091722D02*
X8434825Y-23072674D01*
X8434825Y-23072674D02*
X8453872Y-23063150D01*
X8453872Y-23063150D02*
X8482444Y-23063150D01*
X8482444Y-23063150D02*
X8501491Y-23072674D01*
X8501491Y-23072674D02*
X8511015Y-23091722D01*
X8511015Y-23091722D02*
X8511015Y-23196484D01*
X8901491Y-22986960D02*
X8730063Y-23244103D01*
X9158634Y-22996484D02*
X9177682Y-22996484D01*
X9177682Y-22996484D02*
X9196729Y-23006008D01*
X9196729Y-23006008D02*
X9206253Y-23015531D01*
X9206253Y-23015531D02*
X9215777Y-23034579D01*
X9215777Y-23034579D02*
X9225301Y-23072674D01*
X9225301Y-23072674D02*
X9225301Y-23120293D01*
X9225301Y-23120293D02*
X9215777Y-23158388D01*
X9215777Y-23158388D02*
X9206253Y-23177436D01*
X9206253Y-23177436D02*
X9196729Y-23186960D01*
X9196729Y-23186960D02*
X9177682Y-23196484D01*
X9177682Y-23196484D02*
X9158634Y-23196484D01*
X9158634Y-23196484D02*
X9139587Y-23186960D01*
X9139587Y-23186960D02*
X9130063Y-23177436D01*
X9130063Y-23177436D02*
X9120539Y-23158388D01*
X9120539Y-23158388D02*
X9111015Y-23120293D01*
X9111015Y-23120293D02*
X9111015Y-23072674D01*
X9111015Y-23072674D02*
X9120539Y-23034579D01*
X9120539Y-23034579D02*
X9130063Y-23015531D01*
X9130063Y-23015531D02*
X9139587Y-23006008D01*
X9139587Y-23006008D02*
X9158634Y-22996484D01*
X9311015Y-23177436D02*
X9320539Y-23186960D01*
X9320539Y-23186960D02*
X9311015Y-23196484D01*
X9311015Y-23196484D02*
X9301491Y-23186960D01*
X9301491Y-23186960D02*
X9311015Y-23177436D01*
X9311015Y-23177436D02*
X9311015Y-23196484D01*
X9511015Y-23196484D02*
X9396729Y-23196484D01*
X9453872Y-23196484D02*
X9453872Y-22996484D01*
X9453872Y-22996484D02*
X9434825Y-23025055D01*
X9434825Y-23025055D02*
X9415777Y-23044103D01*
X9415777Y-23044103D02*
X9396729Y-23053627D01*
X9587206Y-23015531D02*
X9596729Y-23006008D01*
X9596729Y-23006008D02*
X9615777Y-22996484D01*
X9615777Y-22996484D02*
X9663396Y-22996484D01*
X9663396Y-22996484D02*
X9682444Y-23006008D01*
X9682444Y-23006008D02*
X9691968Y-23015531D01*
X9691968Y-23015531D02*
X9701491Y-23034579D01*
X9701491Y-23034579D02*
X9701491Y-23053627D01*
X9701491Y-23053627D02*
X9691968Y-23082198D01*
X9691968Y-23082198D02*
X9577682Y-23196484D01*
X9577682Y-23196484D02*
X9701491Y-23196484D01*
X9872920Y-22996484D02*
X9834825Y-22996484D01*
X9834825Y-22996484D02*
X9815777Y-23006008D01*
X9815777Y-23006008D02*
X9806253Y-23015531D01*
X9806253Y-23015531D02*
X9787206Y-23044103D01*
X9787206Y-23044103D02*
X9777682Y-23082198D01*
X9777682Y-23082198D02*
X9777682Y-23158388D01*
X9777682Y-23158388D02*
X9787206Y-23177436D01*
X9787206Y-23177436D02*
X9796729Y-23186960D01*
X9796729Y-23186960D02*
X9815777Y-23196484D01*
X9815777Y-23196484D02*
X9853872Y-23196484D01*
X9853872Y-23196484D02*
X9872920Y-23186960D01*
X9872920Y-23186960D02*
X9882444Y-23177436D01*
X9882444Y-23177436D02*
X9891968Y-23158388D01*
X9891968Y-23158388D02*
X9891968Y-23110769D01*
X9891968Y-23110769D02*
X9882444Y-23091722D01*
X9882444Y-23091722D02*
X9872920Y-23082198D01*
X9872920Y-23082198D02*
X9853872Y-23072674D01*
X9853872Y-23072674D02*
X9815777Y-23072674D01*
X9815777Y-23072674D02*
X9796729Y-23082198D01*
X9796729Y-23082198D02*
X9787206Y-23091722D01*
X9787206Y-23091722D02*
X9777682Y-23110769D01*
X10015777Y-22996484D02*
X10034825Y-22996484D01*
X10034825Y-22996484D02*
X10053872Y-23006008D01*
X10053872Y-23006008D02*
X10063396Y-23015531D01*
X10063396Y-23015531D02*
X10072920Y-23034579D01*
X10072920Y-23034579D02*
X10082444Y-23072674D01*
X10082444Y-23072674D02*
X10082444Y-23120293D01*
X10082444Y-23120293D02*
X10072920Y-23158388D01*
X10072920Y-23158388D02*
X10063396Y-23177436D01*
X10063396Y-23177436D02*
X10053872Y-23186960D01*
X10053872Y-23186960D02*
X10034825Y-23196484D01*
X10034825Y-23196484D02*
X10015777Y-23196484D01*
X10015777Y-23196484D02*
X9996729Y-23186960D01*
X9996729Y-23186960D02*
X9987206Y-23177436D01*
X9987206Y-23177436D02*
X9977682Y-23158388D01*
X9977682Y-23158388D02*
X9968158Y-23120293D01*
X9968158Y-23120293D02*
X9968158Y-23072674D01*
X9968158Y-23072674D02*
X9977682Y-23034579D01*
X9977682Y-23034579D02*
X9987206Y-23015531D01*
X9987206Y-23015531D02*
X9996729Y-23006008D01*
X9996729Y-23006008D02*
X10015777Y-22996484D01*
X10158634Y-22996484D02*
X10158634Y-23034579D01*
X10234825Y-22996484D02*
X10234825Y-23034579D01*
X10530063Y-23272674D02*
X10520539Y-23263150D01*
X10520539Y-23263150D02*
X10501491Y-23234579D01*
X10501491Y-23234579D02*
X10491968Y-23215531D01*
X10491968Y-23215531D02*
X10482444Y-23186960D01*
X10482444Y-23186960D02*
X10472920Y-23139341D01*
X10472920Y-23139341D02*
X10472920Y-23101246D01*
X10472920Y-23101246D02*
X10482444Y-23053627D01*
X10482444Y-23053627D02*
X10491968Y-23025055D01*
X10491968Y-23025055D02*
X10501491Y-23006008D01*
X10501491Y-23006008D02*
X10520539Y-22977436D01*
X10520539Y-22977436D02*
X10530063Y-22967912D01*
X10701491Y-22996484D02*
X10606253Y-22996484D01*
X10606253Y-22996484D02*
X10596730Y-23091722D01*
X10596730Y-23091722D02*
X10606253Y-23082198D01*
X10606253Y-23082198D02*
X10625301Y-23072674D01*
X10625301Y-23072674D02*
X10672920Y-23072674D01*
X10672920Y-23072674D02*
X10691968Y-23082198D01*
X10691968Y-23082198D02*
X10701491Y-23091722D01*
X10701491Y-23091722D02*
X10711015Y-23110769D01*
X10711015Y-23110769D02*
X10711015Y-23158388D01*
X10711015Y-23158388D02*
X10701491Y-23177436D01*
X10701491Y-23177436D02*
X10691968Y-23186960D01*
X10691968Y-23186960D02*
X10672920Y-23196484D01*
X10672920Y-23196484D02*
X10625301Y-23196484D01*
X10625301Y-23196484D02*
X10606253Y-23186960D01*
X10606253Y-23186960D02*
X10596730Y-23177436D01*
X10949111Y-23196484D02*
X10949111Y-22996484D01*
X11034825Y-23196484D02*
X11034825Y-23091722D01*
X11034825Y-23091722D02*
X11025301Y-23072674D01*
X11025301Y-23072674D02*
X11006253Y-23063150D01*
X11006253Y-23063150D02*
X10977682Y-23063150D01*
X10977682Y-23063150D02*
X10958634Y-23072674D01*
X10958634Y-23072674D02*
X10949111Y-23082198D01*
X11158634Y-23196484D02*
X11139587Y-23186960D01*
X11139587Y-23186960D02*
X11130063Y-23177436D01*
X11130063Y-23177436D02*
X11120539Y-23158388D01*
X11120539Y-23158388D02*
X11120539Y-23101246D01*
X11120539Y-23101246D02*
X11130063Y-23082198D01*
X11130063Y-23082198D02*
X11139587Y-23072674D01*
X11139587Y-23072674D02*
X11158634Y-23063150D01*
X11158634Y-23063150D02*
X11187206Y-23063150D01*
X11187206Y-23063150D02*
X11206253Y-23072674D01*
X11206253Y-23072674D02*
X11215777Y-23082198D01*
X11215777Y-23082198D02*
X11225301Y-23101246D01*
X11225301Y-23101246D02*
X11225301Y-23158388D01*
X11225301Y-23158388D02*
X11215777Y-23177436D01*
X11215777Y-23177436D02*
X11206253Y-23186960D01*
X11206253Y-23186960D02*
X11187206Y-23196484D01*
X11187206Y-23196484D02*
X11158634Y-23196484D01*
X11339587Y-23196484D02*
X11320539Y-23186960D01*
X11320539Y-23186960D02*
X11311015Y-23167912D01*
X11311015Y-23167912D02*
X11311015Y-22996484D01*
X11491968Y-23186960D02*
X11472920Y-23196484D01*
X11472920Y-23196484D02*
X11434825Y-23196484D01*
X11434825Y-23196484D02*
X11415777Y-23186960D01*
X11415777Y-23186960D02*
X11406253Y-23167912D01*
X11406253Y-23167912D02*
X11406253Y-23091722D01*
X11406253Y-23091722D02*
X11415777Y-23072674D01*
X11415777Y-23072674D02*
X11434825Y-23063150D01*
X11434825Y-23063150D02*
X11472920Y-23063150D01*
X11472920Y-23063150D02*
X11491968Y-23072674D01*
X11491968Y-23072674D02*
X11501491Y-23091722D01*
X11501491Y-23091722D02*
X11501491Y-23110769D01*
X11501491Y-23110769D02*
X11406253Y-23129817D01*
X11577682Y-23186960D02*
X11596730Y-23196484D01*
X11596730Y-23196484D02*
X11634825Y-23196484D01*
X11634825Y-23196484D02*
X11653872Y-23186960D01*
X11653872Y-23186960D02*
X11663396Y-23167912D01*
X11663396Y-23167912D02*
X11663396Y-23158388D01*
X11663396Y-23158388D02*
X11653872Y-23139341D01*
X11653872Y-23139341D02*
X11634825Y-23129817D01*
X11634825Y-23129817D02*
X11606253Y-23129817D01*
X11606253Y-23129817D02*
X11587206Y-23120293D01*
X11587206Y-23120293D02*
X11577682Y-23101246D01*
X11577682Y-23101246D02*
X11577682Y-23091722D01*
X11577682Y-23091722D02*
X11587206Y-23072674D01*
X11587206Y-23072674D02*
X11606253Y-23063150D01*
X11606253Y-23063150D02*
X11634825Y-23063150D01*
X11634825Y-23063150D02*
X11653872Y-23072674D01*
X11730063Y-23272674D02*
X11739587Y-23263150D01*
X11739587Y-23263150D02*
X11758634Y-23234579D01*
X11758634Y-23234579D02*
X11768158Y-23215531D01*
X11768158Y-23215531D02*
X11777682Y-23186960D01*
X11777682Y-23186960D02*
X11787206Y-23139341D01*
X11787206Y-23139341D02*
X11787206Y-23101246D01*
X11787206Y-23101246D02*
X11777682Y-23053627D01*
X11777682Y-23053627D02*
X11768158Y-23025055D01*
X11768158Y-23025055D02*
X11758634Y-23006008D01*
X11758634Y-23006008D02*
X11739587Y-22977436D01*
X11739587Y-22977436D02*
X11730063Y-22967912D01*
X12091968Y-23272674D02*
X12082444Y-23263150D01*
X12082444Y-23263150D02*
X12063396Y-23234579D01*
X12063396Y-23234579D02*
X12053872Y-23215531D01*
X12053872Y-23215531D02*
X12044349Y-23186960D01*
X12044349Y-23186960D02*
X12034825Y-23139341D01*
X12034825Y-23139341D02*
X12034825Y-23101246D01*
X12034825Y-23101246D02*
X12044349Y-23053627D01*
X12044349Y-23053627D02*
X12053872Y-23025055D01*
X12053872Y-23025055D02*
X12063396Y-23006008D01*
X12063396Y-23006008D02*
X12082444Y-22977436D01*
X12082444Y-22977436D02*
X12091968Y-22967912D01*
X12168158Y-23063150D02*
X12168158Y-23196484D01*
X12168158Y-23082198D02*
X12177682Y-23072674D01*
X12177682Y-23072674D02*
X12196730Y-23063150D01*
X12196730Y-23063150D02*
X12225301Y-23063150D01*
X12225301Y-23063150D02*
X12244349Y-23072674D01*
X12244349Y-23072674D02*
X12253872Y-23091722D01*
X12253872Y-23091722D02*
X12253872Y-23196484D01*
X12377682Y-23196484D02*
X12358634Y-23186960D01*
X12358634Y-23186960D02*
X12349111Y-23177436D01*
X12349111Y-23177436D02*
X12339587Y-23158388D01*
X12339587Y-23158388D02*
X12339587Y-23101246D01*
X12339587Y-23101246D02*
X12349111Y-23082198D01*
X12349111Y-23082198D02*
X12358634Y-23072674D01*
X12358634Y-23072674D02*
X12377682Y-23063150D01*
X12377682Y-23063150D02*
X12406253Y-23063150D01*
X12406253Y-23063150D02*
X12425301Y-23072674D01*
X12425301Y-23072674D02*
X12434825Y-23082198D01*
X12434825Y-23082198D02*
X12444349Y-23101246D01*
X12444349Y-23101246D02*
X12444349Y-23158388D01*
X12444349Y-23158388D02*
X12434825Y-23177436D01*
X12434825Y-23177436D02*
X12425301Y-23186960D01*
X12425301Y-23186960D02*
X12406253Y-23196484D01*
X12406253Y-23196484D02*
X12377682Y-23196484D01*
X12501492Y-23063150D02*
X12577682Y-23063150D01*
X12530063Y-22996484D02*
X12530063Y-23167912D01*
X12530063Y-23167912D02*
X12539587Y-23186960D01*
X12539587Y-23186960D02*
X12558634Y-23196484D01*
X12558634Y-23196484D02*
X12577682Y-23196484D01*
X12796730Y-23063150D02*
X12796730Y-23263150D01*
X12796730Y-23072674D02*
X12815777Y-23063150D01*
X12815777Y-23063150D02*
X12853873Y-23063150D01*
X12853873Y-23063150D02*
X12872920Y-23072674D01*
X12872920Y-23072674D02*
X12882444Y-23082198D01*
X12882444Y-23082198D02*
X12891968Y-23101246D01*
X12891968Y-23101246D02*
X12891968Y-23158388D01*
X12891968Y-23158388D02*
X12882444Y-23177436D01*
X12882444Y-23177436D02*
X12872920Y-23186960D01*
X12872920Y-23186960D02*
X12853873Y-23196484D01*
X12853873Y-23196484D02*
X12815777Y-23196484D01*
X12815777Y-23196484D02*
X12796730Y-23186960D01*
X13006253Y-23196484D02*
X12987206Y-23186960D01*
X12987206Y-23186960D02*
X12977682Y-23167912D01*
X12977682Y-23167912D02*
X12977682Y-22996484D01*
X13168158Y-23196484D02*
X13168158Y-23091722D01*
X13168158Y-23091722D02*
X13158634Y-23072674D01*
X13158634Y-23072674D02*
X13139587Y-23063150D01*
X13139587Y-23063150D02*
X13101492Y-23063150D01*
X13101492Y-23063150D02*
X13082444Y-23072674D01*
X13168158Y-23186960D02*
X13149111Y-23196484D01*
X13149111Y-23196484D02*
X13101492Y-23196484D01*
X13101492Y-23196484D02*
X13082444Y-23186960D01*
X13082444Y-23186960D02*
X13072920Y-23167912D01*
X13072920Y-23167912D02*
X13072920Y-23148865D01*
X13072920Y-23148865D02*
X13082444Y-23129817D01*
X13082444Y-23129817D02*
X13101492Y-23120293D01*
X13101492Y-23120293D02*
X13149111Y-23120293D01*
X13149111Y-23120293D02*
X13168158Y-23110769D01*
X13234825Y-23063150D02*
X13311015Y-23063150D01*
X13263396Y-22996484D02*
X13263396Y-23167912D01*
X13263396Y-23167912D02*
X13272920Y-23186960D01*
X13272920Y-23186960D02*
X13291968Y-23196484D01*
X13291968Y-23196484D02*
X13311015Y-23196484D01*
X13453873Y-23186960D02*
X13434825Y-23196484D01*
X13434825Y-23196484D02*
X13396730Y-23196484D01*
X13396730Y-23196484D02*
X13377682Y-23186960D01*
X13377682Y-23186960D02*
X13368158Y-23167912D01*
X13368158Y-23167912D02*
X13368158Y-23091722D01*
X13368158Y-23091722D02*
X13377682Y-23072674D01*
X13377682Y-23072674D02*
X13396730Y-23063150D01*
X13396730Y-23063150D02*
X13434825Y-23063150D01*
X13434825Y-23063150D02*
X13453873Y-23072674D01*
X13453873Y-23072674D02*
X13463396Y-23091722D01*
X13463396Y-23091722D02*
X13463396Y-23110769D01*
X13463396Y-23110769D02*
X13368158Y-23129817D01*
X13634825Y-23196484D02*
X13634825Y-22996484D01*
X13634825Y-23186960D02*
X13615777Y-23196484D01*
X13615777Y-23196484D02*
X13577682Y-23196484D01*
X13577682Y-23196484D02*
X13558634Y-23186960D01*
X13558634Y-23186960D02*
X13549111Y-23177436D01*
X13549111Y-23177436D02*
X13539587Y-23158388D01*
X13539587Y-23158388D02*
X13539587Y-23101246D01*
X13539587Y-23101246D02*
X13549111Y-23082198D01*
X13549111Y-23082198D02*
X13558634Y-23072674D01*
X13558634Y-23072674D02*
X13577682Y-23063150D01*
X13577682Y-23063150D02*
X13615777Y-23063150D01*
X13615777Y-23063150D02*
X13634825Y-23072674D01*
X13711015Y-23272674D02*
X13720539Y-23263150D01*
X13720539Y-23263150D02*
X13739587Y-23234579D01*
X13739587Y-23234579D02*
X13749111Y-23215531D01*
X13749111Y-23215531D02*
X13758634Y-23186960D01*
X13758634Y-23186960D02*
X13768158Y-23139341D01*
X13768158Y-23139341D02*
X13768158Y-23101246D01*
X13768158Y-23101246D02*
X13758634Y-23053627D01*
X13758634Y-23053627D02*
X13749111Y-23025055D01*
X13749111Y-23025055D02*
X13739587Y-23006008D01*
X13739587Y-23006008D02*
X13720539Y-22977436D01*
X13720539Y-22977436D02*
X13711015Y-22967912D01*
X6855000Y-23325000D02*
X6855000Y-23525000D01*
X6755000Y-23425000D02*
X6955000Y-23425000D01*
X7196729Y-23316484D02*
X7320539Y-23316484D01*
X7320539Y-23316484D02*
X7253872Y-23392674D01*
X7253872Y-23392674D02*
X7282443Y-23392674D01*
X7282443Y-23392674D02*
X7301491Y-23402198D01*
X7301491Y-23402198D02*
X7311015Y-23411722D01*
X7311015Y-23411722D02*
X7320539Y-23430769D01*
X7320539Y-23430769D02*
X7320539Y-23478388D01*
X7320539Y-23478388D02*
X7311015Y-23497436D01*
X7311015Y-23497436D02*
X7301491Y-23506960D01*
X7301491Y-23506960D02*
X7282443Y-23516484D01*
X7282443Y-23516484D02*
X7225301Y-23516484D01*
X7225301Y-23516484D02*
X7206253Y-23506960D01*
X7206253Y-23506960D02*
X7196729Y-23497436D01*
X7406253Y-23497436D02*
X7415777Y-23506960D01*
X7415777Y-23506960D02*
X7406253Y-23516484D01*
X7406253Y-23516484D02*
X7396729Y-23506960D01*
X7396729Y-23506960D02*
X7406253Y-23497436D01*
X7406253Y-23497436D02*
X7406253Y-23516484D01*
X7596729Y-23316484D02*
X7501491Y-23316484D01*
X7501491Y-23316484D02*
X7491967Y-23411722D01*
X7491967Y-23411722D02*
X7501491Y-23402198D01*
X7501491Y-23402198D02*
X7520539Y-23392674D01*
X7520539Y-23392674D02*
X7568158Y-23392674D01*
X7568158Y-23392674D02*
X7587205Y-23402198D01*
X7587205Y-23402198D02*
X7596729Y-23411722D01*
X7596729Y-23411722D02*
X7606253Y-23430769D01*
X7606253Y-23430769D02*
X7606253Y-23478388D01*
X7606253Y-23478388D02*
X7596729Y-23497436D01*
X7596729Y-23497436D02*
X7587205Y-23506960D01*
X7587205Y-23506960D02*
X7568158Y-23516484D01*
X7568158Y-23516484D02*
X7520539Y-23516484D01*
X7520539Y-23516484D02*
X7501491Y-23506960D01*
X7501491Y-23506960D02*
X7491967Y-23497436D01*
X7730062Y-23316484D02*
X7749110Y-23316484D01*
X7749110Y-23316484D02*
X7768158Y-23326008D01*
X7768158Y-23326008D02*
X7777682Y-23335531D01*
X7777682Y-23335531D02*
X7787205Y-23354579D01*
X7787205Y-23354579D02*
X7796729Y-23392674D01*
X7796729Y-23392674D02*
X7796729Y-23440293D01*
X7796729Y-23440293D02*
X7787205Y-23478388D01*
X7787205Y-23478388D02*
X7777682Y-23497436D01*
X7777682Y-23497436D02*
X7768158Y-23506960D01*
X7768158Y-23506960D02*
X7749110Y-23516484D01*
X7749110Y-23516484D02*
X7730062Y-23516484D01*
X7730062Y-23516484D02*
X7711015Y-23506960D01*
X7711015Y-23506960D02*
X7701491Y-23497436D01*
X7701491Y-23497436D02*
X7691967Y-23478388D01*
X7691967Y-23478388D02*
X7682443Y-23440293D01*
X7682443Y-23440293D02*
X7682443Y-23392674D01*
X7682443Y-23392674D02*
X7691967Y-23354579D01*
X7691967Y-23354579D02*
X7701491Y-23335531D01*
X7701491Y-23335531D02*
X7711015Y-23326008D01*
X7711015Y-23326008D02*
X7730062Y-23316484D01*
X7920539Y-23316484D02*
X7939586Y-23316484D01*
X7939586Y-23316484D02*
X7958634Y-23326008D01*
X7958634Y-23326008D02*
X7968158Y-23335531D01*
X7968158Y-23335531D02*
X7977682Y-23354579D01*
X7977682Y-23354579D02*
X7987205Y-23392674D01*
X7987205Y-23392674D02*
X7987205Y-23440293D01*
X7987205Y-23440293D02*
X7977682Y-23478388D01*
X7977682Y-23478388D02*
X7968158Y-23497436D01*
X7968158Y-23497436D02*
X7958634Y-23506960D01*
X7958634Y-23506960D02*
X7939586Y-23516484D01*
X7939586Y-23516484D02*
X7920539Y-23516484D01*
X7920539Y-23516484D02*
X7901491Y-23506960D01*
X7901491Y-23506960D02*
X7891967Y-23497436D01*
X7891967Y-23497436D02*
X7882443Y-23478388D01*
X7882443Y-23478388D02*
X7872920Y-23440293D01*
X7872920Y-23440293D02*
X7872920Y-23392674D01*
X7872920Y-23392674D02*
X7882443Y-23354579D01*
X7882443Y-23354579D02*
X7891967Y-23335531D01*
X7891967Y-23335531D02*
X7901491Y-23326008D01*
X7901491Y-23326008D02*
X7920539Y-23316484D01*
X8072920Y-23516484D02*
X8072920Y-23383150D01*
X8072920Y-23402198D02*
X8082443Y-23392674D01*
X8082443Y-23392674D02*
X8101491Y-23383150D01*
X8101491Y-23383150D02*
X8130063Y-23383150D01*
X8130063Y-23383150D02*
X8149110Y-23392674D01*
X8149110Y-23392674D02*
X8158634Y-23411722D01*
X8158634Y-23411722D02*
X8158634Y-23516484D01*
X8158634Y-23411722D02*
X8168158Y-23392674D01*
X8168158Y-23392674D02*
X8187205Y-23383150D01*
X8187205Y-23383150D02*
X8215777Y-23383150D01*
X8215777Y-23383150D02*
X8234824Y-23392674D01*
X8234824Y-23392674D02*
X8244348Y-23411722D01*
X8244348Y-23411722D02*
X8244348Y-23516484D01*
X8339586Y-23516484D02*
X8339586Y-23383150D01*
X8339586Y-23402198D02*
X8349110Y-23392674D01*
X8349110Y-23392674D02*
X8368158Y-23383150D01*
X8368158Y-23383150D02*
X8396729Y-23383150D01*
X8396729Y-23383150D02*
X8415777Y-23392674D01*
X8415777Y-23392674D02*
X8425301Y-23411722D01*
X8425301Y-23411722D02*
X8425301Y-23516484D01*
X8425301Y-23411722D02*
X8434825Y-23392674D01*
X8434825Y-23392674D02*
X8453872Y-23383150D01*
X8453872Y-23383150D02*
X8482444Y-23383150D01*
X8482444Y-23383150D02*
X8501491Y-23392674D01*
X8501491Y-23392674D02*
X8511015Y-23411722D01*
X8511015Y-23411722D02*
X8511015Y-23516484D01*
X8901491Y-23306960D02*
X8730063Y-23564103D01*
X9158634Y-23316484D02*
X9177682Y-23316484D01*
X9177682Y-23316484D02*
X9196729Y-23326008D01*
X9196729Y-23326008D02*
X9206253Y-23335531D01*
X9206253Y-23335531D02*
X9215777Y-23354579D01*
X9215777Y-23354579D02*
X9225301Y-23392674D01*
X9225301Y-23392674D02*
X9225301Y-23440293D01*
X9225301Y-23440293D02*
X9215777Y-23478388D01*
X9215777Y-23478388D02*
X9206253Y-23497436D01*
X9206253Y-23497436D02*
X9196729Y-23506960D01*
X9196729Y-23506960D02*
X9177682Y-23516484D01*
X9177682Y-23516484D02*
X9158634Y-23516484D01*
X9158634Y-23516484D02*
X9139587Y-23506960D01*
X9139587Y-23506960D02*
X9130063Y-23497436D01*
X9130063Y-23497436D02*
X9120539Y-23478388D01*
X9120539Y-23478388D02*
X9111015Y-23440293D01*
X9111015Y-23440293D02*
X9111015Y-23392674D01*
X9111015Y-23392674D02*
X9120539Y-23354579D01*
X9120539Y-23354579D02*
X9130063Y-23335531D01*
X9130063Y-23335531D02*
X9139587Y-23326008D01*
X9139587Y-23326008D02*
X9158634Y-23316484D01*
X9311015Y-23497436D02*
X9320539Y-23506960D01*
X9320539Y-23506960D02*
X9311015Y-23516484D01*
X9311015Y-23516484D02*
X9301491Y-23506960D01*
X9301491Y-23506960D02*
X9311015Y-23497436D01*
X9311015Y-23497436D02*
X9311015Y-23516484D01*
X9511015Y-23516484D02*
X9396729Y-23516484D01*
X9453872Y-23516484D02*
X9453872Y-23316484D01*
X9453872Y-23316484D02*
X9434825Y-23345055D01*
X9434825Y-23345055D02*
X9415777Y-23364103D01*
X9415777Y-23364103D02*
X9396729Y-23373627D01*
X9577682Y-23316484D02*
X9701491Y-23316484D01*
X9701491Y-23316484D02*
X9634825Y-23392674D01*
X9634825Y-23392674D02*
X9663396Y-23392674D01*
X9663396Y-23392674D02*
X9682444Y-23402198D01*
X9682444Y-23402198D02*
X9691968Y-23411722D01*
X9691968Y-23411722D02*
X9701491Y-23430769D01*
X9701491Y-23430769D02*
X9701491Y-23478388D01*
X9701491Y-23478388D02*
X9691968Y-23497436D01*
X9691968Y-23497436D02*
X9682444Y-23506960D01*
X9682444Y-23506960D02*
X9663396Y-23516484D01*
X9663396Y-23516484D02*
X9606253Y-23516484D01*
X9606253Y-23516484D02*
X9587206Y-23506960D01*
X9587206Y-23506960D02*
X9577682Y-23497436D01*
X9768158Y-23316484D02*
X9901491Y-23316484D01*
X9901491Y-23316484D02*
X9815777Y-23516484D01*
X10006253Y-23402198D02*
X9987206Y-23392674D01*
X9987206Y-23392674D02*
X9977682Y-23383150D01*
X9977682Y-23383150D02*
X9968158Y-23364103D01*
X9968158Y-23364103D02*
X9968158Y-23354579D01*
X9968158Y-23354579D02*
X9977682Y-23335531D01*
X9977682Y-23335531D02*
X9987206Y-23326008D01*
X9987206Y-23326008D02*
X10006253Y-23316484D01*
X10006253Y-23316484D02*
X10044349Y-23316484D01*
X10044349Y-23316484D02*
X10063396Y-23326008D01*
X10063396Y-23326008D02*
X10072920Y-23335531D01*
X10072920Y-23335531D02*
X10082444Y-23354579D01*
X10082444Y-23354579D02*
X10082444Y-23364103D01*
X10082444Y-23364103D02*
X10072920Y-23383150D01*
X10072920Y-23383150D02*
X10063396Y-23392674D01*
X10063396Y-23392674D02*
X10044349Y-23402198D01*
X10044349Y-23402198D02*
X10006253Y-23402198D01*
X10006253Y-23402198D02*
X9987206Y-23411722D01*
X9987206Y-23411722D02*
X9977682Y-23421246D01*
X9977682Y-23421246D02*
X9968158Y-23440293D01*
X9968158Y-23440293D02*
X9968158Y-23478388D01*
X9968158Y-23478388D02*
X9977682Y-23497436D01*
X9977682Y-23497436D02*
X9987206Y-23506960D01*
X9987206Y-23506960D02*
X10006253Y-23516484D01*
X10006253Y-23516484D02*
X10044349Y-23516484D01*
X10044349Y-23516484D02*
X10063396Y-23506960D01*
X10063396Y-23506960D02*
X10072920Y-23497436D01*
X10072920Y-23497436D02*
X10082444Y-23478388D01*
X10082444Y-23478388D02*
X10082444Y-23440293D01*
X10082444Y-23440293D02*
X10072920Y-23421246D01*
X10072920Y-23421246D02*
X10063396Y-23411722D01*
X10063396Y-23411722D02*
X10044349Y-23402198D01*
X10158634Y-23316484D02*
X10158634Y-23354579D01*
X10234825Y-23316484D02*
X10234825Y-23354579D01*
X10530063Y-23592674D02*
X10520539Y-23583150D01*
X10520539Y-23583150D02*
X10501491Y-23554579D01*
X10501491Y-23554579D02*
X10491968Y-23535531D01*
X10491968Y-23535531D02*
X10482444Y-23506960D01*
X10482444Y-23506960D02*
X10472920Y-23459341D01*
X10472920Y-23459341D02*
X10472920Y-23421246D01*
X10472920Y-23421246D02*
X10482444Y-23373627D01*
X10482444Y-23373627D02*
X10491968Y-23345055D01*
X10491968Y-23345055D02*
X10501491Y-23326008D01*
X10501491Y-23326008D02*
X10520539Y-23297436D01*
X10520539Y-23297436D02*
X10530063Y-23287912D01*
X10691968Y-23383150D02*
X10691968Y-23516484D01*
X10644349Y-23306960D02*
X10596730Y-23449817D01*
X10596730Y-23449817D02*
X10720539Y-23449817D01*
X10949111Y-23516484D02*
X10949111Y-23316484D01*
X11034825Y-23516484D02*
X11034825Y-23411722D01*
X11034825Y-23411722D02*
X11025301Y-23392674D01*
X11025301Y-23392674D02*
X11006253Y-23383150D01*
X11006253Y-23383150D02*
X10977682Y-23383150D01*
X10977682Y-23383150D02*
X10958634Y-23392674D01*
X10958634Y-23392674D02*
X10949111Y-23402198D01*
X11158634Y-23516484D02*
X11139587Y-23506960D01*
X11139587Y-23506960D02*
X11130063Y-23497436D01*
X11130063Y-23497436D02*
X11120539Y-23478388D01*
X11120539Y-23478388D02*
X11120539Y-23421246D01*
X11120539Y-23421246D02*
X11130063Y-23402198D01*
X11130063Y-23402198D02*
X11139587Y-23392674D01*
X11139587Y-23392674D02*
X11158634Y-23383150D01*
X11158634Y-23383150D02*
X11187206Y-23383150D01*
X11187206Y-23383150D02*
X11206253Y-23392674D01*
X11206253Y-23392674D02*
X11215777Y-23402198D01*
X11215777Y-23402198D02*
X11225301Y-23421246D01*
X11225301Y-23421246D02*
X11225301Y-23478388D01*
X11225301Y-23478388D02*
X11215777Y-23497436D01*
X11215777Y-23497436D02*
X11206253Y-23506960D01*
X11206253Y-23506960D02*
X11187206Y-23516484D01*
X11187206Y-23516484D02*
X11158634Y-23516484D01*
X11339587Y-23516484D02*
X11320539Y-23506960D01*
X11320539Y-23506960D02*
X11311015Y-23487912D01*
X11311015Y-23487912D02*
X11311015Y-23316484D01*
X11491968Y-23506960D02*
X11472920Y-23516484D01*
X11472920Y-23516484D02*
X11434825Y-23516484D01*
X11434825Y-23516484D02*
X11415777Y-23506960D01*
X11415777Y-23506960D02*
X11406253Y-23487912D01*
X11406253Y-23487912D02*
X11406253Y-23411722D01*
X11406253Y-23411722D02*
X11415777Y-23392674D01*
X11415777Y-23392674D02*
X11434825Y-23383150D01*
X11434825Y-23383150D02*
X11472920Y-23383150D01*
X11472920Y-23383150D02*
X11491968Y-23392674D01*
X11491968Y-23392674D02*
X11501491Y-23411722D01*
X11501491Y-23411722D02*
X11501491Y-23430769D01*
X11501491Y-23430769D02*
X11406253Y-23449817D01*
X11577682Y-23506960D02*
X11596730Y-23516484D01*
X11596730Y-23516484D02*
X11634825Y-23516484D01*
X11634825Y-23516484D02*
X11653872Y-23506960D01*
X11653872Y-23506960D02*
X11663396Y-23487912D01*
X11663396Y-23487912D02*
X11663396Y-23478388D01*
X11663396Y-23478388D02*
X11653872Y-23459341D01*
X11653872Y-23459341D02*
X11634825Y-23449817D01*
X11634825Y-23449817D02*
X11606253Y-23449817D01*
X11606253Y-23449817D02*
X11587206Y-23440293D01*
X11587206Y-23440293D02*
X11577682Y-23421246D01*
X11577682Y-23421246D02*
X11577682Y-23411722D01*
X11577682Y-23411722D02*
X11587206Y-23392674D01*
X11587206Y-23392674D02*
X11606253Y-23383150D01*
X11606253Y-23383150D02*
X11634825Y-23383150D01*
X11634825Y-23383150D02*
X11653872Y-23392674D01*
X11730063Y-23592674D02*
X11739587Y-23583150D01*
X11739587Y-23583150D02*
X11758634Y-23554579D01*
X11758634Y-23554579D02*
X11768158Y-23535531D01*
X11768158Y-23535531D02*
X11777682Y-23506960D01*
X11777682Y-23506960D02*
X11787206Y-23459341D01*
X11787206Y-23459341D02*
X11787206Y-23421246D01*
X11787206Y-23421246D02*
X11777682Y-23373627D01*
X11777682Y-23373627D02*
X11768158Y-23345055D01*
X11768158Y-23345055D02*
X11758634Y-23326008D01*
X11758634Y-23326008D02*
X11739587Y-23297436D01*
X11739587Y-23297436D02*
X11730063Y-23287912D01*
X12091968Y-23592674D02*
X12082444Y-23583150D01*
X12082444Y-23583150D02*
X12063396Y-23554579D01*
X12063396Y-23554579D02*
X12053872Y-23535531D01*
X12053872Y-23535531D02*
X12044349Y-23506960D01*
X12044349Y-23506960D02*
X12034825Y-23459341D01*
X12034825Y-23459341D02*
X12034825Y-23421246D01*
X12034825Y-23421246D02*
X12044349Y-23373627D01*
X12044349Y-23373627D02*
X12053872Y-23345055D01*
X12053872Y-23345055D02*
X12063396Y-23326008D01*
X12063396Y-23326008D02*
X12082444Y-23297436D01*
X12082444Y-23297436D02*
X12091968Y-23287912D01*
X12168158Y-23383150D02*
X12168158Y-23516484D01*
X12168158Y-23402198D02*
X12177682Y-23392674D01*
X12177682Y-23392674D02*
X12196730Y-23383150D01*
X12196730Y-23383150D02*
X12225301Y-23383150D01*
X12225301Y-23383150D02*
X12244349Y-23392674D01*
X12244349Y-23392674D02*
X12253872Y-23411722D01*
X12253872Y-23411722D02*
X12253872Y-23516484D01*
X12377682Y-23516484D02*
X12358634Y-23506960D01*
X12358634Y-23506960D02*
X12349111Y-23497436D01*
X12349111Y-23497436D02*
X12339587Y-23478388D01*
X12339587Y-23478388D02*
X12339587Y-23421246D01*
X12339587Y-23421246D02*
X12349111Y-23402198D01*
X12349111Y-23402198D02*
X12358634Y-23392674D01*
X12358634Y-23392674D02*
X12377682Y-23383150D01*
X12377682Y-23383150D02*
X12406253Y-23383150D01*
X12406253Y-23383150D02*
X12425301Y-23392674D01*
X12425301Y-23392674D02*
X12434825Y-23402198D01*
X12434825Y-23402198D02*
X12444349Y-23421246D01*
X12444349Y-23421246D02*
X12444349Y-23478388D01*
X12444349Y-23478388D02*
X12434825Y-23497436D01*
X12434825Y-23497436D02*
X12425301Y-23506960D01*
X12425301Y-23506960D02*
X12406253Y-23516484D01*
X12406253Y-23516484D02*
X12377682Y-23516484D01*
X12501492Y-23383150D02*
X12577682Y-23383150D01*
X12530063Y-23316484D02*
X12530063Y-23487912D01*
X12530063Y-23487912D02*
X12539587Y-23506960D01*
X12539587Y-23506960D02*
X12558634Y-23516484D01*
X12558634Y-23516484D02*
X12577682Y-23516484D01*
X12796730Y-23383150D02*
X12796730Y-23583150D01*
X12796730Y-23392674D02*
X12815777Y-23383150D01*
X12815777Y-23383150D02*
X12853873Y-23383150D01*
X12853873Y-23383150D02*
X12872920Y-23392674D01*
X12872920Y-23392674D02*
X12882444Y-23402198D01*
X12882444Y-23402198D02*
X12891968Y-23421246D01*
X12891968Y-23421246D02*
X12891968Y-23478388D01*
X12891968Y-23478388D02*
X12882444Y-23497436D01*
X12882444Y-23497436D02*
X12872920Y-23506960D01*
X12872920Y-23506960D02*
X12853873Y-23516484D01*
X12853873Y-23516484D02*
X12815777Y-23516484D01*
X12815777Y-23516484D02*
X12796730Y-23506960D01*
X13006253Y-23516484D02*
X12987206Y-23506960D01*
X12987206Y-23506960D02*
X12977682Y-23487912D01*
X12977682Y-23487912D02*
X12977682Y-23316484D01*
X13168158Y-23516484D02*
X13168158Y-23411722D01*
X13168158Y-23411722D02*
X13158634Y-23392674D01*
X13158634Y-23392674D02*
X13139587Y-23383150D01*
X13139587Y-23383150D02*
X13101492Y-23383150D01*
X13101492Y-23383150D02*
X13082444Y-23392674D01*
X13168158Y-23506960D02*
X13149111Y-23516484D01*
X13149111Y-23516484D02*
X13101492Y-23516484D01*
X13101492Y-23516484D02*
X13082444Y-23506960D01*
X13082444Y-23506960D02*
X13072920Y-23487912D01*
X13072920Y-23487912D02*
X13072920Y-23468865D01*
X13072920Y-23468865D02*
X13082444Y-23449817D01*
X13082444Y-23449817D02*
X13101492Y-23440293D01*
X13101492Y-23440293D02*
X13149111Y-23440293D01*
X13149111Y-23440293D02*
X13168158Y-23430769D01*
X13234825Y-23383150D02*
X13311015Y-23383150D01*
X13263396Y-23316484D02*
X13263396Y-23487912D01*
X13263396Y-23487912D02*
X13272920Y-23506960D01*
X13272920Y-23506960D02*
X13291968Y-23516484D01*
X13291968Y-23516484D02*
X13311015Y-23516484D01*
X13453873Y-23506960D02*
X13434825Y-23516484D01*
X13434825Y-23516484D02*
X13396730Y-23516484D01*
X13396730Y-23516484D02*
X13377682Y-23506960D01*
X13377682Y-23506960D02*
X13368158Y-23487912D01*
X13368158Y-23487912D02*
X13368158Y-23411722D01*
X13368158Y-23411722D02*
X13377682Y-23392674D01*
X13377682Y-23392674D02*
X13396730Y-23383150D01*
X13396730Y-23383150D02*
X13434825Y-23383150D01*
X13434825Y-23383150D02*
X13453873Y-23392674D01*
X13453873Y-23392674D02*
X13463396Y-23411722D01*
X13463396Y-23411722D02*
X13463396Y-23430769D01*
X13463396Y-23430769D02*
X13368158Y-23449817D01*
X13634825Y-23516484D02*
X13634825Y-23316484D01*
X13634825Y-23506960D02*
X13615777Y-23516484D01*
X13615777Y-23516484D02*
X13577682Y-23516484D01*
X13577682Y-23516484D02*
X13558634Y-23506960D01*
X13558634Y-23506960D02*
X13549111Y-23497436D01*
X13549111Y-23497436D02*
X13539587Y-23478388D01*
X13539587Y-23478388D02*
X13539587Y-23421246D01*
X13539587Y-23421246D02*
X13549111Y-23402198D01*
X13549111Y-23402198D02*
X13558634Y-23392674D01*
X13558634Y-23392674D02*
X13577682Y-23383150D01*
X13577682Y-23383150D02*
X13615777Y-23383150D01*
X13615777Y-23383150D02*
X13634825Y-23392674D01*
X13711015Y-23592674D02*
X13720539Y-23583150D01*
X13720539Y-23583150D02*
X13739587Y-23554579D01*
X13739587Y-23554579D02*
X13749111Y-23535531D01*
X13749111Y-23535531D02*
X13758634Y-23506960D01*
X13758634Y-23506960D02*
X13768158Y-23459341D01*
X13768158Y-23459341D02*
X13768158Y-23421246D01*
X13768158Y-23421246D02*
X13758634Y-23373627D01*
X13758634Y-23373627D02*
X13749111Y-23345055D01*
X13749111Y-23345055D02*
X13739587Y-23326008D01*
X13739587Y-23326008D02*
X13720539Y-23297436D01*
X13720539Y-23297436D02*
X13711015Y-23287912D01*
M02*
