%TF.GenerationSoftware,KiCad,Pcbnew,7.0.1*%
%TF.CreationDate,2024-04-08T11:43:45+03:00*%
%TF.ProjectId,delta48m,64656c74-6134-4386-9d2e-6b696361645f,1*%
%TF.SameCoordinates,Original*%
%TF.FileFunction,Drillmap*%
%TF.FilePolarity,Positive*%
%FSLAX45Y45*%
G04 Gerber Fmt 4.5, Leading zero omitted, Abs format (unit mm)*
G04 Created by KiCad (PCBNEW 7.0.1) date 2024-04-08 11:43:45*
%MOMM*%
%LPD*%
G01*
G04 APERTURE LIST*
%ADD10C,0.100000*%
%ADD11C,0.200000*%
%ADD12C,0.280000*%
%ADD13C,0.320000*%
%ADD14C,0.350000*%
G04 APERTURE END LIST*
D10*
X6960000Y-7140000D02*
X35660000Y-7140000D01*
X35660000Y-22140000D01*
X6960000Y-22140000D01*
X6960000Y-7140000D01*
D11*
D12*
X35225900Y-7516000D02*
X35505900Y-7796000D01*
X35505900Y-7516000D02*
X35225900Y-7796000D01*
X35225900Y-16266000D02*
X35505900Y-16546000D01*
X35505900Y-16266000D02*
X35225900Y-16546000D01*
D13*
X7420000Y-7590000D02*
G75*
G03*
X7420000Y-7590000I-160000J0D01*
G01*
X8290000Y-21100000D02*
G75*
G03*
X8290000Y-21100000I-160000J0D01*
G01*
X32319520Y-8655680D02*
G75*
G03*
X32319520Y-8655680I-160000J0D01*
G01*
X34120000Y-7840000D02*
G75*
G03*
X34120000Y-7840000I-160000J0D01*
G01*
X35516800Y-21869400D02*
G75*
G03*
X35516800Y-21869400I-160000J0D01*
G01*
D14*
X11125780Y-8503380D02*
X11125780Y-8853380D01*
X10950780Y-8678380D02*
X11300780Y-8678380D01*
X11133400Y-7523100D02*
X11133400Y-7873100D01*
X10958400Y-7698100D02*
X11308400Y-7698100D01*
X11887780Y-7518020D02*
X11887780Y-7868020D01*
X11712780Y-7693020D02*
X12062780Y-7693020D01*
X32160000Y-7495000D02*
X32160000Y-7845000D01*
X31985000Y-7670000D02*
X32335000Y-7670000D01*
D11*
X7202619Y-22457524D02*
X7202619Y-22257524D01*
X7202619Y-22257524D02*
X7250238Y-22257524D01*
X7250238Y-22257524D02*
X7278809Y-22267048D01*
X7278809Y-22267048D02*
X7297857Y-22286095D01*
X7297857Y-22286095D02*
X7307381Y-22305143D01*
X7307381Y-22305143D02*
X7316905Y-22343238D01*
X7316905Y-22343238D02*
X7316905Y-22371809D01*
X7316905Y-22371809D02*
X7307381Y-22409905D01*
X7307381Y-22409905D02*
X7297857Y-22428952D01*
X7297857Y-22428952D02*
X7278809Y-22448000D01*
X7278809Y-22448000D02*
X7250238Y-22457524D01*
X7250238Y-22457524D02*
X7202619Y-22457524D01*
X7402619Y-22457524D02*
X7402619Y-22324190D01*
X7402619Y-22362286D02*
X7412143Y-22343238D01*
X7412143Y-22343238D02*
X7421667Y-22333714D01*
X7421667Y-22333714D02*
X7440714Y-22324190D01*
X7440714Y-22324190D02*
X7459762Y-22324190D01*
X7526428Y-22457524D02*
X7526428Y-22324190D01*
X7526428Y-22257524D02*
X7516905Y-22267048D01*
X7516905Y-22267048D02*
X7526428Y-22276571D01*
X7526428Y-22276571D02*
X7535952Y-22267048D01*
X7535952Y-22267048D02*
X7526428Y-22257524D01*
X7526428Y-22257524D02*
X7526428Y-22276571D01*
X7650238Y-22457524D02*
X7631190Y-22448000D01*
X7631190Y-22448000D02*
X7621667Y-22428952D01*
X7621667Y-22428952D02*
X7621667Y-22257524D01*
X7755000Y-22457524D02*
X7735952Y-22448000D01*
X7735952Y-22448000D02*
X7726428Y-22428952D01*
X7726428Y-22428952D02*
X7726428Y-22257524D01*
X7983571Y-22457524D02*
X7983571Y-22257524D01*
X7983571Y-22257524D02*
X8050238Y-22400381D01*
X8050238Y-22400381D02*
X8116905Y-22257524D01*
X8116905Y-22257524D02*
X8116905Y-22457524D01*
X8297857Y-22457524D02*
X8297857Y-22352762D01*
X8297857Y-22352762D02*
X8288333Y-22333714D01*
X8288333Y-22333714D02*
X8269286Y-22324190D01*
X8269286Y-22324190D02*
X8231190Y-22324190D01*
X8231190Y-22324190D02*
X8212143Y-22333714D01*
X8297857Y-22448000D02*
X8278809Y-22457524D01*
X8278809Y-22457524D02*
X8231190Y-22457524D01*
X8231190Y-22457524D02*
X8212143Y-22448000D01*
X8212143Y-22448000D02*
X8202619Y-22428952D01*
X8202619Y-22428952D02*
X8202619Y-22409905D01*
X8202619Y-22409905D02*
X8212143Y-22390857D01*
X8212143Y-22390857D02*
X8231190Y-22381333D01*
X8231190Y-22381333D02*
X8278809Y-22381333D01*
X8278809Y-22381333D02*
X8297857Y-22371809D01*
X8393095Y-22324190D02*
X8393095Y-22524190D01*
X8393095Y-22333714D02*
X8412143Y-22324190D01*
X8412143Y-22324190D02*
X8450238Y-22324190D01*
X8450238Y-22324190D02*
X8469286Y-22333714D01*
X8469286Y-22333714D02*
X8478810Y-22343238D01*
X8478810Y-22343238D02*
X8488333Y-22362286D01*
X8488333Y-22362286D02*
X8488333Y-22419428D01*
X8488333Y-22419428D02*
X8478810Y-22438476D01*
X8478810Y-22438476D02*
X8469286Y-22448000D01*
X8469286Y-22448000D02*
X8450238Y-22457524D01*
X8450238Y-22457524D02*
X8412143Y-22457524D01*
X8412143Y-22457524D02*
X8393095Y-22448000D01*
X8574048Y-22438476D02*
X8583571Y-22448000D01*
X8583571Y-22448000D02*
X8574048Y-22457524D01*
X8574048Y-22457524D02*
X8564524Y-22448000D01*
X8564524Y-22448000D02*
X8574048Y-22438476D01*
X8574048Y-22438476D02*
X8574048Y-22457524D01*
X8574048Y-22333714D02*
X8583571Y-22343238D01*
X8583571Y-22343238D02*
X8574048Y-22352762D01*
X8574048Y-22352762D02*
X8564524Y-22343238D01*
X8564524Y-22343238D02*
X8574048Y-22333714D01*
X8574048Y-22333714D02*
X8574048Y-22352762D01*
X6755000Y-22685000D02*
X6955000Y-22885000D01*
X6955000Y-22685000D02*
X6755000Y-22885000D01*
X7193095Y-22696571D02*
X7202619Y-22687048D01*
X7202619Y-22687048D02*
X7221667Y-22677524D01*
X7221667Y-22677524D02*
X7269286Y-22677524D01*
X7269286Y-22677524D02*
X7288333Y-22687048D01*
X7288333Y-22687048D02*
X7297857Y-22696571D01*
X7297857Y-22696571D02*
X7307381Y-22715619D01*
X7307381Y-22715619D02*
X7307381Y-22734667D01*
X7307381Y-22734667D02*
X7297857Y-22763238D01*
X7297857Y-22763238D02*
X7183571Y-22877524D01*
X7183571Y-22877524D02*
X7307381Y-22877524D01*
X7393095Y-22858476D02*
X7402619Y-22868000D01*
X7402619Y-22868000D02*
X7393095Y-22877524D01*
X7393095Y-22877524D02*
X7383571Y-22868000D01*
X7383571Y-22868000D02*
X7393095Y-22858476D01*
X7393095Y-22858476D02*
X7393095Y-22877524D01*
X7516905Y-22763238D02*
X7497857Y-22753714D01*
X7497857Y-22753714D02*
X7488333Y-22744190D01*
X7488333Y-22744190D02*
X7478809Y-22725143D01*
X7478809Y-22725143D02*
X7478809Y-22715619D01*
X7478809Y-22715619D02*
X7488333Y-22696571D01*
X7488333Y-22696571D02*
X7497857Y-22687048D01*
X7497857Y-22687048D02*
X7516905Y-22677524D01*
X7516905Y-22677524D02*
X7555000Y-22677524D01*
X7555000Y-22677524D02*
X7574048Y-22687048D01*
X7574048Y-22687048D02*
X7583571Y-22696571D01*
X7583571Y-22696571D02*
X7593095Y-22715619D01*
X7593095Y-22715619D02*
X7593095Y-22725143D01*
X7593095Y-22725143D02*
X7583571Y-22744190D01*
X7583571Y-22744190D02*
X7574048Y-22753714D01*
X7574048Y-22753714D02*
X7555000Y-22763238D01*
X7555000Y-22763238D02*
X7516905Y-22763238D01*
X7516905Y-22763238D02*
X7497857Y-22772762D01*
X7497857Y-22772762D02*
X7488333Y-22782286D01*
X7488333Y-22782286D02*
X7478809Y-22801333D01*
X7478809Y-22801333D02*
X7478809Y-22839428D01*
X7478809Y-22839428D02*
X7488333Y-22858476D01*
X7488333Y-22858476D02*
X7497857Y-22868000D01*
X7497857Y-22868000D02*
X7516905Y-22877524D01*
X7516905Y-22877524D02*
X7555000Y-22877524D01*
X7555000Y-22877524D02*
X7574048Y-22868000D01*
X7574048Y-22868000D02*
X7583571Y-22858476D01*
X7583571Y-22858476D02*
X7593095Y-22839428D01*
X7593095Y-22839428D02*
X7593095Y-22801333D01*
X7593095Y-22801333D02*
X7583571Y-22782286D01*
X7583571Y-22782286D02*
X7574048Y-22772762D01*
X7574048Y-22772762D02*
X7555000Y-22763238D01*
X7716905Y-22677524D02*
X7735952Y-22677524D01*
X7735952Y-22677524D02*
X7755000Y-22687048D01*
X7755000Y-22687048D02*
X7764524Y-22696571D01*
X7764524Y-22696571D02*
X7774048Y-22715619D01*
X7774048Y-22715619D02*
X7783571Y-22753714D01*
X7783571Y-22753714D02*
X7783571Y-22801333D01*
X7783571Y-22801333D02*
X7774048Y-22839428D01*
X7774048Y-22839428D02*
X7764524Y-22858476D01*
X7764524Y-22858476D02*
X7755000Y-22868000D01*
X7755000Y-22868000D02*
X7735952Y-22877524D01*
X7735952Y-22877524D02*
X7716905Y-22877524D01*
X7716905Y-22877524D02*
X7697857Y-22868000D01*
X7697857Y-22868000D02*
X7688333Y-22858476D01*
X7688333Y-22858476D02*
X7678809Y-22839428D01*
X7678809Y-22839428D02*
X7669286Y-22801333D01*
X7669286Y-22801333D02*
X7669286Y-22753714D01*
X7669286Y-22753714D02*
X7678809Y-22715619D01*
X7678809Y-22715619D02*
X7688333Y-22696571D01*
X7688333Y-22696571D02*
X7697857Y-22687048D01*
X7697857Y-22687048D02*
X7716905Y-22677524D01*
X7907381Y-22677524D02*
X7926429Y-22677524D01*
X7926429Y-22677524D02*
X7945476Y-22687048D01*
X7945476Y-22687048D02*
X7955000Y-22696571D01*
X7955000Y-22696571D02*
X7964524Y-22715619D01*
X7964524Y-22715619D02*
X7974048Y-22753714D01*
X7974048Y-22753714D02*
X7974048Y-22801333D01*
X7974048Y-22801333D02*
X7964524Y-22839428D01*
X7964524Y-22839428D02*
X7955000Y-22858476D01*
X7955000Y-22858476D02*
X7945476Y-22868000D01*
X7945476Y-22868000D02*
X7926429Y-22877524D01*
X7926429Y-22877524D02*
X7907381Y-22877524D01*
X7907381Y-22877524D02*
X7888333Y-22868000D01*
X7888333Y-22868000D02*
X7878809Y-22858476D01*
X7878809Y-22858476D02*
X7869286Y-22839428D01*
X7869286Y-22839428D02*
X7859762Y-22801333D01*
X7859762Y-22801333D02*
X7859762Y-22753714D01*
X7859762Y-22753714D02*
X7869286Y-22715619D01*
X7869286Y-22715619D02*
X7878809Y-22696571D01*
X7878809Y-22696571D02*
X7888333Y-22687048D01*
X7888333Y-22687048D02*
X7907381Y-22677524D01*
X8059762Y-22877524D02*
X8059762Y-22744190D01*
X8059762Y-22763238D02*
X8069286Y-22753714D01*
X8069286Y-22753714D02*
X8088333Y-22744190D01*
X8088333Y-22744190D02*
X8116905Y-22744190D01*
X8116905Y-22744190D02*
X8135952Y-22753714D01*
X8135952Y-22753714D02*
X8145476Y-22772762D01*
X8145476Y-22772762D02*
X8145476Y-22877524D01*
X8145476Y-22772762D02*
X8155000Y-22753714D01*
X8155000Y-22753714D02*
X8174048Y-22744190D01*
X8174048Y-22744190D02*
X8202619Y-22744190D01*
X8202619Y-22744190D02*
X8221667Y-22753714D01*
X8221667Y-22753714D02*
X8231190Y-22772762D01*
X8231190Y-22772762D02*
X8231190Y-22877524D01*
X8326429Y-22877524D02*
X8326429Y-22744190D01*
X8326429Y-22763238D02*
X8335952Y-22753714D01*
X8335952Y-22753714D02*
X8355000Y-22744190D01*
X8355000Y-22744190D02*
X8383571Y-22744190D01*
X8383571Y-22744190D02*
X8402619Y-22753714D01*
X8402619Y-22753714D02*
X8412143Y-22772762D01*
X8412143Y-22772762D02*
X8412143Y-22877524D01*
X8412143Y-22772762D02*
X8421667Y-22753714D01*
X8421667Y-22753714D02*
X8440714Y-22744190D01*
X8440714Y-22744190D02*
X8469286Y-22744190D01*
X8469286Y-22744190D02*
X8488333Y-22753714D01*
X8488333Y-22753714D02*
X8497857Y-22772762D01*
X8497857Y-22772762D02*
X8497857Y-22877524D01*
X8888333Y-22668000D02*
X8716905Y-22925143D01*
X9145476Y-22677524D02*
X9164524Y-22677524D01*
X9164524Y-22677524D02*
X9183572Y-22687048D01*
X9183572Y-22687048D02*
X9193095Y-22696571D01*
X9193095Y-22696571D02*
X9202619Y-22715619D01*
X9202619Y-22715619D02*
X9212143Y-22753714D01*
X9212143Y-22753714D02*
X9212143Y-22801333D01*
X9212143Y-22801333D02*
X9202619Y-22839428D01*
X9202619Y-22839428D02*
X9193095Y-22858476D01*
X9193095Y-22858476D02*
X9183572Y-22868000D01*
X9183572Y-22868000D02*
X9164524Y-22877524D01*
X9164524Y-22877524D02*
X9145476Y-22877524D01*
X9145476Y-22877524D02*
X9126429Y-22868000D01*
X9126429Y-22868000D02*
X9116905Y-22858476D01*
X9116905Y-22858476D02*
X9107381Y-22839428D01*
X9107381Y-22839428D02*
X9097857Y-22801333D01*
X9097857Y-22801333D02*
X9097857Y-22753714D01*
X9097857Y-22753714D02*
X9107381Y-22715619D01*
X9107381Y-22715619D02*
X9116905Y-22696571D01*
X9116905Y-22696571D02*
X9126429Y-22687048D01*
X9126429Y-22687048D02*
X9145476Y-22677524D01*
X9297857Y-22858476D02*
X9307381Y-22868000D01*
X9307381Y-22868000D02*
X9297857Y-22877524D01*
X9297857Y-22877524D02*
X9288334Y-22868000D01*
X9288334Y-22868000D02*
X9297857Y-22858476D01*
X9297857Y-22858476D02*
X9297857Y-22877524D01*
X9497857Y-22877524D02*
X9383572Y-22877524D01*
X9440714Y-22877524D02*
X9440714Y-22677524D01*
X9440714Y-22677524D02*
X9421667Y-22706095D01*
X9421667Y-22706095D02*
X9402619Y-22725143D01*
X9402619Y-22725143D02*
X9383572Y-22734667D01*
X9688334Y-22877524D02*
X9574048Y-22877524D01*
X9631191Y-22877524D02*
X9631191Y-22677524D01*
X9631191Y-22677524D02*
X9612143Y-22706095D01*
X9612143Y-22706095D02*
X9593095Y-22725143D01*
X9593095Y-22725143D02*
X9574048Y-22734667D01*
X9812143Y-22677524D02*
X9831191Y-22677524D01*
X9831191Y-22677524D02*
X9850238Y-22687048D01*
X9850238Y-22687048D02*
X9859762Y-22696571D01*
X9859762Y-22696571D02*
X9869286Y-22715619D01*
X9869286Y-22715619D02*
X9878810Y-22753714D01*
X9878810Y-22753714D02*
X9878810Y-22801333D01*
X9878810Y-22801333D02*
X9869286Y-22839428D01*
X9869286Y-22839428D02*
X9859762Y-22858476D01*
X9859762Y-22858476D02*
X9850238Y-22868000D01*
X9850238Y-22868000D02*
X9831191Y-22877524D01*
X9831191Y-22877524D02*
X9812143Y-22877524D01*
X9812143Y-22877524D02*
X9793095Y-22868000D01*
X9793095Y-22868000D02*
X9783572Y-22858476D01*
X9783572Y-22858476D02*
X9774048Y-22839428D01*
X9774048Y-22839428D02*
X9764524Y-22801333D01*
X9764524Y-22801333D02*
X9764524Y-22753714D01*
X9764524Y-22753714D02*
X9774048Y-22715619D01*
X9774048Y-22715619D02*
X9783572Y-22696571D01*
X9783572Y-22696571D02*
X9793095Y-22687048D01*
X9793095Y-22687048D02*
X9812143Y-22677524D01*
X9955000Y-22696571D02*
X9964524Y-22687048D01*
X9964524Y-22687048D02*
X9983572Y-22677524D01*
X9983572Y-22677524D02*
X10031191Y-22677524D01*
X10031191Y-22677524D02*
X10050238Y-22687048D01*
X10050238Y-22687048D02*
X10059762Y-22696571D01*
X10059762Y-22696571D02*
X10069286Y-22715619D01*
X10069286Y-22715619D02*
X10069286Y-22734667D01*
X10069286Y-22734667D02*
X10059762Y-22763238D01*
X10059762Y-22763238D02*
X9945476Y-22877524D01*
X9945476Y-22877524D02*
X10069286Y-22877524D01*
X10145476Y-22677524D02*
X10145476Y-22715619D01*
X10221667Y-22677524D02*
X10221667Y-22715619D01*
X10516905Y-22953714D02*
X10507381Y-22944190D01*
X10507381Y-22944190D02*
X10488334Y-22915619D01*
X10488334Y-22915619D02*
X10478810Y-22896571D01*
X10478810Y-22896571D02*
X10469286Y-22868000D01*
X10469286Y-22868000D02*
X10459762Y-22820381D01*
X10459762Y-22820381D02*
X10459762Y-22782286D01*
X10459762Y-22782286D02*
X10469286Y-22734667D01*
X10469286Y-22734667D02*
X10478810Y-22706095D01*
X10478810Y-22706095D02*
X10488334Y-22687048D01*
X10488334Y-22687048D02*
X10507381Y-22658476D01*
X10507381Y-22658476D02*
X10516905Y-22648952D01*
X10583572Y-22696571D02*
X10593096Y-22687048D01*
X10593096Y-22687048D02*
X10612143Y-22677524D01*
X10612143Y-22677524D02*
X10659762Y-22677524D01*
X10659762Y-22677524D02*
X10678810Y-22687048D01*
X10678810Y-22687048D02*
X10688334Y-22696571D01*
X10688334Y-22696571D02*
X10697857Y-22715619D01*
X10697857Y-22715619D02*
X10697857Y-22734667D01*
X10697857Y-22734667D02*
X10688334Y-22763238D01*
X10688334Y-22763238D02*
X10574048Y-22877524D01*
X10574048Y-22877524D02*
X10697857Y-22877524D01*
X10935953Y-22877524D02*
X10935953Y-22677524D01*
X11021667Y-22877524D02*
X11021667Y-22772762D01*
X11021667Y-22772762D02*
X11012143Y-22753714D01*
X11012143Y-22753714D02*
X10993096Y-22744190D01*
X10993096Y-22744190D02*
X10964524Y-22744190D01*
X10964524Y-22744190D02*
X10945477Y-22753714D01*
X10945477Y-22753714D02*
X10935953Y-22763238D01*
X11145477Y-22877524D02*
X11126429Y-22868000D01*
X11126429Y-22868000D02*
X11116905Y-22858476D01*
X11116905Y-22858476D02*
X11107381Y-22839428D01*
X11107381Y-22839428D02*
X11107381Y-22782286D01*
X11107381Y-22782286D02*
X11116905Y-22763238D01*
X11116905Y-22763238D02*
X11126429Y-22753714D01*
X11126429Y-22753714D02*
X11145477Y-22744190D01*
X11145477Y-22744190D02*
X11174048Y-22744190D01*
X11174048Y-22744190D02*
X11193096Y-22753714D01*
X11193096Y-22753714D02*
X11202619Y-22763238D01*
X11202619Y-22763238D02*
X11212143Y-22782286D01*
X11212143Y-22782286D02*
X11212143Y-22839428D01*
X11212143Y-22839428D02*
X11202619Y-22858476D01*
X11202619Y-22858476D02*
X11193096Y-22868000D01*
X11193096Y-22868000D02*
X11174048Y-22877524D01*
X11174048Y-22877524D02*
X11145477Y-22877524D01*
X11326429Y-22877524D02*
X11307381Y-22868000D01*
X11307381Y-22868000D02*
X11297857Y-22848952D01*
X11297857Y-22848952D02*
X11297857Y-22677524D01*
X11478810Y-22868000D02*
X11459762Y-22877524D01*
X11459762Y-22877524D02*
X11421667Y-22877524D01*
X11421667Y-22877524D02*
X11402619Y-22868000D01*
X11402619Y-22868000D02*
X11393096Y-22848952D01*
X11393096Y-22848952D02*
X11393096Y-22772762D01*
X11393096Y-22772762D02*
X11402619Y-22753714D01*
X11402619Y-22753714D02*
X11421667Y-22744190D01*
X11421667Y-22744190D02*
X11459762Y-22744190D01*
X11459762Y-22744190D02*
X11478810Y-22753714D01*
X11478810Y-22753714D02*
X11488334Y-22772762D01*
X11488334Y-22772762D02*
X11488334Y-22791809D01*
X11488334Y-22791809D02*
X11393096Y-22810857D01*
X11564524Y-22868000D02*
X11583572Y-22877524D01*
X11583572Y-22877524D02*
X11621667Y-22877524D01*
X11621667Y-22877524D02*
X11640715Y-22868000D01*
X11640715Y-22868000D02*
X11650238Y-22848952D01*
X11650238Y-22848952D02*
X11650238Y-22839428D01*
X11650238Y-22839428D02*
X11640715Y-22820381D01*
X11640715Y-22820381D02*
X11621667Y-22810857D01*
X11621667Y-22810857D02*
X11593096Y-22810857D01*
X11593096Y-22810857D02*
X11574048Y-22801333D01*
X11574048Y-22801333D02*
X11564524Y-22782286D01*
X11564524Y-22782286D02*
X11564524Y-22772762D01*
X11564524Y-22772762D02*
X11574048Y-22753714D01*
X11574048Y-22753714D02*
X11593096Y-22744190D01*
X11593096Y-22744190D02*
X11621667Y-22744190D01*
X11621667Y-22744190D02*
X11640715Y-22753714D01*
X11716905Y-22953714D02*
X11726429Y-22944190D01*
X11726429Y-22944190D02*
X11745477Y-22915619D01*
X11745477Y-22915619D02*
X11755000Y-22896571D01*
X11755000Y-22896571D02*
X11764524Y-22868000D01*
X11764524Y-22868000D02*
X11774048Y-22820381D01*
X11774048Y-22820381D02*
X11774048Y-22782286D01*
X11774048Y-22782286D02*
X11764524Y-22734667D01*
X11764524Y-22734667D02*
X11755000Y-22706095D01*
X11755000Y-22706095D02*
X11745477Y-22687048D01*
X11745477Y-22687048D02*
X11726429Y-22658476D01*
X11726429Y-22658476D02*
X11716905Y-22648952D01*
X12078810Y-22953714D02*
X12069286Y-22944190D01*
X12069286Y-22944190D02*
X12050238Y-22915619D01*
X12050238Y-22915619D02*
X12040715Y-22896571D01*
X12040715Y-22896571D02*
X12031191Y-22868000D01*
X12031191Y-22868000D02*
X12021667Y-22820381D01*
X12021667Y-22820381D02*
X12021667Y-22782286D01*
X12021667Y-22782286D02*
X12031191Y-22734667D01*
X12031191Y-22734667D02*
X12040715Y-22706095D01*
X12040715Y-22706095D02*
X12050238Y-22687048D01*
X12050238Y-22687048D02*
X12069286Y-22658476D01*
X12069286Y-22658476D02*
X12078810Y-22648952D01*
X12155000Y-22744190D02*
X12155000Y-22877524D01*
X12155000Y-22763238D02*
X12164524Y-22753714D01*
X12164524Y-22753714D02*
X12183572Y-22744190D01*
X12183572Y-22744190D02*
X12212143Y-22744190D01*
X12212143Y-22744190D02*
X12231191Y-22753714D01*
X12231191Y-22753714D02*
X12240715Y-22772762D01*
X12240715Y-22772762D02*
X12240715Y-22877524D01*
X12364524Y-22877524D02*
X12345477Y-22868000D01*
X12345477Y-22868000D02*
X12335953Y-22858476D01*
X12335953Y-22858476D02*
X12326429Y-22839428D01*
X12326429Y-22839428D02*
X12326429Y-22782286D01*
X12326429Y-22782286D02*
X12335953Y-22763238D01*
X12335953Y-22763238D02*
X12345477Y-22753714D01*
X12345477Y-22753714D02*
X12364524Y-22744190D01*
X12364524Y-22744190D02*
X12393096Y-22744190D01*
X12393096Y-22744190D02*
X12412143Y-22753714D01*
X12412143Y-22753714D02*
X12421667Y-22763238D01*
X12421667Y-22763238D02*
X12431191Y-22782286D01*
X12431191Y-22782286D02*
X12431191Y-22839428D01*
X12431191Y-22839428D02*
X12421667Y-22858476D01*
X12421667Y-22858476D02*
X12412143Y-22868000D01*
X12412143Y-22868000D02*
X12393096Y-22877524D01*
X12393096Y-22877524D02*
X12364524Y-22877524D01*
X12488334Y-22744190D02*
X12564524Y-22744190D01*
X12516905Y-22677524D02*
X12516905Y-22848952D01*
X12516905Y-22848952D02*
X12526429Y-22868000D01*
X12526429Y-22868000D02*
X12545477Y-22877524D01*
X12545477Y-22877524D02*
X12564524Y-22877524D01*
X12783572Y-22744190D02*
X12783572Y-22944190D01*
X12783572Y-22753714D02*
X12802619Y-22744190D01*
X12802619Y-22744190D02*
X12840715Y-22744190D01*
X12840715Y-22744190D02*
X12859762Y-22753714D01*
X12859762Y-22753714D02*
X12869286Y-22763238D01*
X12869286Y-22763238D02*
X12878810Y-22782286D01*
X12878810Y-22782286D02*
X12878810Y-22839428D01*
X12878810Y-22839428D02*
X12869286Y-22858476D01*
X12869286Y-22858476D02*
X12859762Y-22868000D01*
X12859762Y-22868000D02*
X12840715Y-22877524D01*
X12840715Y-22877524D02*
X12802619Y-22877524D01*
X12802619Y-22877524D02*
X12783572Y-22868000D01*
X12993096Y-22877524D02*
X12974048Y-22868000D01*
X12974048Y-22868000D02*
X12964524Y-22848952D01*
X12964524Y-22848952D02*
X12964524Y-22677524D01*
X13155000Y-22877524D02*
X13155000Y-22772762D01*
X13155000Y-22772762D02*
X13145477Y-22753714D01*
X13145477Y-22753714D02*
X13126429Y-22744190D01*
X13126429Y-22744190D02*
X13088334Y-22744190D01*
X13088334Y-22744190D02*
X13069286Y-22753714D01*
X13155000Y-22868000D02*
X13135953Y-22877524D01*
X13135953Y-22877524D02*
X13088334Y-22877524D01*
X13088334Y-22877524D02*
X13069286Y-22868000D01*
X13069286Y-22868000D02*
X13059762Y-22848952D01*
X13059762Y-22848952D02*
X13059762Y-22829905D01*
X13059762Y-22829905D02*
X13069286Y-22810857D01*
X13069286Y-22810857D02*
X13088334Y-22801333D01*
X13088334Y-22801333D02*
X13135953Y-22801333D01*
X13135953Y-22801333D02*
X13155000Y-22791809D01*
X13221667Y-22744190D02*
X13297858Y-22744190D01*
X13250239Y-22677524D02*
X13250239Y-22848952D01*
X13250239Y-22848952D02*
X13259762Y-22868000D01*
X13259762Y-22868000D02*
X13278810Y-22877524D01*
X13278810Y-22877524D02*
X13297858Y-22877524D01*
X13440715Y-22868000D02*
X13421667Y-22877524D01*
X13421667Y-22877524D02*
X13383572Y-22877524D01*
X13383572Y-22877524D02*
X13364524Y-22868000D01*
X13364524Y-22868000D02*
X13355000Y-22848952D01*
X13355000Y-22848952D02*
X13355000Y-22772762D01*
X13355000Y-22772762D02*
X13364524Y-22753714D01*
X13364524Y-22753714D02*
X13383572Y-22744190D01*
X13383572Y-22744190D02*
X13421667Y-22744190D01*
X13421667Y-22744190D02*
X13440715Y-22753714D01*
X13440715Y-22753714D02*
X13450239Y-22772762D01*
X13450239Y-22772762D02*
X13450239Y-22791809D01*
X13450239Y-22791809D02*
X13355000Y-22810857D01*
X13621667Y-22877524D02*
X13621667Y-22677524D01*
X13621667Y-22868000D02*
X13602620Y-22877524D01*
X13602620Y-22877524D02*
X13564524Y-22877524D01*
X13564524Y-22877524D02*
X13545477Y-22868000D01*
X13545477Y-22868000D02*
X13535953Y-22858476D01*
X13535953Y-22858476D02*
X13526429Y-22839428D01*
X13526429Y-22839428D02*
X13526429Y-22782286D01*
X13526429Y-22782286D02*
X13535953Y-22763238D01*
X13535953Y-22763238D02*
X13545477Y-22753714D01*
X13545477Y-22753714D02*
X13564524Y-22744190D01*
X13564524Y-22744190D02*
X13602620Y-22744190D01*
X13602620Y-22744190D02*
X13621667Y-22753714D01*
X13697858Y-22953714D02*
X13707381Y-22944190D01*
X13707381Y-22944190D02*
X13726429Y-22915619D01*
X13726429Y-22915619D02*
X13735953Y-22896571D01*
X13735953Y-22896571D02*
X13745477Y-22868000D01*
X13745477Y-22868000D02*
X13755000Y-22820381D01*
X13755000Y-22820381D02*
X13755000Y-22782286D01*
X13755000Y-22782286D02*
X13745477Y-22734667D01*
X13745477Y-22734667D02*
X13735953Y-22706095D01*
X13735953Y-22706095D02*
X13726429Y-22687048D01*
X13726429Y-22687048D02*
X13707381Y-22658476D01*
X13707381Y-22658476D02*
X13697858Y-22648952D01*
X6955000Y-23105000D02*
G75*
G03*
X6955000Y-23105000I-100000J0D01*
G01*
X7183571Y-22997524D02*
X7307381Y-22997524D01*
X7307381Y-22997524D02*
X7240714Y-23073714D01*
X7240714Y-23073714D02*
X7269286Y-23073714D01*
X7269286Y-23073714D02*
X7288333Y-23083238D01*
X7288333Y-23083238D02*
X7297857Y-23092762D01*
X7297857Y-23092762D02*
X7307381Y-23111809D01*
X7307381Y-23111809D02*
X7307381Y-23159428D01*
X7307381Y-23159428D02*
X7297857Y-23178476D01*
X7297857Y-23178476D02*
X7288333Y-23188000D01*
X7288333Y-23188000D02*
X7269286Y-23197524D01*
X7269286Y-23197524D02*
X7212143Y-23197524D01*
X7212143Y-23197524D02*
X7193095Y-23188000D01*
X7193095Y-23188000D02*
X7183571Y-23178476D01*
X7393095Y-23178476D02*
X7402619Y-23188000D01*
X7402619Y-23188000D02*
X7393095Y-23197524D01*
X7393095Y-23197524D02*
X7383571Y-23188000D01*
X7383571Y-23188000D02*
X7393095Y-23178476D01*
X7393095Y-23178476D02*
X7393095Y-23197524D01*
X7478809Y-23016571D02*
X7488333Y-23007048D01*
X7488333Y-23007048D02*
X7507381Y-22997524D01*
X7507381Y-22997524D02*
X7555000Y-22997524D01*
X7555000Y-22997524D02*
X7574048Y-23007048D01*
X7574048Y-23007048D02*
X7583571Y-23016571D01*
X7583571Y-23016571D02*
X7593095Y-23035619D01*
X7593095Y-23035619D02*
X7593095Y-23054667D01*
X7593095Y-23054667D02*
X7583571Y-23083238D01*
X7583571Y-23083238D02*
X7469286Y-23197524D01*
X7469286Y-23197524D02*
X7593095Y-23197524D01*
X7716905Y-22997524D02*
X7735952Y-22997524D01*
X7735952Y-22997524D02*
X7755000Y-23007048D01*
X7755000Y-23007048D02*
X7764524Y-23016571D01*
X7764524Y-23016571D02*
X7774048Y-23035619D01*
X7774048Y-23035619D02*
X7783571Y-23073714D01*
X7783571Y-23073714D02*
X7783571Y-23121333D01*
X7783571Y-23121333D02*
X7774048Y-23159428D01*
X7774048Y-23159428D02*
X7764524Y-23178476D01*
X7764524Y-23178476D02*
X7755000Y-23188000D01*
X7755000Y-23188000D02*
X7735952Y-23197524D01*
X7735952Y-23197524D02*
X7716905Y-23197524D01*
X7716905Y-23197524D02*
X7697857Y-23188000D01*
X7697857Y-23188000D02*
X7688333Y-23178476D01*
X7688333Y-23178476D02*
X7678809Y-23159428D01*
X7678809Y-23159428D02*
X7669286Y-23121333D01*
X7669286Y-23121333D02*
X7669286Y-23073714D01*
X7669286Y-23073714D02*
X7678809Y-23035619D01*
X7678809Y-23035619D02*
X7688333Y-23016571D01*
X7688333Y-23016571D02*
X7697857Y-23007048D01*
X7697857Y-23007048D02*
X7716905Y-22997524D01*
X7907381Y-22997524D02*
X7926429Y-22997524D01*
X7926429Y-22997524D02*
X7945476Y-23007048D01*
X7945476Y-23007048D02*
X7955000Y-23016571D01*
X7955000Y-23016571D02*
X7964524Y-23035619D01*
X7964524Y-23035619D02*
X7974048Y-23073714D01*
X7974048Y-23073714D02*
X7974048Y-23121333D01*
X7974048Y-23121333D02*
X7964524Y-23159428D01*
X7964524Y-23159428D02*
X7955000Y-23178476D01*
X7955000Y-23178476D02*
X7945476Y-23188000D01*
X7945476Y-23188000D02*
X7926429Y-23197524D01*
X7926429Y-23197524D02*
X7907381Y-23197524D01*
X7907381Y-23197524D02*
X7888333Y-23188000D01*
X7888333Y-23188000D02*
X7878809Y-23178476D01*
X7878809Y-23178476D02*
X7869286Y-23159428D01*
X7869286Y-23159428D02*
X7859762Y-23121333D01*
X7859762Y-23121333D02*
X7859762Y-23073714D01*
X7859762Y-23073714D02*
X7869286Y-23035619D01*
X7869286Y-23035619D02*
X7878809Y-23016571D01*
X7878809Y-23016571D02*
X7888333Y-23007048D01*
X7888333Y-23007048D02*
X7907381Y-22997524D01*
X8059762Y-23197524D02*
X8059762Y-23064190D01*
X8059762Y-23083238D02*
X8069286Y-23073714D01*
X8069286Y-23073714D02*
X8088333Y-23064190D01*
X8088333Y-23064190D02*
X8116905Y-23064190D01*
X8116905Y-23064190D02*
X8135952Y-23073714D01*
X8135952Y-23073714D02*
X8145476Y-23092762D01*
X8145476Y-23092762D02*
X8145476Y-23197524D01*
X8145476Y-23092762D02*
X8155000Y-23073714D01*
X8155000Y-23073714D02*
X8174048Y-23064190D01*
X8174048Y-23064190D02*
X8202619Y-23064190D01*
X8202619Y-23064190D02*
X8221667Y-23073714D01*
X8221667Y-23073714D02*
X8231190Y-23092762D01*
X8231190Y-23092762D02*
X8231190Y-23197524D01*
X8326429Y-23197524D02*
X8326429Y-23064190D01*
X8326429Y-23083238D02*
X8335952Y-23073714D01*
X8335952Y-23073714D02*
X8355000Y-23064190D01*
X8355000Y-23064190D02*
X8383571Y-23064190D01*
X8383571Y-23064190D02*
X8402619Y-23073714D01*
X8402619Y-23073714D02*
X8412143Y-23092762D01*
X8412143Y-23092762D02*
X8412143Y-23197524D01*
X8412143Y-23092762D02*
X8421667Y-23073714D01*
X8421667Y-23073714D02*
X8440714Y-23064190D01*
X8440714Y-23064190D02*
X8469286Y-23064190D01*
X8469286Y-23064190D02*
X8488333Y-23073714D01*
X8488333Y-23073714D02*
X8497857Y-23092762D01*
X8497857Y-23092762D02*
X8497857Y-23197524D01*
X8888333Y-22988000D02*
X8716905Y-23245143D01*
X9145476Y-22997524D02*
X9164524Y-22997524D01*
X9164524Y-22997524D02*
X9183572Y-23007048D01*
X9183572Y-23007048D02*
X9193095Y-23016571D01*
X9193095Y-23016571D02*
X9202619Y-23035619D01*
X9202619Y-23035619D02*
X9212143Y-23073714D01*
X9212143Y-23073714D02*
X9212143Y-23121333D01*
X9212143Y-23121333D02*
X9202619Y-23159428D01*
X9202619Y-23159428D02*
X9193095Y-23178476D01*
X9193095Y-23178476D02*
X9183572Y-23188000D01*
X9183572Y-23188000D02*
X9164524Y-23197524D01*
X9164524Y-23197524D02*
X9145476Y-23197524D01*
X9145476Y-23197524D02*
X9126429Y-23188000D01*
X9126429Y-23188000D02*
X9116905Y-23178476D01*
X9116905Y-23178476D02*
X9107381Y-23159428D01*
X9107381Y-23159428D02*
X9097857Y-23121333D01*
X9097857Y-23121333D02*
X9097857Y-23073714D01*
X9097857Y-23073714D02*
X9107381Y-23035619D01*
X9107381Y-23035619D02*
X9116905Y-23016571D01*
X9116905Y-23016571D02*
X9126429Y-23007048D01*
X9126429Y-23007048D02*
X9145476Y-22997524D01*
X9297857Y-23178476D02*
X9307381Y-23188000D01*
X9307381Y-23188000D02*
X9297857Y-23197524D01*
X9297857Y-23197524D02*
X9288334Y-23188000D01*
X9288334Y-23188000D02*
X9297857Y-23178476D01*
X9297857Y-23178476D02*
X9297857Y-23197524D01*
X9497857Y-23197524D02*
X9383572Y-23197524D01*
X9440714Y-23197524D02*
X9440714Y-22997524D01*
X9440714Y-22997524D02*
X9421667Y-23026095D01*
X9421667Y-23026095D02*
X9402619Y-23045143D01*
X9402619Y-23045143D02*
X9383572Y-23054667D01*
X9574048Y-23016571D02*
X9583572Y-23007048D01*
X9583572Y-23007048D02*
X9602619Y-22997524D01*
X9602619Y-22997524D02*
X9650238Y-22997524D01*
X9650238Y-22997524D02*
X9669286Y-23007048D01*
X9669286Y-23007048D02*
X9678810Y-23016571D01*
X9678810Y-23016571D02*
X9688334Y-23035619D01*
X9688334Y-23035619D02*
X9688334Y-23054667D01*
X9688334Y-23054667D02*
X9678810Y-23083238D01*
X9678810Y-23083238D02*
X9564524Y-23197524D01*
X9564524Y-23197524D02*
X9688334Y-23197524D01*
X9859762Y-22997524D02*
X9821667Y-22997524D01*
X9821667Y-22997524D02*
X9802619Y-23007048D01*
X9802619Y-23007048D02*
X9793095Y-23016571D01*
X9793095Y-23016571D02*
X9774048Y-23045143D01*
X9774048Y-23045143D02*
X9764524Y-23083238D01*
X9764524Y-23083238D02*
X9764524Y-23159428D01*
X9764524Y-23159428D02*
X9774048Y-23178476D01*
X9774048Y-23178476D02*
X9783572Y-23188000D01*
X9783572Y-23188000D02*
X9802619Y-23197524D01*
X9802619Y-23197524D02*
X9840715Y-23197524D01*
X9840715Y-23197524D02*
X9859762Y-23188000D01*
X9859762Y-23188000D02*
X9869286Y-23178476D01*
X9869286Y-23178476D02*
X9878810Y-23159428D01*
X9878810Y-23159428D02*
X9878810Y-23111809D01*
X9878810Y-23111809D02*
X9869286Y-23092762D01*
X9869286Y-23092762D02*
X9859762Y-23083238D01*
X9859762Y-23083238D02*
X9840715Y-23073714D01*
X9840715Y-23073714D02*
X9802619Y-23073714D01*
X9802619Y-23073714D02*
X9783572Y-23083238D01*
X9783572Y-23083238D02*
X9774048Y-23092762D01*
X9774048Y-23092762D02*
X9764524Y-23111809D01*
X10002619Y-22997524D02*
X10021667Y-22997524D01*
X10021667Y-22997524D02*
X10040715Y-23007048D01*
X10040715Y-23007048D02*
X10050238Y-23016571D01*
X10050238Y-23016571D02*
X10059762Y-23035619D01*
X10059762Y-23035619D02*
X10069286Y-23073714D01*
X10069286Y-23073714D02*
X10069286Y-23121333D01*
X10069286Y-23121333D02*
X10059762Y-23159428D01*
X10059762Y-23159428D02*
X10050238Y-23178476D01*
X10050238Y-23178476D02*
X10040715Y-23188000D01*
X10040715Y-23188000D02*
X10021667Y-23197524D01*
X10021667Y-23197524D02*
X10002619Y-23197524D01*
X10002619Y-23197524D02*
X9983572Y-23188000D01*
X9983572Y-23188000D02*
X9974048Y-23178476D01*
X9974048Y-23178476D02*
X9964524Y-23159428D01*
X9964524Y-23159428D02*
X9955000Y-23121333D01*
X9955000Y-23121333D02*
X9955000Y-23073714D01*
X9955000Y-23073714D02*
X9964524Y-23035619D01*
X9964524Y-23035619D02*
X9974048Y-23016571D01*
X9974048Y-23016571D02*
X9983572Y-23007048D01*
X9983572Y-23007048D02*
X10002619Y-22997524D01*
X10145476Y-22997524D02*
X10145476Y-23035619D01*
X10221667Y-22997524D02*
X10221667Y-23035619D01*
X10516905Y-23273714D02*
X10507381Y-23264190D01*
X10507381Y-23264190D02*
X10488334Y-23235619D01*
X10488334Y-23235619D02*
X10478810Y-23216571D01*
X10478810Y-23216571D02*
X10469286Y-23188000D01*
X10469286Y-23188000D02*
X10459762Y-23140381D01*
X10459762Y-23140381D02*
X10459762Y-23102286D01*
X10459762Y-23102286D02*
X10469286Y-23054667D01*
X10469286Y-23054667D02*
X10478810Y-23026095D01*
X10478810Y-23026095D02*
X10488334Y-23007048D01*
X10488334Y-23007048D02*
X10507381Y-22978476D01*
X10507381Y-22978476D02*
X10516905Y-22968952D01*
X10688334Y-22997524D02*
X10593096Y-22997524D01*
X10593096Y-22997524D02*
X10583572Y-23092762D01*
X10583572Y-23092762D02*
X10593096Y-23083238D01*
X10593096Y-23083238D02*
X10612143Y-23073714D01*
X10612143Y-23073714D02*
X10659762Y-23073714D01*
X10659762Y-23073714D02*
X10678810Y-23083238D01*
X10678810Y-23083238D02*
X10688334Y-23092762D01*
X10688334Y-23092762D02*
X10697857Y-23111809D01*
X10697857Y-23111809D02*
X10697857Y-23159428D01*
X10697857Y-23159428D02*
X10688334Y-23178476D01*
X10688334Y-23178476D02*
X10678810Y-23188000D01*
X10678810Y-23188000D02*
X10659762Y-23197524D01*
X10659762Y-23197524D02*
X10612143Y-23197524D01*
X10612143Y-23197524D02*
X10593096Y-23188000D01*
X10593096Y-23188000D02*
X10583572Y-23178476D01*
X10935953Y-23197524D02*
X10935953Y-22997524D01*
X11021667Y-23197524D02*
X11021667Y-23092762D01*
X11021667Y-23092762D02*
X11012143Y-23073714D01*
X11012143Y-23073714D02*
X10993096Y-23064190D01*
X10993096Y-23064190D02*
X10964524Y-23064190D01*
X10964524Y-23064190D02*
X10945477Y-23073714D01*
X10945477Y-23073714D02*
X10935953Y-23083238D01*
X11145477Y-23197524D02*
X11126429Y-23188000D01*
X11126429Y-23188000D02*
X11116905Y-23178476D01*
X11116905Y-23178476D02*
X11107381Y-23159428D01*
X11107381Y-23159428D02*
X11107381Y-23102286D01*
X11107381Y-23102286D02*
X11116905Y-23083238D01*
X11116905Y-23083238D02*
X11126429Y-23073714D01*
X11126429Y-23073714D02*
X11145477Y-23064190D01*
X11145477Y-23064190D02*
X11174048Y-23064190D01*
X11174048Y-23064190D02*
X11193096Y-23073714D01*
X11193096Y-23073714D02*
X11202619Y-23083238D01*
X11202619Y-23083238D02*
X11212143Y-23102286D01*
X11212143Y-23102286D02*
X11212143Y-23159428D01*
X11212143Y-23159428D02*
X11202619Y-23178476D01*
X11202619Y-23178476D02*
X11193096Y-23188000D01*
X11193096Y-23188000D02*
X11174048Y-23197524D01*
X11174048Y-23197524D02*
X11145477Y-23197524D01*
X11326429Y-23197524D02*
X11307381Y-23188000D01*
X11307381Y-23188000D02*
X11297857Y-23168952D01*
X11297857Y-23168952D02*
X11297857Y-22997524D01*
X11478810Y-23188000D02*
X11459762Y-23197524D01*
X11459762Y-23197524D02*
X11421667Y-23197524D01*
X11421667Y-23197524D02*
X11402619Y-23188000D01*
X11402619Y-23188000D02*
X11393096Y-23168952D01*
X11393096Y-23168952D02*
X11393096Y-23092762D01*
X11393096Y-23092762D02*
X11402619Y-23073714D01*
X11402619Y-23073714D02*
X11421667Y-23064190D01*
X11421667Y-23064190D02*
X11459762Y-23064190D01*
X11459762Y-23064190D02*
X11478810Y-23073714D01*
X11478810Y-23073714D02*
X11488334Y-23092762D01*
X11488334Y-23092762D02*
X11488334Y-23111809D01*
X11488334Y-23111809D02*
X11393096Y-23130857D01*
X11564524Y-23188000D02*
X11583572Y-23197524D01*
X11583572Y-23197524D02*
X11621667Y-23197524D01*
X11621667Y-23197524D02*
X11640715Y-23188000D01*
X11640715Y-23188000D02*
X11650238Y-23168952D01*
X11650238Y-23168952D02*
X11650238Y-23159428D01*
X11650238Y-23159428D02*
X11640715Y-23140381D01*
X11640715Y-23140381D02*
X11621667Y-23130857D01*
X11621667Y-23130857D02*
X11593096Y-23130857D01*
X11593096Y-23130857D02*
X11574048Y-23121333D01*
X11574048Y-23121333D02*
X11564524Y-23102286D01*
X11564524Y-23102286D02*
X11564524Y-23092762D01*
X11564524Y-23092762D02*
X11574048Y-23073714D01*
X11574048Y-23073714D02*
X11593096Y-23064190D01*
X11593096Y-23064190D02*
X11621667Y-23064190D01*
X11621667Y-23064190D02*
X11640715Y-23073714D01*
X11716905Y-23273714D02*
X11726429Y-23264190D01*
X11726429Y-23264190D02*
X11745477Y-23235619D01*
X11745477Y-23235619D02*
X11755000Y-23216571D01*
X11755000Y-23216571D02*
X11764524Y-23188000D01*
X11764524Y-23188000D02*
X11774048Y-23140381D01*
X11774048Y-23140381D02*
X11774048Y-23102286D01*
X11774048Y-23102286D02*
X11764524Y-23054667D01*
X11764524Y-23054667D02*
X11755000Y-23026095D01*
X11755000Y-23026095D02*
X11745477Y-23007048D01*
X11745477Y-23007048D02*
X11726429Y-22978476D01*
X11726429Y-22978476D02*
X11716905Y-22968952D01*
X12078810Y-23273714D02*
X12069286Y-23264190D01*
X12069286Y-23264190D02*
X12050238Y-23235619D01*
X12050238Y-23235619D02*
X12040715Y-23216571D01*
X12040715Y-23216571D02*
X12031191Y-23188000D01*
X12031191Y-23188000D02*
X12021667Y-23140381D01*
X12021667Y-23140381D02*
X12021667Y-23102286D01*
X12021667Y-23102286D02*
X12031191Y-23054667D01*
X12031191Y-23054667D02*
X12040715Y-23026095D01*
X12040715Y-23026095D02*
X12050238Y-23007048D01*
X12050238Y-23007048D02*
X12069286Y-22978476D01*
X12069286Y-22978476D02*
X12078810Y-22968952D01*
X12155000Y-23064190D02*
X12155000Y-23197524D01*
X12155000Y-23083238D02*
X12164524Y-23073714D01*
X12164524Y-23073714D02*
X12183572Y-23064190D01*
X12183572Y-23064190D02*
X12212143Y-23064190D01*
X12212143Y-23064190D02*
X12231191Y-23073714D01*
X12231191Y-23073714D02*
X12240715Y-23092762D01*
X12240715Y-23092762D02*
X12240715Y-23197524D01*
X12364524Y-23197524D02*
X12345477Y-23188000D01*
X12345477Y-23188000D02*
X12335953Y-23178476D01*
X12335953Y-23178476D02*
X12326429Y-23159428D01*
X12326429Y-23159428D02*
X12326429Y-23102286D01*
X12326429Y-23102286D02*
X12335953Y-23083238D01*
X12335953Y-23083238D02*
X12345477Y-23073714D01*
X12345477Y-23073714D02*
X12364524Y-23064190D01*
X12364524Y-23064190D02*
X12393096Y-23064190D01*
X12393096Y-23064190D02*
X12412143Y-23073714D01*
X12412143Y-23073714D02*
X12421667Y-23083238D01*
X12421667Y-23083238D02*
X12431191Y-23102286D01*
X12431191Y-23102286D02*
X12431191Y-23159428D01*
X12431191Y-23159428D02*
X12421667Y-23178476D01*
X12421667Y-23178476D02*
X12412143Y-23188000D01*
X12412143Y-23188000D02*
X12393096Y-23197524D01*
X12393096Y-23197524D02*
X12364524Y-23197524D01*
X12488334Y-23064190D02*
X12564524Y-23064190D01*
X12516905Y-22997524D02*
X12516905Y-23168952D01*
X12516905Y-23168952D02*
X12526429Y-23188000D01*
X12526429Y-23188000D02*
X12545477Y-23197524D01*
X12545477Y-23197524D02*
X12564524Y-23197524D01*
X12783572Y-23064190D02*
X12783572Y-23264190D01*
X12783572Y-23073714D02*
X12802619Y-23064190D01*
X12802619Y-23064190D02*
X12840715Y-23064190D01*
X12840715Y-23064190D02*
X12859762Y-23073714D01*
X12859762Y-23073714D02*
X12869286Y-23083238D01*
X12869286Y-23083238D02*
X12878810Y-23102286D01*
X12878810Y-23102286D02*
X12878810Y-23159428D01*
X12878810Y-23159428D02*
X12869286Y-23178476D01*
X12869286Y-23178476D02*
X12859762Y-23188000D01*
X12859762Y-23188000D02*
X12840715Y-23197524D01*
X12840715Y-23197524D02*
X12802619Y-23197524D01*
X12802619Y-23197524D02*
X12783572Y-23188000D01*
X12993096Y-23197524D02*
X12974048Y-23188000D01*
X12974048Y-23188000D02*
X12964524Y-23168952D01*
X12964524Y-23168952D02*
X12964524Y-22997524D01*
X13155000Y-23197524D02*
X13155000Y-23092762D01*
X13155000Y-23092762D02*
X13145477Y-23073714D01*
X13145477Y-23073714D02*
X13126429Y-23064190D01*
X13126429Y-23064190D02*
X13088334Y-23064190D01*
X13088334Y-23064190D02*
X13069286Y-23073714D01*
X13155000Y-23188000D02*
X13135953Y-23197524D01*
X13135953Y-23197524D02*
X13088334Y-23197524D01*
X13088334Y-23197524D02*
X13069286Y-23188000D01*
X13069286Y-23188000D02*
X13059762Y-23168952D01*
X13059762Y-23168952D02*
X13059762Y-23149905D01*
X13059762Y-23149905D02*
X13069286Y-23130857D01*
X13069286Y-23130857D02*
X13088334Y-23121333D01*
X13088334Y-23121333D02*
X13135953Y-23121333D01*
X13135953Y-23121333D02*
X13155000Y-23111809D01*
X13221667Y-23064190D02*
X13297858Y-23064190D01*
X13250239Y-22997524D02*
X13250239Y-23168952D01*
X13250239Y-23168952D02*
X13259762Y-23188000D01*
X13259762Y-23188000D02*
X13278810Y-23197524D01*
X13278810Y-23197524D02*
X13297858Y-23197524D01*
X13440715Y-23188000D02*
X13421667Y-23197524D01*
X13421667Y-23197524D02*
X13383572Y-23197524D01*
X13383572Y-23197524D02*
X13364524Y-23188000D01*
X13364524Y-23188000D02*
X13355000Y-23168952D01*
X13355000Y-23168952D02*
X13355000Y-23092762D01*
X13355000Y-23092762D02*
X13364524Y-23073714D01*
X13364524Y-23073714D02*
X13383572Y-23064190D01*
X13383572Y-23064190D02*
X13421667Y-23064190D01*
X13421667Y-23064190D02*
X13440715Y-23073714D01*
X13440715Y-23073714D02*
X13450239Y-23092762D01*
X13450239Y-23092762D02*
X13450239Y-23111809D01*
X13450239Y-23111809D02*
X13355000Y-23130857D01*
X13621667Y-23197524D02*
X13621667Y-22997524D01*
X13621667Y-23188000D02*
X13602620Y-23197524D01*
X13602620Y-23197524D02*
X13564524Y-23197524D01*
X13564524Y-23197524D02*
X13545477Y-23188000D01*
X13545477Y-23188000D02*
X13535953Y-23178476D01*
X13535953Y-23178476D02*
X13526429Y-23159428D01*
X13526429Y-23159428D02*
X13526429Y-23102286D01*
X13526429Y-23102286D02*
X13535953Y-23083238D01*
X13535953Y-23083238D02*
X13545477Y-23073714D01*
X13545477Y-23073714D02*
X13564524Y-23064190D01*
X13564524Y-23064190D02*
X13602620Y-23064190D01*
X13602620Y-23064190D02*
X13621667Y-23073714D01*
X13697858Y-23273714D02*
X13707381Y-23264190D01*
X13707381Y-23264190D02*
X13726429Y-23235619D01*
X13726429Y-23235619D02*
X13735953Y-23216571D01*
X13735953Y-23216571D02*
X13745477Y-23188000D01*
X13745477Y-23188000D02*
X13755000Y-23140381D01*
X13755000Y-23140381D02*
X13755000Y-23102286D01*
X13755000Y-23102286D02*
X13745477Y-23054667D01*
X13745477Y-23054667D02*
X13735953Y-23026095D01*
X13735953Y-23026095D02*
X13726429Y-23007048D01*
X13726429Y-23007048D02*
X13707381Y-22978476D01*
X13707381Y-22978476D02*
X13697858Y-22968952D01*
X6855000Y-23325000D02*
X6855000Y-23525000D01*
X6755000Y-23425000D02*
X6955000Y-23425000D01*
X7183571Y-23317524D02*
X7307381Y-23317524D01*
X7307381Y-23317524D02*
X7240714Y-23393714D01*
X7240714Y-23393714D02*
X7269286Y-23393714D01*
X7269286Y-23393714D02*
X7288333Y-23403238D01*
X7288333Y-23403238D02*
X7297857Y-23412762D01*
X7297857Y-23412762D02*
X7307381Y-23431809D01*
X7307381Y-23431809D02*
X7307381Y-23479428D01*
X7307381Y-23479428D02*
X7297857Y-23498476D01*
X7297857Y-23498476D02*
X7288333Y-23508000D01*
X7288333Y-23508000D02*
X7269286Y-23517524D01*
X7269286Y-23517524D02*
X7212143Y-23517524D01*
X7212143Y-23517524D02*
X7193095Y-23508000D01*
X7193095Y-23508000D02*
X7183571Y-23498476D01*
X7393095Y-23498476D02*
X7402619Y-23508000D01*
X7402619Y-23508000D02*
X7393095Y-23517524D01*
X7393095Y-23517524D02*
X7383571Y-23508000D01*
X7383571Y-23508000D02*
X7393095Y-23498476D01*
X7393095Y-23498476D02*
X7393095Y-23517524D01*
X7583571Y-23317524D02*
X7488333Y-23317524D01*
X7488333Y-23317524D02*
X7478809Y-23412762D01*
X7478809Y-23412762D02*
X7488333Y-23403238D01*
X7488333Y-23403238D02*
X7507381Y-23393714D01*
X7507381Y-23393714D02*
X7555000Y-23393714D01*
X7555000Y-23393714D02*
X7574048Y-23403238D01*
X7574048Y-23403238D02*
X7583571Y-23412762D01*
X7583571Y-23412762D02*
X7593095Y-23431809D01*
X7593095Y-23431809D02*
X7593095Y-23479428D01*
X7593095Y-23479428D02*
X7583571Y-23498476D01*
X7583571Y-23498476D02*
X7574048Y-23508000D01*
X7574048Y-23508000D02*
X7555000Y-23517524D01*
X7555000Y-23517524D02*
X7507381Y-23517524D01*
X7507381Y-23517524D02*
X7488333Y-23508000D01*
X7488333Y-23508000D02*
X7478809Y-23498476D01*
X7716905Y-23317524D02*
X7735952Y-23317524D01*
X7735952Y-23317524D02*
X7755000Y-23327048D01*
X7755000Y-23327048D02*
X7764524Y-23336571D01*
X7764524Y-23336571D02*
X7774048Y-23355619D01*
X7774048Y-23355619D02*
X7783571Y-23393714D01*
X7783571Y-23393714D02*
X7783571Y-23441333D01*
X7783571Y-23441333D02*
X7774048Y-23479428D01*
X7774048Y-23479428D02*
X7764524Y-23498476D01*
X7764524Y-23498476D02*
X7755000Y-23508000D01*
X7755000Y-23508000D02*
X7735952Y-23517524D01*
X7735952Y-23517524D02*
X7716905Y-23517524D01*
X7716905Y-23517524D02*
X7697857Y-23508000D01*
X7697857Y-23508000D02*
X7688333Y-23498476D01*
X7688333Y-23498476D02*
X7678809Y-23479428D01*
X7678809Y-23479428D02*
X7669286Y-23441333D01*
X7669286Y-23441333D02*
X7669286Y-23393714D01*
X7669286Y-23393714D02*
X7678809Y-23355619D01*
X7678809Y-23355619D02*
X7688333Y-23336571D01*
X7688333Y-23336571D02*
X7697857Y-23327048D01*
X7697857Y-23327048D02*
X7716905Y-23317524D01*
X7907381Y-23317524D02*
X7926429Y-23317524D01*
X7926429Y-23317524D02*
X7945476Y-23327048D01*
X7945476Y-23327048D02*
X7955000Y-23336571D01*
X7955000Y-23336571D02*
X7964524Y-23355619D01*
X7964524Y-23355619D02*
X7974048Y-23393714D01*
X7974048Y-23393714D02*
X7974048Y-23441333D01*
X7974048Y-23441333D02*
X7964524Y-23479428D01*
X7964524Y-23479428D02*
X7955000Y-23498476D01*
X7955000Y-23498476D02*
X7945476Y-23508000D01*
X7945476Y-23508000D02*
X7926429Y-23517524D01*
X7926429Y-23517524D02*
X7907381Y-23517524D01*
X7907381Y-23517524D02*
X7888333Y-23508000D01*
X7888333Y-23508000D02*
X7878809Y-23498476D01*
X7878809Y-23498476D02*
X7869286Y-23479428D01*
X7869286Y-23479428D02*
X7859762Y-23441333D01*
X7859762Y-23441333D02*
X7859762Y-23393714D01*
X7859762Y-23393714D02*
X7869286Y-23355619D01*
X7869286Y-23355619D02*
X7878809Y-23336571D01*
X7878809Y-23336571D02*
X7888333Y-23327048D01*
X7888333Y-23327048D02*
X7907381Y-23317524D01*
X8059762Y-23517524D02*
X8059762Y-23384190D01*
X8059762Y-23403238D02*
X8069286Y-23393714D01*
X8069286Y-23393714D02*
X8088333Y-23384190D01*
X8088333Y-23384190D02*
X8116905Y-23384190D01*
X8116905Y-23384190D02*
X8135952Y-23393714D01*
X8135952Y-23393714D02*
X8145476Y-23412762D01*
X8145476Y-23412762D02*
X8145476Y-23517524D01*
X8145476Y-23412762D02*
X8155000Y-23393714D01*
X8155000Y-23393714D02*
X8174048Y-23384190D01*
X8174048Y-23384190D02*
X8202619Y-23384190D01*
X8202619Y-23384190D02*
X8221667Y-23393714D01*
X8221667Y-23393714D02*
X8231190Y-23412762D01*
X8231190Y-23412762D02*
X8231190Y-23517524D01*
X8326429Y-23517524D02*
X8326429Y-23384190D01*
X8326429Y-23403238D02*
X8335952Y-23393714D01*
X8335952Y-23393714D02*
X8355000Y-23384190D01*
X8355000Y-23384190D02*
X8383571Y-23384190D01*
X8383571Y-23384190D02*
X8402619Y-23393714D01*
X8402619Y-23393714D02*
X8412143Y-23412762D01*
X8412143Y-23412762D02*
X8412143Y-23517524D01*
X8412143Y-23412762D02*
X8421667Y-23393714D01*
X8421667Y-23393714D02*
X8440714Y-23384190D01*
X8440714Y-23384190D02*
X8469286Y-23384190D01*
X8469286Y-23384190D02*
X8488333Y-23393714D01*
X8488333Y-23393714D02*
X8497857Y-23412762D01*
X8497857Y-23412762D02*
X8497857Y-23517524D01*
X8888333Y-23308000D02*
X8716905Y-23565143D01*
X9145476Y-23317524D02*
X9164524Y-23317524D01*
X9164524Y-23317524D02*
X9183572Y-23327048D01*
X9183572Y-23327048D02*
X9193095Y-23336571D01*
X9193095Y-23336571D02*
X9202619Y-23355619D01*
X9202619Y-23355619D02*
X9212143Y-23393714D01*
X9212143Y-23393714D02*
X9212143Y-23441333D01*
X9212143Y-23441333D02*
X9202619Y-23479428D01*
X9202619Y-23479428D02*
X9193095Y-23498476D01*
X9193095Y-23498476D02*
X9183572Y-23508000D01*
X9183572Y-23508000D02*
X9164524Y-23517524D01*
X9164524Y-23517524D02*
X9145476Y-23517524D01*
X9145476Y-23517524D02*
X9126429Y-23508000D01*
X9126429Y-23508000D02*
X9116905Y-23498476D01*
X9116905Y-23498476D02*
X9107381Y-23479428D01*
X9107381Y-23479428D02*
X9097857Y-23441333D01*
X9097857Y-23441333D02*
X9097857Y-23393714D01*
X9097857Y-23393714D02*
X9107381Y-23355619D01*
X9107381Y-23355619D02*
X9116905Y-23336571D01*
X9116905Y-23336571D02*
X9126429Y-23327048D01*
X9126429Y-23327048D02*
X9145476Y-23317524D01*
X9297857Y-23498476D02*
X9307381Y-23508000D01*
X9307381Y-23508000D02*
X9297857Y-23517524D01*
X9297857Y-23517524D02*
X9288334Y-23508000D01*
X9288334Y-23508000D02*
X9297857Y-23498476D01*
X9297857Y-23498476D02*
X9297857Y-23517524D01*
X9497857Y-23517524D02*
X9383572Y-23517524D01*
X9440714Y-23517524D02*
X9440714Y-23317524D01*
X9440714Y-23317524D02*
X9421667Y-23346095D01*
X9421667Y-23346095D02*
X9402619Y-23365143D01*
X9402619Y-23365143D02*
X9383572Y-23374667D01*
X9564524Y-23317524D02*
X9688334Y-23317524D01*
X9688334Y-23317524D02*
X9621667Y-23393714D01*
X9621667Y-23393714D02*
X9650238Y-23393714D01*
X9650238Y-23393714D02*
X9669286Y-23403238D01*
X9669286Y-23403238D02*
X9678810Y-23412762D01*
X9678810Y-23412762D02*
X9688334Y-23431809D01*
X9688334Y-23431809D02*
X9688334Y-23479428D01*
X9688334Y-23479428D02*
X9678810Y-23498476D01*
X9678810Y-23498476D02*
X9669286Y-23508000D01*
X9669286Y-23508000D02*
X9650238Y-23517524D01*
X9650238Y-23517524D02*
X9593095Y-23517524D01*
X9593095Y-23517524D02*
X9574048Y-23508000D01*
X9574048Y-23508000D02*
X9564524Y-23498476D01*
X9755000Y-23317524D02*
X9888334Y-23317524D01*
X9888334Y-23317524D02*
X9802619Y-23517524D01*
X9993095Y-23403238D02*
X9974048Y-23393714D01*
X9974048Y-23393714D02*
X9964524Y-23384190D01*
X9964524Y-23384190D02*
X9955000Y-23365143D01*
X9955000Y-23365143D02*
X9955000Y-23355619D01*
X9955000Y-23355619D02*
X9964524Y-23336571D01*
X9964524Y-23336571D02*
X9974048Y-23327048D01*
X9974048Y-23327048D02*
X9993095Y-23317524D01*
X9993095Y-23317524D02*
X10031191Y-23317524D01*
X10031191Y-23317524D02*
X10050238Y-23327048D01*
X10050238Y-23327048D02*
X10059762Y-23336571D01*
X10059762Y-23336571D02*
X10069286Y-23355619D01*
X10069286Y-23355619D02*
X10069286Y-23365143D01*
X10069286Y-23365143D02*
X10059762Y-23384190D01*
X10059762Y-23384190D02*
X10050238Y-23393714D01*
X10050238Y-23393714D02*
X10031191Y-23403238D01*
X10031191Y-23403238D02*
X9993095Y-23403238D01*
X9993095Y-23403238D02*
X9974048Y-23412762D01*
X9974048Y-23412762D02*
X9964524Y-23422286D01*
X9964524Y-23422286D02*
X9955000Y-23441333D01*
X9955000Y-23441333D02*
X9955000Y-23479428D01*
X9955000Y-23479428D02*
X9964524Y-23498476D01*
X9964524Y-23498476D02*
X9974048Y-23508000D01*
X9974048Y-23508000D02*
X9993095Y-23517524D01*
X9993095Y-23517524D02*
X10031191Y-23517524D01*
X10031191Y-23517524D02*
X10050238Y-23508000D01*
X10050238Y-23508000D02*
X10059762Y-23498476D01*
X10059762Y-23498476D02*
X10069286Y-23479428D01*
X10069286Y-23479428D02*
X10069286Y-23441333D01*
X10069286Y-23441333D02*
X10059762Y-23422286D01*
X10059762Y-23422286D02*
X10050238Y-23412762D01*
X10050238Y-23412762D02*
X10031191Y-23403238D01*
X10145476Y-23317524D02*
X10145476Y-23355619D01*
X10221667Y-23317524D02*
X10221667Y-23355619D01*
X10516905Y-23593714D02*
X10507381Y-23584190D01*
X10507381Y-23584190D02*
X10488334Y-23555619D01*
X10488334Y-23555619D02*
X10478810Y-23536571D01*
X10478810Y-23536571D02*
X10469286Y-23508000D01*
X10469286Y-23508000D02*
X10459762Y-23460381D01*
X10459762Y-23460381D02*
X10459762Y-23422286D01*
X10459762Y-23422286D02*
X10469286Y-23374667D01*
X10469286Y-23374667D02*
X10478810Y-23346095D01*
X10478810Y-23346095D02*
X10488334Y-23327048D01*
X10488334Y-23327048D02*
X10507381Y-23298476D01*
X10507381Y-23298476D02*
X10516905Y-23288952D01*
X10678810Y-23384190D02*
X10678810Y-23517524D01*
X10631191Y-23308000D02*
X10583572Y-23450857D01*
X10583572Y-23450857D02*
X10707381Y-23450857D01*
X10935953Y-23517524D02*
X10935953Y-23317524D01*
X11021667Y-23517524D02*
X11021667Y-23412762D01*
X11021667Y-23412762D02*
X11012143Y-23393714D01*
X11012143Y-23393714D02*
X10993096Y-23384190D01*
X10993096Y-23384190D02*
X10964524Y-23384190D01*
X10964524Y-23384190D02*
X10945477Y-23393714D01*
X10945477Y-23393714D02*
X10935953Y-23403238D01*
X11145477Y-23517524D02*
X11126429Y-23508000D01*
X11126429Y-23508000D02*
X11116905Y-23498476D01*
X11116905Y-23498476D02*
X11107381Y-23479428D01*
X11107381Y-23479428D02*
X11107381Y-23422286D01*
X11107381Y-23422286D02*
X11116905Y-23403238D01*
X11116905Y-23403238D02*
X11126429Y-23393714D01*
X11126429Y-23393714D02*
X11145477Y-23384190D01*
X11145477Y-23384190D02*
X11174048Y-23384190D01*
X11174048Y-23384190D02*
X11193096Y-23393714D01*
X11193096Y-23393714D02*
X11202619Y-23403238D01*
X11202619Y-23403238D02*
X11212143Y-23422286D01*
X11212143Y-23422286D02*
X11212143Y-23479428D01*
X11212143Y-23479428D02*
X11202619Y-23498476D01*
X11202619Y-23498476D02*
X11193096Y-23508000D01*
X11193096Y-23508000D02*
X11174048Y-23517524D01*
X11174048Y-23517524D02*
X11145477Y-23517524D01*
X11326429Y-23517524D02*
X11307381Y-23508000D01*
X11307381Y-23508000D02*
X11297857Y-23488952D01*
X11297857Y-23488952D02*
X11297857Y-23317524D01*
X11478810Y-23508000D02*
X11459762Y-23517524D01*
X11459762Y-23517524D02*
X11421667Y-23517524D01*
X11421667Y-23517524D02*
X11402619Y-23508000D01*
X11402619Y-23508000D02*
X11393096Y-23488952D01*
X11393096Y-23488952D02*
X11393096Y-23412762D01*
X11393096Y-23412762D02*
X11402619Y-23393714D01*
X11402619Y-23393714D02*
X11421667Y-23384190D01*
X11421667Y-23384190D02*
X11459762Y-23384190D01*
X11459762Y-23384190D02*
X11478810Y-23393714D01*
X11478810Y-23393714D02*
X11488334Y-23412762D01*
X11488334Y-23412762D02*
X11488334Y-23431809D01*
X11488334Y-23431809D02*
X11393096Y-23450857D01*
X11564524Y-23508000D02*
X11583572Y-23517524D01*
X11583572Y-23517524D02*
X11621667Y-23517524D01*
X11621667Y-23517524D02*
X11640715Y-23508000D01*
X11640715Y-23508000D02*
X11650238Y-23488952D01*
X11650238Y-23488952D02*
X11650238Y-23479428D01*
X11650238Y-23479428D02*
X11640715Y-23460381D01*
X11640715Y-23460381D02*
X11621667Y-23450857D01*
X11621667Y-23450857D02*
X11593096Y-23450857D01*
X11593096Y-23450857D02*
X11574048Y-23441333D01*
X11574048Y-23441333D02*
X11564524Y-23422286D01*
X11564524Y-23422286D02*
X11564524Y-23412762D01*
X11564524Y-23412762D02*
X11574048Y-23393714D01*
X11574048Y-23393714D02*
X11593096Y-23384190D01*
X11593096Y-23384190D02*
X11621667Y-23384190D01*
X11621667Y-23384190D02*
X11640715Y-23393714D01*
X11716905Y-23593714D02*
X11726429Y-23584190D01*
X11726429Y-23584190D02*
X11745477Y-23555619D01*
X11745477Y-23555619D02*
X11755000Y-23536571D01*
X11755000Y-23536571D02*
X11764524Y-23508000D01*
X11764524Y-23508000D02*
X11774048Y-23460381D01*
X11774048Y-23460381D02*
X11774048Y-23422286D01*
X11774048Y-23422286D02*
X11764524Y-23374667D01*
X11764524Y-23374667D02*
X11755000Y-23346095D01*
X11755000Y-23346095D02*
X11745477Y-23327048D01*
X11745477Y-23327048D02*
X11726429Y-23298476D01*
X11726429Y-23298476D02*
X11716905Y-23288952D01*
X12078810Y-23593714D02*
X12069286Y-23584190D01*
X12069286Y-23584190D02*
X12050238Y-23555619D01*
X12050238Y-23555619D02*
X12040715Y-23536571D01*
X12040715Y-23536571D02*
X12031191Y-23508000D01*
X12031191Y-23508000D02*
X12021667Y-23460381D01*
X12021667Y-23460381D02*
X12021667Y-23422286D01*
X12021667Y-23422286D02*
X12031191Y-23374667D01*
X12031191Y-23374667D02*
X12040715Y-23346095D01*
X12040715Y-23346095D02*
X12050238Y-23327048D01*
X12050238Y-23327048D02*
X12069286Y-23298476D01*
X12069286Y-23298476D02*
X12078810Y-23288952D01*
X12155000Y-23384190D02*
X12155000Y-23517524D01*
X12155000Y-23403238D02*
X12164524Y-23393714D01*
X12164524Y-23393714D02*
X12183572Y-23384190D01*
X12183572Y-23384190D02*
X12212143Y-23384190D01*
X12212143Y-23384190D02*
X12231191Y-23393714D01*
X12231191Y-23393714D02*
X12240715Y-23412762D01*
X12240715Y-23412762D02*
X12240715Y-23517524D01*
X12364524Y-23517524D02*
X12345477Y-23508000D01*
X12345477Y-23508000D02*
X12335953Y-23498476D01*
X12335953Y-23498476D02*
X12326429Y-23479428D01*
X12326429Y-23479428D02*
X12326429Y-23422286D01*
X12326429Y-23422286D02*
X12335953Y-23403238D01*
X12335953Y-23403238D02*
X12345477Y-23393714D01*
X12345477Y-23393714D02*
X12364524Y-23384190D01*
X12364524Y-23384190D02*
X12393096Y-23384190D01*
X12393096Y-23384190D02*
X12412143Y-23393714D01*
X12412143Y-23393714D02*
X12421667Y-23403238D01*
X12421667Y-23403238D02*
X12431191Y-23422286D01*
X12431191Y-23422286D02*
X12431191Y-23479428D01*
X12431191Y-23479428D02*
X12421667Y-23498476D01*
X12421667Y-23498476D02*
X12412143Y-23508000D01*
X12412143Y-23508000D02*
X12393096Y-23517524D01*
X12393096Y-23517524D02*
X12364524Y-23517524D01*
X12488334Y-23384190D02*
X12564524Y-23384190D01*
X12516905Y-23317524D02*
X12516905Y-23488952D01*
X12516905Y-23488952D02*
X12526429Y-23508000D01*
X12526429Y-23508000D02*
X12545477Y-23517524D01*
X12545477Y-23517524D02*
X12564524Y-23517524D01*
X12783572Y-23384190D02*
X12783572Y-23584190D01*
X12783572Y-23393714D02*
X12802619Y-23384190D01*
X12802619Y-23384190D02*
X12840715Y-23384190D01*
X12840715Y-23384190D02*
X12859762Y-23393714D01*
X12859762Y-23393714D02*
X12869286Y-23403238D01*
X12869286Y-23403238D02*
X12878810Y-23422286D01*
X12878810Y-23422286D02*
X12878810Y-23479428D01*
X12878810Y-23479428D02*
X12869286Y-23498476D01*
X12869286Y-23498476D02*
X12859762Y-23508000D01*
X12859762Y-23508000D02*
X12840715Y-23517524D01*
X12840715Y-23517524D02*
X12802619Y-23517524D01*
X12802619Y-23517524D02*
X12783572Y-23508000D01*
X12993096Y-23517524D02*
X12974048Y-23508000D01*
X12974048Y-23508000D02*
X12964524Y-23488952D01*
X12964524Y-23488952D02*
X12964524Y-23317524D01*
X13155000Y-23517524D02*
X13155000Y-23412762D01*
X13155000Y-23412762D02*
X13145477Y-23393714D01*
X13145477Y-23393714D02*
X13126429Y-23384190D01*
X13126429Y-23384190D02*
X13088334Y-23384190D01*
X13088334Y-23384190D02*
X13069286Y-23393714D01*
X13155000Y-23508000D02*
X13135953Y-23517524D01*
X13135953Y-23517524D02*
X13088334Y-23517524D01*
X13088334Y-23517524D02*
X13069286Y-23508000D01*
X13069286Y-23508000D02*
X13059762Y-23488952D01*
X13059762Y-23488952D02*
X13059762Y-23469905D01*
X13059762Y-23469905D02*
X13069286Y-23450857D01*
X13069286Y-23450857D02*
X13088334Y-23441333D01*
X13088334Y-23441333D02*
X13135953Y-23441333D01*
X13135953Y-23441333D02*
X13155000Y-23431809D01*
X13221667Y-23384190D02*
X13297858Y-23384190D01*
X13250239Y-23317524D02*
X13250239Y-23488952D01*
X13250239Y-23488952D02*
X13259762Y-23508000D01*
X13259762Y-23508000D02*
X13278810Y-23517524D01*
X13278810Y-23517524D02*
X13297858Y-23517524D01*
X13440715Y-23508000D02*
X13421667Y-23517524D01*
X13421667Y-23517524D02*
X13383572Y-23517524D01*
X13383572Y-23517524D02*
X13364524Y-23508000D01*
X13364524Y-23508000D02*
X13355000Y-23488952D01*
X13355000Y-23488952D02*
X13355000Y-23412762D01*
X13355000Y-23412762D02*
X13364524Y-23393714D01*
X13364524Y-23393714D02*
X13383572Y-23384190D01*
X13383572Y-23384190D02*
X13421667Y-23384190D01*
X13421667Y-23384190D02*
X13440715Y-23393714D01*
X13440715Y-23393714D02*
X13450239Y-23412762D01*
X13450239Y-23412762D02*
X13450239Y-23431809D01*
X13450239Y-23431809D02*
X13355000Y-23450857D01*
X13621667Y-23517524D02*
X13621667Y-23317524D01*
X13621667Y-23508000D02*
X13602620Y-23517524D01*
X13602620Y-23517524D02*
X13564524Y-23517524D01*
X13564524Y-23517524D02*
X13545477Y-23508000D01*
X13545477Y-23508000D02*
X13535953Y-23498476D01*
X13535953Y-23498476D02*
X13526429Y-23479428D01*
X13526429Y-23479428D02*
X13526429Y-23422286D01*
X13526429Y-23422286D02*
X13535953Y-23403238D01*
X13535953Y-23403238D02*
X13545477Y-23393714D01*
X13545477Y-23393714D02*
X13564524Y-23384190D01*
X13564524Y-23384190D02*
X13602620Y-23384190D01*
X13602620Y-23384190D02*
X13621667Y-23393714D01*
X13697858Y-23593714D02*
X13707381Y-23584190D01*
X13707381Y-23584190D02*
X13726429Y-23555619D01*
X13726429Y-23555619D02*
X13735953Y-23536571D01*
X13735953Y-23536571D02*
X13745477Y-23508000D01*
X13745477Y-23508000D02*
X13755000Y-23460381D01*
X13755000Y-23460381D02*
X13755000Y-23422286D01*
X13755000Y-23422286D02*
X13745477Y-23374667D01*
X13745477Y-23374667D02*
X13735953Y-23346095D01*
X13735953Y-23346095D02*
X13726429Y-23327048D01*
X13726429Y-23327048D02*
X13707381Y-23298476D01*
X13707381Y-23298476D02*
X13697858Y-23288952D01*
M02*
