M48
; DRILL file {KiCad 7.0.11} date Fri Apr  5 00:58:18 2024
; FORMAT={-:-/ absolute / metric / decimal}
; #@! TF.CreationDate,2024-04-05T00:58:18+03:00
; #@! TF.GenerationSoftware,Kicad,Pcbnew,7.0.11
; #@! TF.FileFunction,Plated,1,2,PTH
FMAT,2
METRIC
; #@! TA.AperFunction,Plated,PTH,ViaDrill
T1C0.400
; #@! TA.AperFunction,Plated,PTH,ComponentDrill
T2C0.500
; #@! TA.AperFunction,Plated,PTH,ComponentDrill
T3C0.600
; #@! TA.AperFunction,Plated,PTH,ComponentDrill
T4C0.750
; #@! TA.AperFunction,Plated,PTH,ComponentDrill
T5C0.762
; #@! TA.AperFunction,Plated,PTH,ComponentDrill
T6C0.800
; #@! TA.AperFunction,Plated,PTH,ComponentDrill
T7C0.900
; #@! TA.AperFunction,Plated,PTH,ComponentDrill
T8C0.990
; #@! TA.AperFunction,Plated,PTH,ComponentDrill
T9C1.000
; #@! TA.AperFunction,Plated,PTH,ComponentDrill
T10C1.200
; #@! TA.AperFunction,Plated,PTH,ComponentDrill
T11C1.300
%
G90
G05
T1
X84.969Y-131.921
X85.976Y-142.695
X88.423Y-123.615
X88.665Y-131.485
X89.284Y-159.654
X90.499Y-142.695
X94.265Y-163.874
X98.684Y-202.98
X103.684Y-164.517
X107.163Y-185.144
X107.27Y-153.618
X107.753Y-166.643
X108.233Y-164.075
X109.192Y-191.408
X109.817Y-188.086
X110.034Y-158.998
X110.035Y-115.372
X110.993Y-140.937
X111.005Y-157.701
X111.097Y-168.097
X111.711Y-121.374
X111.908Y-197.041
X112.3Y-186.08
X112.932Y-202.703
X113.31Y-117.952
X114.767Y-145.104
X115.177Y-158.836
X115.213Y-171.702
X115.265Y-113.935
X115.468Y-166.78
X115.928Y-170.342
X115.942Y-179.828
X115.956Y-149.799
X115.965Y-182.965
X116.535Y-184.664
X117.107Y-151.619
X117.559Y-140.937
X117.728Y-100.15
X119.297Y-141.69
X119.99Y-184.15
X121.227Y-180.485
X123.53Y-128.581
X123.709Y-105.277
X124.502Y-164.666
X126.228Y-163.06
X126.926Y-150.908
X127.264Y-152.395
X128.516Y-175.855
X128.958Y-157.472
X129.985Y-187.625
X130.577Y-139.447
X130.609Y-176.59
X132.059Y-161.491
X132.538Y-173.284
X134.101Y-142.419
X134.132Y-166.32
X134.19Y-177.323
X134.803Y-174.373
X134.968Y-132.271
X134.968Y-139.447
X135.113Y-175.375
X135.756Y-173.058
X135.784Y-140.737
X136.306Y-166.32
X136.523Y-107.374
X136.525Y-157.424
X136.574Y-99.52
X136.758Y-172.919
X137.314Y-103.068
X137.375Y-184.966
X137.691Y-123.384
X138.22Y-177.233
X138.387Y-174.418
X138.436Y-213.938
X138.461Y-208.832
X138.487Y-216.122
X138.806Y-184.551
X139.168Y-175.139
X139.643Y-102.341
X139.797Y-178.577
X139.807Y-108.848
X140.626Y-179.569
X140.678Y-173.691
X140.939Y-177.434
X140.963Y-175.432
X141.732Y-132.881
X141.83Y-165.182
X142.233Y-125.453
X142.346Y-141.806
X142.721Y-140.766
X143.508Y-176.609
X143.592Y-92.043
X143.797Y-173.702
X143.876Y-100.167
X144.302Y-165.297
X144.369Y-174.573
X144.425Y-163.132
X144.628Y-127.444
X144.742Y-150.035
X145.131Y-146.291
X145.513Y-152.845
X145.802Y-184.551
X145.897Y-201.303
X146.081Y-89.122
X146.457Y-139.431
X147.401Y-132.565
X148.167Y-141.806
X149.1Y-119.929
X149.934Y-136.155
X150.12Y-89.148
X150.431Y-123.83
X150.44Y-128.313
X151.137Y-173.702
X151.292Y-130.193
X151.557Y-174.704
X152.491Y-123.976
X152.755Y-129.742
X152.894Y-140.766
X153.054Y-186.235
X154.034Y-128.263
X155.148Y-124.499
X155.17Y-179.794
X155.747Y-119.187
X156.651Y-151.309
X158.426Y-92.399
X159.552Y-157.386
X160.666Y-147.262
X161.974Y-184.148
X162.649Y-129.742
X162.889Y-192.121
X163.547Y-121.883
X163.554Y-170.711
X163.566Y-172.336
X163.657Y-149.766
X163.76Y-93.008
X163.957Y-113.51
X164.016Y-141.14
X164.32Y-175.43
X164.584Y-202.03
X164.866Y-164.92
X165.06Y-121.865
X165.214Y-170.689
X165.393Y-175.0
X165.572Y-190.217
X166.415Y-123.274
X166.451Y-175.136
X166.871Y-179.116
X166.944Y-129.015
X166.959Y-137.236
X167.172Y-140.413
X167.597Y-170.705
X167.869Y-163.212
X168.254Y-128.263
X168.599Y-173.957
X168.824Y-163.752
X168.899Y-150.812
X169.878Y-184.771
X169.9Y-186.972
X170.783Y-153.666
X170.832Y-173.182
X172.075Y-157.337
X173.34Y-158.061
X173.483Y-120.447
X173.618Y-154.501
X174.248Y-180.107
X174.453Y-178.323
X175.218Y-191.852
X176.603Y-189.21
X176.866Y-199.936
X177.701Y-165.382
X178.306Y-117.624
X178.415Y-187.91
X179.094Y-121.488
X183.376Y-165.382
X184.3Y-170.357
X184.435Y-105.834
X184.65Y-112.802
X185.474Y-165.384
X185.979Y-154.39
X186.998Y-121.751
X187.248Y-108.065
X188.01Y-121.587
X188.143Y-164.621
X188.499Y-216.224
X189.334Y-115.298
X189.472Y-177.745
X189.798Y-189.037
X190.273Y-113.284
X190.371Y-142.743
X190.614Y-184.817
X191.065Y-89.452
X191.105Y-134.592
X192.055Y-206.775
X192.055Y-213.328
X192.175Y-136.464
X192.367Y-158.054
X192.501Y-172.532
X192.726Y-126.378
X192.792Y-98.617
X192.995Y-87.751
X193.29Y-165.382
X193.434Y-184.09
X199.802Y-117.976
X199.955Y-100.146
X200.809Y-109.009
X201.575Y-136.064
X202.779Y-123.684
X202.943Y-100.297
X203.09Y-143.433
X203.654Y-177.253
X203.801Y-130.645
X204.385Y-176.54
X207.91Y-195.965
X208.018Y-123.648
X208.252Y-118.781
X208.338Y-122.106
X208.459Y-129.763
X210.395Y-146.734
X210.709Y-141.045
X212.604Y-216.097
X213.598Y-143.511
X213.754Y-130.658
X213.926Y-152.916
X213.981Y-162.563
X214.916Y-176.35
X214.945Y-173.197
X215.105Y-158.027
X215.262Y-161.787
X215.271Y-92.958
X215.342Y-132.801
X215.739Y-135.098
X215.739Y-120.624
X216.038Y-140.431
X216.095Y-176.92
X216.283Y-155.051
X216.59Y-118.716
X216.691Y-128.151
X217.087Y-175.807
X217.271Y-171.55
X217.55Y-132.368
X219.069Y-118.97
X219.545Y-161.332
X221.205Y-156.152
X221.443Y-204.997
X221.595Y-93.389
X222.098Y-139.275
X222.441Y-120.203
X222.529Y-154.866
X222.543Y-135.173
X222.591Y-126.728
X223.275Y-171.699
X223.68Y-196.198
X223.913Y-132.775
X224.323Y-122.084
X226.39Y-131.22
X226.581Y-153.977
X227.311Y-165.232
X227.349Y-90.741
X227.403Y-208.434
X227.736Y-154.499
X227.777Y-175.077
X228.208Y-188.416
X228.225Y-187.414
X228.637Y-165.909
X229.165Y-83.356
X229.957Y-168.483
X230.372Y-93.745
X230.485Y-98.393
X231.352Y-130.236
X231.908Y-94.456
X232.131Y-181.257
X232.67Y-75.0
X233.635Y-89.757
X233.917Y-172.654
X234.297Y-145.257
X234.358Y-148.782
X234.454Y-155.885
X234.961Y-126.559
X235.04Y-167.756
X235.054Y-145.939
X235.196Y-187.866
X235.692Y-133.48
X235.783Y-166.952
X235.91Y-132.478
X236.073Y-85.846
X236.228Y-155.896
X238.334Y-96.082
X238.721Y-180.9
X239.147Y-98.774
X239.315Y-111.216
X239.707Y-126.584
X241.496Y-166.427
X241.579Y-172.332
X241.844Y-175.376
X242.357Y-138.315
X242.707Y-204.058
X245.2Y-155.026
X245.201Y-156.743
X245.652Y-140.903
X246.437Y-129.331
X246.64Y-95.396
X248.807Y-148.49
X248.829Y-185.169
X252.6Y-157.261
X253.267Y-196.358
X253.651Y-165.073
X253.967Y-127.051
X256.771Y-188.511
X258.773Y-114.954
X260.299Y-132.478
X260.556Y-166.252
X261.632Y-163.993
X261.76Y-122.045
X263.172Y-166.122
X265.154Y-141.763
X265.223Y-184.521
X265.962Y-182.506
X268.493Y-90.541
X269.466Y-151.446
X271.497Y-164.566
X273.176Y-96.109
X274.11Y-173.862
X274.84Y-136.904
X275.031Y-193.18
X275.32Y-174.965
X281.802Y-93.901
X282.442Y-153.631
X283.67Y-141.183
X285.243Y-159.247
X286.073Y-148.156
X286.426Y-145.293
X286.814Y-147.429
X287.044Y-209.19
X288.606Y-146.796
X289.335Y-140.934
X289.747Y-163.353
X289.963Y-111.216
X290.327Y-145.351
X291.704Y-106.254
X292.933Y-116.886
X292.959Y-214.524
X293.049Y-138.428
X293.58Y-213.351
X293.875Y-102.052
X294.141Y-96.647
X294.174Y-134.574
X294.255Y-135.618
X294.403Y-157.872
X294.492Y-129.331
X294.863Y-103.385
X295.996Y-117.665
X296.107Y-110.038
X296.214Y-111.04
X296.779Y-102.889
X297.064Y-213.851
X297.53Y-175.455
X298.061Y-192.423
X298.583Y-105.81
X298.598Y-104.046
X299.809Y-208.613
X299.856Y-128.93
X303.104Y-204.068
X304.436Y-137.702
X305.147Y-104.895
X305.281Y-141.144
X306.151Y-123.328
X306.349Y-93.879
X306.375Y-196.374
X306.845Y-102.3
X308.552Y-95.458
X308.674Y-133.066
X308.947Y-185.547
X309.393Y-157.427
X310.429Y-156.392
X311.385Y-142.943
X311.426Y-104.895
X311.798Y-146.868
X312.023Y-178.025
X313.049Y-122.328
X313.235Y-138.159
X313.561Y-204.055
X313.648Y-116.14
X313.971Y-141.479
X315.211Y-96.754
X315.537Y-121.004
X316.217Y-148.678
X318.768Y-163.046
X318.829Y-215.571
X318.934Y-117.589
X319.133Y-128.93
X319.144Y-104.046
X319.526Y-163.773
X320.897Y-145.823
X322.26Y-150.938
X322.282Y-200.437
X322.621Y-108.508
X322.708Y-159.458
X323.471Y-206.787
X323.614Y-104.895
X324.082Y-196.292
X324.268Y-158.431
X326.347Y-192.95
X326.419Y-153.958
X326.653Y-104.895
X326.981Y-206.26
X327.522Y-124.554
X330.075Y-137.247
X330.695Y-135.909
X330.945Y-117.587
X331.509Y-171.831
X331.521Y-213.28
X331.814Y-118.325
X332.471Y-138.671
X333.316Y-161.78
X334.348Y-137.903
X334.397Y-206.851
X334.481Y-114.323
X334.552Y-115.914
X335.496Y-115.18
X335.638Y-162.183
X337.16Y-178.424
X337.208Y-165.203
X337.221Y-105.921
X337.719Y-117.118
X338.372Y-167.903
X339.127Y-95.575
X339.441Y-109.474
X339.674Y-177.399
X339.985Y-140.837
X340.046Y-123.568
X340.25Y-166.191
X340.31Y-188.118
X340.657Y-147.187
X341.072Y-167.013
X341.656Y-129.026
X342.059Y-158.789
X342.127Y-152.133
X342.397Y-119.346
X343.481Y-151.406
X343.507Y-169.448
X344.249Y-170.19
X347.189Y-184.955
X347.409Y-135.347
X348.813Y-186.579
X349.531Y-115.187
X354.389Y-110.734
X354.5Y-161.384
X354.514Y-160.208
T3
X163.416Y-98.349
X165.416Y-98.349
X170.675Y-95.726
X172.675Y-95.726
T4
X106.885Y-95.193
X106.885Y-96.463
X106.885Y-97.733
X219.227Y-95.403
X219.227Y-96.673
X219.227Y-97.943
X226.847Y-95.403
X226.847Y-96.673
X226.847Y-97.943
X234.467Y-95.403
X234.467Y-96.673
X234.467Y-97.943
X242.087Y-95.403
X242.087Y-96.673
X242.087Y-97.943
X298.729Y-159.792
X298.729Y-161.062
X298.729Y-162.332
X351.207Y-183.229
X351.207Y-184.499
X351.207Y-185.769
T5
X208.63Y-78.276
X211.17Y-78.276
X213.71Y-78.276
X216.25Y-78.276
T6
X73.283Y-101.626
X73.283Y-111.786
X76.294Y-117.247
X77.22Y-155.514
X77.22Y-160.514
X78.363Y-101.706
X78.363Y-106.706
X80.522Y-190.185
X80.522Y-195.185
X81.03Y-139.218
X81.03Y-149.378
X81.03Y-152.807
X81.03Y-162.967
X81.03Y-166.523
X81.03Y-176.683
X81.174Y-117.247
X83.443Y-101.626
X83.443Y-111.786
X84.713Y-190.185
X84.713Y-195.185
X87.507Y-130.659
X87.507Y-135.659
X87.634Y-101.793
X87.634Y-106.793
X89.681Y-140.109
X89.681Y-147.729
X89.681Y-161.609
X89.681Y-169.229
X92.206Y-107.849
X92.206Y-115.469
X92.216Y-205.395
X92.216Y-213.015
X92.221Y-118.609
X92.221Y-126.229
X92.221Y-129.359
X92.221Y-136.979
X92.221Y-140.109
X92.221Y-147.729
X92.221Y-150.859
X92.221Y-158.479
X92.221Y-161.609
X92.221Y-169.229
X92.221Y-172.359
X92.221Y-179.979
X92.221Y-183.109
X92.221Y-190.729
X92.221Y-193.859
X92.221Y-201.479
X94.746Y-107.849
X94.746Y-115.469
X94.756Y-205.395
X94.756Y-213.015
X94.761Y-118.609
X94.761Y-126.229
X94.761Y-129.359
X94.761Y-136.979
X94.761Y-140.109
X94.761Y-147.729
X94.761Y-150.859
X94.761Y-158.479
X94.761Y-161.609
X94.761Y-169.229
X94.761Y-172.359
X94.761Y-179.979
X94.761Y-183.109
X94.761Y-190.729
X94.761Y-193.859
X94.761Y-201.479
X95.59Y-101.8
X97.286Y-107.849
X97.286Y-115.469
X97.296Y-205.395
X97.296Y-213.015
X97.301Y-118.609
X97.301Y-126.229
X97.301Y-129.359
X97.301Y-136.979
X97.301Y-140.109
X97.301Y-147.729
X97.301Y-150.859
X97.301Y-158.479
X97.301Y-161.609
X97.301Y-169.229
X97.301Y-172.359
X97.301Y-179.979
X97.301Y-183.109
X97.301Y-190.729
X97.301Y-193.859
X97.301Y-201.479
X99.826Y-107.849
X99.826Y-115.469
X99.836Y-205.395
X99.836Y-213.015
X99.841Y-118.609
X99.841Y-126.229
X99.841Y-129.359
X99.841Y-136.979
X99.841Y-140.109
X99.841Y-147.729
X99.841Y-150.859
X99.841Y-158.479
X99.841Y-161.609
X99.841Y-169.229
X99.841Y-172.359
X99.841Y-179.979
X99.841Y-183.109
X99.841Y-190.729
X99.841Y-193.859
X99.841Y-201.479
X102.366Y-107.849
X102.366Y-115.469
X102.376Y-205.395
X102.376Y-213.015
X102.381Y-118.609
X102.381Y-126.229
X102.381Y-129.359
X102.381Y-136.979
X102.381Y-140.109
X102.381Y-147.729
X102.381Y-150.859
X102.381Y-158.479
X102.381Y-161.609
X102.381Y-169.229
X102.381Y-172.359
X102.381Y-179.979
X102.381Y-183.109
X102.381Y-190.729
X102.381Y-193.859
X102.381Y-201.479
X104.906Y-107.849
X104.906Y-115.469
X104.916Y-205.395
X104.916Y-213.015
X104.921Y-118.609
X104.921Y-126.229
X104.921Y-129.359
X104.921Y-136.979
X104.921Y-140.109
X104.921Y-147.729
X104.921Y-150.859
X104.921Y-158.479
X104.921Y-161.609
X104.921Y-169.229
X104.921Y-172.359
X104.921Y-179.979
X104.921Y-183.109
X104.921Y-190.729
X104.921Y-193.859
X104.921Y-201.479
X105.75Y-101.8
X107.446Y-107.849
X107.446Y-115.469
X107.456Y-205.395
X107.456Y-213.015
X107.461Y-118.609
X107.461Y-126.229
X107.461Y-129.359
X107.461Y-136.979
X107.461Y-140.109
X107.461Y-147.729
X107.461Y-150.859
X107.461Y-158.479
X107.461Y-161.609
X107.461Y-169.229
X107.461Y-172.359
X107.461Y-179.979
X107.461Y-183.109
X107.461Y-190.729
X107.461Y-193.859
X107.461Y-201.479
X110.621Y-103.404
X110.621Y-113.564
X110.748Y-133.884
X110.748Y-144.044
X112.018Y-189.931
X112.018Y-194.931
X113.288Y-155.006
X113.288Y-160.006
X113.976Y-106.333
X113.976Y-111.333
X116.236Y-93.313
X116.236Y-95.853
X116.236Y-98.393
X116.236Y-100.933
X117.225Y-205.395
X117.225Y-213.015
X117.352Y-137.484
X117.352Y-145.104
X117.357Y-103.922
X117.357Y-111.542
X117.357Y-115.109
X117.357Y-122.729
X117.357Y-126.297
X117.357Y-133.917
X117.357Y-182.234
X117.357Y-189.854
X117.357Y-193.422
X117.357Y-201.042
X117.362Y-148.672
X117.362Y-156.292
X117.362Y-159.859
X117.362Y-167.479
X117.362Y-171.047
X117.362Y-178.667
X119.765Y-205.395
X119.765Y-213.015
X119.892Y-137.484
X119.892Y-145.104
X119.897Y-103.922
X119.897Y-111.542
X119.897Y-115.109
X119.897Y-122.729
X119.897Y-126.297
X119.897Y-133.917
X119.897Y-182.234
X119.897Y-189.854
X119.897Y-193.422
X119.897Y-201.042
X119.902Y-148.672
X119.902Y-156.292
X119.902Y-159.859
X119.902Y-167.479
X119.902Y-171.047
X119.902Y-178.667
X122.305Y-205.395
X122.305Y-213.015
X122.432Y-137.484
X122.432Y-145.104
X122.437Y-103.922
X122.437Y-111.542
X122.437Y-115.109
X122.437Y-122.729
X122.437Y-126.297
X122.437Y-133.917
X122.437Y-182.234
X122.437Y-189.854
X122.437Y-193.422
X122.437Y-201.042
X122.442Y-148.672
X122.442Y-156.292
X122.442Y-159.859
X122.442Y-167.479
X122.442Y-171.047
X122.442Y-178.667
X124.845Y-205.395
X124.845Y-213.015
X124.972Y-137.484
X124.972Y-145.104
X124.977Y-103.922
X124.977Y-111.542
X124.977Y-115.109
X124.977Y-122.729
X124.977Y-126.297
X124.977Y-133.917
X124.977Y-182.234
X124.977Y-189.854
X124.977Y-193.422
X124.977Y-201.042
X124.982Y-148.672
X124.982Y-156.292
X124.982Y-159.859
X124.982Y-167.479
X124.982Y-171.047
X124.982Y-178.667
X126.396Y-93.313
X126.396Y-95.853
X126.396Y-98.393
X126.396Y-100.933
X127.385Y-205.395
X127.385Y-213.015
X127.512Y-137.484
X127.512Y-145.104
X127.517Y-103.922
X127.517Y-111.542
X127.517Y-115.109
X127.517Y-122.729
X127.517Y-126.297
X127.517Y-133.917
X127.517Y-182.234
X127.517Y-189.854
X127.517Y-193.422
X127.517Y-201.042
X127.522Y-148.672
X127.522Y-156.292
X127.522Y-159.859
X127.522Y-167.479
X127.522Y-171.047
X127.522Y-178.667
X128.53Y-88.208
X128.555Y-90.773
X128.555Y-93.313
X128.555Y-95.853
X128.555Y-98.393
X128.555Y-100.933
X129.925Y-205.395
X129.925Y-213.015
X130.052Y-137.484
X130.052Y-145.104
X130.057Y-103.922
X130.057Y-111.542
X130.057Y-115.109
X130.057Y-122.729
X130.057Y-126.297
X130.057Y-133.917
X130.057Y-182.234
X130.057Y-189.854
X130.057Y-193.422
X130.057Y-201.042
X130.062Y-148.672
X130.062Y-156.292
X130.062Y-159.859
X130.062Y-167.479
X130.062Y-171.047
X130.062Y-178.667
X132.465Y-205.395
X132.465Y-213.015
X132.592Y-137.484
X132.592Y-145.104
X132.597Y-103.922
X132.597Y-111.542
X132.597Y-115.109
X132.597Y-122.729
X132.597Y-126.297
X132.597Y-133.917
X132.597Y-182.234
X132.597Y-189.854
X132.597Y-193.422
X132.597Y-201.042
X132.602Y-148.672
X132.602Y-156.292
X132.602Y-159.859
X132.602Y-167.479
X132.602Y-171.047
X132.602Y-178.667
X135.142Y-148.672
X135.142Y-156.292
X135.142Y-159.859
X135.142Y-167.479
X135.142Y-171.047
X135.142Y-178.667
X136.302Y-105.556
X136.302Y-115.716
X137.672Y-189.931
X137.672Y-194.931
X138.18Y-135.281
X138.18Y-145.441
X138.69Y-88.208
X138.715Y-90.773
X138.715Y-93.313
X138.715Y-95.853
X138.715Y-98.393
X138.715Y-100.933
X141.636Y-104.682
X141.636Y-109.682
X143.382Y-205.395
X143.382Y-213.015
X143.387Y-196.408
X143.387Y-201.408
X143.397Y-126.297
X143.397Y-133.917
X143.397Y-137.484
X143.397Y-145.104
X143.397Y-148.672
X143.397Y-156.292
X143.397Y-159.859
X143.397Y-167.479
X143.397Y-171.047
X143.397Y-178.667
X143.397Y-182.234
X143.397Y-189.854
X145.922Y-205.395
X145.922Y-213.015
X145.932Y-113.955
X145.932Y-121.575
X145.937Y-126.297
X145.937Y-133.917
X145.937Y-137.484
X145.937Y-145.104
X145.937Y-148.672
X145.937Y-156.292
X145.937Y-159.859
X145.937Y-167.479
X145.937Y-171.047
X145.937Y-178.667
X145.937Y-182.234
X145.937Y-189.854
X146.308Y-98.959
X146.308Y-104.928
X146.315Y-102.119
X146.315Y-107.468
X147.451Y-192.558
X147.451Y-202.718
X148.462Y-205.395
X148.462Y-213.015
X148.472Y-113.955
X148.472Y-121.575
X148.477Y-126.297
X148.477Y-133.917
X148.477Y-137.484
X148.477Y-145.104
X148.477Y-148.672
X148.477Y-156.292
X148.477Y-159.859
X148.477Y-167.479
X148.477Y-171.047
X148.477Y-178.667
X148.477Y-182.234
X148.477Y-189.854
X149.057Y-95.548
X150.499Y-192.558
X150.499Y-202.718
X151.002Y-205.395
X151.002Y-213.015
X151.012Y-113.955
X151.012Y-121.575
X151.017Y-126.297
X151.017Y-133.917
X151.017Y-137.484
X151.017Y-145.104
X151.017Y-148.672
X151.017Y-156.292
X151.017Y-159.859
X151.017Y-167.479
X151.017Y-171.047
X151.017Y-178.667
X151.017Y-182.234
X151.017Y-189.854
X153.542Y-205.395
X153.542Y-213.015
X153.547Y-192.558
X153.547Y-202.718
X153.552Y-113.955
X153.552Y-121.575
X153.557Y-126.297
X153.557Y-133.917
X153.557Y-137.484
X153.557Y-145.104
X153.557Y-148.672
X153.557Y-156.292
X153.557Y-159.859
X153.557Y-167.479
X153.557Y-171.047
X153.557Y-178.667
X153.557Y-182.234
X153.557Y-189.854
X154.057Y-95.548
X156.082Y-205.395
X156.082Y-213.015
X156.092Y-113.955
X156.092Y-121.575
X156.097Y-126.297
X156.097Y-133.917
X156.097Y-137.484
X156.097Y-145.104
X156.097Y-148.672
X156.097Y-156.292
X156.097Y-159.859
X156.097Y-167.479
X156.097Y-171.047
X156.097Y-178.667
X156.097Y-182.234
X156.097Y-189.854
X156.468Y-98.959
X156.468Y-104.928
X156.475Y-102.119
X156.475Y-107.468
X158.622Y-205.395
X158.622Y-213.015
X158.632Y-113.955
X158.632Y-121.575
X158.637Y-126.297
X158.637Y-133.917
X158.637Y-137.484
X158.637Y-145.104
X158.637Y-148.672
X158.637Y-156.292
X158.637Y-159.859
X158.637Y-167.479
X158.637Y-171.047
X158.637Y-178.667
X158.637Y-182.234
X158.637Y-189.854
X161.172Y-113.955
X161.172Y-121.575
X161.177Y-126.297
X161.177Y-133.917
X161.177Y-137.484
X161.177Y-145.104
X161.177Y-148.672
X161.177Y-156.292
X161.177Y-159.859
X161.177Y-167.479
X161.177Y-171.047
X161.177Y-178.667
X161.177Y-182.234
X161.177Y-189.854
X167.39Y-188.407
X167.39Y-193.407
X170.697Y-103.922
X170.697Y-111.542
X170.697Y-115.109
X170.697Y-122.729
X170.707Y-126.297
X170.707Y-133.917
X170.707Y-137.597
X170.707Y-145.217
X170.707Y-148.896
X170.707Y-156.516
X170.707Y-160.196
X170.707Y-167.816
X170.707Y-171.496
X170.707Y-179.116
X170.707Y-182.796
X170.707Y-190.415
X170.707Y-194.095
X170.707Y-201.715
X170.707Y-205.395
X170.707Y-213.015
X173.237Y-103.922
X173.237Y-111.542
X173.237Y-115.109
X173.237Y-122.729
X173.247Y-126.297
X173.247Y-133.917
X173.247Y-137.597
X173.247Y-145.217
X173.247Y-148.896
X173.247Y-156.516
X173.247Y-160.196
X173.247Y-167.816
X173.247Y-171.496
X173.247Y-179.116
X173.247Y-182.796
X173.247Y-190.415
X173.247Y-194.095
X173.247Y-201.715
X173.247Y-205.395
X173.247Y-213.015
X175.777Y-103.922
X175.777Y-111.542
X175.777Y-115.109
X175.777Y-122.729
X175.787Y-126.297
X175.787Y-133.917
X175.787Y-137.597
X175.787Y-145.217
X175.787Y-148.896
X175.787Y-156.516
X175.787Y-160.196
X175.787Y-167.816
X175.787Y-171.496
X175.787Y-179.116
X175.787Y-182.796
X175.787Y-190.415
X175.787Y-194.095
X175.787Y-201.715
X175.787Y-205.395
X175.787Y-213.015
X177.55Y-96.292
X178.317Y-103.922
X178.317Y-111.542
X178.317Y-115.109
X178.317Y-122.729
X178.327Y-126.297
X178.327Y-133.917
X178.327Y-137.597
X178.327Y-145.217
X178.327Y-148.896
X178.327Y-156.516
X178.327Y-160.196
X178.327Y-167.816
X178.327Y-171.496
X178.327Y-179.116
X178.327Y-182.796
X178.327Y-190.415
X178.327Y-194.095
X178.327Y-201.715
X178.327Y-205.395
X178.327Y-213.015
X180.857Y-103.922
X180.857Y-111.542
X180.857Y-115.109
X180.857Y-122.729
X180.867Y-126.297
X180.867Y-133.917
X180.867Y-137.597
X180.867Y-145.217
X180.867Y-148.896
X180.867Y-156.516
X180.867Y-160.196
X180.867Y-167.816
X180.867Y-171.496
X180.867Y-179.116
X180.867Y-182.796
X180.867Y-190.415
X180.867Y-194.095
X180.867Y-201.715
X180.867Y-205.395
X180.867Y-213.015
X183.397Y-103.922
X183.397Y-111.542
X183.397Y-115.109
X183.397Y-122.729
X183.407Y-126.297
X183.407Y-133.917
X183.407Y-137.597
X183.407Y-145.217
X183.407Y-148.896
X183.407Y-156.516
X183.407Y-160.196
X183.407Y-167.816
X183.407Y-171.496
X183.407Y-179.116
X183.407Y-182.796
X183.407Y-190.415
X183.407Y-194.095
X183.407Y-201.715
X183.407Y-205.395
X183.407Y-213.015
X185.937Y-103.922
X185.937Y-111.542
X185.937Y-115.109
X185.937Y-122.729
X185.947Y-126.297
X185.947Y-133.917
X185.947Y-137.597
X185.947Y-145.217
X185.947Y-148.896
X185.947Y-156.516
X185.947Y-160.196
X185.947Y-167.816
X185.947Y-171.496
X185.947Y-179.116
X185.947Y-182.796
X185.947Y-190.415
X185.947Y-194.095
X185.947Y-201.715
X185.947Y-205.395
X185.947Y-213.015
X187.71Y-96.292
X188.487Y-126.297
X188.487Y-133.917
X188.487Y-137.597
X188.487Y-145.217
X188.487Y-148.896
X188.487Y-156.516
X188.487Y-160.196
X188.487Y-167.816
X188.487Y-171.496
X188.487Y-179.116
X188.487Y-182.796
X188.487Y-190.415
X188.487Y-194.095
X188.487Y-201.715
X188.487Y-205.395
X188.487Y-213.015
X190.758Y-96.292
X191.525Y-103.922
X191.525Y-111.542
X191.525Y-115.109
X191.525Y-122.729
X191.647Y-178.541
X191.647Y-183.541
X191.647Y-195.773
X191.647Y-200.773
X194.065Y-103.922
X194.065Y-111.542
X194.065Y-115.109
X194.065Y-122.729
X194.832Y-126.297
X194.832Y-133.917
X194.832Y-137.597
X194.832Y-145.217
X194.832Y-148.896
X194.832Y-156.516
X194.832Y-160.196
X194.832Y-167.816
X194.832Y-171.496
X194.832Y-179.116
X194.832Y-182.796
X194.832Y-190.415
X194.832Y-194.095
X194.832Y-201.715
X194.832Y-205.395
X194.832Y-213.015
X196.605Y-103.922
X196.605Y-111.542
X196.605Y-115.109
X196.605Y-122.729
X197.372Y-126.297
X197.372Y-133.917
X197.372Y-137.597
X197.372Y-145.217
X197.372Y-148.896
X197.372Y-156.516
X197.372Y-160.196
X197.372Y-167.816
X197.372Y-171.496
X197.372Y-179.116
X197.372Y-182.796
X197.372Y-190.415
X197.372Y-194.095
X197.372Y-201.715
X197.372Y-205.395
X197.372Y-213.015
X199.145Y-103.922
X199.145Y-111.542
X199.145Y-115.109
X199.145Y-122.729
X199.912Y-126.297
X199.912Y-133.917
X199.912Y-137.597
X199.912Y-145.217
X199.912Y-148.896
X199.912Y-156.516
X199.912Y-160.196
X199.912Y-167.816
X199.912Y-171.496
X199.912Y-179.116
X199.912Y-182.796
X199.912Y-190.415
X199.912Y-194.095
X199.912Y-201.715
X199.912Y-205.395
X199.912Y-213.015
X200.918Y-96.292
X201.685Y-103.922
X201.685Y-111.542
X201.685Y-115.109
X201.685Y-122.729
X202.452Y-126.297
X202.452Y-133.917
X202.452Y-137.597
X202.452Y-145.217
X202.452Y-148.896
X202.452Y-156.516
X202.452Y-160.196
X202.452Y-167.816
X202.452Y-171.496
X202.452Y-179.116
X202.452Y-182.796
X202.452Y-190.415
X202.452Y-194.095
X202.452Y-201.715
X202.452Y-205.395
X202.452Y-213.015
X204.225Y-103.922
X204.225Y-111.542
X204.225Y-115.109
X204.225Y-122.729
X204.992Y-126.297
X204.992Y-133.917
X204.992Y-137.597
X204.992Y-145.217
X204.992Y-148.896
X204.992Y-156.516
X204.992Y-160.196
X204.992Y-167.816
X204.992Y-171.496
X204.992Y-179.116
X204.992Y-182.796
X204.992Y-190.415
X204.992Y-194.095
X204.992Y-201.715
X204.992Y-205.395
X204.992Y-213.015
X206.765Y-103.922
X206.765Y-111.542
X206.765Y-115.109
X206.765Y-122.729
X207.532Y-126.297
X207.532Y-133.917
X207.532Y-137.597
X207.532Y-145.217
X207.532Y-148.896
X207.532Y-156.516
X207.532Y-160.196
X207.532Y-167.816
X207.532Y-171.496
X207.532Y-179.116
X207.532Y-182.796
X207.532Y-190.415
X207.532Y-194.095
X207.532Y-201.715
X207.532Y-205.395
X207.532Y-213.015
X210.072Y-126.297
X210.072Y-133.917
X210.072Y-137.597
X210.072Y-145.217
X210.072Y-148.896
X210.072Y-156.516
X210.072Y-160.196
X210.072Y-167.816
X210.072Y-171.496
X210.072Y-179.116
X210.072Y-182.796
X210.072Y-190.415
X210.072Y-194.095
X210.072Y-201.715
X210.072Y-205.395
X210.072Y-213.015
X210.824Y-103.277
X210.824Y-113.437
X212.612Y-126.297
X212.612Y-133.917
X212.612Y-137.597
X212.612Y-145.217
X212.612Y-148.896
X212.612Y-156.516
X212.612Y-160.196
X212.612Y-167.816
X212.612Y-171.496
X212.612Y-179.116
X212.612Y-182.796
X212.612Y-190.415
X212.612Y-194.095
X212.612Y-201.715
X212.612Y-205.395
X212.612Y-213.015
X214.126Y-108.231
X214.126Y-113.231
X215.904Y-116.749
X215.904Y-124.369
X217.174Y-103.277
X217.174Y-113.437
X217.555Y-189.931
X217.555Y-194.931
X218.444Y-116.749
X218.444Y-124.369
X219.587Y-129.479
X219.587Y-134.479
X219.714Y-141.036
X219.714Y-146.036
X220.349Y-108.151
X220.349Y-113.151
X220.984Y-116.749
X220.984Y-124.369
X221.756Y-183.043
X221.756Y-190.663
X223.524Y-103.15
X223.524Y-113.31
X223.524Y-116.749
X223.524Y-124.369
X224.281Y-205.409
X224.281Y-213.029
X224.291Y-193.838
X224.291Y-201.458
X224.296Y-183.043
X224.296Y-190.663
X224.423Y-128.179
X224.423Y-135.799
X224.423Y-139.736
X224.423Y-147.356
X224.423Y-151.293
X224.423Y-158.913
X224.423Y-162.85
X224.423Y-170.47
X226.064Y-116.749
X226.064Y-124.369
X226.699Y-103.15
X226.699Y-113.31
X226.821Y-205.409
X226.821Y-213.029
X226.831Y-193.838
X226.831Y-201.458
X226.836Y-183.043
X226.836Y-190.663
X226.963Y-128.179
X226.963Y-135.799
X226.963Y-139.736
X226.963Y-147.356
X226.963Y-151.293
X226.963Y-158.913
X226.963Y-162.85
X226.963Y-170.47
X228.604Y-116.749
X228.604Y-124.369
X229.361Y-205.409
X229.361Y-213.029
X229.371Y-193.838
X229.371Y-201.458
X229.376Y-183.043
X229.376Y-190.663
X229.503Y-128.179
X229.503Y-135.799
X229.503Y-139.736
X229.503Y-147.356
X229.503Y-151.293
X229.503Y-158.913
X229.503Y-162.85
X229.503Y-170.47
X229.874Y-103.15
X229.874Y-113.31
X231.144Y-116.749
X231.144Y-124.369
X231.901Y-205.409
X231.901Y-213.029
X231.911Y-193.838
X231.911Y-201.458
X231.916Y-183.043
X231.916Y-190.663
X232.043Y-128.179
X232.043Y-135.799
X232.043Y-139.736
X232.043Y-147.356
X232.043Y-151.293
X232.043Y-158.913
X232.043Y-162.85
X232.043Y-170.47
X233.049Y-103.15
X233.049Y-113.31
X234.441Y-205.409
X234.441Y-213.029
X234.451Y-193.838
X234.451Y-201.458
X234.456Y-183.043
X234.456Y-190.663
X234.583Y-128.179
X234.583Y-135.799
X234.583Y-139.736
X234.583Y-147.356
X234.583Y-151.293
X234.583Y-158.913
X234.583Y-162.85
X234.583Y-170.47
X236.224Y-103.15
X236.224Y-113.31
X236.981Y-205.409
X236.981Y-213.029
X236.991Y-193.838
X236.991Y-201.458
X236.996Y-183.043
X236.996Y-190.663
X237.123Y-128.179
X237.123Y-135.799
X237.123Y-139.736
X237.123Y-147.356
X237.123Y-151.293
X237.123Y-158.913
X237.123Y-162.85
X237.123Y-170.47
X237.179Y-116.749
X237.179Y-124.369
X239.399Y-103.15
X239.399Y-113.31
X239.521Y-205.409
X239.521Y-213.029
X239.531Y-193.838
X239.531Y-201.458
X239.536Y-183.043
X239.536Y-190.663
X239.663Y-128.179
X239.663Y-135.799
X239.663Y-139.736
X239.663Y-147.356
X239.663Y-151.293
X239.663Y-158.913
X239.663Y-162.85
X239.663Y-170.47
X239.719Y-116.749
X239.719Y-124.369
X242.203Y-128.179
X242.203Y-135.799
X242.203Y-139.736
X242.203Y-147.356
X242.203Y-151.293
X242.203Y-158.913
X242.203Y-162.85
X242.203Y-170.47
X242.259Y-116.749
X242.259Y-124.369
X242.574Y-103.15
X242.574Y-113.31
X244.799Y-116.749
X244.799Y-124.369
X244.865Y-183.043
X244.865Y-190.663
X245.319Y-80.486
X245.319Y-90.646
X245.749Y-103.15
X245.749Y-113.31
X247.339Y-116.749
X247.339Y-124.369
X247.4Y-205.419
X247.4Y-213.039
X247.405Y-183.043
X247.405Y-190.663
X247.405Y-193.838
X247.405Y-201.458
X247.537Y-128.179
X247.537Y-135.799
X247.537Y-139.736
X247.537Y-147.356
X247.537Y-151.293
X247.537Y-158.913
X247.537Y-162.85
X247.537Y-170.47
X248.507Y-80.486
X248.507Y-90.646
X248.583Y-103.15
X248.583Y-113.31
X249.879Y-116.749
X249.879Y-124.369
X249.94Y-205.419
X249.94Y-213.039
X249.945Y-183.043
X249.945Y-190.663
X249.945Y-193.838
X249.945Y-201.458
X250.077Y-128.179
X250.077Y-135.799
X250.077Y-139.736
X250.077Y-147.356
X250.077Y-151.293
X250.077Y-158.913
X250.077Y-162.85
X250.077Y-170.47
X251.417Y-103.15
X251.417Y-113.31
X251.618Y-80.461
X251.618Y-90.621
X252.419Y-116.749
X252.419Y-124.369
X252.48Y-205.419
X252.48Y-213.039
X252.485Y-183.043
X252.485Y-190.663
X252.485Y-193.838
X252.485Y-201.458
X252.617Y-128.179
X252.617Y-135.799
X252.617Y-139.736
X252.617Y-147.356
X252.617Y-151.293
X252.617Y-158.913
X252.617Y-162.85
X252.617Y-170.47
X254.512Y-103.15
X254.512Y-113.31
X255.02Y-205.419
X255.02Y-213.039
X255.025Y-183.043
X255.025Y-190.663
X255.025Y-193.838
X255.025Y-201.458
X255.157Y-128.179
X255.157Y-135.799
X255.157Y-139.736
X255.157Y-147.356
X255.157Y-151.293
X255.157Y-158.913
X255.157Y-162.85
X255.157Y-170.47
X257.56Y-205.419
X257.56Y-213.039
X257.565Y-183.043
X257.565Y-190.663
X257.565Y-193.838
X257.565Y-201.458
X257.585Y-103.15
X257.585Y-113.31
X257.697Y-128.179
X257.697Y-135.799
X257.697Y-139.736
X257.697Y-147.356
X257.697Y-151.293
X257.697Y-158.913
X257.697Y-162.85
X257.697Y-170.47
X258.454Y-116.749
X258.454Y-124.369
X260.1Y-205.419
X260.1Y-213.039
X260.105Y-183.043
X260.105Y-190.663
X260.105Y-193.838
X260.105Y-201.458
X260.237Y-128.179
X260.237Y-135.799
X260.237Y-139.736
X260.237Y-147.356
X260.237Y-151.293
X260.237Y-158.913
X260.237Y-162.85
X260.237Y-170.47
X260.669Y-103.15
X260.669Y-113.31
X260.994Y-116.749
X260.994Y-124.369
X262.64Y-205.419
X262.64Y-213.039
X262.645Y-183.043
X262.645Y-190.663
X262.645Y-193.838
X262.645Y-201.458
X262.777Y-128.179
X262.777Y-135.799
X262.777Y-139.736
X262.777Y-147.356
X262.777Y-151.293
X262.777Y-158.913
X262.777Y-162.85
X262.777Y-170.47
X263.504Y-103.15
X263.504Y-113.31
X263.534Y-116.749
X263.534Y-124.369
X265.317Y-128.179
X265.317Y-135.799
X265.317Y-139.736
X265.317Y-147.356
X265.317Y-151.293
X265.317Y-158.913
X265.317Y-162.85
X265.317Y-170.47
X266.074Y-116.749
X266.074Y-124.369
X266.338Y-103.15
X266.338Y-113.31
X266.704Y-215.037
X266.704Y-218.212
X267.72Y-189.931
X267.72Y-194.931
X268.614Y-116.749
X268.614Y-124.369
X269.422Y-103.15
X269.422Y-113.31
X271.149Y-128.169
X271.149Y-138.329
X271.149Y-141.036
X271.149Y-146.036
X271.154Y-116.749
X271.154Y-124.369
X272.506Y-103.15
X272.506Y-113.31
X272.78Y-150.033
X272.78Y-152.573
X272.78Y-155.113
X272.78Y-157.653
X272.78Y-160.193
X272.78Y-162.733
X272.78Y-165.273
X272.78Y-167.813
X273.21Y-176.8
X273.21Y-179.34
X273.21Y-181.88
X273.21Y-184.42
X273.21Y-186.96
X273.21Y-189.5
X273.21Y-192.04
X273.21Y-194.58
X273.21Y-197.12
X273.21Y-199.66
X273.21Y-202.2
X273.21Y-204.74
X273.21Y-207.28
X273.21Y-209.82
X273.694Y-116.749
X273.694Y-124.369
X274.045Y-75.635
X274.045Y-78.175
X274.045Y-80.715
X274.451Y-128.169
X274.451Y-138.329
X275.34Y-103.15
X275.34Y-113.31
X276.864Y-215.037
X276.864Y-218.212
X278.134Y-103.15
X278.134Y-113.31
X280.293Y-125.149
X280.293Y-129.199
X280.293Y-133.249
X280.4Y-150.033
X280.4Y-152.573
X280.4Y-155.113
X280.4Y-157.653
X280.4Y-160.193
X280.4Y-162.733
X280.4Y-165.273
X280.4Y-167.813
X283.595Y-150.013
X283.595Y-152.553
X283.595Y-155.093
X283.595Y-157.633
X283.595Y-160.173
X283.595Y-162.713
X283.595Y-165.253
X283.595Y-167.793
X283.595Y-170.333
X283.595Y-172.873
X284.002Y-75.635
X284.002Y-78.175
X284.002Y-80.715
X284.098Y-99.081
X284.098Y-114.321
X285.326Y-139.091
X286.638Y-99.081
X286.638Y-114.321
X288.45Y-176.8
X288.45Y-179.34
X288.45Y-181.88
X288.45Y-184.42
X288.45Y-186.96
X288.45Y-189.5
X288.45Y-192.04
X288.45Y-194.58
X288.45Y-197.12
X288.45Y-199.66
X288.45Y-202.2
X288.45Y-204.74
X288.45Y-207.28
X288.45Y-209.82
X289.178Y-99.081
X289.178Y-114.321
X290.326Y-139.091
X290.453Y-125.149
X290.453Y-129.199
X290.453Y-133.249
X291.215Y-150.013
X291.215Y-152.553
X291.215Y-155.093
X291.215Y-157.633
X291.215Y-160.173
X291.215Y-162.713
X291.215Y-165.253
X291.215Y-167.793
X291.215Y-170.333
X291.215Y-172.873
X291.718Y-99.081
X291.718Y-114.321
X291.85Y-186.88
X291.85Y-189.42
X291.85Y-191.96
X291.85Y-194.5
X291.85Y-197.04
X291.85Y-199.58
X291.85Y-202.12
X291.85Y-204.66
X291.85Y-207.2
X291.85Y-209.74
X293.96Y-75.635
X293.96Y-78.175
X293.96Y-80.715
X294.258Y-99.081
X294.258Y-114.321
X296.041Y-165.634
X296.041Y-175.794
X296.798Y-99.081
X296.798Y-114.321
X296.818Y-119.528
X296.818Y-134.768
X296.818Y-139.848
X296.818Y-155.088
X299.338Y-99.081
X299.338Y-114.321
X299.358Y-119.528
X299.358Y-134.768
X299.358Y-139.848
X299.358Y-155.088
X299.47Y-182.652
X299.47Y-192.812
X299.47Y-194.971
X299.47Y-205.131
X299.597Y-165.634
X299.597Y-175.794
X301.878Y-99.081
X301.878Y-114.321
X301.898Y-119.528
X301.898Y-134.768
X301.898Y-139.848
X301.898Y-155.088
X302.01Y-182.652
X302.01Y-192.812
X302.01Y-194.971
X302.01Y-205.131
X304.222Y-160.928
X304.222Y-176.168
X304.418Y-99.081
X304.418Y-114.321
X304.438Y-119.528
X304.438Y-134.768
X304.438Y-139.848
X304.438Y-155.088
X304.55Y-182.652
X304.55Y-192.812
X304.55Y-194.971
X304.55Y-205.131
X306.762Y-160.928
X306.762Y-176.168
X306.958Y-99.081
X306.958Y-114.321
X306.978Y-119.528
X306.978Y-134.768
X306.978Y-139.848
X306.978Y-155.088
X307.09Y-182.652
X307.09Y-192.812
X307.09Y-194.971
X307.09Y-205.131
X309.302Y-160.928
X309.302Y-176.168
X309.498Y-99.081
X309.498Y-114.321
X309.518Y-119.528
X309.518Y-134.768
X309.518Y-139.848
X309.518Y-155.088
X309.63Y-182.652
X309.63Y-192.812
X309.63Y-194.971
X309.63Y-205.131
X311.842Y-160.928
X311.842Y-176.168
X312.038Y-99.081
X312.038Y-114.321
X312.058Y-119.528
X312.058Y-134.768
X312.058Y-139.848
X312.058Y-155.088
X312.17Y-182.652
X312.17Y-192.812
X312.17Y-194.971
X312.17Y-205.131
X314.382Y-160.928
X314.382Y-176.168
X314.578Y-99.081
X314.578Y-114.321
X314.598Y-119.528
X314.598Y-134.768
X314.598Y-139.848
X314.598Y-155.088
X314.71Y-182.652
X314.71Y-192.812
X314.71Y-194.971
X314.71Y-205.131
X316.922Y-160.928
X316.922Y-176.168
X317.118Y-99.081
X317.118Y-114.321
X317.138Y-119.528
X317.138Y-134.768
X317.138Y-139.848
X317.138Y-155.088
X317.25Y-182.652
X317.25Y-192.812
X317.25Y-194.971
X317.25Y-205.131
X319.462Y-160.928
X319.462Y-176.168
X319.658Y-99.081
X319.658Y-114.321
X319.678Y-119.528
X319.678Y-134.768
X319.678Y-139.848
X319.678Y-155.088
X321.558Y-182.911
X321.558Y-185.451
X321.558Y-187.991
X321.558Y-190.531
X321.558Y-193.071
X321.558Y-195.611
X321.558Y-198.151
X321.558Y-204.247
X321.558Y-206.787
X321.558Y-209.327
X321.558Y-211.867
X321.558Y-214.407
X321.558Y-216.947
X321.558Y-219.487
X322.002Y-160.928
X322.002Y-176.168
X322.198Y-99.081
X322.198Y-114.321
X322.218Y-119.528
X322.218Y-134.768
X322.218Y-139.848
X322.218Y-155.088
X324.542Y-160.928
X324.542Y-176.168
X324.738Y-99.081
X324.738Y-114.321
X324.758Y-119.528
X324.758Y-134.768
X324.758Y-139.848
X324.758Y-155.088
X327.082Y-160.928
X327.082Y-176.168
X327.278Y-99.081
X327.278Y-114.321
X327.298Y-119.528
X327.298Y-134.768
X327.298Y-139.848
X327.298Y-155.088
X329.178Y-182.911
X329.178Y-185.451
X329.178Y-187.991
X329.178Y-190.531
X329.178Y-193.071
X329.178Y-195.611
X329.178Y-198.151
X329.178Y-204.247
X329.178Y-206.787
X329.178Y-209.327
X329.178Y-211.867
X329.178Y-214.407
X329.178Y-216.947
X329.178Y-219.487
X329.622Y-160.928
X329.622Y-176.168
X329.818Y-99.081
X329.818Y-114.321
X329.838Y-119.528
X329.838Y-134.768
X329.838Y-139.848
X329.838Y-155.088
X332.162Y-160.928
X332.162Y-176.168
X332.358Y-99.081
X332.358Y-114.321
X332.49Y-188.153
X332.49Y-193.153
X334.702Y-160.928
X334.702Y-176.168
X335.782Y-183.038
X335.782Y-185.578
X335.782Y-188.118
X335.782Y-190.658
X335.782Y-193.198
X335.782Y-195.738
X335.782Y-198.278
X336.427Y-104.206
X336.427Y-109.206
X336.427Y-121.986
X336.427Y-126.986
X336.427Y-129.762
X336.427Y-139.922
X336.427Y-143.83
X336.427Y-148.83
X337.062Y-214.275
X337.242Y-160.928
X337.242Y-176.168
X340.618Y-172.238
X340.618Y-175.413
X340.872Y-88.799
X340.872Y-91.339
X340.872Y-93.879
X340.872Y-96.419
X340.872Y-98.959
X340.872Y-101.499
X340.872Y-104.039
X340.872Y-106.579
X340.872Y-109.119
X340.872Y-111.659
X343.402Y-183.038
X343.402Y-185.578
X343.402Y-188.118
X343.402Y-190.658
X343.402Y-193.198
X343.402Y-195.738
X343.402Y-198.278
X347.095Y-190.526
X347.095Y-200.686
X347.222Y-214.275
X350.651Y-190.526
X350.651Y-200.686
X350.778Y-172.238
X350.778Y-175.413
X353.695Y-203.327
X353.695Y-213.487
X354.334Y-193.106
X354.334Y-198.106
T7
X85.153Y-83.744
X85.153Y-90.744
T8
X253.507Y-74.505
X258.007Y-74.505
T9
X99.2Y-84.923
X99.2Y-87.463
X143.641Y-77.438
X146.181Y-77.438
X148.721Y-77.438
X151.261Y-77.438
X153.801Y-77.438
X156.341Y-77.438
X158.515Y-193.955
X161.025Y-197.638
X161.055Y-193.955
X163.565Y-197.638
X163.595Y-193.955
X164.469Y-77.438
X167.009Y-77.438
X169.549Y-77.438
X172.089Y-77.438
X174.629Y-77.438
X177.169Y-77.438
X187.827Y-77.438
X190.367Y-77.438
X192.907Y-77.438
X195.447Y-77.438
X207.649Y-94.086
X207.649Y-99.086
X226.953Y-77.438
X229.493Y-77.438
X232.033Y-77.438
X234.573Y-77.438
X237.113Y-77.438
X239.653Y-77.438
X259.831Y-94.763
X259.831Y-97.303
X262.371Y-94.763
X262.371Y-97.303
X264.911Y-94.763
X264.911Y-97.303
X277.82Y-116.688
X277.825Y-120.447
X280.36Y-116.688
X280.365Y-120.447
X283.976Y-215.409
X283.976Y-217.948
X286.516Y-215.409
X286.516Y-217.948
X289.056Y-215.409
X289.056Y-217.948
X291.596Y-215.409
X291.596Y-217.948
X294.136Y-215.409
X294.136Y-217.948
X296.676Y-215.409
X296.676Y-217.948
X299.216Y-215.409
X299.216Y-217.948
X301.756Y-215.409
X301.756Y-217.948
X304.296Y-215.409
X304.296Y-217.948
X306.836Y-215.409
X306.836Y-217.948
X309.376Y-215.409
X309.376Y-217.948
X311.916Y-215.409
X311.916Y-217.948
X340.112Y-133.496
X340.112Y-136.036
X341.522Y-205.893
X344.062Y-205.893
X346.159Y-81.56
X346.159Y-84.06
X346.159Y-86.56
X346.159Y-89.06
X346.159Y-91.56
X346.159Y-94.06
X346.159Y-96.56
X346.159Y-99.06
X346.159Y-101.56
X346.159Y-104.06
X346.159Y-106.56
X346.159Y-109.06
X346.159Y-111.56
X346.159Y-114.06
X346.159Y-116.56
X346.159Y-119.06
X346.159Y-121.56
X346.159Y-124.06
X346.159Y-126.56
X346.159Y-129.06
X346.159Y-131.56
X346.159Y-134.06
X346.159Y-136.56
X346.159Y-139.06
X346.159Y-141.56
X346.159Y-144.06
X346.159Y-146.56
X346.159Y-149.06
X346.159Y-151.56
X346.159Y-154.06
X346.159Y-156.56
X346.159Y-159.06
X346.602Y-205.893
X348.659Y-81.56
X348.659Y-84.06
X348.659Y-86.56
X348.659Y-89.06
X348.659Y-91.56
X348.659Y-94.06
X348.659Y-96.56
X348.659Y-99.06
X348.659Y-101.56
X348.659Y-104.06
X348.659Y-106.56
X348.659Y-109.06
X348.659Y-111.56
X348.659Y-114.06
X348.659Y-116.56
X348.659Y-119.06
X348.659Y-121.56
X348.659Y-124.06
X348.659Y-126.56
X348.659Y-129.06
X348.659Y-131.56
X348.659Y-134.06
X348.659Y-136.56
X348.659Y-139.06
X348.659Y-141.56
X348.659Y-144.06
X348.659Y-146.56
X348.659Y-149.06
X348.659Y-151.56
X348.659Y-154.06
X348.659Y-156.56
X348.659Y-159.06
X351.159Y-81.56
X351.159Y-84.06
X351.159Y-86.56
X351.159Y-89.06
X351.159Y-91.56
X351.159Y-94.06
X351.159Y-96.56
X351.159Y-99.06
X351.159Y-101.56
X351.159Y-104.06
X351.159Y-106.56
X351.159Y-109.06
X351.159Y-111.56
X351.159Y-114.06
X351.159Y-116.56
X351.159Y-119.06
X351.159Y-121.56
X351.159Y-124.06
X351.159Y-126.56
X351.159Y-129.06
X351.159Y-131.56
X351.159Y-134.06
X351.159Y-136.56
X351.159Y-139.06
X351.159Y-141.56
X351.159Y-144.06
X351.159Y-146.56
X351.159Y-149.06
X351.159Y-151.56
X351.159Y-154.06
X351.159Y-156.56
X351.159Y-159.06
T10
X144.991Y-74.487
X147.491Y-74.187
X152.491Y-74.187
X154.991Y-74.487
X165.819Y-74.487
X168.319Y-74.187
X173.319Y-74.187
X175.819Y-74.487
X186.647Y-74.487
X189.147Y-74.187
X194.147Y-74.187
X196.647Y-74.487
X207.475Y-74.487
X209.975Y-74.187
X214.975Y-74.187
X217.475Y-74.487
X228.303Y-74.487
X230.803Y-74.187
X235.803Y-74.187
X238.303Y-74.487
T11
X142.491Y-84.187
X142.491Y-89.287
X144.991Y-86.687
X149.991Y-84.187
X154.991Y-86.687
X157.491Y-84.187
X157.491Y-89.287
X163.319Y-84.187
X163.319Y-89.287
X165.819Y-86.687
X170.819Y-84.187
X175.819Y-86.687
X178.319Y-84.187
X178.319Y-89.287
X184.147Y-84.187
X186.647Y-86.687
X191.647Y-84.187
X196.647Y-86.687
X199.147Y-84.187
X204.975Y-84.187
X207.475Y-86.687
X212.475Y-84.187
X217.475Y-86.687
X219.975Y-84.187
X225.803Y-84.187
X225.803Y-89.287
X228.303Y-86.687
X233.303Y-84.187
X238.303Y-86.687
X240.803Y-84.187
X240.803Y-89.287
X252.257Y-76.995
X259.267Y-76.995
T2
G00X301.707Y-73.503
M15
G01X301.707Y-73.203
M16
G05
G00X301.707Y-75.503
M15
G01X301.707Y-75.203
M16
G05
G00X303.757Y-76.653
M15
G01X304.057Y-76.653
M16
G05
G00X305.757Y-76.653
M15
G01X306.057Y-76.653
M16
G05
G00X308.107Y-73.503
M15
G01X308.107Y-73.203
M16
G05
G00X308.107Y-75.503
M15
G01X308.107Y-75.203
M16
G05
T9
G00X96.959Y-81.029
M15
G01X96.959Y-78.929
M16
G05
G00X96.959Y-93.629
M15
G01X96.959Y-91.529
M16
G05
M30
