M48
; DRILL file {KiCad 7.0.1} date Mon Apr  8 11:43:44 2024
; FORMAT={-:-/ absolute / inch / decimal}
; #@! TF.CreationDate,2024-04-08T11:43:44+03:00
; #@! TF.GenerationSoftware,Kicad,Pcbnew,7.0.1
; #@! TF.FileFunction,Plated,1,2,PTH
FMAT,2
INCH
; #@! TA.AperFunction,Plated,PTH,ViaDrill
T1C0.0157
; #@! TA.AperFunction,Plated,PTH,ComponentDrill
T2C0.0197
; #@! TA.AperFunction,Plated,PTH,ComponentDrill
T3C0.0236
; #@! TA.AperFunction,Plated,PTH,ComponentDrill
T4C0.0295
; #@! TA.AperFunction,Plated,PTH,ComponentDrill
T5C0.0300
; #@! TA.AperFunction,Plated,PTH,ComponentDrill
T6C0.0315
; #@! TA.AperFunction,Plated,PTH,ComponentDrill
T7C0.0354
; #@! TA.AperFunction,Plated,PTH,ComponentDrill
T8C0.0390
; #@! TA.AperFunction,Plated,PTH,ComponentDrill
T9C0.0394
; #@! TA.AperFunction,Plated,PTH,ComponentDrill
T10C0.0472
; #@! TA.AperFunction,Plated,PTH,ComponentDrill
T11C0.0512
%
G90
G05
T1
X3.3452Y-5.1937
X3.3849Y-5.6179
X3.4812Y-4.8667
X3.4908Y-5.1766
X3.5151Y-6.2856
X3.5629Y-5.6179
X3.7112Y-6.4517
X3.8852Y-7.9914
X4.082Y-6.477
X4.219Y-7.2891
X4.2232Y-6.048
X4.2422Y-6.5607
X4.2611Y-6.4596
X4.2989Y-7.5358
X4.3235Y-7.405
X4.332Y-6.2598
X4.3321Y-4.5422
X4.3698Y-5.5487
X4.3703Y-6.2087
X4.3739Y-6.618
X4.3981Y-4.7785
X4.4058Y-7.7575
X4.4213Y-7.326
X4.4462Y-7.9804
X4.461Y-4.6438
X4.5184Y-5.7128
X4.5345Y-6.2534
X4.5359Y-6.7599
X4.538Y-4.4856
X4.546Y-6.5662
X4.5641Y-6.7064
X4.5647Y-7.0799
X4.5652Y-5.8976
X4.5656Y-7.2033
X4.588Y-7.2702
X4.6105Y-5.9692
X4.6283Y-5.5487
X4.635Y-3.9429
X4.6967Y-5.5783
X4.724Y-7.25
X4.7727Y-7.1057
X4.8634Y-5.0623
X4.8704Y-4.1448
X4.9017Y-6.4829
X4.9696Y-6.4197
X4.9971Y-5.9413
X5.0104Y-5.9998
X5.0597Y-6.9234
X5.0771Y-6.1997
X5.1175Y-7.3868
X5.1408Y-5.49
X5.1421Y-6.9524
X5.1992Y-6.3579
X5.2181Y-6.8222
X5.2796Y-5.607
X5.2808Y-6.548
X5.2831Y-6.9812
X5.3072Y-6.8651
X5.3137Y-5.2075
X5.3137Y-5.49
X5.3194Y-6.9045
X5.3447Y-6.8133
X5.3458Y-5.5408
X5.3664Y-6.548
X5.3749Y-4.2273
X5.375Y-6.1978
X5.3769Y-3.9181
X5.3842Y-6.8079
X5.4061Y-4.0578
X5.4085Y-7.2821
X5.4209Y-4.8576
X5.4417Y-6.9777
X5.4483Y-6.8669
X5.4502Y-8.4227
X5.4512Y-8.2217
X5.4522Y-8.5087
X5.4648Y-7.2658
X5.4791Y-6.8952
X5.4977Y-4.0292
X5.5038Y-7.0306
X5.5042Y-4.2854
X5.5365Y-7.0696
X5.5385Y-6.8382
X5.5488Y-6.9856
X5.5497Y-6.9068
X5.58Y-5.2315
X5.5839Y-6.5032
X5.5997Y-4.9391
X5.6042Y-5.5829
X5.6189Y-5.542
X5.6499Y-6.9531
X5.6532Y-3.6237
X5.6613Y-6.8387
X5.6644Y-3.9436
X5.6812Y-6.5078
X5.6838Y-6.8729
X5.686Y-6.4225
X5.694Y-5.0175
X5.6985Y-5.9069
X5.7138Y-5.7595
X5.7289Y-6.0175
X5.7403Y-7.2658
X5.744Y-7.9253
X5.7512Y-3.5087
X5.766Y-5.4894
X5.8032Y-5.2191
X5.8334Y-5.5829
X5.8701Y-4.7216
X5.9029Y-5.3604
X5.9102Y-3.5097
X5.9225Y-4.8752
X5.9228Y-5.0517
X5.9503Y-6.8387
X5.9564Y-5.1257
X5.9668Y-6.8781
X6.0036Y-4.881
X6.014Y-5.1079
X6.0194Y-5.542
X6.0257Y-7.3321
X6.0643Y-5.0497
X6.1082Y-4.9015
X6.109Y-7.0785
X6.1318Y-4.6924
X6.1674Y-5.957
X6.2372Y-3.6377
X6.2816Y-6.1963
X6.3254Y-5.7977
X6.3769Y-7.2499
X6.4035Y-5.1079
X6.413Y-7.5638
X6.4389Y-4.7985
X6.4391Y-6.7209
X6.4396Y-6.7849
X6.4432Y-5.8963
X6.4472Y-3.6617
X6.455Y-4.4689
X6.4573Y-5.5567
X6.4693Y-6.9067
X6.4797Y-7.9539
X6.4908Y-6.4929
X6.4984Y-4.7978
X6.5045Y-6.72
X6.5115Y-6.8898
X6.5186Y-7.4889
X6.5518Y-4.8533
X6.5532Y-6.8951
X6.5697Y-7.0518
X6.5726Y-5.0793
X6.5732Y-5.403
X6.5816Y-5.5281
X6.5983Y-6.7207
X6.609Y-6.4256
X6.6242Y-5.0497
X6.6378Y-6.8487
X6.6466Y-6.4469
X6.6496Y-5.9375
X6.6881Y-7.2744
X6.689Y-7.3611
X6.7237Y-6.0499
X6.7257Y-6.8182
X6.7746Y-6.1944
X6.8244Y-6.2229
X6.83Y-4.742
X6.8353Y-6.0827
X6.8602Y-7.0908
X6.8682Y-7.0206
X6.8984Y-7.5532
X6.9529Y-7.4492
X6.9632Y-7.8715
X6.9961Y-6.5111
X7.0199Y-4.6309
X7.0242Y-7.398
X7.051Y-4.783
X7.2195Y-6.5111
X7.2559Y-6.707
X7.2612Y-4.1667
X7.2697Y-4.441
X7.3021Y-6.5112
X7.322Y-6.0784
X7.3621Y-4.7934
X7.372Y-4.2545
X7.402Y-4.7869
X7.4072Y-6.4811
X7.4212Y-8.5127
X7.4541Y-4.5393
X7.4595Y-6.9978
X7.4724Y-7.4424
X7.4911Y-4.46
X7.4949Y-5.6198
X7.5045Y-7.2763
X7.5222Y-3.5217
X7.5238Y-5.2989
X7.5612Y-8.1407
X7.5612Y-8.3987
X7.566Y-5.3726
X7.5735Y-6.2226
X7.5788Y-6.7926
X7.5877Y-4.9755
X7.5903Y-3.8826
X7.5982Y-3.4547
X7.6098Y-6.5111
X7.6155Y-7.2476
X7.8662Y-4.6447
X7.8722Y-3.9427
X7.9059Y-4.2917
X7.936Y-5.3568
X7.9834Y-4.8695
X7.9899Y-3.9487
X7.9957Y-5.647
X8.0179Y-6.9785
X8.0237Y-5.1435
X8.0467Y-6.9504
X8.1854Y-7.7152
X8.1897Y-4.868
X8.1989Y-4.6764
X8.2023Y-4.8073
X8.2071Y-5.1088
X8.2833Y-5.7769
X8.2956Y-5.5529
X8.3702Y-8.5077
X8.4094Y-5.65
X8.4155Y-5.144
X8.4223Y-6.0203
X8.4245Y-6.4001
X8.4613Y-6.9429
X8.4624Y-6.8188
X8.4687Y-6.2215
X8.4749Y-6.3696
X8.4752Y-3.6597
X8.478Y-5.2284
X8.4936Y-5.3188
X8.4937Y-4.749
X8.5054Y-5.5288
X8.5077Y-6.9654
X8.5151Y-6.1044
X8.5272Y-4.6739
X8.5312Y-5.0453
X8.5467Y-6.9215
X8.554Y-6.7539
X8.565Y-5.2113
X8.6248Y-4.6838
X8.6435Y-6.3517
X8.7089Y-6.1477
X8.7182Y-8.0707
X8.7242Y-3.6767
X8.744Y-5.4833
X8.7575Y-4.7324
X8.761Y-6.0971
X8.7615Y-5.3218
X8.7634Y-4.9893
X8.7903Y-6.7598
X8.8063Y-7.7243
X8.8155Y-5.2274
X8.8316Y-4.8065
X8.913Y-5.1661
X8.9205Y-6.0621
X8.9492Y-6.5052
X8.9507Y-3.5725
X8.9529Y-8.206
X8.966Y-6.0827
X8.9676Y-6.8928
X8.9846Y-7.4179
X8.9852Y-7.3785
X9.0015Y-6.5319
X9.0222Y-3.2817
X9.0534Y-6.6332
X9.0698Y-3.6907
X9.0742Y-3.8737
X9.1083Y-5.1274
X9.1302Y-3.7187
X9.139Y-7.1361
X9.1602Y-2.9527
X9.1982Y-3.5337
X9.2093Y-6.7974
X9.2243Y-5.7188
X9.2267Y-5.8576
X9.2305Y-6.1372
X9.2504Y-4.9826
X9.2535Y-6.6046
X9.2541Y-5.7456
X9.2597Y-7.3963
X9.2792Y-5.2551
X9.2828Y-6.5729
X9.2878Y-5.2157
X9.2942Y-3.3797
X9.3003Y-6.1376
X9.3832Y-3.7827
X9.3985Y-7.122
X9.4152Y-3.8887
X9.4219Y-4.3786
X9.4373Y-4.9836
X9.5077Y-6.5522
X9.511Y-6.7847
X9.5214Y-6.9046
X9.5416Y-5.4455
X9.5554Y-8.0338
X9.6535Y-6.1034
X9.6536Y-6.171
X9.6713Y-5.5474
X9.7022Y-5.0918
X9.7102Y-3.7557
X9.7956Y-5.846
X9.7964Y-7.2901
X9.9449Y-6.1914
X9.9711Y-7.7306
X9.9862Y-6.4989
X9.9987Y-5.002
X10.1091Y-7.4217
X10.1879Y-4.5258
X10.248Y-5.2157
X10.2581Y-6.5453
X10.3005Y-6.4564
X10.3055Y-4.8049
X10.3611Y-6.5402
X10.4391Y-5.5812
X10.4418Y-7.2646
X10.4709Y-7.1853
X10.5706Y-3.5646
X10.6089Y-5.9624
X10.6889Y-6.479
X10.755Y-3.7838
X10.7917Y-6.8449
X10.8205Y-5.3899
X10.828Y-7.6055
X10.8394Y-6.8884
X11.0946Y-3.6969
X11.1198Y-6.0484
X11.1681Y-5.5584
X11.23Y-6.2696
X11.2627Y-5.8329
X11.2766Y-5.7202
X11.2919Y-5.8043
X11.301Y-8.2358
X11.3624Y-5.7794
X11.3911Y-5.5486
X11.4074Y-6.4312
X11.4159Y-4.3786
X11.4302Y-5.7225
X11.4844Y-4.1832
X11.5328Y-4.6018
X11.5338Y-8.4458
X11.5374Y-5.4499
X11.5583Y-8.3996
X11.5699Y-4.0178
X11.5803Y-3.805
X11.5817Y-5.2982
X11.5849Y-5.3393
X11.5907Y-6.2154
X11.5942Y-5.0918
X11.6088Y-4.0703
X11.6534Y-4.6325
X11.6578Y-4.3322
X11.662Y-4.3717
X11.6842Y-4.0507
X11.6954Y-8.4193
X11.7138Y-6.9077
X11.7347Y-7.5757
X11.7552Y-4.1657
X11.7558Y-4.0963
X11.8035Y-8.2131
X11.8054Y-5.076
X11.9332Y-8.0342
X11.9857Y-5.4213
X12.0137Y-4.1297
X12.0189Y-5.5569
X12.0532Y-4.8554
X12.061Y-3.696
X12.062Y-7.7312
X12.0805Y-4.0276
X12.1477Y-3.7582
X12.1525Y-5.2388
X12.1633Y-7.305
X12.1808Y-6.1979
X12.2216Y-6.1572
X12.2593Y-5.6277
X12.2609Y-4.1297
X12.2755Y-5.7822
X12.2844Y-7.0089
X12.3248Y-4.8161
X12.3321Y-5.4393
X12.3449Y-8.0337
X12.3483Y-4.5724
X12.3611Y-5.57
X12.4099Y-3.8092
X12.4227Y-4.7639
X12.4495Y-5.8535
X12.5499Y-6.4191
X12.5523Y-8.487
X12.5564Y-4.6295
X12.5643Y-5.076
X12.5647Y-4.0963
X12.5798Y-6.4478
X12.6337Y-5.7411
X12.6874Y-5.9425
X12.6883Y-7.8912
X12.7016Y-4.272
X12.705Y-6.2779
X12.7351Y-8.1412
X12.7407Y-4.1297
X12.7591Y-7.728
X12.7665Y-6.2375
X12.8483Y-7.5965
X12.8512Y-6.0613
X12.8603Y-4.1297
X12.8733Y-8.1205
X12.8946Y-4.9037
X12.9951Y-5.4034
X13.0195Y-5.3508
X13.0293Y-4.6294
X13.0515Y-6.765
X13.052Y-8.3969
X13.0635Y-4.6585
X13.0894Y-5.4595
X13.1227Y-6.3693
X13.1633Y-5.4293
X13.1652Y-8.1437
X13.1686Y-4.5009
X13.1713Y-4.5635
X13.2085Y-4.5346
X13.2141Y-6.3852
X13.274Y-7.0246
X13.2759Y-6.504
X13.2764Y-4.1701
X13.296Y-4.6109
X13.3217Y-6.6103
X13.3515Y-3.7628
X13.3638Y-4.31
X13.373Y-6.9842
X13.3852Y-5.5448
X13.3876Y-4.8649
X13.3957Y-6.5429
X13.398Y-7.4062
X13.4117Y-5.7947
X13.428Y-6.5753
X13.451Y-5.0798
X13.4669Y-6.2515
X13.4696Y-5.9895
X13.4802Y-4.6987
X13.5229Y-5.9609
X13.5239Y-6.6712
X13.5531Y-6.7004
X13.6689Y-7.2817
X13.6775Y-5.3286
X13.7328Y-7.3456
X13.7611Y-4.5349
X13.9523Y-4.3596
X13.9567Y-6.3537
X13.9573Y-6.3074
T3
X6.4337Y-3.872
X6.5124Y-3.872
X6.7195Y-3.7687
X6.7982Y-3.7687
T4
X4.2081Y-3.7477
X4.2081Y-3.7977
X4.2081Y-3.8477
X8.631Y-3.756
X8.631Y-3.806
X8.631Y-3.856
X8.931Y-3.756
X8.931Y-3.806
X8.931Y-3.856
X9.231Y-3.756
X9.231Y-3.806
X9.231Y-3.856
X9.531Y-3.756
X9.531Y-3.806
X9.531Y-3.856
X11.761Y-6.291
X11.761Y-6.341
X11.761Y-6.391
X13.8271Y-7.2137
X13.8271Y-7.2637
X13.8271Y-7.3137
T5
X8.2138Y-3.0817
X8.3138Y-3.0817
X8.4138Y-3.0817
X8.5138Y-3.0817
T6
X2.8852Y-4.001
X2.8852Y-4.401
X3.0037Y-4.616
X3.0402Y-6.1226
X3.0402Y-6.3194
X3.0852Y-4.0042
X3.0852Y-4.201
X3.1702Y-7.4876
X3.1702Y-7.6844
X3.1902Y-5.481
X3.1902Y-5.881
X3.1902Y-6.016
X3.1902Y-6.416
X3.1902Y-6.556
X3.1902Y-6.956
X3.1958Y-4.616
X3.2852Y-4.001
X3.2852Y-4.401
X3.3352Y-7.4876
X3.3352Y-7.6844
X3.4452Y-5.1441
X3.4452Y-5.3409
X3.4502Y-4.0076
X3.4502Y-4.2044
X3.5307Y-5.5161
X3.5307Y-5.8161
X3.5307Y-6.3626
X3.5307Y-6.6626
X3.6302Y-4.246
X3.6302Y-4.546
X3.6306Y-8.0864
X3.6306Y-8.3864
X3.6307Y-4.6696
X3.6307Y-4.9696
X3.6307Y-5.0929
X3.6307Y-5.3929
X3.6307Y-5.5161
X3.6307Y-5.8161
X3.6307Y-5.9393
X3.6307Y-6.2393
X3.6307Y-6.3626
X3.6307Y-6.6626
X3.6307Y-6.7858
X3.6307Y-7.0858
X3.6307Y-7.209
X3.6307Y-7.509
X3.6307Y-7.6322
X3.6307Y-7.9322
X3.7302Y-4.246
X3.7302Y-4.546
X3.7306Y-8.0864
X3.7306Y-8.3864
X3.7307Y-4.6696
X3.7307Y-4.9696
X3.7307Y-5.0929
X3.7307Y-5.3929
X3.7307Y-5.5161
X3.7307Y-5.8161
X3.7307Y-5.9393
X3.7307Y-6.2393
X3.7307Y-6.3626
X3.7307Y-6.6626
X3.7307Y-6.7858
X3.7307Y-7.0858
X3.7307Y-7.209
X3.7307Y-7.509
X3.7307Y-7.6322
X3.7307Y-7.9322
X3.7634Y-4.0079
X3.8302Y-4.246
X3.8302Y-4.546
X3.8306Y-8.0864
X3.8306Y-8.3864
X3.8307Y-4.6696
X3.8307Y-4.9696
X3.8307Y-5.0929
X3.8307Y-5.3929
X3.8307Y-5.5161
X3.8307Y-5.8161
X3.8307Y-5.9393
X3.8307Y-6.2393
X3.8307Y-6.3626
X3.8307Y-6.6626
X3.8307Y-6.7858
X3.8307Y-7.0858
X3.8307Y-7.209
X3.8307Y-7.509
X3.8307Y-7.6322
X3.8307Y-7.9322
X3.9302Y-4.246
X3.9302Y-4.546
X3.9306Y-8.0864
X3.9306Y-8.3864
X3.9307Y-4.6696
X3.9307Y-4.9696
X3.9307Y-5.0929
X3.9307Y-5.3929
X3.9307Y-5.5161
X3.9307Y-5.8161
X3.9307Y-5.9393
X3.9307Y-6.2393
X3.9307Y-6.3626
X3.9307Y-6.6626
X3.9307Y-6.7858
X3.9307Y-7.0858
X3.9307Y-7.209
X3.9307Y-7.509
X3.9307Y-7.6322
X3.9307Y-7.9322
X4.0302Y-4.246
X4.0302Y-4.546
X4.0306Y-8.0864
X4.0306Y-8.3864
X4.0307Y-4.6696
X4.0307Y-4.9696
X4.0307Y-5.0929
X4.0307Y-5.3929
X4.0307Y-5.5161
X4.0307Y-5.8161
X4.0307Y-5.9393
X4.0307Y-6.2393
X4.0307Y-6.3626
X4.0307Y-6.6626
X4.0307Y-6.7858
X4.0307Y-7.0858
X4.0307Y-7.209
X4.0307Y-7.509
X4.0307Y-7.6322
X4.0307Y-7.9322
X4.1302Y-4.246
X4.1302Y-4.546
X4.1306Y-8.0864
X4.1306Y-8.3864
X4.1307Y-4.6696
X4.1307Y-4.9696
X4.1307Y-5.0929
X4.1307Y-5.3929
X4.1307Y-5.5161
X4.1307Y-5.8161
X4.1307Y-5.9393
X4.1307Y-6.2393
X4.1307Y-6.3626
X4.1307Y-6.6626
X4.1307Y-6.7858
X4.1307Y-7.0858
X4.1307Y-7.209
X4.1307Y-7.509
X4.1307Y-7.6322
X4.1307Y-7.9322
X4.1634Y-4.0079
X4.2302Y-4.246
X4.2302Y-4.546
X4.2306Y-8.0864
X4.2306Y-8.3864
X4.2307Y-4.6696
X4.2307Y-4.9696
X4.2307Y-5.0929
X4.2307Y-5.3929
X4.2307Y-5.5161
X4.2307Y-5.8161
X4.2307Y-5.9393
X4.2307Y-6.2393
X4.2307Y-6.3626
X4.2307Y-6.6626
X4.2307Y-6.7858
X4.2307Y-7.0858
X4.2307Y-7.209
X4.2307Y-7.509
X4.2307Y-7.6322
X4.2307Y-7.9322
X4.3552Y-4.071
X4.3552Y-4.471
X4.3602Y-5.271
X4.3602Y-5.671
X4.4102Y-7.4776
X4.4102Y-7.6744
X4.4602Y-6.1026
X4.4602Y-6.2994
X4.4872Y-4.1863
X4.4872Y-4.3832
X4.5762Y-3.6737
X4.5762Y-3.7737
X4.5762Y-3.8737
X4.5762Y-3.9737
X4.6152Y-8.0864
X4.6152Y-8.3864
X4.6202Y-5.4128
X4.6202Y-5.7128
X4.6204Y-4.0914
X4.6204Y-4.3914
X4.6204Y-4.5319
X4.6204Y-4.8319
X4.6204Y-4.9723
X4.6204Y-5.2723
X4.6204Y-7.1746
X4.6204Y-7.4746
X4.6204Y-7.615
X4.6204Y-7.915
X4.6206Y-5.8532
X4.6206Y-6.1532
X4.6206Y-6.2937
X4.6206Y-6.5937
X4.6206Y-6.7341
X4.6206Y-7.0341
X4.7152Y-8.0864
X4.7152Y-8.3864
X4.7202Y-5.4128
X4.7202Y-5.7128
X4.7204Y-4.0914
X4.7204Y-4.3914
X4.7204Y-4.5319
X4.7204Y-4.8319
X4.7204Y-4.9723
X4.7204Y-5.2723
X4.7204Y-7.1746
X4.7204Y-7.4746
X4.7204Y-7.615
X4.7204Y-7.915
X4.7206Y-5.8532
X4.7206Y-6.1532
X4.7206Y-6.2937
X4.7206Y-6.5937
X4.7206Y-6.7341
X4.7206Y-7.0341
X4.8152Y-8.0864
X4.8152Y-8.3864
X4.8202Y-5.4128
X4.8202Y-5.7128
X4.8204Y-4.0914
X4.8204Y-4.3914
X4.8204Y-4.5319
X4.8204Y-4.8319
X4.8204Y-4.9723
X4.8204Y-5.2723
X4.8204Y-7.1746
X4.8204Y-7.4746
X4.8204Y-7.615
X4.8204Y-7.915
X4.8206Y-5.8532
X4.8206Y-6.1532
X4.8206Y-6.2937
X4.8206Y-6.5937
X4.8206Y-6.7341
X4.8206Y-7.0341
X4.9152Y-8.0864
X4.9152Y-8.3864
X4.9202Y-5.4128
X4.9202Y-5.7128
X4.9204Y-4.0914
X4.9204Y-4.3914
X4.9204Y-4.5319
X4.9204Y-4.8319
X4.9204Y-4.9723
X4.9204Y-5.2723
X4.9204Y-7.1746
X4.9204Y-7.4746
X4.9204Y-7.615
X4.9204Y-7.915
X4.9206Y-5.8532
X4.9206Y-6.1532
X4.9206Y-6.2937
X4.9206Y-6.5937
X4.9206Y-6.7341
X4.9206Y-7.0341
X4.9762Y-3.6737
X4.9762Y-3.7737
X4.9762Y-3.8737
X4.9762Y-3.9737
X5.0152Y-8.0864
X5.0152Y-8.3864
X5.0202Y-5.4128
X5.0202Y-5.7128
X5.0204Y-4.0914
X5.0204Y-4.3914
X5.0204Y-4.5319
X5.0204Y-4.8319
X5.0204Y-4.9723
X5.0204Y-5.2723
X5.0204Y-7.1746
X5.0204Y-7.4746
X5.0204Y-7.615
X5.0204Y-7.915
X5.0206Y-5.8532
X5.0206Y-6.1532
X5.0206Y-6.2937
X5.0206Y-6.5937
X5.0206Y-6.7341
X5.0206Y-7.0341
X5.0602Y-3.4727
X5.0612Y-3.5737
X5.0612Y-3.6737
X5.0612Y-3.7737
X5.0612Y-3.8737
X5.0612Y-3.9737
X5.1152Y-8.0864
X5.1152Y-8.3864
X5.1202Y-5.4128
X5.1202Y-5.7128
X5.1204Y-4.0914
X5.1204Y-4.3914
X5.1204Y-4.5319
X5.1204Y-4.8319
X5.1204Y-4.9723
X5.1204Y-5.2723
X5.1204Y-7.1746
X5.1204Y-7.4746
X5.1204Y-7.615
X5.1204Y-7.915
X5.1206Y-5.8532
X5.1206Y-6.1532
X5.1206Y-6.2937
X5.1206Y-6.5937
X5.1206Y-6.7341
X5.1206Y-7.0341
X5.2152Y-8.0864
X5.2152Y-8.3864
X5.2202Y-5.4128
X5.2202Y-5.7128
X5.2204Y-4.0914
X5.2204Y-4.3914
X5.2204Y-4.5319
X5.2204Y-4.8319
X5.2204Y-4.9723
X5.2204Y-5.2723
X5.2204Y-7.1746
X5.2204Y-7.4746
X5.2204Y-7.615
X5.2204Y-7.915
X5.2206Y-5.8532
X5.2206Y-6.1532
X5.2206Y-6.2937
X5.2206Y-6.5937
X5.2206Y-6.7341
X5.2206Y-7.0341
X5.3206Y-5.8532
X5.3206Y-6.1532
X5.3206Y-6.2937
X5.3206Y-6.5937
X5.3206Y-6.7341
X5.3206Y-7.0341
X5.3662Y-4.1557
X5.3662Y-4.5557
X5.4202Y-7.4776
X5.4202Y-7.6744
X5.4402Y-5.326
X5.4402Y-5.726
X5.4602Y-3.4727
X5.4612Y-3.5737
X5.4612Y-3.6737
X5.4612Y-3.7737
X5.4612Y-3.8737
X5.4612Y-3.9737
X5.5762Y-4.1213
X5.5762Y-4.3182
X5.645Y-8.0864
X5.645Y-8.3864
X5.6452Y-7.7326
X5.6452Y-7.9294
X5.6456Y-4.9723
X5.6456Y-5.2723
X5.6456Y-5.4128
X5.6456Y-5.7128
X5.6456Y-5.8532
X5.6456Y-6.1532
X5.6456Y-6.2937
X5.6456Y-6.5937
X5.6456Y-6.7341
X5.6456Y-7.0341
X5.6456Y-7.1746
X5.6456Y-7.4746
X5.745Y-8.0864
X5.745Y-8.3864
X5.7454Y-4.4864
X5.7454Y-4.7864
X5.7456Y-4.9723
X5.7456Y-5.2723
X5.7456Y-5.4128
X5.7456Y-5.7128
X5.7456Y-5.8532
X5.7456Y-6.1532
X5.7456Y-6.2937
X5.7456Y-6.5937
X5.7456Y-6.7341
X5.7456Y-7.0341
X5.7456Y-7.1746
X5.7456Y-7.4746
X5.7602Y-3.896
X5.7602Y-4.131
X5.7604Y-4.0204
X5.7604Y-4.231
X5.8052Y-7.581
X5.8052Y-7.981
X5.845Y-8.0864
X5.845Y-8.3864
X5.8454Y-4.4864
X5.8454Y-4.7864
X5.8456Y-4.9723
X5.8456Y-5.2723
X5.8456Y-5.4128
X5.8456Y-5.7128
X5.8456Y-5.8532
X5.8456Y-6.1532
X5.8456Y-6.2937
X5.8456Y-6.5937
X5.8456Y-6.7341
X5.8456Y-7.0341
X5.8456Y-7.1746
X5.8456Y-7.4746
X5.8684Y-3.7617
X5.9252Y-7.581
X5.9252Y-7.981
X5.945Y-8.0864
X5.945Y-8.3864
X5.9454Y-4.4864
X5.9454Y-4.7864
X5.9456Y-4.9723
X5.9456Y-5.2723
X5.9456Y-5.4128
X5.9456Y-5.7128
X5.9456Y-5.8532
X5.9456Y-6.1532
X5.9456Y-6.2937
X5.9456Y-6.5937
X5.9456Y-6.7341
X5.9456Y-7.0341
X5.9456Y-7.1746
X5.9456Y-7.4746
X6.045Y-8.0864
X6.045Y-8.3864
X6.0452Y-7.581
X6.0452Y-7.981
X6.0454Y-4.4864
X6.0454Y-4.7864
X6.0456Y-4.9723
X6.0456Y-5.2723
X6.0456Y-5.4128
X6.0456Y-5.7128
X6.0456Y-5.8532
X6.0456Y-6.1532
X6.0456Y-6.2937
X6.0456Y-6.5937
X6.0456Y-6.7341
X6.0456Y-7.0341
X6.0456Y-7.1746
X6.0456Y-7.4746
X6.0652Y-3.7617
X6.145Y-8.0864
X6.145Y-8.3864
X6.1454Y-4.4864
X6.1454Y-4.7864
X6.1456Y-4.9723
X6.1456Y-5.2723
X6.1456Y-5.4128
X6.1456Y-5.7128
X6.1456Y-5.8532
X6.1456Y-6.1532
X6.1456Y-6.2937
X6.1456Y-6.5937
X6.1456Y-6.7341
X6.1456Y-7.0341
X6.1456Y-7.1746
X6.1456Y-7.4746
X6.1602Y-3.896
X6.1602Y-4.131
X6.1604Y-4.0204
X6.1604Y-4.231
X6.245Y-8.0864
X6.245Y-8.3864
X6.2454Y-4.4864
X6.2454Y-4.7864
X6.2456Y-4.9723
X6.2456Y-5.2723
X6.2456Y-5.4128
X6.2456Y-5.7128
X6.2456Y-5.8532
X6.2456Y-6.1532
X6.2456Y-6.2937
X6.2456Y-6.5937
X6.2456Y-6.7341
X6.2456Y-7.0341
X6.2456Y-7.1746
X6.2456Y-7.4746
X6.3454Y-4.4864
X6.3454Y-4.7864
X6.3456Y-4.9723
X6.3456Y-5.2723
X6.3456Y-5.4128
X6.3456Y-5.7128
X6.3456Y-5.8532
X6.3456Y-6.1532
X6.3456Y-6.2937
X6.3456Y-6.5937
X6.3456Y-6.7341
X6.3456Y-7.0341
X6.3456Y-7.1746
X6.3456Y-7.4746
X6.5902Y-7.4176
X6.5902Y-7.6144
X6.7204Y-4.0914
X6.7204Y-4.3914
X6.7204Y-4.5319
X6.7204Y-4.8319
X6.7207Y-4.9723
X6.7207Y-5.2723
X6.7207Y-5.4172
X6.7207Y-5.7172
X6.7207Y-5.8621
X6.7207Y-6.1621
X6.7207Y-6.3069
X6.7207Y-6.6069
X6.7207Y-6.7518
X6.7207Y-7.0518
X6.7207Y-7.1967
X6.7207Y-7.4967
X6.7207Y-7.6415
X6.7207Y-7.9415
X6.7207Y-8.0864
X6.7207Y-8.3864
X6.8204Y-4.0914
X6.8204Y-4.3914
X6.8204Y-4.5319
X6.8204Y-4.8319
X6.8207Y-4.9723
X6.8207Y-5.2723
X6.8207Y-5.4172
X6.8207Y-5.7172
X6.8207Y-5.8621
X6.8207Y-6.1621
X6.8207Y-6.3069
X6.8207Y-6.6069
X6.8207Y-6.7518
X6.8207Y-7.0518
X6.8207Y-7.1967
X6.8207Y-7.4967
X6.8207Y-7.6415
X6.8207Y-7.9415
X6.8207Y-8.0864
X6.8207Y-8.3864
X6.9204Y-4.0914
X6.9204Y-4.3914
X6.9204Y-4.5319
X6.9204Y-4.8319
X6.9207Y-4.9723
X6.9207Y-5.2723
X6.9207Y-5.4172
X6.9207Y-5.7172
X6.9207Y-5.8621
X6.9207Y-6.1621
X6.9207Y-6.3069
X6.9207Y-6.6069
X6.9207Y-6.7518
X6.9207Y-7.0518
X6.9207Y-7.1967
X6.9207Y-7.4967
X6.9207Y-7.6415
X6.9207Y-7.9415
X6.9207Y-8.0864
X6.9207Y-8.3864
X6.9902Y-3.791
X7.0204Y-4.0914
X7.0204Y-4.3914
X7.0204Y-4.5319
X7.0204Y-4.8319
X7.0207Y-4.9723
X7.0207Y-5.2723
X7.0207Y-5.4172
X7.0207Y-5.7172
X7.0207Y-5.8621
X7.0207Y-6.1621
X7.0207Y-6.3069
X7.0207Y-6.6069
X7.0207Y-6.7518
X7.0207Y-7.0518
X7.0207Y-7.1967
X7.0207Y-7.4967
X7.0207Y-7.6415
X7.0207Y-7.9415
X7.0207Y-8.0864
X7.0207Y-8.3864
X7.1204Y-4.0914
X7.1204Y-4.3914
X7.1204Y-4.5319
X7.1204Y-4.8319
X7.1207Y-4.9723
X7.1207Y-5.2723
X7.1207Y-5.4172
X7.1207Y-5.7172
X7.1207Y-5.8621
X7.1207Y-6.1621
X7.1207Y-6.3069
X7.1207Y-6.6069
X7.1207Y-6.7518
X7.1207Y-7.0518
X7.1207Y-7.1967
X7.1207Y-7.4967
X7.1207Y-7.6415
X7.1207Y-7.9415
X7.1207Y-8.0864
X7.1207Y-8.3864
X7.2204Y-4.0914
X7.2204Y-4.3914
X7.2204Y-4.5319
X7.2204Y-4.8319
X7.2207Y-4.9723
X7.2207Y-5.2723
X7.2207Y-5.4172
X7.2207Y-5.7172
X7.2207Y-5.8621
X7.2207Y-6.1621
X7.2207Y-6.3069
X7.2207Y-6.6069
X7.2207Y-6.7518
X7.2207Y-7.0518
X7.2207Y-7.1967
X7.2207Y-7.4967
X7.2207Y-7.6415
X7.2207Y-7.9415
X7.2207Y-8.0864
X7.2207Y-8.3864
X7.3204Y-4.0914
X7.3204Y-4.3914
X7.3204Y-4.5319
X7.3204Y-4.8319
X7.3207Y-4.9723
X7.3207Y-5.2723
X7.3207Y-5.4172
X7.3207Y-5.7172
X7.3207Y-5.8621
X7.3207Y-6.1621
X7.3207Y-6.3069
X7.3207Y-6.6069
X7.3207Y-6.7518
X7.3207Y-7.0518
X7.3207Y-7.1967
X7.3207Y-7.4967
X7.3207Y-7.6415
X7.3207Y-7.9415
X7.3207Y-8.0864
X7.3207Y-8.3864
X7.3902Y-3.791
X7.4207Y-4.9723
X7.4207Y-5.2723
X7.4207Y-5.4172
X7.4207Y-5.7172
X7.4207Y-5.8621
X7.4207Y-6.1621
X7.4207Y-6.3069
X7.4207Y-6.6069
X7.4207Y-6.7518
X7.4207Y-7.0518
X7.4207Y-7.1967
X7.4207Y-7.4967
X7.4207Y-7.6415
X7.4207Y-7.9415
X7.4207Y-8.0864
X7.4207Y-8.3864
X7.5102Y-3.791
X7.5404Y-4.0914
X7.5404Y-4.3914
X7.5404Y-4.5319
X7.5404Y-4.8319
X7.5452Y-7.0292
X7.5452Y-7.226
X7.5452Y-7.7076
X7.5452Y-7.9044
X7.6404Y-4.0914
X7.6404Y-4.3914
X7.6404Y-4.5319
X7.6404Y-4.8319
X7.6706Y-4.9723
X7.6706Y-5.2723
X7.6706Y-5.4172
X7.6706Y-5.7172
X7.6706Y-5.8621
X7.6706Y-6.1621
X7.6706Y-6.3069
X7.6706Y-6.6069
X7.6706Y-6.7518
X7.6706Y-7.0518
X7.6706Y-7.1967
X7.6706Y-7.4967
X7.6706Y-7.6415
X7.6706Y-7.9415
X7.6706Y-8.0864
X7.6706Y-8.3864
X7.7404Y-4.0914
X7.7404Y-4.3914
X7.7404Y-4.5319
X7.7404Y-4.8319
X7.7706Y-4.9723
X7.7706Y-5.2723
X7.7706Y-5.4172
X7.7706Y-5.7172
X7.7706Y-5.8621
X7.7706Y-6.1621
X7.7706Y-6.3069
X7.7706Y-6.6069
X7.7706Y-6.7518
X7.7706Y-7.0518
X7.7706Y-7.1967
X7.7706Y-7.4967
X7.7706Y-7.6415
X7.7706Y-7.9415
X7.7706Y-8.0864
X7.7706Y-8.3864
X7.8404Y-4.0914
X7.8404Y-4.3914
X7.8404Y-4.5319
X7.8404Y-4.8319
X7.8706Y-4.9723
X7.8706Y-5.2723
X7.8706Y-5.4172
X7.8706Y-5.7172
X7.8706Y-5.8621
X7.8706Y-6.1621
X7.8706Y-6.3069
X7.8706Y-6.6069
X7.8706Y-6.7518
X7.8706Y-7.0518
X7.8706Y-7.1967
X7.8706Y-7.4967
X7.8706Y-7.6415
X7.8706Y-7.9415
X7.8706Y-8.0864
X7.8706Y-8.3864
X7.9102Y-3.791
X7.9404Y-4.0914
X7.9404Y-4.3914
X7.9404Y-4.5319
X7.9404Y-4.8319
X7.9706Y-4.9723
X7.9706Y-5.2723
X7.9706Y-5.4172
X7.9706Y-5.7172
X7.9706Y-5.8621
X7.9706Y-6.1621
X7.9706Y-6.3069
X7.9706Y-6.6069
X7.9706Y-6.7518
X7.9706Y-7.0518
X7.9706Y-7.1967
X7.9706Y-7.4967
X7.9706Y-7.6415
X7.9706Y-7.9415
X7.9706Y-8.0864
X7.9706Y-8.3864
X8.0404Y-4.0914
X8.0404Y-4.3914
X8.0404Y-4.5319
X8.0404Y-4.8319
X8.0706Y-4.9723
X8.0706Y-5.2723
X8.0706Y-5.4172
X8.0706Y-5.7172
X8.0706Y-5.8621
X8.0706Y-6.1621
X8.0706Y-6.3069
X8.0706Y-6.6069
X8.0706Y-6.7518
X8.0706Y-7.0518
X8.0706Y-7.1967
X8.0706Y-7.4967
X8.0706Y-7.6415
X8.0706Y-7.9415
X8.0706Y-8.0864
X8.0706Y-8.3864
X8.1404Y-4.0914
X8.1404Y-4.3914
X8.1404Y-4.5319
X8.1404Y-4.8319
X8.1706Y-4.9723
X8.1706Y-5.2723
X8.1706Y-5.4172
X8.1706Y-5.7172
X8.1706Y-5.8621
X8.1706Y-6.1621
X8.1706Y-6.3069
X8.1706Y-6.6069
X8.1706Y-6.7518
X8.1706Y-7.0518
X8.1706Y-7.1967
X8.1706Y-7.4967
X8.1706Y-7.6415
X8.1706Y-7.9415
X8.1706Y-8.0864
X8.1706Y-8.3864
X8.2706Y-4.9723
X8.2706Y-5.2723
X8.2706Y-5.4172
X8.2706Y-5.7172
X8.2706Y-5.8621
X8.2706Y-6.1621
X8.2706Y-6.3069
X8.2706Y-6.6069
X8.2706Y-6.7518
X8.2706Y-7.0518
X8.2706Y-7.1967
X8.2706Y-7.4967
X8.2706Y-7.6415
X8.2706Y-7.9415
X8.2706Y-8.0864
X8.2706Y-8.3864
X8.3002Y-4.066
X8.3002Y-4.466
X8.3706Y-4.9723
X8.3706Y-5.2723
X8.3706Y-5.4172
X8.3706Y-5.7172
X8.3706Y-5.8621
X8.3706Y-6.1621
X8.3706Y-6.3069
X8.3706Y-6.6069
X8.3706Y-6.7518
X8.3706Y-7.0518
X8.3706Y-7.1967
X8.3706Y-7.4967
X8.3706Y-7.6415
X8.3706Y-7.9415
X8.3706Y-8.0864
X8.3706Y-8.3864
X8.4302Y-4.2611
X8.4302Y-4.4579
X8.5002Y-4.5964
X8.5002Y-4.8964
X8.5502Y-4.066
X8.5502Y-4.466
X8.5652Y-7.4776
X8.5652Y-7.6744
X8.6002Y-4.5964
X8.6002Y-4.8964
X8.6452Y-5.0976
X8.6452Y-5.2944
X8.6502Y-5.5526
X8.6502Y-5.7494
X8.6752Y-4.2579
X8.6752Y-4.4548
X8.7002Y-4.5964
X8.7002Y-4.8964
X8.7306Y-7.2064
X8.7306Y-7.5064
X8.8002Y-4.061
X8.8002Y-4.461
X8.8002Y-4.5964
X8.8002Y-4.8964
X8.83Y-8.087
X8.83Y-8.387
X8.8304Y-7.6314
X8.8304Y-7.9314
X8.8306Y-7.2064
X8.8306Y-7.5064
X8.8356Y-5.0464
X8.8356Y-5.3464
X8.8356Y-5.5014
X8.8356Y-5.8014
X8.8356Y-5.9564
X8.8356Y-6.2564
X8.8356Y-6.4114
X8.8356Y-6.7114
X8.9002Y-4.5964
X8.9002Y-4.8964
X8.9252Y-4.061
X8.9252Y-4.461
X8.93Y-8.087
X8.93Y-8.387
X8.9304Y-7.6314
X8.9304Y-7.9314
X8.9306Y-7.2064
X8.9306Y-7.5064
X8.9356Y-5.0464
X8.9356Y-5.3464
X8.9356Y-5.5014
X8.9356Y-5.8014
X8.9356Y-5.9564
X8.9356Y-6.2564
X8.9356Y-6.4114
X8.9356Y-6.7114
X9.0002Y-4.5964
X9.0002Y-4.8964
X9.03Y-8.087
X9.03Y-8.387
X9.0304Y-7.6314
X9.0304Y-7.9314
X9.0306Y-7.2064
X9.0306Y-7.5064
X9.0356Y-5.0464
X9.0356Y-5.3464
X9.0356Y-5.5014
X9.0356Y-5.8014
X9.0356Y-5.9564
X9.0356Y-6.2564
X9.0356Y-6.4114
X9.0356Y-6.7114
X9.0502Y-4.061
X9.0502Y-4.461
X9.1002Y-4.5964
X9.1002Y-4.8964
X9.13Y-8.087
X9.13Y-8.387
X9.1304Y-7.6314
X9.1304Y-7.9314
X9.1306Y-7.2064
X9.1306Y-7.5064
X9.1356Y-5.0464
X9.1356Y-5.3464
X9.1356Y-5.5014
X9.1356Y-5.8014
X9.1356Y-5.9564
X9.1356Y-6.2564
X9.1356Y-6.4114
X9.1356Y-6.7114
X9.1752Y-4.061
X9.1752Y-4.461
X9.23Y-8.087
X9.23Y-8.387
X9.2304Y-7.6314
X9.2304Y-7.9314
X9.2306Y-7.2064
X9.2306Y-7.5064
X9.2356Y-5.0464
X9.2356Y-5.3464
X9.2356Y-5.5014
X9.2356Y-5.8014
X9.2356Y-5.9564
X9.2356Y-6.2564
X9.2356Y-6.4114
X9.2356Y-6.7114
X9.3002Y-4.061
X9.3002Y-4.461
X9.33Y-8.087
X9.33Y-8.387
X9.3304Y-7.6314
X9.3304Y-7.9314
X9.3306Y-7.2064
X9.3306Y-7.5064
X9.3356Y-5.0464
X9.3356Y-5.3464
X9.3356Y-5.5014
X9.3356Y-5.8014
X9.3356Y-5.9564
X9.3356Y-6.2564
X9.3356Y-6.4114
X9.3356Y-6.7114
X9.3378Y-4.5964
X9.3378Y-4.8964
X9.4252Y-4.061
X9.4252Y-4.461
X9.43Y-8.087
X9.43Y-8.387
X9.4304Y-7.6314
X9.4304Y-7.9314
X9.4306Y-7.2064
X9.4306Y-7.5064
X9.4356Y-5.0464
X9.4356Y-5.3464
X9.4356Y-5.5014
X9.4356Y-5.8014
X9.4356Y-5.9564
X9.4356Y-6.2564
X9.4356Y-6.4114
X9.4356Y-6.7114
X9.4378Y-4.5964
X9.4378Y-4.8964
X9.5356Y-5.0464
X9.5356Y-5.3464
X9.5356Y-5.5014
X9.5356Y-5.8014
X9.5356Y-5.9564
X9.5356Y-6.2564
X9.5356Y-6.4114
X9.5356Y-6.7114
X9.5378Y-4.5964
X9.5378Y-4.8964
X9.5502Y-4.061
X9.5502Y-4.461
X9.6378Y-4.5964
X9.6378Y-4.8964
X9.6404Y-7.2064
X9.6404Y-7.5064
X9.6582Y-3.1677
X9.6582Y-3.5677
X9.6752Y-4.061
X9.6752Y-4.461
X9.7378Y-4.5964
X9.7378Y-4.8964
X9.7402Y-8.0874
X9.7402Y-8.3874
X9.7404Y-7.2064
X9.7404Y-7.5064
X9.7404Y-7.6314
X9.7404Y-7.9314
X9.7456Y-5.0464
X9.7456Y-5.3464
X9.7456Y-5.5014
X9.7456Y-5.8014
X9.7456Y-5.9564
X9.7456Y-6.2564
X9.7456Y-6.4114
X9.7456Y-6.7114
X9.7822Y-3.1677
X9.7822Y-3.5677
X9.7867Y-4.061
X9.7867Y-4.461
X9.8378Y-4.5964
X9.8378Y-4.8964
X9.8402Y-8.0874
X9.8402Y-8.3874
X9.8404Y-7.2064
X9.8404Y-7.5064
X9.8404Y-7.6314
X9.8404Y-7.9314
X9.8456Y-5.0464
X9.8456Y-5.3464
X9.8456Y-5.5014
X9.8456Y-5.8014
X9.8456Y-5.9564
X9.8456Y-6.2564
X9.8456Y-6.4114
X9.8456Y-6.7114
X9.8983Y-4.061
X9.8983Y-4.461
X9.9062Y-3.1677
X9.9062Y-3.5677
X9.9378Y-4.5964
X9.9378Y-4.8964
X9.9402Y-8.0874
X9.9402Y-8.3874
X9.9404Y-7.2064
X9.9404Y-7.5064
X9.9404Y-7.6314
X9.9404Y-7.9314
X9.9456Y-5.0464
X9.9456Y-5.3464
X9.9456Y-5.5014
X9.9456Y-5.8014
X9.9456Y-5.9564
X9.9456Y-6.2564
X9.9456Y-6.4114
X9.9456Y-6.7114
X10.0202Y-4.061
X10.0202Y-4.461
X10.0402Y-8.0874
X10.0402Y-8.3874
X10.0404Y-7.2064
X10.0404Y-7.5064
X10.0404Y-7.6314
X10.0404Y-7.9314
X10.0456Y-5.0464
X10.0456Y-5.3464
X10.0456Y-5.5014
X10.0456Y-5.8014
X10.0456Y-5.9564
X10.0456Y-6.2564
X10.0456Y-6.4114
X10.0456Y-6.7114
X10.1402Y-8.0874
X10.1402Y-8.3874
X10.1404Y-7.2064
X10.1404Y-7.5064
X10.1404Y-7.6314
X10.1404Y-7.9314
X10.1412Y-4.061
X10.1412Y-4.461
X10.1456Y-5.0464
X10.1456Y-5.3464
X10.1456Y-5.5014
X10.1456Y-5.8014
X10.1456Y-5.9564
X10.1456Y-6.2564
X10.1456Y-6.4114
X10.1456Y-6.7114
X10.1754Y-4.5964
X10.1754Y-4.8964
X10.2402Y-8.0874
X10.2402Y-8.3874
X10.2404Y-7.2064
X10.2404Y-7.5064
X10.2404Y-7.6314
X10.2404Y-7.9314
X10.2456Y-5.0464
X10.2456Y-5.3464
X10.2456Y-5.5014
X10.2456Y-5.8014
X10.2456Y-5.9564
X10.2456Y-6.2564
X10.2456Y-6.4114
X10.2456Y-6.7114
X10.2626Y-4.061
X10.2626Y-4.461
X10.2754Y-4.5964
X10.2754Y-4.8964
X10.3402Y-8.0874
X10.3402Y-8.3874
X10.3404Y-7.2064
X10.3404Y-7.5064
X10.3404Y-7.6314
X10.3404Y-7.9314
X10.3456Y-5.0464
X10.3456Y-5.3464
X10.3456Y-5.5014
X10.3456Y-5.8014
X10.3456Y-5.9564
X10.3456Y-6.2564
X10.3456Y-6.4114
X10.3456Y-6.7114
X10.3742Y-4.061
X10.3742Y-4.461
X10.3754Y-4.5964
X10.3754Y-4.8964
X10.4456Y-5.0464
X10.4456Y-5.3464
X10.4456Y-5.5014
X10.4456Y-5.8014
X10.4456Y-5.9564
X10.4456Y-6.2564
X10.4456Y-6.4114
X10.4456Y-6.7114
X10.4754Y-4.5964
X10.4754Y-4.8964
X10.4857Y-4.061
X10.4857Y-4.461
X10.5002Y-8.466
X10.5002Y-8.591
X10.5402Y-7.4776
X10.5402Y-7.6744
X10.5754Y-4.5964
X10.5754Y-4.8964
X10.6072Y-4.061
X10.6072Y-4.461
X10.6752Y-5.046
X10.6752Y-5.446
X10.6752Y-5.5526
X10.6752Y-5.7494
X10.6754Y-4.5964
X10.6754Y-4.8964
X10.7286Y-4.061
X10.7286Y-4.461
X10.7394Y-5.9068
X10.7394Y-6.0068
X10.7394Y-6.1068
X10.7394Y-6.2068
X10.7394Y-6.3068
X10.7394Y-6.4068
X10.7394Y-6.5068
X10.7394Y-6.6068
X10.7563Y-6.9606
X10.7563Y-7.0606
X10.7563Y-7.1606
X10.7563Y-7.2606
X10.7563Y-7.3606
X10.7563Y-7.4606
X10.7563Y-7.5606
X10.7563Y-7.6606
X10.7563Y-7.7606
X10.7563Y-7.8606
X10.7563Y-7.9606
X10.7563Y-8.0606
X10.7563Y-8.1606
X10.7563Y-8.2606
X10.7754Y-4.5964
X10.7754Y-4.8964
X10.7892Y-2.9777
X10.7892Y-3.0777
X10.7892Y-3.1777
X10.8052Y-5.046
X10.8052Y-5.446
X10.8402Y-4.061
X10.8402Y-4.461
X10.9002Y-8.466
X10.9002Y-8.591
X10.9502Y-4.061
X10.9502Y-4.461
X11.0352Y-4.9271
X11.0352Y-5.0866
X11.0352Y-5.246
X11.0394Y-5.9068
X11.0394Y-6.0068
X11.0394Y-6.1068
X11.0394Y-6.2068
X11.0394Y-6.3068
X11.0394Y-6.4068
X11.0394Y-6.5068
X11.0394Y-6.6068
X11.1652Y-5.906
X11.1652Y-6.006
X11.1652Y-6.106
X11.1652Y-6.206
X11.1652Y-6.306
X11.1652Y-6.406
X11.1652Y-6.506
X11.1652Y-6.606
X11.1652Y-6.706
X11.1652Y-6.806
X11.1812Y-2.9777
X11.1812Y-3.0777
X11.1812Y-3.1777
X11.185Y-3.9008
X11.185Y-4.5008
X11.2333Y-5.476
X11.285Y-3.9008
X11.285Y-4.5008
X11.3563Y-6.9606
X11.3563Y-7.0606
X11.3563Y-7.1606
X11.3563Y-7.2606
X11.3563Y-7.3606
X11.3563Y-7.4606
X11.3563Y-7.5606
X11.3563Y-7.6606
X11.3563Y-7.7606
X11.3563Y-7.8606
X11.3563Y-7.9606
X11.3563Y-8.0606
X11.3563Y-8.1606
X11.3563Y-8.2606
X11.385Y-3.9008
X11.385Y-4.5008
X11.4302Y-5.476
X11.4352Y-4.9271
X11.4352Y-5.0866
X11.4352Y-5.246
X11.4652Y-5.906
X11.4652Y-6.006
X11.4652Y-6.106
X11.4652Y-6.206
X11.4652Y-6.306
X11.4652Y-6.406
X11.4652Y-6.506
X11.4652Y-6.606
X11.4652Y-6.706
X11.4652Y-6.806
X11.485Y-3.9008
X11.485Y-4.5008
X11.4902Y-7.3575
X11.4902Y-7.4575
X11.4902Y-7.5575
X11.4902Y-7.6575
X11.4902Y-7.7575
X11.4902Y-7.8575
X11.4902Y-7.9575
X11.4902Y-8.0575
X11.4902Y-8.1575
X11.4902Y-8.2575
X11.5732Y-2.9777
X11.5732Y-3.0777
X11.5732Y-3.1777
X11.585Y-3.9008
X11.585Y-4.5008
X11.6552Y-6.521
X11.6552Y-6.921
X11.685Y-3.9008
X11.685Y-4.5008
X11.6857Y-4.7058
X11.6857Y-5.3058
X11.6857Y-5.5058
X11.6857Y-6.1058
X11.785Y-3.9008
X11.785Y-4.5008
X11.7857Y-4.7058
X11.7857Y-5.3058
X11.7857Y-5.5058
X11.7857Y-6.1058
X11.7902Y-7.191
X11.7902Y-7.591
X11.7902Y-7.676
X11.7902Y-8.076
X11.7952Y-6.521
X11.7952Y-6.921
X11.885Y-3.9008
X11.885Y-4.5008
X11.8857Y-4.7058
X11.8857Y-5.3058
X11.8857Y-5.5058
X11.8857Y-6.1058
X11.8902Y-7.191
X11.8902Y-7.591
X11.8902Y-7.676
X11.8902Y-8.076
X11.9772Y-6.3357
X11.9772Y-6.9357
X11.985Y-3.9008
X11.985Y-4.5008
X11.9857Y-4.7058
X11.9857Y-5.3058
X11.9857Y-5.5058
X11.9857Y-6.1058
X11.9902Y-7.191
X11.9902Y-7.591
X11.9902Y-7.676
X11.9902Y-8.076
X12.0772Y-6.3357
X12.0772Y-6.9357
X12.085Y-3.9008
X12.085Y-4.5008
X12.0857Y-4.7058
X12.0857Y-5.3058
X12.0857Y-5.5058
X12.0857Y-6.1058
X12.0902Y-7.191
X12.0902Y-7.591
X12.0902Y-7.676
X12.0902Y-8.076
X12.1772Y-6.3357
X12.1772Y-6.9357
X12.185Y-3.9008
X12.185Y-4.5008
X12.1857Y-4.7058
X12.1857Y-5.3058
X12.1857Y-5.5058
X12.1857Y-6.1058
X12.1902Y-7.191
X12.1902Y-7.591
X12.1902Y-7.676
X12.1902Y-8.076
X12.2772Y-6.3357
X12.2772Y-6.9357
X12.285Y-3.9008
X12.285Y-4.5008
X12.2857Y-4.7058
X12.2857Y-5.3058
X12.2857Y-5.5058
X12.2857Y-6.1058
X12.2902Y-7.191
X12.2902Y-7.591
X12.2902Y-7.676
X12.2902Y-8.076
X12.3772Y-6.3357
X12.3772Y-6.9357
X12.385Y-3.9008
X12.385Y-4.5008
X12.3857Y-4.7058
X12.3857Y-5.3058
X12.3857Y-5.5058
X12.3857Y-6.1058
X12.3902Y-7.191
X12.3902Y-7.591
X12.3902Y-7.676
X12.3902Y-8.076
X12.4772Y-6.3357
X12.4772Y-6.9357
X12.485Y-3.9008
X12.485Y-4.5008
X12.4857Y-4.7058
X12.4857Y-5.3058
X12.4857Y-5.5058
X12.4857Y-6.1058
X12.4902Y-7.191
X12.4902Y-7.591
X12.4902Y-7.676
X12.4902Y-8.076
X12.5772Y-6.3357
X12.5772Y-6.9357
X12.585Y-3.9008
X12.585Y-4.5008
X12.5857Y-4.7058
X12.5857Y-5.3058
X12.5857Y-5.5058
X12.5857Y-6.1058
X12.6598Y-7.2012
X12.6598Y-7.3012
X12.6598Y-7.4012
X12.6598Y-7.5012
X12.6598Y-7.6012
X12.6598Y-7.7012
X12.6598Y-7.8012
X12.6598Y-8.0412
X12.6598Y-8.1412
X12.6598Y-8.2412
X12.6598Y-8.3412
X12.6598Y-8.4412
X12.6598Y-8.5412
X12.6598Y-8.6412
X12.6772Y-6.3357
X12.6772Y-6.9357
X12.685Y-3.9008
X12.685Y-4.5008
X12.6857Y-4.7058
X12.6857Y-5.3058
X12.6857Y-5.5058
X12.6857Y-6.1058
X12.7772Y-6.3357
X12.7772Y-6.9357
X12.785Y-3.9008
X12.785Y-4.5008
X12.7857Y-4.7058
X12.7857Y-5.3058
X12.7857Y-5.5058
X12.7857Y-6.1058
X12.8772Y-6.3357
X12.8772Y-6.9357
X12.885Y-3.9008
X12.885Y-4.5008
X12.8857Y-4.7058
X12.8857Y-5.3058
X12.8857Y-5.5058
X12.8857Y-6.1058
X12.9598Y-7.2012
X12.9598Y-7.3012
X12.9598Y-7.4012
X12.9598Y-7.5012
X12.9598Y-7.6012
X12.9598Y-7.7012
X12.9598Y-7.8012
X12.9598Y-8.0412
X12.9598Y-8.1412
X12.9598Y-8.2412
X12.9598Y-8.3412
X12.9598Y-8.4412
X12.9598Y-8.5412
X12.9598Y-8.6412
X12.9772Y-6.3357
X12.9772Y-6.9357
X12.985Y-3.9008
X12.985Y-4.5008
X12.9857Y-4.7058
X12.9857Y-5.3058
X12.9857Y-5.5058
X12.9857Y-6.1058
X13.0772Y-6.3357
X13.0772Y-6.9357
X13.085Y-3.9008
X13.085Y-4.5008
X13.0902Y-7.4076
X13.0902Y-7.6044
X13.1772Y-6.3357
X13.1772Y-6.9357
X13.2198Y-7.2062
X13.2198Y-7.3062
X13.2198Y-7.4062
X13.2198Y-7.5062
X13.2198Y-7.6062
X13.2198Y-7.7062
X13.2198Y-7.8062
X13.2452Y-4.1026
X13.2452Y-4.2994
X13.2452Y-4.8026
X13.2452Y-4.9994
X13.2452Y-5.1087
X13.2452Y-5.5087
X13.2452Y-5.6626
X13.2452Y-5.8594
X13.2702Y-8.436
X13.2772Y-6.3357
X13.2772Y-6.9357
X13.4102Y-6.781
X13.4102Y-6.906
X13.4202Y-3.496
X13.4202Y-3.596
X13.4202Y-3.696
X13.4202Y-3.796
X13.4202Y-3.896
X13.4202Y-3.996
X13.4202Y-4.096
X13.4202Y-4.196
X13.4202Y-4.296
X13.4202Y-4.396
X13.5198Y-7.2062
X13.5198Y-7.3062
X13.5198Y-7.4062
X13.5198Y-7.5062
X13.5198Y-7.6062
X13.5198Y-7.7062
X13.5198Y-7.8062
X13.6652Y-7.501
X13.6652Y-7.901
X13.6702Y-8.436
X13.8052Y-7.501
X13.8052Y-7.901
X13.8102Y-6.781
X13.8102Y-6.906
X13.925Y-8.005
X13.925Y-8.405
X13.9502Y-7.6026
X13.9502Y-7.7994
T7
X3.3525Y-3.297
X3.3525Y-3.5726
T8
X9.9806Y-2.9333
X10.1578Y-2.9333
T9
X3.9055Y-3.3434
X3.9055Y-3.4434
X5.6552Y-3.0487
X5.7552Y-3.0487
X5.8552Y-3.0487
X5.9552Y-3.0487
X6.0552Y-3.0487
X6.1552Y-3.0487
X6.2407Y-7.636
X6.3396Y-7.781
X6.3407Y-7.636
X6.4396Y-7.781
X6.4407Y-7.636
X6.4752Y-3.0487
X6.5752Y-3.0487
X6.6752Y-3.0487
X6.7752Y-3.0487
X6.8752Y-3.0487
X6.9752Y-3.0487
X7.3948Y-3.0487
X7.4948Y-3.0487
X7.5948Y-3.0487
X7.6948Y-3.0487
X8.1752Y-3.7042
X8.1752Y-3.901
X8.9352Y-3.0487
X9.0352Y-3.0487
X9.1352Y-3.0487
X9.2352Y-3.0487
X9.3352Y-3.0487
X9.4352Y-3.0487
X10.2296Y-3.7308
X10.2296Y-3.8308
X10.3296Y-3.7308
X10.3296Y-3.8308
X10.4296Y-3.7308
X10.4296Y-3.8308
X10.9378Y-4.594
X10.938Y-4.742
X11.0378Y-4.594
X11.038Y-4.742
X11.1802Y-8.4806
X11.1802Y-8.5806
X11.2802Y-8.4806
X11.2802Y-8.5806
X11.3802Y-8.4806
X11.3802Y-8.5806
X11.4802Y-8.4806
X11.4802Y-8.5806
X11.5802Y-8.4806
X11.5802Y-8.5806
X11.6802Y-8.4806
X11.6802Y-8.5806
X11.7802Y-8.4806
X11.7802Y-8.5806
X11.8802Y-8.4806
X11.8802Y-8.5806
X11.9802Y-8.4806
X11.9802Y-8.5806
X12.0802Y-8.4806
X12.0802Y-8.5806
X12.1802Y-8.4806
X12.1802Y-8.5806
X12.2802Y-8.4806
X12.2802Y-8.5806
X13.3902Y-5.2557
X13.3902Y-5.3557
X13.4457Y-8.106
X13.5457Y-8.106
X13.6283Y-3.211
X13.6283Y-3.3094
X13.6283Y-3.4079
X13.6283Y-3.5063
X13.6283Y-3.6047
X13.6283Y-3.7031
X13.6283Y-3.8016
X13.6283Y-3.9
X13.6283Y-3.9984
X13.6283Y-4.0969
X13.6283Y-4.1953
X13.6283Y-4.2937
X13.6283Y-4.3921
X13.6283Y-4.4906
X13.6283Y-4.589
X13.6283Y-4.6874
X13.6283Y-4.7858
X13.6283Y-4.8843
X13.6283Y-4.9827
X13.6283Y-5.0811
X13.6283Y-5.1795
X13.6283Y-5.278
X13.6283Y-5.3764
X13.6283Y-5.4748
X13.6283Y-5.5732
X13.6283Y-5.6717
X13.6283Y-5.7701
X13.6283Y-5.8685
X13.6283Y-5.9669
X13.6283Y-6.0654
X13.6283Y-6.1638
X13.6283Y-6.2622
X13.6457Y-8.106
X13.7267Y-3.211
X13.7267Y-3.3094
X13.7267Y-3.4079
X13.7267Y-3.5063
X13.7267Y-3.6047
X13.7267Y-3.7031
X13.7267Y-3.8016
X13.7267Y-3.9
X13.7267Y-3.9984
X13.7267Y-4.0969
X13.7267Y-4.1953
X13.7267Y-4.2937
X13.7267Y-4.3921
X13.7267Y-4.4906
X13.7267Y-4.589
X13.7267Y-4.6874
X13.7267Y-4.7858
X13.7267Y-4.8843
X13.7267Y-4.9827
X13.7267Y-5.0811
X13.7267Y-5.1795
X13.7267Y-5.278
X13.7267Y-5.3764
X13.7267Y-5.4748
X13.7267Y-5.5732
X13.7267Y-5.6717
X13.7267Y-5.7701
X13.7267Y-5.8685
X13.7267Y-5.9669
X13.7267Y-6.0654
X13.7267Y-6.1638
X13.7267Y-6.2622
X13.8252Y-3.211
X13.8252Y-3.3094
X13.8252Y-3.4079
X13.8252Y-3.5063
X13.8252Y-3.6047
X13.8252Y-3.7031
X13.8252Y-3.8016
X13.8252Y-3.9
X13.8252Y-3.9984
X13.8252Y-4.0969
X13.8252Y-4.1953
X13.8252Y-4.2937
X13.8252Y-4.3921
X13.8252Y-4.4906
X13.8252Y-4.589
X13.8252Y-4.6874
X13.8252Y-4.7858
X13.8252Y-4.8843
X13.8252Y-4.9827
X13.8252Y-5.0811
X13.8252Y-5.1795
X13.8252Y-5.278
X13.8252Y-5.3764
X13.8252Y-5.4748
X13.8252Y-5.5732
X13.8252Y-5.6717
X13.8252Y-5.7701
X13.8252Y-5.8685
X13.8252Y-5.9669
X13.8252Y-6.0654
X13.8252Y-6.1638
X13.8252Y-6.2622
T10
X5.7083Y-2.9326
X5.8067Y-2.9207
X6.0036Y-2.9207
X6.102Y-2.9326
X6.5283Y-2.9326
X6.6267Y-2.9207
X6.8236Y-2.9207
X6.922Y-2.9326
X7.3483Y-2.9326
X7.4467Y-2.9207
X7.6436Y-2.9207
X7.742Y-2.9326
X8.1683Y-2.9326
X8.2667Y-2.9207
X8.4636Y-2.9207
X8.562Y-2.9326
X8.9883Y-2.9326
X9.0867Y-2.9207
X9.2836Y-2.9207
X9.382Y-2.9326
T11
X5.6099Y-3.3144
X5.6099Y-3.5152
X5.7083Y-3.4129
X5.9052Y-3.3144
X6.102Y-3.4129
X6.2004Y-3.3144
X6.2004Y-3.5152
X6.4299Y-3.3144
X6.4299Y-3.5152
X6.5283Y-3.4129
X6.7252Y-3.3144
X6.922Y-3.4129
X7.0204Y-3.3144
X7.0204Y-3.5152
X7.2499Y-3.3144
X7.3483Y-3.4129
X7.5452Y-3.3144
X7.742Y-3.4129
X7.8404Y-3.3144
X8.0699Y-3.3144
X8.1683Y-3.4129
X8.3652Y-3.3144
X8.562Y-3.4129
X8.6604Y-3.3144
X8.8899Y-3.3144
X8.8899Y-3.5152
X8.9883Y-3.4129
X9.1852Y-3.3144
X9.382Y-3.4129
X9.4804Y-3.3144
X9.4804Y-3.5152
X9.9314Y-3.0313
X10.2074Y-3.0313
T2
G00X11.8782Y-2.8938
M15
G01X11.8782Y-2.882
M16
G05
G00X11.8782Y-2.9725
M15
G01X11.8782Y-2.9607
M16
G05
G00X11.959Y-3.0178
M15
G01X11.9708Y-3.0178
M16
G05
G00X12.0377Y-3.0178
M15
G01X12.0495Y-3.0178
M16
G05
G00X12.1302Y-2.8938
M15
G01X12.1302Y-2.882
M16
G05
G00X12.1302Y-2.9725
M15
G01X12.1302Y-2.9607
M16
G05
T9
G00X3.8173Y-3.1901
M15
G01X3.8173Y-3.1075
M16
G05
G00X3.8173Y-3.6862
M15
G01X3.8173Y-3.6035
M16
G05
T0
M30
