  0
SECTION
  2
HEADER
  9
$ACADVER
  1
AC1009
  9
$FILLMODE
 70
 0
  9
$SPLFRAME
 70
 1
  9
$EXTMIN
 10
0
 20
0
 30
0.0
  9
$EXTMAX
 10
1058.33
 20
1058.33
 30
0.0
  0
ENDSEC
  0
SECTION
  2
TABLES
  0
TABLE
  2
LAYER
 70
1
  0
LAYER
  2
0
 70
     0
 62
     7
  6
CONTINUOUS
  0
ENDTAB
  0
ENDSEC
  0
SECTION
  2
ENTITIES
  0
LINE
  8
0
 62
     0
 10
0.0950846
 20
95.5075
 30
0.0
 11
276.32
 21
95.5075
 31
0.0
  0
LINE
  8
0
 62
     0
 10
276.32
 20
95.5075
 30
0.0
 11
276.32
 21
0.257693
 31
0.0
  0
LINE
  8
0
 62
     0
 10
276.32
 20
0.257693
 30
0.0
 11
0.0950846
 21
0.257693
 31
0.0
  0
LINE
  8
0
 62
     0
 10
0.0950846
 20
0.257693
 30
0.0
 11
0.0950846
 21
95.5075
 31
0.0
  0
LINE
  8
0
 62
     0
 10
14.5259
 20
16.7831
 30
0.0
 11
14.5259
 21
12.0826
 31
0.0
  0
LINE
  8
0
 62
     0
 10
14.5259
 20
12.0826
 30
0.0
 11
13.0004
 21
12.0826
 31
0.0
  0
LINE
  8
0
 62
     0
 10
13.0004
 20
12.0826
 30
0.0
 11
13.0004
 21
15.3128
 31
0.0
  0
LINE
  8
0
 62
     0
 10
13.0004
 20
15.3128
 30
0.0
 11
6.2508
 21
15.3128
 31
0.0
  0
LINE
  8
0
 62
     0
 10
6.2508
 20
15.3128
 30
0.0
 11
6.2508
 21
12.0826
 31
0.0
  0
LINE
  8
0
 62
     0
 10
6.2508
 20
12.0826
 30
0.0
 11
5.42533
 21
12.0826
 31
0.0
  0
LINE
  8
0
 62
     0
 10
5.42533
 20
12.0826
 30
0.0
 11
5.42533
 21
9.28384
 31
0.0
  0
LINE
  8
0
 62
     0
 10
5.42533
 20
9.28384
 30
0.0
 11
6.2508
 21
9.28384
 31
0.0
  0
LINE
  8
0
 62
     0
 10
6.2508
 20
9.28384
 30
0.0
 11
6.2508
 21
3.01377
 31
0.0
  0
LINE
  8
0
 62
     0
 10
6.2508
 20
3.01377
 30
0.0
 11
7.97609
 21
3.01377
 31
0.0
  0
LINE
  8
0
 62
     0
 10
7.97609
 20
3.01377
 30
0.0
 11
7.97609
 21
1.8135
 31
0.0
  0
LINE
  8
0
 62
     0
 10
7.97609
 20
1.8135
 30
0.0
 11
11.2751
 21
1.8135
 31
0.0
  0
LINE
  8
0
 62
     0
 10
11.2751
 20
1.8135
 30
0.0
 11
11.2751
 21
3.01377
 31
0.0
  0
LINE
  8
0
 62
     0
 10
11.2751
 20
3.01377
 30
0.0
 11
13.0004
 21
3.01377
 31
0.0
  0
LINE
  8
0
 62
     0
 10
13.0004
 20
3.01377
 30
0.0
 11
13.0004
 21
7.48411
 31
0.0
  0
LINE
  8
0
 62
     0
 10
13.0004
 20
7.48411
 30
0.0
 11
14.5259
 21
7.48411
 31
0.0
  0
LINE
  8
0
 62
     0
 10
14.5259
 20
7.48411
 30
0.0
 11
14.5259
 21
2.78364
 31
0.0
  0
LINE
  8
0
 62
     0
 10
14.5259
 20
2.78364
 30
0.0
 11
28.5254
 21
2.78364
 31
0.0
  0
LINE
  8
0
 62
     0
 10
28.5254
 20
2.78364
 30
0.0
 11
28.5254
 21
7.48411
 31
0.0
  0
LINE
  8
0
 62
     0
 10
28.5254
 20
7.48411
 30
0.0
 11
30.0509
 21
7.48411
 31
0.0
  0
LINE
  8
0
 62
     0
 10
30.0509
 20
7.48411
 30
0.0
 11
30.0509
 21
3.01377
 31
0.0
  0
LINE
  8
0
 62
     0
 10
30.0509
 20
3.01377
 30
0.0
 11
31.7748
 21
3.01377
 31
0.0
  0
LINE
  8
0
 62
     0
 10
31.7748
 20
3.01377
 30
0.0
 11
31.7748
 21
1.8135
 31
0.0
  0
LINE
  8
0
 62
     0
 10
31.7748
 20
1.8135
 30
0.0
 11
35.0752
 21
1.8135
 31
0.0
  0
LINE
  8
0
 62
     0
 10
35.0752
 20
1.8135
 30
0.0
 11
35.0752
 21
3.01377
 31
0.0
  0
LINE
  8
0
 62
     0
 10
35.0752
 20
3.01377
 30
0.0
 11
36.8004
 21
3.01377
 31
0.0
  0
LINE
  8
0
 62
     0
 10
36.8004
 20
3.01377
 30
0.0
 11
36.8004
 21
9.28384
 31
0.0
  0
LINE
  8
0
 62
     0
 10
36.8004
 20
9.28384
 30
0.0
 11
37.6259
 21
9.28384
 31
0.0
  0
LINE
  8
0
 62
     0
 10
37.6259
 20
9.28384
 30
0.0
 11
37.6259
 21
12.0826
 31
0.0
  0
LINE
  8
0
 62
     0
 10
37.6259
 20
12.0826
 30
0.0
 11
36.8004
 21
12.0826
 31
0.0
  0
LINE
  8
0
 62
     0
 10
36.8004
 20
12.0826
 30
0.0
 11
36.8004
 21
15.3128
 31
0.0
  0
LINE
  8
0
 62
     0
 10
36.8004
 20
15.3128
 30
0.0
 11
30.0509
 21
15.3128
 31
0.0
  0
LINE
  8
0
 62
     0
 10
30.0509
 20
15.3128
 30
0.0
 11
30.0509
 21
12.0826
 31
0.0
  0
LINE
  8
0
 62
     0
 10
30.0509
 20
12.0826
 30
0.0
 11
28.5254
 21
12.0826
 31
0.0
  0
LINE
  8
0
 62
     0
 10
28.5254
 20
12.0826
 30
0.0
 11
28.5254
 21
16.7831
 31
0.0
  0
LINE
  8
0
 62
     0
 10
28.5254
 20
16.7831
 30
0.0
 11
14.5259
 21
16.7831
 31
0.0
  0
LINE
  8
0
 62
     0
 10
55.0072
 20
16.7831
 30
0.0
 11
55.0072
 21
12.0826
 31
0.0
  0
LINE
  8
0
 62
     0
 10
55.0072
 20
12.0826
 30
0.0
 11
53.4818
 21
12.0826
 31
0.0
  0
LINE
  8
0
 62
     0
 10
53.4818
 20
12.0826
 30
0.0
 11
53.4818
 21
15.3128
 31
0.0
  0
LINE
  8
0
 62
     0
 10
53.4818
 20
15.3128
 30
0.0
 11
46.7321
 21
15.3128
 31
0.0
  0
LINE
  8
0
 62
     0
 10
46.7321
 20
15.3128
 30
0.0
 11
46.7321
 21
12.0826
 31
0.0
  0
LINE
  8
0
 62
     0
 10
46.7321
 20
12.0826
 30
0.0
 11
45.9066
 21
12.0826
 31
0.0
  0
LINE
  8
0
 62
     0
 10
45.9066
 20
12.0826
 30
0.0
 11
45.9066
 21
9.28384
 31
0.0
  0
LINE
  8
0
 62
     0
 10
45.9066
 20
9.28384
 30
0.0
 11
46.7321
 21
9.28384
 31
0.0
  0
LINE
  8
0
 62
     0
 10
46.7321
 20
9.28384
 30
0.0
 11
46.7321
 21
3.01377
 31
0.0
  0
LINE
  8
0
 62
     0
 10
46.7321
 20
3.01377
 30
0.0
 11
48.4558
 21
3.01377
 31
0.0
  0
LINE
  8
0
 62
     0
 10
48.4558
 20
3.01377
 30
0.0
 11
48.4558
 21
1.8135
 31
0.0
  0
LINE
  8
0
 62
     0
 10
48.4558
 20
1.8135
 30
0.0
 11
51.7564
 21
1.8135
 31
0.0
  0
LINE
  8
0
 62
     0
 10
51.7564
 20
1.8135
 30
0.0
 11
51.7564
 21
3.01377
 31
0.0
  0
LINE
  8
0
 62
     0
 10
51.7564
 20
3.01377
 30
0.0
 11
53.4818
 21
3.01377
 31
0.0
  0
LINE
  8
0
 62
     0
 10
53.4818
 20
3.01377
 30
0.0
 11
53.4818
 21
7.48411
 31
0.0
  0
LINE
  8
0
 62
     0
 10
53.4818
 20
7.48411
 30
0.0
 11
55.0072
 21
7.48411
 31
0.0
  0
LINE
  8
0
 62
     0
 10
55.0072
 20
7.48411
 30
0.0
 11
55.0072
 21
2.78364
 31
0.0
  0
LINE
  8
0
 62
     0
 10
55.0072
 20
2.78364
 30
0.0
 11
69.0065
 21
2.78364
 31
0.0
  0
LINE
  8
0
 62
     0
 10
69.0065
 20
2.78364
 30
0.0
 11
69.0065
 21
7.48411
 31
0.0
  0
LINE
  8
0
 62
     0
 10
69.0065
 20
7.48411
 30
0.0
 11
70.5323
 21
7.48411
 31
0.0
  0
LINE
  8
0
 62
     0
 10
70.5323
 20
7.48411
 30
0.0
 11
70.5323
 21
3.01377
 31
0.0
  0
LINE
  8
0
 62
     0
 10
70.5323
 20
3.01377
 30
0.0
 11
72.2559
 21
3.01377
 31
0.0
  0
LINE
  8
0
 62
     0
 10
72.2559
 20
3.01377
 30
0.0
 11
72.2559
 21
1.8135
 31
0.0
  0
LINE
  8
0
 62
     0
 10
72.2559
 20
1.8135
 30
0.0
 11
75.5565
 21
1.8135
 31
0.0
  0
LINE
  8
0
 62
     0
 10
75.5565
 20
1.8135
 30
0.0
 11
75.5565
 21
3.01377
 31
0.0
  0
LINE
  8
0
 62
     0
 10
75.5565
 20
3.01377
 30
0.0
 11
77.2816
 21
3.01377
 31
0.0
  0
LINE
  8
0
 62
     0
 10
77.2816
 20
3.01377
 30
0.0
 11
77.2816
 21
9.28384
 31
0.0
  0
LINE
  8
0
 62
     0
 10
77.2816
 20
9.28384
 30
0.0
 11
78.1057
 21
9.28384
 31
0.0
  0
LINE
  8
0
 62
     0
 10
78.1057
 20
9.28384
 30
0.0
 11
78.1057
 21
12.0826
 31
0.0
  0
LINE
  8
0
 62
     0
 10
78.1057
 20
12.0826
 30
0.0
 11
77.2816
 21
12.0826
 31
0.0
  0
LINE
  8
0
 62
     0
 10
77.2816
 20
12.0826
 30
0.0
 11
77.2816
 21
15.3128
 31
0.0
  0
LINE
  8
0
 62
     0
 10
77.2816
 20
15.3128
 30
0.0
 11
70.5323
 21
15.3128
 31
0.0
  0
LINE
  8
0
 62
     0
 10
70.5323
 20
15.3128
 30
0.0
 11
70.5323
 21
12.0826
 31
0.0
  0
LINE
  8
0
 62
     0
 10
70.5323
 20
12.0826
 30
0.0
 11
69.0065
 21
12.0826
 31
0.0
  0
LINE
  8
0
 62
     0
 10
69.0065
 20
12.0826
 30
0.0
 11
69.0065
 21
16.7831
 31
0.0
  0
LINE
  8
0
 62
     0
 10
69.0065
 20
16.7831
 30
0.0
 11
55.0072
 21
16.7831
 31
0.0
  0
LINE
  8
0
 62
     0
 10
133.587
 20
16.7831
 30
0.0
 11
133.587
 21
12.0826
 31
0.0
  0
LINE
  8
0
 62
     0
 10
133.587
 20
12.0826
 30
0.0
 11
93.9631
 21
12.0826
 31
0.0
  0
LINE
  8
0
 62
     0
 10
93.9631
 20
12.0826
 30
0.0
 11
93.9631
 21
15.3128
 31
0.0
  0
LINE
  8
0
 62
     0
 10
93.9631
 20
15.3128
 30
0.0
 11
87.212
 21
15.3128
 31
0.0
  0
LINE
  8
0
 62
     0
 10
87.212
 20
15.3128
 30
0.0
 11
87.212
 21
12.0826
 31
0.0
  0
LINE
  8
0
 62
     0
 10
87.212
 20
12.0826
 30
0.0
 11
86.3879
 21
12.0826
 31
0.0
  0
LINE
  8
0
 62
     0
 10
86.3879
 20
12.0826
 30
0.0
 11
86.3879
 21
9.28384
 31
0.0
  0
LINE
  8
0
 62
     0
 10
86.3879
 20
9.28384
 30
0.0
 11
87.212
 21
9.28384
 31
0.0
  0
LINE
  8
0
 62
     0
 10
87.212
 20
9.28384
 30
0.0
 11
87.212
 21
3.01377
 31
0.0
  0
LINE
  8
0
 62
     0
 10
87.212
 20
3.01377
 30
0.0
 11
88.937
 21
3.01377
 31
0.0
  0
LINE
  8
0
 62
     0
 10
88.937
 20
3.01377
 30
0.0
 11
88.937
 21
1.8135
 31
0.0
  0
LINE
  8
0
 62
     0
 10
88.937
 20
1.8135
 30
0.0
 11
92.2376
 21
1.8135
 31
0.0
  0
LINE
  8
0
 62
     0
 10
92.2376
 20
1.8135
 30
0.0
 11
92.2376
 21
3.01377
 31
0.0
  0
LINE
  8
0
 62
     0
 10
92.2376
 20
3.01377
 30
0.0
 11
93.9631
 21
3.01377
 31
0.0
  0
LINE
  8
0
 62
     0
 10
93.9631
 20
3.01377
 30
0.0
 11
93.9631
 21
7.48411
 31
0.0
  0
LINE
  8
0
 62
     0
 10
93.9631
 20
7.48411
 30
0.0
 11
133.587
 21
7.48411
 31
0.0
  0
LINE
  8
0
 62
     0
 10
133.587
 20
7.48411
 30
0.0
 11
133.587
 21
2.78364
 31
0.0
  0
LINE
  8
0
 62
     0
 10
133.587
 20
2.78364
 30
0.0
 11
147.588
 21
2.78364
 31
0.0
  0
LINE
  8
0
 62
     0
 10
147.588
 20
2.78364
 30
0.0
 11
147.588
 21
7.48411
 31
0.0
  0
LINE
  8
0
 62
     0
 10
147.588
 20
7.48411
 30
0.0
 11
187.212
 21
7.48411
 31
0.0
  0
LINE
  8
0
 62
     0
 10
187.212
 20
7.48411
 30
0.0
 11
187.212
 21
3.01377
 31
0.0
  0
LINE
  8
0
 62
     0
 10
187.212
 20
3.01377
 30
0.0
 11
188.937
 21
3.01377
 31
0.0
  0
LINE
  8
0
 62
     0
 10
188.937
 20
3.01377
 30
0.0
 11
188.937
 21
1.8135
 31
0.0
  0
LINE
  8
0
 62
     0
 10
188.937
 20
1.8135
 30
0.0
 11
192.238
 21
1.8135
 31
0.0
  0
LINE
  8
0
 62
     0
 10
192.238
 20
1.8135
 30
0.0
 11
192.238
 21
3.01377
 31
0.0
  0
LINE
  8
0
 62
     0
 10
192.238
 20
3.01377
 30
0.0
 11
193.963
 21
3.01377
 31
0.0
  0
LINE
  8
0
 62
     0
 10
193.963
 20
3.01377
 30
0.0
 11
193.963
 21
9.28384
 31
0.0
  0
LINE
  8
0
 62
     0
 10
193.963
 20
9.28384
 30
0.0
 11
194.787
 21
9.28384
 31
0.0
  0
LINE
  8
0
 62
     0
 10
194.787
 20
9.28384
 30
0.0
 11
194.787
 21
12.0826
 31
0.0
  0
LINE
  8
0
 62
     0
 10
194.787
 20
12.0826
 30
0.0
 11
193.963
 21
12.0826
 31
0.0
  0
LINE
  8
0
 62
     0
 10
193.963
 20
12.0826
 30
0.0
 11
193.963
 21
15.3128
 31
0.0
  0
LINE
  8
0
 62
     0
 10
193.963
 20
15.3128
 30
0.0
 11
187.212
 21
15.3128
 31
0.0
  0
LINE
  8
0
 62
     0
 10
187.212
 20
15.3128
 30
0.0
 11
187.212
 21
12.0826
 31
0.0
  0
LINE
  8
0
 62
     0
 10
187.212
 20
12.0826
 30
0.0
 11
147.588
 21
12.0826
 31
0.0
  0
LINE
  8
0
 62
     0
 10
147.588
 20
12.0826
 30
0.0
 11
147.588
 21
16.7831
 31
0.0
  0
LINE
  8
0
 62
     0
 10
147.588
 20
16.7831
 30
0.0
 11
133.587
 21
16.7831
 31
0.0
  0
LINE
  8
0
 62
     0
 10
202.645
 20
16.7831
 30
0.0
 11
216.644
 21
16.7831
 31
0.0
  0
LINE
  8
0
 62
     0
 10
216.644
 20
16.7831
 30
0.0
 11
216.644
 21
2.78364
 31
0.0
  0
LINE
  8
0
 62
     0
 10
216.644
 20
2.78364
 30
0.0
 11
202.645
 21
2.78364
 31
0.0
  0
LINE
  8
0
 62
     0
 10
202.645
 20
2.78364
 30
0.0
 11
202.645
 21
16.7831
 31
0.0
  0
LINE
  8
0
 62
     0
 10
221.695
 20
16.7831
 30
0.0
 11
235.694
 21
16.7831
 31
0.0
  0
LINE
  8
0
 62
     0
 10
235.694
 20
16.7831
 30
0.0
 11
235.694
 21
2.78364
 31
0.0
  0
LINE
  8
0
 62
     0
 10
235.694
 20
2.78364
 30
0.0
 11
221.695
 21
2.78364
 31
0.0
  0
LINE
  8
0
 62
     0
 10
221.695
 20
2.78364
 30
0.0
 11
221.695
 21
16.7831
 31
0.0
  0
LINE
  8
0
 62
     0
 10
240.745
 20
16.7831
 30
0.0
 11
254.744
 21
16.7831
 31
0.0
  0
LINE
  8
0
 62
     0
 10
254.744
 20
16.7831
 30
0.0
 11
254.744
 21
2.78364
 31
0.0
  0
LINE
  8
0
 62
     0
 10
254.744
 20
2.78364
 30
0.0
 11
240.745
 21
2.78364
 31
0.0
  0
LINE
  8
0
 62
     0
 10
240.745
 20
2.78364
 30
0.0
 11
240.745
 21
16.7831
 31
0.0
  0
LINE
  8
0
 62
     0
 10
259.795
 20
16.7831
 30
0.0
 11
273.794
 21
16.7831
 31
0.0
  0
LINE
  8
0
 62
     0
 10
273.794
 20
16.7831
 30
0.0
 11
273.794
 21
2.78364
 31
0.0
  0
LINE
  8
0
 62
     0
 10
273.794
 20
2.78364
 30
0.0
 11
259.795
 21
2.78364
 31
0.0
  0
LINE
  8
0
 62
     0
 10
259.795
 20
2.78364
 30
0.0
 11
259.795
 21
16.7831
 31
0.0
  0
LINE
  8
0
 62
     0
 10
250.27
 20
35.833
 30
0.0
 11
250.27
 21
31.1326
 31
0.0
  0
LINE
  8
0
 62
     0
 10
250.27
 20
31.1326
 30
0.0
 11
248.744
 21
31.1326
 31
0.0
  0
LINE
  8
0
 62
     0
 10
248.744
 20
31.1326
 30
0.0
 11
248.744
 21
34.3628
 31
0.0
  0
LINE
  8
0
 62
     0
 10
248.744
 20
34.3628
 30
0.0
 11
241.995
 21
34.3628
 31
0.0
  0
LINE
  8
0
 62
     0
 10
241.995
 20
34.3628
 30
0.0
 11
241.995
 21
31.1326
 31
0.0
  0
LINE
  8
0
 62
     0
 10
241.995
 20
31.1326
 30
0.0
 11
241.169
 21
31.1326
 31
0.0
  0
LINE
  8
0
 62
     0
 10
241.169
 20
31.1326
 30
0.0
 11
241.169
 21
28.3338
 31
0.0
  0
LINE
  8
0
 62
     0
 10
241.169
 20
28.3338
 30
0.0
 11
241.995
 21
28.3338
 31
0.0
  0
LINE
  8
0
 62
     0
 10
241.995
 20
28.3338
 30
0.0
 11
241.995
 21
22.0638
 31
0.0
  0
LINE
  8
0
 62
     0
 10
241.995
 20
22.0638
 30
0.0
 11
243.72
 21
22.0638
 31
0.0
  0
LINE
  8
0
 62
     0
 10
243.72
 20
22.0638
 30
0.0
 11
243.72
 21
20.8635
 31
0.0
  0
LINE
  8
0
 62
     0
 10
243.72
 20
20.8635
 30
0.0
 11
247.019
 21
20.8635
 31
0.0
  0
LINE
  8
0
 62
     0
 10
247.019
 20
20.8635
 30
0.0
 11
247.019
 21
22.0638
 31
0.0
  0
LINE
  8
0
 62
     0
 10
247.019
 20
22.0638
 30
0.0
 11
248.744
 21
22.0638
 31
0.0
  0
LINE
  8
0
 62
     0
 10
248.744
 20
22.0638
 30
0.0
 11
248.744
 21
26.5327
 31
0.0
  0
LINE
  8
0
 62
     0
 10
248.744
 20
26.5327
 30
0.0
 11
250.27
 21
26.5327
 31
0.0
  0
LINE
  8
0
 62
     0
 10
250.27
 20
26.5327
 30
0.0
 11
250.27
 21
21.8336
 31
0.0
  0
LINE
  8
0
 62
     0
 10
250.27
 20
21.8336
 30
0.0
 11
264.269
 21
21.8336
 31
0.0
  0
LINE
  8
0
 62
     0
 10
264.269
 20
21.8336
 30
0.0
 11
264.269
 21
26.5327
 31
0.0
  0
LINE
  8
0
 62
     0
 10
264.269
 20
26.5327
 30
0.0
 11
265.795
 21
26.5327
 31
0.0
  0
LINE
  8
0
 62
     0
 10
265.795
 20
26.5327
 30
0.0
 11
265.795
 21
22.0638
 31
0.0
  0
LINE
  8
0
 62
     0
 10
265.795
 20
22.0638
 30
0.0
 11
267.52
 21
22.0638
 31
0.0
  0
LINE
  8
0
 62
     0
 10
267.52
 20
22.0638
 30
0.0
 11
267.52
 21
20.8635
 31
0.0
  0
LINE
  8
0
 62
     0
 10
267.52
 20
20.8635
 30
0.0
 11
270.819
 21
20.8635
 31
0.0
  0
LINE
  8
0
 62
     0
 10
270.819
 20
20.8635
 30
0.0
 11
270.819
 21
22.0638
 31
0.0
  0
LINE
  8
0
 62
     0
 10
270.819
 20
22.0638
 30
0.0
 11
272.544
 21
22.0638
 31
0.0
  0
LINE
  8
0
 62
     0
 10
272.544
 20
22.0638
 30
0.0
 11
272.544
 21
28.3338
 31
0.0
  0
LINE
  8
0
 62
     0
 10
272.544
 20
28.3338
 30
0.0
 11
273.37
 21
28.3338
 31
0.0
  0
LINE
  8
0
 62
     0
 10
273.37
 20
28.3338
 30
0.0
 11
273.37
 21
31.1326
 31
0.0
  0
LINE
  8
0
 62
     0
 10
273.37
 20
31.1326
 30
0.0
 11
272.544
 21
31.1326
 31
0.0
  0
LINE
  8
0
 62
     0
 10
272.544
 20
31.1326
 30
0.0
 11
272.544
 21
34.3628
 31
0.0
  0
LINE
  8
0
 62
     0
 10
272.544
 20
34.3628
 30
0.0
 11
265.795
 21
34.3628
 31
0.0
  0
LINE
  8
0
 62
     0
 10
265.795
 20
34.3628
 30
0.0
 11
265.795
 21
31.1326
 31
0.0
  0
LINE
  8
0
 62
     0
 10
265.795
 20
31.1326
 30
0.0
 11
264.269
 21
31.1326
 31
0.0
  0
LINE
  8
0
 62
     0
 10
264.269
 20
31.1326
 30
0.0
 11
264.269
 21
35.833
 31
0.0
  0
LINE
  8
0
 62
     0
 10
264.269
 20
35.833
 30
0.0
 11
250.27
 21
35.833
 31
0.0
  0
LINE
  8
0
 62
     0
 10
7.38216
 20
35.833
 30
0.0
 11
21.3817
 21
35.833
 31
0.0
  0
LINE
  8
0
 62
     0
 10
21.3817
 20
35.833
 30
0.0
 11
21.3817
 21
21.8336
 31
0.0
  0
LINE
  8
0
 62
     0
 10
21.3817
 20
21.8336
 30
0.0
 11
7.38216
 21
21.8336
 31
0.0
  0
LINE
  8
0
 62
     0
 10
7.38216
 20
21.8336
 30
0.0
 11
7.38216
 21
35.833
 31
0.0
  0
LINE
  8
0
 62
     0
 10
31.1947
 20
35.833
 30
0.0
 11
45.194
 21
35.833
 31
0.0
  0
LINE
  8
0
 62
     0
 10
45.194
 20
35.833
 30
0.0
 11
45.194
 21
21.8336
 31
0.0
  0
LINE
  8
0
 62
     0
 10
45.194
 20
21.8336
 30
0.0
 11
31.1947
 21
21.8336
 31
0.0
  0
LINE
  8
0
 62
     0
 10
31.1947
 20
21.8336
 30
0.0
 11
31.1947
 21
35.833
 31
0.0
  0
LINE
  8
0
 62
     0
 10
50.2447
 20
35.833
 30
0.0
 11
64.244
 21
35.833
 31
0.0
  0
LINE
  8
0
 62
     0
 10
64.244
 20
35.833
 30
0.0
 11
64.244
 21
21.8336
 31
0.0
  0
LINE
  8
0
 62
     0
 10
64.244
 20
21.8336
 30
0.0
 11
50.2447
 21
21.8336
 31
0.0
  0
LINE
  8
0
 62
     0
 10
50.2447
 20
21.8336
 30
0.0
 11
50.2447
 21
35.833
 31
0.0
  0
LINE
  8
0
 62
     0
 10
69.2947
 20
35.833
 30
0.0
 11
83.294
 21
35.833
 31
0.0
  0
LINE
  8
0
 62
     0
 10
83.294
 20
35.833
 30
0.0
 11
83.294
 21
21.8336
 31
0.0
  0
LINE
  8
0
 62
     0
 10
83.294
 20
21.8336
 30
0.0
 11
69.2947
 21
21.8336
 31
0.0
  0
LINE
  8
0
 62
     0
 10
69.2947
 20
21.8336
 30
0.0
 11
69.2947
 21
35.833
 31
0.0
  0
LINE
  8
0
 62
     0
 10
88.3447
 20
35.833
 30
0.0
 11
102.344
 21
35.833
 31
0.0
  0
LINE
  8
0
 62
     0
 10
102.344
 20
35.833
 30
0.0
 11
102.344
 21
21.8336
 31
0.0
  0
LINE
  8
0
 62
     0
 10
102.344
 20
21.8336
 30
0.0
 11
88.3447
 21
21.8336
 31
0.0
  0
LINE
  8
0
 62
     0
 10
88.3447
 20
21.8336
 30
0.0
 11
88.3447
 21
35.833
 31
0.0
  0
LINE
  8
0
 62
     0
 10
107.395
 20
35.833
 30
0.0
 11
121.394
 21
35.833
 31
0.0
  0
LINE
  8
0
 62
     0
 10
121.394
 20
35.833
 30
0.0
 11
121.394
 21
21.8336
 31
0.0
  0
LINE
  8
0
 62
     0
 10
121.394
 20
21.8336
 30
0.0
 11
107.395
 21
21.8336
 31
0.0
  0
LINE
  8
0
 62
     0
 10
107.395
 20
21.8336
 30
0.0
 11
107.395
 21
35.833
 31
0.0
  0
LINE
  8
0
 62
     0
 10
126.445
 20
35.833
 30
0.0
 11
140.444
 21
35.833
 31
0.0
  0
LINE
  8
0
 62
     0
 10
140.444
 20
35.833
 30
0.0
 11
140.444
 21
21.8336
 31
0.0
  0
LINE
  8
0
 62
     0
 10
140.444
 20
21.8336
 30
0.0
 11
126.445
 21
21.8336
 31
0.0
  0
LINE
  8
0
 62
     0
 10
126.445
 20
21.8336
 30
0.0
 11
126.445
 21
35.833
 31
0.0
  0
LINE
  8
0
 62
     0
 10
145.495
 20
35.833
 30
0.0
 11
159.494
 21
35.833
 31
0.0
  0
LINE
  8
0
 62
     0
 10
159.494
 20
35.833
 30
0.0
 11
159.494
 21
21.8336
 31
0.0
  0
LINE
  8
0
 62
     0
 10
159.494
 20
21.8336
 30
0.0
 11
145.495
 21
21.8336
 31
0.0
  0
LINE
  8
0
 62
     0
 10
145.495
 20
21.8336
 30
0.0
 11
145.495
 21
35.833
 31
0.0
  0
LINE
  8
0
 62
     0
 10
164.545
 20
35.833
 30
0.0
 11
178.544
 21
35.833
 31
0.0
  0
LINE
  8
0
 62
     0
 10
178.544
 20
35.833
 30
0.0
 11
178.544
 21
21.8336
 31
0.0
  0
LINE
  8
0
 62
     0
 10
178.544
 20
21.8336
 30
0.0
 11
164.545
 21
21.8336
 31
0.0
  0
LINE
  8
0
 62
     0
 10
164.545
 20
21.8336
 30
0.0
 11
164.545
 21
35.833
 31
0.0
  0
LINE
  8
0
 62
     0
 10
221.695
 20
35.833
 30
0.0
 11
235.694
 21
35.833
 31
0.0
  0
LINE
  8
0
 62
     0
 10
235.694
 20
35.833
 30
0.0
 11
235.694
 21
21.8336
 31
0.0
  0
LINE
  8
0
 62
     0
 10
235.694
 20
21.8336
 30
0.0
 11
221.695
 21
21.8336
 31
0.0
  0
LINE
  8
0
 62
     0
 10
221.695
 20
21.8336
 30
0.0
 11
221.695
 21
35.833
 31
0.0
  0
LINE
  8
0
 62
     0
 10
183.595
 20
35.833
 30
0.0
 11
197.594
 21
35.833
 31
0.0
  0
LINE
  8
0
 62
     0
 10
197.594
 20
35.833
 30
0.0
 11
197.594
 21
21.8336
 31
0.0
  0
LINE
  8
0
 62
     0
 10
197.594
 20
21.8336
 30
0.0
 11
183.595
 21
21.8336
 31
0.0
  0
LINE
  8
0
 62
     0
 10
183.595
 20
21.8336
 30
0.0
 11
183.595
 21
35.833
 31
0.0
  0
LINE
  8
0
 62
     0
 10
202.645
 20
35.833
 30
0.0
 11
216.644
 21
35.833
 31
0.0
  0
LINE
  8
0
 62
     0
 10
216.644
 20
35.833
 30
0.0
 11
216.644
 21
21.8336
 31
0.0
  0
LINE
  8
0
 62
     0
 10
216.644
 20
21.8336
 30
0.0
 11
202.645
 21
21.8336
 31
0.0
  0
LINE
  8
0
 62
     0
 10
202.645
 20
21.8336
 30
0.0
 11
202.645
 21
35.833
 31
0.0
  0
LINE
  8
0
 62
     0
 10
12.1447
 20
54.8831
 30
0.0
 11
12.1447
 21
50.1826
 31
0.0
  0
LINE
  8
0
 62
     0
 10
12.1447
 20
50.1826
 30
0.0
 11
10.6192
 21
50.1826
 31
0.0
  0
LINE
  8
0
 62
     0
 10
10.6192
 20
50.1826
 30
0.0
 11
10.6192
 21
53.4127
 31
0.0
  0
LINE
  8
0
 62
     0
 10
10.6192
 20
53.4127
 30
0.0
 11
3.86955
 21
53.4127
 31
0.0
  0
LINE
  8
0
 62
     0
 10
3.86955
 20
53.4127
 30
0.0
 11
3.86955
 21
50.1826
 31
0.0
  0
LINE
  8
0
 62
     0
 10
3.86955
 20
50.1826
 30
0.0
 11
3.04409
 21
50.1826
 31
0.0
  0
LINE
  8
0
 62
     0
 10
3.04409
 20
50.1826
 30
0.0
 11
3.04409
 21
47.3837
 31
0.0
  0
LINE
  8
0
 62
     0
 10
3.04409
 20
47.3837
 30
0.0
 11
3.86955
 21
47.3837
 31
0.0
  0
LINE
  8
0
 62
     0
 10
3.86955
 20
47.3837
 30
0.0
 11
3.86955
 21
41.1138
 31
0.0
  0
LINE
  8
0
 62
     0
 10
3.86955
 20
41.1138
 30
0.0
 11
5.59484
 21
41.1138
 31
0.0
  0
LINE
  8
0
 62
     0
 10
5.59484
 20
41.1138
 30
0.0
 11
5.59484
 21
39.9136
 31
0.0
  0
LINE
  8
0
 62
     0
 10
5.59484
 20
39.9136
 30
0.0
 11
8.89385
 21
39.9136
 31
0.0
  0
LINE
  8
0
 62
     0
 10
8.89385
 20
39.9136
 30
0.0
 11
8.89385
 21
41.1138
 31
0.0
  0
LINE
  8
0
 62
     0
 10
8.89385
 20
41.1138
 30
0.0
 11
10.6192
 21
41.1138
 31
0.0
  0
LINE
  8
0
 62
     0
 10
10.6192
 20
41.1138
 30
0.0
 11
10.6192
 21
45.5828
 31
0.0
  0
LINE
  8
0
 62
     0
 10
10.6192
 20
45.5828
 30
0.0
 11
12.1447
 21
45.5828
 31
0.0
  0
LINE
  8
0
 62
     0
 10
12.1447
 20
45.5828
 30
0.0
 11
12.1447
 21
40.8838
 31
0.0
  0
LINE
  8
0
 62
     0
 10
12.1447
 20
40.8838
 30
0.0
 11
26.1441
 21
40.8838
 31
0.0
  0
LINE
  8
0
 62
     0
 10
26.1441
 20
40.8838
 30
0.0
 11
26.1441
 21
45.5828
 31
0.0
  0
LINE
  8
0
 62
     0
 10
26.1441
 20
45.5828
 30
0.0
 11
27.6696
 21
45.5828
 31
0.0
  0
LINE
  8
0
 62
     0
 10
27.6696
 20
45.5828
 30
0.0
 11
27.6696
 21
41.1138
 31
0.0
  0
LINE
  8
0
 62
     0
 10
27.6696
 20
41.1138
 30
0.0
 11
29.3949
 21
41.1138
 31
0.0
  0
LINE
  8
0
 62
     0
 10
29.3949
 20
41.1138
 30
0.0
 11
29.3949
 21
39.9136
 31
0.0
  0
LINE
  8
0
 62
     0
 10
29.3949
 20
39.9136
 30
0.0
 11
32.694
 21
39.9136
 31
0.0
  0
LINE
  8
0
 62
     0
 10
32.694
 20
39.9136
 30
0.0
 11
32.694
 21
41.1138
 31
0.0
  0
LINE
  8
0
 62
     0
 10
32.694
 20
41.1138
 30
0.0
 11
34.4193
 21
41.1138
 31
0.0
  0
LINE
  8
0
 62
     0
 10
34.4193
 20
41.1138
 30
0.0
 11
34.4193
 21
47.3837
 31
0.0
  0
LINE
  8
0
 62
     0
 10
34.4193
 20
47.3837
 30
0.0
 11
35.2447
 21
47.3837
 31
0.0
  0
LINE
  8
0
 62
     0
 10
35.2447
 20
47.3837
 30
0.0
 11
35.2447
 21
50.1826
 31
0.0
  0
LINE
  8
0
 62
     0
 10
35.2447
 20
50.1826
 30
0.0
 11
34.4193
 21
50.1826
 31
0.0
  0
LINE
  8
0
 62
     0
 10
34.4193
 20
50.1826
 30
0.0
 11
34.4193
 21
53.4127
 31
0.0
  0
LINE
  8
0
 62
     0
 10
34.4193
 20
53.4127
 30
0.0
 11
27.6696
 21
53.4127
 31
0.0
  0
LINE
  8
0
 62
     0
 10
27.6696
 20
53.4127
 30
0.0
 11
27.6696
 21
50.1826
 31
0.0
  0
LINE
  8
0
 62
     0
 10
27.6696
 20
50.1826
 30
0.0
 11
26.1441
 21
50.1826
 31
0.0
  0
LINE
  8
0
 62
     0
 10
26.1441
 20
50.1826
 30
0.0
 11
26.1441
 21
54.8831
 31
0.0
  0
LINE
  8
0
 62
     0
 10
26.1441
 20
54.8831
 30
0.0
 11
12.1447
 21
54.8831
 31
0.0
  0
LINE
  8
0
 62
     0
 10
40.7197
 20
54.8831
 30
0.0
 11
54.719
 21
54.8831
 31
0.0
  0
LINE
  8
0
 62
     0
 10
54.719
 20
54.8831
 30
0.0
 11
54.719
 21
40.8838
 31
0.0
  0
LINE
  8
0
 62
     0
 10
54.719
 20
40.8838
 30
0.0
 11
40.7197
 21
40.8838
 31
0.0
  0
LINE
  8
0
 62
     0
 10
40.7197
 20
40.8838
 30
0.0
 11
40.7197
 21
54.8831
 31
0.0
  0
LINE
  8
0
 62
     0
 10
59.7697
 20
54.8831
 30
0.0
 11
73.769
 21
54.8831
 31
0.0
  0
LINE
  8
0
 62
     0
 10
73.769
 20
54.8831
 30
0.0
 11
73.769
 21
40.8838
 31
0.0
  0
LINE
  8
0
 62
     0
 10
73.769
 20
40.8838
 30
0.0
 11
59.7697
 21
40.8838
 31
0.0
  0
LINE
  8
0
 62
     0
 10
59.7697
 20
40.8838
 30
0.0
 11
59.7697
 21
54.8831
 31
0.0
  0
LINE
  8
0
 62
     0
 10
78.8197
 20
54.8831
 30
0.0
 11
92.819
 21
54.8831
 31
0.0
  0
LINE
  8
0
 62
     0
 10
92.819
 20
54.8831
 30
0.0
 11
92.819
 21
40.8838
 31
0.0
  0
LINE
  8
0
 62
     0
 10
92.819
 20
40.8838
 30
0.0
 11
78.8197
 21
40.8838
 31
0.0
  0
LINE
  8
0
 62
     0
 10
78.8197
 20
40.8838
 30
0.0
 11
78.8197
 21
54.8831
 31
0.0
  0
LINE
  8
0
 62
     0
 10
97.8683
 20
54.8831
 30
0.0
 11
111.869
 21
54.8831
 31
0.0
  0
LINE
  8
0
 62
     0
 10
111.869
 20
54.8831
 30
0.0
 11
111.869
 21
40.8838
 31
0.0
  0
LINE
  8
0
 62
     0
 10
111.869
 20
40.8838
 30
0.0
 11
97.8683
 21
40.8838
 31
0.0
  0
LINE
  8
0
 62
     0
 10
97.8683
 20
40.8838
 30
0.0
 11
97.8683
 21
54.8831
 31
0.0
  0
LINE
  8
0
 62
     0
 10
116.918
 20
54.8831
 30
0.0
 11
130.919
 21
54.8831
 31
0.0
  0
LINE
  8
0
 62
     0
 10
130.919
 20
54.8831
 30
0.0
 11
130.919
 21
40.8838
 31
0.0
  0
LINE
  8
0
 62
     0
 10
130.919
 20
40.8838
 30
0.0
 11
116.918
 21
40.8838
 31
0.0
  0
LINE
  8
0
 62
     0
 10
116.918
 20
40.8838
 30
0.0
 11
116.918
 21
54.8831
 31
0.0
  0
LINE
  8
0
 62
     0
 10
135.97
 20
54.8831
 30
0.0
 11
149.969
 21
54.8831
 31
0.0
  0
LINE
  8
0
 62
     0
 10
149.969
 20
54.8831
 30
0.0
 11
149.969
 21
40.8838
 31
0.0
  0
LINE
  8
0
 62
     0
 10
149.969
 20
40.8838
 30
0.0
 11
135.97
 21
40.8838
 31
0.0
  0
LINE
  8
0
 62
     0
 10
135.97
 20
40.8838
 30
0.0
 11
135.97
 21
54.8831
 31
0.0
  0
LINE
  8
0
 62
     0
 10
155.02
 20
54.8831
 30
0.0
 11
169.019
 21
54.8831
 31
0.0
  0
LINE
  8
0
 62
     0
 10
169.019
 20
54.8831
 30
0.0
 11
169.019
 21
40.8838
 31
0.0
  0
LINE
  8
0
 62
     0
 10
169.019
 20
40.8838
 30
0.0
 11
155.02
 21
40.8838
 31
0.0
  0
LINE
  8
0
 62
     0
 10
155.02
 20
40.8838
 30
0.0
 11
155.02
 21
54.8831
 31
0.0
  0
LINE
  8
0
 62
     0
 10
174.07
 20
54.8831
 30
0.0
 11
188.069
 21
54.8831
 31
0.0
  0
LINE
  8
0
 62
     0
 10
188.069
 20
54.8831
 30
0.0
 11
188.069
 21
40.8838
 31
0.0
  0
LINE
  8
0
 62
     0
 10
188.069
 20
40.8838
 30
0.0
 11
174.07
 21
40.8838
 31
0.0
  0
LINE
  8
0
 62
     0
 10
174.07
 20
40.8838
 30
0.0
 11
174.07
 21
54.8831
 31
0.0
  0
LINE
  8
0
 62
     0
 10
193.12
 20
54.8831
 30
0.0
 11
207.119
 21
54.8831
 31
0.0
  0
LINE
  8
0
 62
     0
 10
207.119
 20
54.8831
 30
0.0
 11
207.119
 21
40.8838
 31
0.0
  0
LINE
  8
0
 62
     0
 10
207.119
 20
40.8838
 30
0.0
 11
193.12
 21
40.8838
 31
0.0
  0
LINE
  8
0
 62
     0
 10
193.12
 20
40.8838
 30
0.0
 11
193.12
 21
54.8831
 31
0.0
  0
LINE
  8
0
 62
     0
 10
212.17
 20
54.8831
 30
0.0
 11
226.169
 21
54.8831
 31
0.0
  0
LINE
  8
0
 62
     0
 10
226.169
 20
54.8831
 30
0.0
 11
226.169
 21
40.8838
 31
0.0
  0
LINE
  8
0
 62
     0
 10
226.169
 20
40.8838
 30
0.0
 11
212.17
 21
40.8838
 31
0.0
  0
LINE
  8
0
 62
     0
 10
212.17
 20
40.8838
 30
0.0
 11
212.17
 21
54.8831
 31
0.0
  0
LINE
  8
0
 62
     0
 10
231.22
 20
54.8831
 30
0.0
 11
245.219
 21
54.8831
 31
0.0
  0
LINE
  8
0
 62
     0
 10
245.219
 20
54.8831
 30
0.0
 11
245.219
 21
40.8838
 31
0.0
  0
LINE
  8
0
 62
     0
 10
245.219
 20
40.8838
 30
0.0
 11
231.22
 21
40.8838
 31
0.0
  0
LINE
  8
0
 62
     0
 10
231.22
 20
40.8838
 30
0.0
 11
231.22
 21
54.8831
 31
0.0
  0
LINE
  8
0
 62
     0
 10
255.032
 20
54.8831
 30
0.0
 11
269.032
 21
54.8831
 31
0.0
  0
LINE
  8
0
 62
     0
 10
269.032
 20
54.8831
 30
0.0
 11
269.032
 21
40.8838
 31
0.0
  0
LINE
  8
0
 62
     0
 10
269.032
 20
40.8838
 30
0.0
 11
255.032
 21
40.8838
 31
0.0
  0
LINE
  8
0
 62
     0
 10
255.032
 20
40.8838
 30
0.0
 11
255.032
 21
54.8831
 31
0.0
  0
LINE
  8
0
 62
     0
 10
7.38216
 20
73.9331
 30
0.0
 11
21.3817
 21
73.9331
 31
0.0
  0
LINE
  8
0
 62
     0
 10
21.3817
 20
73.9331
 30
0.0
 11
21.3817
 21
59.9338
 31
0.0
  0
LINE
  8
0
 62
     0
 10
21.3817
 20
59.9338
 30
0.0
 11
7.38216
 21
59.9338
 31
0.0
  0
LINE
  8
0
 62
     0
 10
7.38216
 20
59.9338
 30
0.0
 11
7.38216
 21
73.9331
 31
0.0
  0
LINE
  8
0
 62
     0
 10
31.1947
 20
73.9331
 30
0.0
 11
45.194
 21
73.9331
 31
0.0
  0
LINE
  8
0
 62
     0
 10
45.194
 20
73.9331
 30
0.0
 11
45.194
 21
59.9338
 31
0.0
  0
LINE
  8
0
 62
     0
 10
45.194
 20
59.9338
 30
0.0
 11
31.1947
 21
59.9338
 31
0.0
  0
LINE
  8
0
 62
     0
 10
31.1947
 20
59.9338
 30
0.0
 11
31.1947
 21
73.9331
 31
0.0
  0
LINE
  8
0
 62
     0
 10
50.2447
 20
73.9331
 30
0.0
 11
64.244
 21
73.9331
 31
0.0
  0
LINE
  8
0
 62
     0
 10
64.244
 20
73.9331
 30
0.0
 11
64.244
 21
59.9338
 31
0.0
  0
LINE
  8
0
 62
     0
 10
64.244
 20
59.9338
 30
0.0
 11
50.2447
 21
59.9338
 31
0.0
  0
LINE
  8
0
 62
     0
 10
50.2447
 20
59.9338
 30
0.0
 11
50.2447
 21
73.9331
 31
0.0
  0
LINE
  8
0
 62
     0
 10
69.2947
 20
73.9331
 30
0.0
 11
83.294
 21
73.9331
 31
0.0
  0
LINE
  8
0
 62
     0
 10
83.294
 20
73.9331
 30
0.0
 11
83.294
 21
59.9338
 31
0.0
  0
LINE
  8
0
 62
     0
 10
83.294
 20
59.9338
 30
0.0
 11
69.2947
 21
59.9338
 31
0.0
  0
LINE
  8
0
 62
     0
 10
69.2947
 20
59.9338
 30
0.0
 11
69.2947
 21
73.9331
 31
0.0
  0
LINE
  8
0
 62
     0
 10
88.3447
 20
73.9331
 30
0.0
 11
102.344
 21
73.9331
 31
0.0
  0
LINE
  8
0
 62
     0
 10
102.344
 20
73.9331
 30
0.0
 11
102.344
 21
59.9338
 31
0.0
  0
LINE
  8
0
 62
     0
 10
102.344
 20
59.9338
 30
0.0
 11
88.3447
 21
59.9338
 31
0.0
  0
LINE
  8
0
 62
     0
 10
88.3447
 20
59.9338
 30
0.0
 11
88.3447
 21
73.9331
 31
0.0
  0
LINE
  8
0
 62
     0
 10
107.395
 20
73.9331
 30
0.0
 11
121.394
 21
73.9331
 31
0.0
  0
LINE
  8
0
 62
     0
 10
121.394
 20
73.9331
 30
0.0
 11
121.394
 21
59.9338
 31
0.0
  0
LINE
  8
0
 62
     0
 10
121.394
 20
59.9338
 30
0.0
 11
107.395
 21
59.9338
 31
0.0
  0
LINE
  8
0
 62
     0
 10
107.395
 20
59.9338
 30
0.0
 11
107.395
 21
73.9331
 31
0.0
  0
LINE
  8
0
 62
     0
 10
126.445
 20
73.9331
 30
0.0
 11
140.444
 21
73.9331
 31
0.0
  0
LINE
  8
0
 62
     0
 10
140.444
 20
73.9331
 30
0.0
 11
140.444
 21
59.9338
 31
0.0
  0
LINE
  8
0
 62
     0
 10
140.444
 20
59.9338
 30
0.0
 11
126.445
 21
59.9338
 31
0.0
  0
LINE
  8
0
 62
     0
 10
126.445
 20
59.9338
 30
0.0
 11
126.445
 21
73.9331
 31
0.0
  0
LINE
  8
0
 62
     0
 10
145.495
 20
73.9331
 30
0.0
 11
159.494
 21
73.9331
 31
0.0
  0
LINE
  8
0
 62
     0
 10
159.494
 20
73.9331
 30
0.0
 11
159.494
 21
59.9338
 31
0.0
  0
LINE
  8
0
 62
     0
 10
159.494
 20
59.9338
 30
0.0
 11
145.495
 21
59.9338
 31
0.0
  0
LINE
  8
0
 62
     0
 10
145.495
 20
59.9338
 30
0.0
 11
145.495
 21
73.9331
 31
0.0
  0
LINE
  8
0
 62
     0
 10
164.545
 20
73.9331
 30
0.0
 11
178.544
 21
73.9331
 31
0.0
  0
LINE
  8
0
 62
     0
 10
178.544
 20
73.9331
 30
0.0
 11
178.544
 21
59.9338
 31
0.0
  0
LINE
  8
0
 62
     0
 10
178.544
 20
59.9338
 30
0.0
 11
164.545
 21
59.9338
 31
0.0
  0
LINE
  8
0
 62
     0
 10
164.545
 20
59.9338
 30
0.0
 11
164.545
 21
73.9331
 31
0.0
  0
LINE
  8
0
 62
     0
 10
183.595
 20
73.9331
 30
0.0
 11
197.594
 21
73.9331
 31
0.0
  0
LINE
  8
0
 62
     0
 10
197.594
 20
73.9331
 30
0.0
 11
197.594
 21
59.9338
 31
0.0
  0
LINE
  8
0
 62
     0
 10
197.594
 20
59.9338
 30
0.0
 11
183.595
 21
59.9338
 31
0.0
  0
LINE
  8
0
 62
     0
 10
183.595
 20
59.9338
 30
0.0
 11
183.595
 21
73.9331
 31
0.0
  0
LINE
  8
0
 62
     0
 10
202.645
 20
73.9331
 30
0.0
 11
216.644
 21
73.9331
 31
0.0
  0
LINE
  8
0
 62
     0
 10
216.644
 20
73.9331
 30
0.0
 11
216.644
 21
59.9338
 31
0.0
  0
LINE
  8
0
 62
     0
 10
216.644
 20
59.9338
 30
0.0
 11
202.645
 21
59.9338
 31
0.0
  0
LINE
  8
0
 62
     0
 10
202.645
 20
59.9338
 30
0.0
 11
202.645
 21
73.9331
 31
0.0
  0
LINE
  8
0
 62
     0
 10
226.457
 20
73.9331
 30
0.0
 11
240.457
 21
73.9331
 31
0.0
  0
LINE
  8
0
 62
     0
 10
240.457
 20
73.9331
 30
0.0
 11
240.457
 21
59.9338
 31
0.0
  0
LINE
  8
0
 62
     0
 10
240.457
 20
59.9338
 30
0.0
 11
226.457
 21
59.9338
 31
0.0
  0
LINE
  8
0
 62
     0
 10
226.457
 20
59.9338
 30
0.0
 11
226.457
 21
73.9331
 31
0.0
  0
LINE
  8
0
 62
     0
 10
255.032
 20
73.9331
 30
0.0
 11
269.032
 21
73.9331
 31
0.0
  0
LINE
  8
0
 62
     0
 10
269.032
 20
73.9331
 30
0.0
 11
269.032
 21
59.9338
 31
0.0
  0
LINE
  8
0
 62
     0
 10
269.032
 20
59.9338
 30
0.0
 11
255.032
 21
59.9338
 31
0.0
  0
LINE
  8
0
 62
     0
 10
255.032
 20
59.9338
 30
0.0
 11
255.032
 21
73.9331
 31
0.0
  0
LINE
  8
0
 62
     0
 10
247.887
 20
92.9831
 30
0.0
 11
247.887
 21
88.2826
 31
0.0
  0
LINE
  8
0
 62
     0
 10
247.887
 20
88.2826
 30
0.0
 11
246.363
 21
88.2826
 31
0.0
  0
LINE
  8
0
 62
     0
 10
246.363
 20
88.2826
 30
0.0
 11
246.363
 21
91.5127
 31
0.0
  0
LINE
  8
0
 62
     0
 10
246.363
 20
91.5127
 30
0.0
 11
239.612
 21
91.5127
 31
0.0
  0
LINE
  8
0
 62
     0
 10
239.612
 20
91.5127
 30
0.0
 11
239.612
 21
88.2826
 31
0.0
  0
LINE
  8
0
 62
     0
 10
239.612
 20
88.2826
 30
0.0
 11
238.788
 21
88.2826
 31
0.0
  0
LINE
  8
0
 62
     0
 10
238.788
 20
88.2826
 30
0.0
 11
238.788
 21
85.4837
 31
0.0
  0
LINE
  8
0
 62
     0
 10
238.788
 20
85.4837
 30
0.0
 11
239.612
 21
85.4837
 31
0.0
  0
LINE
  8
0
 62
     0
 10
239.612
 20
85.4837
 30
0.0
 11
239.612
 21
79.2138
 31
0.0
  0
LINE
  8
0
 62
     0
 10
239.612
 20
79.2138
 30
0.0
 11
241.337
 21
79.2138
 31
0.0
  0
LINE
  8
0
 62
     0
 10
241.337
 20
79.2138
 30
0.0
 11
241.337
 21
78.0136
 31
0.0
  0
LINE
  8
0
 62
     0
 10
241.337
 20
78.0136
 30
0.0
 11
244.638
 21
78.0136
 31
0.0
  0
LINE
  8
0
 62
     0
 10
244.638
 20
78.0136
 30
0.0
 11
244.638
 21
79.2138
 31
0.0
  0
LINE
  8
0
 62
     0
 10
244.638
 20
79.2138
 30
0.0
 11
246.363
 21
79.2138
 31
0.0
  0
LINE
  8
0
 62
     0
 10
246.363
 20
79.2138
 30
0.0
 11
246.363
 21
83.6828
 31
0.0
  0
LINE
  8
0
 62
     0
 10
246.363
 20
83.6828
 30
0.0
 11
247.887
 21
83.6828
 31
0.0
  0
LINE
  8
0
 62
     0
 10
247.887
 20
83.6828
 30
0.0
 11
247.887
 21
78.9838
 31
0.0
  0
LINE
  8
0
 62
     0
 10
247.887
 20
78.9838
 30
0.0
 11
261.888
 21
78.9838
 31
0.0
  0
LINE
  8
0
 62
     0
 10
261.888
 20
78.9838
 30
0.0
 11
261.888
 21
83.6828
 31
0.0
  0
LINE
  8
0
 62
     0
 10
261.888
 20
83.6828
 30
0.0
 11
263.412
 21
83.6828
 31
0.0
  0
LINE
  8
0
 62
     0
 10
263.412
 20
83.6828
 30
0.0
 11
263.412
 21
79.2138
 31
0.0
  0
LINE
  8
0
 62
     0
 10
263.412
 20
79.2138
 30
0.0
 11
265.137
 21
79.2138
 31
0.0
  0
LINE
  8
0
 62
     0
 10
265.137
 20
79.2138
 30
0.0
 11
265.137
 21
78.0136
 31
0.0
  0
LINE
  8
0
 62
     0
 10
265.137
 20
78.0136
 30
0.0
 11
268.438
 21
78.0136
 31
0.0
  0
LINE
  8
0
 62
     0
 10
268.438
 20
78.0136
 30
0.0
 11
268.438
 21
79.2138
 31
0.0
  0
LINE
  8
0
 62
     0
 10
268.438
 20
79.2138
 30
0.0
 11
270.163
 21
79.2138
 31
0.0
  0
LINE
  8
0
 62
     0
 10
270.163
 20
79.2138
 30
0.0
 11
270.163
 21
85.4837
 31
0.0
  0
LINE
  8
0
 62
     0
 10
270.163
 20
85.4837
 30
0.0
 11
270.987
 21
85.4837
 31
0.0
  0
LINE
  8
0
 62
     0
 10
270.987
 20
85.4837
 30
0.0
 11
270.987
 21
88.2826
 31
0.0
  0
LINE
  8
0
 62
     0
 10
270.987
 20
88.2826
 30
0.0
 11
270.163
 21
88.2826
 31
0.0
  0
LINE
  8
0
 62
     0
 10
270.163
 20
88.2826
 30
0.0
 11
270.163
 21
91.5127
 31
0.0
  0
LINE
  8
0
 62
     0
 10
270.163
 20
91.5127
 30
0.0
 11
263.412
 21
91.5127
 31
0.0
  0
LINE
  8
0
 62
     0
 10
263.412
 20
91.5127
 30
0.0
 11
263.412
 21
88.2826
 31
0.0
  0
LINE
  8
0
 62
     0
 10
263.412
 20
88.2826
 30
0.0
 11
261.888
 21
88.2826
 31
0.0
  0
LINE
  8
0
 62
     0
 10
261.888
 20
88.2826
 30
0.0
 11
261.888
 21
92.9831
 31
0.0
  0
LINE
  8
0
 62
     0
 10
261.888
 20
92.9831
 30
0.0
 11
247.887
 21
92.9831
 31
0.0
  0
LINE
  8
0
 62
     0
 10
2.61965
 20
92.9831
 30
0.0
 11
16.6192
 21
92.9831
 31
0.0
  0
LINE
  8
0
 62
     0
 10
16.6192
 20
92.9831
 30
0.0
 11
16.6192
 21
78.9838
 31
0.0
  0
LINE
  8
0
 62
     0
 10
16.6192
 20
78.9838
 30
0.0
 11
2.61965
 21
78.9838
 31
0.0
  0
LINE
  8
0
 62
     0
 10
2.61965
 20
78.9838
 30
0.0
 11
2.61965
 21
92.9831
 31
0.0
  0
LINE
  8
0
 62
     0
 10
21.6697
 20
92.9831
 30
0.0
 11
35.669
 21
92.9831
 31
0.0
  0
LINE
  8
0
 62
     0
 10
35.669
 20
92.9831
 30
0.0
 11
35.669
 21
78.9838
 31
0.0
  0
LINE
  8
0
 62
     0
 10
35.669
 20
78.9838
 30
0.0
 11
21.6697
 21
78.9838
 31
0.0
  0
LINE
  8
0
 62
     0
 10
21.6697
 20
78.9838
 30
0.0
 11
21.6697
 21
92.9831
 31
0.0
  0
LINE
  8
0
 62
     0
 10
40.7197
 20
92.9831
 30
0.0
 11
54.719
 21
92.9831
 31
0.0
  0
LINE
  8
0
 62
     0
 10
54.719
 20
92.9831
 30
0.0
 11
54.719
 21
78.9838
 31
0.0
  0
LINE
  8
0
 62
     0
 10
54.719
 20
78.9838
 30
0.0
 11
40.7197
 21
78.9838
 31
0.0
  0
LINE
  8
0
 62
     0
 10
40.7197
 20
78.9838
 30
0.0
 11
40.7197
 21
92.9831
 31
0.0
  0
LINE
  8
0
 62
     0
 10
59.7697
 20
92.9831
 30
0.0
 11
73.769
 21
92.9831
 31
0.0
  0
LINE
  8
0
 62
     0
 10
73.769
 20
92.9831
 30
0.0
 11
73.769
 21
78.9838
 31
0.0
  0
LINE
  8
0
 62
     0
 10
73.769
 20
78.9838
 30
0.0
 11
59.7697
 21
78.9838
 31
0.0
  0
LINE
  8
0
 62
     0
 10
59.7697
 20
78.9838
 30
0.0
 11
59.7697
 21
92.9831
 31
0.0
  0
LINE
  8
0
 62
     0
 10
78.8197
 20
92.9831
 30
0.0
 11
92.819
 21
92.9831
 31
0.0
  0
LINE
  8
0
 62
     0
 10
92.819
 20
92.9831
 30
0.0
 11
92.819
 21
78.9838
 31
0.0
  0
LINE
  8
0
 62
     0
 10
92.819
 20
78.9838
 30
0.0
 11
78.8197
 21
78.9838
 31
0.0
  0
LINE
  8
0
 62
     0
 10
78.8197
 20
78.9838
 30
0.0
 11
78.8197
 21
92.9831
 31
0.0
  0
LINE
  8
0
 62
     0
 10
97.8683
 20
92.9831
 30
0.0
 11
111.869
 21
92.9831
 31
0.0
  0
LINE
  8
0
 62
     0
 10
111.869
 20
92.9831
 30
0.0
 11
111.869
 21
78.9838
 31
0.0
  0
LINE
  8
0
 62
     0
 10
111.869
 20
78.9838
 30
0.0
 11
97.8683
 21
78.9838
 31
0.0
  0
LINE
  8
0
 62
     0
 10
97.8683
 20
78.9838
 30
0.0
 11
97.8683
 21
92.9831
 31
0.0
  0
LINE
  8
0
 62
     0
 10
116.918
 20
92.9831
 30
0.0
 11
130.919
 21
92.9831
 31
0.0
  0
LINE
  8
0
 62
     0
 10
130.919
 20
92.9831
 30
0.0
 11
130.919
 21
78.9838
 31
0.0
  0
LINE
  8
0
 62
     0
 10
130.919
 20
78.9838
 30
0.0
 11
116.918
 21
78.9838
 31
0.0
  0
LINE
  8
0
 62
     0
 10
116.918
 20
78.9838
 30
0.0
 11
116.918
 21
92.9831
 31
0.0
  0
LINE
  8
0
 62
     0
 10
135.97
 20
92.9831
 30
0.0
 11
149.969
 21
92.9831
 31
0.0
  0
LINE
  8
0
 62
     0
 10
149.969
 20
92.9831
 30
0.0
 11
149.969
 21
78.9838
 31
0.0
  0
LINE
  8
0
 62
     0
 10
149.969
 20
78.9838
 30
0.0
 11
135.97
 21
78.9838
 31
0.0
  0
LINE
  8
0
 62
     0
 10
135.97
 20
78.9838
 30
0.0
 11
135.97
 21
92.9831
 31
0.0
  0
LINE
  8
0
 62
     0
 10
155.02
 20
92.9831
 30
0.0
 11
169.019
 21
92.9831
 31
0.0
  0
LINE
  8
0
 62
     0
 10
169.019
 20
92.9831
 30
0.0
 11
169.019
 21
78.9838
 31
0.0
  0
LINE
  8
0
 62
     0
 10
169.019
 20
78.9838
 30
0.0
 11
155.02
 21
78.9838
 31
0.0
  0
LINE
  8
0
 62
     0
 10
155.02
 20
78.9838
 30
0.0
 11
155.02
 21
92.9831
 31
0.0
  0
LINE
  8
0
 62
     0
 10
174.07
 20
92.9831
 30
0.0
 11
188.069
 21
92.9831
 31
0.0
  0
LINE
  8
0
 62
     0
 10
188.069
 20
92.9831
 30
0.0
 11
188.069
 21
78.9838
 31
0.0
  0
LINE
  8
0
 62
     0
 10
188.069
 20
78.9838
 30
0.0
 11
174.07
 21
78.9838
 31
0.0
  0
LINE
  8
0
 62
     0
 10
174.07
 20
78.9838
 30
0.0
 11
174.07
 21
92.9831
 31
0.0
  0
LINE
  8
0
 62
     0
 10
193.12
 20
92.9831
 30
0.0
 11
207.119
 21
92.9831
 31
0.0
  0
LINE
  8
0
 62
     0
 10
207.119
 20
92.9831
 30
0.0
 11
207.119
 21
78.9838
 31
0.0
  0
LINE
  8
0
 62
     0
 10
207.119
 20
78.9838
 30
0.0
 11
193.12
 21
78.9838
 31
0.0
  0
LINE
  8
0
 62
     0
 10
193.12
 20
78.9838
 30
0.0
 11
193.12
 21
92.9831
 31
0.0
  0
LINE
  8
0
 62
     0
 10
214.551
 20
92.9831
 30
0.0
 11
228.55
 21
92.9831
 31
0.0
  0
LINE
  8
0
 62
     0
 10
228.55
 20
92.9831
 30
0.0
 11
228.55
 21
78.9838
 31
0.0
  0
LINE
  8
0
 62
     0
 10
228.55
 20
78.9838
 30
0.0
 11
214.551
 21
78.9838
 31
0.0
  0
LINE
  8
0
 62
     0
 10
214.551
 20
78.9838
 30
0.0
 11
214.551
 21
92.9831
 31
0.0
  0
ENDSEC
  0
EOF
