<?xml version="1.0" encoding="UTF-8"?>
<!-- Generated by SVGo -->
<svg width="286.227mm" height="105.252mm" viewBox="0.000 0.000 286.227 105.252" xmlns="http://www.w3.org/2000/svg" xmlns:xlink="http://www.w3.org/1999/xlink">
<polygon points="281.227,100.251 5.001,100.251 5.001,5.001 281.227,5.001" style="fill:none;stroke-width:0.050000mm;stroke:black"/>
<polygon points="19.432,83.726 19.432,88.426 17.907,88.426 17.907,85.196 11.157,85.196 11.157,88.426 10.332,88.426 10.332,91.226 11.157,91.226 11.157,97.495 12.882,97.495 12.882,98.696 16.182,98.696 16.182,97.495 17.907,97.495 17.907,93.025 19.432,93.025 19.432,97.726 33.432,97.726 33.432,93.025 34.957,93.025 34.957,97.495 36.682,97.495 36.682,98.696 39.982,98.696 39.982,97.495 41.707,97.495 41.707,91.226 42.532,91.226 42.532,88.426 41.707,88.426 41.707,85.196 34.957,85.196 34.957,88.426 33.432,88.426 33.432,83.726" style="fill:none;stroke-width:0.050000mm;stroke:black"/>
<polygon points="59.913,83.726 59.913,88.426 58.388,88.426 58.388,85.196 51.638,85.196 51.638,88.426 50.813,88.426 50.813,91.226 51.638,91.226 51.638,97.495 53.363,97.495 53.363,98.696 56.663,98.696 56.663,97.495 58.388,97.495 58.388,93.025 59.913,93.025 59.913,97.726 73.913,97.726 73.913,93.025 75.438,93.025 75.438,97.495 77.163,97.495 77.163,98.696 80.463,98.696 80.463,97.495 82.188,97.495 82.188,91.226 83.013,91.226 83.013,88.426 82.188,88.426 82.188,85.196 75.438,85.196 75.438,88.426 73.913,88.426 73.913,83.726" style="fill:none;stroke-width:0.050000mm;stroke:black"/>
<polygon points="138.494,83.726 138.494,88.426 98.869,88.426 98.869,85.196 92.119,85.196 92.119,88.426 91.294,88.426 91.294,91.226 92.119,91.226 92.119,97.495 93.844,97.495 93.844,98.696 97.144,98.696 97.144,97.495 98.869,97.495 98.869,93.025 138.494,93.025 138.494,97.726 152.494,97.726 152.494,93.025 192.119,93.025 192.119,97.495 193.844,97.495 193.844,98.696 197.144,98.696 197.144,97.495 198.869,97.495 198.869,91.226 199.694,91.226 199.694,88.426 198.869,88.426 198.869,85.196 192.119,85.196 192.119,88.426 152.494,88.426 152.494,83.726" style="fill:none;stroke-width:0.050000mm;stroke:black"/>
<polygon points="207.551,83.726 207.551,97.726 221.551,97.726 221.551,83.726" style="fill:none;stroke-width:0.050000mm;stroke:black"/>
<polygon points="226.601,83.726 226.601,97.726 240.601,97.726 240.601,83.726" style="fill:none;stroke-width:0.050000mm;stroke:black"/>
<polygon points="245.651,83.726 245.651,97.726 259.650,97.726 259.650,83.726" style="fill:none;stroke-width:0.050000mm;stroke:black"/>
<polygon points="264.701,83.726 264.701,97.726 278.701,97.726 278.701,83.726" style="fill:none;stroke-width:0.050000mm;stroke:black"/>
<polygon points="255.176,64.676 255.176,69.376 253.651,69.376 253.651,66.146 246.901,66.146 246.901,69.376 246.076,69.376 246.076,72.176 246.901,72.176 246.901,78.446 248.626,78.446 248.626,79.646 251.926,79.646 251.926,78.446 253.651,78.446 253.651,73.976 255.176,73.976 255.176,78.676 269.176,78.676 269.176,73.976 270.701,73.976 270.701,78.446 272.426,78.446 272.426,79.646 275.726,79.646 275.726,78.446 277.451,78.446 277.451,72.176 278.276,72.176 278.276,69.376 277.451,69.376 277.451,66.146 270.701,66.146 270.701,69.376 269.176,69.376 269.176,64.676" style="fill:none;stroke-width:0.050000mm;stroke:black"/>
<polygon points="12.288,64.676 12.288,78.676 26.288,78.676 26.288,64.676" style="fill:none;stroke-width:0.050000mm;stroke:black"/>
<polygon points="36.101,64.676 36.101,78.676 50.101,78.676 50.101,64.676" style="fill:none;stroke-width:0.050000mm;stroke:black"/>
<polygon points="55.151,64.676 55.151,78.676 69.151,78.676 69.151,64.676" style="fill:none;stroke-width:0.050000mm;stroke:black"/>
<polygon points="74.201,64.676 74.201,78.676 88.201,78.676 88.201,64.676" style="fill:none;stroke-width:0.050000mm;stroke:black"/>
<polygon points="93.251,64.676 93.251,78.676 107.251,78.676 107.251,64.676" style="fill:none;stroke-width:0.050000mm;stroke:black"/>
<polygon points="112.301,64.676 112.301,78.676 126.301,78.676 126.301,64.676" style="fill:none;stroke-width:0.050000mm;stroke:black"/>
<polygon points="131.351,64.676 131.351,78.676 145.351,78.676 145.351,64.676" style="fill:none;stroke-width:0.050000mm;stroke:black"/>
<polygon points="150.401,64.676 150.401,78.676 164.401,78.676 164.401,64.676" style="fill:none;stroke-width:0.050000mm;stroke:black"/>
<polygon points="169.451,64.676 169.451,78.676 183.451,78.676 183.451,64.676" style="fill:none;stroke-width:0.050000mm;stroke:black"/>
<polygon points="226.601,64.676 226.601,78.676 240.601,78.676 240.601,64.676" style="fill:none;stroke-width:0.050000mm;stroke:black"/>
<polygon points="188.501,64.676 188.501,78.676 202.501,78.676 202.501,64.676" style="fill:none;stroke-width:0.050000mm;stroke:black"/>
<polygon points="207.551,64.676 207.551,78.676 221.551,78.676 221.551,64.676" style="fill:none;stroke-width:0.050000mm;stroke:black"/>
<polygon points="17.051,45.626 17.051,50.326 15.526,50.326 15.526,47.096 8.776,47.096 8.776,50.326 7.950,50.326 7.950,53.126 8.776,53.126 8.776,59.395 10.501,59.395 10.501,60.596 13.801,60.596 13.801,59.395 15.526,59.395 15.526,54.926 17.051,54.926 17.051,59.626 31.051,59.626 31.051,54.926 32.576,54.926 32.576,59.395 34.301,59.395 34.301,60.596 37.601,60.596 37.601,59.395 39.326,59.395 39.326,53.126 40.151,53.126 40.151,50.326 39.326,50.326 39.326,47.096 32.576,47.096 32.576,50.326 31.051,50.326 31.051,45.626" style="fill:none;stroke-width:0.050000mm;stroke:black"/>
<polygon points="45.626,45.626 45.626,59.626 59.626,59.626 59.626,45.626" style="fill:none;stroke-width:0.050000mm;stroke:black"/>
<polygon points="64.676,45.626 64.676,59.626 78.676,59.626 78.676,45.626" style="fill:none;stroke-width:0.050000mm;stroke:black"/>
<polygon points="83.726,45.626 83.726,59.626 97.726,59.626 97.726,45.626" style="fill:none;stroke-width:0.050000mm;stroke:black"/>
<polygon points="102.775,45.626 102.775,59.626 116.775,59.626 116.775,45.626" style="fill:none;stroke-width:0.050000mm;stroke:black"/>
<polygon points="121.825,45.626 121.825,59.626 135.826,59.626 135.826,45.626" style="fill:none;stroke-width:0.050000mm;stroke:black"/>
<polygon points="140.876,45.626 140.876,59.626 154.876,59.626 154.876,45.626" style="fill:none;stroke-width:0.050000mm;stroke:black"/>
<polygon points="159.926,45.626 159.926,59.626 173.926,59.626 173.926,45.626" style="fill:none;stroke-width:0.050000mm;stroke:black"/>
<polygon points="178.976,45.626 178.976,59.626 192.976,59.626 192.976,45.626" style="fill:none;stroke-width:0.050000mm;stroke:black"/>
<polygon points="198.026,45.626 198.026,59.626 212.026,59.626 212.026,45.626" style="fill:none;stroke-width:0.050000mm;stroke:black"/>
<polygon points="217.076,45.626 217.076,59.626 231.076,59.626 231.076,45.626" style="fill:none;stroke-width:0.050000mm;stroke:black"/>
<polygon points="236.126,45.626 236.126,59.626 250.126,59.626 250.126,45.626" style="fill:none;stroke-width:0.050000mm;stroke:black"/>
<polygon points="259.938,45.626 259.938,59.626 273.938,59.626 273.938,45.626" style="fill:none;stroke-width:0.050000mm;stroke:black"/>
<polygon points="12.288,26.576 12.288,40.576 26.288,40.576 26.288,26.576" style="fill:none;stroke-width:0.050000mm;stroke:black"/>
<polygon points="36.101,26.576 36.101,40.576 50.101,40.576 50.101,26.576" style="fill:none;stroke-width:0.050000mm;stroke:black"/>
<polygon points="55.151,26.576 55.151,40.576 69.151,40.576 69.151,26.576" style="fill:none;stroke-width:0.050000mm;stroke:black"/>
<polygon points="74.201,26.576 74.201,40.576 88.201,40.576 88.201,26.576" style="fill:none;stroke-width:0.050000mm;stroke:black"/>
<polygon points="93.251,26.576 93.251,40.576 107.251,40.576 107.251,26.576" style="fill:none;stroke-width:0.050000mm;stroke:black"/>
<polygon points="112.301,26.576 112.301,40.576 126.301,40.576 126.301,26.576" style="fill:none;stroke-width:0.050000mm;stroke:black"/>
<polygon points="131.351,26.576 131.351,40.576 145.351,40.576 145.351,26.576" style="fill:none;stroke-width:0.050000mm;stroke:black"/>
<polygon points="150.401,26.576 150.401,40.576 164.401,40.576 164.401,26.576" style="fill:none;stroke-width:0.050000mm;stroke:black"/>
<polygon points="169.451,26.576 169.451,40.576 183.451,40.576 183.451,26.576" style="fill:none;stroke-width:0.050000mm;stroke:black"/>
<polygon points="188.501,26.576 188.501,40.576 202.501,40.576 202.501,26.576" style="fill:none;stroke-width:0.050000mm;stroke:black"/>
<polygon points="207.551,26.576 207.551,40.576 221.551,40.576 221.551,26.576" style="fill:none;stroke-width:0.050000mm;stroke:black"/>
<polygon points="231.363,26.576 231.363,40.576 245.363,40.576 245.363,26.576" style="fill:none;stroke-width:0.050000mm;stroke:black"/>
<polygon points="259.938,26.576 259.938,40.576 273.938,40.576 273.938,26.576" style="fill:none;stroke-width:0.050000mm;stroke:black"/>
<polygon points="252.794,7.526 252.794,12.226 251.269,12.226 251.269,8.996 244.519,8.996 244.519,12.226 243.694,12.226 243.694,15.026 244.519,15.026 244.519,21.296 246.244,21.296 246.244,22.496 249.544,22.496 249.544,21.296 251.269,21.296 251.269,16.826 252.794,16.826 252.794,21.526 266.794,21.526 266.794,16.826 268.319,16.826 268.319,21.296 270.044,21.296 270.044,22.496 273.344,22.496 273.344,21.296 275.069,21.296 275.069,15.026 275.894,15.026 275.894,12.226 275.069,12.226 275.069,8.996 268.319,8.996 268.319,12.226 266.794,12.226 266.794,7.526" style="fill:none;stroke-width:0.050000mm;stroke:black"/>
<polygon points="7.526,7.526 7.526,21.526 21.526,21.526 21.526,7.526" style="fill:none;stroke-width:0.050000mm;stroke:black"/>
<polygon points="26.576,7.526 26.576,21.526 40.576,21.526 40.576,7.526" style="fill:none;stroke-width:0.050000mm;stroke:black"/>
<polygon points="45.626,7.526 45.626,21.526 59.626,21.526 59.626,7.526" style="fill:none;stroke-width:0.050000mm;stroke:black"/>
<polygon points="64.676,7.526 64.676,21.526 78.676,21.526 78.676,7.526" style="fill:none;stroke-width:0.050000mm;stroke:black"/>
<polygon points="83.726,7.526 83.726,21.526 97.726,21.526 97.726,7.526" style="fill:none;stroke-width:0.050000mm;stroke:black"/>
<polygon points="102.775,7.526 102.775,21.526 116.775,21.526 116.775,7.526" style="fill:none;stroke-width:0.050000mm;stroke:black"/>
<polygon points="121.825,7.526 121.825,21.526 135.826,21.526 135.826,7.526" style="fill:none;stroke-width:0.050000mm;stroke:black"/>
<polygon points="140.876,7.526 140.876,21.526 154.876,21.526 154.876,7.526" style="fill:none;stroke-width:0.050000mm;stroke:black"/>
<polygon points="159.926,7.526 159.926,21.526 173.926,21.526 173.926,7.526" style="fill:none;stroke-width:0.050000mm;stroke:black"/>
<polygon points="178.976,7.526 178.976,21.526 192.976,21.526 192.976,7.526" style="fill:none;stroke-width:0.050000mm;stroke:black"/>
<polygon points="198.026,7.526 198.026,21.526 212.026,21.526 212.026,7.526" style="fill:none;stroke-width:0.050000mm;stroke:black"/>
<polygon points="219.457,7.526 219.457,21.526 233.457,21.526 233.457,7.526" style="fill:none;stroke-width:0.050000mm;stroke:black"/>
</svg>